%FSLAX34Y34*%
%MOMM*%
%LNCOPPER_INNER1*%
G71*
G01*
%ADD10C,4.319*%
%ADD11C,4.318*%
%ADD12C,2.698*%
%ADD13C,2.700*%
%ADD14C,2.700*%
%ADD15C,1.619*%
%ADD16C,1.621*%
%ADD17C,1.620*%
%ADD18C,1.619*%
%ADD19C,1.621*%
%ADD20C,1.620*%
%ADD21C,1.618*%
%ADD22C,1.166*%
%ADD23C,1.167*%
%ADD24C,1.166*%
%ADD25C,1.168*%
%ADD26C,1.165*%
%ADD27C,1.167*%
%ADD28C,1.163*%
%ADD29C,1.167*%
%ADD30C,0.127*%
%ADD31C,0.381*%
%ADD32C,0.203*%
%ADD33C,1.016*%
%ADD34C,2.540*%
%ADD35C,2.032*%
%ADD36C,1.270*%
%ADD37C,4.320*%
%ADD38C,1.121*%
%ADD39C,0.798*%
%LPD*%
X152252Y-212582D02*
G54D10*
D03*
X871448Y-345475D02*
G54D10*
D03*
X2781515Y-1505376D02*
G54D11*
D03*
X1156964Y-199636D02*
G54D12*
D03*
X1182113Y-224523D02*
G54D12*
D03*
X1281698Y-224523D02*
G54D13*
D03*
X1306844Y-199636D02*
G54D14*
D03*
X1436405Y-278642D02*
G54D12*
D03*
X1436405Y-240537D02*
G54D12*
D03*
X1484670Y-240537D02*
G54D13*
D03*
X1484670Y-278642D02*
G54D13*
D03*
X1484670Y-316742D02*
G54D13*
D03*
X1436405Y-316742D02*
G54D12*
D03*
X588172Y-161025D02*
G54D15*
D03*
X614092Y-161025D02*
G54D15*
D03*
X1111998Y-138155D02*
G54D16*
D03*
X1370098Y-136123D02*
G54D15*
D03*
X2286152Y-258312D02*
G54D15*
D03*
X2260754Y-258312D02*
G54D15*
D03*
X2235349Y-258312D02*
G54D17*
D03*
X2209944Y-258312D02*
G54D15*
D03*
X2184539Y-258312D02*
G54D16*
D03*
X2159136Y-258312D02*
G54D15*
D03*
X2133731Y-258312D02*
G54D16*
D03*
X2108329Y-258312D02*
G54D15*
D03*
X2082931Y-258312D02*
G54D18*
D03*
X1790788Y-240537D02*
G54D15*
D03*
X1790788Y-265932D02*
G54D15*
D03*
X1790788Y-291337D02*
G54D15*
D03*
X1744552Y-281439D02*
G54D15*
D03*
X1344703Y-199636D02*
G54D15*
D03*
X1313199Y-296417D02*
G54D15*
D03*
X1281947Y-199885D02*
G54D15*
D03*
X1256799Y-224784D02*
G54D15*
D03*
X1207007Y-224784D02*
G54D15*
D03*
X1181861Y-199885D02*
G54D15*
D03*
X1160774Y-296417D02*
G54D15*
D03*
X1086596Y-201660D02*
G54D15*
D03*
X825194Y-293880D02*
G54D15*
D03*
X799784Y-293880D02*
G54D15*
D03*
X774389Y-293880D02*
G54D15*
D03*
X635179Y-186420D02*
G54D15*
D03*
X610028Y-186420D02*
G54D15*
D03*
X592238Y-186420D02*
G54D15*
D03*
X567090Y-186420D02*
G54D15*
D03*
X492152Y-302013D02*
G54D15*
D03*
X178165Y-452399D02*
G54D15*
D03*
X178165Y-424713D02*
G54D15*
D03*
X206615Y-410738D02*
G54D16*
D03*
X206615Y-438424D02*
G54D16*
D03*
X206615Y-466120D02*
G54D16*
D03*
X388510Y-443755D02*
G54D15*
D03*
X464712Y-443755D02*
G54D15*
D03*
X1160774Y-347225D02*
G54D15*
D03*
X1160774Y-398033D02*
G54D15*
D03*
X1313199Y-398033D02*
G54D15*
D03*
X1446814Y-459506D02*
G54D15*
D03*
X1790788Y-316742D02*
G54D15*
D03*
X1790788Y-342148D02*
G54D15*
D03*
X1790788Y-367550D02*
G54D15*
D03*
X1790788Y-392955D02*
G54D15*
D03*
X1790788Y-418358D02*
G54D15*
D03*
X1790788Y-443755D02*
G54D15*
D03*
X1769439Y-505236D02*
G54D15*
D03*
X1383816Y-505236D02*
G54D17*
D03*
X1333016Y-505236D02*
G54D15*
D03*
X947386Y-469417D02*
G54D15*
D03*
X921976Y-469417D02*
G54D15*
D03*
X896576Y-469417D02*
G54D15*
D03*
X670234Y-557824D02*
G54D15*
D03*
X665403Y-604065D02*
G54D16*
D03*
X652705Y-557824D02*
G54D15*
D03*
X635179Y-557824D02*
G54D15*
D03*
X556165Y-525053D02*
G54D16*
D03*
X505360Y-525053D02*
G54D19*
D03*
X464712Y-469168D02*
G54D15*
D03*
X426356Y-517430D02*
G54D17*
D03*
X426356Y-568236D02*
G54D17*
D03*
X426356Y-593646D02*
G54D17*
D03*
X426356Y-619043D02*
G54D17*
D03*
X406285Y-606343D02*
G54D15*
D03*
X406285Y-530133D02*
G54D15*
D03*
X388510Y-469168D02*
G54D15*
D03*
X380887Y-619043D02*
G54D20*
D03*
X380887Y-593646D02*
G54D20*
D03*
X380887Y-568236D02*
G54D20*
D03*
X380887Y-517430D02*
G54D20*
D03*
X206615Y-521492D02*
G54D16*
D03*
X206615Y-493806D02*
G54D16*
D03*
X178165Y-507524D02*
G54D15*
D03*
X178165Y-769690D02*
G54D15*
D03*
X206615Y-755716D02*
G54D16*
D03*
X380887Y-771468D02*
G54D20*
D03*
X380887Y-720661D02*
G54D20*
D03*
X380887Y-695261D02*
G54D20*
D03*
X380887Y-669851D02*
G54D20*
D03*
X380887Y-644453D02*
G54D20*
D03*
X406285Y-657153D02*
G54D15*
D03*
X406285Y-682556D02*
G54D15*
D03*
X406285Y-733364D02*
G54D15*
D03*
X406285Y-758761D02*
G54D15*
D03*
X426356Y-771468D02*
G54D17*
D03*
X426356Y-720661D02*
G54D17*
D03*
X426356Y-695261D02*
G54D17*
D03*
X426356Y-669851D02*
G54D17*
D03*
X426356Y-644453D02*
G54D17*
D03*
X640000Y-659945D02*
G54D15*
D03*
X640000Y-639119D02*
G54D15*
D03*
X665403Y-621593D02*
G54D16*
D03*
X665403Y-639119D02*
G54D16*
D03*
X665403Y-659945D02*
G54D16*
D03*
X665403Y-677471D02*
G54D16*
D03*
X665403Y-694999D02*
G54D16*
D03*
X665403Y-715835D02*
G54D16*
D03*
X665403Y-733364D02*
G54D16*
D03*
X665403Y-750894D02*
G54D16*
D03*
X1043406Y-708461D02*
G54D15*
D03*
X1094216Y-708461D02*
G54D15*
D03*
X1769439Y-657654D02*
G54D15*
D03*
X1039342Y-799922D02*
G54D15*
D03*
X908011Y-909919D02*
G54D16*
D03*
X755591Y-909919D02*
G54D18*
D03*
X688776Y-871052D02*
G54D19*
D03*
X663373Y-871052D02*
G54D15*
D03*
X637968Y-871052D02*
G54D19*
D03*
X612566Y-871052D02*
G54D15*
D03*
X587161Y-871052D02*
G54D17*
D03*
X561756Y-871052D02*
G54D15*
D03*
X536358Y-871052D02*
G54D15*
D03*
X536358Y-834470D02*
G54D15*
D03*
X510948Y-834470D02*
G54D15*
D03*
X510948Y-871052D02*
G54D15*
D03*
X485551Y-871052D02*
G54D15*
D03*
X485551Y-834470D02*
G54D15*
D03*
X426356Y-796871D02*
G54D17*
D03*
X426356Y-822274D02*
G54D17*
D03*
X406285Y-834981D02*
G54D15*
D03*
X406285Y-809571D02*
G54D15*
D03*
X380887Y-796871D02*
G54D20*
D03*
X380887Y-822274D02*
G54D20*
D03*
X206615Y-866477D02*
G54D16*
D03*
X206615Y-838784D02*
G54D16*
D03*
X206615Y-811098D02*
G54D16*
D03*
X206615Y-783409D02*
G54D16*
D03*
X178165Y-797376D02*
G54D15*
D03*
X178165Y-852512D02*
G54D15*
D03*
X270120Y-999086D02*
G54D15*
D03*
X295526Y-999086D02*
G54D19*
D03*
X320928Y-999086D02*
G54D15*
D03*
X1261881Y-997051D02*
G54D15*
D03*
X1287279Y-997051D02*
G54D15*
D03*
X1312692Y-997051D02*
G54D15*
D03*
X1338089Y-997051D02*
G54D15*
D03*
X1363499Y-997051D02*
G54D15*
D03*
X1388896Y-997051D02*
G54D15*
D03*
X1414307Y-997051D02*
G54D15*
D03*
X1439704Y-997051D02*
G54D18*
D03*
X1465114Y-997051D02*
G54D18*
D03*
X2344579Y-1063612D02*
G54D18*
D03*
X2344579Y-1038206D02*
G54D18*
D03*
X2344579Y-1012804D02*
G54D18*
D03*
X2344579Y-987399D02*
G54D18*
D03*
X2344579Y-961996D02*
G54D18*
D03*
X2497002Y-961996D02*
G54D15*
D03*
X2497002Y-987399D02*
G54D15*
D03*
X2497002Y-1012804D02*
G54D15*
D03*
X2497002Y-1038206D02*
G54D15*
D03*
X2497002Y-1063612D02*
G54D15*
D03*
X2552897Y-1063612D02*
G54D15*
D03*
X2552897Y-1038206D02*
G54D15*
D03*
X2552897Y-1012804D02*
G54D15*
D03*
X2552897Y-987399D02*
G54D15*
D03*
X2552897Y-961996D02*
G54D15*
D03*
X2705315Y-961996D02*
G54D16*
D03*
X2705315Y-987399D02*
G54D16*
D03*
X2705315Y-1012804D02*
G54D16*
D03*
X2705315Y-1038206D02*
G54D16*
D03*
X2705315Y-1063612D02*
G54D16*
D03*
X2800324Y-1078854D02*
G54D21*
D03*
X2800324Y-1104257D02*
G54D21*
D03*
X2800324Y-1129659D02*
G54D21*
D03*
X2800324Y-1155057D02*
G54D21*
D03*
X2800324Y-1180470D02*
G54D21*
D03*
X2800324Y-1205867D02*
G54D21*
D03*
X2705315Y-1216037D02*
G54D16*
D03*
X2705315Y-1165227D02*
G54D16*
D03*
X2705315Y-1139817D02*
G54D16*
D03*
X2705315Y-1114419D02*
G54D16*
D03*
X2705315Y-1089009D02*
G54D16*
D03*
X2552897Y-1089009D02*
G54D15*
D03*
X2552897Y-1114419D02*
G54D15*
D03*
X2552897Y-1139817D02*
G54D15*
D03*
X2552897Y-1165227D02*
G54D15*
D03*
X2552897Y-1216037D02*
G54D15*
D03*
X2525968Y-1165227D02*
G54D15*
D03*
X2525968Y-1190624D02*
G54D15*
D03*
X2525968Y-1216037D02*
G54D15*
D03*
X2497002Y-1216037D02*
G54D15*
D03*
X2497002Y-1165227D02*
G54D15*
D03*
X2497002Y-1139817D02*
G54D15*
D03*
X2497002Y-1114419D02*
G54D15*
D03*
X2497002Y-1089009D02*
G54D15*
D03*
X2344579Y-1089009D02*
G54D18*
D03*
X2344579Y-1114419D02*
G54D18*
D03*
X2344579Y-1139817D02*
G54D18*
D03*
X2344579Y-1165227D02*
G54D18*
D03*
X2344579Y-1216037D02*
G54D18*
D03*
X208647Y-1175138D02*
G54D15*
D03*
X208647Y-1107048D02*
G54D15*
D03*
X183745Y-1107048D02*
G54D15*
D03*
X183745Y-1128133D02*
G54D15*
D03*
X183745Y-1154043D02*
G54D15*
D03*
X335157Y-1260492D02*
G54D16*
D03*
X335157Y-1294531D02*
G54D16*
D03*
X341256Y-1345846D02*
G54D15*
D03*
X341256Y-1379885D02*
G54D15*
D03*
X2344579Y-1368455D02*
G54D18*
D03*
X2344579Y-1343050D02*
G54D18*
D03*
X2344579Y-1317645D02*
G54D18*
D03*
X2344579Y-1292242D02*
G54D18*
D03*
X2344579Y-1266840D02*
G54D18*
D03*
X2344579Y-1241434D02*
G54D18*
D03*
X2497002Y-1241434D02*
G54D15*
D03*
X2497002Y-1266840D02*
G54D15*
D03*
X2497002Y-1292242D02*
G54D15*
D03*
X2497002Y-1317645D02*
G54D15*
D03*
X2497002Y-1343050D02*
G54D15*
D03*
X2497002Y-1368455D02*
G54D15*
D03*
X2525968Y-1368455D02*
G54D15*
D03*
X2525968Y-1343050D02*
G54D15*
D03*
X2525968Y-1317645D02*
G54D15*
D03*
X2525968Y-1292242D02*
G54D15*
D03*
X2525968Y-1266840D02*
G54D15*
D03*
X2525968Y-1241434D02*
G54D15*
D03*
X2552897Y-1241434D02*
G54D15*
D03*
X2552897Y-1266840D02*
G54D15*
D03*
X2552897Y-1292242D02*
G54D15*
D03*
X2552897Y-1317645D02*
G54D15*
D03*
X2552897Y-1343050D02*
G54D15*
D03*
X2552897Y-1368455D02*
G54D15*
D03*
X2705315Y-1368455D02*
G54D16*
D03*
X2705315Y-1343050D02*
G54D16*
D03*
X2705315Y-1317645D02*
G54D16*
D03*
X2705315Y-1292242D02*
G54D16*
D03*
X2705315Y-1266840D02*
G54D16*
D03*
X2705315Y-1241434D02*
G54D16*
D03*
X2800324Y-1231277D02*
G54D21*
D03*
X2800324Y-1256674D02*
G54D21*
D03*
X2800324Y-1282084D02*
G54D21*
D03*
X2705315Y-1470062D02*
G54D16*
D03*
X2705315Y-1444668D02*
G54D16*
D03*
X2705315Y-1419255D02*
G54D16*
D03*
X2705315Y-1393860D02*
G54D16*
D03*
X2552897Y-1393860D02*
G54D15*
D03*
X2552897Y-1419255D02*
G54D15*
D03*
X2552897Y-1444668D02*
G54D15*
D03*
X2552897Y-1470062D02*
G54D15*
D03*
X2497002Y-1470062D02*
G54D15*
D03*
X2497002Y-1444668D02*
G54D15*
D03*
X2497002Y-1419255D02*
G54D15*
D03*
X2497002Y-1393860D02*
G54D15*
D03*
X2344579Y-1393860D02*
G54D18*
D03*
X2344579Y-1419255D02*
G54D18*
D03*
X2344579Y-1444668D02*
G54D18*
D03*
X2344579Y-1470062D02*
G54D18*
D03*
X2015352Y-1492925D02*
G54D15*
D03*
X1989947Y-1492925D02*
G54D19*
D03*
X1964544Y-1492925D02*
G54D15*
D03*
X1939147Y-1492925D02*
G54D15*
D03*
X1913737Y-1492925D02*
G54D15*
D03*
X1888337Y-1492925D02*
G54D15*
D03*
X1862926Y-1492925D02*
G54D15*
D03*
X1837529Y-1492925D02*
G54D15*
D03*
X1812119Y-1492925D02*
G54D15*
D03*
X410936Y-1490390D02*
G54D19*
D03*
X390946Y-1490390D02*
G54D15*
D03*
X370953Y-1490390D02*
G54D15*
D03*
X350956Y-1490390D02*
G54D15*
D03*
X330961Y-1490390D02*
G54D15*
D03*
X310971Y-1490390D02*
G54D16*
D03*
X290984Y-1490390D02*
G54D15*
D03*
X270989Y-1490390D02*
G54D15*
D03*
X250994Y-1490390D02*
G54D15*
D03*
X230999Y-1490390D02*
G54D15*
D03*
X190862Y-1437556D02*
G54D16*
D03*
X172577Y-151620D02*
G54D22*
D03*
X235574Y-152128D02*
G54D23*
D03*
X430669Y-151620D02*
G54D22*
D03*
X703508Y-133840D02*
G54D22*
D03*
X2784068Y-202427D02*
G54D22*
D03*
X2763748Y-196329D02*
G54D22*
D03*
X2757652Y-226819D02*
G54D22*
D03*
X2753588Y-212582D02*
G54D22*
D03*
X2751556Y-239006D02*
G54D22*
D03*
X2749524Y-251205D02*
G54D22*
D03*
X2735300Y-234949D02*
G54D22*
D03*
X2725140Y-194297D02*
G54D22*
D03*
X2725140Y-228843D02*
G54D22*
D03*
X2721076Y-275587D02*
G54D22*
D03*
X2706849Y-212582D02*
G54D24*
D03*
X2694660Y-194297D02*
G54D22*
D03*
X2690593Y-214622D02*
G54D22*
D03*
X2680410Y-243070D02*
G54D22*
D03*
X2674312Y-200393D02*
G54D22*
D03*
X2664167Y-243070D02*
G54D25*
D03*
X2664167Y-214622D02*
G54D25*
D03*
X2651962Y-190233D02*
G54D22*
D03*
X2647898Y-243070D02*
G54D22*
D03*
X2633674Y-194297D02*
G54D22*
D03*
X2629610Y-243070D02*
G54D22*
D03*
X2627578Y-214622D02*
G54D22*
D03*
X2613354Y-253235D02*
G54D22*
D03*
X2605226Y-202427D02*
G54D22*
D03*
X2603194Y-247136D02*
G54D22*
D03*
X2601162Y-214622D02*
G54D22*
D03*
X2588970Y-214622D02*
G54D22*
D03*
X2588970Y-190233D02*
G54D22*
D03*
X2570682Y-194297D02*
G54D22*
D03*
X2562552Y-210558D02*
G54D24*
D03*
X2558485Y-259326D02*
G54D22*
D03*
X2554421Y-190233D02*
G54D22*
D03*
X2546288Y-200393D02*
G54D22*
D03*
X2534094Y-263390D02*
G54D22*
D03*
X2534094Y-214622D02*
G54D22*
D03*
X2525963Y-190233D02*
G54D24*
D03*
X2517830Y-263390D02*
G54D22*
D03*
X2507678Y-194297D02*
G54D22*
D03*
X2501574Y-214622D02*
G54D22*
D03*
X2501574Y-263390D02*
G54D22*
D03*
X2483286Y-263390D02*
G54D22*
D03*
X2483286Y-194297D02*
G54D22*
D03*
X2477195Y-214622D02*
G54D24*
D03*
X2467025Y-263390D02*
G54D24*
D03*
X2460934Y-214622D02*
G54D22*
D03*
X2460934Y-190233D02*
G54D22*
D03*
X2444673Y-194297D02*
G54D24*
D03*
X2442641Y-263390D02*
G54D23*
D03*
X2440606Y-214622D02*
G54D22*
D03*
X2426388Y-263390D02*
G54D22*
D03*
X2424345Y-194297D02*
G54D24*
D03*
X2420284Y-206491D02*
G54D22*
D03*
X2410126Y-214622D02*
G54D22*
D03*
X2397932Y-190233D02*
G54D22*
D03*
X2397932Y-214622D02*
G54D22*
D03*
X2393862Y-263390D02*
G54D26*
D03*
X2381668Y-194297D02*
G54D22*
D03*
X2377604Y-263390D02*
G54D22*
D03*
X2373540Y-214622D02*
G54D22*
D03*
X2361351Y-263390D02*
G54D23*
D03*
X2357284Y-196329D02*
G54D23*
D03*
X2349164Y-214622D02*
G54D22*
D03*
X2345095Y-263390D02*
G54D22*
D03*
X2334424Y-189720D02*
G54D23*
D03*
X2326794Y-263390D02*
G54D22*
D03*
X2314607Y-192270D02*
G54D23*
D03*
X2300711Y-191940D02*
G54D26*
D03*
X2282090Y-198363D02*
G54D22*
D03*
X2265834Y-206491D02*
G54D22*
D03*
X2253634Y-304045D02*
G54D22*
D03*
X2247546Y-206491D02*
G54D22*
D03*
X2241440Y-304045D02*
G54D22*
D03*
X2237374Y-196329D02*
G54D24*
D03*
X2229250Y-304045D02*
G54D23*
D03*
X2229250Y-206491D02*
G54D23*
D03*
X2221130Y-196329D02*
G54D22*
D03*
X2217061Y-304045D02*
G54D26*
D03*
X2212994Y-206491D02*
G54D22*
D03*
X2204866Y-198363D02*
G54D22*
D03*
X2196738Y-190233D02*
G54D22*
D03*
X2188605Y-210558D02*
G54D24*
D03*
X2178443Y-190233D02*
G54D23*
D03*
X2176411Y-210558D02*
G54D22*
D03*
X2154059Y-214622D02*
G54D22*
D03*
X2154059Y-202427D02*
G54D22*
D03*
X2137800Y-192270D02*
G54D22*
D03*
X2131707Y-202427D02*
G54D22*
D03*
X2118491Y-199890D02*
G54D24*
D03*
X2111382Y-188206D02*
G54D22*
D03*
X2111382Y-232907D02*
G54D22*
D03*
X2103251Y-222755D02*
G54D22*
D03*
X2099184Y-245107D02*
G54D22*
D03*
X2091057Y-188206D02*
G54D22*
D03*
X2080899Y-196329D02*
G54D22*
D03*
X2072769Y-188206D02*
G54D22*
D03*
X2064638Y-196329D02*
G54D22*
D03*
X2056508Y-188206D02*
G54D24*
D03*
X2048377Y-196329D02*
G54D22*
D03*
X2044313Y-212582D02*
G54D22*
D03*
X2023985Y-186164D02*
G54D24*
D03*
X2023985Y-214622D02*
G54D24*
D03*
X2017894Y-202427D02*
G54D22*
D03*
X2007732Y-222755D02*
G54D27*
D03*
X1999609Y-196329D02*
G54D22*
D03*
X1995542Y-210558D02*
G54D22*
D03*
X1989439Y-273562D02*
G54D22*
D03*
X1987412Y-218686D02*
G54D22*
D03*
X1983168Y-196158D02*
G54D22*
D03*
X1973180Y-208516D02*
G54D22*
D03*
X1948799Y-210558D02*
G54D22*
D03*
X1944735Y-224779D02*
G54D22*
D03*
X1934565Y-228843D02*
G54D22*
D03*
X1926437Y-214622D02*
G54D22*
D03*
X1922375Y-293880D02*
G54D23*
D03*
X1918311Y-226819D02*
G54D23*
D03*
X1914245Y-302005D02*
G54D23*
D03*
X1910188Y-214622D02*
G54D22*
D03*
X1902055Y-226819D02*
G54D22*
D03*
X1889861Y-196329D02*
G54D22*
D03*
X1889861Y-220713D02*
G54D22*
D03*
X1875632Y-220713D02*
G54D23*
D03*
X1869536Y-230883D02*
G54D24*
D03*
X1857338Y-243070D02*
G54D22*
D03*
X1853274Y-196329D02*
G54D22*
D03*
X1849208Y-214622D02*
G54D22*
D03*
X1841078Y-273562D02*
G54D22*
D03*
X1832954Y-241038D02*
G54D23*
D03*
X1830922Y-253235D02*
G54D22*
D03*
X1822792Y-228843D02*
G54D22*
D03*
X1818728Y-214622D02*
G54D26*
D03*
X1810598Y-234949D02*
G54D22*
D03*
X1757760Y-253235D02*
G54D22*
D03*
X1753696Y-198363D02*
G54D22*
D03*
X1753696Y-212582D02*
G54D22*
D03*
X1733369Y-208516D02*
G54D22*
D03*
X1702889Y-243070D02*
G54D22*
D03*
X1688667Y-196329D02*
G54D22*
D03*
X1676473Y-236974D02*
G54D22*
D03*
X1676473Y-251205D02*
G54D22*
D03*
X1668342Y-259326D02*
G54D22*
D03*
X1668342Y-271520D02*
G54D22*
D03*
X1666303Y-297939D02*
G54D22*
D03*
X1097269Y-258320D02*
G54D22*
D03*
X731453Y-286252D02*
G54D24*
D03*
X604440Y-243070D02*
G54D22*
D03*
X563790Y-253235D02*
G54D22*
D03*
X528220Y-314197D02*
G54D22*
D03*
X522129Y-214622D02*
G54D24*
D03*
X516798Y-274827D02*
G54D22*
D03*
X507163Y-285620D02*
G54D22*
D03*
X434735Y-304045D02*
G54D24*
D03*
X351421Y-289813D02*
G54D22*
D03*
X324995Y-304045D02*
G54D23*
D03*
X297055Y-258320D02*
G54D22*
D03*
X215764Y-258320D02*
G54D22*
D03*
X131924Y-192270D02*
G54D22*
D03*
X129900Y-257301D02*
G54D22*
D03*
X129900Y-245107D02*
G54D22*
D03*
X119730Y-234949D02*
G54D22*
D03*
X316869Y-334525D02*
G54D22*
D03*
X316869Y-401594D02*
G54D22*
D03*
X316869Y-438167D02*
G54D22*
D03*
X337184Y-460527D02*
G54D22*
D03*
X339221Y-348746D02*
G54D22*
D03*
X339221Y-373138D02*
G54D22*
D03*
X355485Y-391426D02*
G54D22*
D03*
X402226Y-393463D02*
G54D22*
D03*
X448970Y-419879D02*
G54D22*
D03*
X448970Y-369074D02*
G54D22*
D03*
X512980Y-375173D02*
G54D22*
D03*
X520090Y-436143D02*
G54D22*
D03*
X548548Y-397530D02*
G54D22*
D03*
X573950Y-372630D02*
G54D23*
D03*
X579030Y-464088D02*
G54D22*
D03*
X581570Y-344682D02*
G54D23*
D03*
X591735Y-453918D02*
G54D24*
D03*
X594270Y-395490D02*
G54D22*
D03*
X603930Y-356877D02*
G54D22*
D03*
X637458Y-408195D02*
G54D22*
D03*
X660318Y-415815D02*
G54D22*
D03*
X667940Y-443763D02*
G54D22*
D03*
X683183Y-443763D02*
G54D24*
D03*
X716213Y-395490D02*
G54D24*
D03*
X721291Y-357388D02*
G54D27*
D03*
X721291Y-377713D02*
G54D27*
D03*
X1013939Y-466623D02*
G54D22*
D03*
X1119621Y-426991D02*
G54D22*
D03*
X1127365Y-462173D02*
G54D24*
D03*
X1127749Y-403110D02*
G54D22*
D03*
X1127749Y-450362D02*
G54D22*
D03*
X1131816Y-426991D02*
G54D22*
D03*
X1137906Y-413791D02*
G54D24*
D03*
X1155696Y-324370D02*
G54D24*
D03*
X1176016Y-464088D02*
G54D23*
D03*
X1259849Y-458495D02*
G54D22*
D03*
X1314723Y-324370D02*
G54D22*
D03*
X1361467Y-316240D02*
G54D22*
D03*
X1363491Y-415815D02*
G54D22*
D03*
X1422430Y-409727D02*
G54D22*
D03*
X1473240Y-458495D02*
G54D22*
D03*
X1491525Y-365008D02*
G54D22*
D03*
X1511853Y-391426D02*
G54D22*
D03*
X1519983Y-354853D02*
G54D22*
D03*
X1522015Y-440207D02*
G54D23*
D03*
X1538269Y-440207D02*
G54D22*
D03*
X1552503Y-365008D02*
G54D22*
D03*
X1560626Y-411751D02*
G54D23*
D03*
X1591116Y-415815D02*
G54D24*
D03*
X1601274Y-352813D02*
G54D22*
D03*
X1674433Y-440207D02*
G54D22*
D03*
X1700857Y-438167D02*
G54D23*
D03*
X1702889Y-377205D02*
G54D22*
D03*
X1717113Y-417847D02*
G54D22*
D03*
X1723214Y-352813D02*
G54D24*
D03*
X1725241Y-454428D02*
G54D22*
D03*
X1733369Y-322330D02*
G54D22*
D03*
X1735408Y-358916D02*
G54D22*
D03*
X1737435Y-417847D02*
G54D22*
D03*
X1745566Y-448337D02*
G54D24*
D03*
X1981306Y-395490D02*
G54D24*
D03*
X2091057Y-464591D02*
G54D22*
D03*
X2091057Y-452401D02*
G54D22*
D03*
X2198763Y-444273D02*
G54D22*
D03*
X2198763Y-460527D02*
G54D22*
D03*
X2208930Y-452401D02*
G54D22*
D03*
X2212994Y-401594D02*
G54D22*
D03*
X2221130Y-336557D02*
G54D22*
D03*
X2233314Y-336557D02*
G54D23*
D03*
X2237374Y-419879D02*
G54D24*
D03*
X2245506Y-336557D02*
G54D22*
D03*
X2245506Y-409727D02*
G54D22*
D03*
X2253634Y-419879D02*
G54D22*
D03*
X2261762Y-409727D02*
G54D22*
D03*
X2267866Y-358916D02*
G54D23*
D03*
X2271930Y-417847D02*
G54D23*
D03*
X2271930Y-432079D02*
G54D23*
D03*
X2278026Y-450362D02*
G54D22*
D03*
X2286156Y-417847D02*
G54D22*
D03*
X2290223Y-405658D02*
G54D24*
D03*
X2296314Y-452401D02*
G54D22*
D03*
X2296314Y-440207D02*
G54D22*
D03*
X2302418Y-405658D02*
G54D22*
D03*
X2304442Y-430037D02*
G54D22*
D03*
X2308506Y-452401D02*
G54D22*
D03*
X2312575Y-358916D02*
G54D24*
D03*
X2314607Y-405658D02*
G54D23*
D03*
X2316639Y-425978D02*
G54D24*
D03*
X2320706Y-452401D02*
G54D22*
D03*
X2332900Y-421914D02*
G54D22*
D03*
X2338991Y-383301D02*
G54D24*
D03*
X2345095Y-395490D02*
G54D22*
D03*
X2357284Y-395490D02*
G54D23*
D03*
X2452806Y-415815D02*
G54D22*
D03*
X2452806Y-387360D02*
G54D22*
D03*
X2460934Y-379237D02*
G54D22*
D03*
X2462958Y-421914D02*
G54D22*
D03*
X2471089Y-434103D02*
G54D24*
D03*
X2473128Y-379237D02*
G54D22*
D03*
X2479222Y-425978D02*
G54D22*
D03*
X2483286Y-385335D02*
G54D22*
D03*
X2487350Y-436143D02*
G54D22*
D03*
X2493446Y-379237D02*
G54D23*
D03*
X2513766Y-377205D02*
G54D22*
D03*
X2517830Y-365008D02*
G54D22*
D03*
X2530027Y-393463D02*
G54D24*
D03*
X2530027Y-405658D02*
G54D24*
D03*
X2530027Y-417847D02*
G54D24*
D03*
X2550355Y-419879D02*
G54D24*
D03*
X2550355Y-407685D02*
G54D24*
D03*
X2550355Y-395490D02*
G54D24*
D03*
X2566466Y-352963D02*
G54D22*
D03*
X2574744Y-395490D02*
G54D24*
D03*
X2574744Y-407685D02*
G54D24*
D03*
X2574744Y-419879D02*
G54D24*
D03*
X2595066Y-419879D02*
G54D22*
D03*
X2595066Y-407685D02*
G54D22*
D03*
X2595066Y-395490D02*
G54D22*
D03*
X2615386Y-395490D02*
G54D22*
D03*
X2615386Y-407685D02*
G54D22*
D03*
X2615386Y-419879D02*
G54D22*
D03*
X2617418Y-462559D02*
G54D22*
D03*
X2617418Y-450362D02*
G54D22*
D03*
X2617418Y-438167D02*
G54D22*
D03*
X2629610Y-418861D02*
G54D22*
D03*
X2631642Y-438167D02*
G54D22*
D03*
X2633674Y-405658D02*
G54D22*
D03*
X2635706Y-393463D02*
G54D22*
D03*
X2647898Y-436143D02*
G54D22*
D03*
X2647898Y-423946D02*
G54D22*
D03*
X2649930Y-411751D02*
G54D22*
D03*
X2660103Y-379237D02*
G54D28*
D03*
X2664167Y-367047D02*
G54D25*
D03*
X2676346Y-375173D02*
G54D22*
D03*
X2680410Y-362983D02*
G54D22*
D03*
X2694660Y-397530D02*
G54D22*
D03*
X2674312Y-594656D02*
G54D22*
D03*
X2666186Y-604819D02*
G54D22*
D03*
X2647898Y-468657D02*
G54D22*
D03*
X2641800Y-478820D02*
G54D22*
D03*
X2637738Y-505236D02*
G54D22*
D03*
X2625546Y-549948D02*
G54D22*
D03*
X2623514Y-566204D02*
G54D22*
D03*
X2617418Y-474753D02*
G54D22*
D03*
X2617418Y-486950D02*
G54D22*
D03*
X2613354Y-549948D02*
G54D22*
D03*
X2599130Y-501169D02*
G54D22*
D03*
X2584906Y-497106D02*
G54D22*
D03*
X2580842Y-513366D02*
G54D22*
D03*
X2572709Y-503212D02*
G54D29*
D03*
X2564581Y-547916D02*
G54D27*
D03*
X2560510Y-527588D02*
G54D22*
D03*
X2550355Y-543852D02*
G54D24*
D03*
X2546288Y-523524D02*
G54D22*
D03*
X2546288Y-503212D02*
G54D22*
D03*
X2546288Y-474753D02*
G54D22*
D03*
X2544256Y-491017D02*
G54D23*
D03*
X2536126Y-541824D02*
G54D23*
D03*
X2532062Y-474753D02*
G54D23*
D03*
X2528816Y-567016D02*
G54D22*
D03*
X2517830Y-612944D02*
G54D22*
D03*
X2507678Y-588568D02*
G54D22*
D03*
X2328836Y-488975D02*
G54D22*
D03*
X2328836Y-517436D02*
G54D22*
D03*
X2320706Y-614984D02*
G54D22*
D03*
X2318671Y-570268D02*
G54D23*
D03*
X2314607Y-472724D02*
G54D23*
D03*
X2314607Y-486950D02*
G54D23*
D03*
X2314607Y-517436D02*
G54D23*
D03*
X2304442Y-614984D02*
G54D22*
D03*
X2304442Y-590592D02*
G54D22*
D03*
X2304442Y-570268D02*
G54D22*
D03*
X2302418Y-517436D02*
G54D22*
D03*
X2296314Y-486950D02*
G54D22*
D03*
X2294287Y-505236D02*
G54D24*
D03*
X2292880Y-542460D02*
G54D26*
D03*
X2292250Y-614984D02*
G54D22*
D03*
X2290223Y-590592D02*
G54D24*
D03*
X2290223Y-570268D02*
G54D24*
D03*
X2286156Y-517436D02*
G54D22*
D03*
X2278026Y-614984D02*
G54D22*
D03*
X2278026Y-590592D02*
G54D22*
D03*
X2278026Y-570268D02*
G54D22*
D03*
X2278026Y-545888D02*
G54D22*
D03*
X2273962Y-517436D02*
G54D22*
D03*
X2265834Y-566204D02*
G54D22*
D03*
X2263805Y-549948D02*
G54D22*
D03*
X2243482Y-527588D02*
G54D22*
D03*
X2243482Y-539785D02*
G54D22*
D03*
X2235346Y-566204D02*
G54D22*
D03*
X2217061Y-476778D02*
G54D26*
D03*
X2212994Y-617008D02*
G54D22*
D03*
X2208930Y-468657D02*
G54D22*
D03*
X2202827Y-488975D02*
G54D22*
D03*
X2190638Y-495084D02*
G54D23*
D03*
X2182507Y-511334D02*
G54D27*
D03*
X2178443Y-491017D02*
G54D23*
D03*
X2178443Y-614984D02*
G54D23*
D03*
X2174386Y-598723D02*
G54D22*
D03*
X2170320Y-511334D02*
G54D22*
D03*
X2170320Y-523524D02*
G54D22*
D03*
X2168280Y-535718D02*
G54D22*
D03*
X2164216Y-547916D02*
G54D22*
D03*
X2141864Y-570268D02*
G54D22*
D03*
X2135763Y-495084D02*
G54D27*
D03*
X2135763Y-507270D02*
G54D27*
D03*
X2135763Y-519460D02*
G54D27*
D03*
X2135763Y-531654D02*
G54D27*
D03*
X2129667Y-554012D02*
G54D24*
D03*
X2125603Y-572307D02*
G54D22*
D03*
X2121537Y-531654D02*
G54D22*
D03*
X2109340Y-602787D02*
G54D24*
D03*
X2095121Y-584502D02*
G54D22*
D03*
X2086990Y-566204D02*
G54D22*
D03*
X2084963Y-509302D02*
G54D24*
D03*
X2072769Y-614984D02*
G54D22*
D03*
X2072769Y-549948D02*
G54D22*
D03*
X2072769Y-495084D02*
G54D22*
D03*
X2019919Y-511334D02*
G54D22*
D03*
X1863445Y-539785D02*
G54D22*
D03*
X1855314Y-523524D02*
G54D22*
D03*
X1796376Y-604819D02*
G54D26*
D03*
X1751657Y-539785D02*
G54D22*
D03*
X1731344Y-499148D02*
G54D22*
D03*
X1725241Y-533692D02*
G54D22*
D03*
X1723214Y-488975D02*
G54D24*
D03*
X1719150Y-568240D02*
G54D24*
D03*
X1713044Y-525564D02*
G54D24*
D03*
X1704921Y-551980D02*
G54D23*
D03*
X1700857Y-525564D02*
G54D23*
D03*
X1660209Y-541824D02*
G54D22*
D03*
X1648017Y-521500D02*
G54D22*
D03*
X1618045Y-540296D02*
G54D22*
D03*
X1613468Y-476778D02*
G54D24*
D03*
X1597207Y-531654D02*
G54D22*
D03*
X1591116Y-604819D02*
G54D24*
D03*
X1572312Y-542830D02*
G54D23*
D03*
X1564692Y-604819D02*
G54D27*
D03*
X1546399Y-584502D02*
G54D22*
D03*
X1528111Y-604819D02*
G54D22*
D03*
X1517949Y-543852D02*
G54D23*
D03*
X1509826Y-584502D02*
G54D24*
D03*
X1485437Y-602787D02*
G54D22*
D03*
X1483400Y-484911D02*
G54D27*
D03*
X1483400Y-513366D02*
G54D27*
D03*
X1483400Y-584502D02*
G54D27*
D03*
X1481368Y-543852D02*
G54D22*
D03*
X1452912Y-604819D02*
G54D24*
D03*
X1446821Y-476778D02*
G54D22*
D03*
X1444782Y-541824D02*
G54D22*
D03*
X1440715Y-604819D02*
G54D22*
D03*
X1420405Y-476778D02*
G54D22*
D03*
X1408208Y-570268D02*
G54D24*
D03*
X1398038Y-488975D02*
G54D26*
D03*
X1333011Y-598723D02*
G54D22*
D03*
X1333011Y-572307D02*
G54D22*
D03*
X1328945Y-545888D02*
G54D22*
D03*
X1303039Y-553000D02*
G54D22*
D03*
X1280688Y-550450D02*
G54D22*
D03*
X1280174Y-588568D02*
G54D24*
D03*
X1267980Y-588568D02*
G54D22*
D03*
X1257817Y-488975D02*
G54D23*
D03*
X1255783Y-588568D02*
G54D22*
D03*
X1243588Y-588568D02*
G54D24*
D03*
X1227327Y-588568D02*
G54D22*
D03*
X1226667Y-479480D02*
G54D22*
D03*
X1215138Y-588568D02*
G54D23*
D03*
X1202951Y-588568D02*
G54D22*
D03*
X1196334Y-532676D02*
G54D22*
D03*
X1190754Y-588568D02*
G54D22*
D03*
X1182623Y-541824D02*
G54D22*
D03*
X1137906Y-474753D02*
G54D24*
D03*
X1127749Y-604819D02*
G54D22*
D03*
X1107424Y-606343D02*
G54D22*
D03*
X1099293Y-551980D02*
G54D22*
D03*
X1095229Y-617008D02*
G54D22*
D03*
X1087101Y-551980D02*
G54D22*
D03*
X1072877Y-554012D02*
G54D22*
D03*
X1043916Y-474245D02*
G54D27*
D03*
X1022070Y-582460D02*
G54D22*
D03*
X1020045Y-614984D02*
G54D22*
D03*
X993617Y-497106D02*
G54D27*
D03*
X947376Y-494570D02*
G54D22*
D03*
X947376Y-527588D02*
G54D22*
D03*
X947376Y-553000D02*
G54D22*
D03*
X947376Y-580946D02*
G54D22*
D03*
X921981Y-596188D02*
G54D22*
D03*
X908257Y-598723D02*
G54D22*
D03*
X881328Y-601260D02*
G54D22*
D03*
X840691Y-596188D02*
G54D24*
D03*
X745426Y-508546D02*
G54D22*
D03*
X730186Y-493306D02*
G54D22*
D03*
X727635Y-561886D02*
G54D22*
D03*
X705037Y-541824D02*
G54D24*
D03*
X627813Y-578396D02*
G54D22*
D03*
X593257Y-497106D02*
G54D27*
D03*
X591735Y-479330D02*
G54D24*
D03*
X558703Y-604819D02*
G54D22*
D03*
X530262Y-470689D02*
G54D22*
D03*
X505868Y-545888D02*
G54D22*
D03*
X505360Y-586016D02*
G54D22*
D03*
X454550Y-619051D02*
G54D22*
D03*
X440839Y-574332D02*
G54D26*
D03*
X359549Y-562137D02*
G54D22*
D03*
X358017Y-588568D02*
G54D22*
D03*
X320928Y-598723D02*
G54D23*
D03*
X314832Y-472724D02*
G54D22*
D03*
X298571Y-584502D02*
G54D22*
D03*
X225411Y-519460D02*
G54D22*
D03*
X223384Y-556044D02*
G54D22*
D03*
X211190Y-551980D02*
G54D22*
D03*
X213214Y-637336D02*
G54D22*
D03*
X288416Y-686109D02*
G54D22*
D03*
X297055Y-653594D02*
G54D22*
D03*
X319917Y-654616D02*
G54D22*
D03*
X319917Y-669858D02*
G54D22*
D03*
X320928Y-721423D02*
G54D23*
D03*
X351421Y-665792D02*
G54D22*
D03*
X353443Y-740978D02*
G54D22*
D03*
X357509Y-757240D02*
G54D22*
D03*
X490118Y-646993D02*
G54D22*
D03*
X499772Y-686109D02*
G54D23*
D03*
X500272Y-621583D02*
G54D22*
D03*
X538390Y-765370D02*
G54D22*
D03*
X550580Y-694235D02*
G54D23*
D03*
X564806Y-635309D02*
G54D22*
D03*
X595289Y-749109D02*
G54D22*
D03*
X596810Y-697796D02*
G54D23*
D03*
X694867Y-757240D02*
G54D24*
D03*
X739076Y-728286D02*
G54D22*
D03*
X774130Y-745045D02*
G54D22*
D03*
X776157Y-657661D02*
G54D24*
D03*
X792418Y-662236D02*
G54D22*
D03*
X806647Y-759279D02*
G54D23*
D03*
X817828Y-768926D02*
G54D22*
D03*
X820366Y-636826D02*
G54D22*
D03*
X820366Y-662236D02*
G54D22*
D03*
X820366Y-690176D02*
G54D22*
D03*
X820366Y-723201D02*
G54D22*
D03*
X859487Y-680013D02*
G54D24*
D03*
X891498Y-748606D02*
G54D26*
D03*
X891498Y-723201D02*
G54D26*
D03*
X891498Y-697796D02*
G54D26*
D03*
X892009Y-633270D02*
G54D22*
D03*
X892766Y-620318D02*
G54D22*
D03*
X967196Y-714560D02*
G54D22*
D03*
X1001742Y-736920D02*
G54D22*
D03*
X1018006Y-647501D02*
G54D22*
D03*
X1030198Y-734885D02*
G54D22*
D03*
X1032230Y-673925D02*
G54D23*
D03*
X1042397Y-680013D02*
G54D22*
D03*
X1058653Y-751148D02*
G54D22*
D03*
X1087101Y-625139D02*
G54D22*
D03*
X1093202Y-688141D02*
G54D24*
D03*
X1117586Y-716602D02*
G54D27*
D03*
X1121650Y-771468D02*
G54D27*
D03*
X1130286Y-652068D02*
G54D24*
D03*
X1130286Y-734631D02*
G54D24*
D03*
X1168394Y-713046D02*
G54D27*
D03*
X1186179Y-631748D02*
G54D22*
D03*
X1196845Y-761304D02*
G54D24*
D03*
X1211074Y-761304D02*
G54D23*
D03*
X1225303Y-761304D02*
G54D22*
D03*
X1292369Y-769434D02*
G54D22*
D03*
X1292369Y-675947D02*
G54D22*
D03*
X1294396Y-625139D02*
G54D22*
D03*
X1296428Y-690176D02*
G54D27*
D03*
X1296428Y-702365D02*
G54D27*
D03*
X1296428Y-714560D02*
G54D27*
D03*
X1322852Y-771468D02*
G54D22*
D03*
X1322852Y-751148D02*
G54D22*
D03*
X1322852Y-738952D02*
G54D22*
D03*
X1322852Y-726757D02*
G54D22*
D03*
X1333011Y-625139D02*
G54D22*
D03*
X1333011Y-651555D02*
G54D22*
D03*
X1333011Y-680013D02*
G54D22*
D03*
X1404144Y-736920D02*
G54D24*
D03*
X1404144Y-706429D02*
G54D24*
D03*
X1404144Y-665792D02*
G54D24*
D03*
X1438693Y-692208D02*
G54D22*
D03*
X1440715Y-747082D02*
G54D22*
D03*
X1440715Y-720666D02*
G54D22*
D03*
X1465107Y-682045D02*
G54D22*
D03*
X1491525Y-682045D02*
G54D22*
D03*
X1507789Y-763346D02*
G54D22*
D03*
X1507789Y-704405D02*
G54D22*
D03*
X1511853Y-730821D02*
G54D22*
D03*
X1526079Y-682045D02*
G54D23*
D03*
X1544372Y-720666D02*
G54D22*
D03*
X1560626Y-682045D02*
G54D23*
D03*
X1587050Y-682045D02*
G54D22*
D03*
X1595180Y-712536D02*
G54D24*
D03*
X1678497Y-769434D02*
G54D22*
D03*
X1678497Y-757240D02*
G54D22*
D03*
X1678497Y-745045D02*
G54D22*
D03*
X1678497Y-732853D02*
G54D22*
D03*
X1678497Y-720666D02*
G54D22*
D03*
X1678497Y-708469D02*
G54D22*
D03*
X1678497Y-684077D02*
G54D22*
D03*
X1678497Y-669858D02*
G54D22*
D03*
X1688667Y-661725D02*
G54D22*
D03*
X1690694Y-696277D02*
G54D22*
D03*
X1690694Y-680013D02*
G54D22*
D03*
X1841078Y-680013D02*
G54D22*
D03*
X1861402Y-704405D02*
G54D22*
D03*
X1861402Y-720666D02*
G54D22*
D03*
X1861402Y-745045D02*
G54D22*
D03*
X1877666Y-728789D02*
G54D22*
D03*
X1879696Y-753176D02*
G54D27*
D03*
X1895952Y-761304D02*
G54D24*
D03*
X1912213Y-761304D02*
G54D22*
D03*
X2021961Y-621075D02*
G54D22*
D03*
X2040246Y-669858D02*
G54D22*
D03*
X2050409Y-682045D02*
G54D23*
D03*
X2072769Y-714560D02*
G54D22*
D03*
X2072769Y-639368D02*
G54D22*
D03*
X2072769Y-627178D02*
G54D22*
D03*
X2107315Y-639368D02*
G54D24*
D03*
X2109340Y-627178D02*
G54D24*
D03*
X2170320Y-631245D02*
G54D22*
D03*
X2182507Y-753176D02*
G54D27*
D03*
X2182507Y-645466D02*
G54D27*
D03*
X2196738Y-635309D02*
G54D22*
D03*
X2198763Y-657661D02*
G54D22*
D03*
X2206891Y-753176D02*
G54D22*
D03*
X2212994Y-645466D02*
G54D22*
D03*
X2223154Y-655622D02*
G54D22*
D03*
X2243482Y-718626D02*
G54D22*
D03*
X2275994Y-763346D02*
G54D23*
D03*
X2275994Y-736920D02*
G54D23*
D03*
X2288181Y-706429D02*
G54D26*
D03*
X2290223Y-663752D02*
G54D24*
D03*
X2298354Y-722693D02*
G54D22*
D03*
X2302418Y-663752D02*
G54D22*
D03*
X2310543Y-706429D02*
G54D27*
D03*
X2320706Y-639368D02*
G54D22*
D03*
X2320706Y-714560D02*
G54D22*
D03*
X2328836Y-706429D02*
G54D22*
D03*
X2332900Y-649531D02*
G54D22*
D03*
X2341031Y-706429D02*
G54D22*
D03*
X2355252Y-682045D02*
G54D22*
D03*
X2497515Y-669858D02*
G54D27*
D03*
X2528003Y-621075D02*
G54D24*
D03*
X2528003Y-633270D02*
G54D24*
D03*
X2528003Y-645466D02*
G54D24*
D03*
X2538158Y-653594D02*
G54D22*
D03*
X2546288Y-677989D02*
G54D22*
D03*
X2550355Y-657661D02*
G54D24*
D03*
X2554421Y-686109D02*
G54D22*
D03*
X2560510Y-663752D02*
G54D22*
D03*
X2566618Y-690176D02*
G54D22*
D03*
X2572709Y-623115D02*
G54D29*
D03*
X2572709Y-669858D02*
G54D29*
D03*
X2578810Y-694235D02*
G54D22*
D03*
X2582874Y-738952D02*
G54D22*
D03*
X2591002Y-749109D02*
G54D22*
D03*
X2593034Y-696277D02*
G54D22*
D03*
X2599130Y-738952D02*
G54D22*
D03*
X2605226Y-700341D02*
G54D22*
D03*
X2615386Y-765370D02*
G54D22*
D03*
X2617418Y-704405D02*
G54D22*
D03*
X2629610Y-765370D02*
G54D22*
D03*
X2631642Y-623115D02*
G54D22*
D03*
X2643834Y-765370D02*
G54D22*
D03*
X2649930Y-751148D02*
G54D22*
D03*
X2710903Y-667819D02*
G54D25*
D03*
X2717012Y-641400D02*
G54D22*
D03*
X2721076Y-653594D02*
G54D22*
D03*
X2723082Y-669858D02*
G54D22*
D03*
X2723082Y-682045D02*
G54D22*
D03*
X2723082Y-698299D02*
G54D22*
D03*
X2735300Y-690176D02*
G54D22*
D03*
X2735300Y-706429D02*
G54D22*
D03*
X2735300Y-722693D02*
G54D22*
D03*
X2735300Y-738952D02*
G54D22*
D03*
X2743428Y-714560D02*
G54D22*
D03*
X2743428Y-730821D02*
G54D22*
D03*
X2743428Y-747082D02*
G54D22*
D03*
X2761716Y-765370D02*
G54D22*
D03*
X2761716Y-747082D02*
G54D22*
D03*
X2769844Y-738952D02*
G54D22*
D03*
X2771876Y-755212D02*
G54D22*
D03*
X2771876Y-771468D02*
G54D22*
D03*
X2810484Y-887313D02*
G54D22*
D03*
X2782036Y-779596D02*
G54D22*
D03*
X2775940Y-816178D02*
G54D22*
D03*
X2771876Y-787722D02*
G54D22*
D03*
X2759684Y-789762D02*
G54D22*
D03*
X2747492Y-793826D02*
G54D22*
D03*
X2743428Y-881209D02*
G54D22*
D03*
X2743428Y-816178D02*
G54D22*
D03*
X2735300Y-797892D02*
G54D22*
D03*
X2727146Y-806022D02*
G54D22*
D03*
X2690593Y-830399D02*
G54D22*
D03*
X2666186Y-781628D02*
G54D22*
D03*
X2603194Y-856833D02*
G54D22*
D03*
X2595066Y-821773D02*
G54D22*
D03*
X2523936Y-917793D02*
G54D22*
D03*
X2485326Y-832438D02*
G54D22*
D03*
X2485326Y-846660D02*
G54D22*
D03*
X2485326Y-875116D02*
G54D22*
D03*
X2485326Y-889337D02*
G54D22*
D03*
X2456870Y-903569D02*
G54D22*
D03*
X2448739Y-913729D02*
G54D22*
D03*
X2363383Y-911697D02*
G54D22*
D03*
X2332900Y-828372D02*
G54D22*
D03*
X2316639Y-909665D02*
G54D24*
D03*
X2314607Y-889337D02*
G54D23*
D03*
X2290223Y-899508D02*
G54D24*
D03*
X2284114Y-915753D02*
G54D22*
D03*
X2261762Y-848697D02*
G54D22*
D03*
X2255674Y-779596D02*
G54D22*
D03*
X2255674Y-795852D02*
G54D22*
D03*
X2247546Y-848697D02*
G54D22*
D03*
X2245506Y-787722D02*
G54D22*
D03*
X2241440Y-869017D02*
G54D22*
D03*
X2229250Y-848697D02*
G54D23*
D03*
X2198763Y-862921D02*
G54D22*
D03*
X2188605Y-875116D02*
G54D24*
D03*
X2184541Y-785695D02*
G54D24*
D03*
X2178443Y-862921D02*
G54D23*
D03*
X2160147Y-875116D02*
G54D26*
D03*
X2160147Y-862921D02*
G54D26*
D03*
X2135763Y-862921D02*
G54D27*
D03*
X2135763Y-875116D02*
G54D27*
D03*
X2129667Y-899508D02*
G54D24*
D03*
X2123576Y-862921D02*
G54D22*
D03*
X2117473Y-899508D02*
G54D22*
D03*
X2111382Y-862921D02*
G54D22*
D03*
X2103251Y-810089D02*
G54D22*
D03*
X2091057Y-810089D02*
G54D22*
D03*
X2072769Y-915753D02*
G54D22*
D03*
X2070729Y-903569D02*
G54D22*
D03*
X2058540Y-921857D02*
G54D23*
D03*
X2038220Y-887313D02*
G54D24*
D03*
X2028052Y-921857D02*
G54D22*
D03*
X2007732Y-921857D02*
G54D27*
D03*
X2007732Y-887313D02*
G54D27*
D03*
X1960988Y-824308D02*
G54D23*
D03*
X1960988Y-842594D02*
G54D23*
D03*
X1940671Y-852766D02*
G54D22*
D03*
X1940671Y-828372D02*
G54D22*
D03*
X1936604Y-812114D02*
G54D22*
D03*
X1936604Y-795852D02*
G54D22*
D03*
X1916279Y-779596D02*
G54D22*
D03*
X1916279Y-795852D02*
G54D22*
D03*
X1869536Y-846660D02*
G54D24*
D03*
X1869536Y-834466D02*
G54D24*
D03*
X1869536Y-820242D02*
G54D24*
D03*
X1857338Y-822276D02*
G54D22*
D03*
X1849208Y-921857D02*
G54D22*
D03*
X1841078Y-909665D02*
G54D22*
D03*
X1841078Y-842594D02*
G54D22*
D03*
X1837019Y-830399D02*
G54D23*
D03*
X1828888Y-921857D02*
G54D23*
D03*
X1816190Y-909665D02*
G54D22*
D03*
X1788246Y-881209D02*
G54D22*
D03*
X1788246Y-909665D02*
G54D22*
D03*
X1755721Y-897465D02*
G54D22*
D03*
X1690694Y-834466D02*
G54D22*
D03*
X1684601Y-803980D02*
G54D22*
D03*
X1678497Y-781628D02*
G54D22*
D03*
X1678497Y-793826D02*
G54D22*
D03*
X1676473Y-828372D02*
G54D22*
D03*
X1670369Y-803980D02*
G54D22*
D03*
X1658177Y-828372D02*
G54D23*
D03*
X1650049Y-810089D02*
G54D23*
D03*
X1645990Y-787722D02*
G54D22*
D03*
X1609912Y-776036D02*
G54D24*
D03*
X1507789Y-820242D02*
G54D22*
D03*
X1505759Y-793826D02*
G54D22*
D03*
X1497631Y-832438D02*
G54D22*
D03*
X1471205Y-830399D02*
G54D23*
D03*
X1454952Y-832438D02*
G54D22*
D03*
X1404144Y-832438D02*
G54D24*
D03*
X1402107Y-807028D02*
G54D22*
D03*
X1398038Y-779596D02*
G54D26*
D03*
X1312684Y-832438D02*
G54D22*
D03*
X1310660Y-816178D02*
G54D22*
D03*
X1298462Y-832438D02*
G54D24*
D03*
X1296428Y-816178D02*
G54D27*
D03*
X1270007Y-785695D02*
G54D22*
D03*
X1265940Y-832438D02*
G54D24*
D03*
X1247655Y-814146D02*
G54D22*
D03*
X1237497Y-897465D02*
G54D22*
D03*
X1227327Y-832438D02*
G54D22*
D03*
X1207007Y-901534D02*
G54D23*
D03*
X1202951Y-832438D02*
G54D22*
D03*
X1196845Y-775532D02*
G54D24*
D03*
X1194818Y-901534D02*
G54D22*
D03*
X1188714Y-832438D02*
G54D22*
D03*
X1188714Y-808047D02*
G54D22*
D03*
X1129776Y-808047D02*
G54D22*
D03*
X1097269Y-883249D02*
G54D22*
D03*
X1085072Y-887313D02*
G54D22*
D03*
X1074909Y-893401D02*
G54D23*
D03*
X1056614Y-881209D02*
G54D22*
D03*
X1036296Y-897465D02*
G54D27*
D03*
X999718Y-913729D02*
G54D22*
D03*
X989553Y-784676D02*
G54D27*
D03*
X885905Y-911697D02*
G54D22*
D03*
X847292Y-903569D02*
G54D22*
D03*
X842593Y-776930D02*
G54D22*
D03*
X810711Y-907633D02*
G54D23*
D03*
X631870Y-787722D02*
G54D23*
D03*
X611550Y-832438D02*
G54D22*
D03*
X534326Y-903569D02*
G54D22*
D03*
X518065Y-777564D02*
G54D24*
D03*
X518065Y-791786D02*
G54D24*
D03*
X438799Y-850724D02*
G54D24*
D03*
X436772Y-917793D02*
G54D22*
D03*
X436772Y-889337D02*
G54D22*
D03*
X432708Y-838530D02*
G54D22*
D03*
X426356Y-850475D02*
G54D22*
D03*
X369704Y-911697D02*
G54D22*
D03*
X369704Y-899508D02*
G54D22*
D03*
X363613Y-866985D02*
G54D22*
D03*
X357509Y-777564D02*
G54D22*
D03*
X357509Y-793826D02*
G54D22*
D03*
X345312Y-893401D02*
G54D22*
D03*
X320928Y-877142D02*
G54D23*
D03*
X318896Y-775532D02*
G54D22*
D03*
X318896Y-814146D02*
G54D22*
D03*
X318896Y-844633D02*
G54D22*
D03*
X142343Y-1043540D02*
G54D22*
D03*
X168513Y-1007216D02*
G54D22*
D03*
X182732Y-1040744D02*
G54D22*
D03*
X206615Y-1064622D02*
G54D22*
D03*
X217281Y-1011282D02*
G54D22*
D03*
X217281Y-1041762D02*
G54D22*
D03*
X347865Y-1063606D02*
G54D22*
D03*
X365640Y-1005176D02*
G54D22*
D03*
X365640Y-932017D02*
G54D22*
D03*
X367672Y-948276D02*
G54D23*
D03*
X385965Y-942187D02*
G54D22*
D03*
X396122Y-956406D02*
G54D22*
D03*
X416447Y-1066154D02*
G54D24*
D03*
X416447Y-1051920D02*
G54D24*
D03*
X416447Y-1037698D02*
G54D24*
D03*
X420514Y-982824D02*
G54D22*
D03*
X465223Y-988930D02*
G54D27*
D03*
X483516Y-1045826D02*
G54D22*
D03*
X516026Y-1055986D02*
G54D22*
D03*
X526198Y-1045826D02*
G54D22*
D03*
X546513Y-954374D02*
G54D27*
D03*
X574966Y-1041762D02*
G54D22*
D03*
X619683Y-978758D02*
G54D24*
D03*
X621707Y-962497D02*
G54D22*
D03*
X678613Y-982824D02*
G54D23*
D03*
X690803Y-962497D02*
G54D24*
D03*
X696907Y-1064114D02*
G54D22*
D03*
X725357Y-978758D02*
G54D23*
D03*
X725357Y-1007216D02*
G54D23*
D03*
X725357Y-1033634D02*
G54D23*
D03*
X809822Y-1040620D02*
G54D22*
D03*
X812743Y-1060050D02*
G54D22*
D03*
X814778Y-1076309D02*
G54D23*
D03*
X847292Y-1074282D02*
G54D22*
D03*
X867620Y-1005176D02*
G54D22*
D03*
X885905Y-950310D02*
G54D22*
D03*
X889972Y-986891D02*
G54D22*
D03*
X892009Y-1043794D02*
G54D22*
D03*
X908257Y-1076309D02*
G54D22*
D03*
X954998Y-978758D02*
G54D26*
D03*
X959065Y-1076309D02*
G54D22*
D03*
X1007846Y-976734D02*
G54D22*
D03*
X1009873Y-1003150D02*
G54D24*
D03*
X1050525Y-982824D02*
G54D22*
D03*
X1062720Y-1003150D02*
G54D22*
D03*
X1072877Y-946246D02*
G54D22*
D03*
X1072877Y-982824D02*
G54D22*
D03*
X1084561Y-1066154D02*
G54D22*
D03*
X1160266Y-948276D02*
G54D23*
D03*
X1162298Y-927953D02*
G54D22*
D03*
X1164330Y-980798D02*
G54D27*
D03*
X1172460Y-970627D02*
G54D23*
D03*
X1176520Y-952342D02*
G54D22*
D03*
X1178559Y-932017D02*
G54D22*
D03*
X1182623Y-984866D02*
G54D22*
D03*
X1188714Y-925924D02*
G54D22*
D03*
X1190754Y-974694D02*
G54D22*
D03*
X1200911Y-925924D02*
G54D22*
D03*
X1202951Y-958438D02*
G54D22*
D03*
X1219196Y-1066154D02*
G54D24*
D03*
X1219196Y-1011282D02*
G54D24*
D03*
X1302526Y-938123D02*
G54D24*
D03*
X1357400Y-978758D02*
G54D22*
D03*
X1384713Y-1033536D02*
G54D24*
D03*
X1394964Y-1025916D02*
G54D24*
D03*
X1407134Y-1033536D02*
G54D22*
D03*
X1422430Y-1031608D02*
G54D22*
D03*
X1436659Y-1031608D02*
G54D27*
D03*
X1450888Y-1031608D02*
G54D22*
D03*
X1528111Y-962497D02*
G54D22*
D03*
X1544372Y-962497D02*
G54D22*
D03*
X1560882Y-962250D02*
G54D22*
D03*
X1576882Y-962497D02*
G54D24*
D03*
X1593140Y-962497D02*
G54D22*
D03*
X1609402Y-962497D02*
G54D22*
D03*
X1625665Y-962497D02*
G54D22*
D03*
X1631754Y-1070218D02*
G54D22*
D03*
X1641924Y-962497D02*
G54D24*
D03*
X1643950Y-1066154D02*
G54D22*
D03*
X1656145Y-1062088D02*
G54D22*
D03*
X1662236Y-995019D02*
G54D24*
D03*
X1678497Y-1064114D02*
G54D22*
D03*
X1690694Y-999086D02*
G54D22*
D03*
X1694761Y-1058024D02*
G54D22*
D03*
X1706953Y-1003150D02*
G54D22*
D03*
X1708977Y-1055986D02*
G54D22*
D03*
X1721177Y-976734D02*
G54D22*
D03*
X1725241Y-1051920D02*
G54D22*
D03*
X1737435Y-1047854D02*
G54D22*
D03*
X1743534Y-1005176D02*
G54D23*
D03*
X1763854Y-1005176D02*
G54D24*
D03*
X1788246Y-929990D02*
G54D22*
D03*
X1800440Y-929990D02*
G54D22*
D03*
X1802464Y-1047854D02*
G54D22*
D03*
X1812634Y-929990D02*
G54D22*
D03*
X1818728Y-1051920D02*
G54D26*
D03*
X1839050Y-927953D02*
G54D22*
D03*
X1841078Y-1025502D02*
G54D22*
D03*
X1849208Y-940147D02*
G54D22*
D03*
X1855314Y-1035666D02*
G54D22*
D03*
X1867509Y-1071226D02*
G54D22*
D03*
X1871568Y-1058534D02*
G54D23*
D03*
X1942695Y-940147D02*
G54D22*
D03*
X1967087Y-1074282D02*
G54D22*
D03*
X1979282Y-988930D02*
G54D24*
D03*
X1979282Y-976734D02*
G54D24*
D03*
X1999609Y-974694D02*
G54D22*
D03*
X2026025Y-942187D02*
G54D22*
D03*
X2026025Y-1007216D02*
G54D22*
D03*
X2032116Y-1033634D02*
G54D22*
D03*
X2042286Y-997054D02*
G54D22*
D03*
X2048377Y-1037698D02*
G54D22*
D03*
X2058540Y-988930D02*
G54D23*
D03*
X2058540Y-1003150D02*
G54D23*
D03*
X2062596Y-1039730D02*
G54D22*
D03*
X2064638Y-1076309D02*
G54D22*
D03*
X2070729Y-1049890D02*
G54D22*
D03*
X2072769Y-932017D02*
G54D22*
D03*
X2072769Y-970627D02*
G54D22*
D03*
X2078860Y-1074282D02*
G54D24*
D03*
X2082924Y-1062088D02*
G54D24*
D03*
X2084963Y-964539D02*
G54D24*
D03*
X2086990Y-1049890D02*
G54D22*
D03*
X2133734Y-1017371D02*
G54D22*
D03*
X2135763Y-925924D02*
G54D27*
D03*
X2195207Y-1001118D02*
G54D22*
D03*
X2222644Y-1012804D02*
G54D22*
D03*
X2296314Y-1017371D02*
G54D22*
D03*
X2363383Y-927953D02*
G54D22*
D03*
X2379644Y-1076309D02*
G54D22*
D03*
X2379644Y-1025502D02*
G54D22*
D03*
X2379644Y-986891D02*
G54D22*
D03*
X2387774Y-999086D02*
G54D22*
D03*
X2391838Y-1035666D02*
G54D22*
D03*
X2424345Y-1062088D02*
G54D24*
D03*
X2424345Y-1049890D02*
G54D24*
D03*
X2424345Y-1011282D02*
G54D24*
D03*
X2424345Y-995019D02*
G54D24*
D03*
X2424345Y-962497D02*
G54D24*
D03*
X2454838Y-932017D02*
G54D23*
D03*
X2462958Y-942187D02*
G54D22*
D03*
X2477195Y-1074282D02*
G54D24*
D03*
X2485326Y-1051920D02*
G54D22*
D03*
X2513766Y-1062088D02*
G54D22*
D03*
X2523936Y-1011282D02*
G54D22*
D03*
X2639770Y-1039730D02*
G54D22*
D03*
X2643834Y-1062088D02*
G54D22*
D03*
X2744444Y-926939D02*
G54D22*
D03*
X2777972Y-1023474D02*
G54D22*
D03*
X2743428Y-1163706D02*
G54D22*
D03*
X2731223Y-1177927D02*
G54D28*
D03*
X2729204Y-1200279D02*
G54D22*
D03*
X2676346Y-1190122D02*
G54D22*
D03*
X2645866Y-1145405D02*
G54D22*
D03*
X2645866Y-1110858D02*
G54D22*
D03*
X2643834Y-1086474D02*
G54D22*
D03*
X2643834Y-1127119D02*
G54D22*
D03*
X2625546Y-1155575D02*
G54D22*
D03*
X2523936Y-1116964D02*
G54D22*
D03*
X2479222Y-1102728D02*
G54D22*
D03*
X2473128Y-1123053D02*
G54D22*
D03*
X2467025Y-1153535D02*
G54D24*
D03*
X2456870Y-1204343D02*
G54D22*
D03*
X2446702Y-1133215D02*
G54D23*
D03*
X2442641Y-1104767D02*
G54D23*
D03*
X2424345Y-1112895D02*
G54D24*
D03*
X2395905Y-1133215D02*
G54D24*
D03*
X2391838Y-1088506D02*
G54D22*
D03*
X2371516Y-1141338D02*
G54D22*
D03*
X2330858Y-1184018D02*
G54D22*
D03*
X2322738Y-1214508D02*
G54D27*
D03*
X2322738Y-1202316D02*
G54D27*
D03*
X2298354Y-1175895D02*
G54D22*
D03*
X2297333Y-1140335D02*
G54D22*
D03*
X2195207Y-1129151D02*
G54D22*
D03*
X2192672Y-1155575D02*
G54D22*
D03*
X2186574Y-1224668D02*
G54D23*
D03*
X2141864Y-1129151D02*
G54D22*
D03*
X2123576Y-1143380D02*
G54D22*
D03*
X2119512Y-1198252D02*
G54D22*
D03*
X2052441Y-1112895D02*
G54D22*
D03*
X2052441Y-1127119D02*
G54D22*
D03*
X2050409Y-1139316D02*
G54D23*
D03*
X2046345Y-1151511D02*
G54D23*
D03*
X2042286Y-1163706D02*
G54D22*
D03*
X2038220Y-1100701D02*
G54D24*
D03*
X2038220Y-1112895D02*
G54D24*
D03*
X2026025Y-1106792D02*
G54D22*
D03*
X2009764Y-1159639D02*
G54D22*
D03*
X2009764Y-1106792D02*
G54D22*
D03*
X2007732Y-1092570D02*
G54D27*
D03*
X1999609Y-1198252D02*
G54D22*
D03*
X1997569Y-1163706D02*
G54D24*
D03*
X1983348Y-1094594D02*
G54D22*
D03*
X1969119Y-1167764D02*
G54D23*
D03*
X1963023Y-1198252D02*
G54D22*
D03*
X1960988Y-1218572D02*
G54D23*
D03*
X1895952Y-1133215D02*
G54D24*
D03*
X1895952Y-1151511D02*
G54D24*
D03*
X1885797Y-1163706D02*
G54D22*
D03*
X1885797Y-1143380D02*
G54D22*
D03*
X1883755Y-1125087D02*
G54D22*
D03*
X1879696Y-1084440D02*
G54D27*
D03*
X1879696Y-1102728D02*
G54D27*
D03*
X1873600Y-1224668D02*
G54D24*
D03*
X1867509Y-1208410D02*
G54D22*
D03*
X1828888Y-1082408D02*
G54D23*
D03*
X1828888Y-1098661D02*
G54D23*
D03*
X1828888Y-1114922D02*
G54D23*
D03*
X1824824Y-1210449D02*
G54D23*
D03*
X1802464Y-1218572D02*
G54D22*
D03*
X1796376Y-1080376D02*
G54D26*
D03*
X1786211Y-1218572D02*
G54D23*
D03*
X1784179Y-1155575D02*
G54D22*
D03*
X1774024Y-1218572D02*
G54D26*
D03*
X1761827Y-1228734D02*
G54D22*
D03*
X1761827Y-1196215D02*
G54D22*
D03*
X1757760Y-1133215D02*
G54D22*
D03*
X1754453Y-1145405D02*
G54D22*
D03*
X1743534Y-1121028D02*
G54D23*
D03*
X1641924Y-1200279D02*
G54D24*
D03*
X1629729Y-1206382D02*
G54D22*
D03*
X1621599Y-1078351D02*
G54D22*
D03*
X1621599Y-1090541D02*
G54D22*
D03*
X1621599Y-1108831D02*
G54D22*
D03*
X1621599Y-1125087D02*
G54D22*
D03*
X1615500Y-1208410D02*
G54D23*
D03*
X1615500Y-1194188D02*
G54D23*
D03*
X1609402Y-1100701D02*
G54D22*
D03*
X1609402Y-1116964D02*
G54D22*
D03*
X1609402Y-1133215D02*
G54D22*
D03*
X1609402Y-1149471D02*
G54D22*
D03*
X1609402Y-1167764D02*
G54D22*
D03*
X1599247Y-1226695D02*
G54D22*
D03*
X1587050Y-1139316D02*
G54D22*
D03*
X1576882Y-1210449D02*
G54D24*
D03*
X1532178Y-1223650D02*
G54D24*
D03*
X1532178Y-1198252D02*
G54D24*
D03*
X1479336Y-1200279D02*
G54D27*
D03*
X1471205Y-1179962D02*
G54D23*
D03*
X1444782Y-1184018D02*
G54D22*
D03*
X1432592Y-1179962D02*
G54D23*
D03*
X1363491Y-1102728D02*
G54D22*
D03*
X1363423Y-1089802D02*
G54D24*
D03*
X1351297Y-1102728D02*
G54D22*
D03*
X1339108Y-1116964D02*
G54D23*
D03*
X1339108Y-1102728D02*
G54D23*
D03*
X1328945Y-1108831D02*
G54D22*
D03*
X1320814Y-1116964D02*
G54D24*
D03*
X1312684Y-1108831D02*
G54D22*
D03*
X1304558Y-1116964D02*
G54D27*
D03*
X1296428Y-1108831D02*
G54D27*
D03*
X1288307Y-1116964D02*
G54D22*
D03*
X1280174Y-1108831D02*
G54D24*
D03*
X1272044Y-1116964D02*
G54D22*
D03*
X1263913Y-1108831D02*
G54D22*
D03*
X1255783Y-1116964D02*
G54D22*
D03*
X1247655Y-1139316D02*
G54D22*
D03*
X1239522Y-1149471D02*
G54D22*
D03*
X1235458Y-1121028D02*
G54D22*
D03*
X1231391Y-1161666D02*
G54D22*
D03*
X1219196Y-1078351D02*
G54D24*
D03*
X1219196Y-1102728D02*
G54D24*
D03*
X1219196Y-1114922D02*
G54D24*
D03*
X1219196Y-1161666D02*
G54D24*
D03*
X1218437Y-1127876D02*
G54D22*
D03*
X1117586Y-1193167D02*
G54D27*
D03*
X1095229Y-1200279D02*
G54D22*
D03*
X1046461Y-1177927D02*
G54D22*
D03*
X1005809Y-1124584D02*
G54D24*
D03*
X983457Y-1086474D02*
G54D24*
D03*
X961105Y-1161666D02*
G54D24*
D03*
X940777Y-1212474D02*
G54D22*
D03*
X918425Y-1088506D02*
G54D22*
D03*
X914102Y-1202316D02*
G54D22*
D03*
X898100Y-1090541D02*
G54D22*
D03*
X885905Y-1224668D02*
G54D22*
D03*
X853391Y-1094594D02*
G54D23*
D03*
X839162Y-1102728D02*
G54D22*
D03*
X824940Y-1157599D02*
G54D22*
D03*
X818842Y-1114922D02*
G54D23*
D03*
X814778Y-1098661D02*
G54D23*
D03*
X696907Y-1131183D02*
G54D22*
D03*
X692840Y-1210449D02*
G54D22*
D03*
X690803Y-1198252D02*
G54D24*
D03*
X688776Y-1149471D02*
G54D22*
D03*
X664384Y-1198252D02*
G54D22*
D03*
X652190Y-1145405D02*
G54D22*
D03*
X628568Y-1131940D02*
G54D22*
D03*
X603419Y-1131183D02*
G54D24*
D03*
X570900Y-1127119D02*
G54D22*
D03*
X568870Y-1165732D02*
G54D22*
D03*
X522129Y-1092570D02*
G54D24*
D03*
X522129Y-1116964D02*
G54D24*
D03*
X522129Y-1149471D02*
G54D24*
D03*
X499772Y-1196215D02*
G54D23*
D03*
X469282Y-1190122D02*
G54D22*
D03*
X422541Y-1208410D02*
G54D22*
D03*
X416447Y-1080376D02*
G54D24*
D03*
X384697Y-1113144D02*
G54D22*
D03*
X366907Y-1113144D02*
G54D22*
D03*
X363613Y-1208410D02*
G54D22*
D03*
X358017Y-1155067D02*
G54D22*
D03*
X327027Y-1153535D02*
G54D22*
D03*
X294504Y-1141338D02*
G54D22*
D03*
X235574Y-1228734D02*
G54D23*
D03*
X207123Y-1214508D02*
G54D22*
D03*
X150217Y-1265318D02*
G54D23*
D03*
X152252Y-1285633D02*
G54D22*
D03*
X243684Y-1307972D02*
G54D22*
D03*
X272155Y-1253126D02*
G54D22*
D03*
X294504Y-1232801D02*
G54D22*
D03*
X333120Y-1236865D02*
G54D22*
D03*
X341248Y-1320182D02*
G54D22*
D03*
X375802Y-1232801D02*
G54D23*
D03*
X404253Y-1232801D02*
G54D22*
D03*
X422541Y-1253126D02*
G54D22*
D03*
X446930Y-1265318D02*
G54D22*
D03*
X448970Y-1307992D02*
G54D22*
D03*
X448970Y-1373030D02*
G54D22*
D03*
X475386Y-1354736D02*
G54D22*
D03*
X477412Y-1265318D02*
G54D22*
D03*
X495713Y-1273438D02*
G54D24*
D03*
X501804Y-1247020D02*
G54D22*
D03*
X528220Y-1269372D02*
G54D22*
D03*
X530262Y-1360832D02*
G54D22*
D03*
X546513Y-1271412D02*
G54D27*
D03*
X550580Y-1354736D02*
G54D23*
D03*
X552614Y-1314089D02*
G54D22*
D03*
X574966Y-1271412D02*
G54D22*
D03*
X574966Y-1354736D02*
G54D22*
D03*
X603419Y-1352704D02*
G54D24*
D03*
X607486Y-1275478D02*
G54D22*
D03*
X625771Y-1360832D02*
G54D24*
D03*
X646099Y-1275478D02*
G54D24*
D03*
X650163Y-1253126D02*
G54D24*
D03*
X658293Y-1350672D02*
G54D22*
D03*
X674547Y-1275478D02*
G54D27*
D03*
X694867Y-1350672D02*
G54D24*
D03*
X713168Y-1261252D02*
G54D22*
D03*
X729421Y-1244996D02*
G54D23*
D03*
X729421Y-1259217D02*
G54D23*
D03*
X733480Y-1279544D02*
G54D22*
D03*
X733480Y-1360832D02*
G54D22*
D03*
X747714Y-1362857D02*
G54D22*
D03*
X768034Y-1277505D02*
G54D23*
D03*
X778197Y-1360832D02*
G54D24*
D03*
X786327Y-1350672D02*
G54D22*
D03*
X798524Y-1320182D02*
G54D22*
D03*
X800549Y-1263281D02*
G54D24*
D03*
X824940Y-1275478D02*
G54D22*
D03*
X824940Y-1293764D02*
G54D22*
D03*
X826208Y-1331107D02*
G54D22*
D03*
X831031Y-1255153D02*
G54D22*
D03*
X853391Y-1261252D02*
G54D23*
D03*
X885905Y-1273438D02*
G54D22*
D03*
X898100Y-1368963D02*
G54D22*
D03*
X920452Y-1362857D02*
G54D22*
D03*
X930620Y-1352704D02*
G54D22*
D03*
X1066786Y-1328313D02*
G54D24*
D03*
X1087101Y-1287673D02*
G54D22*
D03*
X1097269Y-1242956D02*
G54D22*
D03*
X1125717Y-1293764D02*
G54D23*
D03*
X1127749Y-1242956D02*
G54D22*
D03*
X1219196Y-1253126D02*
G54D24*
D03*
X1253751Y-1244996D02*
G54D23*
D03*
X1255783Y-1373030D02*
G54D22*
D03*
X1261874Y-1263281D02*
G54D22*
D03*
X1290332Y-1263281D02*
G54D22*
D03*
X1320814Y-1263281D02*
G54D24*
D03*
X1328945Y-1336441D02*
G54D22*
D03*
X1361467Y-1373030D02*
G54D22*
D03*
X1402107Y-1283609D02*
G54D22*
D03*
X1434627Y-1346606D02*
G54D22*
D03*
X1434627Y-1265318D02*
G54D22*
D03*
X1473240Y-1247020D02*
G54D22*
D03*
X1473240Y-1346606D02*
G54D22*
D03*
X1479336Y-1320182D02*
G54D27*
D03*
X1536242Y-1287673D02*
G54D24*
D03*
X1536242Y-1320182D02*
G54D24*
D03*
X1550463Y-1348640D02*
G54D22*
D03*
X1576882Y-1267348D02*
G54D24*
D03*
X1576882Y-1336441D02*
G54D24*
D03*
X1589076Y-1373030D02*
G54D22*
D03*
X1597207Y-1293764D02*
G54D22*
D03*
X1607370Y-1267348D02*
G54D23*
D03*
X1643950Y-1295803D02*
G54D22*
D03*
X1648017Y-1342544D02*
G54D22*
D03*
X1670369Y-1265318D02*
G54D22*
D03*
X1682561Y-1281569D02*
G54D22*
D03*
X1694761Y-1265318D02*
G54D22*
D03*
X1696793Y-1238892D02*
G54D23*
D03*
X1706953Y-1281569D02*
G54D22*
D03*
X1719150Y-1265318D02*
G54D24*
D03*
X1731344Y-1281569D02*
G54D22*
D03*
X1743534Y-1265318D02*
G54D23*
D03*
X1755721Y-1281569D02*
G54D22*
D03*
X1767158Y-1266080D02*
G54D22*
D03*
X1778088Y-1242956D02*
G54D22*
D03*
X1779866Y-1281569D02*
G54D22*
D03*
X1786211Y-1342544D02*
G54D23*
D03*
X1792310Y-1265318D02*
G54D22*
D03*
X1804504Y-1265318D02*
G54D22*
D03*
X1816699Y-1265318D02*
G54D22*
D03*
X1826856Y-1244996D02*
G54D22*
D03*
X1828888Y-1265318D02*
G54D23*
D03*
X1857338Y-1377094D02*
G54D22*
D03*
X1881733Y-1249060D02*
G54D22*
D03*
X1891888Y-1257185D02*
G54D24*
D03*
X1902055Y-1265318D02*
G54D22*
D03*
X1914245Y-1352704D02*
G54D23*
D03*
X1918311Y-1240929D02*
G54D23*
D03*
X1952865Y-1356768D02*
G54D24*
D03*
X1960988Y-1249060D02*
G54D23*
D03*
X1965055Y-1234826D02*
G54D23*
D03*
X1995542Y-1356768D02*
G54D22*
D03*
X2091057Y-1249060D02*
G54D22*
D03*
X2119512Y-1348640D02*
G54D22*
D03*
X2195207Y-1375567D02*
G54D22*
D03*
X2300378Y-1291737D02*
G54D22*
D03*
X2316639Y-1253126D02*
G54D24*
D03*
X2320706Y-1281569D02*
G54D22*
D03*
X2322738Y-1240929D02*
G54D27*
D03*
X2359319Y-1381160D02*
G54D22*
D03*
X2412151Y-1326288D02*
G54D22*
D03*
X2450772Y-1366926D02*
G54D27*
D03*
X2450772Y-1328313D02*
G54D27*
D03*
X2450772Y-1232801D02*
G54D27*
D03*
X2613354Y-1240929D02*
G54D22*
D03*
X2613354Y-1265318D02*
G54D22*
D03*
X2613354Y-1291737D02*
G54D22*
D03*
X2613354Y-1314089D02*
G54D22*
D03*
X2613354Y-1342544D02*
G54D22*
D03*
X2613354Y-1366926D02*
G54D22*
D03*
X2629610Y-1379120D02*
G54D22*
D03*
X2631642Y-1259217D02*
G54D22*
D03*
X2658056Y-1276746D02*
G54D22*
D03*
X2682455Y-1318155D02*
G54D28*
D03*
X2729204Y-1251086D02*
G54D22*
D03*
X2731223Y-1285633D02*
G54D28*
D03*
X2741396Y-1291737D02*
G54D22*
D03*
X2749524Y-1273438D02*
G54D22*
D03*
X2771876Y-1267348D02*
G54D22*
D03*
X2761716Y-1417734D02*
G54D22*
D03*
X2674312Y-1446189D02*
G54D22*
D03*
X2668231Y-1505127D02*
G54D25*
D03*
X2656026Y-1509194D02*
G54D22*
D03*
X2643834Y-1511220D02*
G54D22*
D03*
X2633674Y-1429930D02*
G54D22*
D03*
X2633674Y-1460410D02*
G54D22*
D03*
X2615386Y-1452282D02*
G54D22*
D03*
X2613354Y-1393350D02*
G54D22*
D03*
X2597098Y-1444157D02*
G54D22*
D03*
X2586938Y-1470580D02*
G54D22*
D03*
X2479222Y-1429930D02*
G54D22*
D03*
X2401996Y-1523415D02*
G54D22*
D03*
X2381668Y-1458386D02*
G54D22*
D03*
X2379644Y-1525447D02*
G54D22*
D03*
X2359319Y-1405536D02*
G54D22*
D03*
X2298354Y-1515284D02*
G54D22*
D03*
X2288181Y-1456346D02*
G54D26*
D03*
X2286156Y-1521388D02*
G54D22*
D03*
X2269898Y-1444157D02*
G54D22*
D03*
X2267866Y-1468541D02*
G54D23*
D03*
X2249570Y-1472608D02*
G54D22*
D03*
X2247546Y-1523415D02*
G54D22*
D03*
X2245506Y-1427904D02*
G54D22*
D03*
X2227218Y-1472608D02*
G54D22*
D03*
X2202827Y-1425864D02*
G54D22*
D03*
X2166756Y-1437040D02*
G54D23*
D03*
X2119512Y-1496996D02*
G54D22*
D03*
X2064638Y-1397414D02*
G54D22*
D03*
X2017894Y-1409600D02*
G54D22*
D03*
X1991476Y-1391315D02*
G54D22*
D03*
X1950828Y-1391315D02*
G54D22*
D03*
X1914245Y-1385226D02*
G54D23*
D03*
X1857338Y-1391315D02*
G54D22*
D03*
X1790278Y-1395382D02*
G54D23*
D03*
X1761827Y-1488868D02*
G54D22*
D03*
X1759785Y-1395382D02*
G54D22*
D03*
X1662236Y-1399446D02*
G54D24*
D03*
X1633793Y-1488868D02*
G54D22*
D03*
X1617532Y-1454322D02*
G54D24*
D03*
X1591116Y-1399446D02*
G54D24*
D03*
X1564692Y-1454322D02*
G54D27*
D03*
X1528111Y-1521388D02*
G54D22*
D03*
X1499656Y-1521388D02*
G54D22*
D03*
X1479336Y-1521388D02*
G54D27*
D03*
X1448848Y-1446189D02*
G54D24*
D03*
X1436659Y-1525447D02*
G54D27*
D03*
X1420405Y-1446189D02*
G54D22*
D03*
X1410235Y-1403512D02*
G54D22*
D03*
X1408208Y-1383184D02*
G54D24*
D03*
X1406171Y-1496996D02*
G54D22*
D03*
X1389915Y-1533578D02*
G54D23*
D03*
X1365531Y-1411642D02*
G54D22*
D03*
X1359428Y-1501063D02*
G54D22*
D03*
X1308620Y-1482770D02*
G54D22*
D03*
X1265940Y-1460410D02*
G54D24*
D03*
X1207007Y-1413667D02*
G54D23*
D03*
X1192780Y-1417734D02*
G54D24*
D03*
X1162298Y-1476674D02*
G54D22*
D03*
X1095229Y-1385226D02*
G54D22*
D03*
X1066786Y-1399446D02*
G54D24*
D03*
X1050525Y-1387248D02*
G54D22*
D03*
X965169Y-1494960D02*
G54D24*
D03*
X912324Y-1521388D02*
G54D22*
D03*
X910294Y-1405536D02*
G54D26*
D03*
X859487Y-1468541D02*
G54D24*
D03*
X845268Y-1383184D02*
G54D22*
D03*
X845268Y-1401478D02*
G54D22*
D03*
X843228Y-1507154D02*
G54D22*
D03*
X790391Y-1527479D02*
G54D22*
D03*
X778197Y-1519348D02*
G54D24*
D03*
X766000Y-1448216D02*
G54D22*
D03*
X766000Y-1464477D02*
G54D22*
D03*
X763968Y-1501063D02*
G54D23*
D03*
X719258Y-1507154D02*
G54D22*
D03*
X694867Y-1421798D02*
G54D24*
D03*
X693861Y-1402491D02*
G54D24*
D03*
X670488Y-1503090D02*
G54D22*
D03*
X656254Y-1478706D02*
G54D22*
D03*
X654229Y-1444157D02*
G54D22*
D03*
X644059Y-1488868D02*
G54D22*
D03*
X619683Y-1458386D02*
G54D24*
D03*
X585126Y-1444157D02*
G54D23*
D03*
X581070Y-1387248D02*
G54D22*
D03*
X543460Y-1503090D02*
G54D22*
D03*
X507900Y-1486834D02*
G54D23*
D03*
X477412Y-1431970D02*
G54D22*
D03*
X450994Y-1460410D02*
G54D22*
D03*
X444906Y-1417734D02*
G54D22*
D03*
X412383Y-1395382D02*
G54D24*
D03*
X400189Y-1436026D02*
G54D22*
D03*
X375802Y-1395382D02*
G54D23*
D03*
X343288Y-1395382D02*
G54D22*
D03*
X327027Y-1525447D02*
G54D22*
D03*
X310971Y-1508988D02*
G54D22*
D03*
X272155Y-1525447D02*
G54D22*
D03*
X239638Y-1525447D02*
G54D23*
D03*
X227451Y-1397414D02*
G54D22*
D03*
X203059Y-1509194D02*
G54D22*
D03*
G54D30*
X2832975Y-1556818D02*
X2832975Y-1531424D01*
G54D30*
X2832975Y-235582D02*
X2830179Y-235582D01*
G54D30*
X2830179Y-235582D02*
X2830179Y-210174D01*
G54D30*
X2830179Y-84937D02*
X2804781Y-84937D01*
G54D30*
X2290594Y-84937D02*
X2290594Y-110332D01*
G54D30*
X2290594Y-186552D02*
X2272060Y-186552D01*
G54D30*
X2272060Y-186552D02*
X2272060Y-161140D01*
G54D30*
X2272060Y-84937D02*
X2246652Y-84937D01*
G54D30*
X1642297Y-84937D02*
X1642297Y-110332D01*
G54D30*
X1642297Y-235582D02*
X1616900Y-235582D01*
G54D30*
X1550341Y-235582D02*
X1550214Y-160261D01*
G54D30*
X1550092Y-84937D02*
X1524680Y-84937D01*
G54D30*
X100809Y-84937D02*
X100809Y-110332D01*
G54D30*
X100809Y-1556818D02*
X126207Y-1556818D01*
G54D30*
X2832975Y-1556818D02*
X2807576Y-1556818D01*
G54D30*
X2832975Y-235582D02*
X2832975Y-260982D01*
G54D30*
X2830179Y-235582D02*
X2832975Y-235582D01*
G54D30*
X2830179Y-84937D02*
X2830179Y-110332D01*
G54D30*
X2290594Y-84937D02*
X2316007Y-84937D01*
G54D30*
X2290594Y-186552D02*
X2290594Y-161140D01*
G54D30*
X2272060Y-186552D02*
X2290594Y-186552D01*
G54D30*
X2272060Y-84937D02*
X2272060Y-110332D01*
G54D30*
X1642297Y-84937D02*
X1667707Y-84937D01*
G54D30*
X1642297Y-235582D02*
X1642297Y-210174D01*
G54D30*
X1550341Y-235582D02*
X1575739Y-235582D01*
G54D30*
X1550092Y-84937D02*
X1550214Y-160261D01*
G54D30*
X100809Y-84937D02*
X126207Y-84937D01*
G54D30*
X100809Y-1556818D02*
X100809Y-1531424D01*
G54D30*
X2832975Y-1556818D02*
X2832975Y-1531424D01*
G54D30*
X2832975Y-235582D02*
X2830179Y-235582D01*
G54D30*
X2830179Y-235582D02*
X2830179Y-210174D01*
G54D30*
X2830179Y-84937D02*
X2804781Y-84937D01*
G54D30*
X2290594Y-84937D02*
X2290594Y-110332D01*
G54D30*
X2290594Y-186552D02*
X2272060Y-186552D01*
G54D30*
X2272060Y-186552D02*
X2272060Y-161140D01*
G54D30*
X2272060Y-84937D02*
X2246652Y-84937D01*
G54D30*
X1642297Y-84937D02*
X1642297Y-110332D01*
G54D30*
X1642297Y-235582D02*
X1616900Y-235582D01*
G54D30*
X1550341Y-235582D02*
X1550214Y-160261D01*
G54D30*
X1550092Y-84937D02*
X1524680Y-84937D01*
G54D30*
X100809Y-84937D02*
X100809Y-110332D01*
G54D30*
X100809Y-1556818D02*
X126207Y-1556818D01*
G54D30*
X2832975Y-1556818D02*
X2807576Y-1556818D01*
G54D30*
X2832975Y-235582D02*
X2832975Y-260982D01*
G54D30*
X2830179Y-235582D02*
X2832975Y-235582D01*
G54D30*
X2830179Y-84937D02*
X2830179Y-110332D01*
G54D30*
X2290594Y-84937D02*
X2316007Y-84937D01*
G54D30*
X2290594Y-186552D02*
X2290594Y-161140D01*
G54D30*
X2272060Y-186552D02*
X2290594Y-186552D01*
G54D30*
X2272060Y-84937D02*
X2272060Y-110332D01*
G54D30*
X1642297Y-84937D02*
X1667707Y-84937D01*
G54D30*
X1642297Y-235582D02*
X1642297Y-210174D01*
G54D30*
X1550341Y-235582D02*
X1575739Y-235582D01*
G54D30*
X1550092Y-84937D02*
X1550214Y-160261D01*
G54D30*
X100809Y-84937D02*
X126207Y-84937D01*
G54D30*
X100809Y-1556818D02*
X100809Y-1531424D01*
G54D31*
X1480860Y-128757D02*
X1491015Y-128757D01*
G54D31*
X1470705Y-108432D02*
X1470705Y-118597D01*
G54D31*
X1491015Y-98277D02*
X1480860Y-98277D01*
G54D31*
X1501185Y-118597D02*
X1501185Y-108432D01*
G54D31*
X1430052Y-128757D02*
X1440220Y-128757D01*
G54D31*
X1419895Y-108432D02*
X1419895Y-118597D01*
G54D31*
X1440220Y-98277D02*
X1430052Y-98277D01*
G54D31*
X1450380Y-118597D02*
X1450380Y-108432D01*
G54D31*
X1276618Y-115033D02*
X1286776Y-115033D01*
G54D31*
X1266451Y-94721D02*
X1266451Y-104876D01*
G54D31*
X1286776Y-84548D02*
X1276618Y-84548D01*
G54D31*
X1296931Y-104876D02*
X1296931Y-94721D01*
G54D31*
X1253428Y-109961D02*
X1260182Y-109961D01*
G54D31*
X1246634Y-96413D02*
X1246634Y-103182D01*
G54D31*
X1260182Y-89636D02*
X1253428Y-89636D01*
G54D31*
X1266959Y-103182D02*
X1266959Y-96413D01*
G54D31*
X1253428Y-134848D02*
X1260182Y-134848D01*
G54D31*
X1246634Y-121317D02*
X1246634Y-128066D01*
G54D31*
X1260182Y-114533D02*
X1253428Y-114533D01*
G54D31*
X1266959Y-128066D02*
X1266959Y-121317D01*
G54D31*
X1226819Y-139933D02*
X1236987Y-139933D01*
G54D31*
X1216662Y-119608D02*
X1216662Y-129773D01*
G54D31*
X1236987Y-109453D02*
X1226819Y-109453D01*
G54D31*
X1247142Y-129773D02*
X1247142Y-119608D01*
G54D31*
X1203624Y-134848D02*
X1210388Y-134848D01*
G54D31*
X1196847Y-121317D02*
X1196847Y-128066D01*
G54D31*
X1210388Y-114533D02*
X1203624Y-114533D01*
G54D31*
X1217170Y-128066D02*
X1217170Y-121317D01*
G54D31*
X1203624Y-109961D02*
X1210388Y-109961D01*
G54D31*
X1196847Y-96413D02*
X1196847Y-103182D01*
G54D31*
X1210388Y-89636D02*
X1203624Y-89636D01*
G54D31*
X1217170Y-103182D02*
X1217170Y-96413D01*
G54D31*
X1177030Y-115033D02*
X1187198Y-115033D01*
G54D31*
X1166875Y-94721D02*
X1166875Y-104876D01*
G54D31*
X1187198Y-84548D02*
X1177030Y-84548D01*
G54D31*
X1197355Y-104876D02*
X1197355Y-94721D01*
G54D31*
X859733Y-129006D02*
X869906Y-129006D01*
G54D31*
X849578Y-108691D02*
X849578Y-118851D01*
G54D31*
X869906Y-98523D02*
X859733Y-98523D01*
G54D31*
X880061Y-118851D02*
X880061Y-108691D01*
G54D31*
X663363Y-146588D02*
X673533Y-146588D01*
G54D31*
X653211Y-126260D02*
X653211Y-136430D01*
G54D31*
X673533Y-116103D02*
X663363Y-116103D01*
G54D31*
X683691Y-136430D02*
X683691Y-126260D01*
G54D31*
X632637Y-168635D02*
X637717Y-168635D01*
G54D31*
X627549Y-158483D02*
X627549Y-163555D01*
G54D31*
X637717Y-153395D02*
X632637Y-153395D01*
G54D31*
X642789Y-163555D02*
X642789Y-158483D01*
G54D31*
X596048Y-138582D02*
X606221Y-138582D01*
G54D31*
X585891Y-118269D02*
X585891Y-128429D01*
G54D31*
X606221Y-108102D02*
X596048Y-108102D01*
G54D31*
X616373Y-128429D02*
X616373Y-118269D01*
G54D31*
X564545Y-168635D02*
X569632Y-168635D01*
G54D31*
X559475Y-158483D02*
X559475Y-163555D01*
G54D31*
X569632Y-153395D02*
X564545Y-153395D01*
G54D31*
X574715Y-163555D02*
X574715Y-158483D01*
G54D31*
X528731Y-146588D02*
X538886Y-146588D01*
G54D31*
X518573Y-126260D02*
X518573Y-136430D01*
G54D31*
X538886Y-116103D02*
X528731Y-116103D01*
G54D31*
X549058Y-136430D02*
X549058Y-126260D01*
G54D32*
X158673Y-286252D02*
X162076Y-286252D01*
G54D32*
X155297Y-279473D02*
X155297Y-282877D01*
G54D32*
X162076Y-276097D02*
X158673Y-276097D01*
G54D32*
X165467Y-282877D02*
X165467Y-279473D01*
G54D32*
X309071Y-223761D02*
X312475Y-223761D01*
G54D32*
X305680Y-216979D02*
X305680Y-220385D01*
G54D32*
X312475Y-213601D02*
X309071Y-213601D01*
G54D32*
X315851Y-220385D02*
X315851Y-216979D01*
G54D32*
X338533Y-245612D02*
X341936Y-245612D01*
G54D32*
X335157Y-238836D02*
X335157Y-242237D01*
G54D32*
X341936Y-235445D02*
X338533Y-235445D01*
G54D32*
X345312Y-242237D02*
X345312Y-238836D01*
G54D32*
X399498Y-250700D02*
X402902Y-250700D01*
G54D32*
X396120Y-243905D02*
X396120Y-247309D01*
G54D32*
X402902Y-240530D02*
X399498Y-240530D01*
G54D32*
X406292Y-247309D02*
X406292Y-243905D01*
G54D31*
X464210Y-309625D02*
X469279Y-309625D01*
G54D31*
X459124Y-299468D02*
X459124Y-304553D01*
G54D31*
X469279Y-294385D02*
X464210Y-294385D01*
G54D31*
X474370Y-304553D02*
X474370Y-299468D01*
G54D32*
X498578Y-253237D02*
X501982Y-253237D01*
G54D32*
X495203Y-246456D02*
X495203Y-249859D01*
G54D32*
X501982Y-243080D02*
X498578Y-243080D01*
G54D32*
X505358Y-249859D02*
X505358Y-246456D01*
G54D32*
X520420Y-254256D02*
X523823Y-254256D01*
G54D32*
X517042Y-247461D02*
X517042Y-250865D01*
G54D32*
X523823Y-244086D02*
X520420Y-244086D01*
G54D32*
X527202Y-250865D02*
X527202Y-247461D01*
G54D31*
X743897Y-240283D02*
X754069Y-240283D01*
G54D31*
X733742Y-219956D02*
X733742Y-230111D01*
G54D31*
X754069Y-209798D02*
X743897Y-209798D01*
G54D31*
X764224Y-230111D02*
X764224Y-219956D01*
G54D32*
X811034Y-204965D02*
X814453Y-204965D01*
G54D32*
X807658Y-198183D02*
X807658Y-201589D01*
G54D32*
X814453Y-194805D02*
X811034Y-194805D01*
G54D32*
X817828Y-201589D02*
X817828Y-198183D01*
G54D31*
X848049Y-301492D02*
X853134Y-301492D01*
G54D31*
X842977Y-291337D02*
X842977Y-296425D01*
G54D31*
X853134Y-286252D02*
X848049Y-286252D01*
G54D31*
X858217Y-296425D02*
X858217Y-291337D01*
G54D32*
X899959Y-210045D02*
X903363Y-210045D01*
G54D32*
X896568Y-203266D02*
X896568Y-206669D01*
G54D32*
X903363Y-199890D02*
X899959Y-199890D01*
G54D32*
X906741Y-206669D02*
X906741Y-203266D01*
G54D31*
X1029690Y-240283D02*
X1039862Y-240283D01*
G54D31*
X1019532Y-219956D02*
X1019532Y-230111D01*
G54D31*
X1039862Y-209798D02*
X1029690Y-209798D01*
G54D31*
X1050017Y-230111D02*
X1050017Y-219956D01*
G54D32*
X1334358Y-245612D02*
X1337761Y-245612D01*
G54D32*
X1330984Y-238836D02*
X1330984Y-242237D01*
G54D32*
X1337761Y-235445D02*
X1334358Y-235445D01*
G54D32*
X1341140Y-242237D02*
X1341140Y-238836D01*
G54D32*
X1532508Y-296425D02*
X1535914Y-296425D01*
G54D32*
X1529132Y-289643D02*
X1529132Y-293047D01*
G54D32*
X1535914Y-286252D02*
X1532508Y-286252D01*
G54D32*
X1539290Y-293047D02*
X1539290Y-289643D01*
G54D32*
X1540639Y-270502D02*
X1544042Y-270502D01*
G54D32*
X1537260Y-263720D02*
X1537260Y-267124D01*
G54D32*
X1544042Y-260344D02*
X1540639Y-260344D01*
G54D32*
X1547420Y-267124D02*
X1547420Y-263720D01*
G54D32*
X1540639Y-284736D02*
X1544042Y-284736D01*
G54D32*
X1537260Y-277957D02*
X1537260Y-281360D01*
G54D32*
X1544042Y-274566D02*
X1540639Y-274566D01*
G54D32*
X1547420Y-281360D02*
X1547420Y-277957D01*
G54D31*
X1597138Y-316486D02*
X1614045Y-316486D01*
G54D31*
X1580186Y-282630D02*
X1580186Y-299549D01*
G54D31*
X1614045Y-265678D02*
X1597138Y-265678D01*
G54D31*
X1630994Y-299549D02*
X1630994Y-282630D01*
G54D32*
X1676625Y-213601D02*
X1680001Y-213601D01*
G54D32*
X1673250Y-206821D02*
X1673250Y-210225D01*
G54D32*
X1680001Y-203446D02*
X1676625Y-203446D01*
G54D32*
X1683407Y-210225D02*
X1683407Y-206821D01*
G54D32*
X1680870Y-225798D02*
X1684273Y-225798D01*
G54D32*
X1677479Y-219016D02*
X1677479Y-222420D01*
G54D32*
X1684273Y-215640D02*
X1680870Y-215640D01*
G54D32*
X1687649Y-222420D02*
X1687649Y-219016D01*
G54D31*
X1691202Y-289051D02*
X1696290Y-289051D01*
G54D31*
X1686117Y-278894D02*
X1686117Y-283964D01*
G54D31*
X1696290Y-273811D02*
X1691202Y-273811D01*
G54D31*
X1701357Y-283964D02*
X1701357Y-278894D01*
G54D32*
X1727433Y-195318D02*
X1730808Y-195318D01*
G54D32*
X1724057Y-188536D02*
X1724057Y-191940D01*
G54D32*
X1730808Y-185145D02*
X1727433Y-185145D01*
G54D32*
X1734212Y-191940D02*
X1734212Y-188536D01*
G54D32*
X1733702Y-231889D02*
X1737105Y-231889D01*
G54D32*
X1730326Y-225110D02*
X1730326Y-228513D01*
G54D32*
X1737105Y-221734D02*
X1733702Y-221734D01*
G54D32*
X1740481Y-228513D02*
X1740481Y-225110D01*
G54D31*
X1788246Y-222752D02*
X1793328Y-222752D01*
G54D31*
X1783160Y-212585D02*
X1783160Y-217670D01*
G54D31*
X1793328Y-207512D02*
X1788246Y-207512D01*
G54D31*
X1798400Y-217670D02*
X1798400Y-212585D01*
G54D32*
X1817029Y-203446D02*
X1820432Y-203446D01*
G54D32*
X1813640Y-196664D02*
X1813640Y-200068D01*
G54D32*
X1820432Y-193273D02*
X1817029Y-193273D01*
G54D32*
X1823808Y-200068D02*
X1823808Y-196664D01*
G54D32*
X1888154Y-213601D02*
X1891552Y-213601D01*
G54D32*
X1884776Y-206821D02*
X1884776Y-210225D01*
G54D32*
X1891552Y-203446D02*
X1888154Y-203446D01*
G54D32*
X1894943Y-210225D02*
X1894943Y-206821D01*
G54D32*
X1947092Y-201409D02*
X1950493Y-201409D01*
G54D32*
X1943716Y-194627D02*
X1943716Y-198033D01*
G54D32*
X1950493Y-191249D02*
X1947092Y-191249D01*
G54D32*
X1953871Y-198033D02*
X1953871Y-194627D01*
G54D32*
X1965377Y-201409D02*
X1968781Y-201409D01*
G54D32*
X1961999Y-194627D02*
X1961999Y-198033D01*
G54D32*
X1968781Y-191249D02*
X1965377Y-191249D01*
G54D32*
X1972172Y-198033D02*
X1972172Y-194627D01*
G54D32*
X2152347Y-194805D02*
X2155750Y-194805D01*
G54D32*
X2148971Y-188025D02*
X2148971Y-191429D01*
G54D32*
X2155750Y-184650D02*
X2152347Y-184650D01*
G54D32*
X2159141Y-191429D02*
X2159141Y-188025D01*
G54D31*
X2309019Y-265940D02*
X2314107Y-265940D01*
G54D31*
X2303934Y-255770D02*
X2303934Y-260857D01*
G54D31*
X2314107Y-250700D02*
X2309019Y-250700D01*
G54D31*
X2319174Y-260857D02*
X2319174Y-255770D01*
G54D32*
X2333230Y-207512D02*
X2336634Y-207512D01*
G54D32*
X2329855Y-200718D02*
X2329855Y-204121D01*
G54D32*
X2336634Y-197345D02*
X2333230Y-197345D01*
G54D32*
X2340015Y-204121D02*
X2340015Y-200718D01*
G54D32*
X2396235Y-207512D02*
X2399641Y-207512D01*
G54D32*
X2392847Y-200718D02*
X2392847Y-204121D01*
G54D32*
X2399641Y-197345D02*
X2396235Y-197345D01*
G54D32*
X2403014Y-204121D02*
X2403014Y-200718D01*
G54D32*
X2459222Y-207512D02*
X2462626Y-207512D01*
G54D32*
X2455846Y-200718D02*
X2455846Y-204121D01*
G54D32*
X2462626Y-197345D02*
X2459222Y-197345D01*
G54D32*
X2466019Y-204121D02*
X2466019Y-200718D01*
G54D32*
X2520202Y-207512D02*
X2523606Y-207512D01*
G54D32*
X2516814Y-200718D02*
X2516814Y-204121D01*
G54D32*
X2523606Y-197345D02*
X2520202Y-197345D01*
G54D32*
X2526984Y-204121D02*
X2526984Y-200718D01*
G54D32*
X2587256Y-207512D02*
X2590660Y-207512D01*
G54D32*
X2583878Y-200718D02*
X2583878Y-204121D01*
G54D32*
X2590660Y-197345D02*
X2587256Y-197345D01*
G54D32*
X2594063Y-204121D02*
X2594063Y-200718D01*
G54D32*
X2650273Y-207512D02*
X2653677Y-207512D01*
G54D32*
X2646895Y-200718D02*
X2646895Y-204121D01*
G54D32*
X2653677Y-197345D02*
X2650273Y-197345D01*
G54D32*
X2657055Y-204121D02*
X2657055Y-200718D01*
G54D32*
X2701073Y-280672D02*
X2704477Y-280672D01*
G54D32*
X2697695Y-273893D02*
X2697695Y-277296D01*
G54D32*
X2704477Y-270502D02*
X2701073Y-270502D01*
G54D32*
X2707855Y-277296D02*
X2707855Y-273893D01*
G54D32*
X2723425Y-211576D02*
X2726829Y-211576D01*
G54D32*
X2720047Y-204782D02*
X2720047Y-208185D01*
G54D32*
X2726829Y-201409D02*
X2723425Y-201409D01*
G54D32*
X2730207Y-208185D02*
X2730207Y-204782D01*
G54D32*
X2782353Y-192270D02*
X2785757Y-192270D01*
G54D32*
X2778975Y-185478D02*
X2778975Y-188881D01*
G54D32*
X2785757Y-182097D02*
X2782353Y-182097D01*
G54D32*
X2789135Y-188881D02*
X2789135Y-185478D01*
G54D32*
X2692945Y-441228D02*
X2696349Y-441228D01*
G54D32*
X2689567Y-434433D02*
X2689567Y-437837D01*
G54D32*
X2696349Y-431058D02*
X2692945Y-431058D01*
G54D32*
X2699727Y-437837D02*
X2699727Y-434433D01*
G54D32*
X2692945Y-416839D02*
X2696349Y-416839D01*
G54D32*
X2689567Y-410057D02*
X2689567Y-413461D01*
G54D32*
X2696349Y-406666D02*
X2692945Y-406666D01*
G54D32*
X2699727Y-413461D02*
X2699727Y-410057D01*
G54D32*
X2556778Y-349765D02*
X2560182Y-349765D01*
G54D32*
X2553400Y-342988D02*
X2553400Y-346392D01*
G54D32*
X2560182Y-339613D02*
X2556778Y-339613D01*
G54D32*
X2563558Y-346392D02*
X2563558Y-342988D01*
G54D32*
X2528330Y-443255D02*
X2531734Y-443255D01*
G54D32*
X2524942Y-436473D02*
X2524942Y-439877D01*
G54D32*
X2531734Y-433095D02*
X2528330Y-433095D01*
G54D32*
X2535112Y-439877D02*
X2535112Y-436473D01*
G54D32*
X2268199Y-406666D02*
X2271608Y-406666D01*
G54D32*
X2264810Y-399884D02*
X2264810Y-403290D01*
G54D32*
X2271608Y-396509D02*
X2268199Y-396509D01*
G54D32*
X2274983Y-403290D02*
X2274983Y-399884D01*
G54D32*
X2024316Y-400573D02*
X2027719Y-400573D01*
G54D32*
X2020940Y-393793D02*
X2020940Y-397197D01*
G54D32*
X2027719Y-390420D02*
X2024316Y-390420D01*
G54D32*
X2031098Y-397197D02*
X2031098Y-393793D01*
G54D32*
X1599579Y-370093D02*
X1602983Y-370093D01*
G54D32*
X1596188Y-363313D02*
X1596188Y-366717D01*
G54D32*
X1602983Y-359925D02*
X1599579Y-359925D01*
G54D32*
X1606359Y-366717D02*
X1606359Y-363313D01*
G54D32*
X1554860Y-445277D02*
X1558266Y-445277D01*
G54D32*
X1551484Y-438497D02*
X1551484Y-441901D01*
G54D32*
X1558266Y-435122D02*
X1554860Y-435122D01*
G54D32*
X1561642Y-441901D02*
X1561642Y-438497D01*
G54D32*
X1483727Y-396509D02*
X1487131Y-396509D01*
G54D32*
X1480352Y-389729D02*
X1480352Y-393133D01*
G54D32*
X1487131Y-386356D02*
X1483727Y-386356D01*
G54D32*
X1490522Y-393133D02*
X1490522Y-389729D01*
G54D31*
X1444271Y-416326D02*
X1449359Y-416326D01*
G54D31*
X1439204Y-406171D02*
X1439204Y-411241D01*
G54D31*
X1449359Y-401086D02*
X1444271Y-401086D01*
G54D31*
X1454444Y-411241D02*
X1454444Y-406171D01*
G54D32*
X1402437Y-467644D02*
X1405841Y-467644D01*
G54D32*
X1399059Y-460862D02*
X1399059Y-464268D01*
G54D32*
X1405841Y-457474D02*
X1402437Y-457474D01*
G54D32*
X1409232Y-464268D02*
X1409232Y-460862D01*
G54D31*
X1310654Y-354853D02*
X1315744Y-354853D01*
G54D31*
X1305572Y-344680D02*
X1305572Y-349765D01*
G54D31*
X1315744Y-339613D02*
X1310654Y-339613D01*
G54D31*
X1320812Y-349765D02*
X1320812Y-344680D01*
G54D32*
X1054920Y-412770D02*
X1058323Y-412770D01*
G54D32*
X1051546Y-405988D02*
X1051546Y-409396D01*
G54D32*
X1058323Y-402602D02*
X1054920Y-402602D01*
G54D32*
X1061701Y-409396D02*
X1061701Y-405988D01*
G54D32*
X1054920Y-382800D02*
X1058323Y-382800D01*
G54D32*
X1051546Y-376003D02*
X1051546Y-379407D01*
G54D32*
X1058323Y-372630D02*
X1054920Y-372630D01*
G54D32*
X1061701Y-379407D02*
X1061701Y-376003D01*
G54D31*
X1043926Y-341899D02*
X1054081Y-341899D01*
G54D31*
X1033754Y-321571D02*
X1033754Y-331731D01*
G54D31*
X1054081Y-311403D02*
X1043926Y-311403D01*
G54D31*
X1064236Y-331731D02*
X1064236Y-321571D01*
G54D31*
X739073Y-341899D02*
X749230Y-341899D01*
G54D31*
X728918Y-321571D02*
X728918Y-331731D01*
G54D31*
X749230Y-311403D02*
X739073Y-311403D01*
G54D31*
X759403Y-331731D02*
X759403Y-321571D01*
G54D32*
X677671Y-394222D02*
X681075Y-394222D01*
G54D32*
X674293Y-387443D02*
X674293Y-390844D01*
G54D32*
X681075Y-384062D02*
X677671Y-384062D01*
G54D32*
X684461Y-390844D02*
X684461Y-387443D01*
G54D32*
X635764Y-431058D02*
X639167Y-431058D01*
G54D32*
X632373Y-424276D02*
X632373Y-427680D01*
G54D32*
X639167Y-420903D02*
X635764Y-420903D01*
G54D32*
X642543Y-427680D02*
X642543Y-424276D01*
G54D31*
X528218Y-380250D02*
X533305Y-380250D01*
G54D31*
X523150Y-370093D02*
X523150Y-375180D01*
G54D31*
X533305Y-365010D02*
X528218Y-365010D01*
G54D31*
X538390Y-375180D02*
X538390Y-370093D01*
G54D32*
X518393Y-455447D02*
X521799Y-455447D01*
G54D32*
X515017Y-448668D02*
X515017Y-452071D01*
G54D32*
X521799Y-445277D02*
X518393Y-445277D01*
G54D32*
X525175Y-452071D02*
X525175Y-448668D01*
G54D32*
X481807Y-412770D02*
X485210Y-412770D01*
G54D32*
X478434Y-405988D02*
X478434Y-409396D01*
G54D32*
X485210Y-402602D02*
X481807Y-402602D01*
G54D32*
X488588Y-409396D02*
X488588Y-405988D01*
G54D32*
X443196Y-351805D02*
X446600Y-351805D01*
G54D32*
X439820Y-345013D02*
X439820Y-348416D01*
G54D32*
X446600Y-341637D02*
X443196Y-341637D01*
G54D32*
X449975Y-348416D02*
X449975Y-345013D01*
G54D32*
X386295Y-426989D02*
X389701Y-426989D01*
G54D32*
X382919Y-420212D02*
X382919Y-423613D01*
G54D32*
X389701Y-416839D02*
X386295Y-416839D01*
G54D32*
X393077Y-423613D02*
X393077Y-420212D01*
G54D32*
X337514Y-337573D02*
X340918Y-337573D01*
G54D32*
X334136Y-330791D02*
X334136Y-334195D01*
G54D32*
X340918Y-327413D02*
X337514Y-327413D01*
G54D32*
X344309Y-334195D02*
X344309Y-330791D01*
G54D32*
X315162Y-426989D02*
X318566Y-426989D01*
G54D32*
X311784Y-420212D02*
X311784Y-423613D01*
G54D32*
X318566Y-416839D02*
X315162Y-416839D01*
G54D32*
X321944Y-423613D02*
X321944Y-420212D01*
G54D32*
X313135Y-465607D02*
X316539Y-465607D01*
G54D32*
X309744Y-458825D02*
X309744Y-462229D01*
G54D32*
X316539Y-455447D02*
X313135Y-455447D01*
G54D32*
X319915Y-462229D02*
X319915Y-458825D01*
G54D31*
X184952Y-366537D02*
X201861Y-366537D01*
G54D31*
X168002Y-332663D02*
X168002Y-349587D01*
G54D31*
X201861Y-315729D02*
X184952Y-315729D01*
G54D31*
X218810Y-349587D02*
X218810Y-332663D01*
G54D31*
X174782Y-489996D02*
X181533Y-489996D01*
G54D31*
X168002Y-476448D02*
X168002Y-483214D01*
G54D31*
X181533Y-469671D02*
X174782Y-469671D01*
G54D31*
X188327Y-483214D02*
X188327Y-476448D01*
G54D31*
X184952Y-616498D02*
X201861Y-616498D01*
G54D31*
X168002Y-582642D02*
X168002Y-599561D01*
G54D31*
X201861Y-565708D02*
X184952Y-565708D01*
G54D31*
X218810Y-599561D02*
X218810Y-582642D01*
G54D32*
X355815Y-605832D02*
X359219Y-605832D01*
G54D32*
X352424Y-599053D02*
X352424Y-602457D01*
G54D32*
X359219Y-595680D02*
X355815Y-595680D01*
G54D32*
X362597Y-602457D02*
X362597Y-599053D01*
G54D31*
X378345Y-550450D02*
X383415Y-550450D01*
G54D31*
X373260Y-540296D02*
X373260Y-545378D01*
G54D31*
X383415Y-535208D02*
X378345Y-535208D01*
G54D31*
X388500Y-545378D02*
X388500Y-540296D01*
G54D31*
X403740Y-588568D02*
X408827Y-588568D01*
G54D31*
X398672Y-578396D02*
X398672Y-583480D01*
G54D31*
X408827Y-573328D02*
X403740Y-573328D01*
G54D31*
X413912Y-583480D02*
X413912Y-578396D01*
G54D31*
X403740Y-563156D02*
X408827Y-563156D01*
G54D31*
X398672Y-552998D02*
X398672Y-558070D01*
G54D31*
X408827Y-547916D02*
X403740Y-547916D01*
G54D31*
X413912Y-558070D02*
X413912Y-552998D01*
G54D31*
X423824Y-550450D02*
X428891Y-550450D01*
G54D31*
X418733Y-540296D02*
X418733Y-545378D01*
G54D31*
X428891Y-535208D02*
X423824Y-535208D01*
G54D31*
X433978Y-545378D02*
X433978Y-540296D01*
G54D32*
X559541Y-504728D02*
X562947Y-504728D01*
G54D32*
X556165Y-497946D02*
X556165Y-501352D01*
G54D32*
X562947Y-494570D02*
X559541Y-494570D01*
G54D32*
X566323Y-501352D02*
X566323Y-497946D01*
G54D32*
X559541Y-565708D02*
X562947Y-565708D01*
G54D32*
X556165Y-558914D02*
X556165Y-562317D01*
G54D32*
X562947Y-555536D02*
X559541Y-555536D01*
G54D32*
X566323Y-562317D02*
X566323Y-558914D01*
G54D31*
X632637Y-540542D02*
X637717Y-540542D01*
G54D31*
X627549Y-530384D02*
X627549Y-535470D01*
G54D31*
X637717Y-525302D02*
X632637Y-525302D01*
G54D31*
X642789Y-535470D02*
X642789Y-530384D01*
G54D31*
X637455Y-611674D02*
X642543Y-611674D01*
G54D31*
X632373Y-601522D02*
X632373Y-606592D01*
G54D31*
X642543Y-596434D02*
X637455Y-596434D01*
G54D31*
X647613Y-606592D02*
X647613Y-601522D01*
G54D31*
X650163Y-527588D02*
X655248Y-527588D01*
G54D31*
X645075Y-517430D02*
X645075Y-522518D01*
G54D31*
X655248Y-512348D02*
X650163Y-512348D01*
G54D31*
X660323Y-522518D02*
X660323Y-517430D01*
G54D31*
X667694Y-540542D02*
X672777Y-540542D01*
G54D31*
X662609Y-530384D02*
X662609Y-535470D01*
G54D31*
X672777Y-525302D02*
X667694Y-525302D01*
G54D31*
X677846Y-535470D02*
X677846Y-530384D01*
G54D32*
X686569Y-616498D02*
X689977Y-616498D01*
G54D32*
X683183Y-609719D02*
X683183Y-613122D01*
G54D32*
X689977Y-606340D02*
X686569Y-606340D01*
G54D32*
X693350Y-613122D02*
X693350Y-609719D01*
G54D32*
X703079Y-561888D02*
X706487Y-561888D01*
G54D32*
X699706Y-555109D02*
X699706Y-558512D01*
G54D32*
X706487Y-551730D02*
X703079Y-551730D01*
G54D32*
X709860Y-558512D02*
X709860Y-555109D01*
G54D32*
X708151Y-488218D02*
X711555Y-488218D01*
G54D32*
X704773Y-481436D02*
X704773Y-484842D01*
G54D32*
X711555Y-478060D02*
X708151Y-478060D01*
G54D32*
X714946Y-484842D02*
X714946Y-481436D01*
G54D32*
X945682Y-570776D02*
X949085Y-570776D01*
G54D32*
X942309Y-563994D02*
X942309Y-567397D01*
G54D32*
X949085Y-560620D02*
X945682Y-560620D01*
G54D32*
X952461Y-567397D02*
X952461Y-563994D01*
G54D31*
X970241Y-477042D02*
X975329Y-477042D01*
G54D31*
X965169Y-466872D02*
X965169Y-471957D01*
G54D31*
X975329Y-461802D02*
X970241Y-461802D01*
G54D31*
X980409Y-471957D02*
X980409Y-466872D01*
G54D32*
X971082Y-502190D02*
X974483Y-502190D01*
G54D32*
X967709Y-495414D02*
X967709Y-498817D01*
G54D32*
X974483Y-492023D02*
X971082Y-492023D01*
G54D32*
X977874Y-498817D02*
X977874Y-495414D01*
G54D32*
X1039680Y-558070D02*
X1043083Y-558070D01*
G54D32*
X1036289Y-551294D02*
X1036289Y-554697D01*
G54D32*
X1043083Y-547916D02*
X1039680Y-547916D01*
G54D32*
X1046461Y-554697D02*
X1046461Y-551294D01*
G54D32*
X1120972Y-624120D02*
X1124376Y-624120D01*
G54D32*
X1117594Y-617339D02*
X1117594Y-620742D01*
G54D32*
X1124376Y-613960D02*
X1120972Y-613960D01*
G54D32*
X1127749Y-620742D02*
X1127749Y-617339D01*
G54D32*
X1174312Y-481863D02*
X1177721Y-481863D01*
G54D32*
X1170939Y-475084D02*
X1170939Y-478487D01*
G54D32*
X1177721Y-471708D02*
X1174312Y-471708D01*
G54D32*
X1181094Y-478487D02*
X1181094Y-475084D01*
G54D32*
X1205305Y-542828D02*
X1208709Y-542828D01*
G54D32*
X1201930Y-536054D02*
X1201930Y-539452D01*
G54D32*
X1208709Y-532670D02*
X1205305Y-532670D01*
G54D32*
X1212087Y-539452D02*
X1212087Y-536054D01*
G54D32*
X1331315Y-618032D02*
X1334718Y-618032D01*
G54D32*
X1327924Y-611250D02*
X1327924Y-614654D01*
G54D32*
X1334718Y-607872D02*
X1331315Y-607872D01*
G54D32*
X1338096Y-614654D02*
X1338096Y-611250D01*
G54D31*
X1355028Y-515391D02*
X1361797Y-515391D01*
G54D31*
X1348251Y-501860D02*
X1348251Y-508612D01*
G54D31*
X1361797Y-495078D02*
X1355028Y-495078D01*
G54D31*
X1368574Y-508612D02*
X1368574Y-501860D01*
G54D32*
X1443598Y-591100D02*
X1447002Y-591100D01*
G54D32*
X1440220Y-584321D02*
X1440220Y-587725D01*
G54D32*
X1447002Y-580948D02*
X1443598Y-580948D01*
G54D32*
X1450380Y-587725D02*
X1450380Y-584321D01*
G54D32*
X1528444Y-589572D02*
X1531850Y-589572D01*
G54D32*
X1525068Y-582795D02*
X1525068Y-586193D01*
G54D32*
X1531850Y-579414D02*
X1528444Y-579414D01*
G54D32*
X1535226Y-586193D02*
X1535226Y-582795D01*
G54D32*
X1636663Y-598212D02*
X1640064Y-598212D01*
G54D32*
X1633283Y-591433D02*
X1633283Y-594837D01*
G54D32*
X1640064Y-588060D02*
X1636663Y-588060D01*
G54D32*
X1643440Y-594837D02*
X1643440Y-591433D01*
G54D32*
X1662566Y-528606D02*
X1665972Y-528606D01*
G54D32*
X1659191Y-521830D02*
X1659191Y-525233D01*
G54D32*
X1665972Y-518452D02*
X1662566Y-518452D01*
G54D32*
X1669361Y-525233D02*
X1669361Y-521830D01*
G54D32*
X1794669Y-595680D02*
X1798068Y-595680D01*
G54D32*
X1791293Y-588898D02*
X1791293Y-592302D01*
G54D32*
X1798068Y-585508D02*
X1794669Y-585508D01*
G54D32*
X1801456Y-592302D02*
X1801456Y-588898D01*
G54D31*
X1843120Y-512856D02*
X1848200Y-512856D01*
G54D31*
X1838032Y-502698D02*
X1838032Y-507771D01*
G54D31*
X1848200Y-497616D02*
X1843120Y-497616D01*
G54D31*
X1853272Y-507771D02*
X1853272Y-502698D01*
G54D32*
X2012121Y-544870D02*
X2015525Y-544870D01*
G54D32*
X2008745Y-538091D02*
X2008745Y-541489D01*
G54D32*
X2015525Y-534700D02*
X2012121Y-534700D01*
G54D32*
X2018916Y-541489D02*
X2018916Y-538091D01*
G54D32*
X2018227Y-591616D02*
X2021631Y-591616D01*
G54D32*
X2014852Y-584834D02*
X2014852Y-588233D01*
G54D32*
X2021631Y-581444D02*
X2018227Y-581444D01*
G54D32*
X2025009Y-588233D02*
X2025009Y-584834D01*
G54D32*
X2020252Y-528606D02*
X2023655Y-528606D01*
G54D32*
X2016876Y-521830D02*
X2016876Y-525233D01*
G54D32*
X2023655Y-518452D02*
X2020252Y-518452D01*
G54D32*
X2027044Y-525233D02*
X2027044Y-521830D01*
G54D32*
X2276319Y-485927D02*
X2279723Y-485927D01*
G54D32*
X2272944Y-479150D02*
X2272944Y-482551D01*
G54D32*
X2279723Y-475774D02*
X2276319Y-475774D01*
G54D32*
X2283114Y-482551D02*
X2283114Y-479150D01*
G54D32*
X2318999Y-595680D02*
X2322400Y-595680D01*
G54D32*
X2315618Y-588898D02*
X2315618Y-592302D01*
G54D32*
X2322400Y-585508D02*
X2318999Y-585508D01*
G54D32*
X2325791Y-592302D02*
X2325791Y-588898D01*
G54D32*
X2327127Y-477799D02*
X2330530Y-477799D01*
G54D32*
X2323751Y-471020D02*
X2323751Y-474423D01*
G54D32*
X2330530Y-467644D02*
X2327127Y-467644D01*
G54D32*
X2333919Y-474423D02*
X2333919Y-471020D01*
G54D32*
X2530362Y-508279D02*
X2533764Y-508279D01*
G54D32*
X2526984Y-501502D02*
X2526984Y-504903D01*
G54D32*
X2533764Y-498126D02*
X2530362Y-498126D01*
G54D32*
X2537139Y-504903D02*
X2537139Y-501502D01*
G54D32*
X2558818Y-508279D02*
X2562222Y-508279D01*
G54D32*
X2555437Y-501502D02*
X2555437Y-504903D01*
G54D32*
X2562222Y-498126D02*
X2558818Y-498126D01*
G54D32*
X2565597Y-504903D02*
X2565597Y-501502D01*
G54D32*
X2568968Y-575350D02*
X2572371Y-575350D01*
G54D32*
X2565597Y-568571D02*
X2565597Y-571974D01*
G54D32*
X2572371Y-565192D02*
X2568968Y-565192D01*
G54D32*
X2575750Y-571974D02*
X2575750Y-568571D01*
G54D32*
X2638081Y-565192D02*
X2641485Y-565192D01*
G54D32*
X2634703Y-558398D02*
X2634703Y-561804D01*
G54D32*
X2641485Y-555022D02*
X2638081Y-555022D01*
G54D32*
X2644863Y-561804D02*
X2644863Y-558398D01*
G54D32*
X2640113Y-620069D02*
X2643517Y-620069D01*
G54D32*
X2636735Y-613275D02*
X2636735Y-616678D01*
G54D32*
X2643517Y-609896D02*
X2640113Y-609896D01*
G54D32*
X2646895Y-616678D02*
X2646895Y-613275D01*
G54D32*
X2353324Y-674707D02*
X2356728Y-674707D01*
G54D32*
X2349946Y-667926D02*
X2349946Y-671334D01*
G54D32*
X2356728Y-664540D02*
X2353324Y-664540D01*
G54D32*
X2360104Y-671334D02*
X2360104Y-667926D01*
G54D32*
X2276319Y-668837D02*
X2279723Y-668837D01*
G54D32*
X2272944Y-662056D02*
X2272944Y-665459D01*
G54D32*
X2279723Y-658680D02*
X2276319Y-658680D01*
G54D32*
X2283114Y-665459D02*
X2283114Y-662056D01*
G54D32*
X2140155Y-658680D02*
X2143558Y-658680D01*
G54D32*
X2136779Y-651885D02*
X2136779Y-655289D01*
G54D32*
X2143558Y-648512D02*
X2140155Y-648512D01*
G54D32*
X2146947Y-655289D02*
X2146947Y-651885D01*
G54D32*
X2048707Y-701360D02*
X2052111Y-701360D01*
G54D32*
X2045332Y-694565D02*
X2045332Y-697968D01*
G54D32*
X2052111Y-691189D02*
X2048707Y-691189D01*
G54D32*
X2055484Y-697968D02*
X2055484Y-694565D01*
G54D31*
X1843120Y-665281D02*
X1848200Y-665281D01*
G54D31*
X1838032Y-655116D02*
X1838032Y-660196D01*
G54D31*
X1848200Y-650041D02*
X1843120Y-650041D01*
G54D31*
X1853272Y-660196D02*
X1853272Y-655116D01*
G54D32*
X1676803Y-701360D02*
X1680207Y-701360D01*
G54D32*
X1673425Y-694565D02*
X1673425Y-697968D01*
G54D32*
X1680207Y-691189D02*
X1676803Y-691189D01*
G54D32*
X1683582Y-697968D02*
X1683582Y-694565D01*
G54D32*
X1575188Y-735906D02*
X1578591Y-735906D01*
G54D32*
X1571812Y-729112D02*
X1571812Y-732530D01*
G54D32*
X1578591Y-725736D02*
X1575188Y-725736D01*
G54D32*
X1581964Y-732530D02*
X1581964Y-729112D01*
G54D32*
X1292702Y-648512D02*
X1296105Y-648512D01*
G54D32*
X1289311Y-641736D02*
X1289311Y-645134D01*
G54D32*
X1296105Y-638357D02*
X1292702Y-638357D01*
G54D32*
X1299478Y-645134D02*
X1299478Y-641736D01*
G54D32*
X1247985Y-719645D02*
X1251388Y-719645D01*
G54D32*
X1244607Y-712866D02*
X1244607Y-716267D01*
G54D32*
X1251388Y-709490D02*
X1247985Y-709490D01*
G54D32*
X1254767Y-716267D02*
X1254767Y-712866D01*
G54D32*
X1171777Y-649528D02*
X1175181Y-649528D01*
G54D32*
X1168386Y-642752D02*
X1168386Y-646152D01*
G54D32*
X1175181Y-639376D02*
X1171777Y-639376D01*
G54D32*
X1178557Y-646152D02*
X1178557Y-642752D01*
G54D32*
X1128592Y-720666D02*
X1131996Y-720666D01*
G54D32*
X1125214Y-713872D02*
X1125214Y-717275D01*
G54D32*
X1131996Y-710496D02*
X1128592Y-710496D01*
G54D32*
X1135369Y-717275D02*
X1135369Y-713872D01*
G54D32*
X1124015Y-758260D02*
X1127419Y-758260D01*
G54D32*
X1120642Y-751479D02*
X1120642Y-754882D01*
G54D32*
X1127419Y-748100D02*
X1124015Y-748100D01*
G54D32*
X1130794Y-754882D02*
X1130794Y-751479D01*
G54D32*
X1115884Y-676968D02*
X1119288Y-676968D01*
G54D32*
X1112506Y-670186D02*
X1112506Y-673594D01*
G54D32*
X1119288Y-666800D02*
X1115884Y-666800D01*
G54D32*
X1122666Y-673594D02*
X1122666Y-670186D01*
G54D32*
X1046792Y-770452D02*
X1050195Y-770452D01*
G54D32*
X1043413Y-763676D02*
X1043413Y-767080D01*
G54D32*
X1050195Y-760285D02*
X1046792Y-760285D01*
G54D32*
X1053568Y-767080D02*
X1053568Y-763676D01*
G54D32*
X985824Y-650552D02*
X989228Y-650552D01*
G54D32*
X982433Y-643758D02*
X982433Y-647161D01*
G54D32*
X989228Y-640384D02*
X985824Y-640384D01*
G54D32*
X992606Y-647161D02*
X992606Y-643758D01*
G54D32*
X966159Y-657303D02*
X969568Y-657303D01*
G54D32*
X962773Y-650524D02*
X962773Y-653928D01*
G54D32*
X969568Y-647148D02*
X966159Y-647148D01*
G54D32*
X972941Y-653928D02*
X972941Y-650524D01*
G54D32*
X912654Y-768924D02*
X916058Y-768924D01*
G54D32*
X909276Y-762142D02*
X909276Y-765550D01*
G54D32*
X916058Y-758768D02*
X912654Y-758768D01*
G54D32*
X919449Y-765550D02*
X919449Y-762142D01*
G54D32*
X856774Y-662236D02*
X860178Y-662236D01*
G54D32*
X853396Y-655442D02*
X853396Y-658845D01*
G54D32*
X860178Y-652068D02*
X856774Y-652068D01*
G54D32*
X863551Y-658845D02*
X863551Y-655442D01*
G54D32*
X838981Y-766388D02*
X842385Y-766388D01*
G54D32*
X835603Y-759612D02*
X835603Y-763010D01*
G54D32*
X842385Y-756221D02*
X838981Y-756221D01*
G54D32*
X845776Y-763010D02*
X845776Y-759612D01*
G54D31*
X637455Y-758507D02*
X642543Y-758507D01*
G54D31*
X632373Y-748350D02*
X632373Y-753434D01*
G54D31*
X642543Y-743267D02*
X637455Y-743267D01*
G54D31*
X647613Y-753434D02*
X647613Y-748350D01*
G54D31*
X637455Y-723450D02*
X642543Y-723450D01*
G54D31*
X632373Y-713295D02*
X632373Y-718378D01*
G54D31*
X642543Y-708207D02*
X637455Y-708207D01*
G54D31*
X647613Y-718378D02*
X647613Y-713295D01*
G54D31*
X637455Y-702627D02*
X642543Y-702627D01*
G54D31*
X632373Y-692454D02*
X632373Y-697542D01*
G54D31*
X642543Y-687387D02*
X637455Y-687387D01*
G54D31*
X647613Y-697542D02*
X647613Y-692454D01*
G54D31*
X620953Y-629208D02*
X626033Y-629208D01*
G54D31*
X615863Y-619048D02*
X615863Y-624120D01*
G54D31*
X626033Y-613960D02*
X620953Y-613960D01*
G54D31*
X631103Y-624120D02*
X631103Y-619048D01*
G54D31*
X620953Y-685101D02*
X626033Y-685101D01*
G54D31*
X615863Y-674928D02*
X615863Y-680013D01*
G54D31*
X626033Y-669856D02*
X620953Y-669856D01*
G54D31*
X631103Y-680013D02*
X631103Y-674928D01*
G54D31*
X618908Y-740976D02*
X623993Y-740976D01*
G54D31*
X613841Y-730821D02*
X613841Y-735906D01*
G54D31*
X623993Y-725736D02*
X618908Y-725736D01*
G54D31*
X629081Y-735906D02*
X629081Y-730821D01*
G54D32*
X544816Y-658680D02*
X548215Y-658680D01*
G54D32*
X541433Y-651885D02*
X541433Y-655289D01*
G54D32*
X548215Y-648512D02*
X544816Y-648512D01*
G54D32*
X551591Y-655289D02*
X551591Y-651885D01*
G54D32*
X498578Y-639376D02*
X501982Y-639376D01*
G54D32*
X495203Y-632581D02*
X495203Y-635985D01*
G54D32*
X501982Y-629208D02*
X498578Y-629208D01*
G54D32*
X505358Y-635985D02*
X505358Y-632581D01*
G54D32*
X498578Y-718116D02*
X501982Y-718116D01*
G54D32*
X495203Y-711334D02*
X495203Y-714743D01*
G54D32*
X501982Y-707961D02*
X498578Y-707961D01*
G54D32*
X505358Y-714743D02*
X505358Y-711334D01*
G54D31*
X423824Y-753684D02*
X428891Y-753684D01*
G54D31*
X418733Y-743526D02*
X418733Y-748601D01*
G54D31*
X428891Y-738444D02*
X423824Y-738444D01*
G54D31*
X433978Y-748601D02*
X433978Y-743526D01*
G54D31*
X403740Y-639376D02*
X408827Y-639376D01*
G54D31*
X398672Y-629208D02*
X398672Y-634288D01*
G54D31*
X408827Y-624120D02*
X403740Y-624120D01*
G54D31*
X413912Y-634288D02*
X413912Y-629208D01*
G54D31*
X403740Y-715581D02*
X408827Y-715581D01*
G54D31*
X398672Y-705424D02*
X398672Y-710496D01*
G54D31*
X408827Y-700341D02*
X403740Y-700341D01*
G54D31*
X413912Y-710496D02*
X413912Y-705424D01*
G54D31*
X378345Y-753684D02*
X383415Y-753684D01*
G54D31*
X373260Y-743526D02*
X373260Y-748601D01*
G54D31*
X383415Y-738444D02*
X378345Y-738444D01*
G54D31*
X388500Y-748601D02*
X388500Y-743526D01*
G54D32*
X348690Y-652068D02*
X352094Y-652068D01*
G54D32*
X345312Y-645286D02*
X345312Y-648690D01*
G54D32*
X352094Y-641908D02*
X348690Y-641908D01*
G54D32*
X355485Y-648690D02*
X355485Y-645286D01*
G54D32*
X335487Y-748100D02*
X338891Y-748100D01*
G54D32*
X332112Y-741311D02*
X332112Y-744715D01*
G54D32*
X338891Y-737933D02*
X335487Y-737933D01*
G54D32*
X342267Y-744715D02*
X342267Y-741311D01*
G54D32*
X282640Y-729800D02*
X286044Y-729800D01*
G54D32*
X279264Y-723023D02*
X279264Y-726427D01*
G54D32*
X286044Y-719645D02*
X282640Y-719645D01*
G54D32*
X289435Y-726427D02*
X289435Y-723023D01*
G54D31*
X184952Y-711517D02*
X201861Y-711517D01*
G54D31*
X168002Y-677658D02*
X168002Y-694565D01*
G54D31*
X201861Y-660704D02*
X184952Y-660704D01*
G54D31*
X218810Y-694565D02*
X218810Y-677658D01*
G54D31*
X174782Y-834976D02*
X181533Y-834976D01*
G54D31*
X168002Y-821443D02*
X168002Y-828194D01*
G54D31*
X181533Y-814648D02*
X174782Y-814648D01*
G54D31*
X188327Y-828194D02*
X188327Y-821443D01*
G54D32*
X317202Y-796874D02*
X320606Y-796874D01*
G54D32*
X313811Y-790092D02*
X313811Y-793496D01*
G54D32*
X320606Y-786716D02*
X317202Y-786716D01*
G54D32*
X323981Y-793496D02*
X323981Y-790092D01*
G54D32*
X323293Y-898489D02*
X326696Y-898489D01*
G54D32*
X319915Y-891707D02*
X319915Y-895110D01*
G54D32*
X326696Y-888316D02*
X323293Y-888316D01*
G54D32*
X330072Y-895110D02*
X330072Y-891707D01*
G54D31*
X403740Y-791788D02*
X408827Y-791788D01*
G54D31*
X398672Y-781628D02*
X398672Y-786716D01*
G54D31*
X408827Y-776544D02*
X403740Y-776544D01*
G54D31*
X413912Y-786716D02*
X413912Y-781628D01*
G54D31*
X457595Y-842088D02*
X462680Y-842088D01*
G54D31*
X452526Y-831928D02*
X452526Y-837013D01*
G54D31*
X462680Y-826846D02*
X457595Y-826846D01*
G54D31*
X467766Y-837013D02*
X467766Y-831928D01*
G54D31*
X457595Y-878674D02*
X462680Y-878674D01*
G54D31*
X452526Y-868517D02*
X452526Y-873584D01*
G54D31*
X462680Y-863429D02*
X457595Y-863429D01*
G54D31*
X467766Y-873584D02*
X467766Y-868517D01*
G54D32*
X725680Y-904577D02*
X729083Y-904577D01*
G54D32*
X722306Y-897796D02*
X722306Y-901204D01*
G54D32*
X729083Y-894422D02*
X725680Y-894422D01*
G54D32*
X732474Y-901204D02*
X732474Y-897796D01*
G54D31*
X753048Y-841326D02*
X758133Y-841326D01*
G54D31*
X747961Y-831171D02*
X747961Y-836244D01*
G54D31*
X758133Y-826086D02*
X753048Y-826086D01*
G54D31*
X763206Y-836244D02*
X763206Y-831171D01*
G54D31*
X905471Y-841326D02*
X910541Y-841326D01*
G54D31*
X900386Y-831171D02*
X900386Y-836244D01*
G54D31*
X910541Y-826086D02*
X905471Y-826086D01*
G54D31*
X915631Y-836244D02*
X915631Y-831171D01*
G54D31*
X1087609Y-807536D02*
X1092694Y-807536D01*
G54D31*
X1082534Y-797384D02*
X1082534Y-802464D01*
G54D31*
X1092694Y-792296D02*
X1087609Y-792296D01*
G54D31*
X1097777Y-802464D02*
X1097777Y-797384D01*
G54D32*
X1146367Y-843612D02*
X1149771Y-843612D01*
G54D32*
X1142994Y-836836D02*
X1142994Y-840239D01*
G54D32*
X1149771Y-833457D02*
X1146367Y-833457D01*
G54D32*
X1153146Y-840239D02*
X1153146Y-836836D01*
G54D32*
X1239852Y-802964D02*
X1243255Y-802964D01*
G54D32*
X1236479Y-796182D02*
X1236479Y-799586D01*
G54D32*
X1243255Y-792804D02*
X1239852Y-792804D01*
G54D32*
X1246634Y-799586D02*
X1246634Y-796182D01*
G54D32*
X1441045Y-837526D02*
X1444449Y-837526D01*
G54D32*
X1437672Y-830732D02*
X1437672Y-834136D01*
G54D32*
X1444449Y-827356D02*
X1441045Y-827356D01*
G54D32*
X1447840Y-834136D02*
X1447840Y-830732D01*
G54D32*
X2686849Y-914750D02*
X2690253Y-914750D01*
G54D32*
X2683471Y-907956D02*
X2683471Y-911372D01*
G54D32*
X2690253Y-904577D02*
X2686849Y-904577D01*
G54D32*
X2693631Y-911372D02*
X2693631Y-907956D01*
G54D32*
X2806760Y-912710D02*
X2810166Y-912710D01*
G54D32*
X2803384Y-905931D02*
X2803384Y-909334D01*
G54D32*
X2810166Y-902553D02*
X2806760Y-902553D01*
G54D32*
X2813544Y-909334D02*
X2813544Y-905931D01*
G54D31*
X2797771Y-1061072D02*
X2802876Y-1061072D01*
G54D31*
X2792691Y-1050914D02*
X2792691Y-1055982D01*
G54D31*
X2802876Y-1045826D02*
X2797771Y-1045826D01*
G54D31*
X2807956Y-1055982D02*
X2807956Y-1050914D01*
G54D32*
X2735617Y-1077330D02*
X2739021Y-1077330D01*
G54D32*
X2732239Y-1070548D02*
X2732239Y-1073952D01*
G54D32*
X2739021Y-1067158D02*
X2735617Y-1067158D01*
G54D32*
X2742399Y-1073952D02*
X2742399Y-1070548D01*
G54D32*
X2294615Y-973686D02*
X2298024Y-973686D01*
G54D32*
X2291242Y-966891D02*
X2291242Y-970294D01*
G54D32*
X2298024Y-963518D02*
X2294615Y-963518D01*
G54D32*
X2301399Y-970294D02*
X2301399Y-966891D01*
G54D32*
X2294615Y-1081394D02*
X2298024Y-1081394D01*
G54D32*
X2291242Y-1074618D02*
X2291242Y-1078016D01*
G54D32*
X2298024Y-1071226D02*
X2294615Y-1071226D01*
G54D32*
X2301399Y-1078016D02*
X2301399Y-1074618D01*
G54D32*
X2209263Y-1081394D02*
X2212667Y-1081394D01*
G54D32*
X2205888Y-1074618D02*
X2205888Y-1078016D01*
G54D32*
X2212667Y-1071226D02*
X2209263Y-1071226D01*
G54D32*
X2216042Y-1078016D02*
X2216042Y-1074618D01*
G54D32*
X2207224Y-975710D02*
X2210627Y-975710D01*
G54D32*
X2203846Y-968936D02*
X2203846Y-972337D01*
G54D32*
X2210627Y-965558D02*
X2207224Y-965558D01*
G54D32*
X2214003Y-972337D02*
X2214003Y-968936D01*
G54D32*
X2134066Y-977742D02*
X2137468Y-977742D01*
G54D32*
X2130688Y-970960D02*
X2130688Y-974364D01*
G54D32*
X2137468Y-967582D02*
X2134066Y-967582D01*
G54D32*
X2140843Y-974364D02*
X2140843Y-970960D01*
G54D32*
X2132037Y-1006198D02*
X2135441Y-1006198D01*
G54D32*
X2128644Y-999416D02*
X2128644Y-1002820D01*
G54D32*
X2135441Y-996038D02*
X2132037Y-996038D01*
G54D32*
X2138816Y-1002820D02*
X2138816Y-999416D01*
G54D32*
X1764184Y-975710D02*
X1767588Y-975710D01*
G54D32*
X1760808Y-968936D02*
X1760808Y-972337D01*
G54D32*
X1767588Y-965558D02*
X1764184Y-965558D01*
G54D32*
X1770966Y-972337D02*
X1770966Y-968936D01*
G54D31*
X1233939Y-1004678D02*
X1239014Y-1004678D01*
G54D31*
X1228859Y-994514D02*
X1228859Y-999594D01*
G54D31*
X1239014Y-989426D02*
X1233939Y-989426D01*
G54D31*
X1244099Y-999594D02*
X1244099Y-994514D01*
G54D32*
X1121976Y-985870D02*
X1125397Y-985870D01*
G54D32*
X1118602Y-979088D02*
X1118602Y-982492D01*
G54D32*
X1125397Y-975710D02*
X1121976Y-975710D01*
G54D32*
X1128770Y-982492D02*
X1128770Y-979088D01*
G54D32*
X1121976Y-1010262D02*
X1125397Y-1010262D01*
G54D32*
X1118602Y-1003485D02*
X1118602Y-1006883D01*
G54D32*
X1125397Y-1000102D02*
X1121976Y-1000102D01*
G54D32*
X1128770Y-1006883D02*
X1128770Y-1003485D01*
G54D32*
X1082867Y-1058534D02*
X1086271Y-1058534D01*
G54D32*
X1079476Y-1051740D02*
X1079476Y-1055156D01*
G54D32*
X1086271Y-1048362D02*
X1082867Y-1048362D01*
G54D32*
X1089646Y-1055156D02*
X1089646Y-1051740D01*
G54D32*
X986322Y-979782D02*
X989725Y-979782D01*
G54D32*
X982949Y-973000D02*
X982949Y-976404D01*
G54D32*
X989725Y-969622D02*
X986322Y-969622D01*
G54D32*
X993116Y-976404D02*
X993116Y-973000D01*
G54D32*
X986322Y-992482D02*
X989725Y-992482D01*
G54D32*
X982949Y-985692D02*
X982949Y-989108D01*
G54D32*
X989725Y-982314D02*
X986322Y-982314D01*
G54D32*
X993116Y-989108D02*
X993116Y-985692D01*
G54D32*
X935514Y-1048362D02*
X938918Y-1048362D01*
G54D32*
X932136Y-1041585D02*
X932136Y-1044988D01*
G54D32*
X938918Y-1038206D02*
X935514Y-1038206D01*
G54D32*
X942309Y-1044988D02*
X942309Y-1041585D01*
G54D32*
X916718Y-1048874D02*
X920122Y-1048874D01*
G54D32*
X913340Y-1042093D02*
X913340Y-1045496D01*
G54D32*
X920122Y-1038720D02*
X916718Y-1038720D01*
G54D32*
X923513Y-1045496D02*
X923513Y-1042093D01*
G54D32*
X874038Y-1048874D02*
X877445Y-1048874D01*
G54D32*
X870663Y-1042093D02*
X870663Y-1045496D01*
G54D32*
X877445Y-1038720D02*
X874038Y-1038720D01*
G54D32*
X880820Y-1045496D02*
X880820Y-1042093D01*
G54D32*
X805192Y-983584D02*
X808611Y-983584D01*
G54D32*
X801816Y-976802D02*
X801816Y-980206D01*
G54D32*
X808611Y-973424D02*
X805192Y-973424D01*
G54D32*
X811986Y-980206D02*
X811986Y-976802D01*
G54D32*
X731786Y-1081394D02*
X735189Y-1081394D01*
G54D32*
X728408Y-1074618D02*
X728408Y-1078016D01*
G54D32*
X735189Y-1071226D02*
X731786Y-1071226D01*
G54D32*
X738562Y-1078016D02*
X738562Y-1074618D01*
G54D32*
X701301Y-1008234D02*
X704707Y-1008234D01*
G54D32*
X697928Y-1001440D02*
X697928Y-1004844D01*
G54D32*
X704707Y-998062D02*
X701301Y-998062D01*
G54D32*
X708082Y-1004844D02*
X708082Y-1001440D01*
G54D32*
X691133Y-1000102D02*
X694537Y-1000102D01*
G54D32*
X687755Y-993325D02*
X687755Y-996728D01*
G54D32*
X694537Y-989934D02*
X691133Y-989934D01*
G54D32*
X697928Y-996728D02*
X697928Y-993325D01*
G54D32*
X554966Y-1061072D02*
X558370Y-1061072D01*
G54D32*
X551591Y-1054290D02*
X551591Y-1057696D01*
G54D32*
X558370Y-1050914D02*
X554966Y-1050914D01*
G54D32*
X561761Y-1057696D02*
X561761Y-1054290D01*
G54D32*
X532614Y-959454D02*
X536018Y-959454D01*
G54D32*
X529239Y-952672D02*
X529239Y-956076D01*
G54D32*
X536018Y-949294D02*
X532614Y-949294D01*
G54D32*
X539394Y-956076D02*
X539394Y-952672D01*
G54D32*
X424908Y-1010262D02*
X428312Y-1010262D01*
G54D32*
X421532Y-1003485D02*
X421532Y-1006883D01*
G54D32*
X428312Y-1000102D02*
X424908Y-1000102D01*
G54D32*
X431687Y-1006883D02*
X431687Y-1003485D01*
G54D31*
X242180Y-1006706D02*
X247268Y-1006706D01*
G54D31*
X237095Y-996550D02*
X237095Y-1001618D01*
G54D31*
X247268Y-991466D02*
X242180Y-991466D01*
G54D31*
X252338Y-1001618D02*
X252338Y-996550D01*
G54D32*
X215587Y-1030586D02*
X218990Y-1030586D01*
G54D32*
X212208Y-1023805D02*
X212208Y-1027208D01*
G54D32*
X218990Y-1020414D02*
X215587Y-1020414D01*
G54D32*
X222366Y-1027208D02*
X222366Y-1023805D01*
G54D31*
X184952Y-961494D02*
X201861Y-961494D01*
G54D31*
X168002Y-927622D02*
X168002Y-944539D01*
G54D31*
X201861Y-910686D02*
X184952Y-910686D01*
G54D31*
X218810Y-944539D02*
X218810Y-927622D01*
G54D31*
X148434Y-1089019D02*
X158604Y-1089019D01*
G54D31*
X138277Y-1068692D02*
X138277Y-1078846D01*
G54D31*
X158604Y-1058534D02*
X148434Y-1058534D01*
G54D31*
X168759Y-1078846D02*
X168759Y-1068692D01*
G54D32*
X142922Y-967074D02*
X146326Y-967074D01*
G54D32*
X139547Y-960292D02*
X139547Y-963696D01*
G54D32*
X146326Y-956914D02*
X142922Y-956914D01*
G54D32*
X149714Y-963696D02*
X149714Y-960292D01*
G54D31*
X140316Y-1156334D02*
X150474Y-1156334D01*
G54D31*
X130146Y-1136009D02*
X130146Y-1146177D01*
G54D31*
X150474Y-1125849D02*
X140316Y-1125849D01*
G54D31*
X160629Y-1146177D02*
X160629Y-1136009D01*
G54D31*
X148434Y-1223652D02*
X158604Y-1223652D01*
G54D31*
X138277Y-1203324D02*
X138277Y-1213492D01*
G54D31*
X158604Y-1193167D02*
X148434Y-1193167D01*
G54D31*
X168759Y-1213492D02*
X168759Y-1203324D01*
G54D32*
X181038Y-1231780D02*
X184441Y-1231780D01*
G54D32*
X177649Y-1224998D02*
X177649Y-1228402D01*
G54D32*
X184441Y-1221620D02*
X181038Y-1221620D01*
G54D32*
X187819Y-1228402D02*
X187819Y-1224998D01*
G54D31*
X181218Y-1182750D02*
X186288Y-1182750D01*
G54D31*
X176133Y-1172593D02*
X176133Y-1177678D01*
G54D31*
X186288Y-1167510D02*
X181218Y-1167510D01*
G54D31*
X191373Y-1177678D02*
X191373Y-1172593D01*
G54D32*
X283920Y-1139052D02*
X287324Y-1139052D01*
G54D32*
X280532Y-1132270D02*
X280532Y-1135674D01*
G54D32*
X287324Y-1128897D02*
X283920Y-1128897D01*
G54D32*
X290702Y-1135674D02*
X290702Y-1132270D01*
G54D32*
X557008Y-1146423D02*
X560412Y-1146423D01*
G54D32*
X553633Y-1139646D02*
X553633Y-1143050D01*
G54D32*
X560412Y-1136268D02*
X557008Y-1136268D01*
G54D32*
X563785Y-1143050D02*
X563785Y-1139646D01*
G54D32*
X650496Y-1183012D02*
X653897Y-1183012D01*
G54D32*
X647120Y-1176218D02*
X647120Y-1179621D01*
G54D32*
X653897Y-1172839D02*
X650496Y-1172839D01*
G54D32*
X657275Y-1179621D02*
X657275Y-1176218D01*
G54D32*
X788682Y-1162684D02*
X792085Y-1162684D01*
G54D32*
X785306Y-1155905D02*
X785306Y-1159309D01*
G54D32*
X792085Y-1152519D02*
X788682Y-1152519D01*
G54D32*
X795464Y-1159309D02*
X795464Y-1155905D01*
G54D32*
X887762Y-1183520D02*
X891166Y-1183520D01*
G54D32*
X884389Y-1176726D02*
X884389Y-1180134D01*
G54D32*
X891166Y-1173352D02*
X887762Y-1173352D01*
G54D32*
X894544Y-1180134D02*
X894544Y-1176726D01*
G54D32*
X939083Y-1205364D02*
X942486Y-1205364D01*
G54D32*
X935692Y-1198582D02*
X935692Y-1201986D01*
G54D32*
X942486Y-1195209D02*
X939083Y-1195209D01*
G54D32*
X945865Y-1201986D02*
X945865Y-1198582D01*
G54D32*
X997579Y-1184460D02*
X1000957Y-1184460D01*
G54D32*
X994206Y-1177691D02*
X994206Y-1181082D01*
G54D32*
X1000957Y-1174287D02*
X997579Y-1174287D01*
G54D32*
X1004361Y-1181082D02*
X1004361Y-1177691D01*
G54D32*
X1054920Y-1116959D02*
X1058323Y-1116959D01*
G54D32*
X1051546Y-1110170D02*
X1051546Y-1113576D01*
G54D32*
X1058323Y-1106794D02*
X1054920Y-1106794D01*
G54D32*
X1061701Y-1113576D02*
X1061701Y-1110170D01*
G54D32*
X1095560Y-1183012D02*
X1098963Y-1183012D01*
G54D32*
X1092186Y-1176218D02*
X1092186Y-1179621D01*
G54D32*
X1098963Y-1172839D02*
X1095560Y-1172839D01*
G54D32*
X1102341Y-1179621D02*
X1102341Y-1176218D01*
G54D32*
X1115884Y-1215519D02*
X1119288Y-1215519D01*
G54D32*
X1112506Y-1208737D02*
X1112506Y-1212146D01*
G54D32*
X1119288Y-1205364D02*
X1115884Y-1205364D01*
G54D32*
X1122666Y-1212146D02*
X1122666Y-1208737D01*
G54D32*
X1217500Y-1095618D02*
X1220908Y-1095618D01*
G54D32*
X1214127Y-1088836D02*
X1214127Y-1092240D01*
G54D32*
X1220908Y-1085463D02*
X1217500Y-1085463D01*
G54D32*
X1224282Y-1092240D02*
X1224282Y-1088836D01*
G54D32*
X1412607Y-1185036D02*
X1416008Y-1185036D01*
G54D32*
X1409232Y-1178257D02*
X1409232Y-1181661D01*
G54D32*
X1416008Y-1174879D02*
X1412607Y-1174879D01*
G54D32*
X1419387Y-1181661D02*
X1419387Y-1178257D01*
G54D32*
X1581276Y-1172839D02*
X1584682Y-1172839D01*
G54D32*
X1577900Y-1166062D02*
X1577900Y-1169466D01*
G54D32*
X1584682Y-1162684D02*
X1581276Y-1162684D01*
G54D32*
X1588058Y-1169466D02*
X1588058Y-1166062D01*
G54D32*
X1825162Y-1201300D02*
X1828568Y-1201300D01*
G54D32*
X1821774Y-1194518D02*
X1821774Y-1197922D01*
G54D32*
X1828568Y-1191140D02*
X1825162Y-1191140D01*
G54D32*
X1831944Y-1197922D02*
X1831944Y-1194518D01*
G54D32*
X2119842Y-1107815D02*
X2123246Y-1107815D01*
G54D32*
X2116464Y-1101034D02*
X2116464Y-1104437D01*
G54D32*
X2123246Y-1097655D02*
X2119842Y-1097655D01*
G54D32*
X2126619Y-1104437D02*
X2126619Y-1101034D01*
G54D32*
X2218908Y-1230251D02*
X2222311Y-1230251D01*
G54D32*
X2215529Y-1223469D02*
X2215529Y-1226878D01*
G54D32*
X2222311Y-1220096D02*
X2218908Y-1220096D01*
G54D32*
X2225687Y-1226878D02*
X2225687Y-1223469D01*
G54D32*
X2295628Y-1129159D02*
X2299027Y-1129159D01*
G54D32*
X2292248Y-1122364D02*
X2292248Y-1125768D01*
G54D32*
X2299027Y-1118991D02*
X2295628Y-1118991D01*
G54D32*
X2302418Y-1125768D02*
X2302418Y-1122364D01*
G54D31*
X2342039Y-1198252D02*
X2347122Y-1198252D01*
G54D31*
X2336967Y-1188084D02*
X2336967Y-1193167D01*
G54D31*
X2347122Y-1183012D02*
X2342039Y-1183012D01*
G54D31*
X2352207Y-1193167D02*
X2352207Y-1188084D01*
G54D32*
X2394198Y-1191140D02*
X2397602Y-1191140D01*
G54D32*
X2390820Y-1184346D02*
X2390820Y-1187754D01*
G54D32*
X2397602Y-1180972D02*
X2394198Y-1180972D01*
G54D32*
X2400975Y-1187754D02*
X2400975Y-1184346D01*
G54D31*
X2494462Y-1198252D02*
X2499547Y-1198252D01*
G54D31*
X2489390Y-1188084D02*
X2489390Y-1193167D01*
G54D31*
X2499547Y-1183012D02*
X2494462Y-1183012D01*
G54D31*
X2504632Y-1193167D02*
X2504632Y-1188084D01*
G54D31*
X2550357Y-1198252D02*
X2555437Y-1198252D01*
G54D31*
X2545270Y-1188084D02*
X2545270Y-1193167D01*
G54D31*
X2555437Y-1183012D02*
X2550357Y-1183012D01*
G54D31*
X2560510Y-1193167D02*
X2560510Y-1188084D01*
G54D31*
X2702775Y-1198252D02*
X2707855Y-1198252D01*
G54D31*
X2697695Y-1188084D02*
X2697695Y-1193167D01*
G54D31*
X2707855Y-1183012D02*
X2702775Y-1183012D01*
G54D31*
X2712935Y-1193167D02*
X2712935Y-1188084D01*
G54D31*
X2767723Y-1381673D02*
X2784639Y-1381673D01*
G54D31*
X2750781Y-1347800D02*
X2750781Y-1364718D01*
G54D31*
X2784639Y-1330860D02*
X2767723Y-1330860D01*
G54D31*
X2801606Y-1364718D02*
X2801606Y-1347800D01*
G54D32*
X2295130Y-1237884D02*
X2298534Y-1237884D01*
G54D32*
X2291740Y-1231089D02*
X2291740Y-1234498D01*
G54D32*
X2298534Y-1227716D02*
X2295130Y-1227716D01*
G54D32*
X2301910Y-1234498D02*
X2301910Y-1231089D01*
G54D32*
X2115778Y-1254132D02*
X2119182Y-1254132D01*
G54D32*
X2112400Y-1247350D02*
X2112400Y-1250754D01*
G54D32*
X2119182Y-1243972D02*
X2115778Y-1243972D01*
G54D32*
X2122555Y-1250754D02*
X2122555Y-1247350D01*
G54D32*
X1623956Y-1300876D02*
X1627359Y-1300876D01*
G54D32*
X1620580Y-1294094D02*
X1620580Y-1297498D01*
G54D32*
X1627359Y-1290716D02*
X1623956Y-1290716D01*
G54D32*
X1630750Y-1297498D02*
X1630750Y-1294094D01*
G54D32*
X1534535Y-1311046D02*
X1537939Y-1311046D01*
G54D32*
X1531157Y-1304251D02*
X1531157Y-1307670D01*
G54D32*
X1537939Y-1300876D02*
X1534535Y-1300876D01*
G54D32*
X1541330Y-1307670D02*
X1541330Y-1304251D01*
G54D32*
X1430890Y-1302913D02*
X1434296Y-1302913D01*
G54D32*
X1427515Y-1296138D02*
X1427515Y-1299534D01*
G54D32*
X1434296Y-1292748D02*
X1430890Y-1292748D01*
G54D32*
X1437672Y-1299534D02*
X1437672Y-1296138D01*
G54D32*
X1343494Y-1268364D02*
X1346900Y-1268364D01*
G54D32*
X1340118Y-1261574D02*
X1340118Y-1264990D01*
G54D32*
X1346900Y-1258201D02*
X1343494Y-1258201D01*
G54D32*
X1350288Y-1264990D02*
X1350288Y-1261574D01*
G54D32*
X1306926Y-1268364D02*
X1310329Y-1268364D01*
G54D32*
X1303547Y-1261574D02*
X1303547Y-1264990D01*
G54D32*
X1310329Y-1258201D02*
X1306926Y-1258201D01*
G54D32*
X1313702Y-1264990D02*
X1313702Y-1261574D01*
G54D32*
X1272374Y-1268364D02*
X1275780Y-1268364D01*
G54D32*
X1268998Y-1261574D02*
X1268998Y-1264990D01*
G54D32*
X1275780Y-1258201D02*
X1272374Y-1258201D01*
G54D32*
X1279156Y-1264990D02*
X1279156Y-1261574D01*
G54D32*
X1233761Y-1268364D02*
X1237165Y-1268364D01*
G54D32*
X1230383Y-1261574D02*
X1230383Y-1264990D01*
G54D32*
X1237165Y-1258201D02*
X1233761Y-1258201D01*
G54D32*
X1240543Y-1264990D02*
X1240543Y-1261574D01*
G54D32*
X1199217Y-1268364D02*
X1202620Y-1268364D01*
G54D32*
X1195826Y-1261574D02*
X1195826Y-1264990D01*
G54D32*
X1202620Y-1258201D02*
X1199217Y-1258201D01*
G54D32*
X1205994Y-1264990D02*
X1205994Y-1261574D01*
G54D32*
X1111821Y-1248044D02*
X1115224Y-1248044D01*
G54D32*
X1108442Y-1241262D02*
X1108442Y-1244666D01*
G54D32*
X1115224Y-1237884D02*
X1111821Y-1237884D01*
G54D32*
X1118602Y-1244666D02*
X1118602Y-1241262D01*
G54D32*
X1105732Y-1364058D02*
X1109131Y-1364058D01*
G54D32*
X1102341Y-1357282D02*
X1102341Y-1360680D01*
G54D32*
X1109131Y-1353903D02*
X1105732Y-1353903D01*
G54D32*
X1112506Y-1360680D02*
X1112506Y-1357282D01*
G54D32*
X1067116Y-1292748D02*
X1070520Y-1292748D01*
G54D32*
X1063726Y-1285966D02*
X1063726Y-1289370D01*
G54D32*
X1070520Y-1282588D02*
X1067116Y-1282588D01*
G54D32*
X1073898Y-1289370D02*
X1073898Y-1285966D01*
G54D32*
X1014272Y-1335422D02*
X1017676Y-1335422D01*
G54D32*
X1010894Y-1328643D02*
X1010894Y-1332046D01*
G54D32*
X1017676Y-1325265D02*
X1014272Y-1325265D01*
G54D32*
X1021049Y-1332046D02*
X1021049Y-1328643D01*
G54D32*
X908590Y-1359814D02*
X911994Y-1359814D01*
G54D32*
X905212Y-1353034D02*
X905212Y-1356438D01*
G54D32*
X911994Y-1349656D02*
X908590Y-1349656D01*
G54D32*
X915377Y-1356438D02*
X915377Y-1353034D01*
G54D32*
X845598Y-1355750D02*
X849002Y-1355750D01*
G54D32*
X842207Y-1348970D02*
X842207Y-1352374D01*
G54D32*
X849002Y-1345592D02*
X845598Y-1345592D01*
G54D32*
X852375Y-1352374D02*
X852375Y-1348970D01*
G54D32*
X796812Y-1302913D02*
X800221Y-1302913D01*
G54D32*
X793439Y-1296138D02*
X793439Y-1299534D01*
G54D32*
X800221Y-1292748D02*
X796812Y-1292748D01*
G54D32*
X803594Y-1299534D02*
X803594Y-1296138D01*
G54D32*
X692411Y-1279283D02*
X695819Y-1279283D01*
G54D32*
X689025Y-1272501D02*
X689025Y-1275905D01*
G54D32*
X695819Y-1269126D02*
X692411Y-1269126D01*
G54D32*
X699192Y-1275905D02*
X699192Y-1272501D01*
G54D32*
X666754Y-1365918D02*
X670158Y-1365918D01*
G54D32*
X663363Y-1359123D02*
X663363Y-1362526D01*
G54D32*
X670158Y-1355750D02*
X666754Y-1355750D01*
G54D32*
X673533Y-1362526D02*
X673533Y-1359123D01*
G54D32*
X626099Y-1280561D02*
X629505Y-1280561D01*
G54D32*
X622723Y-1273771D02*
X622723Y-1277175D01*
G54D32*
X629505Y-1270396D02*
X626099Y-1270396D01*
G54D32*
X632881Y-1277175D02*
X632881Y-1273771D01*
G54D32*
X559033Y-1276497D02*
X562439Y-1276497D01*
G54D32*
X555657Y-1269702D02*
X555657Y-1273106D01*
G54D32*
X562439Y-1266324D02*
X559033Y-1266324D01*
G54D32*
X565827Y-1273106D02*
X565827Y-1269702D01*
G54D32*
X498070Y-1239908D02*
X501471Y-1239908D01*
G54D32*
X494690Y-1233131D02*
X494690Y-1236535D01*
G54D32*
X501471Y-1229756D02*
X498070Y-1229756D01*
G54D32*
X504850Y-1236535D02*
X504850Y-1233131D01*
G54D32*
X456412Y-1285636D02*
X459815Y-1285636D01*
G54D32*
X453034Y-1278854D02*
X453034Y-1282258D01*
G54D32*
X459815Y-1275476D02*
X456412Y-1275476D01*
G54D32*
X463194Y-1282258D02*
X463194Y-1278854D01*
G54D32*
X408647Y-1319176D02*
X412053Y-1319176D01*
G54D32*
X405271Y-1312382D02*
X405271Y-1315786D01*
G54D32*
X412053Y-1309004D02*
X408647Y-1309004D01*
G54D32*
X415429Y-1315786D02*
X415429Y-1312382D01*
G54D32*
X345645Y-1241935D02*
X349048Y-1241935D01*
G54D32*
X342267Y-1235153D02*
X342267Y-1238562D01*
G54D32*
X349048Y-1231780D02*
X345645Y-1231780D01*
G54D32*
X352424Y-1238562D02*
X352424Y-1235153D01*
G54D32*
X317202Y-1323240D02*
X320606Y-1323240D01*
G54D32*
X313811Y-1316446D02*
X313811Y-1319850D01*
G54D32*
X320606Y-1313068D02*
X317202Y-1313068D01*
G54D32*
X323981Y-1319850D02*
X323981Y-1316446D01*
G54D32*
X294835Y-1323240D02*
X298238Y-1323240D01*
G54D32*
X291459Y-1316446D02*
X291459Y-1319850D01*
G54D32*
X298238Y-1313068D02*
X294835Y-1313068D01*
G54D32*
X301629Y-1319850D02*
X301629Y-1316446D01*
G54D32*
X286704Y-1306982D02*
X290108Y-1306982D01*
G54D32*
X283328Y-1300202D02*
X283328Y-1303606D01*
G54D32*
X290108Y-1296812D02*
X286704Y-1296812D01*
G54D32*
X293499Y-1303606D02*
X293499Y-1300202D01*
G54D32*
X258264Y-1313068D02*
X261667Y-1313068D01*
G54D32*
X254888Y-1306291D02*
X254888Y-1309694D01*
G54D32*
X261667Y-1302913D02*
X258264Y-1302913D01*
G54D32*
X265043Y-1309694D02*
X265043Y-1306291D01*
G54D32*
X217611Y-1319176D02*
X221015Y-1319176D01*
G54D32*
X214235Y-1312382D02*
X214235Y-1315786D01*
G54D32*
X221015Y-1309004D02*
X217611Y-1309004D01*
G54D32*
X224390Y-1315786D02*
X224390Y-1312382D01*
G54D31*
X142770Y-1381673D02*
X159691Y-1381673D01*
G54D31*
X125833Y-1347800D02*
X125833Y-1364718D01*
G54D31*
X159691Y-1330860D02*
X142770Y-1330860D01*
G54D31*
X176643Y-1364718D02*
X176643Y-1347800D01*
G54D31*
X188327Y-1470583D02*
X193400Y-1470583D01*
G54D31*
X183242Y-1460413D02*
X183242Y-1465493D01*
G54D31*
X193400Y-1455338D02*
X188327Y-1455338D01*
G54D31*
X198485Y-1465493D02*
X198485Y-1460413D01*
G54D32*
X309071Y-1479717D02*
X312475Y-1479717D01*
G54D32*
X305680Y-1472940D02*
X305680Y-1476344D01*
G54D32*
X312475Y-1469562D02*
X309071Y-1469562D01*
G54D32*
X315851Y-1476344D02*
X315851Y-1472940D01*
G54D32*
X400519Y-1457365D02*
X403923Y-1457365D01*
G54D32*
X397141Y-1450588D02*
X397141Y-1453992D01*
G54D32*
X403923Y-1447210D02*
X400519Y-1447210D01*
G54D32*
X407296Y-1453992D02*
X407296Y-1450588D01*
G54D32*
X479782Y-1418752D02*
X483186Y-1418752D01*
G54D32*
X476407Y-1411973D02*
X476407Y-1415376D01*
G54D32*
X483186Y-1408597D02*
X479782Y-1408597D01*
G54D32*
X486562Y-1415376D02*
X486562Y-1411973D01*
G54D32*
X579868Y-1405041D02*
X583272Y-1405041D01*
G54D32*
X576493Y-1398246D02*
X576493Y-1401650D01*
G54D32*
X583272Y-1394874D02*
X579868Y-1394874D01*
G54D32*
X586650Y-1401650D02*
X586650Y-1398246D01*
G54D32*
X579868Y-1509707D02*
X583272Y-1509707D01*
G54D32*
X576493Y-1502912D02*
X576493Y-1506316D01*
G54D32*
X583272Y-1499534D02*
X579868Y-1499534D01*
G54D32*
X586650Y-1506316D02*
X586650Y-1502912D01*
G54D32*
X664717Y-1491914D02*
X668121Y-1491914D01*
G54D32*
X661339Y-1485135D02*
X661339Y-1488538D01*
G54D32*
X668121Y-1481759D02*
X664717Y-1481759D01*
G54D32*
X671499Y-1488538D02*
X671499Y-1485135D01*
G54D32*
X672845Y-1526463D02*
X676249Y-1526463D01*
G54D32*
X669467Y-1519681D02*
X669467Y-1523088D01*
G54D32*
X676249Y-1516306D02*
X672845Y-1516306D01*
G54D32*
X679627Y-1523088D02*
X679627Y-1519681D01*
G54D32*
X762266Y-1526463D02*
X765669Y-1526463D01*
G54D32*
X758890Y-1519681D02*
X758890Y-1523088D01*
G54D32*
X765669Y-1516306D02*
X762266Y-1516306D01*
G54D32*
X769048Y-1523088D02*
X769048Y-1519681D01*
G54D32*
X800876Y-1514266D02*
X804285Y-1514266D01*
G54D32*
X797503Y-1507487D02*
X797503Y-1510890D01*
G54D32*
X804285Y-1504111D02*
X800876Y-1504111D01*
G54D32*
X807658Y-1510890D02*
X807658Y-1507487D01*
G54D32*
X837470Y-1437040D02*
X840869Y-1437040D01*
G54D32*
X834092Y-1430261D02*
X834092Y-1433664D01*
G54D32*
X840869Y-1426885D02*
X837470Y-1426885D01*
G54D32*
X844244Y-1433664D02*
X844244Y-1430261D01*
G54D32*
X908590Y-1512239D02*
X911994Y-1512239D01*
G54D32*
X905212Y-1505457D02*
X905212Y-1508864D01*
G54D32*
X911994Y-1502082D02*
X908590Y-1502082D01*
G54D32*
X915377Y-1508864D02*
X915377Y-1505457D01*
G54D32*
X973632Y-1439077D02*
X977036Y-1439077D01*
G54D32*
X970241Y-1432300D02*
X970241Y-1435704D01*
G54D32*
X977036Y-1428910D02*
X973632Y-1428910D01*
G54D32*
X980409Y-1435704D02*
X980409Y-1432300D01*
G54D32*
X1176852Y-1396398D02*
X1180251Y-1396398D01*
G54D32*
X1173474Y-1389623D02*
X1173474Y-1393024D01*
G54D32*
X1180251Y-1386232D02*
X1176852Y-1386232D01*
G54D32*
X1183642Y-1393024D02*
X1183642Y-1389623D01*
G54D32*
X1191084Y-1530527D02*
X1194487Y-1530527D01*
G54D32*
X1187711Y-1523746D02*
X1187711Y-1527152D01*
G54D32*
X1194487Y-1520370D02*
X1191084Y-1520370D01*
G54D32*
X1197866Y-1527152D02*
X1197866Y-1523746D01*
G54D32*
X1221564Y-1467525D02*
X1224972Y-1467525D01*
G54D32*
X1218191Y-1460743D02*
X1218191Y-1464147D01*
G54D32*
X1224972Y-1457365D02*
X1221564Y-1457365D01*
G54D32*
X1228346Y-1464147D02*
X1228346Y-1460743D01*
G54D32*
X1306926Y-1467525D02*
X1310329Y-1467525D01*
G54D32*
X1303547Y-1460743D02*
X1303547Y-1464147D01*
G54D32*
X1310329Y-1457365D02*
X1306926Y-1457365D01*
G54D32*
X1313702Y-1464147D02*
X1313702Y-1460743D01*
G54D32*
X1558924Y-1493954D02*
X1562330Y-1493954D01*
G54D32*
X1555548Y-1487159D02*
X1555548Y-1490563D01*
G54D32*
X1562330Y-1483781D02*
X1558924Y-1483781D01*
G54D32*
X1565706Y-1490563D02*
X1565706Y-1487159D01*
G54D32*
X1652411Y-1493954D02*
X1655815Y-1493954D01*
G54D32*
X1649033Y-1487159D02*
X1649033Y-1490563D01*
G54D32*
X1655815Y-1483781D02*
X1652411Y-1483781D01*
G54D32*
X1659191Y-1490563D02*
X1659191Y-1487159D01*
G54D32*
X1658502Y-1390296D02*
X1661908Y-1390296D01*
G54D32*
X1655127Y-1383514D02*
X1655127Y-1386918D01*
G54D32*
X1661908Y-1380142D02*
X1658502Y-1380142D01*
G54D32*
X1665297Y-1386918D02*
X1665297Y-1383514D01*
G54D31*
X2038220Y-1500555D02*
X2043292Y-1500555D01*
G54D31*
X2033132Y-1490398D02*
X2033132Y-1495465D01*
G54D31*
X2043292Y-1485315D02*
X2038220Y-1485315D01*
G54D31*
X2048380Y-1495465D02*
X2048380Y-1490398D01*
G54D32*
X2117803Y-1396398D02*
X2121206Y-1396398D01*
G54D32*
X2114427Y-1389623D02*
X2114427Y-1393024D01*
G54D32*
X2121206Y-1386232D02*
X2117803Y-1386232D01*
G54D32*
X2124580Y-1393024D02*
X2124580Y-1389623D01*
G54D32*
X2144219Y-1453301D02*
X2147622Y-1453301D01*
G54D32*
X2140843Y-1446519D02*
X2140843Y-1449923D01*
G54D32*
X2147622Y-1443141D02*
X2144219Y-1443141D01*
G54D32*
X2151011Y-1449923D02*
X2151011Y-1446519D01*
G54D32*
X2215356Y-1443141D02*
X2218755Y-1443141D01*
G54D32*
X2211978Y-1436367D02*
X2211978Y-1439768D01*
G54D32*
X2218755Y-1432976D02*
X2215356Y-1432976D01*
G54D32*
X2222131Y-1439768D02*
X2222131Y-1436367D01*
G54D32*
X2290551Y-1473626D02*
X2293960Y-1473626D01*
G54D32*
X2287178Y-1466847D02*
X2287178Y-1470250D01*
G54D32*
X2293960Y-1463456D02*
X2290551Y-1463456D01*
G54D32*
X2297335Y-1470250D02*
X2297335Y-1466847D01*
G54D31*
X2523428Y-1401472D02*
X2528498Y-1401472D01*
G54D31*
X2518343Y-1391318D02*
X2518343Y-1396398D01*
G54D31*
X2528498Y-1386232D02*
X2523428Y-1386232D01*
G54D31*
X2533586Y-1396398D02*
X2533586Y-1391318D01*
G54D33*
X1397035Y-454431D02*
X1397035Y-380250D01*
G54D33*
X1397035Y-466623D02*
X1397035Y-454431D01*
G54D33*
X1397035Y-514896D02*
X1397035Y-466623D01*
G54D33*
X1374172Y-537758D02*
X1397035Y-514896D01*
G54D33*
X1257810Y-537758D02*
X1374172Y-537758D01*
G54D33*
X1239522Y-556044D02*
X1257810Y-537758D01*
G54D33*
X1178557Y-556044D02*
X1239522Y-556044D01*
G54D33*
X1148074Y-586526D02*
X1178557Y-556044D01*
G54D33*
X1148074Y-820244D02*
X1148074Y-586526D01*
G54D33*
X1133347Y-834976D02*
X1148074Y-820244D01*
G54D33*
X1021049Y-834976D02*
X1133347Y-834976D01*
G54D33*
X1015976Y-829901D02*
X1021049Y-834976D01*
G54D33*
X1015976Y-809576D02*
X1015976Y-829901D01*
G54D33*
X1010894Y-804494D02*
X1015976Y-809576D01*
G54D33*
X530770Y-804494D02*
X1010894Y-804494D01*
G54D33*
X462172Y-735906D02*
X530770Y-804494D01*
G54D33*
X431687Y-580948D02*
X431687Y-337060D01*
G54D33*
X462172Y-611428D02*
X431687Y-580948D01*
G54D33*
X462172Y-735906D02*
X462172Y-611428D01*
G54D33*
X101442Y-225290D02*
X101442Y-997554D01*
G54D33*
X142094Y-171945D02*
X131924Y-171945D01*
G54D33*
X121769Y-171945D02*
X121769Y-131292D01*
G54D33*
X131924Y-171945D02*
X121769Y-171945D01*
G54D33*
X131924Y-161777D02*
X131924Y-171945D01*
G54D33*
X147167Y-131292D02*
X147167Y-146532D01*
G54D33*
X131924Y-131292D02*
X147167Y-131292D01*
G54D33*
X121769Y-131292D02*
X131924Y-131292D01*
G54D33*
X147167Y-146532D02*
X131924Y-146532D01*
G54D33*
X131924Y-131292D02*
X147167Y-146532D01*
G54D33*
X131924Y-146532D02*
X131924Y-131292D01*
G54D33*
X131924Y-161777D02*
X131924Y-146532D01*
G54D33*
X142094Y-171945D02*
X131924Y-161777D01*
G54D33*
X147167Y-171945D02*
X142094Y-171945D01*
G54D33*
X147167Y-161777D02*
X147167Y-171945D01*
G54D33*
X131924Y-161777D02*
X147167Y-161777D01*
G54D33*
X147167Y-146532D02*
X131924Y-161777D01*
G54D33*
X147167Y-161777D02*
X147167Y-146532D01*
G54D33*
X203059Y-131292D02*
X203059Y-171945D01*
G54D33*
X203059Y-131292D02*
X213214Y-131292D01*
G54D33*
X192902Y-131292D02*
X203059Y-131292D01*
G54D33*
X192902Y-171945D02*
X192902Y-131292D01*
G54D33*
X203059Y-171945D02*
X192902Y-171945D01*
G54D33*
X213214Y-171945D02*
X203059Y-171945D01*
G54D33*
X213214Y-171945D02*
X223384Y-171945D01*
G54D33*
X213214Y-131292D02*
X213214Y-171945D01*
G54D33*
X223384Y-131292D02*
X213214Y-131292D01*
G54D33*
X223384Y-171945D02*
X223384Y-131292D01*
G54D33*
X264024Y-141465D02*
X274195Y-151617D01*
G54D33*
X258952Y-151617D02*
X258952Y-141465D01*
G54D33*
X274195Y-161777D02*
X264024Y-151617D01*
G54D33*
X274195Y-151617D02*
X274195Y-161777D01*
G54D33*
X264024Y-151617D02*
X274195Y-151617D01*
G54D33*
X258952Y-151617D02*
X264024Y-151617D01*
G54D33*
X258952Y-161777D02*
X258952Y-151617D01*
G54D33*
X274195Y-171945D02*
X258952Y-171945D01*
G54D33*
X274195Y-161777D02*
X274195Y-171945D01*
G54D33*
X258952Y-161777D02*
X274195Y-161777D01*
G54D33*
X258952Y-171945D02*
X258952Y-161777D01*
G54D33*
X248782Y-171945D02*
X258952Y-171945D01*
G54D33*
X248782Y-131292D02*
X248782Y-171945D01*
G54D33*
X258952Y-131292D02*
X248782Y-131292D01*
G54D33*
X258952Y-131292D02*
X264024Y-131292D01*
G54D33*
X258952Y-141465D02*
X258952Y-131292D01*
G54D33*
X264024Y-141465D02*
X258952Y-141465D01*
G54D33*
X274195Y-141465D02*
X264024Y-141465D01*
G54D33*
X264024Y-131292D02*
X274195Y-141465D01*
G54D33*
X274195Y-131292D02*
X264024Y-131292D01*
G54D33*
X274195Y-141465D02*
X274195Y-131292D01*
G54D33*
X274195Y-151617D02*
X274195Y-141465D01*
G54D33*
X340245Y-151617D02*
X350397Y-161777D01*
G54D33*
X340245Y-151617D02*
X335157Y-151617D01*
G54D33*
X350397Y-151617D02*
X340245Y-151617D01*
G54D33*
X350397Y-161777D02*
X350397Y-151617D01*
G54D33*
X350397Y-161777D02*
X350397Y-171945D01*
G54D33*
X335157Y-161777D02*
X350397Y-161777D01*
G54D33*
X325000Y-171945D02*
X335157Y-171945D01*
G54D33*
X325000Y-131292D02*
X325000Y-171945D01*
G54D33*
X335157Y-131292D02*
X325000Y-131292D01*
G54D33*
X350397Y-141465D02*
X340245Y-131292D01*
G54D33*
X350397Y-151617D02*
X350397Y-141465D01*
G54D33*
X340245Y-141465D02*
X350397Y-151617D01*
G54D33*
X340245Y-141465D02*
X335157Y-141465D01*
G54D33*
X350397Y-141465D02*
X340245Y-141465D01*
G54D33*
X350397Y-131292D02*
X350397Y-141465D01*
G54D33*
X340245Y-131292D02*
X350397Y-131292D01*
G54D33*
X335157Y-131292D02*
X340245Y-131292D01*
G54D33*
X335157Y-141465D02*
X335157Y-131292D01*
G54D33*
X335157Y-151617D02*
X335157Y-141465D01*
G54D33*
X335157Y-161777D02*
X335157Y-151617D01*
G54D33*
X335157Y-171945D02*
X335157Y-161777D01*
G54D33*
X350397Y-171945D02*
X335157Y-171945D01*
G54D33*
X467258Y-131292D02*
X472343Y-131292D01*
G54D33*
X467258Y-171945D02*
X467258Y-161777D01*
G54D33*
X457098Y-131292D02*
X457098Y-171945D01*
G54D33*
X467258Y-131292D02*
X457098Y-131292D01*
G54D33*
X467258Y-141465D02*
X467258Y-131292D01*
G54D33*
X482498Y-141465D02*
X472343Y-141465D01*
G54D33*
X482498Y-131292D02*
X482498Y-141465D01*
G54D33*
X472343Y-131292D02*
X482498Y-131292D01*
G54D33*
X482498Y-141465D02*
X472343Y-131292D01*
G54D33*
X482498Y-151617D02*
X482498Y-141465D01*
G54D33*
X472343Y-141465D02*
X482498Y-151617D01*
G54D33*
X467258Y-141465D02*
X472343Y-141465D01*
G54D33*
X467258Y-151617D02*
X467258Y-141465D01*
G54D33*
X467258Y-151617D02*
X472343Y-151617D01*
G54D33*
X467258Y-161777D02*
X467258Y-151617D01*
G54D33*
X482498Y-161777D02*
X467258Y-161777D01*
G54D33*
X472343Y-151617D02*
X482498Y-161777D01*
G54D33*
X482498Y-151617D02*
X472343Y-151617D01*
G54D33*
X482498Y-161777D02*
X482498Y-151617D01*
G54D33*
X482498Y-171945D02*
X482498Y-161777D01*
G54D33*
X467258Y-171945D02*
X482498Y-171945D01*
G54D33*
X457098Y-171945D02*
X467258Y-171945D01*
G54D33*
X391052Y-161777D02*
X406292Y-146532D01*
G54D33*
X391052Y-171945D02*
X391052Y-161777D01*
G54D33*
X406292Y-171945D02*
X396120Y-171945D01*
G54D33*
X406292Y-161777D02*
X406292Y-171945D01*
G54D33*
X406292Y-146532D02*
X406292Y-161777D01*
G54D33*
X406292Y-146532D02*
X406292Y-131292D01*
G54D33*
X391052Y-146532D02*
X406292Y-146532D01*
G54D33*
X391052Y-161777D02*
X391052Y-146532D01*
G54D33*
X406292Y-161777D02*
X391052Y-161777D01*
G54D33*
X396120Y-171945D02*
X406292Y-161777D01*
G54D33*
X391052Y-171945D02*
X396120Y-171945D01*
G54D33*
X380880Y-171945D02*
X391052Y-171945D01*
G54D33*
X380880Y-131292D02*
X380880Y-171945D01*
G54D33*
X391052Y-131292D02*
X380880Y-131292D01*
G54D33*
X391052Y-146532D02*
X391052Y-131292D01*
G54D33*
X406292Y-131292D02*
X391052Y-146532D01*
G54D33*
X391052Y-131292D02*
X406292Y-131292D01*
G54D33*
X368175Y-250700D02*
X368175Y-85569D01*
G54D33*
X342777Y-276097D02*
X368175Y-250700D01*
G54D33*
X188838Y-276097D02*
X342777Y-276097D01*
G54D33*
X144629Y-320306D02*
X188838Y-276097D01*
G54D33*
X144629Y-931506D02*
X144629Y-320306D01*
G54D33*
X170027Y-956914D02*
X144629Y-931506D01*
G54D33*
X170027Y-977244D02*
X170027Y-956914D01*
G54D33*
X149714Y-997554D02*
X170027Y-977244D01*
G54D33*
X101442Y-997554D02*
X149714Y-997554D01*
G54D33*
X182734Y-1482778D02*
X182734Y-1556184D01*
G54D33*
X101442Y-1482778D02*
X182734Y-1482778D01*
G54D34*
X1549706Y-236214D02*
X1549445Y-85569D01*
G54D34*
X1642932Y-236214D02*
X1549706Y-236214D01*
G54D34*
X1642932Y-85569D02*
X1642932Y-236214D01*
G54D34*
X2271427Y-85569D02*
X1642932Y-85569D01*
G54D34*
X2271427Y-187185D02*
X2271427Y-85569D01*
G54D34*
X2289962Y-187185D02*
X2271427Y-187185D01*
G54D34*
X2289962Y-85569D02*
X2289962Y-187185D01*
G54D34*
X2829546Y-85569D02*
X2289962Y-85569D01*
G54D34*
X2829546Y-236214D02*
X2829546Y-85569D01*
G54D34*
X2832340Y-236214D02*
X2829546Y-236214D01*
G54D34*
X2832340Y-1556184D02*
X2832340Y-236214D01*
G54D34*
X1135369Y-1556184D02*
X2832340Y-1556184D01*
G54D34*
X1135369Y-1556184D02*
X342777Y-1556184D01*
G54D34*
X342777Y-1556184D02*
X1135369Y-1556184D01*
G54D34*
X182734Y-1556184D02*
X342777Y-1556184D01*
G54D34*
X101442Y-1556184D02*
X182734Y-1556184D01*
G54D34*
X101442Y-1482778D02*
X101442Y-1556184D01*
G54D34*
X1549445Y-85569D02*
X101442Y-85569D01*
G54D34*
X368175Y-85569D02*
X1549445Y-85569D01*
G54D34*
X101442Y-85569D02*
X368175Y-85569D01*
G54D34*
X101442Y-225290D02*
X101442Y-85569D01*
G54D34*
X101442Y-997554D02*
X101442Y-225290D01*
G54D34*
X101442Y-1482778D02*
X101442Y-997554D01*
G54D34*
X101442Y-1556184D02*
X101442Y-1482778D01*
G54D35*
X446927Y-986886D02*
X444906Y-984862D01*
G54D35*
X1670367Y-208521D02*
X1684601Y-208521D01*
G54D35*
X1542333Y-279653D02*
X1542333Y-263390D01*
G54D35*
X1070850Y-765368D02*
X1060680Y-765368D01*
G54D35*
X1105397Y-990958D02*
X1160766Y-990958D01*
G54D35*
X1135369Y-1276992D02*
X1135369Y-1556184D01*
G54D35*
X1242072Y-1170307D02*
X1135369Y-1276992D01*
G54D35*
X1242072Y-1104259D02*
X1242072Y-1170307D01*
G54D35*
X1257312Y-1089019D02*
X1242072Y-1104259D01*
G54D35*
X1343674Y-1089019D02*
X1257312Y-1089019D01*
G54D35*
X1348759Y-1083932D02*
X1343674Y-1089019D01*
G54D35*
X1348759Y-1028052D02*
X1348759Y-1083932D01*
G54D35*
X1343674Y-1022966D02*
X1348759Y-1028052D01*
G54D35*
X1192778Y-1022966D02*
X1343674Y-1022966D01*
G54D35*
X1160766Y-990958D02*
X1192778Y-1022966D01*
G54D35*
X1160766Y-985374D02*
X1160766Y-990958D01*
G54D35*
X1150101Y-974694D02*
X1160766Y-985374D01*
G54D35*
X1121658Y-974694D02*
X1150101Y-974694D01*
G54D35*
X1105397Y-990958D02*
X1121658Y-974694D01*
G54D35*
X1073390Y-1022966D02*
X1105397Y-990958D01*
G54D35*
X477412Y-1022966D02*
X1073390Y-1022966D01*
G54D35*
X477412Y-1017374D02*
X477412Y-1022966D01*
G54D35*
X446927Y-986886D02*
X477412Y-1017374D01*
G54D35*
X418472Y-986886D02*
X446927Y-986886D01*
G54D35*
X408317Y-997046D02*
X418472Y-986886D01*
G54D35*
X408317Y-1037698D02*
X408317Y-997046D01*
G54D35*
X418985Y-1048362D02*
X408317Y-1037698D01*
G54D35*
X418985Y-1238892D02*
X418985Y-1048362D01*
G54D35*
X342777Y-1315110D02*
X418985Y-1238892D01*
G54D35*
X342777Y-1556184D02*
X342777Y-1315110D01*
G54D36*
X1408211Y-454431D02*
X1397035Y-454431D01*
G54D36*
X1408211Y-464598D02*
X1408211Y-454431D01*
G54D36*
X1399059Y-464598D02*
X1408211Y-464598D01*
G54D36*
X1397035Y-466623D02*
X1399059Y-464598D01*
G36*
X2832975Y-1556818D02*
X100807Y-1556818D01*
X102077Y-1555549D01*
X2831705Y-1555549D01*
X2832975Y-1556818D01*
G37*
G36*
X2832975Y-235582D02*
X2832975Y-1556818D01*
X2831705Y-1555549D01*
X2831705Y-236852D01*
X2832975Y-235582D01*
G37*
G36*
X2830182Y-235582D02*
X2832975Y-235582D01*
X2831705Y-236852D01*
X2828912Y-236852D01*
X2830182Y-235582D01*
G37*
G36*
X2830182Y-84932D02*
X2830182Y-235582D01*
X2828912Y-236852D01*
X2828912Y-86202D01*
X2830182Y-84932D01*
G37*
G36*
X2290606Y-84932D02*
X2830182Y-84932D01*
X2828912Y-86202D01*
X2291876Y-86202D01*
X2290606Y-84932D01*
G37*
G36*
X2290606Y-186552D02*
X2290606Y-84932D01*
X2291876Y-86202D01*
X2291876Y-187822D01*
X2290606Y-186552D01*
G37*
G36*
X2272060Y-186552D02*
X2290606Y-186552D01*
X2291876Y-187822D01*
X2270790Y-187822D01*
X2272060Y-186552D01*
G37*
G36*
X2272060Y-84932D02*
X2272060Y-186552D01*
X2270790Y-187822D01*
X2270790Y-86202D01*
X2272060Y-84932D01*
G37*
G36*
X1642297Y-84932D02*
X2272060Y-84932D01*
X2270790Y-86202D01*
X1643567Y-86202D01*
X1642297Y-84932D01*
G37*
G36*
X1642297Y-235582D02*
X1642297Y-84932D01*
X1643567Y-86202D01*
X1643567Y-236852D01*
X1642297Y-235582D01*
G37*
G36*
X1550339Y-235582D02*
X1642297Y-235582D01*
X1643567Y-236852D01*
X1549071Y-236852D01*
X1550339Y-235582D01*
G37*
G36*
X1550077Y-84932D02*
X1550339Y-235582D01*
X1549071Y-236852D01*
X1548810Y-86202D01*
X1550077Y-84932D01*
G37*
G36*
X100807Y-84932D02*
X1550077Y-84932D01*
X1548810Y-86202D01*
X102077Y-86202D01*
X100807Y-84932D01*
G37*
G36*
X100807Y-1556818D02*
X100807Y-84932D01*
X102077Y-86202D01*
X102077Y-1555549D01*
X100807Y-1556818D01*
G37*
G54D37*
X132435Y-1505376D02*
X172066Y-1505376D01*
X1112010Y-138137D02*
G54D38*
D03*
X670228Y-557796D02*
G54D39*
D03*
G36*
X101232Y-1306257D02*
X201232Y-1306257D01*
X201232Y-1406257D01*
X101232Y-1406257D01*
X101232Y-1306257D01*
G37*
G36*
X1555592Y-241089D02*
X1655592Y-241089D01*
X1655592Y-341089D01*
X1555592Y-341089D01*
X1555592Y-241089D01*
G37*
G36*
X2726193Y-1306257D02*
X2826193Y-1306257D01*
X2826193Y-1406257D01*
X2726193Y-1406257D01*
X2726193Y-1306257D01*
G37*
M02*
