%FSLAX34Y34*%
%MOMM*%
%LNCOPPER_INNER2*%
G71*
G01*
%ADD10C,1.016*%
%ADD11C,0.203*%
%ADD12C,1.270*%
%ADD13C,0.508*%
%ADD14C,0.756*%
%ADD15C,0.755*%
%ADD16C,0.755*%
%ADD17C,0.757*%
%ADD18C,0.755*%
%ADD19C,2.159*%
%ADD20C,0.756*%
%ADD21C,2.540*%
%ADD22C,1.121*%
%ADD23C,0.798*%
%LPD*%
G54D10*
X1412274Y-153657D02*
X1511852Y-153657D01*
G54D11*
X1422432Y-133330D02*
X1528113Y-133330D01*
G54D11*
X1526074Y-137399D02*
X1420407Y-137399D01*
G54D11*
X1418368Y-141463D02*
X1524049Y-141463D01*
G54D11*
X1522010Y-145527D02*
X1416338Y-145527D01*
G54D11*
X1477306Y-594657D02*
X1359429Y-594657D01*
G54D11*
X1651062Y-254256D02*
X1535225Y-254256D01*
G54D11*
X1541329Y-242060D02*
X1671387Y-242060D01*
G54D11*
X1671387Y-246124D02*
X1539289Y-246124D01*
G54D11*
X1537262Y-250188D02*
X1659190Y-250188D01*
G54D12*
X1526074Y-330459D02*
X1686630Y-330459D01*
G54D13*
X1588057Y-260345D02*
X1618555Y-260345D01*
G54D13*
X1618555Y-260345D02*
X1619558Y-261364D01*
G54D13*
X1619558Y-261364D02*
X1645990Y-261364D01*
G54D13*
X1645990Y-261364D02*
X1648014Y-263390D01*
G54D13*
X1648014Y-263390D02*
X1648014Y-275585D01*
G54D11*
X1651062Y-254256D02*
X1668342Y-271521D01*
G54D13*
X1648014Y-275585D02*
X1656147Y-283716D01*
G54D13*
X1656147Y-283716D02*
X1678499Y-283716D01*
G54D12*
X1713046Y-177030D02*
X1915257Y-177030D01*
X1948793Y-210557D02*
G54D14*
D03*
G54D12*
X1915257Y-177030D02*
X1935585Y-197343D01*
G54D13*
X1935585Y-207513D02*
X1938631Y-210558D01*
G54D13*
X1938631Y-210558D02*
X1948801Y-210558D01*
G54D13*
X1935585Y-197343D02*
X1935585Y-207513D01*
G54D10*
X560744Y-228841D02*
X654229Y-228841D01*
G54D11*
X566835Y-204450D02*
X642034Y-204450D01*
G54D11*
X644059Y-208519D02*
X564808Y-208519D01*
G54D11*
X562769Y-212583D02*
X646098Y-212583D01*
G54D11*
X650165Y-216647D02*
X560744Y-216647D01*
X1267979Y-588560D02*
G54D15*
D03*
G54D11*
X1306592Y-755213D02*
X1270006Y-718624D01*
G54D11*
X1267982Y-598721D02*
X1276110Y-606854D01*
G54D11*
X1263913Y-720667D02*
X1302528Y-759277D01*
G54D11*
X1300489Y-576369D02*
X1237497Y-576369D01*
G54D11*
X1225302Y-572305D02*
X1314725Y-572305D01*
G54D11*
X1312686Y-568241D02*
X1219199Y-568241D01*
G54D11*
X1239524Y-580438D02*
X1298462Y-580438D01*
X1333011Y-625140D02*
G54D15*
D03*
G54D11*
X1322853Y-629206D02*
X1322853Y-608879D01*
G54D11*
X1361466Y-635310D02*
X1351296Y-625137D01*
G54D11*
X1312686Y-588566D02*
X1312686Y-641401D01*
G54D11*
X1276110Y-606854D02*
X1276110Y-716600D01*
G54D11*
X1282201Y-714560D02*
X1282201Y-590591D01*
G54D11*
X1308617Y-590591D02*
X1308617Y-655622D01*
G54D11*
X1316750Y-633270D02*
X1316750Y-588566D01*
G54D11*
X1355360Y-604815D02*
X1404144Y-604815D01*
X1452913Y-604821D02*
G54D16*
D03*
G54D11*
X1444784Y-614985D02*
X1452914Y-606854D01*
G54D11*
X1414298Y-614985D02*
X1444784Y-614985D01*
G54D11*
X1404144Y-604815D02*
X1414298Y-614985D01*
G54D11*
X1452914Y-606854D02*
X1452914Y-604815D01*
G54D11*
X1276110Y-716600D02*
X1310656Y-751147D01*
G54D11*
X1314725Y-747083D02*
X1282201Y-714560D01*
G54D11*
X1280176Y-824306D02*
X1288304Y-832437D01*
G54D11*
X1280176Y-803981D02*
X1280176Y-824306D01*
G54D11*
X1290334Y-824306D02*
X1286265Y-820242D01*
G54D11*
X1286265Y-820242D02*
X1286265Y-806021D01*
X1296430Y-816176D02*
G54D14*
D03*
X1298463Y-832437D02*
G54D16*
D03*
G54D11*
X1290334Y-824306D02*
X1306592Y-824306D01*
G54D11*
X1288304Y-832437D02*
X1298462Y-832437D01*
G54D11*
X1302528Y-781629D02*
X1280176Y-803981D01*
G54D11*
X1310656Y-791787D02*
X1296437Y-806021D01*
G54D11*
X1296437Y-806021D02*
X1296437Y-816178D01*
G54D11*
X1286265Y-806021D02*
X1306592Y-785696D01*
X1310659Y-816176D02*
G54D15*
D03*
X1312690Y-832437D02*
G54D17*
D03*
G54D11*
X1306592Y-785696D02*
X1306592Y-755213D01*
G54D11*
X1314725Y-795851D02*
X1314725Y-747083D01*
G54D11*
X1310656Y-799915D02*
X1314725Y-795851D01*
G54D11*
X1310656Y-816178D02*
X1310656Y-799915D01*
G54D11*
X1312686Y-830397D02*
X1312686Y-832437D01*
G54D11*
X1306592Y-824306D02*
X1312686Y-830397D01*
G54D11*
X1302528Y-759277D02*
X1302528Y-781629D01*
G54D11*
X1310656Y-751147D02*
X1310656Y-791787D01*
X1190756Y-588560D02*
G54D18*
D03*
X1202942Y-588560D02*
G54D14*
D03*
X1215140Y-588560D02*
G54D14*
D03*
X1227334Y-588560D02*
G54D14*
D03*
G54D11*
X1192780Y-588566D02*
X1190756Y-588566D01*
G54D11*
X1219199Y-568241D02*
X1202950Y-584502D01*
G54D11*
X1202950Y-584502D02*
X1202950Y-588566D01*
G54D11*
X1192780Y-588566D02*
X1192780Y-594657D01*
G54D11*
X1192780Y-594657D02*
X1196847Y-598721D01*
G54D11*
X1227327Y-586527D02*
X1227327Y-588566D01*
G54D11*
X1215132Y-582463D02*
X1215132Y-588566D01*
G54D11*
X1215132Y-582463D02*
X1225302Y-572305D01*
G54D11*
X1196847Y-598721D02*
X1231396Y-598721D01*
G54D11*
X1231396Y-598721D02*
X1235460Y-594657D01*
G54D11*
X1237497Y-576369D02*
X1227327Y-586527D01*
X1243589Y-588560D02*
G54D16*
D03*
X1255785Y-588560D02*
G54D15*
D03*
G54D11*
X1255785Y-600748D02*
X1255785Y-588566D01*
G54D11*
X1270006Y-614985D02*
X1255785Y-600748D01*
G54D11*
X1235460Y-584502D02*
X1239524Y-580438D01*
G54D11*
X1235460Y-594657D02*
X1235460Y-584502D01*
G54D11*
X1243590Y-588566D02*
X1243590Y-602785D01*
G54D11*
X1243590Y-602785D02*
X1263913Y-623113D01*
G54D11*
X1263913Y-623113D02*
X1263913Y-720667D01*
G54D11*
X1267982Y-588566D02*
X1267982Y-598721D01*
G54D11*
X1270006Y-718624D02*
X1270006Y-614985D01*
X1333011Y-680013D02*
G54D15*
D03*
X1296430Y-690176D02*
G54D14*
D03*
X1296430Y-702371D02*
G54D14*
D03*
X1296430Y-714560D02*
G54D14*
D03*
G54D11*
X1296437Y-690169D02*
X1341141Y-690169D01*
G54D11*
X1341141Y-690169D02*
X1349272Y-682051D01*
G54D11*
X1355360Y-692208D02*
X1343178Y-704403D01*
G54D11*
X1343178Y-704403D02*
X1298462Y-704403D01*
G54D11*
X1298462Y-704403D02*
X1296437Y-702366D01*
G54D11*
X1296437Y-714560D02*
X1351296Y-714560D01*
G54D11*
X1351296Y-714560D02*
X1361466Y-704403D01*
G54D11*
X1349272Y-682051D02*
X1349272Y-647489D01*
G54D11*
X1308617Y-655622D02*
X1333008Y-680014D01*
G54D11*
X1355360Y-641401D02*
X1355360Y-692208D01*
G54D11*
X1361466Y-704403D02*
X1361466Y-635310D01*
X1333011Y-651562D02*
G54D15*
D03*
G54D11*
X1326920Y-633270D02*
X1322853Y-629206D01*
G54D11*
X1322853Y-639376D02*
X1316750Y-633270D01*
G54D11*
X1341141Y-639376D02*
X1322853Y-639376D01*
G54D11*
X1349272Y-647489D02*
X1341141Y-639376D01*
G54D11*
X1312686Y-641401D02*
X1322853Y-651558D01*
G54D11*
X1322853Y-651558D02*
X1333008Y-651558D01*
G54D11*
X1347232Y-633270D02*
X1355360Y-641401D01*
G54D11*
X1326920Y-633270D02*
X1347232Y-633270D01*
X1485435Y-602788D02*
G54D16*
D03*
X1484670Y-240534D02*
G54D19*
D03*
G54D10*
X1517956Y-159751D02*
X1517956Y-204450D01*
G54D10*
X1511852Y-153657D02*
X1517956Y-159751D01*
G54D11*
X1530138Y-147554D02*
X1530138Y-243080D01*
G54D11*
X1524049Y-141463D02*
X1530138Y-147554D01*
G54D13*
X1517956Y-249169D02*
X1530138Y-261364D01*
G54D13*
X1517956Y-249169D02*
X1517956Y-204450D01*
G54D12*
X1484674Y-240530D02*
X1484674Y-242308D01*
G54D12*
X1484674Y-242308D02*
X1513892Y-271521D01*
G54D12*
X1513892Y-271521D02*
X1513892Y-318264D01*
G54D12*
X1513892Y-318264D02*
X1526074Y-330459D01*
G54D11*
X1477306Y-594657D02*
X1485434Y-602785D01*
G54D11*
X1526074Y-245105D02*
X1526074Y-149593D01*
G54D11*
X1526074Y-149593D02*
X1522010Y-145527D01*
G54D11*
X1535225Y-254256D02*
X1526074Y-245105D01*
G54D11*
X1528113Y-133330D02*
X1538268Y-143487D01*
G54D11*
X1534204Y-145527D02*
X1526074Y-137399D01*
G54D11*
X1534204Y-241041D02*
X1534204Y-145527D01*
G54D11*
X1539289Y-246124D02*
X1534204Y-241041D01*
G54D11*
X1530138Y-243080D02*
X1537262Y-250188D01*
G54D13*
X1530138Y-261364D02*
X1544372Y-261364D01*
X1542335Y-265430D02*
G54D15*
D03*
G54D11*
X1544372Y-263390D02*
X1542332Y-265432D01*
G54D11*
X1544372Y-261364D02*
X1544372Y-263390D01*
G54D11*
X1538268Y-239012D02*
X1541329Y-242060D01*
G54D11*
X1538268Y-143487D02*
X1538268Y-239012D01*
G54D13*
X1587051Y-261364D02*
X1588057Y-260345D01*
G54D13*
X1544372Y-261364D02*
X1587051Y-261364D01*
X1137915Y-413784D02*
G54D17*
D03*
X1119620Y-426992D02*
G54D18*
D03*
X683189Y-443763D02*
G54D20*
D03*
X667942Y-443763D02*
G54D18*
D03*
X660320Y-415816D02*
G54D15*
D03*
G54D12*
X667942Y-431058D02*
X667942Y-443761D01*
G54D12*
X667942Y-431058D02*
X668961Y-430037D01*
G54D12*
X668961Y-430037D02*
X681915Y-430037D01*
G54D12*
X681915Y-430037D02*
X683182Y-431317D01*
G54D12*
X683182Y-431317D02*
X683182Y-443761D01*
G54D12*
X681915Y-430037D02*
X739583Y-430037D01*
G54D12*
X739583Y-430037D02*
X742631Y-426989D01*
G54D12*
X742631Y-426989D02*
X1119620Y-426989D01*
G54D11*
X660322Y-415813D02*
X1135881Y-415813D01*
G54D11*
X1135881Y-415813D02*
X1137908Y-413789D01*
X144631Y-961993D02*
G54D16*
D03*
G54D10*
X134475Y-962002D02*
X144631Y-962002D01*
G54D10*
X119220Y-962002D02*
X134475Y-962002D01*
G54D10*
X134475Y-962002D02*
X134475Y-291336D01*
G54D21*
X119220Y-962002D02*
X119220Y-296423D01*
G54D10*
X920454Y-165839D02*
X967195Y-119096D01*
G54D10*
X717236Y-165839D02*
X920454Y-165839D01*
G54D10*
X654229Y-228841D02*
X717236Y-165839D01*
G54D11*
X910296Y-145527D02*
X957040Y-98783D01*
G54D11*
X700972Y-145527D02*
X910296Y-145527D01*
G54D11*
X642034Y-204450D02*
X700972Y-145527D01*
G54D11*
X702997Y-149593D02*
X644059Y-208519D01*
G54D11*
X912321Y-149593D02*
X702997Y-149593D01*
G54D11*
X959064Y-102850D02*
X912321Y-149593D01*
G54D11*
X963131Y-110978D02*
X916390Y-157709D01*
G54D11*
X916390Y-157709D02*
X709103Y-157709D01*
G54D11*
X709103Y-157709D02*
X650165Y-216647D01*
G54D11*
X646098Y-212583D02*
X705036Y-153657D01*
G54D11*
X705036Y-153657D02*
X914360Y-153657D01*
G54D11*
X914360Y-153657D02*
X961104Y-106914D01*
G54D10*
X967195Y-119096D02*
X1131817Y-119096D01*
G54D11*
X957040Y-98783D02*
X1144012Y-98783D01*
G54D11*
X1141972Y-102850D02*
X959064Y-102850D01*
G54D11*
X1137908Y-110978D02*
X963131Y-110978D01*
G54D11*
X961104Y-106914D02*
X1139948Y-106914D01*
X1668342Y-271521D02*
G54D18*
D03*
X1668342Y-259332D02*
G54D18*
D03*
G54D12*
X1686630Y-330459D02*
X1719149Y-297937D01*
G54D13*
X1678499Y-283716D02*
X1678499Y-265432D01*
X1676472Y-251202D02*
G54D15*
D03*
G54D12*
X1719149Y-297937D02*
X1719149Y-208519D01*
G54D13*
X1678499Y-265432D02*
X1688669Y-255262D01*
G54D13*
X1688669Y-255262D02*
X1688669Y-232910D01*
G54D11*
X1659190Y-250188D02*
X1668342Y-259326D01*
X1676472Y-236973D02*
G54D15*
D03*
X1678326Y-208523D02*
G54D14*
D03*
X1688660Y-196328D02*
G54D17*
D03*
G54D11*
X1671387Y-242060D02*
X1676472Y-236974D01*
G54D11*
X1676472Y-251193D02*
X1671387Y-246124D01*
G54D12*
X1713046Y-177030D02*
X1696797Y-177030D01*
G54D12*
X1713046Y-202425D02*
X1713046Y-177030D01*
G54D12*
X1719149Y-208519D02*
X1713046Y-202425D01*
G54D13*
X1686630Y-194297D02*
X1686630Y-186167D01*
G54D13*
X1688669Y-196337D02*
X1686630Y-194297D01*
G54D13*
X1690694Y-208519D02*
X1678319Y-208519D01*
G54D13*
X1688669Y-232910D02*
X1694758Y-226817D01*
G54D13*
X1694758Y-226817D02*
X1694758Y-212583D01*
G54D13*
X1694758Y-212583D02*
X1690694Y-208519D01*
G54D12*
X1696797Y-177030D02*
X1687648Y-186167D01*
G54D12*
X1687648Y-186167D02*
X1686630Y-186167D01*
G54D10*
X528219Y-196337D02*
X560744Y-228841D01*
G54D10*
X347354Y-196337D02*
X528219Y-196337D01*
G54D10*
X340244Y-203446D02*
X347354Y-196337D01*
G54D11*
X538392Y-176009D02*
X566835Y-204450D01*
G54D11*
X172578Y-184142D02*
X172578Y-228841D01*
G54D11*
X176643Y-230884D02*
X176643Y-186167D01*
G54D11*
X180708Y-190231D02*
X180708Y-232910D01*
G54D11*
X560744Y-216647D02*
X532289Y-188206D01*
G54D11*
X534328Y-184142D02*
X562769Y-212583D01*
G54D11*
X564808Y-208519D02*
X536353Y-180073D01*
X131926Y-192264D02*
G54D15*
D03*
G54D11*
X148186Y-176009D02*
X538392Y-176009D01*
G54D11*
X131925Y-192270D02*
X148186Y-176009D01*
G54D11*
X176643Y-180073D02*
X172578Y-184142D01*
G54D11*
X176643Y-186167D02*
X178668Y-184142D01*
G54D11*
X182734Y-188206D02*
X180708Y-190231D01*
G54D11*
X532289Y-188206D02*
X182734Y-188206D01*
G54D11*
X178668Y-184142D02*
X534328Y-184142D01*
G54D11*
X536353Y-180073D02*
X176643Y-180073D01*
G54D10*
X1131817Y-119096D02*
X1178558Y-165839D01*
G54D11*
X1139948Y-106914D02*
X1184652Y-151618D01*
G54D11*
X1182623Y-155682D02*
X1137908Y-110978D01*
G54D11*
X1186692Y-147554D02*
X1141972Y-102850D01*
G54D11*
X1144012Y-98783D02*
X1188716Y-143487D01*
G54D10*
X1178558Y-165839D02*
X1294398Y-165839D01*
G54D11*
X1184652Y-151618D02*
X1290334Y-151618D01*
G54D11*
X1292373Y-155682D02*
X1182623Y-155682D01*
G54D11*
X1288304Y-147554D02*
X1186692Y-147554D01*
G54D11*
X1188716Y-143487D02*
X1286265Y-143487D01*
G54D10*
X1375688Y-117071D02*
X1412274Y-153657D01*
G54D10*
X1343178Y-117071D02*
X1375688Y-117071D01*
G54D10*
X1294398Y-165839D02*
X1343178Y-117071D01*
G54D11*
X1385858Y-96744D02*
X1422432Y-133330D01*
G54D11*
X1333008Y-96744D02*
X1385858Y-96744D01*
G54D11*
X1286265Y-143487D02*
X1333008Y-96744D01*
G54D11*
X1337077Y-104877D02*
X1381792Y-104877D01*
G54D11*
X1290334Y-151618D02*
X1337077Y-104877D01*
G54D11*
X1416338Y-145527D02*
X1379752Y-108941D01*
G54D11*
X1379752Y-108941D02*
X1339114Y-108941D01*
G54D11*
X1339114Y-108941D02*
X1292373Y-155682D01*
G54D11*
X1381792Y-104877D02*
X1418368Y-141463D01*
G54D11*
X1420407Y-137399D02*
X1383818Y-100813D01*
G54D11*
X1383818Y-100813D02*
X1335048Y-100813D01*
G54D11*
X1335048Y-100813D02*
X1288304Y-147554D01*
G54D11*
X1343178Y-592633D02*
X1355360Y-604815D01*
G54D11*
X1351296Y-625137D02*
X1333008Y-625137D01*
G54D11*
X1322853Y-608879D02*
X1333008Y-598721D01*
X1333011Y-598722D02*
G54D15*
D03*
X1280175Y-588560D02*
G54D16*
D03*
G54D11*
X1359429Y-594657D02*
X1349272Y-584502D01*
G54D11*
X1298462Y-580438D02*
X1308617Y-590591D01*
G54D11*
X1343178Y-568241D02*
X1343178Y-592633D01*
G54D11*
X1282201Y-590591D02*
X1280176Y-588566D01*
X1333011Y-572306D02*
G54D15*
D03*
G54D11*
X1322853Y-564175D02*
X1339114Y-564175D01*
G54D11*
X1314725Y-572305D02*
X1322853Y-564175D01*
G54D11*
X1322853Y-558071D02*
X1312686Y-568241D01*
G54D11*
X1339114Y-558071D02*
X1322853Y-558071D01*
G54D11*
X1349272Y-568241D02*
X1339114Y-558071D01*
G54D11*
X1349272Y-584502D02*
X1349272Y-568241D01*
G54D11*
X1316750Y-588566D02*
X1333008Y-572305D01*
G54D11*
X1339114Y-564175D02*
X1343178Y-568241D01*
G54D11*
X1312686Y-588566D02*
X1300489Y-576369D01*
G54D21*
X119220Y-296423D02*
X129390Y-286253D01*
G54D11*
X156317Y-257300D02*
X129900Y-257300D01*
G54D10*
X134475Y-291336D02*
X129390Y-286253D01*
G54D10*
X129390Y-286253D02*
X134475Y-281180D01*
G54D10*
X134475Y-281180D02*
X160382Y-281180D01*
X160382Y-281182D02*
G54D15*
D03*
G54D11*
X180708Y-232910D02*
X156317Y-257300D01*
X129900Y-257300D02*
G54D16*
D03*
G54D11*
X129900Y-245105D02*
X162408Y-245105D01*
G54D11*
X162408Y-245105D02*
X176643Y-230884D01*
G54D11*
X172578Y-228841D02*
X168512Y-232910D01*
G54D11*
X168512Y-232910D02*
X121769Y-232910D01*
G54D11*
X121769Y-232910D02*
X119730Y-234948D01*
G54D10*
X340244Y-240530D02*
X340244Y-203446D01*
X340237Y-240529D02*
G54D14*
D03*
X129900Y-245105D02*
G54D16*
D03*
X119737Y-234941D02*
G54D14*
D03*
X1112010Y-138137D02*
G54D22*
D03*
X670228Y-557796D02*
G54D23*
D03*
G36*
X101232Y-1306257D02*
X201232Y-1306257D01*
X201232Y-1406257D01*
X101232Y-1406257D01*
X101232Y-1306257D01*
G37*
G36*
X1555592Y-241089D02*
X1655592Y-241089D01*
X1655592Y-341089D01*
X1555592Y-341089D01*
X1555592Y-241089D01*
G37*
G36*
X2726193Y-1306257D02*
X2826193Y-1306257D01*
X2826193Y-1406257D01*
X2726193Y-1406257D01*
X2726193Y-1306257D01*
G37*
M02*
