%FSLAX34Y34*%
%MOMM*%
%LNOUTLINE*%
G71*
G01*
%ADD10C,0.150*%
%LPD*%
G54D10*
X2268537Y-85997D02*
X1645852Y-85997D01*
G54D10*
X2294742Y-85600D02*
X2826940Y-85997D01*
G54D10*
X2271712Y-89172D02*
X2271712Y-181247D01*
G54D10*
X2291567Y-88775D02*
X2291556Y-181247D01*
G54D10*
G75*
G01X2271712Y-89172D02*
G03X2268537Y-85997I-3175J0D01*
G01*
G54D10*
G75*
G01X2271734Y-181247D02*
G03X2291534Y-181247I9900J0D01*
G01*
G54D10*
G75*
G01X2294742Y-85600D02*
G03X2291567Y-88775I0J-3175D01*
G01*
G54D10*
G75*
G01X2830115Y-89172D02*
G03X2826940Y-85997I-3175J0D01*
G01*
G54D10*
G75*
G01X1645852Y-85997D02*
G03X1642677Y-89172I0J-3175D01*
G01*
G54D10*
X2830115Y-89172D02*
X2830115Y-225697D01*
X2833290Y-235222D01*
X2833290Y-1553630D01*
G54D10*
G75*
G01X1549400Y-89172D02*
G03X1546225Y-85997I-3175J0D01*
G01*
G54D10*
X1546225Y-85997D02*
X102405Y-85997D01*
G54D10*
G75*
G01X102405Y-85997D02*
G03X99230Y-89172I0J-3175D01*
G01*
G54D10*
G75*
G01X99230Y-1553630D02*
G03X102405Y-1556805I3175J0D01*
G01*
G54D10*
G75*
G01X2830115Y-1556805D02*
G03X2833290Y-1553630I0J3175D01*
G01*
G54D10*
X2830115Y-1556805D02*
X102405Y-1556805D01*
G54D10*
X1642677Y-89172D02*
X1642677Y-216172D01*
G54D10*
G75*
G01X1623627Y-235222D02*
G03X1642677Y-216172I0J19050D01*
G01*
G54D10*
G75*
G01X1549422Y-216172D02*
G03X1568472Y-235222I19050J0D01*
G01*
G54D10*
X1549400Y-89172D02*
X1549400Y-216150D01*
X1549422Y-216172D01*
G54D10*
X1568472Y-235222D02*
X1623627Y-235222D01*
G54D10*
X99230Y-89172D02*
X99230Y-1553630D01*
G54D10*
G75*
G01X132435Y-1492282D02*
G03X132435Y-1519282I0J-13500D01*
G01*
G54D10*
G75*
G01X172067Y-1519282D02*
G03X172067Y-1492282I0J13500D01*
G01*
G54D10*
X132435Y-1492282D02*
X172067Y-1492282D01*
G54D10*
X132435Y-1519282D02*
X172067Y-1519282D01*
M02*
