%FSLAX34Y34*%
%MOMM*%
%LNSOLDERMASK_BOTTOM*%
G71*
G01*
%ADD10C,2.221*%
%ADD11C,2.219*%
%ADD12R,2.105X2.613*%
%ADD13R,2.106X2.613*%
%ADD14R,2.106X2.613*%
%ADD15R,2.486X2.106*%
%ADD16C,1.355*%
%ADD17C,1.766*%
%ADD18C,1.356*%
%ADD19R,2.106X2.614*%
%ADD20R,2.105X2.613*%
%ADD21R,2.104X2.614*%
%ADD22R,2.106X2.613*%
%ADD23C,1.355*%
%ADD24C,3.298*%
%ADD25C,1.766*%
%ADD26C,1.355*%
%ADD27C,1.766*%
%ADD28C,1.357*%
%ADD29R,2.104X2.613*%
%ADD30R,2.106X2.614*%
%ADD31R,2.106X2.613*%
%ADD32C,1.354*%
%ADD33C,1.357*%
%ADD34R,2.108X2.613*%
%ADD35R,2.105X2.613*%
%ADD36R,2.105X2.614*%
%ADD37R,2.106X2.614*%
%ADD38R,2.106X2.615*%
%ADD39R,2.104X2.613*%
%ADD40R,2.487X2.106*%
%ADD41R,2.106X2.614*%
%ADD42R,2.106X2.615*%
%ADD43C,1.356*%
%ADD44R,2.104X2.615*%
%ADD45R,2.106X2.615*%
%ADD46R,2.106X2.614*%
%ADD47R,2.106X2.613*%
%ADD48C,1.938*%
%ADD49C,2.760*%
%ADD50R,2.106X2.613*%
%ADD51R,2.105X2.614*%
%ADD52R,2.106X2.613*%
%ADD53C,0.403*%
%ADD54R,1.572X1.573*%
%ADD55R,2.106X2.614*%
%ADD56C,1.767*%
%ADD57R,2.486X2.104*%
%ADD58R,2.486X2.105*%
%ADD59C,1.765*%
%ADD60R,2.106X2.614*%
%ADD61R,2.486X2.106*%
%ADD62C,2.758*%
%ADD63C,2.759*%
%ADD64C,2.543*%
%ADD65C,2.543*%
%ADD66C,2.219*%
%ADD67C,1.939*%
%ADD68R,2.105X2.614*%
%ADD69R,2.105X2.615*%
%ADD70R,2.106X2.613*%
%ADD71R,2.105X2.613*%
%ADD72C,1.940*%
%ADD73C,1.767*%
%ADD74R,2.742X4.012*%
%ADD75C,1.767*%
%ADD76R,4.010X2.740*%
%ADD77R,2.106X2.613*%
%ADD78R,2.486X2.106*%
%ADD79R,2.104X2.106*%
%ADD80C,4.919*%
%ADD81R,2.740X4.012*%
%ADD82R,2.486X2.106*%
%ADD83R,2.108X2.614*%
%ADD84R,2.104X2.613*%
%ADD85R,2.103X2.613*%
%ADD86R,2.486X2.106*%
%ADD87R,2.486X2.106*%
%ADD88R,2.106X2.614*%
%ADD89R,1.572X1.571*%
%ADD90R,2.487X2.105*%
%ADD91C,3.300*%
%ADD92C,3.300*%
%ADD93R,2.105X2.614*%
%ADD94R,2.105X2.613*%
%ADD95R,2.104X2.614*%
%ADD96R,2.105X2.615*%
%ADD97C,2.220*%
%ADD98R,2.105X2.104*%
%ADD99R,2.105X2.613*%
%ADD100R,2.486X2.106*%
%ADD101R,2.486X2.104*%
%ADD102C,1.938*%
%ADD103R,2.105X2.614*%
%ADD104R,2.487X2.106*%
%ADD105R,2.486X2.105*%
%ADD106R,2.486X2.105*%
%ADD107R,2.106X2.613*%
%ADD108R,2.106X2.613*%
%ADD109R,2.487X2.105*%
%ADD110R,2.487X2.104*%
%ADD111R,2.106X2.615*%
%ADD112R,1.571X1.573*%
%ADD113R,2.105X2.615*%
%ADD114R,2.105X2.614*%
%ADD115C,1.356*%
%ADD116R,2.487X2.106*%
%ADD117R,1.571X1.573*%
%ADD118R,2.105X2.613*%
%ADD119R,2.487X2.106*%
%ADD120R,2.486X2.106*%
%ADD121R,2.741X4.012*%
%ADD122R,4.012X2.740*%
%ADD123R,2.486X2.106*%
%ADD124R,2.488X2.106*%
%ADD125R,2.488X2.104*%
%ADD126R,2.486X2.105*%
%ADD127R,2.106X2.613*%
%ADD128R,1.725X1.724*%
%ADD129R,2.108X2.613*%
%ADD130C,1.721*%
%ADD131C,1.398*%
%ADD132C,1.089*%
%LPD*%
X206615Y-493806D02*
G54D10*
D03*
X178165Y-507524D02*
G54D11*
D03*
X353443Y-506514D02*
G54D12*
D03*
X324995Y-506514D02*
G54D13*
D03*
X296544Y-506514D02*
G54D12*
D03*
X241672Y-506514D02*
G54D12*
D03*
X268088Y-506514D02*
G54D12*
D03*
X503836Y-419114D02*
G54D14*
D03*
X942301Y-599488D02*
G54D15*
D03*
X1544375Y-720658D02*
G54D16*
D03*
X406292Y-784166D02*
G54D17*
D03*
X477420Y-782398D02*
G54D14*
D03*
X320928Y-877150D02*
G54D18*
D03*
X300603Y-879939D02*
G54D19*
D03*
X339221Y-869774D02*
G54D20*
D03*
X586650Y-674171D02*
G54D21*
D03*
X665405Y-750887D02*
G54D17*
D03*
X438807Y-1099428D02*
G54D22*
D03*
X469287Y-1099428D02*
G54D22*
D03*
X294512Y-1141346D02*
G54D18*
D03*
X312800Y-1133977D02*
G54D14*
D03*
X343288Y-1133977D02*
G54D20*
D03*
X1609404Y-1116954D02*
G54D23*
D03*
X652195Y-1177927D02*
G54D18*
D03*
X534319Y-954374D02*
G54D18*
D03*
X546513Y-954374D02*
G54D18*
D03*
X152252Y-212590D02*
G54D24*
D03*
X1744545Y-281431D02*
G54D25*
D03*
X1987412Y-218686D02*
G54D16*
D03*
X1983168Y-196151D02*
G54D23*
D03*
X2048377Y-196329D02*
G54D16*
D03*
X2118491Y-199885D02*
G54D26*
D03*
X2184541Y-258320D02*
G54D27*
D03*
X2188605Y-210558D02*
G54D26*
D03*
X2546288Y-474756D02*
G54D23*
D03*
X2550355Y-419884D02*
G54D26*
D03*
X2550355Y-407685D02*
G54D26*
D03*
X2550355Y-395495D02*
G54D26*
D03*
X2546288Y-200393D02*
G54D23*
D03*
X2393862Y-263397D02*
G54D23*
D03*
X2442641Y-263397D02*
G54D28*
D03*
X2440606Y-214622D02*
G54D23*
D03*
X2487350Y-436143D02*
G54D26*
D03*
X2296312Y-440207D02*
G54D26*
D03*
X1837021Y-830406D02*
G54D28*
D03*
X1676473Y-828372D02*
G54D16*
D03*
X1658177Y-828372D02*
G54D18*
D03*
X241672Y-303278D02*
G54D20*
D03*
X241672Y-337316D02*
G54D29*
D03*
X314832Y-472724D02*
G54D26*
D03*
X314832Y-460527D02*
G54D26*
D03*
X426356Y-593636D02*
G54D25*
D03*
X485040Y-597956D02*
G54D14*
D03*
X459635Y-597956D02*
G54D20*
D03*
X1546399Y-584496D02*
G54D16*
D03*
X1551987Y-487710D02*
G54D30*
D03*
X1551987Y-521754D02*
G54D31*
D03*
X2135763Y-519465D02*
G54D18*
D03*
X2273962Y-517433D02*
G54D23*
D03*
X2507678Y-588560D02*
G54D23*
D03*
X2320706Y-590592D02*
G54D23*
D03*
X2290223Y-590592D02*
G54D26*
D03*
X2304442Y-590592D02*
G54D16*
D03*
X2747492Y-793828D02*
G54D32*
D03*
X2735287Y-797892D02*
G54D33*
D03*
X2643834Y-787730D02*
G54D34*
D03*
X2613354Y-787730D02*
G54D34*
D03*
X2355024Y-669622D02*
G54D33*
D03*
X1562150Y-624882D02*
G54D35*
D03*
X1562150Y-658931D02*
G54D36*
D03*
X1558594Y-703638D02*
G54D35*
D03*
X1560628Y-682048D02*
G54D18*
D03*
X802581Y-687379D02*
G54D22*
D03*
X802581Y-721423D02*
G54D37*
D03*
X800046Y-628446D02*
G54D38*
D03*
X500283Y-634291D02*
G54D28*
D03*
X520600Y-645210D02*
G54D39*
D03*
X1656145Y-745810D02*
G54D40*
D03*
X2026025Y-942179D02*
G54D16*
D03*
X343288Y-1099936D02*
G54D20*
D03*
X178165Y-852512D02*
G54D11*
D03*
X239638Y-843866D02*
G54D31*
D03*
X857455Y-1114165D02*
G54D41*
D03*
X857455Y-1148201D02*
G54D42*
D03*
X940777Y-1200279D02*
G54D16*
D03*
X914104Y-1202314D02*
G54D18*
D03*
X1351302Y-1102735D02*
G54D18*
D03*
X1536242Y-1320190D02*
G54D26*
D03*
X1511858Y-1312816D02*
G54D15*
D03*
X2344587Y-1165222D02*
G54D25*
D03*
X2631640Y-1259217D02*
G54D32*
D03*
X1694761Y-1058024D02*
G54D16*
D03*
X1576887Y-1210442D02*
G54D43*
D03*
X1615500Y-1208410D02*
G54D28*
D03*
X1341140Y-1062850D02*
G54D44*
D03*
X1312692Y-1062850D02*
G54D45*
D03*
X859487Y-1468541D02*
G54D26*
D03*
X873716Y-1485569D02*
G54D14*
D03*
X873716Y-1451523D02*
G54D46*
D03*
X873716Y-1331107D02*
G54D46*
D03*
X873716Y-1297066D02*
G54D14*
D03*
X885903Y-1224668D02*
G54D23*
D03*
X898100Y-1368966D02*
G54D26*
D03*
X885903Y-1273446D02*
G54D23*
D03*
X780229Y-1382420D02*
G54D47*
D03*
X747706Y-1382420D02*
G54D47*
D03*
X499772Y-1234833D02*
G54D43*
D03*
X475388Y-1297066D02*
G54D39*
D03*
X383933Y-1419011D02*
G54D14*
D03*
X351411Y-1419011D02*
G54D31*
D03*
X320928Y-1419011D02*
G54D31*
D03*
X2241445Y-1239654D02*
G54D22*
D03*
X2359319Y-1405544D02*
G54D16*
D03*
X2359319Y-1381152D02*
G54D16*
D03*
X2705328Y-1393852D02*
G54D25*
D03*
X592236Y-186423D02*
G54D48*
D03*
X594270Y-395495D02*
G54D26*
D03*
X601126Y-123349D02*
G54D49*
D03*
X546005Y-333763D02*
G54D50*
D03*
X448962Y-419884D02*
G54D28*
D03*
X340235Y-571540D02*
G54D31*
D03*
X337189Y-743018D02*
G54D18*
D03*
X351418Y-665794D02*
G54D26*
D03*
X353445Y-740986D02*
G54D26*
D03*
X339221Y-766642D02*
G54D20*
D03*
X339221Y-721423D02*
G54D51*
D03*
X339221Y-687379D02*
G54D20*
D03*
X339221Y-800684D02*
G54D20*
D03*
X339221Y-835738D02*
G54D20*
D03*
X357509Y-757240D02*
G54D26*
D03*
X357509Y-777564D02*
G54D26*
D03*
X357509Y-793828D02*
G54D26*
D03*
X477420Y-681288D02*
G54D52*
D03*
X450996Y-681288D02*
G54D29*
D03*
X406292Y-682556D02*
G54D17*
D03*
X2344587Y-1063606D02*
G54D25*
D03*
X2771876Y-1267348D02*
G54D32*
D03*
X2643834Y-1127119D02*
G54D32*
D03*
X2316639Y-1253118D02*
G54D26*
D03*
X2497010Y-1241440D02*
G54D25*
D03*
X2552890Y-1241440D02*
G54D25*
D03*
G54D53*
X2790430Y-1445928D02*
X2790430Y-1463715D01*
X2800324Y-1282080D02*
G54D25*
D03*
X2674314Y-1446189D02*
G54D32*
D03*
X2668231Y-1505127D02*
G54D33*
D03*
X2656039Y-1509194D02*
G54D33*
D03*
X2705328Y-1444660D02*
G54D25*
D03*
X2705328Y-1419262D02*
G54D25*
D03*
X2705315Y-1470072D02*
G54D54*
D03*
X2603192Y-856825D02*
G54D32*
D03*
X2595064Y-821766D02*
G54D32*
D03*
X2613354Y-821768D02*
G54D34*
D03*
X2643834Y-821768D02*
G54D34*
D03*
X2690583Y-830406D02*
G54D33*
D03*
X2688551Y-909665D02*
G54D33*
D03*
X2586926Y-1470576D02*
G54D33*
D03*
X2597098Y-1444157D02*
G54D32*
D03*
X2613354Y-1393350D02*
G54D32*
D03*
X2615384Y-1452288D02*
G54D32*
D03*
X2633687Y-1429930D02*
G54D33*
D03*
X2633687Y-1460413D02*
G54D33*
D03*
X2530027Y-417847D02*
G54D26*
D03*
X2381668Y-1458386D02*
G54D26*
D03*
X2379641Y-1525447D02*
G54D23*
D03*
X2401996Y-1523415D02*
G54D23*
D03*
X2298346Y-1515284D02*
G54D18*
D03*
X2292248Y-1468541D02*
G54D26*
D03*
X2288191Y-1456352D02*
G54D18*
D03*
X2286159Y-1521383D02*
G54D23*
D03*
X2298346Y-1175895D02*
G54D18*
D03*
X2300378Y-1291732D02*
G54D26*
D03*
X2296822Y-1232801D02*
G54D16*
D03*
X2267864Y-1468541D02*
G54D28*
D03*
X2247546Y-1523415D02*
G54D16*
D03*
X2249570Y-1472608D02*
G54D16*
D03*
X2195207Y-1375564D02*
G54D16*
D03*
X2164221Y-1056748D02*
G54D50*
D03*
X2164221Y-1130421D02*
G54D50*
D03*
X2164221Y-1164462D02*
G54D55*
D03*
X2166756Y-1437040D02*
G54D43*
D03*
X2133731Y-1017371D02*
G54D23*
D03*
X2133731Y-1001118D02*
G54D23*
D03*
X2117473Y-1249054D02*
G54D16*
D03*
X2119512Y-1198252D02*
G54D16*
D03*
X2121539Y-1102735D02*
G54D23*
D03*
X2123571Y-1143378D02*
G54D18*
D03*
X2119512Y-1496999D02*
G54D16*
D03*
X2119512Y-1348640D02*
G54D16*
D03*
X2119512Y-1391318D02*
G54D16*
D03*
X2091057Y-1249054D02*
G54D16*
D03*
X2078860Y-1074280D02*
G54D23*
D03*
X2082924Y-1062088D02*
G54D26*
D03*
X2084956Y-964539D02*
G54D28*
D03*
X2086988Y-1049890D02*
G54D23*
D03*
X2198770Y-444273D02*
G54D33*
D03*
X2208925Y-452396D02*
G54D28*
D03*
X2320706Y-452396D02*
G54D23*
D03*
X2308508Y-452396D02*
G54D23*
D03*
X2296312Y-452396D02*
G54D26*
D03*
X2278026Y-450364D02*
G54D16*
D03*
X2091057Y-452396D02*
G54D16*
D03*
X2064636Y-1397414D02*
G54D23*
D03*
X2017894Y-1409608D02*
G54D26*
D03*
X2040757Y-1492932D02*
G54D25*
D03*
X2015352Y-1492932D02*
G54D56*
D03*
X1989947Y-1492932D02*
G54D17*
D03*
X1964549Y-1492932D02*
G54D27*
D03*
X1939139Y-1492932D02*
G54D25*
D03*
X2048374Y-548682D02*
G54D20*
D03*
X2129667Y-554014D02*
G54D26*
D03*
X1995535Y-1356768D02*
G54D18*
D03*
X1991471Y-1391318D02*
G54D33*
D03*
X1913744Y-1492932D02*
G54D25*
D03*
X1914245Y-1385219D02*
G54D43*
D03*
X1914245Y-1352704D02*
G54D43*
D03*
X1891893Y-1257185D02*
G54D43*
D03*
X1902048Y-1265316D02*
G54D18*
D03*
X1895952Y-1133218D02*
G54D26*
D03*
X1895952Y-1151511D02*
G54D26*
D03*
X1918311Y-1240932D02*
G54D28*
D03*
X1772998Y-629206D02*
G54D57*
D03*
X1772998Y-595170D02*
G54D58*
D03*
X1862934Y-1492932D02*
G54D17*
D03*
X1857338Y-1377088D02*
G54D16*
D03*
X1857338Y-1391318D02*
G54D16*
D03*
X1804504Y-1265316D02*
G54D16*
D03*
X1816694Y-1265316D02*
G54D28*
D03*
X1826856Y-1244988D02*
G54D16*
D03*
X1828888Y-1265316D02*
G54D28*
D03*
X1828888Y-1114925D02*
G54D28*
D03*
X1828888Y-1098669D02*
G54D28*
D03*
X1826856Y-1196215D02*
G54D16*
D03*
X1824824Y-1210442D02*
G54D28*
D03*
X1802472Y-1218572D02*
G54D28*
D03*
X1682561Y-557568D02*
G54D39*
D03*
X1845652Y-505236D02*
G54D25*
D03*
X1855312Y-523529D02*
G54D23*
D03*
X1863437Y-539785D02*
G54D28*
D03*
X1812124Y-1492932D02*
G54D25*
D03*
X1837524Y-1492932D02*
G54D59*
D03*
X1790278Y-1395382D02*
G54D28*
D03*
X1743534Y-1227462D02*
G54D50*
D03*
X1719150Y-1265316D02*
G54D26*
D03*
X1731339Y-1281577D02*
G54D28*
D03*
X1743534Y-1265316D02*
G54D28*
D03*
X1755728Y-1281577D02*
G54D28*
D03*
X1633793Y-1488868D02*
G54D23*
D03*
X1654113Y-1488868D02*
G54D18*
D03*
X1682564Y-1281577D02*
G54D26*
D03*
X1660212Y-1385219D02*
G54D26*
D03*
X1662244Y-1399446D02*
G54D28*
D03*
X1643948Y-1295798D02*
G54D23*
D03*
X1648017Y-1342542D02*
G54D16*
D03*
X1528111Y-1521383D02*
G54D23*
D03*
X1499656Y-1521383D02*
G54D16*
D03*
X1534207Y-1501820D02*
G54D60*
D03*
X1534207Y-1467784D02*
G54D60*
D03*
X1499663Y-1467784D02*
G54D60*
D03*
X1499663Y-1501820D02*
G54D60*
D03*
X1560628Y-1488868D02*
G54D18*
D03*
X1601274Y-365008D02*
G54D16*
D03*
X1601274Y-352813D02*
G54D16*
D03*
X1534207Y-1404279D02*
G54D31*
D03*
X1499663Y-1404279D02*
G54D31*
D03*
X1499663Y-1370233D02*
G54D30*
D03*
X1534207Y-1370233D02*
G54D30*
D03*
X1550463Y-1348640D02*
G54D23*
D03*
X1511858Y-1278778D02*
G54D61*
D03*
X1532178Y-1223650D02*
G54D26*
D03*
X1536242Y-1287675D02*
G54D26*
D03*
X1536242Y-1305961D02*
G54D26*
D03*
X1576887Y-1267348D02*
G54D43*
D03*
X1597207Y-1293764D02*
G54D26*
D03*
X1607372Y-1267348D02*
G54D18*
D03*
X1625665Y-1295798D02*
G54D16*
D03*
X1599239Y-1226702D02*
G54D43*
D03*
X1534210Y-291337D02*
G54D28*
D03*
X1519983Y-354853D02*
G54D16*
D03*
X1542335Y-265429D02*
G54D16*
D03*
X1542335Y-279653D02*
G54D16*
D03*
X1552495Y-365008D02*
G54D18*
D03*
X1436402Y-240535D02*
G54D62*
D03*
X1484670Y-240535D02*
G54D63*
D03*
X1484670Y-316742D02*
G54D63*
D03*
X1491530Y-365008D02*
G54D18*
D03*
X1484670Y-278637D02*
G54D63*
D03*
X1485935Y-113509D02*
G54D49*
D03*
X1434627Y-1265316D02*
G54D23*
D03*
X1432595Y-1179962D02*
G54D18*
D03*
X1414299Y-1179962D02*
G54D16*
D03*
X1444789Y-1184026D02*
G54D43*
D03*
X1473240Y-1247020D02*
G54D16*
D03*
X1479336Y-1200279D02*
G54D18*
D03*
X1471205Y-1179962D02*
G54D43*
D03*
X1436402Y-316742D02*
G54D62*
D03*
X1436402Y-278637D02*
G54D62*
D03*
X1410235Y-1403512D02*
G54D26*
D03*
X1430560Y-1404279D02*
G54D35*
D03*
X1408208Y-1383187D02*
G54D26*
D03*
X1432595Y-1297830D02*
G54D18*
D03*
X1434627Y-1346606D02*
G54D23*
D03*
X1430560Y-1370233D02*
G54D36*
D03*
X1389915Y-1533578D02*
G54D18*
D03*
X1388902Y-997054D02*
G54D17*
D03*
X1389915Y-1090030D02*
G54D14*
D03*
X1389915Y-1055992D02*
G54D14*
D03*
X1398046Y-779596D02*
G54D18*
D03*
X1394972Y-1025910D02*
G54D28*
D03*
X1384706Y-1033536D02*
G54D28*
D03*
X1281691Y-224530D02*
G54D64*
D03*
X1256799Y-224784D02*
G54D11*
D03*
X1363491Y-997054D02*
G54D17*
D03*
X1363491Y-1102735D02*
G54D26*
D03*
X1363423Y-1089802D02*
G54D26*
D03*
X1357400Y-978758D02*
G54D26*
D03*
X1344703Y-199636D02*
G54D11*
D03*
X1281947Y-199885D02*
G54D11*
D03*
X1306837Y-199631D02*
G54D65*
D03*
X1256799Y-99796D02*
G54D11*
D03*
X1256799Y-124693D02*
G54D11*
D03*
X1370098Y-136123D02*
G54D66*
D03*
X1281691Y-99796D02*
G54D64*
D03*
X1398046Y-488975D02*
G54D18*
D03*
X1359432Y-1501063D02*
G54D28*
D03*
X1365531Y-1411642D02*
G54D26*
D03*
X1361467Y-1373030D02*
G54D16*
D03*
X1379752Y-603554D02*
G54D35*
D03*
X1328942Y-1336443D02*
G54D23*
D03*
X1328942Y-1108831D02*
G54D23*
D03*
X1361467Y-316234D02*
G54D16*
D03*
X1313194Y-398033D02*
G54D67*
D03*
X1363491Y-415815D02*
G54D26*
D03*
X1308622Y-1482770D02*
G54D18*
D03*
X1308622Y-1462450D02*
G54D18*
D03*
X1290329Y-1263284D02*
G54D16*
D03*
X1296428Y-1108831D02*
G54D18*
D03*
X1288300Y-1116954D02*
G54D28*
D03*
X1280174Y-1108831D02*
G54D26*
D03*
X1296428Y-816178D02*
G54D18*
D03*
X1292364Y-769434D02*
G54D18*
D03*
X1284233Y-1028804D02*
G54D14*
D03*
X1284233Y-1062850D02*
G54D38*
D03*
X1287286Y-997054D02*
G54D27*
D03*
X1292364Y-675949D02*
G54D18*
D03*
X1294396Y-643432D02*
G54D23*
D03*
X1294396Y-625139D02*
G54D23*
D03*
X1296428Y-714562D02*
G54D18*
D03*
X1296428Y-702373D02*
G54D18*
D03*
X1296428Y-690178D02*
G54D18*
D03*
X1280174Y-588560D02*
G54D26*
D03*
X1280680Y-550458D02*
G54D28*
D03*
X1265948Y-1460413D02*
G54D28*
D03*
X1255783Y-1373030D02*
G54D16*
D03*
X1253751Y-1244988D02*
G54D28*
D03*
X1261881Y-1263284D02*
G54D43*
D03*
X1790780Y-367553D02*
G54D17*
D03*
X1225300Y-761306D02*
G54D23*
D03*
X1227332Y-832438D02*
G54D18*
D03*
X1237490Y-897468D02*
G54D18*
D03*
X1227332Y-588560D02*
G54D18*
D03*
X1226672Y-479480D02*
G54D28*
D03*
X1226824Y-497870D02*
G54D22*
D03*
X1226824Y-531908D02*
G54D22*
D03*
X1196845Y-334525D02*
G54D36*
D03*
X1196845Y-300481D02*
G54D35*
D03*
X1155696Y-324362D02*
G54D26*
D03*
X1160776Y-296422D02*
G54D48*
D03*
X1160776Y-347225D02*
G54D48*
D03*
X1207007Y-224784D02*
G54D11*
D03*
X1182115Y-224530D02*
G54D65*
D03*
X1207007Y-901534D02*
G54D33*
D03*
X1207007Y-537753D02*
G54D33*
D03*
X1202940Y-588560D02*
G54D18*
D03*
X1196342Y-532676D02*
G54D18*
D03*
X1156964Y-199631D02*
G54D65*
D03*
X1182115Y-99796D02*
G54D65*
D03*
X1181861Y-199885D02*
G54D11*
D03*
X1207007Y-99796D02*
G54D11*
D03*
X1207007Y-124693D02*
G54D11*
D03*
X1150109Y-681537D02*
G54D15*
D03*
X1150109Y-647499D02*
G54D15*
D03*
X1150101Y-747842D02*
G54D68*
D03*
X1150101Y-713803D02*
G54D68*
D03*
X1086596Y-201660D02*
G54D11*
D03*
X1097266Y-258315D02*
G54D23*
D03*
X1125717Y-276351D02*
G54D15*
D03*
X1125717Y-242315D02*
G54D15*
D03*
X1123685Y-207256D02*
G54D20*
D03*
X1111998Y-138155D02*
G54D10*
D03*
X1123685Y-173215D02*
G54D69*
D03*
X942301Y-731586D02*
G54D15*
D03*
X891498Y-723201D02*
G54D23*
D03*
X1034767Y-225036D02*
G54D49*
D03*
X947384Y-469422D02*
G54D48*
D03*
X820366Y-690178D02*
G54D26*
D03*
X820366Y-662228D02*
G54D26*
D03*
X820366Y-636828D02*
G54D26*
D03*
X858466Y-657153D02*
G54D16*
D03*
X859487Y-680013D02*
G54D26*
D03*
X864828Y-113771D02*
G54D63*
D03*
X745426Y-508538D02*
G54D16*
D03*
X763211Y-491520D02*
G54D70*
D03*
X791151Y-491520D02*
G54D71*
D03*
X716213Y-395495D02*
G54D26*
D03*
X698938Y-345955D02*
G54D14*
D03*
X698938Y-379994D02*
G54D52*
D03*
X695888Y-260090D02*
G54D39*
D03*
X721291Y-357388D02*
G54D18*
D03*
X721291Y-377713D02*
G54D18*
D03*
X665405Y-659947D02*
G54D17*
D03*
X665405Y-621583D02*
G54D17*
D03*
X665405Y-604057D02*
G54D17*
D03*
X665405Y-733366D02*
G54D72*
D03*
X665405Y-639114D02*
G54D72*
D03*
X665405Y-677478D02*
G54D17*
D03*
X665405Y-695007D02*
G54D17*
D03*
X665405Y-715827D02*
G54D17*
D03*
X663371Y-871049D02*
G54D73*
D03*
G36*
X678913Y-861186D02*
X698639Y-861186D01*
X698639Y-880912D01*
X678913Y-880912D01*
X678913Y-861186D01*
G37*
X694874Y-757240D02*
G54D28*
D03*
X652698Y-519976D02*
G54D72*
D03*
X670229Y-532930D02*
G54D67*
D03*
X670229Y-557822D02*
G54D27*
D03*
X652698Y-557822D02*
G54D25*
D03*
X667940Y-443763D02*
G54D23*
D03*
X640000Y-604057D02*
G54D73*
D03*
X609518Y-563920D02*
G54D14*
D03*
X609518Y-597956D02*
G54D14*
D03*
X631870Y-787730D02*
G54D33*
D03*
X587158Y-871049D02*
G54D25*
D03*
X556168Y-750384D02*
G54D39*
D03*
X518065Y-777564D02*
G54D26*
D03*
X469033Y-152130D02*
G54D74*
D03*
X500283Y-248150D02*
G54D28*
D03*
X533808Y-131348D02*
G54D49*
D03*
X522129Y-214622D02*
G54D23*
D03*
X546005Y-233674D02*
G54D50*
D03*
X492150Y-302005D02*
G54D75*
D03*
X522129Y-249171D02*
G54D23*
D03*
X430676Y-151620D02*
G54D43*
D03*
X401207Y-245615D02*
G54D26*
D03*
X431433Y-112239D02*
G54D76*
D03*
X434735Y-304045D02*
G54D26*
D03*
X466744Y-302005D02*
G54D25*
D03*
X324995Y-304045D02*
G54D28*
D03*
X340235Y-240530D02*
G54D18*
D03*
X351418Y-289813D02*
G54D26*
D03*
X339224Y-332493D02*
G54D26*
D03*
X339224Y-348754D02*
G54D26*
D03*
X380880Y-644446D02*
G54D25*
D03*
X350400Y-646988D02*
G54D26*
D03*
X380880Y-619051D02*
G54D25*
D03*
X340235Y-605578D02*
G54D77*
D03*
X380880Y-593636D02*
G54D25*
D03*
X358020Y-588560D02*
G54D26*
D03*
X357509Y-600755D02*
G54D26*
D03*
X320928Y-598723D02*
G54D18*
D03*
X298576Y-584496D02*
G54D18*
D03*
X244718Y-999086D02*
G54D25*
D03*
X239638Y-949040D02*
G54D31*
D03*
X239638Y-877907D02*
G54D31*
D03*
X239638Y-914999D02*
G54D46*
D03*
X239640Y-1026776D02*
G54D78*
D03*
X225411Y-519465D02*
G54D26*
D03*
X223379Y-556046D02*
G54D18*
D03*
X239638Y-1133977D02*
G54D31*
D03*
X239638Y-1099936D02*
G54D31*
D03*
X237606Y-1173098D02*
G54D20*
D03*
X237606Y-1207142D02*
G54D69*
D03*
X235574Y-1228734D02*
G54D18*
D03*
X203059Y-1509194D02*
G54D26*
D03*
X231004Y-1490390D02*
G54D25*
D03*
X239638Y-1525447D02*
G54D18*
D03*
X241672Y-439445D02*
G54D20*
D03*
X241672Y-404383D02*
G54D20*
D03*
X241672Y-473481D02*
G54D20*
D03*
X206615Y-755716D02*
G54D79*
D03*
X268088Y-370347D02*
G54D20*
D03*
X383933Y-360187D02*
G54D38*
D03*
X296544Y-370347D02*
G54D20*
D03*
X339224Y-373141D02*
G54D26*
D03*
X319917Y-654608D02*
G54D26*
D03*
X297047Y-653597D02*
G54D18*
D03*
X168513Y-1007216D02*
G54D26*
D03*
X182734Y-1040744D02*
G54D26*
D03*
X241672Y-370347D02*
G54D20*
D03*
X554644Y-423179D02*
G54D31*
D03*
X622218Y-338846D02*
G54D29*
D03*
X622218Y-304802D02*
G54D21*
D03*
X622218Y-267710D02*
G54D39*
D03*
X604433Y-243072D02*
G54D18*
D03*
X603930Y-356877D02*
G54D16*
D03*
X622218Y-233674D02*
G54D39*
D03*
X614087Y-161015D02*
G54D67*
D03*
X610018Y-186423D02*
G54D72*
D03*
X1521505Y-233674D02*
G54D14*
D03*
X1521505Y-267710D02*
G54D14*
D03*
X731453Y-286262D02*
G54D26*
D03*
G54D53*
X2782810Y-251967D02*
X2782810Y-269742D01*
X2784055Y-202430D02*
G54D33*
D03*
X2784055Y-187185D02*
G54D33*
D03*
X1723214Y-352813D02*
G54D16*
D03*
X1733369Y-322330D02*
G54D16*
D03*
X1735403Y-358909D02*
G54D28*
D03*
X1733369Y-208523D02*
G54D16*
D03*
X1729127Y-190233D02*
G54D26*
D03*
X1735403Y-226811D02*
G54D28*
D03*
X748976Y-225036D02*
G54D63*
D03*
X840691Y-198107D02*
G54D35*
D03*
X876253Y-203192D02*
G54D14*
D03*
X812743Y-199885D02*
G54D16*
D03*
X871448Y-345475D02*
G54D80*
D03*
X825197Y-293882D02*
G54D48*
D03*
X850602Y-293882D02*
G54D72*
D03*
X393841Y-152130D02*
G54D81*
D03*
X1314723Y-324362D02*
G54D16*
D03*
X1336062Y-240530D02*
G54D28*
D03*
X1313194Y-296422D02*
G54D67*
D03*
X1313194Y-347225D02*
G54D67*
D03*
X1666308Y-297946D02*
G54D18*
D03*
X2721076Y-275587D02*
G54D32*
D03*
G54D53*
X2800590Y-251967D02*
X2782810Y-251967D01*
X215757Y-258315D02*
G54D18*
D03*
X160382Y-281182D02*
G54D16*
D03*
X119737Y-234942D02*
G54D18*
D03*
X129900Y-257301D02*
G54D26*
D03*
X129900Y-245107D02*
G54D26*
D03*
X1056614Y-377713D02*
G54D16*
D03*
X1049001Y-326651D02*
G54D49*
D03*
X2221122Y-336557D02*
G54D33*
D03*
X2233317Y-336557D02*
G54D28*
D03*
X2245512Y-336557D02*
G54D28*
D03*
X2267864Y-358909D02*
G54D28*
D03*
X2312575Y-358909D02*
G54D26*
D03*
X1231909Y-124693D02*
G54D49*
D03*
G54D53*
X2782810Y-269742D02*
X2800590Y-269742D01*
X193400Y-341129D02*
G54D80*
D03*
X774384Y-293882D02*
G54D48*
D03*
X799789Y-293882D02*
G54D72*
D03*
X206615Y-438424D02*
G54D10*
D03*
X178165Y-424713D02*
G54D11*
D03*
X206615Y-410738D02*
G54D79*
D03*
X1074401Y-497870D02*
G54D31*
D03*
X1074401Y-531908D02*
G54D31*
D03*
X1072875Y-554014D02*
G54D23*
D03*
X1981316Y-395495D02*
G54D18*
D03*
X2026025Y-395495D02*
G54D16*
D03*
X2003668Y-386603D02*
G54D38*
D03*
X1422430Y-409719D02*
G54D23*
D03*
X1420400Y-476788D02*
G54D18*
D03*
X1446821Y-408706D02*
G54D17*
D03*
X1446821Y-459513D02*
G54D17*
D03*
X1446821Y-476788D02*
G54D26*
D03*
X1473240Y-458495D02*
G54D16*
D03*
X947386Y-580940D02*
G54D28*
D03*
X947386Y-565700D02*
G54D28*
D03*
X947386Y-553000D02*
G54D28*
D03*
X947386Y-527596D02*
G54D28*
D03*
X947386Y-494570D02*
G54D28*
D03*
X2532062Y-474756D02*
G54D18*
D03*
X2530027Y-438175D02*
G54D26*
D03*
X727643Y-561888D02*
G54D28*
D03*
X730186Y-493298D02*
G54D16*
D03*
X881336Y-601268D02*
G54D43*
D03*
X855933Y-567476D02*
G54D39*
D03*
X840691Y-596180D02*
G54D26*
D03*
X855933Y-533438D02*
G54D39*
D03*
X206615Y-466120D02*
G54D10*
D03*
X178165Y-452399D02*
G54D11*
D03*
X178165Y-479834D02*
G54D11*
D03*
X2641815Y-478820D02*
G54D33*
D03*
X2566606Y-476277D02*
G54D82*
D03*
X2598622Y-476023D02*
G54D83*
D03*
X564806Y-635304D02*
G54D16*
D03*
X586650Y-640128D02*
G54D84*
D03*
X581570Y-563920D02*
G54D31*
D03*
X581570Y-597956D02*
G54D31*
D03*
X921981Y-469422D02*
G54D72*
D03*
X593257Y-497108D02*
G54D18*
D03*
X591735Y-453920D02*
G54D26*
D03*
X579028Y-464083D02*
G54D16*
D03*
X591735Y-479330D02*
G54D26*
D03*
X193400Y-591103D02*
G54D80*
D03*
X556168Y-716346D02*
G54D39*
D03*
X558710Y-604822D02*
G54D43*
D03*
X1638360Y-593132D02*
G54D18*
D03*
X2588970Y-612444D02*
G54D85*
D03*
X2666186Y-604822D02*
G54D32*
D03*
X2674314Y-594656D02*
G54D32*
D03*
X1845652Y-657661D02*
G54D25*
D03*
X1796376Y-604822D02*
G54D23*
D03*
X1796376Y-590592D02*
G54D23*
D03*
X1906114Y-638611D02*
G54D31*
D03*
X1192780Y-1525447D02*
G54D26*
D03*
X1192780Y-1417734D02*
G54D26*
D03*
X1243588Y-588560D02*
G54D26*
D03*
X530763Y-531908D02*
G54D14*
D03*
X505358Y-525056D02*
G54D67*
D03*
X213214Y-637336D02*
G54D26*
D03*
X891498Y-697798D02*
G54D23*
D03*
X892001Y-633272D02*
G54D28*
D03*
X892768Y-620318D02*
G54D26*
D03*
X942301Y-665535D02*
G54D86*
D03*
X942301Y-699576D02*
G54D87*
D03*
X942301Y-633526D02*
G54D61*
D03*
X1688660Y-661725D02*
G54D28*
D03*
X1906114Y-672647D02*
G54D31*
D03*
X1333011Y-651563D02*
G54D16*
D03*
X1333011Y-625139D02*
G54D16*
D03*
X1333011Y-612952D02*
G54D16*
D03*
X1333011Y-598723D02*
G54D16*
D03*
X1353334Y-603554D02*
G54D20*
D03*
X1942695Y-940147D02*
G54D16*
D03*
X1934572Y-672647D02*
G54D14*
D03*
X1936602Y-795852D02*
G54D23*
D03*
X1936602Y-812114D02*
G54D23*
D03*
X1940671Y-852758D02*
G54D16*
D03*
X1940671Y-828372D02*
G54D16*
D03*
X2107315Y-639368D02*
G54D26*
D03*
X2113411Y-683315D02*
G54D22*
D03*
X2113411Y-717359D02*
G54D88*
D03*
X241672Y-741743D02*
G54D20*
D03*
X193400Y-686112D02*
G54D80*
D03*
X241672Y-707707D02*
G54D20*
D03*
X241672Y-674679D02*
G54D51*
D03*
X1322854Y-726757D02*
G54D26*
D03*
X1322854Y-738954D02*
G54D26*
D03*
X1322854Y-751148D02*
G54D26*
D03*
X1333011Y-680013D02*
G54D16*
D03*
X2782036Y-779596D02*
G54D32*
D03*
X178165Y-797376D02*
G54D11*
D03*
X241672Y-808814D02*
G54D20*
D03*
X206615Y-783409D02*
G54D10*
D03*
X178165Y-769690D02*
G54D11*
D03*
X241672Y-774776D02*
G54D29*
D03*
X2743428Y-881214D02*
G54D32*
D03*
X206615Y-838784D02*
G54D10*
D03*
X178165Y-824811D02*
G54D11*
D03*
X206615Y-811098D02*
G54D10*
D03*
X510956Y-834466D02*
G54D17*
D03*
X510956Y-871049D02*
G54D17*
D03*
X518065Y-791794D02*
G54D26*
D03*
X536351Y-871049D02*
G54D17*
D03*
X534319Y-903566D02*
G54D18*
D03*
X536351Y-834473D02*
G54D89*
D03*
X404253Y-908390D02*
G54D29*
D03*
X404253Y-874351D02*
G54D39*
D03*
X436772Y-917796D02*
G54D16*
D03*
X436772Y-889340D02*
G54D16*
D03*
X2744444Y-926939D02*
G54D32*
D03*
X2808464Y-907630D02*
G54D33*
D03*
X2810484Y-887313D02*
G54D32*
D03*
X2462966Y-942179D02*
G54D43*
D03*
X2454836Y-932017D02*
G54D28*
D03*
X2448739Y-913729D02*
G54D23*
D03*
X2456870Y-903566D02*
G54D16*
D03*
X2363383Y-911697D02*
G54D16*
D03*
X2363383Y-927958D02*
G54D16*
D03*
X2424345Y-962504D02*
G54D26*
D03*
X142343Y-1043540D02*
G54D26*
D03*
X144629Y-961994D02*
G54D26*
D03*
X2379641Y-1025502D02*
G54D23*
D03*
X2387767Y-999086D02*
G54D28*
D03*
X2391831Y-1035664D02*
G54D18*
D03*
X2424345Y-1062088D02*
G54D26*
D03*
X2424345Y-1049890D02*
G54D26*
D03*
X2424345Y-1011280D02*
G54D26*
D03*
X2424345Y-995019D02*
G54D26*
D03*
X2273962Y-1024234D02*
G54D90*
D03*
X2800324Y-1053446D02*
G54D25*
D03*
X2777972Y-1023470D02*
G54D32*
D03*
X2424345Y-1112890D02*
G54D26*
D03*
X2395898Y-1133218D02*
G54D28*
D03*
X2391831Y-1088506D02*
G54D18*
D03*
X2371513Y-1141346D02*
G54D26*
D03*
X2379641Y-1076312D02*
G54D23*
D03*
X2222641Y-1012804D02*
G54D23*
D03*
X2210957Y-1076312D02*
G54D26*
D03*
X2208925Y-970638D02*
G54D28*
D03*
X2195207Y-1001118D02*
G54D16*
D03*
X2243477Y-1056748D02*
G54D20*
D03*
X2243477Y-1022712D02*
G54D20*
D03*
X2195207Y-1129151D02*
G54D16*
D03*
X2220612Y-1225181D02*
G54D18*
D03*
X2241445Y-1205618D02*
G54D22*
D03*
X145396Y-1141092D02*
G54D91*
D03*
X183753Y-1128140D02*
G54D25*
D03*
X183753Y-1154046D02*
G54D25*
D03*
X183753Y-1107053D02*
G54D25*
D03*
X2800324Y-1129654D02*
G54D25*
D03*
X2800324Y-1104257D02*
G54D25*
D03*
X2800324Y-1078852D02*
G54D25*
D03*
X2344587Y-1089014D02*
G54D25*
D03*
X2296312Y-1076312D02*
G54D26*
D03*
X2729204Y-1200279D02*
G54D32*
D03*
X2731223Y-1177927D02*
G54D33*
D03*
X2743428Y-1163698D02*
G54D32*
D03*
X2729204Y-1251086D02*
G54D32*
D03*
X2552890Y-1114412D02*
G54D25*
D03*
X2552890Y-1063606D02*
G54D25*
D03*
X2552890Y-1038206D02*
G54D25*
D03*
X2552890Y-1012804D02*
G54D25*
D03*
X2552890Y-1089014D02*
G54D25*
D03*
X2456870Y-1204346D02*
G54D16*
D03*
X2450772Y-1232801D02*
G54D18*
D03*
X2467032Y-1153535D02*
G54D28*
D03*
X2477188Y-1074280D02*
G54D28*
D03*
X2473131Y-1123053D02*
G54D23*
D03*
X2479222Y-1102735D02*
G54D16*
D03*
X259966Y-1419011D02*
G54D31*
D03*
X259966Y-1453047D02*
G54D31*
D03*
X250994Y-1490390D02*
G54D75*
D03*
X259966Y-1337718D02*
G54D31*
D03*
X259966Y-1371754D02*
G54D31*
D03*
X152252Y-1285636D02*
G54D26*
D03*
G54D53*
X2772625Y-1445928D02*
X2790430Y-1445928D01*
G54D53*
X2790430Y-1463715D02*
X2772625Y-1463715D01*
X2781528Y-1505384D02*
G54D92*
D03*
X1576887Y-1336443D02*
G54D43*
D03*
X1589076Y-1373030D02*
G54D16*
D03*
X1591108Y-1399446D02*
G54D28*
D03*
X1950826Y-1391318D02*
G54D26*
D03*
X1952858Y-1356768D02*
G54D28*
D03*
G36*
X181000Y-1427688D02*
X200725Y-1427688D01*
X200725Y-1447413D01*
X181000Y-1447413D01*
X181000Y-1427688D01*
G37*
X229475Y-1453047D02*
G54D20*
D03*
X229475Y-1419011D02*
G54D20*
D03*
X2141864Y-653597D02*
G54D16*
D03*
X1402112Y-1283609D02*
G54D18*
D03*
G54D53*
X135742Y-1463715D02*
X135742Y-1445928D01*
G54D53*
X135742Y-1445928D02*
X153519Y-1445928D01*
G54D53*
X153519Y-1445928D02*
X153519Y-1463715D01*
G54D53*
X153519Y-1463715D02*
X135742Y-1463715D01*
X190862Y-1462960D02*
G54D25*
D03*
G54D53*
X2772625Y-1463715D02*
X2772625Y-1445928D01*
X2761703Y-1417734D02*
G54D33*
D03*
X290448Y-1337718D02*
G54D31*
D03*
X2265829Y-206494D02*
G54D23*
D03*
X1435127Y-113509D02*
G54D49*
D03*
X1303039Y-553000D02*
G54D16*
D03*
X1168394Y-713038D02*
G54D18*
D03*
X1173474Y-644448D02*
G54D16*
D03*
X1186179Y-631748D02*
G54D16*
D03*
X1001750Y-736922D02*
G54D43*
D03*
X1018003Y-647499D02*
G54D16*
D03*
X1020035Y-614984D02*
G54D28*
D03*
X1030198Y-734885D02*
G54D16*
D03*
X1032232Y-673914D02*
G54D28*
D03*
X500283Y-713038D02*
G54D28*
D03*
X520600Y-745299D02*
G54D39*
D03*
X538385Y-765370D02*
G54D28*
D03*
X520600Y-711260D02*
G54D29*
D03*
X499772Y-686112D02*
G54D43*
D03*
X520600Y-679246D02*
G54D39*
D03*
X550580Y-694242D02*
G54D28*
D03*
X546513Y-653597D02*
G54D18*
D03*
X2357284Y-395495D02*
G54D43*
D03*
X2345090Y-395495D02*
G54D18*
D03*
X2357284Y-196329D02*
G54D43*
D03*
X2349154Y-214622D02*
G54D28*
D03*
X2345090Y-263397D02*
G54D18*
D03*
X2361351Y-263397D02*
G54D28*
D03*
X2381668Y-194297D02*
G54D26*
D03*
X2377609Y-263397D02*
G54D28*
D03*
X2373545Y-214622D02*
G54D28*
D03*
X2397929Y-190233D02*
G54D26*
D03*
X2397929Y-202430D02*
G54D26*
D03*
X2397929Y-214622D02*
G54D26*
D03*
X2410126Y-214622D02*
G54D16*
D03*
X2420289Y-206494D02*
G54D28*
D03*
X2424345Y-194297D02*
G54D26*
D03*
X2426388Y-263397D02*
G54D23*
D03*
X2483286Y-263397D02*
G54D16*
D03*
X2467032Y-263397D02*
G54D28*
D03*
X2501579Y-263397D02*
G54D28*
D03*
X2501579Y-214622D02*
G54D28*
D03*
X2507678Y-194297D02*
G54D23*
D03*
X2517830Y-263397D02*
G54D16*
D03*
X2521899Y-202430D02*
G54D23*
D03*
X2525963Y-190233D02*
G54D26*
D03*
X2534094Y-263397D02*
G54D23*
D03*
X2534094Y-214622D02*
G54D23*
D03*
X2605226Y-202430D02*
G54D32*
D03*
X2613354Y-253235D02*
G54D32*
D03*
X2627578Y-214622D02*
G54D32*
D03*
X2629623Y-243072D02*
G54D33*
D03*
X2633687Y-194297D02*
G54D33*
D03*
X2647898Y-243072D02*
G54D32*
D03*
X2682455Y-308866D02*
G54D93*
D03*
X2682455Y-274822D02*
G54D94*
D03*
X2664164Y-243072D02*
G54D33*
D03*
X2680420Y-243072D02*
G54D33*
D03*
X2702775Y-275587D02*
G54D33*
D03*
X2664164Y-214622D02*
G54D33*
D03*
X2674314Y-200393D02*
G54D32*
D03*
X2694657Y-194297D02*
G54D23*
D03*
X2690583Y-214622D02*
G54D33*
D03*
X2749511Y-251203D02*
G54D33*
D03*
X2751556Y-239008D02*
G54D32*
D03*
X2753575Y-212590D02*
G54D33*
D03*
X2757639Y-226811D02*
G54D33*
D03*
X2763748Y-196329D02*
G54D32*
D03*
X2294287Y-505236D02*
G54D26*
D03*
X2326802Y-263397D02*
G54D28*
D03*
X2311554Y-258320D02*
G54D17*
D03*
X2286156Y-258320D02*
G54D17*
D03*
X2260746Y-258320D02*
G54D25*
D03*
X2235346Y-258320D02*
G54D25*
D03*
X2209946Y-258320D02*
G54D75*
D03*
X1223268Y-1462450D02*
G54D18*
D03*
X1231391Y-1161666D02*
G54D16*
D03*
X1236479Y-997054D02*
G54D17*
D03*
X1235458Y-1263284D02*
G54D23*
D03*
X1235458Y-1121021D02*
G54D23*
D03*
X1162298Y-1476674D02*
G54D16*
D03*
X1178557Y-1391318D02*
G54D23*
D03*
X1713054Y-525564D02*
G54D18*
D03*
X1725241Y-454428D02*
G54D26*
D03*
X1717108Y-417847D02*
G54D23*
D03*
X1702889Y-377205D02*
G54D26*
D03*
X1700854Y-438175D02*
G54D28*
D03*
X1674433Y-440207D02*
G54D16*
D03*
X2003668Y-420649D02*
G54D14*
D03*
X2007732Y-222755D02*
G54D18*
D03*
X1999601Y-196329D02*
G54D28*
D03*
X1995535Y-210558D02*
G54D18*
D03*
X1989439Y-273555D02*
G54D16*
D03*
X2017894Y-202430D02*
G54D26*
D03*
X2044313Y-212590D02*
G54D16*
D03*
X2023993Y-186169D02*
G54D28*
D03*
X2023993Y-214622D02*
G54D28*
D03*
X2013828Y-539785D02*
G54D16*
D03*
X2072769Y-549948D02*
G54D16*
D03*
X2048374Y-514634D02*
G54D69*
D03*
X2021961Y-523529D02*
G54D16*
D03*
X2019926Y-511334D02*
G54D43*
D03*
X2072769Y-495076D02*
G54D16*
D03*
X2084956Y-509302D02*
G54D28*
D03*
X1725241Y-533694D02*
G54D26*
D03*
X1751664Y-539785D02*
G54D18*
D03*
X1731339Y-499140D02*
G54D28*
D03*
X1723214Y-488975D02*
G54D26*
D03*
X1769447Y-505236D02*
G54D17*
D03*
X2103251Y-222755D02*
G54D26*
D03*
X2135763Y-495076D02*
G54D18*
D03*
X2135763Y-507270D02*
G54D18*
D03*
X2202834Y-488975D02*
G54D33*
D03*
X2190638Y-495076D02*
G54D28*
D03*
X2182507Y-511334D02*
G54D18*
D03*
X2170312Y-511334D02*
G54D43*
D03*
X2178443Y-491017D02*
G54D28*
D03*
X2259733Y-491009D02*
G54D15*
D03*
X2278026Y-480852D02*
G54D16*
D03*
X2259733Y-456971D02*
G54D86*
D03*
X2198770Y-460527D02*
G54D33*
D03*
X2091057Y-464591D02*
G54D16*
D03*
X2328836Y-472724D02*
G54D16*
D03*
X2314607Y-472724D02*
G54D28*
D03*
X2217056Y-476788D02*
G54D18*
D03*
X2208925Y-468657D02*
G54D28*
D03*
X2452804Y-387364D02*
G54D23*
D03*
X2452804Y-415815D02*
G54D23*
D03*
X2460934Y-379237D02*
G54D26*
D03*
X2462966Y-421916D02*
G54D43*
D03*
X2471089Y-434111D02*
G54D26*
D03*
X2473131Y-379237D02*
G54D23*
D03*
X2479222Y-425980D02*
G54D16*
D03*
X2483286Y-385333D02*
G54D16*
D03*
X2296312Y-486950D02*
G54D26*
D03*
X2314607Y-486950D02*
G54D28*
D03*
X2328836Y-488975D02*
G54D16*
D03*
X2560510Y-503204D02*
G54D16*
D03*
X2546288Y-503204D02*
G54D23*
D03*
X2532062Y-503204D02*
G54D18*
D03*
X2544256Y-491017D02*
G54D18*
D03*
X2121539Y-531654D02*
G54D23*
D03*
X2135763Y-531654D02*
G54D18*
D03*
X2164216Y-547916D02*
G54D16*
D03*
X2168280Y-535718D02*
G54D26*
D03*
X2170312Y-523529D02*
G54D43*
D03*
X2263797Y-549948D02*
G54D18*
D03*
X2243482Y-539785D02*
G54D16*
D03*
X2243482Y-527596D02*
G54D16*
D03*
X2217056Y-304045D02*
G54D18*
D03*
X2241445Y-304045D02*
G54D18*
D03*
X2229250Y-304045D02*
G54D43*
D03*
X2253634Y-304045D02*
G54D23*
D03*
X2560510Y-527596D02*
G54D16*
D03*
X2546288Y-523529D02*
G54D23*
D03*
X2302410Y-517433D02*
G54D33*
D03*
X2286159Y-517433D02*
G54D23*
D03*
X2314607Y-517433D02*
G54D28*
D03*
X2328836Y-517433D02*
G54D16*
D03*
X2615384Y-419884D02*
G54D32*
D03*
X2629623Y-418868D02*
G54D33*
D03*
X2334932Y-202430D02*
G54D43*
D03*
X2314607Y-192265D02*
G54D28*
D03*
X2334422Y-189720D02*
G54D28*
D03*
X2338991Y-383301D02*
G54D26*
D03*
X2221122Y-196329D02*
G54D33*
D03*
X2212990Y-206494D02*
G54D28*
D03*
X2204866Y-198361D02*
G54D23*
D03*
X2196738Y-190233D02*
G54D16*
D03*
X2229250Y-206494D02*
G54D43*
D03*
X2237381Y-196329D02*
G54D28*
D03*
X2247546Y-206494D02*
G54D16*
D03*
X2735287Y-234942D02*
G54D33*
D03*
X2725140Y-228846D02*
G54D32*
D03*
X2725140Y-194297D02*
G54D32*
D03*
X2725140Y-206494D02*
G54D32*
D03*
X2625546Y-549948D02*
G54D32*
D03*
X2623512Y-566208D02*
G54D32*
D03*
X2613354Y-549948D02*
G54D32*
D03*
X2639770Y-560112D02*
G54D32*
D03*
X2723095Y-669851D02*
G54D33*
D03*
X2710903Y-667816D02*
G54D33*
D03*
X2721076Y-653597D02*
G54D32*
D03*
X2716999Y-641400D02*
G54D33*
D03*
X2385742Y-688911D02*
G54D31*
D03*
X2416222Y-688911D02*
G54D14*
D03*
X2355252Y-682048D02*
G54D26*
D03*
X1828888Y-921859D02*
G54D28*
D03*
X1442755Y-832438D02*
G54D16*
D03*
X1454952Y-832438D02*
G54D16*
D03*
X1471205Y-830406D02*
G54D43*
D03*
X1414299Y-997054D02*
G54D25*
D03*
X1439712Y-997054D02*
G54D25*
D03*
X1465107Y-997054D02*
G54D25*
D03*
X1448853Y-808814D02*
G54D14*
D03*
X1041374Y-553000D02*
G54D16*
D03*
X1022067Y-582462D02*
G54D16*
D03*
X1043916Y-531908D02*
G54D22*
D03*
X1043916Y-497870D02*
G54D22*
D03*
X1099293Y-551980D02*
G54D16*
D03*
X1087104Y-551980D02*
G54D18*
D03*
X1125209Y-531908D02*
G54D14*
D03*
X1099804Y-531908D02*
G54D39*
D03*
X1668342Y-271523D02*
G54D23*
D03*
X1668342Y-259333D02*
G54D23*
D03*
X1676473Y-251203D02*
G54D16*
D03*
X1693737Y-281431D02*
G54D25*
D03*
X1501185Y-487710D02*
G54D95*
D03*
X1526587Y-487710D02*
G54D30*
D03*
X1511850Y-391431D02*
G54D26*
D03*
X1522015Y-440207D02*
G54D33*
D03*
X1538276Y-440207D02*
G54D18*
D03*
X1440723Y-720658D02*
G54D28*
D03*
X1440723Y-747084D02*
G54D28*
D03*
X1459011Y-737679D02*
G54D14*
D03*
X1448853Y-774776D02*
G54D52*
D03*
X1459011Y-703638D02*
G54D14*
D03*
X1438693Y-692210D02*
G54D16*
D03*
X1465107Y-682048D02*
G54D16*
D03*
X1450880Y-626414D02*
G54D50*
D03*
X1450880Y-660450D02*
G54D50*
D03*
X1333011Y-572307D02*
G54D16*
D03*
X1328942Y-545881D02*
G54D23*
D03*
X1379752Y-569510D02*
G54D96*
D03*
X1353334Y-569510D02*
G54D69*
D03*
X1383816Y-505236D02*
G54D97*
D03*
X1358411Y-505236D02*
G54D11*
D03*
X1333009Y-505236D02*
G54D98*
D03*
X1452912Y-604822D02*
G54D26*
D03*
X1462922Y-585233D02*
G54D45*
D03*
X1408208Y-570272D02*
G54D26*
D03*
X1440723Y-604822D02*
G54D28*
D03*
X1445292Y-586018D02*
G54D26*
D03*
X1426504Y-562902D02*
G54D78*
D03*
X1477304Y-774776D02*
G54D99*
D03*
X1477304Y-808814D02*
G54D35*
D03*
X1481368Y-660450D02*
G54D20*
D03*
X1481368Y-626414D02*
G54D20*
D03*
X1487469Y-703638D02*
G54D31*
D03*
X1487469Y-737679D02*
G54D31*
D03*
X1485434Y-602787D02*
G54D26*
D03*
X1483400Y-584496D02*
G54D18*
D03*
X1483400Y-513369D02*
G54D18*
D03*
X1483400Y-484918D02*
G54D18*
D03*
X1481368Y-543852D02*
G54D23*
D03*
X1485434Y-391431D02*
G54D26*
D03*
X1914245Y-302010D02*
G54D43*
D03*
X1790780Y-316742D02*
G54D17*
D03*
X1790780Y-342145D02*
G54D17*
D03*
X1790780Y-291337D02*
G54D17*
D03*
X1613468Y-476788D02*
G54D26*
D03*
X1577398Y-487710D02*
G54D46*
D03*
X1591108Y-415815D02*
G54D28*
D03*
X1560628Y-411751D02*
G54D18*
D03*
X1556562Y-440207D02*
G54D28*
D03*
X1790780Y-443763D02*
G54D17*
D03*
X1745566Y-448332D02*
G54D26*
D03*
X1790780Y-418353D02*
G54D17*
D03*
X1737438Y-417847D02*
G54D23*
D03*
X1790780Y-392955D02*
G54D17*
D03*
X1526587Y-521754D02*
G54D31*
D03*
X1501185Y-521754D02*
G54D39*
D03*
X1517946Y-543852D02*
G54D18*
D03*
X1272039Y-644199D02*
G54D57*
D03*
X1274076Y-679246D02*
G54D14*
D03*
X1274076Y-713295D02*
G54D19*
D03*
X1272039Y-610153D02*
G54D100*
D03*
X1137914Y-1213238D02*
G54D86*
D03*
X1137914Y-1179194D02*
G54D101*
D03*
X1249687Y-714562D02*
G54D18*
D03*
X1259849Y-458495D02*
G54D26*
D03*
X1255783Y-588560D02*
G54D16*
D03*
X1257817Y-488975D02*
G54D43*
D03*
X1267980Y-588560D02*
G54D16*
D03*
X1095234Y-617016D02*
G54D18*
D03*
X1087104Y-625139D02*
G54D18*
D03*
X1107424Y-606343D02*
G54D23*
D03*
X1127749Y-604822D02*
G54D16*
D03*
X1122666Y-619048D02*
G54D26*
D03*
X426356Y-669858D02*
G54D25*
D03*
X426356Y-644446D02*
G54D25*
D03*
X406292Y-631748D02*
G54D17*
D03*
X406292Y-657153D02*
G54D17*
D03*
X406292Y-606343D02*
G54D17*
D03*
X426356Y-619051D02*
G54D25*
D03*
X450996Y-715327D02*
G54D39*
D03*
X477420Y-715327D02*
G54D14*
D03*
X477420Y-748350D02*
G54D19*
D03*
X211190Y-551980D02*
G54D26*
D03*
X206615Y-521492D02*
G54D10*
D03*
X241672Y-607618D02*
G54D20*
D03*
X268088Y-607618D02*
G54D20*
D03*
X268088Y-640638D02*
G54D20*
D03*
X241672Y-640638D02*
G54D20*
D03*
X241672Y-573574D02*
G54D44*
D03*
X268088Y-573574D02*
G54D69*
D03*
X241672Y-540550D02*
G54D20*
D03*
X268088Y-540550D02*
G54D20*
D03*
X318896Y-775532D02*
G54D16*
D03*
X300603Y-774776D02*
G54D52*
D03*
X300603Y-808814D02*
G54D14*
D03*
X300603Y-845903D02*
G54D46*
D03*
X318896Y-791794D02*
G54D16*
D03*
X318896Y-814146D02*
G54D16*
D03*
X318896Y-844636D02*
G54D16*
D03*
X319917Y-669851D02*
G54D26*
D03*
X320928Y-721423D02*
G54D18*
D03*
X300603Y-707707D02*
G54D14*
D03*
X300603Y-741743D02*
G54D14*
D03*
X908008Y-833706D02*
G54D67*
D03*
X891498Y-748606D02*
G54D23*
D03*
X914361Y-763848D02*
G54D26*
D03*
X942301Y-765626D02*
G54D87*
D03*
X989553Y-784676D02*
G54D18*
D03*
X528220Y-314197D02*
G54D16*
D03*
X546005Y-299722D02*
G54D50*
D03*
X516788Y-274827D02*
G54D18*
D03*
X507163Y-285627D02*
G54D16*
D03*
X546005Y-267710D02*
G54D50*
D03*
X530765Y-372630D02*
G54D102*
D03*
X483516Y-407685D02*
G54D16*
D03*
X512978Y-375173D02*
G54D23*
D03*
X548545Y-397532D02*
G54D23*
D03*
X573953Y-372630D02*
G54D28*
D03*
X581573Y-344690D02*
G54D28*
D03*
X581573Y-272795D02*
G54D86*
D03*
X563788Y-253235D02*
G54D16*
D03*
X581573Y-238752D02*
G54D101*
D03*
X567085Y-186423D02*
G54D48*
D03*
X567085Y-161015D02*
G54D48*
D03*
X588179Y-161015D02*
G54D67*
D03*
X418482Y-394222D02*
G54D19*
D03*
X418482Y-360187D02*
G54D38*
D03*
X402221Y-393463D02*
G54D28*
D03*
X448962Y-369074D02*
G54D28*
D03*
X444898Y-346722D02*
G54D33*
D03*
X337189Y-460527D02*
G54D18*
D03*
X359541Y-463323D02*
G54D78*
D03*
X359541Y-429280D02*
G54D57*
D03*
X316864Y-438175D02*
G54D28*
D03*
X316864Y-421916D02*
G54D28*
D03*
X316864Y-401596D02*
G54D28*
D03*
X355477Y-391431D02*
G54D28*
D03*
X387999Y-421916D02*
G54D28*
D03*
X383933Y-394222D02*
G54D19*
D03*
X972789Y-497108D02*
G54D23*
D03*
X972789Y-469422D02*
G54D67*
D03*
X1013937Y-466625D02*
G54D23*
D03*
X993617Y-497108D02*
G54D18*
D03*
X1043916Y-474245D02*
G54D18*
D03*
X1056614Y-407685D02*
G54D16*
D03*
X1137914Y-474756D02*
G54D28*
D03*
X1137914Y-413783D02*
G54D28*
D03*
X1039349Y-799916D02*
G54D17*
D03*
X1056614Y-881214D02*
G54D16*
D03*
X1048493Y-765370D02*
G54D18*
D03*
X1058653Y-751148D02*
G54D16*
D03*
X1043413Y-708469D02*
G54D25*
D03*
X1042395Y-680013D02*
G54D26*
D03*
X1099804Y-497870D02*
G54D39*
D03*
X1125209Y-497870D02*
G54D14*
D03*
X1127373Y-462180D02*
G54D28*
D03*
X1099298Y-459259D02*
G54D78*
D03*
X1099298Y-425213D02*
G54D58*
D03*
X1131816Y-426991D02*
G54D26*
D03*
X1127749Y-403120D02*
G54D16*
D03*
X1127749Y-450364D02*
G54D16*
D03*
X1119618Y-426991D02*
G54D23*
D03*
X1165852Y-531908D02*
G54D20*
D03*
X1165852Y-497870D02*
G54D20*
D03*
X1176016Y-476788D02*
G54D28*
D03*
X1182623Y-541817D02*
G54D16*
D03*
X1160776Y-398033D02*
G54D48*
D03*
X1176016Y-464083D02*
G54D28*
D03*
X1186682Y-694999D02*
G54D78*
D03*
X1186682Y-660963D02*
G54D78*
D03*
X1190754Y-588560D02*
G54D23*
D03*
X1196342Y-503968D02*
G54D38*
D03*
X1196342Y-469925D02*
G54D14*
D03*
X1790780Y-265940D02*
G54D17*
D03*
X1757760Y-253235D02*
G54D16*
D03*
X1790780Y-215130D02*
G54D17*
D03*
X1753696Y-212590D02*
G54D16*
D03*
X1818728Y-214622D02*
G54D23*
D03*
X1822792Y-228846D02*
G54D26*
D03*
X1404144Y-832438D02*
G54D26*
D03*
X1402112Y-807036D02*
G54D18*
D03*
X1404144Y-665794D02*
G54D26*
D03*
X1404144Y-706437D02*
G54D26*
D03*
X1404144Y-736922D02*
G54D26*
D03*
X1404144Y-462559D02*
G54D26*
D03*
X1638363Y-658931D02*
G54D46*
D03*
X1638363Y-624882D02*
G54D14*
D03*
X1702889Y-243072D02*
G54D26*
D03*
X1664276Y-523529D02*
G54D26*
D03*
X1660212Y-541817D02*
G54D26*
D03*
X1648017Y-521500D02*
G54D16*
D03*
X1704921Y-551980D02*
G54D43*
D03*
X1700854Y-525564D02*
G54D28*
D03*
X1682561Y-523532D02*
G54D39*
D03*
X1591108Y-604822D02*
G54D28*
D03*
X1564692Y-604822D02*
G54D18*
D03*
X1618040Y-540296D02*
G54D23*
D03*
X1597207Y-531654D02*
G54D26*
D03*
X1572312Y-542838D02*
G54D28*
D03*
X1577398Y-521754D02*
G54D14*
D03*
X1587052Y-682048D02*
G54D23*
D03*
X1595172Y-712538D02*
G54D28*
D03*
X1587552Y-624882D02*
G54D31*
D03*
X1587552Y-658931D02*
G54D30*
D03*
X1612960Y-624882D02*
G54D20*
D03*
X1612960Y-658931D02*
G54D51*
D03*
X1507786Y-704405D02*
G54D26*
D03*
X1511347Y-624882D02*
G54D14*
D03*
X1511347Y-658931D02*
G54D46*
D03*
X1491530Y-682048D02*
G54D18*
D03*
X1526082Y-682048D02*
G54D18*
D03*
X1530143Y-703638D02*
G54D14*
D03*
X1536745Y-624882D02*
G54D14*
D03*
X1536745Y-658931D02*
G54D46*
D03*
X1507786Y-820244D02*
G54D26*
D03*
X1505752Y-793828D02*
G54D18*
D03*
X1497631Y-832438D02*
G54D16*
D03*
X1558594Y-814910D02*
G54D103*
D03*
X1530143Y-814910D02*
G54D19*
D03*
X1530143Y-780866D02*
G54D14*
D03*
X1558594Y-780866D02*
G54D35*
D03*
X2007732Y-887313D02*
G54D18*
D03*
X2007732Y-921859D02*
G54D18*
D03*
X2028052Y-921859D02*
G54D23*
D03*
X2038212Y-887313D02*
G54D28*
D03*
X1194812Y-901534D02*
G54D28*
D03*
X1190754Y-974694D02*
G54D23*
D03*
X1188714Y-925926D02*
G54D23*
D03*
X1188714Y-808047D02*
G54D23*
D03*
X1188714Y-832438D02*
G54D23*
D03*
X1706953Y-1281577D02*
G54D16*
D03*
X1816190Y-909665D02*
G54D26*
D03*
X1788246Y-909665D02*
G54D26*
D03*
X1788246Y-881214D02*
G54D26*
D03*
X1174492Y-1062850D02*
G54D96*
D03*
X1174492Y-1028804D02*
G54D35*
D03*
X1068811Y-1287675D02*
G54D26*
D03*
X1081005Y-1471340D02*
G54D51*
D03*
X1081005Y-1437294D02*
G54D20*
D03*
X579030Y-1065390D02*
G54D39*
D03*
X607486Y-1065390D02*
G54D39*
D03*
X574964Y-1041762D02*
G54D16*
D03*
X619673Y-978758D02*
G54D18*
D03*
X621707Y-962504D02*
G54D26*
D03*
X597321Y-1007980D02*
G54D22*
D03*
X597321Y-973937D02*
G54D37*
D03*
X755583Y-909922D02*
G54D67*
D03*
X757872Y-1003914D02*
G54D29*
D03*
X757872Y-969868D02*
G54D44*
D03*
X806901Y-978512D02*
G54D16*
D03*
X810711Y-907630D02*
G54D28*
D03*
X988031Y-987399D02*
G54D16*
D03*
X988031Y-974694D02*
G54D16*
D03*
X1007846Y-976734D02*
G54D16*
D03*
X1009873Y-1003150D02*
G54D26*
D03*
X999715Y-913729D02*
G54D16*
D03*
X1050523Y-982824D02*
G54D23*
D03*
X1036296Y-897468D02*
G54D18*
D03*
X1062712Y-1003150D02*
G54D18*
D03*
X1064747Y-1055224D02*
G54D36*
D03*
X1064747Y-1089273D02*
G54D35*
D03*
X1072875Y-982824D02*
G54D23*
D03*
X1298462Y-832438D02*
G54D26*
D03*
X1241556Y-797892D02*
G54D28*
D03*
X1812630Y-929990D02*
G54D28*
D03*
X1800440Y-929990D02*
G54D26*
D03*
X1788246Y-929990D02*
G54D26*
D03*
X2290223Y-899502D02*
G54D26*
D03*
X2314607Y-889340D02*
G54D28*
D03*
X2332900Y-828372D02*
G54D26*
D03*
X1678497Y-708469D02*
G54D23*
D03*
X1656145Y-711771D02*
G54D104*
D03*
X1678497Y-732853D02*
G54D23*
D03*
X1678497Y-720658D02*
G54D23*
D03*
X2225186Y-786462D02*
G54D14*
D03*
X2198770Y-862921D02*
G54D33*
D03*
X2229250Y-848692D02*
G54D43*
D03*
X2225186Y-752416D02*
G54D19*
D03*
X2206891Y-753176D02*
G54D23*
D03*
X2225186Y-717359D02*
G54D19*
D03*
X2225186Y-683315D02*
G54D14*
D03*
X2223154Y-655629D02*
G54D16*
D03*
X2212990Y-645464D02*
G54D28*
D03*
X2198770Y-657661D02*
G54D33*
D03*
X1841088Y-680013D02*
G54D18*
D03*
X1861402Y-745050D02*
G54D16*
D03*
X1861402Y-720658D02*
G54D16*
D03*
X1861402Y-704405D02*
G54D16*
D03*
X1857338Y-822276D02*
G54D16*
D03*
X1869536Y-820244D02*
G54D26*
D03*
X1879696Y-753176D02*
G54D18*
D03*
X1877664Y-728789D02*
G54D23*
D03*
X1912213Y-761306D02*
G54D26*
D03*
X1895952Y-761306D02*
G54D26*
D03*
X1916279Y-779596D02*
G54D16*
D03*
X1916279Y-795852D02*
G54D16*
D03*
X1849208Y-921859D02*
G54D26*
D03*
X1841088Y-909665D02*
G54D18*
D03*
X1849208Y-940147D02*
G54D26*
D03*
X1839053Y-927958D02*
G54D16*
D03*
X1678497Y-781628D02*
G54D23*
D03*
X1678497Y-769434D02*
G54D23*
D03*
X1678497Y-757240D02*
G54D23*
D03*
X1678497Y-745050D02*
G54D23*
D03*
X2026015Y-717862D02*
G54D31*
D03*
X2026015Y-751906D02*
G54D60*
D03*
X2054476Y-751906D02*
G54D88*
D03*
X2054476Y-717862D02*
G54D22*
D03*
X2072769Y-714562D02*
G54D16*
D03*
X2050409Y-696274D02*
G54D28*
D03*
X1690692Y-680013D02*
G54D23*
D03*
X1690692Y-696274D02*
G54D23*
D03*
X1678497Y-696274D02*
G54D23*
D03*
X1678497Y-684077D02*
G54D23*
D03*
X1678497Y-669851D02*
G54D23*
D03*
X2255669Y-779596D02*
G54D28*
D03*
X2247546Y-848692D02*
G54D16*
D03*
X2245512Y-787730D02*
G54D28*
D03*
X2241445Y-869020D02*
G54D18*
D03*
X2255669Y-795852D02*
G54D28*
D03*
X2261765Y-848692D02*
G54D23*
D03*
X2265829Y-683315D02*
G54D20*
D03*
X2265829Y-717359D02*
G54D68*
D03*
X2243482Y-718626D02*
G54D16*
D03*
X2178443Y-862921D02*
G54D28*
D03*
X2160147Y-862921D02*
G54D23*
D03*
X2160147Y-875116D02*
G54D23*
D03*
X2164221Y-1022712D02*
G54D50*
D03*
X2072769Y-614984D02*
G54D16*
D03*
X2072769Y-627174D02*
G54D16*
D03*
X2109347Y-602787D02*
G54D28*
D03*
X2095121Y-584496D02*
G54D16*
D03*
X2086988Y-566208D02*
G54D23*
D03*
X2109347Y-627174D02*
G54D28*
D03*
X2103244Y-1110099D02*
G54D101*
D03*
X2103244Y-1144137D02*
G54D105*
D03*
X2107308Y-1046591D02*
G54D15*
D03*
X2107308Y-1012550D02*
G54D106*
D03*
X1993508Y-685355D02*
G54D78*
D03*
X1993508Y-719391D02*
G54D78*
D03*
X1684596Y-803980D02*
G54D28*
D03*
X1678497Y-793828D02*
G54D23*
D03*
X1645980Y-787730D02*
G54D18*
D03*
X1650049Y-810082D02*
G54D33*
D03*
X1670374Y-803980D02*
G54D18*
D03*
X1979282Y-976734D02*
G54D26*
D03*
X1979282Y-988920D02*
G54D26*
D03*
X1960986Y-842596D02*
G54D18*
D03*
X1960986Y-824308D02*
G54D18*
D03*
X2103251Y-810082D02*
G54D26*
D03*
X2135763Y-925926D02*
G54D18*
D03*
X2135763Y-972667D02*
G54D18*
D03*
X2117473Y-899502D02*
G54D16*
D03*
X2129667Y-899502D02*
G54D26*
D03*
X2123571Y-862921D02*
G54D18*
D03*
X2111379Y-862921D02*
G54D23*
D03*
X2135763Y-862921D02*
G54D18*
D03*
X2135763Y-875116D02*
G54D18*
D03*
X2072769Y-915764D02*
G54D16*
D03*
X2070729Y-903566D02*
G54D16*
D03*
X2058540Y-921859D02*
G54D28*
D03*
X2072769Y-932017D02*
G54D16*
D03*
X2091057Y-810082D02*
G54D16*
D03*
X635934Y-1099428D02*
G54D31*
D03*
X635934Y-1065390D02*
G54D31*
D03*
X637966Y-871049D02*
G54D25*
D03*
X725357Y-1007216D02*
G54D28*
D03*
X725357Y-978758D02*
G54D28*
D03*
X727389Y-899502D02*
G54D26*
D03*
X1090157Y-799916D02*
G54D25*
D03*
X1097266Y-883249D02*
G54D23*
D03*
X1085072Y-887313D02*
G54D23*
D03*
X1094216Y-708469D02*
G54D75*
D03*
X1093202Y-688141D02*
G54D26*
D03*
X1841088Y-842596D02*
G54D18*
D03*
X1869536Y-846660D02*
G54D26*
D03*
X1869536Y-834473D02*
G54D26*
D03*
X1072875Y-946246D02*
G54D23*
D03*
X1074907Y-893404D02*
G54D18*
D03*
X612563Y-871049D02*
G54D75*
D03*
X611550Y-832438D02*
G54D16*
D03*
X556678Y-1055992D02*
G54D16*
D03*
X406292Y-834974D02*
G54D17*
D03*
X460146Y-834466D02*
G54D25*
D03*
X485540Y-834466D02*
G54D25*
D03*
X426356Y-850478D02*
G54D16*
D03*
X432708Y-838537D02*
G54D26*
D03*
X438799Y-850724D02*
G54D26*
D03*
X426356Y-822276D02*
G54D25*
D03*
X406292Y-809576D02*
G54D17*
D03*
X426356Y-796871D02*
G54D25*
D03*
X426356Y-771468D02*
G54D25*
D03*
X426356Y-746064D02*
G54D25*
D03*
X406292Y-758768D02*
G54D17*
D03*
X406292Y-733358D02*
G54D17*
D03*
X426356Y-720666D02*
G54D25*
D03*
X426356Y-695253D02*
G54D25*
D03*
X406292Y-707961D02*
G54D17*
D03*
X388502Y-443763D02*
G54D17*
D03*
X388502Y-469158D02*
G54D17*
D03*
X363608Y-866988D02*
G54D28*
D03*
X380880Y-796871D02*
G54D25*
D03*
X380880Y-822276D02*
G54D25*
D03*
X380880Y-771468D02*
G54D25*
D03*
X380880Y-746064D02*
G54D25*
D03*
X380880Y-720666D02*
G54D25*
D03*
X380880Y-695253D02*
G54D25*
D03*
X380880Y-669858D02*
G54D25*
D03*
X239640Y-1060812D02*
G54D100*
D03*
X206615Y-1064622D02*
G54D26*
D03*
X448962Y-1209684D02*
G54D107*
D03*
X479444Y-1209684D02*
G54D108*
D03*
X469290Y-1190122D02*
G54D28*
D03*
X440582Y-1136771D02*
G54D31*
D03*
X440582Y-1170807D02*
G54D31*
D03*
X469287Y-1136517D02*
G54D37*
D03*
X469287Y-1170561D02*
G54D22*
D03*
X574964Y-1354736D02*
G54D16*
D03*
X581062Y-1387251D02*
G54D43*
D03*
X581573Y-1504619D02*
G54D28*
D03*
X581573Y-1399958D02*
G54D28*
D03*
X585129Y-1444157D02*
G54D28*
D03*
X603419Y-1352704D02*
G54D26*
D03*
X599348Y-1382428D02*
G54D109*
D03*
X597321Y-1331107D02*
G54D37*
D03*
X599348Y-1416466D02*
G54D110*
D03*
X625771Y-1360835D02*
G54D26*
D03*
X627806Y-1331107D02*
G54D46*
D03*
X629838Y-1416466D02*
G54D44*
D03*
X629838Y-1382420D02*
G54D29*
D03*
X619673Y-1458386D02*
G54D18*
D03*
X812746Y-1382420D02*
G54D29*
D03*
X812746Y-1416466D02*
G54D44*
D03*
X812746Y-1451523D02*
G54D95*
D03*
X812746Y-1485569D02*
G54D39*
D03*
X814778Y-1076312D02*
G54D43*
D03*
X814778Y-1098669D02*
G54D43*
D03*
X818844Y-1114925D02*
G54D28*
D03*
X843226Y-1485569D02*
G54D20*
D03*
X843226Y-1451523D02*
G54D51*
D03*
X839162Y-1431960D02*
G54D26*
D03*
X843228Y-1507154D02*
G54D16*
D03*
X845260Y-1401480D02*
G54D28*
D03*
X845260Y-1383187D02*
G54D28*
D03*
X824938Y-1275478D02*
G54D16*
D03*
X824938Y-1293764D02*
G54D16*
D03*
X826208Y-1331109D02*
G54D26*
D03*
X831039Y-1255153D02*
G54D28*
D03*
X847290Y-1350670D02*
G54D16*
D03*
X853388Y-1261252D02*
G54D18*
D03*
X843226Y-1331107D02*
G54D51*
D03*
X843226Y-1297066D02*
G54D20*
D03*
X766000Y-1464477D02*
G54D16*
D03*
X780229Y-1416466D02*
G54D111*
D03*
X747706Y-1416466D02*
G54D111*
D03*
X747706Y-1451523D02*
G54D37*
D03*
X766000Y-1448224D02*
G54D16*
D03*
X763968Y-1501063D02*
G54D33*
D03*
X763968Y-1521383D02*
G54D33*
D03*
X747706Y-1485569D02*
G54D22*
D03*
X802581Y-1509194D02*
G54D18*
D03*
X790391Y-1527479D02*
G54D16*
D03*
X778197Y-1519351D02*
G54D26*
D03*
X327027Y-1525447D02*
G54D26*
D03*
X310974Y-1508988D02*
G54D26*
D03*
X310766Y-1474640D02*
G54D16*
D03*
X320928Y-1453047D02*
G54D31*
D03*
X330969Y-1490390D02*
G54D17*
D03*
X310971Y-1490390D02*
G54D25*
D03*
X383933Y-1453047D02*
G54D14*
D03*
X351411Y-1453047D02*
G54D31*
D03*
X370946Y-1490390D02*
G54D17*
D03*
X350956Y-1490390D02*
G54D75*
D03*
X343288Y-1395382D02*
G54D26*
D03*
X375802Y-1395382D02*
G54D18*
D03*
X341248Y-1379885D02*
G54D25*
D03*
X365640Y-1371754D02*
G54D20*
D03*
X320928Y-1371754D02*
G54D31*
D03*
X296544Y-1318155D02*
G54D26*
D03*
X318896Y-1318155D02*
G54D16*
D03*
X341256Y-1320190D02*
G54D28*
D03*
X365640Y-1337718D02*
G54D20*
D03*
X320928Y-1337718D02*
G54D31*
D03*
X341248Y-1345839D02*
G54D25*
D03*
X259958Y-1307995D02*
G54D26*
D03*
X335157Y-1294531D02*
G54D25*
D03*
X357509Y-1294531D02*
G54D12*
D03*
X310766Y-1294531D02*
G54D12*
D03*
X357509Y-1260490D02*
G54D20*
D03*
X310766Y-1260490D02*
G54D20*
D03*
X335157Y-1260484D02*
G54D25*
D03*
X294512Y-1232801D02*
G54D18*
D03*
X333125Y-1236865D02*
G54D28*
D03*
X347354Y-1236865D02*
G54D26*
D03*
X375802Y-1232801D02*
G54D18*
D03*
X574964Y-1271412D02*
G54D16*
D03*
X597321Y-1207645D02*
G54D70*
D03*
X597321Y-1241688D02*
G54D88*
D03*
X597321Y-1297066D02*
G54D22*
D03*
X607483Y-1275478D02*
G54D23*
D03*
X627803Y-1275478D02*
G54D18*
D03*
X627806Y-1207645D02*
G54D13*
D03*
X627806Y-1297066D02*
G54D14*
D03*
X627806Y-1241688D02*
G54D19*
D03*
X686744Y-1331107D02*
G54D46*
D03*
X717226Y-1331107D02*
G54D30*
D03*
X717226Y-1297066D02*
G54D31*
D03*
X686744Y-1297066D02*
G54D14*
D03*
X656259Y-1297066D02*
G54D22*
D03*
X656259Y-1331107D02*
G54D37*
D03*
X694110Y-1274203D02*
G54D26*
D03*
X674547Y-1275478D02*
G54D18*
D03*
X646099Y-1275478D02*
G54D26*
D03*
X692840Y-1210442D02*
G54D16*
D03*
X690810Y-1198252D02*
G54D28*
D03*
X664384Y-1198252D02*
G54D23*
D03*
X713160Y-1261252D02*
G54D43*
D03*
X650163Y-1253118D02*
G54D26*
D03*
X696907Y-1131183D02*
G54D16*
D03*
X688776Y-1149471D02*
G54D26*
D03*
X652195Y-1145412D02*
G54D18*
D03*
X672518Y-1150233D02*
G54D39*
D03*
X672518Y-1116197D02*
G54D39*
D03*
X696907Y-1064114D02*
G54D16*
D03*
X678613Y-982824D02*
G54D28*
D03*
X690810Y-962504D02*
G54D28*
D03*
X692840Y-995019D02*
G54D16*
D03*
X702997Y-1003150D02*
G54D16*
D03*
X465223Y-988920D02*
G54D18*
D03*
X483516Y-1045826D02*
G54D16*
D03*
X469287Y-1065390D02*
G54D22*
D03*
X312800Y-1099936D02*
G54D14*
D03*
X320928Y-999086D02*
G54D112*
D03*
X295526Y-999086D02*
G54D17*
D03*
X365640Y-1005184D02*
G54D26*
D03*
X503836Y-453161D02*
G54D46*
D03*
X561763Y-871049D02*
G54D27*
D03*
X1507786Y-763338D02*
G54D26*
D03*
X1609912Y-776043D02*
G54D26*
D03*
X1558594Y-737679D02*
G54D35*
D03*
X1530143Y-737679D02*
G54D14*
D03*
X1576887Y-730821D02*
G54D43*
D03*
X1511850Y-730821D02*
G54D26*
D03*
X1322854Y-771468D02*
G54D26*
D03*
X1310660Y-816178D02*
G54D16*
D03*
X1312689Y-832438D02*
G54D28*
D03*
X1509818Y-584496D02*
G54D28*
D03*
X1528111Y-604822D02*
G54D23*
D03*
X1530143Y-584496D02*
G54D18*
D03*
X1857338Y-243072D02*
G54D16*
D03*
X1841088Y-273555D02*
G54D18*
D03*
X1832952Y-241038D02*
G54D18*
D03*
X1830920Y-253235D02*
G54D23*
D03*
X1810598Y-234942D02*
G54D26*
D03*
X1790780Y-240530D02*
G54D17*
D03*
X2072769Y-188201D02*
G54D16*
D03*
X2064636Y-196329D02*
G54D23*
D03*
X2056508Y-188201D02*
G54D26*
D03*
X2080892Y-196329D02*
G54D28*
D03*
X2091057Y-188201D02*
G54D16*
D03*
X2111379Y-188201D02*
G54D23*
D03*
X2245512Y-409719D02*
G54D28*
D03*
X2261765Y-409719D02*
G54D23*
D03*
X2082924Y-258320D02*
G54D27*
D03*
X2108336Y-258320D02*
G54D25*
D03*
X2111379Y-232910D02*
G54D23*
D03*
X2099187Y-245107D02*
G54D23*
D03*
X2159136Y-258320D02*
G54D75*
D03*
X2133734Y-258320D02*
G54D17*
D03*
X2745447Y-347487D02*
G54D94*
D03*
X2745447Y-313443D02*
G54D113*
D03*
X2176411Y-210558D02*
G54D16*
D03*
X2154059Y-214622D02*
G54D16*
D03*
X2154059Y-202430D02*
G54D16*
D03*
X2131699Y-202430D02*
G54D28*
D03*
X2647898Y-468657D02*
G54D32*
D03*
X2617418Y-474756D02*
G54D32*
D03*
X2617418Y-462559D02*
G54D32*
D03*
X2617418Y-450364D02*
G54D32*
D03*
X2647898Y-436143D02*
G54D32*
D03*
X2647898Y-423948D02*
G54D32*
D03*
X2631640Y-438175D02*
G54D32*
D03*
X2617418Y-438175D02*
G54D32*
D03*
X2574734Y-419884D02*
G54D33*
D03*
X2595064Y-419884D02*
G54D32*
D03*
X2566606Y-442241D02*
G54D82*
D03*
X2574734Y-407685D02*
G54D33*
D03*
X2595064Y-407685D02*
G54D32*
D03*
X2558485Y-344690D02*
G54D16*
D03*
X2566456Y-352973D02*
G54D43*
D03*
X2574734Y-395495D02*
G54D33*
D03*
X2595064Y-395495D02*
G54D32*
D03*
X2237381Y-419884D02*
G54D28*
D03*
X2253634Y-419884D02*
G54D23*
D03*
X2271928Y-417847D02*
G54D28*
D03*
X2332900Y-421916D02*
G54D26*
D03*
X2316639Y-425980D02*
G54D26*
D03*
X2304442Y-430044D02*
G54D16*
D03*
X2286159Y-417847D02*
G54D23*
D03*
X2271928Y-432079D02*
G54D28*
D03*
X2513766Y-377205D02*
G54D16*
D03*
X2493448Y-379237D02*
G54D28*
D03*
X2517830Y-365008D02*
G54D16*
D03*
X2530027Y-405653D02*
G54D26*
D03*
X2530027Y-393463D02*
G54D26*
D03*
X2615384Y-395495D02*
G54D32*
D03*
X2615384Y-407685D02*
G54D32*
D03*
X2635706Y-393463D02*
G54D32*
D03*
X2633687Y-405653D02*
G54D33*
D03*
X2212990Y-401596D02*
G54D28*
D03*
X2269898Y-401596D02*
G54D16*
D03*
X2290223Y-405653D02*
G54D26*
D03*
X2302410Y-405653D02*
G54D33*
D03*
X2314607Y-405653D02*
G54D28*
D03*
X2660100Y-379237D02*
G54D33*
D03*
X2664164Y-367042D02*
G54D33*
D03*
X2676356Y-375173D02*
G54D33*
D03*
X2680420Y-362976D02*
G54D33*
D03*
X2694657Y-397532D02*
G54D23*
D03*
X2694657Y-411751D02*
G54D23*
D03*
X2694657Y-436143D02*
G54D23*
D03*
X2649930Y-411751D02*
G54D32*
D03*
X2651975Y-190233D02*
G54D33*
D03*
X2651975Y-202430D02*
G54D33*
D03*
X2558485Y-259333D02*
G54D16*
D03*
X2706839Y-212590D02*
G54D33*
D03*
X2716999Y-295147D02*
G54D94*
D03*
X2716999Y-329194D02*
G54D93*
D03*
X2580842Y-513369D02*
G54D32*
D03*
X2637751Y-505236D02*
G54D33*
D03*
X2599128Y-501172D02*
G54D32*
D03*
X2584906Y-497108D02*
G54D32*
D03*
X2617418Y-486950D02*
G54D32*
D03*
X2727156Y-866477D02*
G54D114*
D03*
X2727156Y-832438D02*
G54D93*
D03*
X2759668Y-832438D02*
G54D93*
D03*
X2759668Y-866477D02*
G54D114*
D03*
X2727159Y-806015D02*
G54D33*
D03*
X2743428Y-816178D02*
G54D32*
D03*
X2775940Y-816178D02*
G54D32*
D03*
X2743428Y-714562D02*
G54D32*
D03*
X2735287Y-722690D02*
G54D33*
D03*
X2735287Y-706437D02*
G54D33*
D03*
X2735287Y-690178D02*
G54D33*
D03*
X2723095Y-698306D02*
G54D33*
D03*
X2292888Y-542460D02*
G54D18*
D03*
X2564576Y-547916D02*
G54D115*
D03*
X2550355Y-543852D02*
G54D26*
D03*
X2536126Y-541817D02*
G54D33*
D03*
X2572714Y-623117D02*
G54D32*
D03*
X2572714Y-669851D02*
G54D32*
D03*
X2304442Y-570272D02*
G54D16*
D03*
X2290223Y-570272D02*
G54D26*
D03*
X2318671Y-570272D02*
G54D28*
D03*
X2552386Y-578908D02*
G54D106*
D03*
X2528810Y-567022D02*
G54D18*
D03*
X2631640Y-623117D02*
G54D32*
D03*
X2570672Y-570272D02*
G54D43*
D03*
X2572714Y-503204D02*
G54D32*
D03*
X2278026Y-663752D02*
G54D16*
D03*
X2275994Y-736922D02*
G54D18*
D03*
X2278026Y-614984D02*
G54D16*
D03*
X2278026Y-590592D02*
G54D16*
D03*
X2278026Y-570272D02*
G54D16*
D03*
X2278026Y-545881D02*
G54D16*
D03*
X2538158Y-653597D02*
G54D16*
D03*
X2578798Y-694242D02*
G54D33*
D03*
X2593034Y-696274D02*
G54D32*
D03*
X2605226Y-700341D02*
G54D32*
D03*
X2617418Y-704405D02*
G54D32*
D03*
X2523931Y-917796D02*
G54D28*
D03*
X2527995Y-645464D02*
G54D28*
D03*
X2527995Y-633272D02*
G54D28*
D03*
X2517830Y-612952D02*
G54D16*
D03*
X2527995Y-621075D02*
G54D28*
D03*
X2761703Y-765370D02*
G54D33*
D03*
X2771876Y-755212D02*
G54D32*
D03*
X2769844Y-738954D02*
G54D32*
D03*
X2761703Y-747084D02*
G54D33*
D03*
X2743428Y-747084D02*
G54D32*
D03*
X2735287Y-738954D02*
G54D33*
D03*
X2302410Y-663752D02*
G54D33*
D03*
X2332900Y-649533D02*
G54D26*
D03*
X2416222Y-654862D02*
G54D38*
D03*
X2385742Y-654862D02*
G54D45*
D03*
X2290223Y-663752D02*
G54D26*
D03*
X2320706Y-639368D02*
G54D23*
D03*
X2304442Y-614984D02*
G54D16*
D03*
X2292248Y-614984D02*
G54D26*
D03*
X2320706Y-614984D02*
G54D23*
D03*
X2497010Y-961994D02*
G54D25*
D03*
X2485318Y-889340D02*
G54D43*
D03*
X2485318Y-832438D02*
G54D43*
D03*
X2485318Y-846660D02*
G54D43*
D03*
X2485318Y-875116D02*
G54D43*
D03*
X2497515Y-669851D02*
G54D18*
D03*
X2641815Y-614984D02*
G54D33*
D03*
X2552890Y-961994D02*
G54D25*
D03*
X2552386Y-612952D02*
G54D61*
D03*
X2723095Y-682048D02*
G54D33*
D03*
X2554421Y-686112D02*
G54D23*
D03*
X2566608Y-690178D02*
G54D43*
D03*
X2546288Y-677981D02*
G54D23*
D03*
X2550355Y-657661D02*
G54D26*
D03*
X2560510Y-663752D02*
G54D16*
D03*
X2298346Y-722690D02*
G54D18*
D03*
X2310541Y-706437D02*
G54D18*
D03*
X2288191Y-706437D02*
G54D18*
D03*
X2320706Y-714562D02*
G54D23*
D03*
X2328836Y-706437D02*
G54D16*
D03*
X2341028Y-706437D02*
G54D16*
D03*
X2743428Y-730821D02*
G54D32*
D03*
X2771876Y-787730D02*
G54D32*
D03*
X2759684Y-789762D02*
G54D32*
D03*
X2771876Y-771468D02*
G54D32*
D03*
X2182507Y-753176D02*
G54D18*
D03*
X2164221Y-752416D02*
G54D55*
D03*
X2164221Y-786462D02*
G54D50*
D03*
X2184541Y-785695D02*
G54D26*
D03*
X2164221Y-717359D02*
G54D55*
D03*
X2182507Y-645464D02*
G54D18*
D03*
X2164221Y-683315D02*
G54D50*
D03*
X2212990Y-617016D02*
G54D28*
D03*
X2178443Y-614984D02*
G54D28*
D03*
X2174379Y-598723D02*
G54D28*
D03*
X2265829Y-566208D02*
G54D23*
D03*
X2235346Y-566208D02*
G54D16*
D03*
X2141864Y-570272D02*
G54D16*
D03*
X2125603Y-572307D02*
G54D23*
D03*
X2188605Y-875116D02*
G54D26*
D03*
X2194704Y-717359D02*
G54D19*
D03*
X2194704Y-683315D02*
G54D14*
D03*
X2570670Y-821768D02*
G54D94*
D03*
X2570670Y-787730D02*
G54D94*
D03*
X2582862Y-738954D02*
G54D33*
D03*
X2591000Y-749116D02*
G54D32*
D03*
X2599128Y-738954D02*
G54D32*
D03*
X2615384Y-765370D02*
G54D32*
D03*
X2666186Y-781628D02*
G54D32*
D03*
X2649930Y-751148D02*
G54D32*
D03*
X2643834Y-765370D02*
G54D32*
D03*
X2629623Y-765370D02*
G54D33*
D03*
X2705328Y-961994D02*
G54D25*
D03*
X2705328Y-987399D02*
G54D25*
D03*
X2379641Y-986891D02*
G54D23*
D03*
X2344587Y-987399D02*
G54D25*
D03*
X2497010Y-987399D02*
G54D25*
D03*
X2552890Y-987399D02*
G54D25*
D03*
X2497010Y-1139824D02*
G54D25*
D03*
X2497010Y-1165222D02*
G54D25*
D03*
X2497010Y-1190632D02*
G54D25*
D03*
X2497010Y-1216030D02*
G54D25*
D03*
X2497010Y-1114412D02*
G54D25*
D03*
X2497010Y-1089014D02*
G54D25*
D03*
X2497010Y-1063606D02*
G54D25*
D03*
X2497010Y-1038206D02*
G54D25*
D03*
X2497010Y-1012804D02*
G54D25*
D03*
X2513766Y-1062088D02*
G54D16*
D03*
X2552890Y-1216030D02*
G54D25*
D03*
X2552890Y-1190632D02*
G54D25*
D03*
X2552890Y-1165222D02*
G54D25*
D03*
X2552890Y-1139824D02*
G54D25*
D03*
X2375570Y-1185293D02*
G54D116*
D03*
X2375570Y-1219336D02*
G54D110*
D03*
X2395898Y-1186058D02*
G54D28*
D03*
X2430444Y-1297066D02*
G54D14*
D03*
X2430444Y-1331107D02*
G54D46*
D03*
X2412158Y-1326288D02*
G54D33*
D03*
X1465107Y-1467784D02*
G54D68*
D03*
X1465107Y-1501820D02*
G54D68*
D03*
X1448853Y-1446189D02*
G54D43*
D03*
X1479336Y-1521383D02*
G54D18*
D03*
X1465107Y-1404279D02*
G54D20*
D03*
X1473240Y-1346606D02*
G54D16*
D03*
X1479336Y-1320190D02*
G54D18*
D03*
X1465107Y-1370233D02*
G54D51*
D03*
X2141864Y-1129151D02*
G54D16*
D03*
X2269898Y-1444157D02*
G54D16*
D03*
X2217056Y-1438058D02*
G54D18*
D03*
X2245512Y-1427896D02*
G54D28*
D03*
X2202834Y-1425864D02*
G54D33*
D03*
X1308622Y-1263284D02*
G54D18*
D03*
X1304558Y-1116954D02*
G54D18*
D03*
X1312689Y-1108831D02*
G54D28*
D03*
X1320814Y-1263284D02*
G54D26*
D03*
X1320814Y-1116954D02*
G54D26*
D03*
X1406176Y-1496999D02*
G54D28*
D03*
X1420400Y-1446189D02*
G54D18*
D03*
X1432595Y-1501820D02*
G54D19*
D03*
X1432595Y-1467784D02*
G54D19*
D03*
X1436659Y-1525447D02*
G54D18*
D03*
X2145928Y-1448224D02*
G54D26*
D03*
X2190640Y-1447456D02*
G54D19*
D03*
X2190640Y-1481502D02*
G54D13*
D03*
X2192669Y-1155570D02*
G54D23*
D03*
X2186574Y-1224668D02*
G54D28*
D03*
X2227218Y-1472608D02*
G54D23*
D03*
X1564692Y-1454320D02*
G54D18*
D03*
X1617532Y-1454320D02*
G54D26*
D03*
X2643834Y-1511220D02*
G54D32*
D03*
X2552890Y-1419262D02*
G54D25*
D03*
X2552890Y-1470072D02*
G54D25*
D03*
X2552890Y-1444660D02*
G54D25*
D03*
X2525963Y-1368452D02*
G54D27*
D03*
X2525963Y-1343052D02*
G54D27*
D03*
X2525963Y-1317647D02*
G54D27*
D03*
X2525963Y-1292242D02*
G54D27*
D03*
X2525963Y-1393852D02*
G54D27*
D03*
X2344587Y-1470072D02*
G54D25*
D03*
X2344587Y-1444660D02*
G54D25*
D03*
X2344587Y-1419262D02*
G54D25*
D03*
X2344587Y-1393852D02*
G54D25*
D03*
X2344587Y-1368452D02*
G54D25*
D03*
X2344587Y-1343052D02*
G54D25*
D03*
X2497010Y-1419262D02*
G54D25*
D03*
X2497010Y-1444660D02*
G54D25*
D03*
X2497004Y-1470072D02*
G54D117*
D03*
X2344587Y-1266837D02*
G54D25*
D03*
X2344587Y-1292242D02*
G54D25*
D03*
X2344587Y-1317647D02*
G54D25*
D03*
X2320706Y-1281577D02*
G54D23*
D03*
X2277015Y-1143126D02*
G54D100*
D03*
X2277015Y-1109080D02*
G54D57*
D03*
X2613354Y-1342542D02*
G54D32*
D03*
X2613354Y-1366934D02*
G54D32*
D03*
X2629623Y-1379120D02*
G54D33*
D03*
X2705328Y-1368452D02*
G54D25*
D03*
X2705328Y-1343052D02*
G54D25*
D03*
X2705328Y-1317647D02*
G54D25*
D03*
X2613354Y-1265316D02*
G54D32*
D03*
X2613354Y-1291732D02*
G54D32*
D03*
X2613354Y-1314091D02*
G54D32*
D03*
X2682455Y-1318155D02*
G54D33*
D03*
X2658058Y-1276746D02*
G54D32*
D03*
X2705328Y-1292242D02*
G54D25*
D03*
X2705328Y-1266837D02*
G54D25*
D03*
X2485318Y-1051928D02*
G54D43*
D03*
X1888332Y-1492932D02*
G54D27*
D03*
X1885794Y-1163698D02*
G54D16*
D03*
X1885794Y-1143378D02*
G54D16*
D03*
X2497010Y-1393852D02*
G54D25*
D03*
X2497010Y-1343052D02*
G54D25*
D03*
X2497010Y-1368452D02*
G54D25*
D03*
X2705328Y-1241440D02*
G54D25*
D03*
X2705328Y-1216030D02*
G54D25*
D03*
X2705328Y-1190632D02*
G54D25*
D03*
X2705328Y-1139824D02*
G54D25*
D03*
X2705328Y-1165222D02*
G54D25*
D03*
X2676356Y-1190122D02*
G54D33*
D03*
X2647898Y-1219329D02*
G54D34*
D03*
X2615386Y-1219329D02*
G54D85*
D03*
X2613354Y-1240932D02*
G54D32*
D03*
X2647898Y-1185293D02*
G54D34*
D03*
X2615386Y-1185293D02*
G54D85*
D03*
X2625546Y-1155570D02*
G54D32*
D03*
X2645866Y-1145412D02*
G54D32*
D03*
X2800324Y-1231270D02*
G54D25*
D03*
X2800324Y-1256682D02*
G54D25*
D03*
X2800324Y-1205872D02*
G54D25*
D03*
X2800324Y-1155067D02*
G54D25*
D03*
X2800324Y-1180464D02*
G54D25*
D03*
X2552890Y-1393852D02*
G54D25*
D03*
X2552890Y-1343052D02*
G54D25*
D03*
X2552890Y-1368452D02*
G54D25*
D03*
X2552890Y-1266837D02*
G54D25*
D03*
X2552890Y-1292242D02*
G54D25*
D03*
X2552890Y-1317647D02*
G54D25*
D03*
X2582862Y-1185293D02*
G54D100*
D03*
X2582862Y-1219336D02*
G54D57*
D03*
X2450772Y-1328313D02*
G54D18*
D03*
X2450772Y-1366934D02*
G54D18*
D03*
X2479222Y-1429930D02*
G54D16*
D03*
X2497010Y-1317647D02*
G54D25*
D03*
X2497010Y-1292242D02*
G54D25*
D03*
X2497010Y-1266837D02*
G54D25*
D03*
X2731223Y-1285636D02*
G54D33*
D03*
X2741383Y-1291732D02*
G54D33*
D03*
X2749511Y-1273446D02*
G54D33*
D03*
X1867504Y-1208410D02*
G54D18*
D03*
X1883762Y-1125085D02*
G54D28*
D03*
X1879696Y-1102735D02*
G54D18*
D03*
X1873600Y-1224668D02*
G54D26*
D03*
X1881730Y-1249054D02*
G54D16*
D03*
X1761827Y-1488868D02*
G54D26*
D03*
X1759798Y-1395382D02*
G54D18*
D03*
X1761827Y-1228734D02*
G54D26*
D03*
X1792310Y-1265316D02*
G54D26*
D03*
X1786213Y-1342542D02*
G54D18*
D03*
X1779858Y-1281577D02*
G54D28*
D03*
X1767158Y-1266080D02*
G54D16*
D03*
X1725241Y-1051928D02*
G54D26*
D03*
X1721177Y-976734D02*
G54D16*
D03*
X1708987Y-1055992D02*
G54D28*
D03*
X1757760Y-1133218D02*
G54D16*
D03*
X1754456Y-1145412D02*
G54D23*
D03*
X1743534Y-1121021D02*
G54D28*
D03*
X1755728Y-897468D02*
G54D28*
D03*
X1743534Y-1193421D02*
G54D50*
D03*
X1743534Y-1005184D02*
G54D28*
D03*
X1737438Y-1047861D02*
G54D23*
D03*
X1828888Y-1082408D02*
G54D28*
D03*
X1621596Y-1078344D02*
G54D23*
D03*
X1511850Y-1090030D02*
G54D35*
D03*
X1511850Y-1055992D02*
G54D35*
D03*
X1615500Y-1194188D02*
G54D28*
D03*
X1532178Y-1198252D02*
G54D26*
D03*
X1609404Y-1167764D02*
G54D23*
D03*
X1582986Y-1167764D02*
G54D16*
D03*
X1261874Y-997054D02*
G54D25*
D03*
X1253751Y-1062850D02*
G54D45*
D03*
X1253751Y-1028804D02*
G54D31*
D03*
X1247655Y-1139314D02*
G54D23*
D03*
X1255783Y-1116954D02*
G54D16*
D03*
X1263913Y-1108831D02*
G54D16*
D03*
X1247655Y-814146D02*
G54D23*
D03*
X1265948Y-832438D02*
G54D28*
D03*
X1587052Y-1139314D02*
G54D23*
D03*
X1609404Y-1133218D02*
G54D23*
D03*
X1609404Y-1149471D02*
G54D23*
D03*
X1621596Y-1125085D02*
G54D23*
D03*
X1660212Y-1177930D02*
G54D96*
D03*
X1660212Y-1211970D02*
G54D99*
D03*
X1678497Y-1064114D02*
G54D23*
D03*
X1690692Y-1211970D02*
G54D118*
D03*
X1690692Y-1177930D02*
G54D69*
D03*
X1696790Y-1238892D02*
G54D28*
D03*
X1694761Y-1265316D02*
G54D16*
D03*
X1670374Y-1265316D02*
G54D18*
D03*
X1629729Y-1206378D02*
G54D16*
D03*
X2446705Y-1133218D02*
G54D28*
D03*
X2442641Y-1104767D02*
G54D28*
D03*
X2297333Y-1124074D02*
G54D23*
D03*
X2297333Y-1140327D02*
G54D23*
D03*
X2344587Y-1114412D02*
G54D25*
D03*
X2344587Y-1139824D02*
G54D25*
D03*
X1778080Y-1242956D02*
G54D28*
D03*
X1786213Y-1218572D02*
G54D18*
D03*
X1774016Y-1218572D02*
G54D18*
D03*
X1784179Y-1155570D02*
G54D26*
D03*
X1706953Y-1003150D02*
G54D16*
D03*
X2525963Y-1241440D02*
G54D27*
D03*
X2525963Y-1266837D02*
G54D27*
D03*
X2525963Y-1216030D02*
G54D27*
D03*
X2525963Y-1190632D02*
G54D27*
D03*
X2525963Y-1165222D02*
G54D27*
D03*
X2523931Y-1116954D02*
G54D28*
D03*
X2523931Y-1011280D02*
G54D28*
D03*
X2042278Y-997054D02*
G54D43*
D03*
X2032116Y-1033632D02*
G54D16*
D03*
X2026025Y-1007216D02*
G54D16*
D03*
X1761827Y-1196215D02*
G54D26*
D03*
X1960986Y-1249054D02*
G54D18*
D03*
X1960986Y-1218572D02*
G54D18*
D03*
X1963023Y-1198252D02*
G54D16*
D03*
X1969119Y-1167764D02*
G54D18*
D03*
X1965055Y-1234833D02*
G54D33*
D03*
X1967087Y-1074280D02*
G54D16*
D03*
X1983348Y-1094602D02*
G54D23*
D03*
X1999601Y-1198252D02*
G54D28*
D03*
X1997569Y-1163698D02*
G54D26*
D03*
X2009764Y-1159634D02*
G54D16*
D03*
X2042278Y-1163698D02*
G54D43*
D03*
X2009764Y-1106792D02*
G54D16*
D03*
X2007732Y-1092573D02*
G54D18*
D03*
X2026025Y-1106792D02*
G54D16*
D03*
X2038212Y-1100701D02*
G54D28*
D03*
X2038212Y-1112890D02*
G54D28*
D03*
X1641916Y-1200279D02*
G54D28*
D03*
X1643948Y-1066154D02*
G54D23*
D03*
X1656145Y-1062088D02*
G54D23*
D03*
X1841088Y-1025502D02*
G54D18*
D03*
X1855312Y-1035664D02*
G54D26*
D03*
X1867504Y-1071232D02*
G54D18*
D03*
X1871568Y-1058526D02*
G54D28*
D03*
X1339108Y-1116954D02*
G54D18*
D03*
X1339108Y-1102735D02*
G54D18*
D03*
X1345206Y-1263284D02*
G54D26*
D03*
X1621596Y-1108831D02*
G54D23*
D03*
X1609404Y-1100701D02*
G54D23*
D03*
X1621596Y-1090538D02*
G54D23*
D03*
X2344587Y-1038206D02*
G54D25*
D03*
X2344587Y-1012804D02*
G54D25*
D03*
X2296312Y-1017371D02*
G54D26*
D03*
X2070729Y-1049890D02*
G54D16*
D03*
X2072769Y-970638D02*
G54D16*
D03*
X2052444Y-1127119D02*
G54D23*
D03*
X2058540Y-1003150D02*
G54D28*
D03*
X2058540Y-988920D02*
G54D28*
D03*
X2064636Y-1076312D02*
G54D23*
D03*
X2062604Y-1039730D02*
G54D28*
D03*
X2052444Y-1112890D02*
G54D23*
D03*
X2645866Y-1110858D02*
G54D32*
D03*
X2643834Y-1086474D02*
G54D32*
D03*
X2705328Y-1114412D02*
G54D25*
D03*
X2705328Y-1089014D02*
G54D25*
D03*
X2705328Y-1063606D02*
G54D25*
D03*
X2643834Y-1062088D02*
G54D32*
D03*
X2705328Y-1038206D02*
G54D25*
D03*
X2705328Y-1012804D02*
G54D25*
D03*
X2639770Y-1039730D02*
G54D32*
D03*
X2737329Y-1072242D02*
G54D23*
D03*
X1769447Y-657661D02*
G54D17*
D03*
X1719150Y-568240D02*
G54D26*
D03*
X1999601Y-634034D02*
G54D50*
D03*
X1969119Y-634034D02*
G54D14*
D03*
X1934572Y-638611D02*
G54D14*
D03*
X2196738Y-635304D02*
G54D16*
D03*
X2170312Y-631240D02*
G54D43*
D03*
X2040246Y-669851D02*
G54D26*
D03*
X2050409Y-682048D02*
G54D28*
D03*
X2072769Y-639368D02*
G54D16*
D03*
X345320Y-893404D02*
G54D18*
D03*
X369706Y-911697D02*
G54D26*
D03*
X369706Y-899502D02*
G54D26*
D03*
X367672Y-948278D02*
G54D18*
D03*
X365640Y-932017D02*
G54D26*
D03*
X385965Y-942179D02*
G54D23*
D03*
X460146Y-871049D02*
G54D25*
D03*
X485540Y-871049D02*
G54D25*
D03*
X918425Y-1088506D02*
G54D16*
D03*
X908262Y-1076312D02*
G54D18*
D03*
X918425Y-1043794D02*
G54D16*
D03*
X914361Y-1148201D02*
G54D96*
D03*
X914361Y-1114165D02*
G54D36*
D03*
X937224Y-1043284D02*
G54D26*
D03*
X942812Y-1114165D02*
G54D46*
D03*
X942812Y-1148201D02*
G54D38*
D03*
X955006Y-978758D02*
G54D18*
D03*
X959073Y-1076312D02*
G54D28*
D03*
X961105Y-1161666D02*
G54D26*
D03*
X1129784Y-808047D02*
G54D43*
D03*
X1130294Y-652068D02*
G54D28*
D03*
X1130294Y-715581D02*
G54D28*
D03*
X1130294Y-734631D02*
G54D28*
D03*
X1125717Y-753176D02*
G54D28*
D03*
X1121650Y-771468D02*
G54D18*
D03*
X1117586Y-716594D02*
G54D18*
D03*
X1117586Y-671885D02*
G54D18*
D03*
X1202940Y-832438D02*
G54D18*
D03*
X1196845Y-775532D02*
G54D26*
D03*
X1196845Y-761306D02*
G54D26*
D03*
X1211074Y-761306D02*
G54D18*
D03*
X1148069Y-838537D02*
G54D28*
D03*
X1164330Y-980792D02*
G54D18*
D03*
X1172460Y-970638D02*
G54D28*
D03*
X1182623Y-984856D02*
G54D16*
D03*
X1160266Y-948278D02*
G54D28*
D03*
X1176525Y-952342D02*
G54D18*
D03*
X390943Y-1490390D02*
G54D25*
D03*
X385965Y-1294531D02*
G54D84*
D03*
X385965Y-1260490D02*
G54D39*
D03*
X392066Y-1337718D02*
G54D14*
D03*
X392066Y-1371754D02*
G54D14*
D03*
X384692Y-1208920D02*
G54D38*
D03*
X384692Y-1174874D02*
G54D52*
D03*
X396122Y-956406D02*
G54D26*
D03*
X1162298Y-927958D02*
G54D16*
D03*
X1178557Y-932017D02*
G54D23*
D03*
X495706Y-1273446D02*
G54D28*
D03*
X1274076Y-1263284D02*
G54D18*
D03*
X1483400Y-1090030D02*
G54D22*
D03*
X1483400Y-1055992D02*
G54D22*
D03*
X1576887Y-962504D02*
G54D43*
D03*
X1593140Y-962504D02*
G54D16*
D03*
X1625665Y-962504D02*
G54D16*
D03*
X1609404Y-962504D02*
G54D23*
D03*
X1528111Y-962504D02*
G54D23*
D03*
X1560882Y-962250D02*
G54D23*
D03*
X1544375Y-962504D02*
G54D16*
D03*
X1818728Y-1051928D02*
G54D23*
D03*
X1802472Y-1047861D02*
G54D28*
D03*
X1796376Y-1080376D02*
G54D23*
D03*
X1765894Y-970638D02*
G54D26*
D03*
X2273962Y-990190D02*
G54D104*
D03*
X2275994Y-763338D02*
G54D18*
D03*
X2296312Y-968603D02*
G54D26*
D03*
X2344587Y-961994D02*
G54D25*
D03*
X2316639Y-909665D02*
G54D26*
D03*
X2284125Y-915764D02*
G54D28*
D03*
X1426494Y-1090030D02*
G54D39*
D03*
X1426494Y-1055992D02*
G54D39*
D03*
X1422430Y-1031600D02*
G54D23*
D03*
X1407139Y-1033536D02*
G54D18*
D03*
X1436659Y-1031600D02*
G54D18*
D03*
X1454947Y-1090030D02*
G54D14*
D03*
X1454947Y-1055992D02*
G54D14*
D03*
X1450888Y-1031600D02*
G54D16*
D03*
X1631756Y-1070213D02*
G54D23*
D03*
X1763854Y-1005184D02*
G54D23*
D03*
X1641916Y-962504D02*
G54D28*
D03*
X1662244Y-995019D02*
G54D28*
D03*
X1690692Y-834473D02*
G54D23*
D03*
X1690692Y-999086D02*
G54D23*
D03*
X1879696Y-1084440D02*
G54D18*
D03*
X1999601Y-974694D02*
G54D28*
D03*
X1239524Y-1149471D02*
G54D26*
D03*
X438807Y-1065390D02*
G54D22*
D03*
X416447Y-1066154D02*
G54D26*
D03*
X416447Y-1051928D02*
G54D26*
D03*
X416447Y-1080376D02*
G54D26*
D03*
X416447Y-1037696D02*
G54D26*
D03*
X426610Y-1005184D02*
G54D28*
D03*
X420511Y-982824D02*
G54D23*
D03*
X898100Y-1090538D02*
G54D26*
D03*
X889459Y-1178438D02*
G54D23*
D03*
X885905Y-1148201D02*
G54D44*
D03*
X885905Y-1114165D02*
G54D95*
D03*
X875748Y-1043794D02*
G54D26*
D03*
X892001Y-1043794D02*
G54D28*
D03*
X867620Y-1005184D02*
G54D16*
D03*
X885903Y-911697D02*
G54D23*
D03*
X889972Y-986891D02*
G54D16*
D03*
X885903Y-950310D02*
G54D23*
D03*
X2050409Y-1139314D02*
G54D28*
D03*
X2046345Y-1151511D02*
G54D28*
D03*
X2048377Y-1037696D02*
G54D16*
D03*
X410936Y-1490390D02*
G54D25*
D03*
X402221Y-1452288D02*
G54D28*
D03*
X400186Y-1436029D02*
G54D16*
D03*
X418482Y-1453047D02*
G54D14*
D03*
X418482Y-1419011D02*
G54D14*
D03*
X412383Y-1395382D02*
G54D26*
D03*
X410351Y-1314091D02*
G54D28*
D03*
X418482Y-1337718D02*
G54D14*
D03*
X418482Y-1371754D02*
G54D14*
D03*
X290976Y-1490390D02*
G54D25*
D03*
X290448Y-1453047D02*
G54D31*
D03*
X290448Y-1371754D02*
G54D31*
D03*
X290448Y-1419011D02*
G54D31*
D03*
X272155Y-1525447D02*
G54D16*
D03*
X270982Y-1490390D02*
G54D25*
D03*
X150217Y-1265316D02*
G54D18*
D03*
X153519Y-1208410D02*
G54D24*
D03*
X182734Y-1226702D02*
G54D26*
D03*
X183753Y-1175130D02*
G54D25*
D03*
X193400Y-936081D02*
G54D80*
D03*
X153519Y-1073769D02*
G54D24*
D03*
X983457Y-1086474D02*
G54D26*
D03*
X965164Y-1297066D02*
G54D14*
D03*
X965164Y-1331107D02*
G54D46*
D03*
X934678Y-1331107D02*
G54D37*
D03*
X934678Y-1297066D02*
G54D22*
D03*
X940777Y-1212474D02*
G54D16*
D03*
X930614Y-1352704D02*
G54D18*
D03*
X920460Y-1362867D02*
G54D43*
D03*
X910294Y-1354736D02*
G54D23*
D03*
X904196Y-1297066D02*
G54D31*
D03*
X904196Y-1331107D02*
G54D30*
D03*
X904196Y-1485569D02*
G54D31*
D03*
X904196Y-1451523D02*
G54D30*
D03*
X733485Y-1279544D02*
G54D18*
D03*
X780231Y-1297063D02*
G54D78*
D03*
X747706Y-1297066D02*
G54D22*
D03*
X798517Y-1297830D02*
G54D28*
D03*
X768034Y-1277513D02*
G54D18*
D03*
X800549Y-1263284D02*
G54D26*
D03*
X790391Y-1157602D02*
G54D16*
D03*
X763968Y-1150236D02*
G54D119*
D03*
X763968Y-1116200D02*
G54D119*
D03*
X733485Y-1076312D02*
G54D18*
D03*
X812743Y-1060056D02*
G54D16*
D03*
X809822Y-1040620D02*
G54D16*
D03*
X853388Y-1094602D02*
G54D18*
D03*
X839162Y-1102735D02*
G54D26*
D03*
X824938Y-1157602D02*
G54D16*
D03*
X847290Y-1074280D02*
G54D16*
D03*
X847290Y-903566D02*
G54D16*
D03*
X965169Y-1494967D02*
G54D26*
D03*
X912329Y-1521383D02*
G54D28*
D03*
X910294Y-1507154D02*
G54D23*
D03*
X975324Y-1433994D02*
G54D16*
D03*
X910294Y-1405544D02*
G54D23*
D03*
X932657Y-1384460D02*
G54D120*
D03*
X932657Y-1418498D02*
G54D78*
D03*
X995651Y-1331107D02*
G54D51*
D03*
X1013944Y-1241688D02*
G54D88*
D03*
X1013944Y-1207645D02*
G54D70*
D03*
X995651Y-1297066D02*
G54D20*
D03*
X1015969Y-1330352D02*
G54D18*
D03*
X731456Y-1150233D02*
G54D39*
D03*
X731456Y-1116197D02*
G54D39*
D03*
X725357Y-1033632D02*
G54D28*
D03*
X729421Y-1244988D02*
G54D28*
D03*
X729421Y-1259217D02*
G54D28*
D03*
X404250Y-1232801D02*
G54D16*
D03*
X422546Y-1253118D02*
G54D28*
D03*
X422546Y-1208410D02*
G54D28*
D03*
X446930Y-1265316D02*
G54D16*
D03*
X448962Y-1243720D02*
G54D77*
D03*
X458106Y-1280556D02*
G54D16*
D03*
X479444Y-1243720D02*
G54D52*
D03*
X477420Y-1265316D02*
G54D43*
D03*
X522129Y-1149471D02*
G54D23*
D03*
X522129Y-1116954D02*
G54D23*
D03*
X522129Y-1092573D02*
G54D23*
D03*
X499772Y-1196215D02*
G54D43*
D03*
X540417Y-1099428D02*
G54D35*
D03*
X516033Y-1055992D02*
G54D28*
D03*
X526193Y-1045826D02*
G54D23*
D03*
X540417Y-1065390D02*
G54D35*
D03*
X568873Y-1165730D02*
G54D23*
D03*
X570897Y-1127119D02*
G54D23*
D03*
X603419Y-1131183D02*
G54D26*
D03*
X628568Y-1131948D02*
G54D16*
D03*
X607486Y-1099428D02*
G54D39*
D03*
X579030Y-1099428D02*
G54D39*
D03*
X908008Y-909922D02*
G54D67*
D03*
X1046459Y-1177927D02*
G54D26*
D03*
X1005816Y-1124574D02*
G54D28*
D03*
X999281Y-1179375D02*
G54D33*
D03*
X1056614Y-1111877D02*
G54D16*
D03*
X1032232Y-1055227D02*
G54D106*
D03*
X1001750Y-1055224D02*
G54D46*
D03*
X1001750Y-1089273D02*
G54D14*
D03*
X1032232Y-1089271D02*
G54D15*
D03*
X1676473Y-236974D02*
G54D16*
D03*
X1678327Y-208523D02*
G54D18*
D03*
X1682564Y-220713D02*
G54D26*
D03*
X1688660Y-196329D02*
G54D28*
D03*
X172577Y-151620D02*
G54D26*
D03*
X235574Y-152128D02*
G54D18*
D03*
X208901Y-152130D02*
G54D121*
D03*
X133710Y-152130D02*
G54D81*
D03*
X171302Y-112239D02*
G54D76*
D03*
X131924Y-192265D02*
G54D16*
D03*
X338967Y-152130D02*
G54D81*
D03*
X263776Y-152130D02*
G54D121*
D03*
X301368Y-112239D02*
G54D122*
D03*
X310766Y-218686D02*
G54D16*
D03*
X679378Y-389142D02*
G54D26*
D03*
X660318Y-415815D02*
G54D16*
D03*
X655240Y-338846D02*
G54D52*
D03*
X657775Y-267713D02*
G54D123*
D03*
X655240Y-304802D02*
G54D19*
D03*
X657775Y-233672D02*
G54D100*
D03*
X635169Y-557822D02*
G54D27*
D03*
X635169Y-532930D02*
G54D67*
D03*
X637458Y-408195D02*
G54D16*
D03*
X637458Y-425980D02*
G54D16*
D03*
X635169Y-186423D02*
G54D67*
D03*
X635169Y-161015D02*
G54D67*
D03*
X901656Y-204970D02*
G54D23*
D03*
X876253Y-237230D02*
G54D52*
D03*
X840691Y-232143D02*
G54D35*
D03*
X967196Y-714562D02*
G54D26*
D03*
X967856Y-652226D02*
G54D16*
D03*
X987521Y-645464D02*
G54D26*
D03*
X921981Y-596180D02*
G54D26*
D03*
X908262Y-598723D02*
G54D18*
D03*
X886413Y-533438D02*
G54D20*
D03*
X886413Y-567476D02*
G54D20*
D03*
X896576Y-469422D02*
G54D48*
D03*
X688265Y-611428D02*
G54D16*
D03*
X683188Y-443763D02*
G54D43*
D03*
X744153Y-326651D02*
G54D63*
D03*
X416447Y-463323D02*
G54D124*
D03*
X416447Y-429280D02*
G54D125*
D03*
X490118Y-646988D02*
G54D26*
D03*
X454550Y-619048D02*
G54D16*
D03*
X556168Y-525056D02*
G54D72*
D03*
X561250Y-560620D02*
G54D16*
D03*
X561250Y-499648D02*
G54D16*
D03*
X554644Y-457227D02*
G54D60*
D03*
X708593Y-628446D02*
G54D96*
D03*
X708593Y-670615D02*
G54D103*
D03*
X708593Y-704659D02*
G54D71*
D03*
X708593Y-594402D02*
G54D99*
D03*
X709860Y-483133D02*
G54D16*
D03*
X705037Y-541817D02*
G54D26*
D03*
X704780Y-556810D02*
G54D18*
D03*
X739076Y-704659D02*
G54D84*
D03*
X739076Y-670615D02*
G54D21*
D03*
X739076Y-628446D02*
G54D44*
D03*
X739073Y-728278D02*
G54D23*
D03*
X755583Y-833706D02*
G54D67*
D03*
X769556Y-628446D02*
G54D69*
D03*
X774133Y-687379D02*
G54D35*
D03*
X774133Y-721423D02*
G54D36*
D03*
X792418Y-662228D02*
G54D23*
D03*
X776165Y-657661D02*
G54D28*
D03*
X774133Y-745050D02*
G54D26*
D03*
X842591Y-776930D02*
G54D16*
D03*
X806645Y-759274D02*
G54D18*
D03*
X817821Y-768926D02*
G54D18*
D03*
X840691Y-761306D02*
G54D26*
D03*
X857455Y-745810D02*
G54D86*
D03*
X820366Y-723201D02*
G54D26*
D03*
X857455Y-711771D02*
G54D15*
D03*
X639998Y-750892D02*
G54D48*
D03*
X640000Y-715827D02*
G54D73*
D03*
X640000Y-695007D02*
G54D73*
D03*
X640000Y-659947D02*
G54D73*
D03*
X640000Y-639114D02*
G54D73*
D03*
X800046Y-594402D02*
G54D52*
D03*
X769556Y-594402D02*
G54D118*
D03*
X739076Y-594402D02*
G54D29*
D03*
X791151Y-525556D02*
G54D35*
D03*
X763211Y-525556D02*
G54D22*
D03*
X464712Y-469158D02*
G54D75*
D03*
X464712Y-443763D02*
G54D75*
D03*
X459635Y-563920D02*
G54D20*
D03*
X459635Y-531908D02*
G54D20*
D03*
X459635Y-497870D02*
G54D20*
D03*
X485040Y-497870D02*
G54D14*
D03*
X485040Y-531908D02*
G54D14*
D03*
X485040Y-563920D02*
G54D14*
D03*
X500283Y-621583D02*
G54D28*
D03*
X530763Y-597956D02*
G54D14*
D03*
X505360Y-586018D02*
G54D26*
D03*
X530763Y-563920D02*
G54D14*
D03*
X505868Y-545881D02*
G54D16*
D03*
X623485Y-621583D02*
G54D67*
D03*
X627803Y-578396D02*
G54D18*
D03*
X612053Y-531908D02*
G54D22*
D03*
X612053Y-497870D02*
G54D22*
D03*
X621453Y-733366D02*
G54D48*
D03*
X595289Y-749116D02*
G54D23*
D03*
X623485Y-677473D02*
G54D67*
D03*
X596813Y-697798D02*
G54D28*
D03*
X1338091Y-997054D02*
G54D25*
D03*
X1312684Y-997054D02*
G54D25*
D03*
X1341140Y-1028804D02*
G54D39*
D03*
X1312692Y-1028804D02*
G54D31*
D03*
X1302526Y-938113D02*
G54D26*
D03*
X1272044Y-1116954D02*
G54D23*
D03*
X1270012Y-785695D02*
G54D18*
D03*
X1207007Y-1413677D02*
G54D33*
D03*
X1200908Y-1263284D02*
G54D23*
D03*
X1200908Y-925926D02*
G54D23*
D03*
X1202940Y-958440D02*
G54D18*
D03*
X1219204Y-1161666D02*
G54D28*
D03*
X1219204Y-1253118D02*
G54D28*
D03*
X1219204Y-1066154D02*
G54D28*
D03*
X1219204Y-1011280D02*
G54D28*
D03*
X1218437Y-1127884D02*
G54D16*
D03*
X1219204Y-1078344D02*
G54D28*
D03*
X1219204Y-1090538D02*
G54D28*
D03*
X1219204Y-1102735D02*
G54D28*
D03*
X1219204Y-1114925D02*
G54D28*
D03*
X1117586Y-1193170D02*
G54D18*
D03*
X1117586Y-1210442D02*
G54D18*
D03*
X1097266Y-1177927D02*
G54D23*
D03*
X1095234Y-1200279D02*
G54D18*
D03*
X1084561Y-1053446D02*
G54D16*
D03*
X1084561Y-1066154D02*
G54D16*
D03*
X1123688Y-1005184D02*
G54D16*
D03*
X1123688Y-980792D02*
G54D16*
D03*
X1095234Y-1385219D02*
G54D18*
D03*
X1115554Y-1437294D02*
G54D35*
D03*
X1115554Y-1471340D02*
G54D36*
D03*
X1107424Y-1358980D02*
G54D23*
D03*
X1087104Y-1287675D02*
G54D18*
D03*
X1097266Y-1242956D02*
G54D23*
D03*
X1113522Y-1242956D02*
G54D28*
D03*
X1125717Y-1293764D02*
G54D28*
D03*
X1127749Y-1242956D02*
G54D16*
D03*
X1066779Y-1399446D02*
G54D28*
D03*
X1050523Y-1387251D02*
G54D23*
D03*
X1046454Y-1471338D02*
G54D126*
D03*
X1046454Y-1437294D02*
G54D78*
D03*
X1046454Y-1331109D02*
G54D126*
D03*
X1066779Y-1328313D02*
G54D28*
D03*
X1046461Y-1207645D02*
G54D84*
D03*
X1046461Y-1241688D02*
G54D21*
D03*
X1046454Y-1297063D02*
G54D78*
D03*
X532287Y-1416466D02*
G54D44*
D03*
X507900Y-1486834D02*
G54D33*
D03*
X543468Y-1503088D02*
G54D28*
D03*
X532287Y-1382420D02*
G54D29*
D03*
X658293Y-1350670D02*
G54D16*
D03*
X668451Y-1360835D02*
G54D26*
D03*
X668451Y-1416466D02*
G54D96*
D03*
X668451Y-1382420D02*
G54D99*
D03*
X693853Y-1402494D02*
G54D28*
D03*
X694874Y-1350670D02*
G54D28*
D03*
X717226Y-1416466D02*
G54D45*
D03*
X717226Y-1382420D02*
G54D77*
D03*
X694874Y-1421798D02*
G54D28*
D03*
X733485Y-1360835D02*
G54D18*
D03*
X747706Y-1331107D02*
G54D37*
D03*
X747714Y-1362867D02*
G54D23*
D03*
X780231Y-1331109D02*
G54D126*
D03*
X798517Y-1320190D02*
G54D28*
D03*
X786327Y-1350670D02*
G54D16*
D03*
X778197Y-1360835D02*
G54D26*
D03*
X674547Y-1521383D02*
G54D18*
D03*
X670483Y-1503088D02*
G54D28*
D03*
X666416Y-1486834D02*
G54D18*
D03*
X644067Y-1488868D02*
G54D28*
D03*
X719258Y-1507154D02*
G54D16*
D03*
X656254Y-1478704D02*
G54D16*
D03*
X717226Y-1485569D02*
G54D31*
D03*
X686744Y-1485569D02*
G54D14*
D03*
X654227Y-1444157D02*
G54D23*
D03*
X717226Y-1451523D02*
G54D30*
D03*
X686744Y-1451523D02*
G54D46*
D03*
X481479Y-1413677D02*
G54D26*
D03*
X477420Y-1431960D02*
G54D43*
D03*
X450994Y-1460413D02*
G54D16*
D03*
X444898Y-1417734D02*
G54D33*
D03*
X448962Y-1307995D02*
G54D28*
D03*
X448962Y-1373030D02*
G54D28*
D03*
X475388Y-1354736D02*
G54D26*
D03*
X475388Y-1331107D02*
G54D95*
D03*
X566838Y-1331107D02*
G54D30*
D03*
X562774Y-1382420D02*
G54D52*
D03*
X562774Y-1416466D02*
G54D38*
D03*
X566838Y-1297066D02*
G54D31*
D03*
X558710Y-1141346D02*
G54D43*
D03*
X560742Y-1271412D02*
G54D26*
D03*
X501802Y-1247020D02*
G54D23*
D03*
X505868Y-1297066D02*
G54D20*
D03*
X505868Y-1331107D02*
G54D51*
D03*
X528220Y-1269380D02*
G54D16*
D03*
X530255Y-1360835D02*
G54D28*
D03*
X536351Y-1331107D02*
G54D95*
D03*
X536351Y-1297066D02*
G54D39*
D03*
X552614Y-1314091D02*
G54D16*
D03*
X550580Y-1354736D02*
G54D28*
D03*
X546513Y-1271412D02*
G54D18*
D03*
X668456Y-131348D02*
G54D49*
D03*
X695888Y-226054D02*
G54D29*
D03*
X695888Y-196583D02*
G54D44*
D03*
X695888Y-162539D02*
G54D29*
D03*
X703508Y-133837D02*
G54D26*
D03*
X384692Y-1113147D02*
G54D43*
D03*
X366907Y-1113147D02*
G54D26*
D03*
X365640Y-1060815D02*
G54D12*
D03*
X347857Y-1063612D02*
G54D28*
D03*
X365640Y-1026776D02*
G54D20*
D03*
X2322738Y-1240932D02*
G54D18*
D03*
X2344587Y-1241440D02*
G54D25*
D03*
X2344587Y-1216030D02*
G54D25*
D03*
X2322738Y-1214508D02*
G54D18*
D03*
X2344587Y-1190632D02*
G54D25*
D03*
X2322738Y-1202314D02*
G54D18*
D03*
X2330866Y-1184026D02*
G54D28*
D03*
X1926439Y-214622D02*
G54D18*
D03*
X1934570Y-228846D02*
G54D18*
D03*
X1944727Y-224777D02*
G54D28*
D03*
X1948791Y-210558D02*
G54D18*
D03*
X1948791Y-196329D02*
G54D18*
D03*
X1973183Y-208523D02*
G54D18*
D03*
X1967087Y-196329D02*
G54D16*
D03*
X2588970Y-578400D02*
G54D85*
D03*
X1969119Y-599998D02*
G54D52*
D03*
X2019926Y-586528D02*
G54D43*
D03*
X1999601Y-599998D02*
G54D127*
D03*
X2021961Y-621075D02*
G54D16*
D03*
X1215138Y-588560D02*
G54D18*
D03*
X268088Y-303278D02*
G54D20*
D03*
X268088Y-337316D02*
G54D118*
D03*
X316864Y-334525D02*
G54D28*
D03*
X296544Y-337316D02*
G54D118*
D03*
X296544Y-303278D02*
G54D20*
D03*
X297047Y-258315D02*
G54D18*
D03*
X268088Y-473481D02*
G54D20*
D03*
X296544Y-473481D02*
G54D20*
D03*
X296544Y-439445D02*
G54D20*
D03*
X268088Y-439445D02*
G54D20*
D03*
X296544Y-404383D02*
G54D20*
D03*
X268088Y-404383D02*
G54D20*
D03*
X530763Y-497870D02*
G54D14*
D03*
X530255Y-470689D02*
G54D28*
D03*
X520097Y-450364D02*
G54D28*
D03*
X520097Y-436143D02*
G54D28*
D03*
X324995Y-540550D02*
G54D14*
D03*
X296544Y-540550D02*
G54D20*
D03*
X380880Y-568240D02*
G54D25*
D03*
X380880Y-542830D02*
G54D25*
D03*
G36*
X370260Y-506810D02*
X391500Y-506810D01*
X391500Y-528050D01*
X370260Y-528050D01*
X370260Y-506810D01*
G37*
X359541Y-562144D02*
G54D18*
D03*
X353443Y-540550D02*
G54D20*
D03*
X292480Y-1024744D02*
G54D21*
D03*
X292480Y-1058780D02*
G54D21*
D03*
X288414Y-686112D02*
G54D16*
D03*
X268088Y-914999D02*
G54D51*
D03*
X268088Y-877907D02*
G54D20*
D03*
X268088Y-843866D02*
G54D20*
D03*
X268088Y-949040D02*
G54D20*
D03*
X270120Y-808814D02*
G54D14*
D03*
X284350Y-724725D02*
G54D26*
D03*
X268088Y-674679D02*
G54D51*
D03*
X268088Y-707707D02*
G54D20*
D03*
X268088Y-741743D02*
G54D20*
D03*
X270120Y-774776D02*
G54D52*
D03*
X300603Y-949040D02*
G54D14*
D03*
X329059Y-949040D02*
G54D31*
D03*
X300603Y-914999D02*
G54D46*
D03*
X329059Y-914999D02*
G54D30*
D03*
X324995Y-893404D02*
G54D28*
D03*
X206615Y-866477D02*
G54D10*
D03*
X217281Y-1041762D02*
G54D26*
D03*
X217281Y-1025502D02*
G54D26*
D03*
X217281Y-1011280D02*
G54D26*
D03*
X266056Y-1207142D02*
G54D38*
D03*
X266056Y-1173098D02*
G54D31*
D03*
X285617Y-1133980D02*
G54D26*
D03*
X272155Y-1253118D02*
G54D26*
D03*
X268088Y-1133977D02*
G54D20*
D03*
X270128Y-999086D02*
G54D25*
D03*
X268088Y-1099936D02*
G54D20*
D03*
X229475Y-1371754D02*
G54D20*
D03*
X227443Y-1397414D02*
G54D18*
D03*
X229475Y-1337718D02*
G54D20*
D03*
X219313Y-1314091D02*
G54D18*
D03*
X243677Y-1307965D02*
G54D18*
D03*
X288414Y-1301897D02*
G54D16*
D03*
X999718Y-665027D02*
G54D39*
D03*
X999718Y-699066D02*
G54D29*
D03*
X2444673Y-194297D02*
G54D26*
D03*
X2460934Y-190233D02*
G54D26*
D03*
X2460934Y-202430D02*
G54D26*
D03*
X2460934Y-214622D02*
G54D26*
D03*
X2477188Y-214622D02*
G54D28*
D03*
X2483286Y-194297D02*
G54D16*
D03*
X2554421Y-190233D02*
G54D23*
D03*
X2562549Y-210558D02*
G54D16*
D03*
X2570672Y-194297D02*
G54D43*
D03*
X2588970Y-190233D02*
G54D32*
D03*
X2588970Y-202430D02*
G54D32*
D03*
X2588970Y-214622D02*
G54D32*
D03*
X1444789Y-541817D02*
G54D43*
D03*
X1462922Y-551194D02*
G54D60*
D03*
X1426504Y-528866D02*
G54D100*
D03*
X440831Y-574332D02*
G54D18*
D03*
X426356Y-568240D02*
G54D25*
D03*
X406292Y-580946D02*
G54D17*
D03*
X406292Y-555536D02*
G54D17*
D03*
X426356Y-542830D02*
G54D25*
D03*
X406292Y-530136D02*
G54D17*
D03*
X426356Y-517430D02*
G54D128*
D03*
X363608Y-1208410D02*
G54D28*
D03*
X343288Y-1207142D02*
G54D69*
D03*
X312800Y-1207142D02*
G54D38*
D03*
X343288Y-1173098D02*
G54D20*
D03*
X312800Y-1173098D02*
G54D14*
D03*
X358020Y-1155067D02*
G54D26*
D03*
X327027Y-1153535D02*
G54D26*
D03*
X207123Y-1214508D02*
G54D16*
D03*
X208647Y-1175130D02*
G54D75*
D03*
X208647Y-1107053D02*
G54D75*
D03*
X1853272Y-196329D02*
G54D23*
D03*
X1849208Y-214622D02*
G54D26*
D03*
X1875632Y-220713D02*
G54D28*
D03*
X1869536Y-230875D02*
G54D26*
D03*
X2598622Y-441977D02*
G54D129*
D03*
X2601162Y-214622D02*
G54D32*
D03*
X2603192Y-247139D02*
G54D32*
D03*
X2137800Y-192265D02*
G54D16*
D03*
X2154059Y-189720D02*
G54D16*
D03*
X2178443Y-190233D02*
G54D28*
D03*
X1889861Y-208523D02*
G54D26*
D03*
X1889861Y-196329D02*
G54D26*
D03*
X1889861Y-220713D02*
G54D26*
D03*
X1902048Y-226811D02*
G54D18*
D03*
X1910178Y-214622D02*
G54D28*
D03*
X1918311Y-226811D02*
G54D28*
D03*
X1753696Y-198361D02*
G54D16*
D03*
X1818728Y-198361D02*
G54D23*
D03*
G54D53*
X2800590Y-269742D02*
X2800590Y-251967D01*
X2282090Y-198361D02*
G54D16*
D03*
X2300711Y-191932D02*
G54D23*
D03*
X1922375Y-293882D02*
G54D28*
D03*
X1112010Y-138137D02*
G54D130*
D03*
X670228Y-557796D02*
G54D131*
D03*
G36*
X98232Y-1303257D02*
X204232Y-1303257D01*
X204232Y-1409257D01*
X98232Y-1409257D01*
X98232Y-1303257D01*
G37*
G36*
X1552592Y-238089D02*
X1658592Y-238089D01*
X1658592Y-344089D01*
X1552592Y-344089D01*
X1552592Y-238089D01*
G37*
G36*
X2723193Y-1303257D02*
X2829193Y-1303257D01*
X2829193Y-1409257D01*
X2723193Y-1409257D01*
X2723193Y-1303257D01*
G37*
G54D132*
X1652921Y-163309D02*
X1652921Y-106149D01*
G36*
X1647476Y-163309D02*
X1658366Y-163309D01*
X1658366Y-168754D01*
X1647476Y-168754D01*
X1647476Y-163309D01*
G37*
G36*
X1658366Y-106149D02*
X1647476Y-106149D01*
X1647476Y-100704D01*
X1658366Y-100704D01*
X1658366Y-106149D01*
G37*
G54D132*
X1665621Y-163309D02*
X1665621Y-106149D01*
G36*
X1660176Y-163309D02*
X1671066Y-163309D01*
X1671066Y-168754D01*
X1660176Y-168754D01*
X1660176Y-163309D01*
G37*
G36*
X1671066Y-106149D02*
X1660176Y-106149D01*
X1660176Y-100704D01*
X1671066Y-100704D01*
X1671066Y-106149D01*
G37*
G54D132*
X1678321Y-163309D02*
X1678321Y-106149D01*
G36*
X1672876Y-163309D02*
X1683766Y-163309D01*
X1683766Y-168754D01*
X1672876Y-168754D01*
X1672876Y-163309D01*
G37*
G36*
X1683766Y-106149D02*
X1672876Y-106149D01*
X1672876Y-100704D01*
X1683766Y-100704D01*
X1683766Y-106149D01*
G37*
G54D132*
X1691021Y-163309D02*
X1691021Y-106149D01*
G36*
X1685576Y-163309D02*
X1696466Y-163309D01*
X1696466Y-168754D01*
X1685576Y-168754D01*
X1685576Y-163309D01*
G37*
G36*
X1696466Y-106149D02*
X1685576Y-106149D01*
X1685576Y-100704D01*
X1696466Y-100704D01*
X1696466Y-106149D01*
G37*
G54D132*
X1703721Y-163309D02*
X1703721Y-106149D01*
G36*
X1698276Y-163309D02*
X1709166Y-163309D01*
X1709166Y-168754D01*
X1698276Y-168754D01*
X1698276Y-163309D01*
G37*
G36*
X1709166Y-106149D02*
X1698276Y-106149D01*
X1698276Y-100704D01*
X1709166Y-100704D01*
X1709166Y-106149D01*
G37*
G54D132*
X1716421Y-163309D02*
X1716421Y-106149D01*
G36*
X1710976Y-163309D02*
X1721866Y-163309D01*
X1721866Y-168754D01*
X1710976Y-168754D01*
X1710976Y-163309D01*
G37*
G36*
X1721866Y-106149D02*
X1710976Y-106149D01*
X1710976Y-100704D01*
X1721866Y-100704D01*
X1721866Y-106149D01*
G37*
G54D132*
X1729121Y-163309D02*
X1729121Y-106149D01*
G36*
X1723676Y-163309D02*
X1734566Y-163309D01*
X1734566Y-168754D01*
X1723676Y-168754D01*
X1723676Y-163309D01*
G37*
G36*
X1734566Y-106149D02*
X1723676Y-106149D01*
X1723676Y-100704D01*
X1734566Y-100704D01*
X1734566Y-106149D01*
G37*
G54D132*
X1741821Y-163309D02*
X1741821Y-106149D01*
G36*
X1736376Y-163309D02*
X1747266Y-163309D01*
X1747266Y-168754D01*
X1736376Y-168754D01*
X1736376Y-163309D01*
G37*
G36*
X1747266Y-106149D02*
X1736376Y-106149D01*
X1736376Y-100704D01*
X1747266Y-100704D01*
X1747266Y-106149D01*
G37*
G54D132*
X1754521Y-163309D02*
X1754521Y-106149D01*
G36*
X1749076Y-163309D02*
X1759966Y-163309D01*
X1759966Y-168754D01*
X1749076Y-168754D01*
X1749076Y-163309D01*
G37*
G36*
X1759966Y-106149D02*
X1749076Y-106149D01*
X1749076Y-100704D01*
X1759966Y-100704D01*
X1759966Y-106149D01*
G37*
G54D132*
X1767221Y-163309D02*
X1767221Y-106149D01*
G36*
X1761776Y-163309D02*
X1772666Y-163309D01*
X1772666Y-168754D01*
X1761776Y-168754D01*
X1761776Y-163309D01*
G37*
G36*
X1772666Y-106149D02*
X1761776Y-106149D01*
X1761776Y-100704D01*
X1772666Y-100704D01*
X1772666Y-106149D01*
G37*
G54D132*
X1779921Y-163309D02*
X1779921Y-106149D01*
G36*
X1774476Y-163309D02*
X1785366Y-163309D01*
X1785366Y-168754D01*
X1774476Y-168754D01*
X1774476Y-163309D01*
G37*
G36*
X1785366Y-106149D02*
X1774476Y-106149D01*
X1774476Y-100704D01*
X1785366Y-100704D01*
X1785366Y-106149D01*
G37*
G54D132*
X1792621Y-163309D02*
X1792621Y-106149D01*
G36*
X1787176Y-163309D02*
X1798066Y-163309D01*
X1798066Y-168754D01*
X1787176Y-168754D01*
X1787176Y-163309D01*
G37*
G36*
X1798066Y-106149D02*
X1787176Y-106149D01*
X1787176Y-100704D01*
X1798066Y-100704D01*
X1798066Y-106149D01*
G37*
G54D132*
X1805321Y-163309D02*
X1805321Y-106149D01*
G36*
X1799876Y-163309D02*
X1810766Y-163309D01*
X1810766Y-168754D01*
X1799876Y-168754D01*
X1799876Y-163309D01*
G37*
G36*
X1810766Y-106149D02*
X1799876Y-106149D01*
X1799876Y-100704D01*
X1810766Y-100704D01*
X1810766Y-106149D01*
G37*
G54D132*
X1818021Y-163309D02*
X1818021Y-106149D01*
G36*
X1812576Y-163309D02*
X1823466Y-163309D01*
X1823466Y-168754D01*
X1812576Y-168754D01*
X1812576Y-163309D01*
G37*
G36*
X1823466Y-106149D02*
X1812576Y-106149D01*
X1812576Y-100704D01*
X1823466Y-100704D01*
X1823466Y-106149D01*
G37*
G54D132*
X1830721Y-163309D02*
X1830721Y-106149D01*
G36*
X1825276Y-163309D02*
X1836166Y-163309D01*
X1836166Y-168754D01*
X1825276Y-168754D01*
X1825276Y-163309D01*
G37*
G36*
X1836166Y-106149D02*
X1825276Y-106149D01*
X1825276Y-100704D01*
X1836166Y-100704D01*
X1836166Y-106149D01*
G37*
G54D132*
X1843421Y-163309D02*
X1843421Y-106149D01*
G36*
X1837976Y-163309D02*
X1848866Y-163309D01*
X1848866Y-168754D01*
X1837976Y-168754D01*
X1837976Y-163309D01*
G37*
G36*
X1848866Y-106149D02*
X1837976Y-106149D01*
X1837976Y-100704D01*
X1848866Y-100704D01*
X1848866Y-106149D01*
G37*
G54D132*
X1856121Y-163309D02*
X1856121Y-106149D01*
G36*
X1850676Y-163309D02*
X1861566Y-163309D01*
X1861566Y-168754D01*
X1850676Y-168754D01*
X1850676Y-163309D01*
G37*
G36*
X1861566Y-106149D02*
X1850676Y-106149D01*
X1850676Y-100704D01*
X1861566Y-100704D01*
X1861566Y-106149D01*
G37*
G54D132*
X1868821Y-163309D02*
X1868821Y-106149D01*
G36*
X1863376Y-163309D02*
X1874266Y-163309D01*
X1874266Y-168754D01*
X1863376Y-168754D01*
X1863376Y-163309D01*
G37*
G36*
X1874266Y-106149D02*
X1863376Y-106149D01*
X1863376Y-100704D01*
X1874266Y-100704D01*
X1874266Y-106149D01*
G37*
G54D132*
X1881521Y-163309D02*
X1881521Y-106149D01*
G36*
X1876076Y-163309D02*
X1886966Y-163309D01*
X1886966Y-168754D01*
X1876076Y-168754D01*
X1876076Y-163309D01*
G37*
G36*
X1886966Y-106149D02*
X1876076Y-106149D01*
X1876076Y-100704D01*
X1886966Y-100704D01*
X1886966Y-106149D01*
G37*
G54D132*
X1894221Y-163309D02*
X1894221Y-106149D01*
G36*
X1888776Y-163309D02*
X1899666Y-163309D01*
X1899666Y-168754D01*
X1888776Y-168754D01*
X1888776Y-163309D01*
G37*
G36*
X1899666Y-106149D02*
X1888776Y-106149D01*
X1888776Y-100704D01*
X1899666Y-100704D01*
X1899666Y-106149D01*
G37*
G54D132*
X1906921Y-163309D02*
X1906921Y-106149D01*
G36*
X1901476Y-163309D02*
X1912366Y-163309D01*
X1912366Y-168754D01*
X1901476Y-168754D01*
X1901476Y-163309D01*
G37*
G36*
X1912366Y-106149D02*
X1901476Y-106149D01*
X1901476Y-100704D01*
X1912366Y-100704D01*
X1912366Y-106149D01*
G37*
G54D132*
X1919621Y-163309D02*
X1919621Y-106149D01*
G36*
X1914176Y-163309D02*
X1925066Y-163309D01*
X1925066Y-168754D01*
X1914176Y-168754D01*
X1914176Y-163309D01*
G37*
G36*
X1925066Y-106149D02*
X1914176Y-106149D01*
X1914176Y-100704D01*
X1925066Y-100704D01*
X1925066Y-106149D01*
G37*
G54D132*
X1932321Y-163309D02*
X1932321Y-106149D01*
G36*
X1926876Y-163309D02*
X1937766Y-163309D01*
X1937766Y-168754D01*
X1926876Y-168754D01*
X1926876Y-163309D01*
G37*
G36*
X1937766Y-106149D02*
X1926876Y-106149D01*
X1926876Y-100704D01*
X1937766Y-100704D01*
X1937766Y-106149D01*
G37*
G54D132*
X1945021Y-163309D02*
X1945021Y-106149D01*
G36*
X1939576Y-163309D02*
X1950466Y-163309D01*
X1950466Y-168754D01*
X1939576Y-168754D01*
X1939576Y-163309D01*
G37*
G36*
X1950466Y-106149D02*
X1939576Y-106149D01*
X1939576Y-100704D01*
X1950466Y-100704D01*
X1950466Y-106149D01*
G37*
G54D132*
X1957721Y-163309D02*
X1957721Y-106149D01*
G36*
X1952276Y-163309D02*
X1963166Y-163309D01*
X1963166Y-168754D01*
X1952276Y-168754D01*
X1952276Y-163309D01*
G37*
G36*
X1963166Y-106149D02*
X1952276Y-106149D01*
X1952276Y-100704D01*
X1963166Y-100704D01*
X1963166Y-106149D01*
G37*
G54D132*
X1970421Y-163309D02*
X1970421Y-106149D01*
G36*
X1964976Y-163309D02*
X1975866Y-163309D01*
X1975866Y-168754D01*
X1964976Y-168754D01*
X1964976Y-163309D01*
G37*
G36*
X1975866Y-106149D02*
X1964976Y-106149D01*
X1964976Y-100704D01*
X1975866Y-100704D01*
X1975866Y-106149D01*
G37*
G54D132*
X1983121Y-163309D02*
X1983121Y-106149D01*
G36*
X1977676Y-163309D02*
X1988566Y-163309D01*
X1988566Y-168754D01*
X1977676Y-168754D01*
X1977676Y-163309D01*
G37*
G36*
X1988566Y-106149D02*
X1977676Y-106149D01*
X1977676Y-100704D01*
X1988566Y-100704D01*
X1988566Y-106149D01*
G37*
G54D132*
X1995821Y-163309D02*
X1995821Y-106149D01*
G36*
X1990376Y-163309D02*
X2001266Y-163309D01*
X2001266Y-168754D01*
X1990376Y-168754D01*
X1990376Y-163309D01*
G37*
G36*
X2001266Y-106149D02*
X1990376Y-106149D01*
X1990376Y-100704D01*
X2001266Y-100704D01*
X2001266Y-106149D01*
G37*
G54D132*
X2008521Y-163309D02*
X2008521Y-106149D01*
G36*
X2003076Y-163309D02*
X2013966Y-163309D01*
X2013966Y-168754D01*
X2003076Y-168754D01*
X2003076Y-163309D01*
G37*
G36*
X2013966Y-106149D02*
X2003076Y-106149D01*
X2003076Y-100704D01*
X2013966Y-100704D01*
X2013966Y-106149D01*
G37*
G54D132*
X2021221Y-163309D02*
X2021221Y-106149D01*
G36*
X2015776Y-163309D02*
X2026666Y-163309D01*
X2026666Y-168754D01*
X2015776Y-168754D01*
X2015776Y-163309D01*
G37*
G36*
X2026666Y-106149D02*
X2015776Y-106149D01*
X2015776Y-100704D01*
X2026666Y-100704D01*
X2026666Y-106149D01*
G37*
G54D132*
X2033921Y-163309D02*
X2033921Y-106149D01*
G36*
X2028476Y-163309D02*
X2039366Y-163309D01*
X2039366Y-168754D01*
X2028476Y-168754D01*
X2028476Y-163309D01*
G37*
G36*
X2039366Y-106149D02*
X2028476Y-106149D01*
X2028476Y-100704D01*
X2039366Y-100704D01*
X2039366Y-106149D01*
G37*
G54D132*
X2046621Y-163309D02*
X2046621Y-106149D01*
G36*
X2041176Y-163309D02*
X2052066Y-163309D01*
X2052066Y-168754D01*
X2041176Y-168754D01*
X2041176Y-163309D01*
G37*
G36*
X2052066Y-106149D02*
X2041176Y-106149D01*
X2041176Y-100704D01*
X2052066Y-100704D01*
X2052066Y-106149D01*
G37*
G54D132*
X2059321Y-163309D02*
X2059321Y-106149D01*
G36*
X2053876Y-163309D02*
X2064766Y-163309D01*
X2064766Y-168754D01*
X2053876Y-168754D01*
X2053876Y-163309D01*
G37*
G36*
X2064766Y-106149D02*
X2053876Y-106149D01*
X2053876Y-100704D01*
X2064766Y-100704D01*
X2064766Y-106149D01*
G37*
G54D132*
X2072021Y-163309D02*
X2072021Y-106149D01*
G36*
X2066576Y-163309D02*
X2077466Y-163309D01*
X2077466Y-168754D01*
X2066576Y-168754D01*
X2066576Y-163309D01*
G37*
G36*
X2077466Y-106149D02*
X2066576Y-106149D01*
X2066576Y-100704D01*
X2077466Y-100704D01*
X2077466Y-106149D01*
G37*
G54D132*
X2084721Y-163309D02*
X2084721Y-106149D01*
G36*
X2079276Y-163309D02*
X2090166Y-163309D01*
X2090166Y-168754D01*
X2079276Y-168754D01*
X2079276Y-163309D01*
G37*
G36*
X2090166Y-106149D02*
X2079276Y-106149D01*
X2079276Y-100704D01*
X2090166Y-100704D01*
X2090166Y-106149D01*
G37*
G54D132*
X2097421Y-163309D02*
X2097421Y-106149D01*
G36*
X2091976Y-163309D02*
X2102866Y-163309D01*
X2102866Y-168754D01*
X2091976Y-168754D01*
X2091976Y-163309D01*
G37*
G36*
X2102866Y-106149D02*
X2091976Y-106149D01*
X2091976Y-100704D01*
X2102866Y-100704D01*
X2102866Y-106149D01*
G37*
G54D132*
X2110121Y-163309D02*
X2110121Y-106149D01*
G36*
X2104676Y-163309D02*
X2115566Y-163309D01*
X2115566Y-168754D01*
X2104676Y-168754D01*
X2104676Y-163309D01*
G37*
G36*
X2115566Y-106149D02*
X2104676Y-106149D01*
X2104676Y-100704D01*
X2115566Y-100704D01*
X2115566Y-106149D01*
G37*
G54D132*
X2123420Y-164595D02*
X2123420Y-107435D01*
G36*
X2117974Y-164595D02*
X2128866Y-164595D01*
X2128866Y-170040D01*
X2117974Y-170040D01*
X2117974Y-164595D01*
G37*
G36*
X2128866Y-107435D02*
X2117974Y-107435D01*
X2117974Y-101990D01*
X2128866Y-101990D01*
X2128866Y-107435D01*
G37*
G54D132*
X2135521Y-163309D02*
X2135521Y-106149D01*
G36*
X2130076Y-163309D02*
X2140966Y-163309D01*
X2140966Y-168754D01*
X2130076Y-168754D01*
X2130076Y-163309D01*
G37*
G36*
X2140966Y-106149D02*
X2130076Y-106149D01*
X2130076Y-100704D01*
X2140966Y-100704D01*
X2140966Y-106149D01*
G37*
G54D132*
X2148221Y-163309D02*
X2148221Y-106149D01*
G36*
X2142776Y-163309D02*
X2153666Y-163309D01*
X2153666Y-168754D01*
X2142776Y-168754D01*
X2142776Y-163309D01*
G37*
G36*
X2153666Y-106149D02*
X2142776Y-106149D01*
X2142776Y-100704D01*
X2153666Y-100704D01*
X2153666Y-106149D01*
G37*
G54D132*
X2160921Y-163309D02*
X2160921Y-106149D01*
G36*
X2155476Y-163309D02*
X2166366Y-163309D01*
X2166366Y-168754D01*
X2155476Y-168754D01*
X2155476Y-163309D01*
G37*
G36*
X2166366Y-106149D02*
X2155476Y-106149D01*
X2155476Y-100704D01*
X2166366Y-100704D01*
X2166366Y-106149D01*
G37*
G54D132*
X2186321Y-163309D02*
X2186321Y-106149D01*
G36*
X2180876Y-163309D02*
X2191766Y-163309D01*
X2191766Y-168754D01*
X2180876Y-168754D01*
X2180876Y-163309D01*
G37*
G36*
X2191766Y-106149D02*
X2180876Y-106149D01*
X2180876Y-100704D01*
X2191766Y-100704D01*
X2191766Y-106149D01*
G37*
G54D132*
X2173621Y-163309D02*
X2173621Y-106149D01*
G36*
X2168176Y-163309D02*
X2179066Y-163309D01*
X2179066Y-168754D01*
X2168176Y-168754D01*
X2168176Y-163309D01*
G37*
G36*
X2179066Y-106149D02*
X2168176Y-106149D01*
X2168176Y-100704D01*
X2179066Y-100704D01*
X2179066Y-106149D01*
G37*
G54D132*
X2199021Y-163309D02*
X2199021Y-106149D01*
G36*
X2193576Y-163309D02*
X2204466Y-163309D01*
X2204466Y-168754D01*
X2193576Y-168754D01*
X2193576Y-163309D01*
G37*
G36*
X2204466Y-106149D02*
X2193576Y-106149D01*
X2193576Y-100704D01*
X2204466Y-100704D01*
X2204466Y-106149D01*
G37*
G54D132*
X2211721Y-163309D02*
X2211721Y-106149D01*
G36*
X2206276Y-163309D02*
X2217166Y-163309D01*
X2217166Y-168754D01*
X2206276Y-168754D01*
X2206276Y-163309D01*
G37*
G36*
X2217166Y-106149D02*
X2206276Y-106149D01*
X2206276Y-100704D01*
X2217166Y-100704D01*
X2217166Y-106149D01*
G37*
G54D132*
X2224421Y-163309D02*
X2224421Y-106149D01*
G36*
X2218976Y-163309D02*
X2229866Y-163309D01*
X2229866Y-168754D01*
X2218976Y-168754D01*
X2218976Y-163309D01*
G37*
G36*
X2229866Y-106149D02*
X2218976Y-106149D01*
X2218976Y-100704D01*
X2229866Y-100704D01*
X2229866Y-106149D01*
G37*
G54D132*
X2237121Y-163309D02*
X2237121Y-106149D01*
G36*
X2231676Y-163309D02*
X2242566Y-163309D01*
X2242566Y-168754D01*
X2231676Y-168754D01*
X2231676Y-163309D01*
G37*
G36*
X2242566Y-106149D02*
X2231676Y-106149D01*
X2231676Y-100704D01*
X2242566Y-100704D01*
X2242566Y-106149D01*
G37*
G54D132*
X2249821Y-163309D02*
X2249821Y-106149D01*
G36*
X2244376Y-163309D02*
X2255266Y-163309D01*
X2255266Y-168754D01*
X2244376Y-168754D01*
X2244376Y-163309D01*
G37*
G36*
X2255266Y-106149D02*
X2244376Y-106149D01*
X2244376Y-100704D01*
X2255266Y-100704D01*
X2255266Y-106149D01*
G37*
G54D132*
X2262521Y-163309D02*
X2262521Y-106149D01*
G36*
X2257076Y-163309D02*
X2267966Y-163309D01*
X2267966Y-168754D01*
X2257076Y-168754D01*
X2257076Y-163309D01*
G37*
G36*
X2267966Y-106149D02*
X2257076Y-106149D01*
X2257076Y-100704D01*
X2267966Y-100704D01*
X2267966Y-106149D01*
G37*
G54D132*
X2300621Y-163309D02*
X2300621Y-106149D01*
G36*
X2295176Y-163309D02*
X2306066Y-163309D01*
X2306066Y-168754D01*
X2295176Y-168754D01*
X2295176Y-163309D01*
G37*
G36*
X2306066Y-106149D02*
X2295176Y-106149D01*
X2295176Y-100704D01*
X2306066Y-100704D01*
X2306066Y-106149D01*
G37*
G54D132*
X2313321Y-163309D02*
X2313321Y-106149D01*
G36*
X2307876Y-163309D02*
X2318766Y-163309D01*
X2318766Y-168754D01*
X2307876Y-168754D01*
X2307876Y-163309D01*
G37*
G36*
X2318766Y-106149D02*
X2307876Y-106149D01*
X2307876Y-100704D01*
X2318766Y-100704D01*
X2318766Y-106149D01*
G37*
G54D132*
X2326021Y-163309D02*
X2326021Y-106149D01*
G36*
X2320576Y-163309D02*
X2331466Y-163309D01*
X2331466Y-168754D01*
X2320576Y-168754D01*
X2320576Y-163309D01*
G37*
G36*
X2331466Y-106149D02*
X2320576Y-106149D01*
X2320576Y-100704D01*
X2331466Y-100704D01*
X2331466Y-106149D01*
G37*
G54D132*
X2338721Y-163309D02*
X2338721Y-106149D01*
G36*
X2333276Y-163309D02*
X2344166Y-163309D01*
X2344166Y-168754D01*
X2333276Y-168754D01*
X2333276Y-163309D01*
G37*
G36*
X2344166Y-106149D02*
X2333276Y-106149D01*
X2333276Y-100704D01*
X2344166Y-100704D01*
X2344166Y-106149D01*
G37*
G54D132*
X2351421Y-163309D02*
X2351421Y-106149D01*
G36*
X2345976Y-163309D02*
X2356866Y-163309D01*
X2356866Y-168754D01*
X2345976Y-168754D01*
X2345976Y-163309D01*
G37*
G36*
X2356866Y-106149D02*
X2345976Y-106149D01*
X2345976Y-100704D01*
X2356866Y-100704D01*
X2356866Y-106149D01*
G37*
G54D132*
X2364121Y-163309D02*
X2364121Y-106149D01*
G36*
X2358676Y-163309D02*
X2369566Y-163309D01*
X2369566Y-168754D01*
X2358676Y-168754D01*
X2358676Y-163309D01*
G37*
G36*
X2369566Y-106149D02*
X2358676Y-106149D01*
X2358676Y-100704D01*
X2369566Y-100704D01*
X2369566Y-106149D01*
G37*
G54D132*
X2376821Y-163309D02*
X2376821Y-106149D01*
G36*
X2371376Y-163309D02*
X2382266Y-163309D01*
X2382266Y-168754D01*
X2371376Y-168754D01*
X2371376Y-163309D01*
G37*
G36*
X2382266Y-106149D02*
X2371376Y-106149D01*
X2371376Y-100704D01*
X2382266Y-100704D01*
X2382266Y-106149D01*
G37*
G54D132*
X2389521Y-163309D02*
X2389521Y-106149D01*
G36*
X2384076Y-163309D02*
X2394966Y-163309D01*
X2394966Y-168754D01*
X2384076Y-168754D01*
X2384076Y-163309D01*
G37*
G36*
X2394966Y-106149D02*
X2384076Y-106149D01*
X2384076Y-100704D01*
X2394966Y-100704D01*
X2394966Y-106149D01*
G37*
G54D132*
X2402221Y-163309D02*
X2402221Y-106149D01*
G36*
X2396776Y-163309D02*
X2407666Y-163309D01*
X2407666Y-168754D01*
X2396776Y-168754D01*
X2396776Y-163309D01*
G37*
G36*
X2407666Y-106149D02*
X2396776Y-106149D01*
X2396776Y-100704D01*
X2407666Y-100704D01*
X2407666Y-106149D01*
G37*
G54D132*
X2414921Y-163309D02*
X2414921Y-106149D01*
G36*
X2409476Y-163309D02*
X2420366Y-163309D01*
X2420366Y-168754D01*
X2409476Y-168754D01*
X2409476Y-163309D01*
G37*
G36*
X2420366Y-106149D02*
X2409476Y-106149D01*
X2409476Y-100704D01*
X2420366Y-100704D01*
X2420366Y-106149D01*
G37*
G54D132*
X2427621Y-163309D02*
X2427621Y-106149D01*
G36*
X2422176Y-163309D02*
X2433066Y-163309D01*
X2433066Y-168754D01*
X2422176Y-168754D01*
X2422176Y-163309D01*
G37*
G36*
X2433066Y-106149D02*
X2422176Y-106149D01*
X2422176Y-100704D01*
X2433066Y-100704D01*
X2433066Y-106149D01*
G37*
G54D132*
X2440321Y-163309D02*
X2440321Y-106149D01*
G36*
X2434876Y-163309D02*
X2445766Y-163309D01*
X2445766Y-168754D01*
X2434876Y-168754D01*
X2434876Y-163309D01*
G37*
G36*
X2445766Y-106149D02*
X2434876Y-106149D01*
X2434876Y-100704D01*
X2445766Y-100704D01*
X2445766Y-106149D01*
G37*
G54D132*
X2453021Y-163309D02*
X2453021Y-106149D01*
G36*
X2447576Y-163309D02*
X2458466Y-163309D01*
X2458466Y-168754D01*
X2447576Y-168754D01*
X2447576Y-163309D01*
G37*
G36*
X2458466Y-106149D02*
X2447576Y-106149D01*
X2447576Y-100704D01*
X2458466Y-100704D01*
X2458466Y-106149D01*
G37*
G54D132*
X2465721Y-163309D02*
X2465721Y-106149D01*
G36*
X2460276Y-163309D02*
X2471166Y-163309D01*
X2471166Y-168754D01*
X2460276Y-168754D01*
X2460276Y-163309D01*
G37*
G36*
X2471166Y-106149D02*
X2460276Y-106149D01*
X2460276Y-100704D01*
X2471166Y-100704D01*
X2471166Y-106149D01*
G37*
G54D132*
X2478421Y-163309D02*
X2478421Y-106149D01*
G36*
X2472976Y-163309D02*
X2483866Y-163309D01*
X2483866Y-168754D01*
X2472976Y-168754D01*
X2472976Y-163309D01*
G37*
G36*
X2483866Y-106149D02*
X2472976Y-106149D01*
X2472976Y-100704D01*
X2483866Y-100704D01*
X2483866Y-106149D01*
G37*
G54D132*
X2491121Y-163309D02*
X2491121Y-106149D01*
G36*
X2485676Y-163309D02*
X2496566Y-163309D01*
X2496566Y-168754D01*
X2485676Y-168754D01*
X2485676Y-163309D01*
G37*
G36*
X2496566Y-106149D02*
X2485676Y-106149D01*
X2485676Y-100704D01*
X2496566Y-100704D01*
X2496566Y-106149D01*
G37*
G54D132*
X2503718Y-161993D02*
X2503718Y-104833D01*
G36*
X2498272Y-161993D02*
X2509163Y-161993D01*
X2509163Y-167438D01*
X2498272Y-167438D01*
X2498272Y-161993D01*
G37*
G36*
X2509163Y-104833D02*
X2498272Y-104833D01*
X2498272Y-99387D01*
X2509163Y-99387D01*
X2509163Y-104833D01*
G37*
G54D132*
X2516521Y-163309D02*
X2516521Y-106149D01*
G36*
X2511076Y-163309D02*
X2521966Y-163309D01*
X2521966Y-168754D01*
X2511076Y-168754D01*
X2511076Y-163309D01*
G37*
G36*
X2521966Y-106149D02*
X2511076Y-106149D01*
X2511076Y-100704D01*
X2521966Y-100704D01*
X2521966Y-106149D01*
G37*
G54D132*
X2529221Y-163309D02*
X2529221Y-106149D01*
G36*
X2523776Y-163309D02*
X2534666Y-163309D01*
X2534666Y-168754D01*
X2523776Y-168754D01*
X2523776Y-163309D01*
G37*
G36*
X2534666Y-106149D02*
X2523776Y-106149D01*
X2523776Y-100704D01*
X2534666Y-100704D01*
X2534666Y-106149D01*
G37*
G54D132*
X2541921Y-163309D02*
X2541921Y-106149D01*
G36*
X2536476Y-163309D02*
X2547366Y-163309D01*
X2547366Y-168754D01*
X2536476Y-168754D01*
X2536476Y-163309D01*
G37*
G36*
X2547366Y-106149D02*
X2536476Y-106149D01*
X2536476Y-100704D01*
X2547366Y-100704D01*
X2547366Y-106149D01*
G37*
G54D132*
X2554621Y-163309D02*
X2554621Y-106149D01*
G36*
X2549176Y-163309D02*
X2560066Y-163309D01*
X2560066Y-168754D01*
X2549176Y-168754D01*
X2549176Y-163309D01*
G37*
G36*
X2560066Y-106149D02*
X2549176Y-106149D01*
X2549176Y-100704D01*
X2560066Y-100704D01*
X2560066Y-106149D01*
G37*
G54D132*
X2567321Y-163309D02*
X2567321Y-106149D01*
G36*
X2561876Y-163309D02*
X2572766Y-163309D01*
X2572766Y-168754D01*
X2561876Y-168754D01*
X2561876Y-163309D01*
G37*
G36*
X2572766Y-106149D02*
X2561876Y-106149D01*
X2561876Y-100704D01*
X2572766Y-100704D01*
X2572766Y-106149D01*
G37*
G54D132*
X2580021Y-163309D02*
X2580021Y-106149D01*
G36*
X2574576Y-163309D02*
X2585466Y-163309D01*
X2585466Y-168754D01*
X2574576Y-168754D01*
X2574576Y-163309D01*
G37*
G36*
X2585466Y-106149D02*
X2574576Y-106149D01*
X2574576Y-100704D01*
X2585466Y-100704D01*
X2585466Y-106149D01*
G37*
G54D132*
X2592721Y-163309D02*
X2592721Y-106149D01*
G36*
X2587276Y-163309D02*
X2598166Y-163309D01*
X2598166Y-168754D01*
X2587276Y-168754D01*
X2587276Y-163309D01*
G37*
G36*
X2598166Y-106149D02*
X2587276Y-106149D01*
X2587276Y-100704D01*
X2598166Y-100704D01*
X2598166Y-106149D01*
G37*
G54D132*
X2605421Y-163309D02*
X2605421Y-106149D01*
G36*
X2599976Y-163309D02*
X2610866Y-163309D01*
X2610866Y-168754D01*
X2599976Y-168754D01*
X2599976Y-163309D01*
G37*
G36*
X2610866Y-106149D02*
X2599976Y-106149D01*
X2599976Y-100704D01*
X2610866Y-100704D01*
X2610866Y-106149D01*
G37*
G54D132*
X2618121Y-163309D02*
X2618121Y-106149D01*
G36*
X2612676Y-163309D02*
X2623566Y-163309D01*
X2623566Y-168754D01*
X2612676Y-168754D01*
X2612676Y-163309D01*
G37*
G36*
X2623566Y-106149D02*
X2612676Y-106149D01*
X2612676Y-100704D01*
X2623566Y-100704D01*
X2623566Y-106149D01*
G37*
G54D132*
X2630821Y-163309D02*
X2630821Y-106149D01*
G36*
X2625376Y-163309D02*
X2636266Y-163309D01*
X2636266Y-168754D01*
X2625376Y-168754D01*
X2625376Y-163309D01*
G37*
G36*
X2636266Y-106149D02*
X2625376Y-106149D01*
X2625376Y-100704D01*
X2636266Y-100704D01*
X2636266Y-106149D01*
G37*
G54D132*
X2643521Y-163309D02*
X2643521Y-106149D01*
G36*
X2638076Y-163309D02*
X2648966Y-163309D01*
X2648966Y-168754D01*
X2638076Y-168754D01*
X2638076Y-163309D01*
G37*
G36*
X2648966Y-106149D02*
X2638076Y-106149D01*
X2638076Y-100704D01*
X2648966Y-100704D01*
X2648966Y-106149D01*
G37*
G54D132*
X2656221Y-163309D02*
X2656221Y-106149D01*
G36*
X2650776Y-163309D02*
X2661666Y-163309D01*
X2661666Y-168754D01*
X2650776Y-168754D01*
X2650776Y-163309D01*
G37*
G36*
X2661666Y-106149D02*
X2650776Y-106149D01*
X2650776Y-100704D01*
X2661666Y-100704D01*
X2661666Y-106149D01*
G37*
G54D132*
X2668921Y-163309D02*
X2668921Y-106149D01*
G36*
X2663476Y-163309D02*
X2674366Y-163309D01*
X2674366Y-168754D01*
X2663476Y-168754D01*
X2663476Y-163309D01*
G37*
G36*
X2674366Y-106149D02*
X2663476Y-106149D01*
X2663476Y-100704D01*
X2674366Y-100704D01*
X2674366Y-106149D01*
G37*
G54D132*
X2681621Y-163309D02*
X2681621Y-106149D01*
G36*
X2676176Y-163309D02*
X2687066Y-163309D01*
X2687066Y-168754D01*
X2676176Y-168754D01*
X2676176Y-163309D01*
G37*
G36*
X2687066Y-106149D02*
X2676176Y-106149D01*
X2676176Y-100704D01*
X2687066Y-100704D01*
X2687066Y-106149D01*
G37*
G54D132*
X2694321Y-163309D02*
X2694321Y-106149D01*
G36*
X2688876Y-163309D02*
X2699766Y-163309D01*
X2699766Y-168754D01*
X2688876Y-168754D01*
X2688876Y-163309D01*
G37*
G36*
X2699766Y-106149D02*
X2688876Y-106149D01*
X2688876Y-100704D01*
X2699766Y-100704D01*
X2699766Y-106149D01*
G37*
G54D132*
X2707021Y-163309D02*
X2707021Y-106149D01*
G36*
X2701576Y-163309D02*
X2712466Y-163309D01*
X2712466Y-168754D01*
X2701576Y-168754D01*
X2701576Y-163309D01*
G37*
G36*
X2712466Y-106149D02*
X2701576Y-106149D01*
X2701576Y-100704D01*
X2712466Y-100704D01*
X2712466Y-106149D01*
G37*
G54D132*
X2719721Y-163309D02*
X2719721Y-106149D01*
G36*
X2714276Y-163309D02*
X2725166Y-163309D01*
X2725166Y-168754D01*
X2714276Y-168754D01*
X2714276Y-163309D01*
G37*
G36*
X2725166Y-106149D02*
X2714276Y-106149D01*
X2714276Y-100704D01*
X2725166Y-100704D01*
X2725166Y-106149D01*
G37*
G54D132*
X2732421Y-163309D02*
X2732421Y-106149D01*
G36*
X2726976Y-163309D02*
X2737866Y-163309D01*
X2737866Y-168754D01*
X2726976Y-168754D01*
X2726976Y-163309D01*
G37*
G36*
X2737866Y-106149D02*
X2726976Y-106149D01*
X2726976Y-100704D01*
X2737866Y-100704D01*
X2737866Y-106149D01*
G37*
G54D132*
X2745121Y-163309D02*
X2745121Y-106149D01*
G36*
X2739676Y-163309D02*
X2750566Y-163309D01*
X2750566Y-168754D01*
X2739676Y-168754D01*
X2739676Y-163309D01*
G37*
G36*
X2750566Y-106149D02*
X2739676Y-106149D01*
X2739676Y-100704D01*
X2750566Y-100704D01*
X2750566Y-106149D01*
G37*
G54D132*
X2757821Y-163309D02*
X2757821Y-106149D01*
G36*
X2752376Y-163309D02*
X2763266Y-163309D01*
X2763266Y-168754D01*
X2752376Y-168754D01*
X2752376Y-163309D01*
G37*
G36*
X2763266Y-106149D02*
X2752376Y-106149D01*
X2752376Y-100704D01*
X2763266Y-100704D01*
X2763266Y-106149D01*
G37*
G54D132*
X2770521Y-163309D02*
X2770521Y-106149D01*
G36*
X2765076Y-163309D02*
X2775966Y-163309D01*
X2775966Y-168754D01*
X2765076Y-168754D01*
X2765076Y-163309D01*
G37*
G36*
X2775966Y-106149D02*
X2765076Y-106149D01*
X2765076Y-100704D01*
X2775966Y-100704D01*
X2775966Y-106149D01*
G37*
G54D132*
X2783221Y-163309D02*
X2783221Y-106149D01*
G36*
X2777776Y-163309D02*
X2788666Y-163309D01*
X2788666Y-168754D01*
X2777776Y-168754D01*
X2777776Y-163309D01*
G37*
G36*
X2788666Y-106149D02*
X2777776Y-106149D01*
X2777776Y-100704D01*
X2788666Y-100704D01*
X2788666Y-106149D01*
G37*
G54D132*
X2795921Y-163309D02*
X2795921Y-106149D01*
G36*
X2790476Y-163309D02*
X2801366Y-163309D01*
X2801366Y-168754D01*
X2790476Y-168754D01*
X2790476Y-163309D01*
G37*
G36*
X2801366Y-106149D02*
X2790476Y-106149D01*
X2790476Y-100704D01*
X2801366Y-100704D01*
X2801366Y-106149D01*
G37*
G54D132*
X2808621Y-163309D02*
X2808621Y-106149D01*
G36*
X2803176Y-163309D02*
X2814066Y-163309D01*
X2814066Y-168754D01*
X2803176Y-168754D01*
X2803176Y-163309D01*
G37*
G36*
X2814066Y-106149D02*
X2803176Y-106149D01*
X2803176Y-100704D01*
X2814066Y-100704D01*
X2814066Y-106149D01*
G37*
G54D132*
X2821321Y-163309D02*
X2821321Y-106149D01*
G36*
X2815876Y-163309D02*
X2826766Y-163309D01*
X2826766Y-168754D01*
X2815876Y-168754D01*
X2815876Y-163309D01*
G37*
G36*
X2826766Y-106149D02*
X2815876Y-106149D01*
X2815876Y-100704D01*
X2826766Y-100704D01*
X2826766Y-106149D01*
G37*
M02*
