; Drill file
; Format: 2.4 (00.0000)
M48
INCH
T01C0.0153
T02C0.0212
T03C0.0314
T04C0.0357
T05C0.0441
T06C0.062
T07C0.0714
T08C0.0756
T09C0.079
T10C0.1062
T11C0.1334
T12C0.1496
%
G05
G90
T01
X007990Y-059420
X009430Y-060060
X010710Y-060060
X012240Y-059410
X012870Y-060060
X012230Y-058060
X013510Y-054940
X014790Y-054940
X016240Y-054940
X017520Y-055820
X018800Y-056380
X018960Y-055660
X017680Y-054060
X018720Y-053340
X017680Y-051500
X018040Y-050420
X017600Y-049810
X016640Y-049340
X015920Y-048530
X014790Y-048530
X014320Y-047570
X013670Y-048690
X013110Y-048690
X011590Y-048530
X010710Y-049340
X009270Y-048370
X008150Y-047810
X007190Y-048290
X005910Y-049810
X005990Y-050610
X008630Y-051740
X009590Y-051490
X010230Y-051500
X011350Y-051260
X011670Y-051900
X012550Y-051900
X013430Y-051980
X016160Y-051740
X018800Y-049810
X019520Y-050130
X019760Y-049090
X019680Y-048610
X019680Y-047090
X018480Y-046850
X016640Y-047570
X014090Y-045470
X012870Y-045410
X011590Y-044930
X011240Y-044640
X014440Y-043820
X015150Y-043820
X016400Y-042530
X016400Y-041970
X016400Y-041410
X016400Y-040850
X016800Y-039570
X016560Y-038690
X015590Y-037650
X015200Y-037090
X014480Y-037330
X014390Y-036690
X014550Y-035890
X014550Y-035410
X013590Y-035170
X012790Y-035170
X012630Y-034530
X012550Y-033250
X012550Y-032050
X012550Y-031170
X012550Y-030530
X013270Y-029250
X013910Y-029170
X014070Y-029810
X014070Y-030610
X014070Y-031250
X014320Y-034130
X016790Y-033480
X017280Y-033490
X017040Y-033010
X017200Y-035010
X017200Y-036130
X018320Y-038930
X019040Y-041170
X020320Y-041570
X020720Y-041170
X021920Y-041570
X022640Y-041010
X020560Y-043010
X020560Y-043970
X020560Y-045250
X022000Y-044930
X022480Y-044370
X023760Y-044530
X024750Y-044560
X025680Y-045090
X025680Y-046370
X026160Y-047170
X027200Y-047170
X027280Y-047650
X028720Y-049010
X028720Y-049570
X028080Y-049650
X027330Y-050170
X026560Y-050220
X025440Y-050220
X024720Y-050220
X023920Y-050220
X022640Y-050060
X022080Y-050060
X021520Y-050060
X020800Y-049970
X021760Y-051740
X021680Y-053340
X020880Y-053580
X022640Y-053340
X023760Y-053260
X024640Y-053580
X025920Y-053180
X026320Y-053580
X027360Y-053180
X028880Y-053580
X029440Y-053660
X030640Y-053580
X030960Y-053180
X031440Y-051980
X031440Y-051100
X032480Y-050930
X032480Y-050220
X032720Y-049410
X033600Y-049650
X034880Y-050130
X034880Y-048210
X035990Y-047330
X037040Y-047250
X037040Y-047730
X037840Y-045730
X039340Y-046430
X041200Y-046370
X043200Y-046370
X043120Y-047250
X044000Y-046970
X044000Y-047650
X043840Y-048930
X044400Y-048930
X043200Y-048930
X042800Y-050700
X042080Y-050700
X042000Y-052300
X040000Y-052380
X041360Y-054620
X042000Y-055100
X043120Y-054540
X043600Y-053500
X044320Y-050930
X047280Y-049730
X048000Y-049340
X048640Y-049730
X049360Y-049010
X049680Y-049730
X050160Y-049730
X050800Y-049730
X051520Y-049730
X052000Y-049730
X052960Y-049730
X055200Y-050540
X056400Y-051100
X056480Y-049810
X058000Y-049090
X058240Y-047250
X057920Y-046450
X056880Y-046610
X056400Y-046450
X055680Y-046450
X053680Y-043410
X053200Y-043410
X052720Y-043410
X052320Y-043650
X052000Y-043970
X051680Y-043650
X051360Y-043970
X051040Y-043650
X050720Y-043970
X050400Y-043650
X050080Y-043970
X049760Y-043650
X049440Y-043970
X048640Y-044130
X048000Y-043890
X048000Y-043410
X048000Y-042930
X048000Y-042450
X048000Y-041970
X048000Y-039810
X046560Y-038770
X046880Y-038370
X046160Y-038210
X045840Y-038610
X046320Y-037490
X045680Y-037330
X045760Y-036530
X046400Y-036690
X046800Y-036450
X047280Y-036450
X047520Y-035490
X047040Y-035490
X048720Y-035330
X048320Y-032770
X047360Y-032770
X046800Y-032770
X046800Y-031810
X047120Y-030530
X047120Y-029970
X047680Y-029970
X048240Y-029970
X048880Y-031410
X049120Y-032050
X049840Y-032770
X051120Y-032770
X051680Y-032770
X051600Y-032130
X051040Y-032130
X050000Y-030930
X050880Y-030290
X052080Y-030370
X052080Y-029570
X052080Y-029090
X052080Y-028610
X051040Y-028130
X051040Y-027650
X051040Y-027170
X050880Y-026610
X050960Y-025330
X050960Y-024610
X052480Y-024610
X052480Y-024130
X052480Y-023570
X052480Y-022530
X052320Y-021490
X051300Y-021770
X050420Y-021670
X050400Y-023170
X049920Y-023170
X049440Y-023170
X048960Y-023170
X048320Y-023170
X047840Y-023170
X047360Y-023170
X046880Y-023170
X046700Y-024870
X046200Y-025370
X044500Y-025670
X044000Y-026450
X043040Y-027090
X044000Y-028210
X044500Y-028170
X044500Y-028920
X044320Y-029650
X044160Y-030370
X044480Y-031810
X045200Y-033010
X043200Y-034770
X042720Y-034930
X042320Y-035170
X041600Y-034690
X040800Y-035330
X039360Y-035970
X038900Y-038370
X038900Y-038870
X039680Y-038450
X039760Y-039490
X041360Y-038690
X042240Y-038690
X041840Y-039490
X042700Y-041470
X042700Y-041970
X041600Y-043770
X039600Y-044270
X038720Y-042770
X037760Y-042370
X036900Y-041070
X036160Y-041090
X035120Y-041090
X034480Y-041090
X034160Y-039570
X035040Y-038850
X034880Y-037410
X034880Y-035890
X033360Y-035570
X031920Y-035730
X031770Y-038520
X031880Y-040970
X032000Y-041730
X032080Y-042370
X032080Y-043250
X032240Y-043890
X033040Y-043410
X033600Y-043090
X033360Y-042290
X035360Y-042930
X035760Y-042370
X036160Y-042850
X035020Y-046390
X032480Y-045570
X031120Y-045570
X027440Y-044530
X027120Y-045250
X028880Y-042370
X027440Y-041890
X028560Y-040690
X028560Y-039650
X027680Y-039490
X027280Y-039170
X026720Y-038690
X027200Y-037890
X028560Y-038530
X028640Y-035410
X024480Y-037890
X024400Y-038530
X021520Y-037570
X021040Y-037570
X021040Y-035570
X024080Y-032770
X024880Y-031010
X023440Y-029490
X023500Y-027470
X021680Y-027330
X021520Y-025730
X022240Y-025010
X022000Y-023810
X022100Y-022070
X019920Y-021490
X019900Y-023070
X019700Y-024470
X019700Y-024970
X019300Y-025470
X019680Y-027010
X019700Y-028070
X021200Y-030130
X020400Y-030610
X020400Y-031170
X027360Y-029810
X029100Y-028670
X030480Y-029330
X031760Y-029890
X032200Y-030270
X033100Y-029970
X033170Y-030590
X035100Y-029470
X035100Y-028470
X035100Y-027470
X033840Y-026770
X033800Y-025870
X032300Y-026070
X032300Y-025070
X031200Y-026070
X030560Y-025890
X032300Y-027170
X032300Y-028470
X036000Y-030070
X038080Y-028130
X039440Y-029010
X040560Y-028930
X041680Y-029570
X041280Y-030130
X038960Y-030890
X041040Y-026770
X040640Y-026530
X040080Y-025490
X038880Y-025410
X038100Y-025680
X040160Y-024210
X040240Y-022930
X041000Y-021770
X042240Y-021810
X042800Y-021730
X043280Y-021730
X043600Y-023870
X043120Y-024290
X042800Y-024610
X044200Y-024370
X044400Y-023810
X046560Y-021330
X047100Y-020970
X047520Y-021170
X048290Y-018880
X049520Y-019250
X049600Y-018050
X046300Y-018270
X046300Y-018770
X044800Y-018690
X044380Y-018200
X044400Y-017730
X044560Y-016810
X044080Y-016810
X044800Y-016290
X044400Y-015870
X041600Y-016050
X041600Y-014870
X041100Y-018670
X039920Y-018370
X039120Y-019570
X038300Y-019570
X037300Y-019470
X037300Y-020770
X037300Y-021770
X037300Y-022270
X037300Y-022870
X036300Y-023470
X035760Y-023570
X035150Y-024420
X035120Y-024930
X034700Y-023670
X033100Y-023470
X028650Y-022120
X027750Y-021920
X027760Y-021330
X029350Y-020020
X028750Y-019420
X027950Y-019020
X026900Y-017470
X026300Y-017470
X026000Y-016370
X025100Y-016070
X025100Y-016770
X023400Y-015570
X022600Y-014670
X022900Y-013570
X023780Y-014050
X021600Y-015650
X020200Y-014770
X019040Y-016050
X017680Y-016530
X017680Y-014530
X017520Y-013650
X017120Y-011970
X015800Y-009670
X013390Y-009470
X012230Y-008610
X011690Y-010170
X012790Y-011970
X013840Y-011410
X013350Y-013090
X013350Y-013730
X013350Y-014690
X014000Y-015410
X012470Y-015810
X012470Y-016610
X012470Y-017250
X012390Y-018130
X012390Y-018610
X013270Y-018130
X015270Y-016610
X015840Y-015490
X012470Y-013170
X008490Y-010170
X006310Y-011070
X005110Y-010130
X005110Y-009650
X004710Y-009250
X005190Y-007570
X006790Y-005970
X009270Y-005990
X016960Y-005970
X020560Y-008450
X020560Y-009810
X019700Y-009770
X020350Y-010820
X019970Y-011240
X020800Y-012370
X022200Y-009970
X023800Y-009570
X028800Y-011270
X028400Y-014070
X028400Y-014870
X028200Y-015570
X026750Y-015320
X023300Y-017870
X022800Y-018270
X023300Y-018870
X023360Y-019570
X022100Y-019670
X020880Y-018530
X020480Y-017730
X020480Y-017170
X017360Y-022610
X017900Y-024370
X014070Y-023650
X014090Y-023170
X014160Y-022130
X012630Y-023570
X011750Y-023010
X011690Y-025730
X012590Y-025770
X012590Y-026370
X013840Y-026210
X013790Y-025470
X011350Y-027010
X011190Y-028530
X012630Y-028400
X008390Y-025090
X008790Y-021890
X008310Y-021730
X008870Y-020450
X024720Y-022770
X027100Y-024070
X032000Y-007870
X035500Y-008070
X043200Y-010170
X045500Y-012770
X051760Y-012770
X053600Y-012450
X052600Y-009470
X053680Y-016370
X056000Y-016130
X055280Y-018210
X055920Y-018770
X055040Y-019250
X056960Y-018770
X058000Y-018050
X058400Y-019090
X058400Y-020210
X058320Y-021410
X059760Y-021410
X059440Y-023010
X060240Y-023010
X060880Y-023010
X061600Y-023810
X062640Y-023810
X064500Y-023350
X065360Y-021330
X065520Y-020610
X064880Y-020530
X063700Y-021270
X062880Y-020930
X061900Y-021370
X060160Y-023810
X058480Y-023730
X058400Y-023010
X057200Y-023810
X056720Y-023810
X056900Y-023070
X055440Y-022450
X056880Y-021330
X059920Y-017330
X060560Y-017330
X061280Y-017330
X061440Y-016210
X062640Y-016370
X063040Y-014370
X063040Y-013890
X061120Y-014370
X059840Y-013970
X058720Y-014370
X058480Y-015410
X059520Y-015410
X060400Y-011470
X060720Y-011010
X060720Y-010450
X065680Y-010690
X065680Y-010210
X066000Y-009890
X066000Y-009330
X066240Y-008690
X066080Y-008210
X066480Y-007730
X068080Y-007490
X068240Y-008210
X068320Y-008930
X069040Y-008370
X069040Y-007810
X069200Y-009970
X067040Y-009570
X065600Y-011730
X068240Y-012690
X067840Y-013890
X068320Y-014130
X067040Y-014850
X067600Y-016450
X068400Y-016450
X068720Y-017650
X067920Y-017890
X066960Y-017250
X065920Y-017330
X067840Y-019250
X068160Y-019650
X067440Y-020690
X066960Y-020690
X067920Y-021010
X068960Y-021250
X067680Y-022370
X067120Y-021730
X070720Y-023250
X070720Y-023810
X072480Y-026770
X073280Y-027730
X073280Y-028370
X073920Y-028690
X073280Y-029330
X074000Y-029650
X074640Y-029970
X075280Y-029970
X075440Y-030690
X075440Y-031330
X076240Y-031330
X076240Y-031970
X076400Y-032610
X077200Y-032450
X077200Y-033170
X076400Y-033570
X073600Y-033330
X073600Y-032850
X073600Y-032290
X073120Y-032370
X072320Y-032690
X072480Y-033170
X070400Y-034690
X070400Y-035810
X070400Y-036610
X070880Y-036610
X071360Y-036610
X072000Y-036290
X072400Y-036530
X072800Y-036290
X072480Y-035810
X071500Y-035810
X072800Y-037010
X072480Y-040370
X073040Y-040770
X073680Y-041670
X073520Y-042170
X074000Y-042690
X074000Y-043410
X074160Y-044290
X074640Y-044610
X074240Y-045010
X074640Y-045330
X074240Y-045810
X073520Y-047570
X073760Y-048210
X074080Y-049180
X074480Y-049500
X074880Y-049810
X075520Y-048850
X077200Y-049180
X077360Y-048610
X077200Y-047970
X077280Y-047170
X077520Y-045970
X078640Y-045810
X079120Y-045650
X080400Y-045810
X080560Y-045330
X080720Y-044850
X080800Y-044370
X080800Y-043810
X080240Y-043810
X080240Y-043330
X079760Y-043570
X079120Y-043570
X079040Y-043010
X078080Y-043090
X077440Y-042290
X080000Y-040690
X080640Y-040850
X081200Y-040930
X081520Y-041330
X082160Y-041330
X082000Y-041810
X081840Y-042290
X081280Y-042370
X083520Y-043410
X084320Y-044450
X083600Y-045010
X083440Y-047170
X083360Y-049180
X082320Y-049180
X086080Y-048210
X087430Y-048230
X086330Y-045490
X086430Y-044450
X087050Y-042370
X087510Y-039870
X086430Y-039410
X086970Y-038210
X084090Y-038290
X084000Y-039410
X084000Y-040050
X082080Y-037970
X081600Y-038210
X081040Y-038930
X081040Y-039490
X080400Y-039250
X079760Y-039650
X078720Y-038370
X077920Y-038450
X077920Y-038930
X076480Y-037010
X079040Y-036290
X079840Y-036290
X079760Y-037090
X081040Y-036290
X081600Y-036050
X081520Y-035570
X081600Y-036690
X083360Y-035410
X083840Y-035410
X084090Y-034450
X084090Y-033970
X083600Y-033970
X083120Y-033970
X085040Y-033970
X085040Y-034450
X085770Y-033970
X086170Y-034450
X086570Y-033970
X087770Y-033410
X088490Y-033410
X089050Y-033410
X088250Y-034210
X090170Y-035410
X089930Y-036050
X091210Y-035810
X091130Y-035010
X093050Y-035890
X093050Y-036530
X093690Y-038850
X094010Y-039330
X093690Y-040370
X094170Y-040770
X095450Y-041330
X095450Y-041810
X094170Y-042850
X093690Y-042370
X095450Y-043810
X096170Y-043490
X096330Y-044610
X097370Y-044210
X097610Y-043410
X097530Y-042290
X097850Y-041410
X098970Y-041810
X099370Y-039810
X096970Y-037090
X096650Y-036690
X096410Y-035970
X096730Y-035570
X097850Y-035010
X097850Y-034450
X097850Y-033330
X097850Y-032770
X099370Y-036130
X102490Y-033730
X102170Y-032350
X102970Y-030130
X103530Y-030130
X104090Y-030130
X104330Y-029570
X104970Y-030770
X105930Y-032690
X107370Y-031730
X107690Y-031410
X108170Y-031250
X108650Y-031090
X109130Y-031010
X109530Y-030690
X109130Y-030370
X108730Y-030130
X109130Y-029730
X108730Y-029410
X109050Y-029090
X108010Y-028770
X107690Y-028450
X108010Y-028130
X107690Y-027810
X107210Y-027490
X107690Y-027170
X107210Y-026850
X107210Y-026370
X106730Y-026290
X107130Y-025730
X106970Y-025250
X104970Y-023810
X105290Y-023410
X104010Y-024210
X103610Y-024530
X103290Y-022290
X103370Y-021650
X102890Y-021650
X103930Y-022050
X103850Y-019890
X104010Y-018850
X104250Y-018450
X103050Y-018690
X103050Y-018210
X103050Y-017730
X103050Y-017250
X103610Y-017250
X104250Y-017170
X104250Y-016690
X104330Y-016210
X103690Y-015970
X103770Y-015490
X102970Y-015570
X102970Y-016050
X102970Y-016530
X103530Y-016490
X102170Y-016530
X102170Y-016050
X102170Y-015570
X101370Y-015570
X101370Y-016050
X101370Y-016530
X100410Y-016530
X100410Y-016050
X100410Y-015570
X099610Y-015490
X099610Y-015970
X099610Y-016450
X099610Y-017250
X099690Y-018690
X100250Y-018690
X100170Y-019330
X100250Y-019810
X100810Y-019810
X101290Y-019810
X101610Y-020210
X101770Y-019570
X102330Y-019730
X103050Y-019170
X100810Y-020770
X100250Y-020610
X100410Y-021410
X099850Y-021330
X099560Y-022320
X098730Y-023170
X099130Y-024130
X099530Y-024450
X099530Y-024930
X099530Y-025410
X099930Y-025730
X100410Y-025890
X100810Y-026130
X101290Y-026370
X101050Y-027170
X101530Y-027330
X102090Y-027410
X102570Y-027570
X103050Y-027730
X102330Y-029090
X102010Y-029490
X101690Y-029090
X100570Y-027010
X100250Y-026690
X098330Y-026370
X101290Y-024530
X101210Y-022450
X100970Y-021570
X099690Y-019810
X097930Y-017170
X097610Y-016770
X097290Y-017090
X096970Y-016610
X096570Y-016370
X096570Y-015250
X096890Y-014930
X097370Y-014930
X097770Y-015170
X098170Y-014930
X098970Y-014850
X099130Y-014370
X100730Y-013570
X101040Y-013900
X100730Y-010210
X099770Y-010370
X099130Y-010370
X098490Y-010370
X097770Y-010370
X097130Y-010370
X096170Y-010370
X095530Y-010370
X094250Y-010370
X093610Y-010370
X092970Y-010370
X092330Y-010370
X091610Y-010370
X092490Y-008450
X091930Y-007970
X091910Y-007470
X091130Y-007570
X090580Y-007560
X089850Y-007810
X089210Y-008130
X088490Y-008130
X088090Y-007730
X087770Y-008130
X087450Y-007730
X087130Y-008130
X086810Y-007810
X086490Y-007490
X085770Y-007490
X085690Y-008290
X086170Y-008290
X084810Y-008450
X084810Y-007970
X084810Y-007470
X084160Y-007570
X083930Y-007970
X083400Y-007870
X083120Y-007410
X082320Y-007410
X081920Y-007730
X081600Y-007410
X081280Y-007730
X080960Y-007410
X080640Y-007730
X080480Y-008370
X079680Y-008450
X079440Y-007970
X079680Y-007330
X078720Y-007730
X078560Y-008290
X078240Y-008610
X077680Y-008210
X077440Y-007730
X078080Y-007720
X076720Y-007730
X076720Y-008290
X076560Y-008850
X076160Y-009010
X075840Y-008450
X075520Y-008930
X075200Y-008450
X074880Y-008930
X074400Y-008690
X074400Y-008210
X074400Y-007730
X073840Y-008690
X073600Y-009090
X073120Y-009570
X072160Y-009490
X072080Y-009970
X072480Y-010770
X071760Y-009010
X071280Y-009250
X071600Y-008450
X071600Y-007810
X072800Y-008450
X072960Y-007730
X075680Y-011570
X075360Y-011890
X078320Y-010770
X079040Y-008770
X082640Y-009650
X083120Y-009170
X082800Y-008770
X087290Y-011970
X087770Y-011970
X088250Y-011970
X088730Y-011970
X088410Y-013250
X087930Y-013250
X087450Y-013250
X089290Y-014130
X089370Y-015810
X089050Y-016130
X089450Y-016450
X089450Y-017010
X089690Y-017730
X090410Y-017810
X090410Y-017330
X090730Y-016930
X091210Y-016770
X091850Y-016610
X091130Y-015970
X090650Y-015970
X090170Y-015970
X090010Y-016450
X088730Y-016530
X088410Y-016130
X088090Y-016530
X087130Y-015810
X086570Y-017490
X086970Y-017810
X086570Y-018130
X086970Y-018450
X087290Y-018770
X086730Y-019250
X086240Y-019490
X085770Y-019330
X085930Y-020130
X085450Y-020130
X085450Y-020610
X085360Y-021090
X085200Y-021570
X084320Y-022450
X083680Y-022530
X083840Y-021810
X084090Y-020930
X084090Y-020450
X084090Y-019970
X084090Y-019490
X083520Y-020930
X082080Y-020050
X081600Y-019490
X082320Y-018290
X082320Y-017810
X079760Y-015570
X078000Y-015570
X079520Y-020130
X079600Y-020610
X079280Y-021250
X079520Y-023090
X079600Y-024450
X081600Y-024690
X081600Y-025170
X081600Y-024210
X082480Y-023010
X082160Y-022290
X081600Y-021650
X083040Y-023730
X083040Y-024690
X082960Y-025170
X084320Y-025730
X085450Y-024850
X085770Y-024210
X085610Y-023570
X087130Y-024290
X086490Y-025010
X085930Y-025410
X086570Y-025890
X087130Y-025410
X087530Y-025810
X089690Y-026130
X090170Y-026130
X090650Y-026130
X091370Y-025170
X091850Y-025570
X092720Y-026360
X092730Y-026850
X092170Y-027810
X091690Y-027810
X091370Y-028130
X090970Y-027810
X090490Y-028450
X090090Y-027810
X089610Y-029010
X089610Y-030050
X088810Y-030690
X088410Y-031010
X088810Y-031330
X086890Y-029650
X085930Y-029650
X086010Y-030930
X082800Y-031890
X082320Y-031890
X080240Y-034930
X079040Y-034930
X084090Y-036450
X090410Y-038130
X090410Y-040050
X090410Y-042370
X090450Y-044250
X090450Y-044890
X090490Y-046290
X091770Y-046610
X091450Y-047330
X091450Y-047810
X091450Y-048850
X091210Y-049340
X090430Y-048530
X091370Y-050450
X090570Y-050860
X092890Y-054380
X092890Y-055340
X093770Y-057420
X093690Y-060060
X094570Y-059980
X090490Y-059660
X090010Y-059900
X088490Y-059980
X088570Y-057980
X089290Y-057820
X090090Y-057340
X090250Y-057820
X089370Y-056860
X088410Y-056220
X087290Y-056620
X086730Y-056140
X085310Y-056580
X084480Y-057020
X083440Y-058940
X083440Y-054780
X083440Y-053100
X081280Y-055020
X079440Y-055500
X078400Y-054780
X078560Y-053420
X076880Y-053420
X076800Y-054780
X075360Y-054540
X075360Y-053260
X073120Y-054220
X073120Y-054780
X070480Y-054940
X069280Y-054940
X070320Y-052860
X070070Y-050450
X069570Y-049850
X069120Y-050450
X068640Y-049810
X068160Y-050450
X067680Y-049810
X067200Y-050450
X066720Y-049810
X066240Y-050450
X065760Y-049810
X066800Y-048770
X069360Y-048370
X069840Y-047970
X070320Y-047970
X070960Y-047970
X071840Y-047650
X071920Y-047090
X071920Y-049010
X072000Y-049810
X071520Y-049810
X071040Y-049810
X070560Y-049810
X070000Y-048930
X069360Y-047090
X070240Y-045490
X069070Y-045090
X069200Y-044610
X068640Y-044130
X070720Y-042530
X072000Y-042610
X072000Y-043250
X072000Y-043890
X071600Y-041410
X070960Y-041250
X069440Y-039570
X068640Y-039570
X067760Y-038450
X067200Y-039490
X066560Y-039330
X065440Y-039170
X064640Y-037890
X064000Y-037890
X063360Y-037890
X062720Y-037890
X062080Y-037890
X061450Y-037880
X060800Y-037890
X060160Y-037890
X057120Y-040610
X056560Y-040610
X056000Y-040610
X055400Y-040690
X054920Y-040390
X054520Y-040690
X053680Y-042900
X052720Y-043970
X049120Y-044850
X048800Y-045250
X048480Y-045730
X048000Y-045730
X047970Y-044400
X044240Y-039570
X044240Y-038610
X042240Y-037250
X037600Y-038530
X047360Y-037730
X051280Y-036930
X053440Y-038530
X055280Y-032770
X055200Y-031770
X055040Y-030690
X055280Y-029010
X055280Y-027810
X056640Y-027250
X057680Y-026850
X058720Y-026850
X059360Y-027730
X059520Y-028770
X059360Y-030050
X059280Y-031250
X059360Y-032290
X058960Y-032770
X057920Y-032690
X057280Y-032770
X056800Y-032770
X056720Y-029410
X056720Y-028370
X055280Y-026210
X052480Y-026770
X052480Y-025650
X049200Y-028130
X046000Y-028070
X060080Y-026850
X061440Y-026850
X062480Y-026850
X062800Y-028050
X062080Y-028770
X060800Y-028370
X063380Y-030550
X064800Y-031010
X064960Y-031890
X065280Y-032610
X066000Y-032610
X066560Y-032850
X066320Y-031650
X066080Y-031250
X066080Y-030770
X066080Y-030290
X066080Y-029810
X066080Y-029330
X066080Y-028850
X066080Y-028370
X066080Y-027890
X066080Y-027410
X066080Y-026930
X066560Y-026770
X066080Y-026370
X066480Y-026050
X066560Y-027410
X065760Y-031650
X069120Y-035330
X069520Y-038210
X068400Y-041250
X067920Y-041410
X067280Y-041570
X066720Y-041650
X066080Y-041890
X065200Y-041810
X064720Y-041970
X064240Y-042130
X063840Y-042450
X063840Y-042930
X063360Y-043330
X063840Y-043650
X063360Y-043970
X063840Y-044290
X063360Y-044610
X063360Y-045250
X063360Y-045970
X062320Y-045970
X062480Y-044850
X063600Y-047010
X063600Y-047570
X064160Y-047490
X064640Y-047250
X062960Y-048290
X062080Y-047650
X060320Y-047170
X060320Y-048170
X062080Y-049890
X063280Y-049890
X062880Y-050930
X064000Y-051020
X064720Y-051020
X064880Y-052860
X065360Y-054540
X065440Y-055100
X063680Y-057260
X064320Y-058620
X065120Y-058620
X061440Y-058620
X061600Y-057260
X062640Y-055100
X062560Y-054060
X062080Y-052620
X061040Y-053100
X060480Y-051980
X060480Y-051420
X060480Y-050700
X058240Y-051980
X058000Y-053020
X056480Y-053020
X055440Y-054460
X055520Y-055260
X055920Y-056940
X057040Y-056940
X055360Y-058940
X054720Y-060380
X053520Y-059100
X051520Y-058380
X051520Y-057580
X049840Y-057500
X048160Y-057580
X047520Y-055660
X046960Y-055820
X046400Y-054780
X049440Y-054060
X052320Y-052620
X053600Y-054060
X053760Y-055580
X056560Y-060060
X058240Y-059900
X059040Y-059900
X060160Y-059900
X069360Y-058620
X078720Y-047170
X086430Y-054160
X087690Y-057980
X094970Y-052220
X096490Y-052300
X096490Y-053820
X097610Y-056300
X101850Y-057900
X102250Y-056860
X102970Y-057180
X103690Y-057500
X103690Y-056300
X102890Y-054860
X103530Y-054300
X102890Y-053820
X102890Y-052860
X102890Y-051740
X102890Y-050860
X102890Y-049810
X103610Y-049570
X102890Y-048850
X104650Y-050260
X105610Y-051900
X107530Y-050610
X107930Y-050860
X108250Y-050130
X109130Y-049890
X107450Y-049250
X107450Y-047250
X107530Y-046370
X108010Y-045810
X105370Y-046850
X104170Y-045090
X104090Y-044370
X104170Y-043730
X104090Y-042770
X104090Y-041810
X103930Y-040930
X107770Y-042210
X109370Y-040290
X108050Y-036490
X108010Y-034690
X105850Y-035810
X108010Y-032130
X109290Y-032130
X108010Y-029410
X107690Y-029090
X110650Y-034930
X110570Y-035730
X103370Y-045490
X099370Y-043970
X097130Y-045410
X096730Y-047410
X096490Y-048530
X094330Y-046690
X093370Y-044930
X094330Y-044610
X095450Y-039810
X095450Y-039170
X095450Y-037890
X091850Y-032610
X088330Y-028290
X089690Y-024210
X090250Y-024210
X090730Y-024210
X091370Y-024210
X091370Y-023250
X090730Y-023250
X090170Y-023250
X089690Y-023250
X089690Y-022450
X090170Y-022450
X090730Y-022450
X091290Y-022450
X090270Y-021360
X089690Y-021490
X089130Y-021650
X089210Y-022290
X088010Y-022290
X088330Y-021250
X088330Y-020770
X089530Y-020370
X090010Y-020370
X090330Y-019890
X090650Y-020370
X091130Y-020370
X091690Y-020370
X091690Y-019250
X091130Y-019170
X091130Y-018610
X091690Y-018610
X091370Y-017810
X090890Y-017810
X090410Y-019170
X089690Y-018930
X092330Y-015570
X092810Y-015570
X092090Y-015090
X091050Y-014130
X093450Y-008450
X093770Y-007650
X094410Y-007490
X094410Y-007970
X094410Y-008450
X094890Y-008450
X095290Y-008130
X095450Y-007650
X096250Y-007650
X096890Y-007490
X096890Y-007970
X096890Y-008450
X097530Y-008450
X097770Y-007650
X098730Y-007650
X099290Y-007970
X099450Y-007490
X100250Y-007890
X100570Y-007490
X101210Y-007650
X100890Y-008290
X101930Y-008450
X102410Y-008450
X102570Y-007970
X101930Y-007970
X101930Y-007490
X103690Y-007650
X104410Y-007490
X104410Y-007970
X104890Y-008450
X105290Y-007890
X106090Y-007650
X105930Y-008450
X106570Y-008370
X107290Y-008130
X107290Y-007650
X108410Y-008370
X108570Y-008930
X108330Y-009410
X108250Y-009890
X107690Y-009250
X107290Y-009010
X107130Y-010850
X106410Y-010850
X105530Y-009570
X104890Y-009570
X104250Y-009570
X103530Y-009570
X102890Y-009970
X102490Y-009730
X103450Y-008450
X099770Y-008450
X098490Y-008450
X096090Y-008450
X092810Y-007730
X104890Y-014450
X104730Y-014930
X105370Y-014770
X105530Y-014290
X106090Y-015650
X106090Y-016210
X106090Y-017170
X108810Y-007730
X109610Y-007970
X109610Y-007370
X080720Y-026850
X080720Y-027410
X080320Y-026370
X081600Y-028130
X073360Y-021250
X073040Y-020610
X063520Y-018770
X027700Y-005270
X014390Y-039570
X013700Y-041870
X008550Y-041010
X008550Y-040370
X008550Y-039810
X007190Y-040970
X008130Y-041910
X005600Y-041080
X006630Y-039650
X005690Y-037870
X008950Y-055020
X015760Y-056540
X015840Y-057180
X017760Y-057500
X020000Y-058540
X021400Y-059180
X022900Y-059240
X024400Y-057420
X023040Y-056860
X022900Y-055120
X022880Y-054620
X025760Y-056860
X025840Y-058220
X026240Y-058540
X026400Y-059180
X026560Y-059900
X025360Y-058620
X028320Y-059340
X030080Y-059100
X030080Y-059900
X030640Y-059820
X031120Y-060140
X031600Y-059420
X033200Y-059340
X033840Y-057820
X033040Y-056380
X033280Y-055180
X033280Y-054460
X033360Y-053180
X032530Y-052410
X031520Y-049730
X030240Y-050290
X028880Y-050380
X025600Y-049340
X022400Y-045890
X027320Y-055220
X027360Y-055980
X030160Y-057020
X030160Y-057660
X035840Y-059340
X035920Y-059900
X038000Y-058860
X038400Y-056460
X035840Y-055340
X035360Y-053900
X035840Y-053340
X036240Y-053660
X036640Y-053260
X045760Y-058140
X046960Y-060060
X104090Y-059500
X104570Y-059420
X105050Y-059260
X105290Y-056940
X108730Y-055820
T02
X026200Y-029560
X026200Y-028870
X026200Y-028180
X026200Y-027360
X026200Y-026670
X026200Y-025980
X026200Y-025160
X026200Y-024470
X026200Y-023780
X026390Y-021960
X025700Y-021960
X025010Y-021960
T03
X007510Y-057600
X007510Y-056600
X009090Y-058680
X009880Y-058680
X010670Y-058680
X011460Y-058680
X012240Y-058680
X013030Y-058680
X013820Y-058680
X014600Y-058680
X015390Y-058680
X016180Y-058680
X013430Y-054330
X013430Y-052990
X013190Y-050970
X013190Y-049620
X008210Y-046260
X007230Y-046260
X007230Y-045430
X007230Y-044410
X007230Y-043580
X008210Y-043580
X009630Y-039330
X010630Y-039330
X011630Y-039330
X012630Y-039330
X016000Y-032870
X016790Y-032370
X016000Y-031870
X016790Y-031370
X016000Y-030870
X016790Y-030370
X016000Y-029870
X016790Y-029370
X016000Y-028870
X016790Y-028370
X016000Y-027870
X016790Y-027370
X016000Y-026870
X016790Y-026370
X016000Y-025870
X016790Y-025370
X016000Y-024870
X016790Y-024370
X016000Y-023870
X016790Y-023370
X016000Y-022870
X016790Y-022370
X016000Y-021870
X016790Y-021370
X016000Y-020870
X016790Y-020370
X014990Y-020370
X014990Y-021370
X014990Y-022370
X014990Y-023370
X014990Y-024370
X014990Y-025370
X014990Y-026370
X014990Y-027370
X014990Y-028370
X014990Y-029370
X014990Y-030370
X014990Y-031370
X014990Y-032370
X018120Y-032850
X019120Y-032850
X020120Y-032850
X021120Y-032850
X021120Y-034290
X022120Y-034290
X023120Y-034290
X024120Y-034290
X025120Y-034290
X026120Y-034290
X027120Y-034290
X025200Y-029560
X025200Y-028180
X025200Y-027360
X025200Y-025980
X025200Y-025160
X025200Y-023780
X025010Y-020980
X026390Y-020980
X021900Y-020670
X019900Y-020670
X018300Y-018470
X018300Y-017470
X015290Y-017470
X015290Y-018470
X020900Y-014670
X019380Y-011890
X018380Y-011890
X022330Y-007340
X023320Y-007340
X024020Y-007340
X025010Y-007340
X025010Y-006340
X024180Y-006340
X023160Y-006340
X022330Y-006340
X030490Y-011570
X031490Y-011570
X032490Y-011570
X033490Y-011570
X035300Y-018480
X036300Y-018480
X037300Y-018480
X038300Y-018480
X045700Y-015670
X045700Y-013670
X045700Y-011670
X051700Y-011670
X051700Y-013670
X051700Y-015670
X056960Y-016090
X056960Y-018090
X066680Y-011080
X068680Y-011080
X070500Y-011470
X070500Y-012470
X070500Y-013470
X070500Y-014470
X070500Y-015470
X070500Y-016470
X070500Y-017470
X069660Y-019890
X072660Y-019890
X072660Y-025890
X069660Y-025890
X070500Y-010470
X070500Y-009470
X070500Y-008470
X082000Y-010170
X083000Y-010170
X084000Y-010170
X085000Y-010170
X086010Y-010170
X087010Y-010170
X088010Y-010170
X089010Y-010170
X090010Y-010170
X091010Y-010170
X092310Y-037870
X092310Y-038870
X092310Y-039870
X092310Y-040870
X092310Y-041870
X092310Y-042870
X092310Y-043870
X092310Y-044870
X092310Y-045870
X092310Y-046870
X092310Y-047870
X092310Y-048870
X092310Y-049870
X092310Y-050880
X092310Y-051880
X092310Y-052880
X092310Y-053880
X092310Y-054880
X092310Y-055880
X092310Y-056880
X092310Y-057880
X098310Y-057880
X098310Y-056880
X098310Y-055880
X098310Y-054880
X098310Y-053880
X098310Y-052880
X098310Y-051880
X098310Y-050880
X098310Y-049870
X098310Y-048870
X098310Y-047870
X098310Y-046870
X098310Y-045870
X098310Y-044870
X098310Y-043870
X098310Y-042870
X098310Y-041870
X098310Y-040870
X098310Y-039870
X098310Y-038870
X098310Y-037870
X100510Y-037870
X100510Y-038870
X100510Y-039870
X100510Y-040870
X100510Y-041870
X100510Y-042870
X100510Y-043870
X100510Y-044870
X100510Y-045870
X100510Y-046870
X100510Y-047870
X100510Y-048870
X100510Y-049870
X100510Y-050880
X100510Y-051880
X100510Y-052880
X100510Y-053880
X100510Y-054880
X100510Y-055880
X100510Y-056880
X100510Y-057880
X099450Y-054880
X099450Y-053880
X099450Y-052880
X099450Y-051880
X099450Y-050880
X099450Y-049870
X099450Y-048870
X099450Y-047870
X099450Y-046870
X099450Y-045870
X106510Y-045870
X106510Y-046870
X106510Y-047870
X106510Y-048870
X106510Y-049870
X106510Y-050880
X106510Y-051880
X106510Y-052880
X106510Y-053880
X106510Y-054880
X106510Y-055880
X106510Y-056880
X106510Y-057880
X110250Y-050470
X110250Y-049480
X110250Y-048470
X110250Y-047470
X110250Y-046470
X110250Y-045470
X110250Y-044470
X110250Y-043470
X110250Y-042470
X110250Y-041470
X106510Y-041870
X106510Y-040870
X106510Y-039870
X106510Y-038870
X106510Y-037870
X106510Y-042870
X106510Y-043870
X106510Y-044870
X080340Y-058780
X079340Y-058780
X078340Y-058780
X077340Y-058780
X076340Y-058780
X075340Y-058780
X074340Y-058780
X073340Y-058780
X072340Y-058780
X071340Y-058780
X057680Y-039250
X056680Y-039250
X055680Y-039250
X054680Y-039250
X053680Y-039250
X052680Y-039250
X051680Y-039250
X050680Y-039250
X049680Y-039250
X048680Y-039250
X042920Y-031490
X040920Y-031490
X041080Y-027890
X043080Y-027890
X020120Y-034290
X019120Y-034290
X018120Y-034290
T04
X029750Y-035820
X029750Y-032820
X035750Y-032820
X035750Y-035820
X024470Y-028870
X024550Y-026670
X024550Y-024470
X025700Y-020470
X042780Y-007940
X043780Y-005440
X052940Y-007860
X053940Y-005360
T05
X008130Y-034110
X008130Y-033020
X008130Y-031930
X008130Y-030840
X008130Y-029750
X007010Y-030300
X007010Y-031390
X007010Y-032470
X007010Y-033560
X008130Y-020530
X008130Y-019440
X008130Y-018350
X008130Y-017260
X008130Y-016170
X007010Y-016720
X007010Y-017810
X007010Y-018890
X007010Y-019980
X046530Y-007870
X047520Y-008850
X049480Y-008850
X050470Y-007870
X049480Y-004910
X049480Y-003930
X047520Y-003930
X047520Y-004910
X052480Y-019890
X053480Y-019890
X054480Y-019890
T06
X046540Y-008840
X045550Y-007860
X046540Y-003930
X048500Y-004910
X050460Y-003930
X051450Y-007860
X050460Y-008840
X056550Y-009470
X056550Y-010970
X056550Y-012470
X058450Y-012470
X058450Y-010970
X058450Y-009470
X058500Y-004470
X056500Y-004470
T07
X021020Y-005170
X023670Y-004860
X026320Y-005170
T08
X029300Y-012860
X029490Y-008860
X034050Y-004480
X040740Y-008860
X041300Y-012860
T09
X006040Y-047570
X005720Y-044920
X006040Y-042270
T10
X007610Y-036850
X007610Y-027010
X007610Y-023270
X007610Y-013430
X005990Y-008370
X109510Y-059270
T11
X034310Y-013600
T12
X005950Y-053400
X063210Y-011460
X109300Y-053400
M30
