%FSLAX34Y34*%
%MOMM*%
%LNSMDMASK_TOP*%
G71*
G01*
%ADD10R,0.634X2.667*%
%ADD11R,3.177X1.906*%
%ADD12R,3.177X1.904*%
%ADD13R,0.636X2.667*%
%ADD14R,0.636X2.668*%
%ADD15R,1.905X2.413*%
%ADD16R,1.906X2.413*%
%ADD17R,2.414X1.906*%
%ADD18R,2.414X1.906*%
%ADD19R,2.414X1.906*%
%ADD20R,1.905X2.414*%
%ADD21R,1.906X3.177*%
%ADD22R,1.906X2.415*%
%ADD23R,1.906X2.413*%
%ADD24R,1.906X2.413*%
%ADD25R,1.271X1.016*%
%ADD26R,1.269X1.017*%
%ADD27R,1.271X3.810*%
%ADD28R,1.269X1.017*%
%ADD29R,1.906X2.413*%
%ADD30R,1.906X2.413*%
%ADD31R,2.921X1.271*%
%ADD32R,2.922X1.271*%
%ADD33R,1.270X3.684*%
%ADD34R,1.271X3.684*%
%ADD35R,1.271X3.683*%
%ADD36R,1.270X3.683*%
%ADD37R,2.415X1.904*%
%ADD38R,2.413X1.904*%
%ADD39R,1.271X2.795*%
%ADD40R,1.271X2.795*%
%ADD41R,1.906X1.271*%
%ADD42R,1.271X2.794*%
%ADD43R,1.271X2.794*%
%ADD44R,1.017X1.269*%
%ADD45R,1.016X1.269*%
%ADD46R,1.016X1.271*%
%ADD47R,1.270X3.684*%
%ADD48R,1.269X3.683*%
%ADD49R,1.271X2.922*%
%ADD50R,0.635X2.668*%
%ADD51R,0.635X2.668*%
%ADD52R,0.634X2.668*%
%ADD53R,1.906X2.286*%
%ADD54R,1.905X2.286*%
%ADD55R,2.286X1.904*%
%ADD56R,2.286X1.905*%
%ADD57R,1.017X1.270*%
%ADD58R,1.905X2.415*%
%ADD59R,3.176X2.388*%
%ADD60R,1.905X2.413*%
%ADD61R,1.269X2.922*%
%ADD62R,2.795X1.271*%
%ADD63R,2.795X1.270*%
%ADD64R,2.388X3.175*%
%ADD65R,1.271X1.524*%
%ADD66R,1.271X1.524*%
%ADD67R,1.270X1.524*%
%ADD68R,1.269X1.524*%
%ADD69R,1.271X1.524*%
%ADD70R,1.271X1.524*%
%ADD71R,1.271X1.906*%
%ADD72R,0.634X2.668*%
%ADD73R,0.635X2.666*%
%ADD74R,0.634X2.666*%
%ADD75R,0.636X2.666*%
%ADD76R,3.683X1.270*%
%ADD77R,2.414X1.904*%
%ADD78R,2.415X1.905*%
%ADD79R,3.684X1.270*%
%ADD80R,2.413X1.905*%
%ADD81R,1.271X1.016*%
%ADD82R,3.684X1.271*%
%ADD83R,1.906X2.413*%
%ADD84R,1.906X2.413*%
%ADD85R,2.286X1.906*%
%ADD86R,3.683X1.271*%
%ADD87R,2.541X3.812*%
%ADD88R,0.634X2.668*%
%ADD89R,2.413X1.906*%
%ADD90R,1.906X2.414*%
%ADD91R,1.906X2.414*%
%ADD92R,1.904X2.413*%
%ADD93R,3.684X1.270*%
%ADD94R,1.906X2.414*%
%ADD95R,1.906X2.413*%
%ADD96R,2.388X3.175*%
%ADD97R,0.635X2.666*%
%ADD98R,1.016X1.271*%
%ADD99R,1.905X1.271*%
%ADD100R,2.540X3.812*%
%ADD101R,1.906X1.270*%
%ADD102R,1.271X3.684*%
%ADD103R,1.016X1.270*%
%ADD104R,1.016X1.269*%
%ADD105R,1.017X1.269*%
%ADD106R,1.015X1.270*%
%ADD107R,1.017X1.271*%
%ADD108R,2.413X1.906*%
%ADD109R,1.015X1.271*%
%ADD110R,1.269X2.921*%
%ADD111R,1.016X1.270*%
%ADD112R,2.415X1.906*%
%ADD113R,1.269X2.921*%
%ADD114R,1.017X1.271*%
%ADD115R,1.015X1.271*%
%ADD116R,1.016X1.270*%
%ADD117R,1.016X1.269*%
%ADD118R,1.017X1.270*%
%ADD119R,2.413X1.906*%
%ADD120R,0.635X2.668*%
%ADD121R,0.635X2.668*%
%ADD122R,0.636X2.668*%
%ADD123R,2.415X1.906*%
%ADD124R,1.271X3.683*%
%ADD125R,1.906X1.269*%
%ADD126R,1.017X1.271*%
%ADD127R,1.016X1.271*%
%ADD128R,1.269X1.524*%
%ADD129R,1.015X1.269*%
%ADD130R,1.269X2.922*%
%ADD131R,1.269X2.922*%
%ADD132R,1.271X2.921*%
%ADD133R,1.271X2.922*%
%ADD134R,3.175X2.388*%
%ADD135R,0.634X2.666*%
%ADD136R,2.666X0.636*%
%ADD137R,2.668X0.636*%
%ADD138R,2.413X1.906*%
%ADD139R,2.414X1.906*%
%ADD140R,2.414X1.905*%
%ADD141R,2.668X0.635*%
%ADD142R,2.666X0.635*%
%ADD143R,2.033X0.635*%
%ADD144R,2.033X0.636*%
%ADD145R,2.413X1.905*%
%ADD146R,2.414X1.905*%
%ADD147R,1.904X2.415*%
%ADD148R,1.905X1.271*%
%ADD149R,1.271X2.795*%
%ADD150R,1.905X1.270*%
%ADD151R,3.684X1.271*%
%ADD152R,0.636X2.668*%
%ADD153R,0.635X2.668*%
%ADD154R,0.634X2.668*%
%ADD155R,0.635X2.668*%
%ADD156R,0.635X2.032*%
%ADD157R,2.413X1.905*%
%ADD158R,2.413X1.906*%
%ADD159R,0.635X2.033*%
%ADD160R,0.635X2.033*%
%ADD161R,2.413X1.906*%
%ADD162R,2.033X0.636*%
%ADD163R,2.033X0.635*%
%ADD164R,2.286X1.905*%
%ADD165R,2.286X1.905*%
%ADD166R,2.033X0.635*%
%ADD167R,0.636X2.033*%
%ADD168R,2.033X0.634*%
%ADD169R,2.033X0.634*%
%ADD170R,2.416X1.906*%
%ADD171R,0.636X2.286*%
%ADD172R,0.635X2.286*%
%ADD173R,0.636X2.286*%
%ADD174R,0.635X2.286*%
%ADD175R,0.636X2.288*%
%ADD176R,0.635X2.287*%
%ADD177R,0.635X2.287*%
%ADD178R,0.634X2.287*%
%ADD179R,0.636X2.287*%
%ADD180R,0.635X2.288*%
%ADD181R,0.634X2.288*%
%ADD182R,0.635X2.288*%
%ADD183R,0.635X2.286*%
%ADD184R,0.634X2.286*%
%ADD185R,0.634X2.286*%
%ADD186R,0.635X2.033*%
%ADD187R,0.635X2.033*%
%ADD188R,0.636X2.033*%
%ADD189R,0.635X2.031*%
%ADD190R,0.634X2.031*%
%ADD191R,0.636X2.031*%
%ADD192R,1.906X2.413*%
%ADD193R,2.414X1.905*%
%ADD194R,0.634X2.033*%
%ADD195R,0.634X2.033*%
%ADD196R,2.033X0.635*%
%ADD197R,0.634X2.033*%
%ADD198R,0.635X2.031*%
%ADD199R,2.031X0.635*%
%ADD200R,2.031X0.634*%
%ADD201R,2.031X0.636*%
%ADD202R,2.031X0.635*%
%ADD203R,1.904X2.286*%
%ADD204R,1.905X2.415*%
%ADD205R,1.905X2.413*%
%ADD206R,1.905X2.414*%
%ADD207R,0.635X2.032*%
%ADD208R,2.031X0.635*%
%ADD209R,2.031X0.634*%
%ADD210R,2.415X1.905*%
%ADD211R,0.636X2.032*%
%ADD212R,0.634X2.032*%
%ADD213R,1.017X1.271*%
%ADD214R,2.414X1.906*%
%ADD215R,2.413X1.906*%
%ADD216R,2.286X1.906*%
%ADD217R,0.635X2.667*%
%ADD218R,1.017X1.271*%
%ADD219R,1.016X1.270*%
%ADD220R,1.017X1.270*%
%ADD221R,1.271X2.922*%
%ADD222R,2.413X1.906*%
%ADD223R,1.271X1.526*%
%ADD224R,1.269X1.526*%
%ADD225R,2.414X1.905*%
%ADD226R,1.372X1.371*%
%ADD227R,1.016X1.271*%
%ADD228R,0.634X2.031*%
%ADD229R,2.031X0.636*%
%ADD230R,2.414X1.904*%
%ADD231R,1.017X1.271*%
%ADD232R,2.413X1.905*%
%ADD233R,1.270X3.810*%
%ADD234R,1.270X3.811*%
%ADD235R,1.906X2.286*%
%ADD236R,0.638X2.666*%
%ADD237R,0.638X2.668*%
%ADD238R,0.635X2.286*%
%ADD239R,1.905X2.413*%
%ADD240R,1.906X2.414*%
%ADD241R,2.031X0.635*%
%ADD242R,2.286X1.906*%
%ADD243R,0.635X2.667*%
%ADD244R,1.904X2.414*%
%ADD245R,2.286X1.906*%
%ADD246R,10.162X10.162*%
%ADD247R,10.163X10.162*%
%ADD248R,2.795X1.270*%
%ADD249R,0.635X2.667*%
%ADD250R,3.176X1.906*%
%ADD251R,1.904X1.906*%
%ADD252R,1.905X2.414*%
%ADD253R,2.033X0.634*%
%ADD254R,2.668X0.635*%
%ADD255R,2.666X0.635*%
%ADD256R,1.525X1.524*%
%ADD257R,3.175X2.388*%
%ADD258R,1.269X1.016*%
%ADD259R,2.286X1.906*%
%ADD260R,3.810X2.540*%
%ADD261R,10.160X10.162*%
%ADD262R,2.413X1.904*%
%ADD263R,3.811X1.271*%
%ADD264R,1.904X2.413*%
%ADD265R,2.668X0.636*%
%ADD266R,2.668X0.635*%
%ADD267R,3.175X2.387*%
%ADD268R,1.905X3.175*%
%ADD269R,3.683X1.271*%
%ADD270R,3.810X2.033*%
%ADD271R,2.413X1.906*%
%ADD272R,1.905X2.413*%
%ADD273R,2.415X1.906*%
%ADD274R,1.906X2.413*%
%ADD275R,1.271X3.684*%
%ADD276R,2.591X2.922*%
%ADD277R,2.592X2.922*%
%ADD278R,3.176X1.906*%
%ADD279R,2.286X1.904*%
%ADD280R,3.175X1.904*%
%ADD281R,3.177X1.906*%
%ADD282R,3.175X1.906*%
%ADD283R,1.271X3.811*%
%ADD284R,0.635X2.668*%
%ADD285R,0.634X2.668*%
%ADD286R,1.904X2.287*%
%ADD287R,1.372X1.373*%
%ADD288R,1.371X1.373*%
%ADD289R,1.906X2.287*%
%ADD290R,3.684X1.270*%
%ADD291R,3.684X1.270*%
%ADD292R,1.906X2.286*%
%ADD293R,0.636X2.667*%
%ADD294R,0.635X2.667*%
%ADD295R,2.414X1.906*%
%ADD296R,1.017X1.270*%
%ADD297R,2.387X3.177*%
%ADD298R,2.388X3.177*%
%ADD299R,1.905X2.413*%
%ADD300R,1.905X2.413*%
%ADD301R,2.413X1.904*%
%ADD302R,3.684X1.271*%
%ADD303R,3.810X1.271*%
%ADD304R,0.635X2.032*%
%ADD305R,1.905X1.904*%
%ADD306R,3.812X2.540*%
%ADD307R,2.542X3.812*%
%ADD308R,1.524X2.033*%
%ADD309R,1.524X2.033*%
%ADD310R,1.271X1.017*%
%ADD311R,2.032X0.635*%
%ADD312R,2.032X0.636*%
%ADD313R,2.032X0.635*%
%ADD314R,2.032X0.634*%
%ADD315R,2.286X1.906*%
%ADD316R,0.634X2.032*%
%ADD317R,0.635X2.032*%
%ADD318R,0.634X2.032*%
%ADD319R,0.634X2.033*%
%ADD320R,0.636X2.032*%
%ADD321R,0.634X2.032*%
%ADD322R,1.905X2.286*%
%ADD323R,1.905X2.286*%
%ADD324R,1.271X1.015*%
%ADD325R,1.271X1.017*%
%ADD326R,1.271X1.017*%
%ADD327R,2.793X1.270*%
%ADD328R,2.793X1.271*%
%ADD329R,1.906X3.175*%
%ADD330R,1.905X3.175*%
%ADD331R,2.287X1.904*%
%ADD332R,2.287X1.906*%
%ADD333R,2.414X1.906*%
%ADD334R,1.906X2.414*%
%ADD335R,2.667X0.635*%
%ADD336R,2.667X0.636*%
%ADD337R,1.905X3.177*%
%ADD338R,1.904X3.177*%
%ADD339R,1.906X3.175*%
%ADD340R,0.636X2.668*%
%ADD341R,0.634X2.667*%
%ADD342R,1.269X1.524*%
%ADD343R,1.271X1.525*%
%ADD344R,1.269X1.525*%
%ADD345R,1.271X1.526*%
%ADD346R,1.371X1.373*%
%LPD*%
X702240Y-1174750D02*
G54D10*
D03*
X973471Y-1049941D02*
G54D11*
D03*
X973471Y-1005740D02*
G54D12*
D03*
X1033763Y-1027408D02*
G54D13*
D03*
X1033763Y-1089650D02*
G54D14*
D03*
X241672Y-914494D02*
G54D15*
D03*
X272155Y-914494D02*
G54D15*
D03*
X302643Y-914494D02*
G54D16*
D03*
X620440Y-296417D02*
G54D17*
D03*
X1238767Y-461546D02*
G54D18*
D03*
X1238767Y-507267D02*
G54D19*
D03*
X1201421Y-1356512D02*
G54D15*
D03*
X1201421Y-1319422D02*
G54D20*
D03*
X1201421Y-1285380D02*
G54D15*
D03*
X1201421Y-1390548D02*
G54D15*
D03*
X291922Y-1109005D02*
G54D21*
D03*
X247715Y-1109005D02*
G54D21*
D03*
X266057Y-1036932D02*
G54D16*
D03*
X266057Y-1070976D02*
G54D22*
D03*
X662864Y-226054D02*
G54D23*
D03*
X662864Y-260091D02*
G54D24*
D03*
X590841Y-266319D02*
G54D25*
D03*
X564679Y-265528D02*
G54D26*
D03*
X479453Y-261110D02*
G54D27*
D03*
X564679Y-227425D02*
G54D28*
D03*
X502817Y-124437D02*
G54D29*
D03*
X502817Y-158473D02*
G54D29*
D03*
X502817Y-190486D02*
G54D30*
D03*
X502817Y-224523D02*
G54D29*
D03*
X1004293Y-1310024D02*
G54D31*
D03*
X1046459Y-1310024D02*
G54D31*
D03*
X1087607Y-1310024D02*
G54D31*
D03*
X1129777Y-1310024D02*
G54D32*
D03*
X715195Y-1074276D02*
G54D33*
D03*
X792419Y-1075298D02*
G54D34*
D03*
X792419Y-1130169D02*
G54D35*
D03*
X715195Y-1129151D02*
G54D36*
D03*
X880571Y-1123052D02*
G54D37*
D03*
X846527Y-1123052D02*
G54D38*
D03*
X372119Y-1083807D02*
G54D39*
D03*
X387622Y-1083807D02*
G54D40*
D03*
X379869Y-1093326D02*
G54D41*
D03*
X387622Y-1040370D02*
G54D42*
D03*
X372119Y-1040370D02*
G54D43*
D03*
X589599Y-1046716D02*
G54D44*
D03*
X511581Y-1128006D02*
G54D45*
D03*
X511581Y-1176782D02*
G54D46*
D03*
X806647Y-1345584D02*
G54D47*
D03*
X589192Y-1294776D02*
G54D48*
D03*
X589192Y-1349651D02*
G54D48*
D03*
X883880Y-1457613D02*
G54D49*
D03*
X883880Y-1499795D02*
G54D49*
D03*
X732220Y-1319548D02*
G54D14*
D03*
X719514Y-1319548D02*
G54D50*
D03*
X706808Y-1319548D02*
G54D51*
D03*
X694109Y-1319548D02*
G54D52*
D03*
X450233Y-1486832D02*
G54D53*
D03*
X484276Y-1486832D02*
G54D54*
D03*
X499771Y-1451012D02*
G54D55*
D03*
X499771Y-1416975D02*
G54D56*
D03*
X298984Y-1457240D02*
G54D57*
D03*
X430669Y-1335429D02*
G54D35*
D03*
X286382Y-449095D02*
G54D22*
D03*
X253868Y-449095D02*
G54D58*
D03*
X294513Y-306833D02*
G54D59*
D03*
X932648Y-1306725D02*
G54D60*
D03*
X932648Y-1272680D02*
G54D58*
D03*
X942812Y-1499795D02*
G54D61*
D03*
X942812Y-1457613D02*
G54D61*
D03*
X1034897Y-1351049D02*
G54D62*
D03*
X1034897Y-1366552D02*
G54D63*
D03*
X1041120Y-1411643D02*
G54D64*
D03*
X997967Y-1492298D02*
G54D65*
D03*
X997967Y-1477414D02*
G54D65*
D03*
X1001772Y-1453905D02*
G54D66*
D03*
X1001799Y-1469105D02*
G54D67*
D03*
X1005278Y-1492298D02*
G54D68*
D03*
X1005380Y-1477180D02*
G54D69*
D03*
X1016764Y-1453905D02*
G54D70*
D03*
X1025376Y-1358800D02*
G54D71*
D03*
X960339Y-1412276D02*
G54D14*
D03*
X973047Y-1412276D02*
G54D14*
D03*
X985743Y-1412276D02*
G54D72*
D03*
X998443Y-1412276D02*
G54D51*
D03*
X998443Y-1350037D02*
G54D73*
D03*
X985743Y-1350037D02*
G54D74*
D03*
X973047Y-1350037D02*
G54D75*
D03*
X960339Y-1350037D02*
G54D75*
D03*
X1055603Y-1476671D02*
G54D76*
D03*
X830274Y-1181990D02*
G54D77*
D03*
X672517Y-899754D02*
G54D78*
D03*
X672517Y-930238D02*
G54D37*
D03*
X720534Y-526320D02*
G54D79*
D03*
X549314Y-298958D02*
G54D80*
D03*
X542581Y-275689D02*
G54D25*
D03*
X583350Y-298958D02*
G54D80*
D03*
X612944Y-276475D02*
G54D81*
D03*
X779211Y-761303D02*
G54D82*
D03*
X530254Y-677222D02*
G54D83*
D03*
X530254Y-711260D02*
G54D84*
D03*
X696901Y-843360D02*
G54D85*
D03*
X949922Y-753173D02*
G54D86*
D03*
X263776Y-152130D02*
G54D87*
D03*
X294513Y-370348D02*
G54D59*
D03*
X702240Y-1236989D02*
G54D88*
D03*
X1078218Y-525563D02*
G54D38*
D03*
X1078218Y-497106D02*
G54D80*
D03*
X1357392Y-464591D02*
G54D89*
D03*
X685726Y-297180D02*
G54D90*
D03*
X713672Y-297180D02*
G54D91*
D03*
X1341140Y-278887D02*
G54D92*
D03*
X1381786Y-278887D02*
G54D83*
D03*
X1110479Y-1476671D02*
G54D93*
D03*
X1184657Y-1475403D02*
G54D94*
D03*
X1184657Y-1441359D02*
G54D95*
D03*
X1104634Y-1411643D02*
G54D96*
D03*
X1323356Y-464591D02*
G54D89*
D03*
X1116320Y-462180D02*
G54D73*
D03*
X1103616Y-462180D02*
G54D97*
D03*
X1090909Y-462180D02*
G54D73*
D03*
X1078217Y-462180D02*
G54D73*
D03*
X1149724Y-475898D02*
G54D98*
D03*
X170545Y-1250320D02*
G54D83*
D03*
X133958Y-1250320D02*
G54D83*
D03*
X323348Y-1083807D02*
G54D39*
D03*
X338838Y-1083807D02*
G54D40*
D03*
X331093Y-1093326D02*
G54D99*
D03*
X294513Y-1070976D02*
G54D22*
D03*
X528995Y-970627D02*
G54D31*
D03*
X524563Y-1010384D02*
G54D46*
D03*
X133710Y-152130D02*
G54D100*
D03*
X379869Y-1030835D02*
G54D101*
D03*
X440841Y-1075298D02*
G54D102*
D03*
X501425Y-1055102D02*
G54D103*
D03*
X511581Y-1077197D02*
G54D104*
D03*
X491262Y-1077197D02*
G54D105*
D03*
X532694Y-1105910D02*
G54D106*
D03*
X531909Y-1176782D02*
G54D46*
D03*
X542855Y-1128006D02*
G54D44*
D03*
X542073Y-1154679D02*
G54D107*
D03*
X830274Y-1210440D02*
G54D18*
D03*
X201027Y-1250320D02*
G54D16*
D03*
X594526Y-1179958D02*
G54D108*
D03*
X552234Y-1176782D02*
G54D109*
D03*
X594526Y-1151501D02*
G54D89*
D03*
X589192Y-1119745D02*
G54D110*
D03*
X553019Y-1105910D02*
G54D111*
D03*
X628572Y-1151501D02*
G54D112*
D03*
X644065Y-1119745D02*
G54D113*
D03*
X643679Y-1361976D02*
G54D46*
D03*
X653843Y-1384080D02*
G54D114*
D03*
X633524Y-1384080D02*
G54D115*
D03*
X637591Y-1319045D02*
G54D116*
D03*
X647747Y-1296940D02*
G54D117*
D03*
X657911Y-1319045D02*
G54D118*
D03*
X513999Y-1349651D02*
G54D35*
D03*
X650924Y-1513251D02*
G54D112*
D03*
X430669Y-1280555D02*
G54D35*
D03*
X513999Y-1294776D02*
G54D35*
D03*
X444140Y-1238896D02*
G54D108*
D03*
X478179Y-1238896D02*
G54D108*
D03*
X521367Y-1238896D02*
G54D108*
D03*
X555404Y-1238896D02*
G54D119*
D03*
X689542Y-1236989D02*
G54D120*
D03*
X676836Y-1236989D02*
G54D121*
D03*
X664130Y-1236989D02*
G54D122*
D03*
X594526Y-1238896D02*
G54D108*
D03*
X628572Y-1238896D02*
G54D123*
D03*
X307714Y-1277504D02*
G54D93*
D03*
X362589Y-1277504D02*
G54D93*
D03*
X313821Y-1362859D02*
G54D93*
D03*
X368692Y-1362859D02*
G54D93*
D03*
X372119Y-1187449D02*
G54D39*
D03*
X387622Y-1187449D02*
G54D40*
D03*
X440841Y-1174873D02*
G54D124*
D03*
X372119Y-1144012D02*
G54D43*
D03*
X387622Y-1144012D02*
G54D42*
D03*
X379869Y-1134482D02*
G54D125*
D03*
X440841Y-1120002D02*
G54D102*
D03*
X486811Y-970627D02*
G54D32*
D03*
X485950Y-1010384D02*
G54D109*
D03*
X496113Y-1032487D02*
G54D126*
D03*
X506276Y-1010384D02*
G54D127*
D03*
X633139Y-1029566D02*
G54D80*
D03*
X667183Y-1029566D02*
G54D78*
D03*
X627019Y-1001524D02*
G54D68*
D03*
X642008Y-1001524D02*
G54D67*
D03*
X657000Y-1001524D02*
G54D65*
D03*
X638396Y-978248D02*
G54D69*
D03*
X641978Y-986338D02*
G54D65*
D03*
X645816Y-978029D02*
G54D128*
D03*
X552234Y-1077197D02*
G54D129*
D03*
X531909Y-1077197D02*
G54D104*
D03*
X644065Y-1077577D02*
G54D130*
D03*
X589192Y-1077577D02*
G54D131*
D03*
X542073Y-1055102D02*
G54D57*
D03*
X652700Y-825575D02*
G54D132*
D03*
X557945Y-771468D02*
G54D123*
D03*
X652700Y-783407D02*
G54D133*
D03*
X591990Y-771468D02*
G54D119*
D03*
X347347Y-685353D02*
G54D16*
D03*
X286127Y-750893D02*
G54D134*
D03*
X258946Y-559345D02*
G54D73*
D03*
X271652Y-559345D02*
G54D73*
D03*
X284350Y-559345D02*
G54D135*
D03*
X297049Y-559345D02*
G54D75*
D03*
X309755Y-559345D02*
G54D73*
D03*
X322460Y-559345D02*
G54D73*
D03*
X335153Y-559345D02*
G54D73*
D03*
X347858Y-559345D02*
G54D73*
D03*
X284350Y-621584D02*
G54D52*
D03*
X347858Y-621584D02*
G54D51*
D03*
X335153Y-621584D02*
G54D51*
D03*
X322460Y-621584D02*
G54D51*
D03*
X309755Y-621584D02*
G54D51*
D03*
X297049Y-621584D02*
G54D14*
D03*
X253868Y-486186D02*
G54D15*
D03*
X253868Y-520222D02*
G54D15*
D03*
X536483Y-621591D02*
G54D136*
D03*
X474244Y-621591D02*
G54D137*
D03*
X286382Y-486186D02*
G54D16*
D03*
X286382Y-520222D02*
G54D16*
D03*
X852631Y-514890D02*
G54D138*
D03*
X851358Y-551725D02*
G54D123*
D03*
X892259Y-550456D02*
G54D139*
D03*
X892259Y-525054D02*
G54D140*
D03*
X926301Y-525054D02*
G54D80*
D03*
X926301Y-550456D02*
G54D89*
D03*
X474244Y-608886D02*
G54D141*
D03*
X536483Y-608886D02*
G54D142*
D03*
X817315Y-579672D02*
G54D108*
D03*
X910801Y-622859D02*
G54D143*
D03*
X841705Y-622859D02*
G54D143*
D03*
X1421666Y-695261D02*
G54D144*
D03*
X926301Y-575860D02*
G54D145*
D03*
X892259Y-575860D02*
G54D146*
D03*
X851358Y-579672D02*
G54D123*
D03*
X1112254Y-525563D02*
G54D38*
D03*
X999718Y-556809D02*
G54D92*
D03*
X999718Y-522765D02*
G54D147*
D03*
X1274965Y-513752D02*
G54D40*
D03*
X1290457Y-513752D02*
G54D40*
D03*
X1282711Y-523276D02*
G54D148*
D03*
X1274965Y-470304D02*
G54D149*
D03*
X1290457Y-470304D02*
G54D149*
D03*
X1282711Y-460780D02*
G54D150*
D03*
X772858Y-605075D02*
G54D82*
D03*
X717985Y-605075D02*
G54D151*
D03*
X942812Y-602023D02*
G54D16*
D03*
X841705Y-610154D02*
G54D144*
D03*
X910801Y-610154D02*
G54D144*
D03*
X1038833Y-585384D02*
G54D152*
D03*
X1051539Y-585384D02*
G54D153*
D03*
X1064243Y-585384D02*
G54D152*
D03*
X1076943Y-585384D02*
G54D154*
D03*
X1089641Y-585384D02*
G54D155*
D03*
X1102347Y-585384D02*
G54D153*
D03*
X1115052Y-585384D02*
G54D153*
D03*
X1168397Y-569509D02*
G54D156*
D03*
X1425731Y-497106D02*
G54D157*
D03*
X1384583Y-545882D02*
G54D158*
D03*
X1440214Y-562390D02*
G54D159*
D03*
X1452920Y-562390D02*
G54D160*
D03*
X1425731Y-523531D02*
G54D161*
D03*
X1314469Y-613971D02*
G54D162*
D03*
X1421666Y-619041D02*
G54D143*
D03*
X1314469Y-626661D02*
G54D163*
D03*
X1580954Y-360185D02*
G54D164*
D03*
X1585018Y-438043D02*
G54D51*
D03*
X1585018Y-500282D02*
G54D73*
D03*
X1580954Y-394222D02*
G54D165*
D03*
X1597717Y-500282D02*
G54D135*
D03*
X1610416Y-500282D02*
G54D73*
D03*
X1623121Y-500282D02*
G54D73*
D03*
X1623121Y-438043D02*
G54D51*
D03*
X1610416Y-438043D02*
G54D51*
D03*
X1597717Y-438043D02*
G54D52*
D03*
X1352571Y-598722D02*
G54D38*
D03*
X1314469Y-601264D02*
G54D162*
D03*
X1314469Y-588560D02*
G54D166*
D03*
X1478317Y-562390D02*
G54D167*
D03*
X1491023Y-562390D02*
G54D160*
D03*
X1421666Y-657151D02*
G54D168*
D03*
X1421666Y-669851D02*
G54D144*
D03*
X1314469Y-677471D02*
G54D162*
D03*
X1314469Y-664771D02*
G54D169*
D03*
X1579933Y-562390D02*
G54D160*
D03*
X2586176Y-1507161D02*
G54D170*
D03*
X2620224Y-1507161D02*
G54D108*
D03*
X2296831Y-1400969D02*
G54D171*
D03*
X2284124Y-1400969D02*
G54D171*
D03*
X2271420Y-1400969D02*
G54D172*
D03*
X2296831Y-1494965D02*
G54D173*
D03*
X2284124Y-1494965D02*
G54D173*
D03*
X2271420Y-1494965D02*
G54D174*
D03*
X2258714Y-1348637D02*
G54D175*
D03*
X2258714Y-1254648D02*
G54D173*
D03*
X2258714Y-1494965D02*
G54D173*
D03*
X2258714Y-1400969D02*
G54D171*
D03*
X2182509Y-1196221D02*
G54D176*
D03*
X2169802Y-1196221D02*
G54D177*
D03*
X2157104Y-1196221D02*
G54D178*
D03*
X2144406Y-1196221D02*
G54D179*
D03*
X2131700Y-1196221D02*
G54D177*
D03*
X2131700Y-1348637D02*
G54D180*
D03*
X2144406Y-1348637D02*
G54D175*
D03*
X2157104Y-1348637D02*
G54D181*
D03*
X2169802Y-1348637D02*
G54D180*
D03*
X2182509Y-1348637D02*
G54D182*
D03*
X2233318Y-949797D02*
G54D177*
D03*
X2246021Y-949797D02*
G54D176*
D03*
X2271420Y-1043793D02*
G54D174*
D03*
X2271420Y-1102225D02*
G54D174*
D03*
X2271420Y-1348637D02*
G54D180*
D03*
X2246021Y-1494965D02*
G54D183*
D03*
X2233318Y-1494965D02*
G54D174*
D03*
X2246021Y-1196221D02*
G54D176*
D03*
X2233318Y-1196221D02*
G54D177*
D03*
X2233318Y-1348637D02*
G54D180*
D03*
X2246021Y-1348637D02*
G54D182*
D03*
X2233318Y-1254648D02*
G54D174*
D03*
X2246021Y-1254648D02*
G54D183*
D03*
X2207914Y-1102225D02*
G54D184*
D03*
X2207914Y-1196221D02*
G54D178*
D03*
X2195214Y-1196221D02*
G54D179*
D03*
X2195214Y-1102225D02*
G54D173*
D03*
X2220610Y-1196221D02*
G54D177*
D03*
X2220610Y-1102225D02*
G54D174*
D03*
X2195214Y-1043793D02*
G54D173*
D03*
X2207914Y-1043793D02*
G54D184*
D03*
X2220610Y-1043793D02*
G54D174*
D03*
X2131700Y-1043793D02*
G54D174*
D03*
X2131700Y-949797D02*
G54D177*
D03*
X2131700Y-1102225D02*
G54D174*
D03*
X2220610Y-1494965D02*
G54D174*
D03*
X2207914Y-1494965D02*
G54D184*
D03*
X2195214Y-1494965D02*
G54D173*
D03*
X2220610Y-1400969D02*
G54D172*
D03*
X2207914Y-1400969D02*
G54D185*
D03*
X2195214Y-1400969D02*
G54D171*
D03*
X2271420Y-1254648D02*
G54D174*
D03*
X2284124Y-1254648D02*
G54D173*
D03*
X2296831Y-1254648D02*
G54D173*
D03*
X1830667Y-1318410D02*
G54D186*
D03*
X1817963Y-1318410D02*
G54D187*
D03*
X1805270Y-1318410D02*
G54D188*
D03*
X1643448Y-853523D02*
G54D189*
D03*
X1696792Y-499904D02*
G54D94*
D03*
X1694255Y-562390D02*
G54D167*
D03*
X1656145Y-853523D02*
G54D190*
D03*
X1668845Y-853523D02*
G54D191*
D03*
X1973183Y-1353977D02*
G54D16*
D03*
X1973183Y-1388015D02*
G54D192*
D03*
X1902049Y-1216538D02*
G54D80*
D03*
X1902049Y-1188088D02*
G54D89*
D03*
X1936096Y-1188088D02*
G54D18*
D03*
X1936096Y-1216538D02*
G54D193*
D03*
X1716353Y-1318410D02*
G54D194*
D03*
X1690949Y-1318410D02*
G54D186*
D03*
X1665544Y-1027285D02*
G54D195*
D03*
X1558092Y-1172849D02*
G54D196*
D03*
X1592639Y-562390D02*
G54D159*
D03*
X1605337Y-562390D02*
G54D197*
D03*
X1618037Y-562390D02*
G54D167*
D03*
X1592639Y-853523D02*
G54D198*
D03*
X1605337Y-853523D02*
G54D190*
D03*
X1618037Y-853523D02*
G54D191*
D03*
X1754463Y-1318410D02*
G54D187*
D03*
X1741756Y-1318410D02*
G54D186*
D03*
X1741756Y-1027285D02*
G54D186*
D03*
X1817963Y-1027285D02*
G54D187*
D03*
X2013065Y-271521D02*
G54D80*
D03*
X2047109Y-271521D02*
G54D78*
D03*
X1767153Y-1318410D02*
G54D188*
D03*
X1767153Y-1027285D02*
G54D188*
D03*
X1712797Y-619041D02*
G54D199*
D03*
X1712797Y-606344D02*
G54D200*
D03*
X1712797Y-593644D02*
G54D201*
D03*
X1712797Y-580940D02*
G54D202*
D03*
X1712797Y-657151D02*
G54D200*
D03*
X1712797Y-644454D02*
G54D199*
D03*
X1712797Y-631748D02*
G54D202*
D03*
X1694255Y-853523D02*
G54D191*
D03*
X1690949Y-1027285D02*
G54D186*
D03*
X1716353Y-1027285D02*
G54D194*
D03*
X1589588Y-1354734D02*
G54D203*
D03*
X1589332Y-1318410D02*
G54D188*
D03*
X1635828Y-438043D02*
G54D51*
D03*
X1635828Y-500282D02*
G54D73*
D03*
X1558092Y-1160141D02*
G54D196*
D03*
X1558092Y-1147439D02*
G54D196*
D03*
X1558092Y-1134745D02*
G54D144*
D03*
X1546653Y-1493310D02*
G54D75*
D03*
X1546653Y-1403124D02*
G54D14*
D03*
X1516420Y-853523D02*
G54D189*
D03*
X1529124Y-853523D02*
G54D198*
D03*
X1508550Y-1403124D02*
G54D50*
D03*
X1508550Y-1493310D02*
G54D97*
D03*
X1513884Y-1125084D02*
G54D108*
D03*
X1513374Y-1153541D02*
G54D89*
D03*
X1379753Y-1390048D02*
G54D204*
D03*
X1521257Y-1493310D02*
G54D73*
D03*
X1521257Y-1403124D02*
G54D51*
D03*
X1479846Y-1125084D02*
G54D108*
D03*
X1479338Y-1153541D02*
G54D89*
D03*
X1236987Y-1285380D02*
G54D205*
D03*
X1236987Y-1319422D02*
G54D206*
D03*
X1236987Y-1356512D02*
G54D205*
D03*
X1218185Y-1033128D02*
G54D167*
D03*
X1139004Y-1154726D02*
G54D207*
D03*
X1199644Y-1153281D02*
G54D208*
D03*
X1389156Y-1153281D02*
G54D196*
D03*
X1199644Y-1140579D02*
G54D209*
D03*
X1389156Y-1140579D02*
G54D168*
D03*
X1439457Y-905598D02*
G54D145*
D03*
X1405414Y-905598D02*
G54D210*
D03*
X999283Y-1154726D02*
G54D211*
D03*
X1011989Y-1154726D02*
G54D207*
D03*
X1024687Y-1154726D02*
G54D212*
D03*
X1046453Y-1089650D02*
G54D14*
D03*
X1059159Y-1089650D02*
G54D51*
D03*
X1071866Y-1089650D02*
G54D50*
D03*
X1084563Y-1089650D02*
G54D52*
D03*
X905853Y-1028423D02*
G54D46*
D03*
X926171Y-1028423D02*
G54D213*
D03*
X748984Y-1031598D02*
G54D214*
D03*
X783027Y-1031598D02*
G54D215*
D03*
X864320Y-1210440D02*
G54D89*
D03*
X729422Y-1223395D02*
G54D216*
D03*
X896825Y-1410244D02*
G54D217*
D03*
X786328Y-1487592D02*
G54D205*
D03*
X739199Y-1498139D02*
G54D218*
D03*
X698554Y-1498139D02*
G54D98*
D03*
X543470Y-1482769D02*
G54D75*
D03*
X556170Y-1482769D02*
G54D135*
D03*
X568866Y-1482769D02*
G54D73*
D03*
X581573Y-1482769D02*
G54D73*
D03*
X594277Y-1482769D02*
G54D97*
D03*
X729038Y-1467397D02*
G54D111*
D03*
X708717Y-1467397D02*
G54D57*
D03*
X698554Y-1445301D02*
G54D219*
D03*
X688398Y-1467397D02*
G54D111*
D03*
X739199Y-1445301D02*
G54D220*
D03*
X786328Y-1453556D02*
G54D205*
D03*
X749361Y-1467397D02*
G54D111*
D03*
X729038Y-1520237D02*
G54D104*
D03*
X708717Y-1520237D02*
G54D105*
D03*
X688398Y-1520237D02*
G54D104*
D03*
X749361Y-1520237D02*
G54D104*
D03*
X829005Y-1499795D02*
G54D221*
D03*
X829005Y-1457613D02*
G54D221*
D03*
X806647Y-1400458D02*
G54D47*
D03*
X694109Y-1381794D02*
G54D88*
D03*
X706808Y-1381794D02*
G54D121*
D03*
X719514Y-1381794D02*
G54D120*
D03*
X732220Y-1381794D02*
G54D122*
D03*
X521367Y-1210440D02*
G54D89*
D03*
X797249Y-1210440D02*
G54D89*
D03*
X763213Y-1210440D02*
G54D89*
D03*
X628572Y-1210440D02*
G54D112*
D03*
X594526Y-1210440D02*
G54D89*
D03*
X555404Y-1210440D02*
G54D222*
D03*
X595291Y-963772D02*
G54D15*
D03*
X566840Y-963772D02*
G54D83*
D03*
X638505Y-963137D02*
G54D223*
D03*
X645816Y-963137D02*
G54D224*
D03*
X748984Y-952341D02*
G54D225*
D03*
X783027Y-952341D02*
G54D145*
D03*
X830017Y-953106D02*
G54D108*
D03*
X864058Y-953106D02*
G54D108*
D03*
X536351Y-834471D02*
G54D226*
D03*
X874124Y-1065257D02*
G54D114*
D03*
X894440Y-1065257D02*
G54D227*
D03*
X924924Y-1065257D02*
G54D98*
D03*
X945251Y-1065257D02*
G54D227*
D03*
X880571Y-1153541D02*
G54D112*
D03*
X864320Y-1181990D02*
G54D38*
D03*
X846527Y-1153541D02*
G54D89*
D03*
X901401Y-1175259D02*
G54D75*
D03*
X914108Y-1175259D02*
G54D73*
D03*
X926811Y-1175259D02*
G54D75*
D03*
X939505Y-1175259D02*
G54D73*
D03*
X965163Y-1189356D02*
G54D85*
D03*
X1050092Y-1267017D02*
G54D189*
D03*
X1037387Y-1267017D02*
G54D189*
D03*
X1024687Y-1267017D02*
G54D228*
D03*
X1011989Y-1267017D02*
G54D189*
D03*
X999283Y-1267017D02*
G54D191*
D03*
X1199644Y-1204087D02*
G54D229*
D03*
X1389156Y-1204087D02*
G54D144*
D03*
X1199644Y-1051669D02*
G54D209*
D03*
X1389156Y-1051669D02*
G54D168*
D03*
X1357905Y-1033128D02*
G54D159*
D03*
X1345205Y-1033128D02*
G54D197*
D03*
X1370609Y-1033128D02*
G54D160*
D03*
X1281699Y-1033128D02*
G54D160*
D03*
X1405414Y-936080D02*
G54D37*
D03*
X1439457Y-936080D02*
G54D38*
D03*
X1336310Y-787726D02*
G54D108*
D03*
X1370354Y-787726D02*
G54D123*
D03*
X1336310Y-840561D02*
G54D108*
D03*
X1421666Y-809569D02*
G54D144*
D03*
X1421666Y-796872D02*
G54D168*
D03*
X1421666Y-784173D02*
G54D196*
D03*
X1350538Y-734887D02*
G54D230*
D03*
X1554537Y-853523D02*
G54D191*
D03*
X1567227Y-853523D02*
G54D191*
D03*
X1579933Y-853523D02*
G54D189*
D03*
X1478317Y-853523D02*
G54D191*
D03*
X1491023Y-853523D02*
G54D189*
D03*
X1465619Y-853523D02*
G54D190*
D03*
X1370354Y-840561D02*
G54D123*
D03*
X1112254Y-497106D02*
G54D80*
D03*
X1139562Y-498003D02*
G54D107*
D03*
X1159886Y-498003D02*
G54D231*
D03*
X1204721Y-507267D02*
G54D108*
D03*
X1516420Y-562390D02*
G54D160*
D03*
X1529124Y-562390D02*
G54D159*
D03*
X1524813Y-494570D02*
G54D232*
D03*
X1719150Y-240536D02*
G54D233*
D03*
X1719150Y-322336D02*
G54D234*
D03*
X1696792Y-465859D02*
G54D83*
D03*
X1678504Y-406418D02*
G54D56*
D03*
X1678504Y-372373D02*
G54D85*
D03*
X1827622Y-980790D02*
G54D235*
D03*
X1830667Y-1027285D02*
G54D186*
D03*
X1805270Y-1027285D02*
G54D188*
D03*
X1793577Y-980790D02*
G54D203*
D03*
X1792564Y-1027285D02*
G54D186*
D03*
X2731730Y-843360D02*
G54D97*
D03*
X2744430Y-843360D02*
G54D97*
D03*
X2757130Y-843360D02*
G54D97*
D03*
X2719030Y-843360D02*
G54D97*
D03*
X2719030Y-905599D02*
G54D50*
D03*
X2731730Y-905599D02*
G54D50*
D03*
X2744430Y-905599D02*
G54D50*
D03*
X2757130Y-905599D02*
G54D50*
D03*
X2769843Y-843360D02*
G54D236*
D03*
X2769843Y-905599D02*
G54D237*
D03*
X2131700Y-1254648D02*
G54D174*
D03*
X2182509Y-1494965D02*
G54D183*
D03*
X2182509Y-1400969D02*
G54D238*
D03*
X2169802Y-1400969D02*
G54D172*
D03*
X2169802Y-1494965D02*
G54D174*
D03*
X2157104Y-1494965D02*
G54D184*
D03*
X2157104Y-1400969D02*
G54D185*
D03*
X1779860Y-1318410D02*
G54D188*
D03*
X1779860Y-1027285D02*
G54D188*
D03*
X2193438Y-291847D02*
G54D38*
D03*
X2159391Y-291847D02*
G54D230*
D03*
X1661225Y-500282D02*
G54D75*
D03*
X1656145Y-562390D02*
G54D197*
D03*
X1668845Y-562390D02*
G54D167*
D03*
X1661225Y-438043D02*
G54D14*
D03*
X1678243Y-1318410D02*
G54D188*
D03*
X1379753Y-1284876D02*
G54D206*
D03*
X1379753Y-1318919D02*
G54D239*
D03*
X1379753Y-1356002D02*
G54D205*
D03*
X1272549Y-1390548D02*
G54D83*
D03*
X1343172Y-1390048D02*
G54D22*
D03*
X1412268Y-1339238D02*
G54D22*
D03*
X1412268Y-1305194D02*
G54D16*
D03*
X1343172Y-1356002D02*
G54D16*
D03*
X1343172Y-1318919D02*
G54D192*
D03*
X1343172Y-1284876D02*
G54D240*
D03*
X1253751Y-1431327D02*
G54D73*
D03*
X1266458Y-1431327D02*
G54D97*
D03*
X1279155Y-1431327D02*
G54D135*
D03*
X1291855Y-1431327D02*
G54D75*
D03*
X1389156Y-1064369D02*
G54D144*
D03*
X1389156Y-1077073D02*
G54D196*
D03*
X1389156Y-1089781D02*
G54D196*
D03*
X1389156Y-1102472D02*
G54D143*
D03*
X1389156Y-1115177D02*
G54D144*
D03*
X1389156Y-1127883D02*
G54D196*
D03*
X1199644Y-1165984D02*
G54D241*
D03*
X1389156Y-1165984D02*
G54D143*
D03*
X1270011Y-734631D02*
G54D188*
D03*
X696901Y-809323D02*
G54D242*
D03*
X869395Y-784172D02*
G54D112*
D03*
X1115052Y-647623D02*
G54D243*
D03*
X1149345Y-652075D02*
G54D208*
D03*
X1352571Y-651563D02*
G54D89*
D03*
X1386610Y-651563D02*
G54D89*
D03*
X1314469Y-652075D02*
G54D166*
D03*
X1149345Y-715575D02*
G54D208*
D03*
X1193801Y-734631D02*
G54D194*
D03*
X1181101Y-734631D02*
G54D188*
D03*
X1168397Y-734631D02*
G54D186*
D03*
X1630741Y-562390D02*
G54D160*
D03*
X2544511Y-1505629D02*
G54D17*
D03*
X2312573Y-833705D02*
G54D244*
D03*
X2312573Y-867750D02*
G54D92*
D03*
X1589083Y-1431201D02*
G54D242*
D03*
X1589083Y-1465240D02*
G54D245*
D03*
X1215649Y-1431327D02*
G54D73*
D03*
X1228348Y-1431327D02*
G54D135*
D03*
X1241048Y-1431327D02*
G54D97*
D03*
X1236987Y-1390548D02*
G54D205*
D03*
X170545Y-1284365D02*
G54D240*
D03*
X133958Y-1284365D02*
G54D240*
D03*
X1533949Y-1493310D02*
G54D73*
D03*
X1533949Y-1403124D02*
G54D51*
D03*
X2144406Y-1494965D02*
G54D173*
D03*
X2131700Y-1494965D02*
G54D174*
D03*
X2144406Y-1400969D02*
G54D171*
D03*
X2131700Y-1400969D02*
G54D172*
D03*
X1602037Y-1318410D02*
G54D187*
D03*
X1614743Y-1318410D02*
G54D188*
D03*
X151232Y-1356257D02*
G54D246*
D03*
X259966Y-1371752D02*
G54D16*
D03*
X229477Y-1371752D02*
G54D15*
D03*
X1665544Y-1318410D02*
G54D195*
D03*
X2776193Y-1356257D02*
G54D247*
D03*
X1630741Y-853523D02*
G54D189*
D03*
X1627436Y-1027285D02*
G54D186*
D03*
X1389156Y-1178691D02*
G54D196*
D03*
X1389156Y-1191390D02*
G54D168*
D03*
X146794Y-1025121D02*
G54D248*
D03*
X146794Y-1009626D02*
G54D63*
D03*
X137258Y-1017378D02*
G54D71*
D03*
X1008351Y-1089650D02*
G54D50*
D03*
X1021057Y-1089650D02*
G54D51*
D03*
X1021057Y-1027408D02*
G54D243*
D03*
X1008351Y-1027408D02*
G54D249*
D03*
X190230Y-1025121D02*
G54D248*
D03*
X190230Y-1009626D02*
G54D63*
D03*
X1370354Y-893403D02*
G54D210*
D03*
X1336310Y-893403D02*
G54D145*
D03*
X962959Y-915706D02*
G54D250*
D03*
X1232419Y-871051D02*
G54D93*
D03*
X1370354Y-866985D02*
G54D37*
D03*
X1336310Y-866985D02*
G54D38*
D03*
X957542Y-845901D02*
G54D164*
D03*
X903441Y-784172D02*
G54D89*
D03*
X240398Y-784421D02*
G54D245*
D03*
X239640Y-681288D02*
G54D192*
D03*
X239640Y-715325D02*
G54D16*
D03*
X240398Y-750382D02*
G54D242*
D03*
X206615Y-755715D02*
G54D251*
D03*
X841705Y-749871D02*
G54D144*
D03*
X841705Y-737168D02*
G54D196*
D03*
X841705Y-711769D02*
G54D143*
D03*
X841705Y-724475D02*
G54D196*
D03*
X724337Y-761303D02*
G54D82*
D03*
X272155Y-880448D02*
G54D252*
D03*
X1001750Y-699065D02*
G54D192*
D03*
X581979Y-671504D02*
G54D105*
D03*
X571815Y-693600D02*
G54D46*
D03*
X561659Y-671504D02*
G54D117*
D03*
X536483Y-634284D02*
G54D136*
D03*
X474244Y-634284D02*
G54D137*
D03*
X841705Y-635558D02*
G54D253*
D03*
X910801Y-635558D02*
G54D253*
D03*
X1149345Y-588560D02*
G54D208*
D03*
X1149345Y-601264D02*
G54D229*
D03*
X474244Y-596180D02*
G54D254*
D03*
X474244Y-583474D02*
G54D137*
D03*
X536483Y-583474D02*
G54D136*
D03*
X536483Y-596180D02*
G54D255*
D03*
X474244Y-558077D02*
G54D254*
D03*
X1681550Y-562390D02*
G54D159*
D03*
X599357Y-520734D02*
G54D19*
D03*
X426358Y-517431D02*
G54D256*
D03*
X971268Y-522765D02*
G54D22*
D03*
X971268Y-556809D02*
G54D16*
D03*
X619681Y-476277D02*
G54D34*
D03*
X685732Y-478055D02*
G54D257*
D03*
X1204721Y-461546D02*
G54D89*
D03*
X1558850Y-494570D02*
G54D145*
D03*
X1558850Y-469166D02*
G54D89*
D03*
X407761Y-328607D02*
G54D21*
D03*
X408368Y-367370D02*
G54D21*
D03*
X1116320Y-399941D02*
G54D51*
D03*
X1103616Y-399941D02*
G54D50*
D03*
X1090909Y-399941D02*
G54D51*
D03*
X1078217Y-399941D02*
G54D51*
D03*
X1343172Y-384060D02*
G54D192*
D03*
X1375696Y-384058D02*
G54D242*
D03*
X470945Y-406541D02*
G54D103*
D03*
X450619Y-406541D02*
G54D111*
D03*
X460782Y-384446D02*
G54D105*
D03*
X704398Y-365385D02*
G54D258*
D03*
X253861Y-359674D02*
G54D56*
D03*
X253861Y-325629D02*
G54D259*
D03*
X171303Y-112240D02*
G54D260*
D03*
X1621599Y-398287D02*
G54D147*
D03*
X1621599Y-364241D02*
G54D92*
D03*
X688266Y-260091D02*
G54D205*
D03*
X713672Y-260091D02*
G54D29*
D03*
X1605592Y-291089D02*
G54D261*
D03*
X2319430Y-291847D02*
G54D262*
D03*
X1503727Y-562390D02*
G54D167*
D03*
X1503727Y-853523D02*
G54D191*
D03*
X1487715Y-434102D02*
G54D263*
D03*
X637458Y-260091D02*
G54D92*
D03*
X654483Y-296417D02*
G54D108*
D03*
X637458Y-226054D02*
G54D264*
D03*
X421150Y-440972D02*
G54D265*
D03*
X421150Y-428266D02*
G54D266*
D03*
X421150Y-415562D02*
G54D265*
D03*
X421150Y-402855D02*
G54D266*
D03*
X431434Y-112240D02*
G54D260*
D03*
X261613Y-1193043D02*
G54D107*
D03*
X251450Y-1170939D02*
G54D98*
D03*
X241293Y-1193043D02*
G54D46*
D03*
X345722Y-1170939D02*
G54D227*
D03*
X335565Y-1193043D02*
G54D127*
D03*
X325403Y-1170939D02*
G54D114*
D03*
X304290Y-1193043D02*
G54D107*
D03*
X294128Y-1170939D02*
G54D98*
D03*
X283972Y-1193043D02*
G54D46*
D03*
X271652Y-621584D02*
G54D51*
D03*
X258946Y-621584D02*
G54D51*
D03*
X199752Y-1017378D02*
G54D71*
D03*
X241672Y-880448D02*
G54D252*
D03*
X430669Y-1390303D02*
G54D34*
D03*
X286127Y-814399D02*
G54D267*
D03*
X393588Y-210045D02*
G54D268*
D03*
X393842Y-152130D02*
G54D100*
D03*
X399176Y-269495D02*
G54D269*
D03*
X474114Y-226811D02*
G54D119*
D03*
X474114Y-200395D02*
G54D119*
D03*
X440076Y-200395D02*
G54D108*
D03*
X440076Y-226811D02*
G54D108*
D03*
X634916Y-323342D02*
G54D270*
D03*
X713672Y-331224D02*
G54D29*
D03*
X685726Y-331224D02*
G54D16*
D03*
X841705Y-648258D02*
G54D196*
D03*
X564802Y-932021D02*
G54D271*
D03*
X598847Y-932779D02*
G54D272*
D03*
X600625Y-899500D02*
G54D273*
D03*
X632889Y-932779D02*
G54D274*
D03*
X634668Y-899500D02*
G54D215*
D03*
X688266Y-226054D02*
G54D239*
D03*
X474244Y-570784D02*
G54D137*
D03*
X536483Y-570784D02*
G54D136*
D03*
X818588Y-489486D02*
G54D140*
D03*
X619681Y-421404D02*
G54D275*
D03*
X685732Y-414541D02*
G54D134*
D03*
X910801Y-749871D02*
G54D144*
D03*
X910801Y-737168D02*
G54D196*
D03*
X910801Y-724475D02*
G54D196*
D03*
X910801Y-711769D02*
G54D143*
D03*
X1152901Y-808046D02*
G54D276*
D03*
X1370354Y-814144D02*
G54D112*
D03*
X1336310Y-814144D02*
G54D89*
D03*
X1220472Y-808046D02*
G54D277*
D03*
X1421666Y-822275D02*
G54D196*
D03*
X962959Y-959913D02*
G54D278*
D03*
X916010Y-957551D02*
G54D227*
D03*
X1041632Y-964537D02*
G54D80*
D03*
X1075668Y-964537D02*
G54D80*
D03*
X957542Y-879939D02*
G54D279*
D03*
X1177546Y-871051D02*
G54D79*
D03*
X1350538Y-708462D02*
G54D139*
D03*
X1384583Y-708462D02*
G54D158*
D03*
X1421666Y-707954D02*
G54D143*
D03*
X1086925Y-324314D02*
G54D12*
D03*
X1127929Y-324921D02*
G54D280*
D03*
X1253751Y-1493566D02*
G54D51*
D03*
X1266458Y-1493566D02*
G54D50*
D03*
X1279155Y-1493566D02*
G54D52*
D03*
X1291855Y-1493566D02*
G54D14*
D03*
X1330978Y-1475403D02*
G54D240*
D03*
X1330978Y-1441359D02*
G54D274*
D03*
X1363500Y-1475403D02*
G54D240*
D03*
X1363500Y-1441359D02*
G54D274*
D03*
X1086925Y-368513D02*
G54D281*
D03*
X1127929Y-369120D02*
G54D282*
D03*
X479453Y-342910D02*
G54D283*
D03*
X1343172Y-350021D02*
G54D192*
D03*
X1375696Y-350021D02*
G54D85*
D03*
X1554537Y-562390D02*
G54D167*
D03*
X1567227Y-562390D02*
G54D167*
D03*
X1643448Y-562390D02*
G54D160*
D03*
X1654114Y-1465240D02*
G54D16*
D03*
X1654114Y-1431204D02*
G54D16*
D03*
X1652846Y-1318410D02*
G54D186*
D03*
X1652846Y-1027285D02*
G54D186*
D03*
X1687901Y-1479337D02*
G54D217*
D03*
X1700602Y-1479337D02*
G54D10*
D03*
X1687901Y-1417098D02*
G54D284*
D03*
X1700602Y-1417098D02*
G54D285*
D03*
X1703653Y-1318410D02*
G54D188*
D03*
X1932538Y-1353977D02*
G54D205*
D03*
X1932538Y-1388015D02*
G54D239*
D03*
X2144406Y-1254648D02*
G54D173*
D03*
X2157104Y-1254648D02*
G54D184*
D03*
X2169802Y-1254648D02*
G54D174*
D03*
X2182509Y-1254648D02*
G54D183*
D03*
X2318674Y-1416464D02*
G54D22*
D03*
X2321971Y-1513251D02*
G54D286*
D03*
X2318674Y-1382419D02*
G54D192*
D03*
X2318672Y-1305195D02*
G54D259*
D03*
X2318672Y-1339239D02*
G54D165*
D03*
X2705314Y-1470071D02*
G54D287*
D03*
X229477Y-1453045D02*
G54D15*
D03*
X229477Y-1419009D02*
G54D15*
D03*
X2510468Y-1505629D02*
G54D108*
D03*
X2497005Y-1470071D02*
G54D288*
D03*
X2356016Y-1513251D02*
G54D289*
D03*
X462428Y-901532D02*
G54D80*
D03*
X496472Y-901532D02*
G54D193*
D03*
X716717Y-682556D02*
G54D290*
D03*
X771590Y-682556D02*
G54D291*
D03*
X536483Y-558077D02*
G54D255*
D03*
X599357Y-554777D02*
G54D193*
D03*
X706560Y-899754D02*
G54D80*
D03*
X706560Y-930238D02*
G54D38*
D03*
X253868Y-415051D02*
G54D15*
D03*
X206615Y-410737D02*
G54D251*
D03*
X286382Y-415051D02*
G54D16*
D03*
X2015863Y-1353977D02*
G54D16*
D03*
X2015863Y-1388015D02*
G54D192*
D03*
X1495846Y-1493310D02*
G54D73*
D03*
X1495846Y-1403124D02*
G54D51*
D03*
X1396013Y-1441359D02*
G54D272*
D03*
X1432346Y-1403124D02*
G54D51*
D03*
X1445039Y-1403124D02*
G54D51*
D03*
X1457743Y-1403124D02*
G54D14*
D03*
X1396013Y-1475403D02*
G54D20*
D03*
X1432346Y-1493310D02*
G54D73*
D03*
X1445039Y-1493310D02*
G54D73*
D03*
X1457743Y-1493310D02*
G54D75*
D03*
X430669Y-1445175D02*
G54D35*
D03*
X374535Y-1421804D02*
G54D292*
D03*
X374535Y-1458379D02*
G54D53*
D03*
X259966Y-1337716D02*
G54D16*
D03*
X229477Y-1337716D02*
G54D15*
D03*
X884134Y-1348003D02*
G54D50*
D03*
X871429Y-1348003D02*
G54D14*
D03*
X858724Y-1348003D02*
G54D50*
D03*
X1139004Y-1267017D02*
G54D189*
D03*
X1126297Y-1267017D02*
G54D189*
D03*
X1113606Y-1267017D02*
G54D198*
D03*
X1100901Y-1267017D02*
G54D191*
D03*
X1272549Y-1356512D02*
G54D83*
D03*
X1272549Y-1319422D02*
G54D94*
D03*
X1272549Y-1285380D02*
G54D83*
D03*
X1470449Y-1493310D02*
G54D73*
D03*
X1470449Y-1403124D02*
G54D51*
D03*
X1483145Y-1403124D02*
G54D52*
D03*
X1483145Y-1493310D02*
G54D135*
D03*
X1623631Y-1354734D02*
G54D53*
D03*
X1627436Y-1318410D02*
G54D186*
D03*
X2271420Y-1196221D02*
G54D177*
D03*
X2296831Y-1196221D02*
G54D179*
D03*
X2284124Y-1196221D02*
G54D179*
D03*
X1759795Y-1414940D02*
G54D16*
D03*
X1759795Y-1448981D02*
G54D16*
D03*
X1754463Y-1027285D02*
G54D187*
D03*
X1602037Y-1027285D02*
G54D187*
D03*
X1589332Y-1027285D02*
G54D188*
D03*
X1614743Y-1027285D02*
G54D188*
D03*
X884286Y-1087363D02*
G54D115*
D03*
X935087Y-1087363D02*
G54D114*
D03*
X664130Y-1174750D02*
G54D293*
D03*
X676836Y-1174750D02*
G54D217*
D03*
X689542Y-1174750D02*
G54D294*
D03*
X628572Y-1179958D02*
G54D123*
D03*
X440841Y-1020423D02*
G54D124*
D03*
X435142Y-965680D02*
G54D46*
D03*
X445306Y-987778D02*
G54D44*
D03*
X455469Y-965680D02*
G54D127*
D03*
X462428Y-932021D02*
G54D138*
D03*
X496472Y-932021D02*
G54D295*
D03*
X530765Y-932021D02*
G54D138*
D03*
X557945Y-808046D02*
G54D37*
D03*
X821282Y-1018513D02*
G54D98*
D03*
X841602Y-1018513D02*
G54D114*
D03*
X748984Y-1005182D02*
G54D214*
D03*
X783027Y-1005182D02*
G54D215*
D03*
X748984Y-978764D02*
G54D18*
D03*
X783027Y-978764D02*
G54D89*
D03*
X830017Y-978503D02*
G54D138*
D03*
X916010Y-1006325D02*
G54D116*
D03*
X864058Y-978503D02*
G54D138*
D03*
X905853Y-979654D02*
G54D111*
D03*
X926171Y-979654D02*
G54D296*
D03*
X1241557Y-927191D02*
G54D164*
D03*
X1280933Y-946244D02*
G54D297*
D03*
X1344441Y-946244D02*
G54D298*
D03*
X1541831Y-853523D02*
G54D189*
D03*
X2688550Y-852000D02*
G54D299*
D03*
X2688550Y-886037D02*
G54D300*
D03*
X591990Y-808046D02*
G54D301*
D03*
X302643Y-880448D02*
G54D90*
D03*
X347347Y-719389D02*
G54D16*
D03*
X1004796Y-753173D02*
G54D302*
D03*
X1421666Y-746069D02*
G54D144*
D03*
X1421666Y-758761D02*
G54D144*
D03*
X1384583Y-734887D02*
G54D262*
D03*
X1421666Y-720658D02*
G54D196*
D03*
X1421666Y-733365D02*
G54D196*
D03*
X1459776Y-523531D02*
G54D17*
D03*
X1459776Y-497106D02*
G54D140*
D03*
X1465619Y-562390D02*
G54D197*
D03*
X1678243Y-1027285D02*
G54D188*
D03*
X1681550Y-853523D02*
G54D198*
D03*
X1640139Y-1027285D02*
G54D186*
D03*
X1640139Y-1318410D02*
G54D186*
D03*
X1405915Y-434102D02*
G54D303*
D03*
X1295409Y-569509D02*
G54D304*
D03*
X1386610Y-572306D02*
G54D38*
D03*
X1352571Y-572306D02*
G54D38*
D03*
X1350538Y-545882D02*
G54D139*
D03*
X1333011Y-505235D02*
G54D305*
D03*
X1541831Y-562390D02*
G54D160*
D03*
X288416Y-235707D02*
G54D58*
D03*
X288416Y-201661D02*
G54D15*
D03*
X301369Y-112240D02*
G54D306*
D03*
X338968Y-152130D02*
G54D100*
D03*
X196962Y-235707D02*
G54D22*
D03*
X227444Y-235707D02*
G54D22*
D03*
X257927Y-235707D02*
G54D22*
D03*
X196962Y-201661D02*
G54D83*
D03*
X227444Y-201661D02*
G54D16*
D03*
X257927Y-201661D02*
G54D16*
D03*
X208903Y-152130D02*
G54D87*
D03*
X469035Y-152130D02*
G54D307*
D03*
X611801Y-386345D02*
G54D308*
D03*
X634924Y-386345D02*
G54D309*
D03*
X658031Y-386345D02*
G54D308*
D03*
X682300Y-375549D02*
G54D310*
D03*
X704398Y-385713D02*
G54D258*
D03*
X1576627Y-1318410D02*
G54D187*
D03*
X1849216Y-1236349D02*
G54D311*
D03*
X1849216Y-1249053D02*
G54D312*
D03*
X1849216Y-1261759D02*
G54D311*
D03*
X1849216Y-1274465D02*
G54D313*
D03*
X1849216Y-1299863D02*
G54D312*
D03*
X1849216Y-1287156D02*
G54D311*
D03*
X1849216Y-1223656D02*
G54D311*
D03*
X1849216Y-1210950D02*
G54D313*
D03*
X1849216Y-1198245D02*
G54D312*
D03*
X1849216Y-1185545D02*
G54D314*
D03*
X1849216Y-1172849D02*
G54D311*
D03*
X1849216Y-1160141D02*
G54D311*
D03*
X1849216Y-1147439D02*
G54D311*
D03*
X1849216Y-1134745D02*
G54D312*
D03*
X1849216Y-1122040D02*
G54D313*
D03*
X1849216Y-1109335D02*
G54D312*
D03*
X1849216Y-1096627D02*
G54D312*
D03*
X1849216Y-1083939D02*
G54D311*
D03*
X1849216Y-1045827D02*
G54D314*
D03*
X1849216Y-1058525D02*
G54D313*
D03*
X1849216Y-1071231D02*
G54D311*
D03*
X1558092Y-1109335D02*
G54D144*
D03*
X1558092Y-1122040D02*
G54D143*
D03*
X1558092Y-1249053D02*
G54D144*
D03*
X1558092Y-1261759D02*
G54D196*
D03*
X1558092Y-1274465D02*
G54D143*
D03*
X1558092Y-1287156D02*
G54D196*
D03*
X1558092Y-1299863D02*
G54D144*
D03*
X1558092Y-1223656D02*
G54D196*
D03*
X1558092Y-1236349D02*
G54D196*
D03*
X1558092Y-1185545D02*
G54D168*
D03*
X1558092Y-1198245D02*
G54D144*
D03*
X1558092Y-1210950D02*
G54D143*
D03*
X1199644Y-1102472D02*
G54D241*
D03*
X1199644Y-1115177D02*
G54D229*
D03*
X1199644Y-1127883D02*
G54D208*
D03*
X1199644Y-1064369D02*
G54D229*
D03*
X1199644Y-1077073D02*
G54D208*
D03*
X1199644Y-1089781D02*
G54D208*
D03*
X1199644Y-1191390D02*
G54D209*
D03*
X1199644Y-1178691D02*
G54D208*
D03*
X1703653Y-1027285D02*
G54D188*
D03*
X1712797Y-796872D02*
G54D200*
D03*
X1712797Y-834979D02*
G54D201*
D03*
X1712797Y-822275D02*
G54D202*
D03*
X1712797Y-809569D02*
G54D201*
D03*
X1421666Y-834979D02*
G54D144*
D03*
X1440214Y-853523D02*
G54D198*
D03*
X1452920Y-853523D02*
G54D189*
D03*
X968112Y-688529D02*
G54D98*
D03*
X910801Y-686364D02*
G54D168*
D03*
X841705Y-686364D02*
G54D168*
D03*
X1314469Y-690176D02*
G54D163*
D03*
X1149345Y-690176D02*
G54D241*
D03*
X910801Y-673668D02*
G54D196*
D03*
X910801Y-660961D02*
G54D144*
D03*
X841705Y-673668D02*
G54D196*
D03*
X841705Y-660961D02*
G54D144*
D03*
X1001750Y-665028D02*
G54D16*
D03*
X978274Y-666426D02*
G54D57*
D03*
X957956Y-666426D02*
G54D111*
D03*
X841705Y-699065D02*
G54D196*
D03*
X910801Y-699065D02*
G54D196*
D03*
X1314469Y-702881D02*
G54D162*
D03*
X1149345Y-702881D02*
G54D229*
D03*
X1149345Y-677471D02*
G54D229*
D03*
X1149345Y-664771D02*
G54D209*
D03*
X1149345Y-613971D02*
G54D229*
D03*
X1149345Y-626661D02*
G54D241*
D03*
X1149345Y-639368D02*
G54D208*
D03*
X1314469Y-639368D02*
G54D166*
D03*
X1421666Y-644454D02*
G54D143*
D03*
X1712797Y-695261D02*
G54D201*
D03*
X1712797Y-707954D02*
G54D199*
D03*
X1712797Y-669851D02*
G54D201*
D03*
X1712797Y-682555D02*
G54D202*
D03*
X1712797Y-771467D02*
G54D199*
D03*
X1712797Y-758761D02*
G54D201*
D03*
X1712797Y-784173D02*
G54D202*
D03*
X1712797Y-746069D02*
G54D201*
D03*
X1712797Y-720658D02*
G54D202*
D03*
X1712797Y-733365D02*
G54D202*
D03*
X1386610Y-598722D02*
G54D38*
D03*
X1421666Y-580940D02*
G54D196*
D03*
X1421666Y-606344D02*
G54D168*
D03*
X1421666Y-593644D02*
G54D144*
D03*
X1062797Y-1267017D02*
G54D189*
D03*
X1075497Y-1267017D02*
G54D228*
D03*
X1088194Y-1267017D02*
G54D189*
D03*
X965163Y-1223395D02*
G54D315*
D03*
X1218185Y-1222635D02*
G54D211*
D03*
X1319803Y-1222635D02*
G54D211*
D03*
X1307095Y-1222635D02*
G54D211*
D03*
X1294398Y-1222635D02*
G54D316*
D03*
X1281699Y-1222635D02*
G54D207*
D03*
X1268991Y-1222635D02*
G54D207*
D03*
X1256289Y-1222635D02*
G54D207*
D03*
X1243595Y-1222635D02*
G54D211*
D03*
X1230890Y-1222635D02*
G54D317*
D03*
X1332507Y-1222635D02*
G54D207*
D03*
X1345205Y-1222635D02*
G54D318*
D03*
X1357905Y-1222635D02*
G54D317*
D03*
X1370609Y-1222635D02*
G54D207*
D03*
X1037387Y-1154726D02*
G54D207*
D03*
X1050092Y-1154726D02*
G54D207*
D03*
X1062797Y-1154726D02*
G54D207*
D03*
X1075497Y-1154726D02*
G54D212*
D03*
X1088194Y-1154726D02*
G54D207*
D03*
X1100901Y-1154726D02*
G54D211*
D03*
X1126297Y-1154726D02*
G54D207*
D03*
X1113606Y-1154726D02*
G54D317*
D03*
X1230890Y-1033128D02*
G54D159*
D03*
X1243595Y-1033128D02*
G54D167*
D03*
X1256289Y-1033128D02*
G54D160*
D03*
X1268991Y-1033128D02*
G54D160*
D03*
X1294398Y-1033128D02*
G54D319*
D03*
X1307095Y-1033128D02*
G54D167*
D03*
X1319803Y-1033128D02*
G54D167*
D03*
X1332507Y-1033128D02*
G54D160*
D03*
X1558092Y-1083939D02*
G54D196*
D03*
X1558092Y-1096627D02*
G54D144*
D03*
X1558092Y-1071231D02*
G54D196*
D03*
X1558092Y-1058525D02*
G54D143*
D03*
X1558092Y-1045827D02*
G54D168*
D03*
X1576627Y-1027285D02*
G54D187*
D03*
X1729050Y-1318410D02*
G54D187*
D03*
X1729050Y-1027285D02*
G54D187*
D03*
X1206499Y-734631D02*
G54D187*
D03*
X1219205Y-734631D02*
G54D186*
D03*
X1231909Y-734631D02*
G54D187*
D03*
X1257307Y-734631D02*
G54D186*
D03*
X1244601Y-734631D02*
G54D188*
D03*
X1282711Y-734631D02*
G54D194*
D03*
X1295409Y-734631D02*
G54D187*
D03*
X1314469Y-715575D02*
G54D166*
D03*
X1181101Y-569509D02*
G54D320*
D03*
X1193801Y-569509D02*
G54D321*
D03*
X1206499Y-569509D02*
G54D304*
D03*
X1219205Y-569509D02*
G54D156*
D03*
X1231909Y-569509D02*
G54D304*
D03*
X1282711Y-569509D02*
G54D321*
D03*
X1270011Y-569509D02*
G54D320*
D03*
X1257307Y-569509D02*
G54D156*
D03*
X1244601Y-569509D02*
G54D320*
D03*
X259966Y-1419009D02*
G54D16*
D03*
X259966Y-1453045D02*
G54D16*
D03*
X288822Y-1435137D02*
G54D98*
D03*
X340491Y-1458379D02*
G54D322*
D03*
X340491Y-1421804D02*
G54D323*
D03*
X309148Y-1435137D02*
G54D227*
D03*
X501425Y-1154679D02*
G54D127*
D03*
X491262Y-1176782D02*
G54D107*
D03*
X491262Y-1128006D02*
G54D44*
D03*
X501425Y-1105910D02*
G54D103*
D03*
X831438Y-1040619D02*
G54D227*
D03*
X534727Y-1032487D02*
G54D107*
D03*
X544888Y-1010384D02*
G54D109*
D03*
X566840Y-997808D02*
G54D83*
D03*
X595291Y-997808D02*
G54D15*
D03*
X579437Y-1024618D02*
G54D109*
D03*
X599762Y-1024618D02*
G54D46*
D03*
X542581Y-217262D02*
G54D25*
D03*
X542581Y-255365D02*
G54D81*
D03*
X542581Y-237588D02*
G54D324*
D03*
X612944Y-256156D02*
G54D325*
D03*
X612944Y-227425D02*
G54D326*
D03*
X590841Y-237588D02*
G54D324*
D03*
X590841Y-217262D02*
G54D25*
D03*
X1078342Y-1366552D02*
G54D327*
D03*
X1078342Y-1351049D02*
G54D328*
D03*
X1127703Y-1358971D02*
G54D329*
D03*
X1171904Y-1358971D02*
G54D330*
D03*
X1087870Y-1358800D02*
G54D71*
D03*
X2086997Y-1400712D02*
G54D55*
D03*
X2086997Y-1434757D02*
G54D242*
D03*
X2091055Y-1268614D02*
G54D331*
D03*
X2091055Y-1302658D02*
G54D332*
D03*
X1241557Y-961236D02*
G54D259*
D03*
X616884Y-1513251D02*
G54D139*
D03*
X606977Y-1482769D02*
G54D135*
D03*
X619676Y-1482769D02*
G54D73*
D03*
X632380Y-1482769D02*
G54D75*
D03*
X606977Y-1420531D02*
G54D52*
D03*
X619676Y-1420531D02*
G54D51*
D03*
X632380Y-1420531D02*
G54D14*
D03*
X763213Y-1238896D02*
G54D108*
D03*
X797249Y-1238896D02*
G54D108*
D03*
X830274Y-1238896D02*
G54D19*
D03*
X864320Y-1238896D02*
G54D108*
D03*
X939505Y-1237498D02*
G54D51*
D03*
X926811Y-1237498D02*
G54D14*
D03*
X914108Y-1237498D02*
G54D51*
D03*
X901401Y-1237498D02*
G54D14*
D03*
X379869Y-1196976D02*
G54D125*
D03*
X444140Y-1210440D02*
G54D89*
D03*
X478179Y-1210440D02*
G54D89*
D03*
X729422Y-1189356D02*
G54D259*
D03*
X763213Y-1181990D02*
G54D38*
D03*
X797249Y-1181990D02*
G54D38*
D03*
X1421666Y-682555D02*
G54D196*
D03*
X1386610Y-682045D02*
G54D108*
D03*
X1352571Y-682045D02*
G54D108*
D03*
X1141214Y-771468D02*
G54D17*
D03*
X1175259Y-771468D02*
G54D161*
D03*
X1421666Y-771467D02*
G54D143*
D03*
X1384583Y-761303D02*
G54D262*
D03*
X1350538Y-761303D02*
G54D230*
D03*
X817315Y-551725D02*
G54D108*
D03*
X775406Y-526320D02*
G54D76*
D03*
X818588Y-514890D02*
G54D333*
D03*
X926301Y-499647D02*
G54D108*
D03*
X892259Y-499647D02*
G54D17*
D03*
X852631Y-489486D02*
G54D80*
D03*
X1524813Y-469166D02*
G54D222*
D03*
X2285391Y-291847D02*
G54D38*
D03*
X1895959Y-1353977D02*
G54D83*
D03*
X1895959Y-1388015D02*
G54D84*
D03*
X1790277Y-1414940D02*
G54D83*
D03*
X1790277Y-1448981D02*
G54D83*
D03*
X1792564Y-1318410D02*
G54D186*
D03*
X1308115Y-1285380D02*
G54D24*
D03*
X1308115Y-1390548D02*
G54D24*
D03*
X1308115Y-1356512D02*
G54D24*
D03*
X1308115Y-1319422D02*
G54D334*
D03*
X2733254Y-1138039D02*
G54D299*
D03*
X2733254Y-1104003D02*
G54D299*
D03*
X1940663Y-882482D02*
G54D83*
D03*
X1940663Y-916518D02*
G54D83*
D03*
X999718Y-623872D02*
G54D147*
D03*
X942812Y-636067D02*
G54D22*
D03*
X971268Y-623872D02*
G54D22*
D03*
X1421666Y-631748D02*
G54D196*
D03*
X1386610Y-625147D02*
G54D89*
D03*
X1352571Y-625147D02*
G54D89*
D03*
X971268Y-589829D02*
G54D16*
D03*
X999718Y-589829D02*
G54D92*
D03*
X1341140Y-312932D02*
G54D244*
D03*
X1381786Y-312932D02*
G54D94*
D03*
X713672Y-226054D02*
G54D30*
D03*
X358908Y-402855D02*
G54D335*
D03*
X358908Y-415562D02*
G54D336*
D03*
X364166Y-367370D02*
G54D337*
D03*
X358908Y-440972D02*
G54D336*
D03*
X358908Y-428266D02*
G54D335*
D03*
X363560Y-328607D02*
G54D338*
D03*
X349387Y-210045D02*
G54D339*
D03*
X344302Y-269495D02*
G54D269*
D03*
X1713301Y-1479337D02*
G54D217*
D03*
X1713301Y-1417098D02*
G54D284*
D03*
X1726005Y-1417098D02*
G54D340*
D03*
X1726005Y-1479337D02*
G54D293*
D03*
X1241048Y-1493566D02*
G54D50*
D03*
X1228348Y-1493566D02*
G54D52*
D03*
X1215649Y-1493566D02*
G54D51*
D03*
X884134Y-1410244D02*
G54D294*
D03*
X871429Y-1410244D02*
G54D293*
D03*
X858724Y-1410244D02*
G54D294*
D03*
X543470Y-1420531D02*
G54D14*
D03*
X556170Y-1420531D02*
G54D52*
D03*
X594277Y-1420531D02*
G54D50*
D03*
X581573Y-1420531D02*
G54D51*
D03*
X568866Y-1420531D02*
G54D51*
D03*
X896825Y-1348003D02*
G54D51*
D03*
X906232Y-1306725D02*
G54D60*
D03*
X906232Y-1272680D02*
G54D58*
D03*
X1046453Y-1027408D02*
G54D13*
D03*
X1059159Y-1027408D02*
G54D243*
D03*
X1071866Y-1027408D02*
G54D249*
D03*
X1084563Y-1027408D02*
G54D341*
D03*
X2779990Y-963772D02*
G54D299*
D03*
X2779990Y-997808D02*
G54D299*
D03*
X2782556Y-905599D02*
G54D50*
D03*
X2795230Y-905599D02*
G54D50*
D03*
X2782556Y-843360D02*
G54D97*
D03*
X2795230Y-843360D02*
G54D97*
D03*
X910801Y-648258D02*
G54D196*
D03*
X1102347Y-647623D02*
G54D243*
D03*
X1089641Y-647623D02*
G54D249*
D03*
X1076943Y-647623D02*
G54D341*
D03*
X1038833Y-647623D02*
G54D13*
D03*
X1051539Y-647623D02*
G54D243*
D03*
X1064243Y-647623D02*
G54D13*
D03*
X1648015Y-364241D02*
G54D92*
D03*
X1648015Y-398287D02*
G54D147*
D03*
X1648518Y-500282D02*
G54D73*
D03*
X1648518Y-438043D02*
G54D51*
D03*
X986785Y-1453905D02*
G54D342*
D03*
X258664Y-1290112D02*
G54D343*
D03*
X201027Y-1284365D02*
G54D240*
D03*
X228691Y-1290112D02*
G54D343*
D03*
X243677Y-1290112D02*
G54D344*
D03*
X240074Y-1266838D02*
G54D69*
D03*
X243657Y-1274912D02*
G54D69*
D03*
X247488Y-1266610D02*
G54D345*
D03*
X240170Y-1251721D02*
G54D70*
D03*
X247488Y-1251721D02*
G54D66*
D03*
X2233318Y-1400969D02*
G54D172*
D03*
X2246021Y-1400969D02*
G54D238*
D03*
X2284124Y-1348637D02*
G54D175*
D03*
X2296831Y-1348637D02*
G54D175*
D03*
X2195214Y-1254648D02*
G54D173*
D03*
X2195214Y-1348637D02*
G54D175*
D03*
X2207914Y-1348637D02*
G54D181*
D03*
X2207914Y-1254648D02*
G54D184*
D03*
X2220610Y-1348637D02*
G54D180*
D03*
X2220610Y-1254648D02*
G54D174*
D03*
X2258714Y-1043793D02*
G54D173*
D03*
X2258714Y-1102225D02*
G54D173*
D03*
X2258714Y-1196221D02*
G54D179*
D03*
X2258714Y-949797D02*
G54D179*
D03*
X2271420Y-949797D02*
G54D177*
D03*
X2284124Y-949797D02*
G54D179*
D03*
X2296831Y-949797D02*
G54D179*
D03*
X2284124Y-1102225D02*
G54D173*
D03*
X2284124Y-1043793D02*
G54D173*
D03*
X2296831Y-1102225D02*
G54D173*
D03*
X2296831Y-1043793D02*
G54D173*
D03*
X2233318Y-1102225D02*
G54D174*
D03*
X2246021Y-1102225D02*
G54D183*
D03*
X2233318Y-1043793D02*
G54D174*
D03*
X2246021Y-1043793D02*
G54D183*
D03*
X2220610Y-949797D02*
G54D177*
D03*
X2207914Y-949797D02*
G54D178*
D03*
X2195214Y-949797D02*
G54D179*
D03*
X2169802Y-949797D02*
G54D177*
D03*
X2169802Y-1102225D02*
G54D174*
D03*
X2169802Y-1043793D02*
G54D174*
D03*
X2182509Y-1102225D02*
G54D183*
D03*
X2182509Y-949797D02*
G54D176*
D03*
X2182509Y-1043793D02*
G54D183*
D03*
X2144406Y-949797D02*
G54D179*
D03*
X2144406Y-1043793D02*
G54D173*
D03*
X2144406Y-1102225D02*
G54D173*
D03*
X2157104Y-1102225D02*
G54D184*
D03*
X2157104Y-949797D02*
G54D178*
D03*
X2157104Y-1043793D02*
G54D184*
D03*
X294513Y-1036932D02*
G54D16*
D03*
X320930Y-999084D02*
G54D346*
D03*
X338838Y-1040370D02*
G54D42*
D03*
X331093Y-1030835D02*
G54D150*
D03*
X323348Y-1040370D02*
G54D43*
D03*
M02*
