%FSLAX34Y34*%
%MOMM*%
%LNSMDMASK_BOTTOM*%
G71*
G01*
%ADD10R,1.905X2.413*%
%ADD11R,1.906X2.413*%
%ADD12R,2.286X1.906*%
%ADD13R,1.906X2.414*%
%ADD14R,1.904X2.414*%
%ADD15R,1.904X2.413*%
%ADD16R,1.908X2.413*%
%ADD17R,1.905X2.414*%
%ADD18R,1.906X2.415*%
%ADD19R,2.287X1.906*%
%ADD20R,1.904X2.415*%
%ADD21R,2.286X1.904*%
%ADD22R,2.286X1.905*%
%ADD23R,1.905X2.415*%
%ADD24R,2.542X3.812*%
%ADD25R,3.810X2.540*%
%ADD26R,2.540X3.812*%
%ADD27R,1.908X2.414*%
%ADD28R,1.903X2.413*%
%ADD29R,1.372X1.371*%
%ADD30R,2.287X1.905*%
%ADD31R,2.287X1.904*%
%ADD32R,2.541X3.812*%
%ADD33R,3.812X2.540*%
%ADD34R,2.288X1.906*%
%ADD35R,2.288X1.904*%
%ADD36R,0.890X6.100*%
%LPD*%
X353443Y-506514D02*
G54D10*
D03*
X324995Y-506514D02*
G54D11*
D03*
X296544Y-506514D02*
G54D10*
D03*
X241672Y-506514D02*
G54D10*
D03*
X268088Y-506514D02*
G54D10*
D03*
X503836Y-419114D02*
G54D11*
D03*
X942301Y-599488D02*
G54D12*
D03*
X477420Y-782398D02*
G54D11*
D03*
X300603Y-879939D02*
G54D13*
D03*
X339221Y-869774D02*
G54D10*
D03*
X586650Y-674171D02*
G54D14*
D03*
X438807Y-1099428D02*
G54D11*
D03*
X469287Y-1099428D02*
G54D11*
D03*
X312800Y-1133977D02*
G54D11*
D03*
X343288Y-1133977D02*
G54D10*
D03*
X241672Y-303278D02*
G54D10*
D03*
X241672Y-337316D02*
G54D15*
D03*
X485040Y-597956D02*
G54D11*
D03*
X459635Y-597956D02*
G54D10*
D03*
X1551987Y-487710D02*
G54D13*
D03*
X1551987Y-521754D02*
G54D11*
D03*
X2643834Y-787730D02*
G54D16*
D03*
X2613354Y-787730D02*
G54D16*
D03*
X1562150Y-624882D02*
G54D10*
D03*
X1562150Y-658931D02*
G54D17*
D03*
X1558594Y-703638D02*
G54D10*
D03*
X802581Y-687379D02*
G54D11*
D03*
X802581Y-721423D02*
G54D13*
D03*
X800046Y-628446D02*
G54D18*
D03*
X520600Y-645210D02*
G54D15*
D03*
X1656145Y-745810D02*
G54D19*
D03*
X343288Y-1099936D02*
G54D10*
D03*
X239638Y-843866D02*
G54D11*
D03*
X857455Y-1114165D02*
G54D13*
D03*
X857455Y-1148201D02*
G54D18*
D03*
X1511858Y-1312816D02*
G54D12*
D03*
X1341140Y-1062850D02*
G54D20*
D03*
X1312692Y-1062850D02*
G54D18*
D03*
X873716Y-1485569D02*
G54D11*
D03*
X873716Y-1451523D02*
G54D13*
D03*
X873716Y-1331107D02*
G54D13*
D03*
X873716Y-1297066D02*
G54D11*
D03*
X780229Y-1382420D02*
G54D11*
D03*
X747706Y-1382420D02*
G54D11*
D03*
X475388Y-1297066D02*
G54D15*
D03*
X383933Y-1419011D02*
G54D11*
D03*
X351411Y-1419011D02*
G54D11*
D03*
X320928Y-1419011D02*
G54D11*
D03*
X2241445Y-1239654D02*
G54D11*
D03*
X546005Y-333763D02*
G54D11*
D03*
X340235Y-571540D02*
G54D11*
D03*
X339221Y-766642D02*
G54D10*
D03*
X339221Y-721423D02*
G54D17*
D03*
X339221Y-687379D02*
G54D10*
D03*
X339221Y-800684D02*
G54D10*
D03*
X339221Y-835738D02*
G54D10*
D03*
X477420Y-681288D02*
G54D11*
D03*
X450996Y-681288D02*
G54D15*
D03*
X2613354Y-821768D02*
G54D16*
D03*
X2643834Y-821768D02*
G54D16*
D03*
X2164221Y-1056748D02*
G54D11*
D03*
X2164221Y-1130421D02*
G54D11*
D03*
X2164221Y-1164462D02*
G54D13*
D03*
X2048374Y-548682D02*
G54D10*
D03*
X1772998Y-629206D02*
G54D21*
D03*
X1772998Y-595170D02*
G54D22*
D03*
X1682561Y-557568D02*
G54D15*
D03*
X1743534Y-1227462D02*
G54D11*
D03*
X1534207Y-1501820D02*
G54D13*
D03*
X1534207Y-1467784D02*
G54D13*
D03*
X1499663Y-1467784D02*
G54D13*
D03*
X1499663Y-1501820D02*
G54D13*
D03*
X1534207Y-1404279D02*
G54D11*
D03*
X1499663Y-1404279D02*
G54D11*
D03*
X1499663Y-1370233D02*
G54D13*
D03*
X1534207Y-1370233D02*
G54D13*
D03*
X1511858Y-1278778D02*
G54D12*
D03*
X1430560Y-1404279D02*
G54D10*
D03*
X1430560Y-1370233D02*
G54D17*
D03*
X1389915Y-1090030D02*
G54D11*
D03*
X1389915Y-1055992D02*
G54D11*
D03*
X1379752Y-603554D02*
G54D10*
D03*
X1284233Y-1028804D02*
G54D11*
D03*
X1284233Y-1062850D02*
G54D18*
D03*
X1226824Y-497870D02*
G54D11*
D03*
X1226824Y-531908D02*
G54D11*
D03*
X1196845Y-334525D02*
G54D17*
D03*
X1196845Y-300481D02*
G54D10*
D03*
X1150109Y-681537D02*
G54D12*
D03*
X1150109Y-647499D02*
G54D12*
D03*
X1150101Y-747842D02*
G54D17*
D03*
X1150101Y-713803D02*
G54D17*
D03*
X1125717Y-276351D02*
G54D12*
D03*
X1125717Y-242315D02*
G54D12*
D03*
X1123685Y-207256D02*
G54D10*
D03*
X1123685Y-173215D02*
G54D23*
D03*
X942301Y-731586D02*
G54D12*
D03*
X763211Y-491520D02*
G54D11*
D03*
X791151Y-491520D02*
G54D10*
D03*
X698938Y-345955D02*
G54D11*
D03*
X698938Y-379994D02*
G54D11*
D03*
X695888Y-260090D02*
G54D15*
D03*
X609518Y-563920D02*
G54D11*
D03*
X609518Y-597956D02*
G54D11*
D03*
X556168Y-750384D02*
G54D15*
D03*
X469033Y-152130D02*
G54D24*
D03*
X546005Y-233674D02*
G54D11*
D03*
X431433Y-112239D02*
G54D25*
D03*
X340235Y-605578D02*
G54D11*
D03*
X239638Y-949040D02*
G54D11*
D03*
X239638Y-877907D02*
G54D11*
D03*
X239638Y-914999D02*
G54D13*
D03*
X239640Y-1026776D02*
G54D12*
D03*
X239638Y-1133977D02*
G54D11*
D03*
X239638Y-1099936D02*
G54D11*
D03*
X237606Y-1173098D02*
G54D10*
D03*
X237606Y-1207142D02*
G54D23*
D03*
X241672Y-439445D02*
G54D10*
D03*
X241672Y-404383D02*
G54D10*
D03*
X241672Y-473481D02*
G54D10*
D03*
X268088Y-370347D02*
G54D10*
D03*
X383933Y-360187D02*
G54D18*
D03*
X296544Y-370347D02*
G54D10*
D03*
X241672Y-370347D02*
G54D10*
D03*
X554644Y-423179D02*
G54D11*
D03*
X622218Y-338846D02*
G54D15*
D03*
X622218Y-304802D02*
G54D14*
D03*
X622218Y-267710D02*
G54D15*
D03*
X622218Y-233674D02*
G54D15*
D03*
X1521505Y-233674D02*
G54D11*
D03*
X1521505Y-267710D02*
G54D11*
D03*
X840691Y-198107D02*
G54D10*
D03*
X876253Y-203192D02*
G54D11*
D03*
X393841Y-152130D02*
G54D26*
D03*
X1074401Y-497870D02*
G54D11*
D03*
X1074401Y-531908D02*
G54D11*
D03*
X2003668Y-386603D02*
G54D18*
D03*
X855933Y-567476D02*
G54D15*
D03*
X855933Y-533438D02*
G54D15*
D03*
X2566606Y-476277D02*
G54D12*
D03*
X2598622Y-476023D02*
G54D27*
D03*
X586650Y-640128D02*
G54D15*
D03*
X581570Y-563920D02*
G54D11*
D03*
X581570Y-597956D02*
G54D11*
D03*
X556168Y-716346D02*
G54D15*
D03*
X2588970Y-612444D02*
G54D28*
D03*
X1906114Y-638611D02*
G54D11*
D03*
X530763Y-531908D02*
G54D11*
D03*
X942301Y-665535D02*
G54D12*
D03*
X942301Y-699576D02*
G54D12*
D03*
X942301Y-633526D02*
G54D12*
D03*
X1906114Y-672647D02*
G54D11*
D03*
X1353334Y-603554D02*
G54D10*
D03*
X1934572Y-672647D02*
G54D11*
D03*
X2113411Y-683315D02*
G54D11*
D03*
X2113411Y-717359D02*
G54D13*
D03*
X241672Y-741743D02*
G54D10*
D03*
X241672Y-707707D02*
G54D10*
D03*
X241672Y-674679D02*
G54D17*
D03*
X241672Y-808814D02*
G54D10*
D03*
X241672Y-774776D02*
G54D15*
D03*
X536351Y-834473D02*
G54D29*
D03*
X404253Y-908390D02*
G54D15*
D03*
X404253Y-874351D02*
G54D15*
D03*
X2273962Y-1024234D02*
G54D30*
D03*
X2243477Y-1056748D02*
G54D10*
D03*
X2243477Y-1022712D02*
G54D10*
D03*
X2241445Y-1205618D02*
G54D11*
D03*
X259966Y-1419011D02*
G54D11*
D03*
X259966Y-1453047D02*
G54D11*
D03*
X259966Y-1337718D02*
G54D11*
D03*
X259966Y-1371754D02*
G54D11*
D03*
X229475Y-1453047D02*
G54D10*
D03*
X229475Y-1419011D02*
G54D10*
D03*
X290448Y-1337718D02*
G54D11*
D03*
X520600Y-745299D02*
G54D15*
D03*
X520600Y-711260D02*
G54D15*
D03*
X520600Y-679246D02*
G54D15*
D03*
X2682455Y-308866D02*
G54D17*
D03*
X2682455Y-274822D02*
G54D10*
D03*
X2003668Y-420649D02*
G54D11*
D03*
X2048374Y-514634D02*
G54D23*
D03*
X2259733Y-491009D02*
G54D12*
D03*
X2259733Y-456971D02*
G54D12*
D03*
X2385742Y-688911D02*
G54D11*
D03*
X2416222Y-688911D02*
G54D11*
D03*
X1448853Y-808814D02*
G54D11*
D03*
X1043916Y-531908D02*
G54D11*
D03*
X1043916Y-497870D02*
G54D11*
D03*
X1125209Y-531908D02*
G54D11*
D03*
X1099804Y-531908D02*
G54D15*
D03*
X1501185Y-487710D02*
G54D14*
D03*
X1526587Y-487710D02*
G54D13*
D03*
X1459011Y-737679D02*
G54D11*
D03*
X1448853Y-774776D02*
G54D11*
D03*
X1459011Y-703638D02*
G54D11*
D03*
X1450880Y-626414D02*
G54D11*
D03*
X1450880Y-660450D02*
G54D11*
D03*
X1379752Y-569510D02*
G54D23*
D03*
X1353334Y-569510D02*
G54D23*
D03*
X1462922Y-585233D02*
G54D18*
D03*
X1426504Y-562902D02*
G54D12*
D03*
X1477304Y-774776D02*
G54D10*
D03*
X1477304Y-808814D02*
G54D10*
D03*
X1481368Y-660450D02*
G54D10*
D03*
X1481368Y-626414D02*
G54D10*
D03*
X1487469Y-703638D02*
G54D11*
D03*
X1487469Y-737679D02*
G54D11*
D03*
X1577398Y-487710D02*
G54D13*
D03*
X1526587Y-521754D02*
G54D11*
D03*
X1501185Y-521754D02*
G54D15*
D03*
X1272039Y-644199D02*
G54D21*
D03*
X1274076Y-679246D02*
G54D11*
D03*
X1274076Y-713295D02*
G54D13*
D03*
X1272039Y-610153D02*
G54D12*
D03*
X1137914Y-1213238D02*
G54D12*
D03*
X1137914Y-1179194D02*
G54D21*
D03*
X450996Y-715327D02*
G54D15*
D03*
X477420Y-715327D02*
G54D11*
D03*
X477420Y-748350D02*
G54D13*
D03*
X241672Y-607618D02*
G54D10*
D03*
X268088Y-607618D02*
G54D10*
D03*
X268088Y-640638D02*
G54D10*
D03*
X241672Y-640638D02*
G54D10*
D03*
X241672Y-573574D02*
G54D20*
D03*
X268088Y-573574D02*
G54D23*
D03*
X241672Y-540550D02*
G54D10*
D03*
X268088Y-540550D02*
G54D10*
D03*
X300603Y-774776D02*
G54D11*
D03*
X300603Y-808814D02*
G54D11*
D03*
X300603Y-845903D02*
G54D13*
D03*
X300603Y-707707D02*
G54D11*
D03*
X300603Y-741743D02*
G54D11*
D03*
X942301Y-765626D02*
G54D12*
D03*
X546005Y-299722D02*
G54D11*
D03*
X546005Y-267710D02*
G54D11*
D03*
X581573Y-272795D02*
G54D12*
D03*
X581573Y-238752D02*
G54D21*
D03*
X418482Y-394222D02*
G54D13*
D03*
X418482Y-360187D02*
G54D18*
D03*
X359541Y-463323D02*
G54D12*
D03*
X359541Y-429280D02*
G54D21*
D03*
X383933Y-394222D02*
G54D13*
D03*
X1099804Y-497870D02*
G54D15*
D03*
X1125209Y-497870D02*
G54D11*
D03*
X1099298Y-459259D02*
G54D12*
D03*
X1099298Y-425213D02*
G54D22*
D03*
X1165852Y-531908D02*
G54D10*
D03*
X1165852Y-497870D02*
G54D10*
D03*
X1186682Y-694999D02*
G54D12*
D03*
X1186682Y-660963D02*
G54D12*
D03*
X1196342Y-503968D02*
G54D18*
D03*
X1196342Y-469925D02*
G54D11*
D03*
X1638363Y-658931D02*
G54D13*
D03*
X1638363Y-624882D02*
G54D11*
D03*
X1682561Y-523532D02*
G54D15*
D03*
X1577398Y-521754D02*
G54D11*
D03*
X1587552Y-624882D02*
G54D11*
D03*
X1587552Y-658931D02*
G54D13*
D03*
X1612960Y-624882D02*
G54D10*
D03*
X1612960Y-658931D02*
G54D17*
D03*
X1511347Y-624882D02*
G54D11*
D03*
X1511347Y-658931D02*
G54D13*
D03*
X1530143Y-703638D02*
G54D11*
D03*
X1536745Y-624882D02*
G54D11*
D03*
X1536745Y-658931D02*
G54D13*
D03*
X1558594Y-814910D02*
G54D17*
D03*
X1530143Y-814910D02*
G54D13*
D03*
X1530143Y-780866D02*
G54D11*
D03*
X1558594Y-780866D02*
G54D10*
D03*
X1174492Y-1062850D02*
G54D23*
D03*
X1174492Y-1028804D02*
G54D10*
D03*
X1081005Y-1471340D02*
G54D17*
D03*
X1081005Y-1437294D02*
G54D10*
D03*
X579030Y-1065390D02*
G54D15*
D03*
X607486Y-1065390D02*
G54D15*
D03*
X597321Y-1007980D02*
G54D11*
D03*
X597321Y-973937D02*
G54D13*
D03*
X757872Y-1003914D02*
G54D15*
D03*
X757872Y-969868D02*
G54D20*
D03*
X1064747Y-1055224D02*
G54D17*
D03*
X1064747Y-1089273D02*
G54D10*
D03*
X1656145Y-711771D02*
G54D19*
D03*
X2225186Y-786462D02*
G54D11*
D03*
X2225186Y-752416D02*
G54D13*
D03*
X2225186Y-717359D02*
G54D13*
D03*
X2225186Y-683315D02*
G54D11*
D03*
X2026015Y-717862D02*
G54D11*
D03*
X2026015Y-751906D02*
G54D13*
D03*
X2054476Y-751906D02*
G54D13*
D03*
X2054476Y-717862D02*
G54D11*
D03*
X2265829Y-683315D02*
G54D10*
D03*
X2265829Y-717359D02*
G54D17*
D03*
X2164221Y-1022712D02*
G54D11*
D03*
X2103244Y-1110099D02*
G54D21*
D03*
X2103244Y-1144137D02*
G54D22*
D03*
X2107308Y-1046591D02*
G54D12*
D03*
X2107308Y-1012550D02*
G54D22*
D03*
X1993508Y-685355D02*
G54D12*
D03*
X1993508Y-719391D02*
G54D12*
D03*
X635934Y-1099428D02*
G54D11*
D03*
X635934Y-1065390D02*
G54D11*
D03*
X239640Y-1060812D02*
G54D12*
D03*
X448962Y-1209684D02*
G54D11*
D03*
X479444Y-1209684D02*
G54D11*
D03*
X440582Y-1136771D02*
G54D11*
D03*
X440582Y-1170807D02*
G54D11*
D03*
X469287Y-1136517D02*
G54D13*
D03*
X469287Y-1170561D02*
G54D11*
D03*
X599348Y-1382428D02*
G54D30*
D03*
X597321Y-1331107D02*
G54D13*
D03*
X599348Y-1416466D02*
G54D31*
D03*
X627806Y-1331107D02*
G54D13*
D03*
X629838Y-1416466D02*
G54D20*
D03*
X629838Y-1382420D02*
G54D15*
D03*
X812746Y-1382420D02*
G54D15*
D03*
X812746Y-1416466D02*
G54D20*
D03*
X812746Y-1451523D02*
G54D14*
D03*
X812746Y-1485569D02*
G54D15*
D03*
X843226Y-1485569D02*
G54D10*
D03*
X843226Y-1451523D02*
G54D17*
D03*
X843226Y-1331107D02*
G54D17*
D03*
X843226Y-1297066D02*
G54D10*
D03*
X780229Y-1416466D02*
G54D18*
D03*
X747706Y-1416466D02*
G54D18*
D03*
X747706Y-1451523D02*
G54D13*
D03*
X747706Y-1485569D02*
G54D11*
D03*
X320928Y-1453047D02*
G54D11*
D03*
X383933Y-1453047D02*
G54D11*
D03*
X351411Y-1453047D02*
G54D11*
D03*
X365640Y-1371754D02*
G54D10*
D03*
X320928Y-1371754D02*
G54D11*
D03*
X365640Y-1337718D02*
G54D10*
D03*
X320928Y-1337718D02*
G54D11*
D03*
X357509Y-1294531D02*
G54D10*
D03*
X310766Y-1294531D02*
G54D10*
D03*
X357509Y-1260490D02*
G54D10*
D03*
X310766Y-1260490D02*
G54D10*
D03*
X597321Y-1207645D02*
G54D11*
D03*
X597321Y-1241688D02*
G54D13*
D03*
X597321Y-1297066D02*
G54D11*
D03*
X627806Y-1207645D02*
G54D11*
D03*
X627806Y-1297066D02*
G54D11*
D03*
X627806Y-1241688D02*
G54D13*
D03*
X686744Y-1331107D02*
G54D13*
D03*
X717226Y-1331107D02*
G54D13*
D03*
X717226Y-1297066D02*
G54D11*
D03*
X686744Y-1297066D02*
G54D11*
D03*
X656259Y-1297066D02*
G54D11*
D03*
X656259Y-1331107D02*
G54D13*
D03*
X672518Y-1150233D02*
G54D15*
D03*
X672518Y-1116197D02*
G54D15*
D03*
X469287Y-1065390D02*
G54D11*
D03*
X312800Y-1099936D02*
G54D11*
D03*
X503836Y-453161D02*
G54D13*
D03*
X1558594Y-737679D02*
G54D10*
D03*
X1530143Y-737679D02*
G54D11*
D03*
X2745447Y-347487D02*
G54D10*
D03*
X2745447Y-313443D02*
G54D23*
D03*
X2566606Y-442241D02*
G54D12*
D03*
X2716999Y-295147D02*
G54D10*
D03*
X2716999Y-329194D02*
G54D17*
D03*
X2727156Y-866477D02*
G54D17*
D03*
X2727156Y-832438D02*
G54D17*
D03*
X2759668Y-832438D02*
G54D17*
D03*
X2759668Y-866477D02*
G54D17*
D03*
X2552386Y-578908D02*
G54D22*
D03*
X2416222Y-654862D02*
G54D18*
D03*
X2385742Y-654862D02*
G54D18*
D03*
X2552386Y-612952D02*
G54D12*
D03*
X2164221Y-752416D02*
G54D13*
D03*
X2164221Y-786462D02*
G54D11*
D03*
X2164221Y-717359D02*
G54D13*
D03*
X2164221Y-683315D02*
G54D11*
D03*
X2194704Y-717359D02*
G54D13*
D03*
X2194704Y-683315D02*
G54D11*
D03*
X2570670Y-821768D02*
G54D10*
D03*
X2570670Y-787730D02*
G54D10*
D03*
X2375570Y-1185293D02*
G54D19*
D03*
X2375570Y-1219336D02*
G54D31*
D03*
X2430444Y-1297066D02*
G54D11*
D03*
X2430444Y-1331107D02*
G54D13*
D03*
X1465107Y-1467784D02*
G54D17*
D03*
X1465107Y-1501820D02*
G54D17*
D03*
X1465107Y-1404279D02*
G54D10*
D03*
X1465107Y-1370233D02*
G54D17*
D03*
X1432595Y-1501820D02*
G54D13*
D03*
X1432595Y-1467784D02*
G54D13*
D03*
X2190640Y-1447456D02*
G54D13*
D03*
X2190640Y-1481502D02*
G54D11*
D03*
X2277015Y-1143126D02*
G54D12*
D03*
X2277015Y-1109080D02*
G54D21*
D03*
X2647898Y-1219329D02*
G54D16*
D03*
X2615386Y-1219329D02*
G54D28*
D03*
X2647898Y-1185293D02*
G54D16*
D03*
X2615386Y-1185293D02*
G54D28*
D03*
X2582862Y-1185293D02*
G54D12*
D03*
X2582862Y-1219336D02*
G54D21*
D03*
X1743534Y-1193421D02*
G54D11*
D03*
X1511850Y-1090030D02*
G54D10*
D03*
X1511850Y-1055992D02*
G54D10*
D03*
X1253751Y-1062850D02*
G54D18*
D03*
X1253751Y-1028804D02*
G54D11*
D03*
X1660212Y-1177930D02*
G54D23*
D03*
X1660212Y-1211970D02*
G54D10*
D03*
X1690692Y-1211970D02*
G54D10*
D03*
X1690692Y-1177930D02*
G54D23*
D03*
X1999601Y-634034D02*
G54D11*
D03*
X1969119Y-634034D02*
G54D11*
D03*
X1934572Y-638611D02*
G54D11*
D03*
X914361Y-1148201D02*
G54D23*
D03*
X914361Y-1114165D02*
G54D17*
D03*
X942812Y-1114165D02*
G54D13*
D03*
X942812Y-1148201D02*
G54D18*
D03*
X385965Y-1294531D02*
G54D15*
D03*
X385965Y-1260490D02*
G54D15*
D03*
X392066Y-1337718D02*
G54D11*
D03*
X392066Y-1371754D02*
G54D11*
D03*
X384692Y-1208920D02*
G54D18*
D03*
X384692Y-1174874D02*
G54D11*
D03*
X1483400Y-1090030D02*
G54D11*
D03*
X1483400Y-1055992D02*
G54D11*
D03*
X2273962Y-990190D02*
G54D19*
D03*
X1426494Y-1090030D02*
G54D15*
D03*
X1426494Y-1055992D02*
G54D15*
D03*
X1454947Y-1090030D02*
G54D11*
D03*
X1454947Y-1055992D02*
G54D11*
D03*
X438807Y-1065390D02*
G54D11*
D03*
X885905Y-1148201D02*
G54D20*
D03*
X885905Y-1114165D02*
G54D14*
D03*
X418482Y-1453047D02*
G54D11*
D03*
X418482Y-1419011D02*
G54D11*
D03*
X418482Y-1337718D02*
G54D11*
D03*
X418482Y-1371754D02*
G54D11*
D03*
X290448Y-1453047D02*
G54D11*
D03*
X290448Y-1371754D02*
G54D11*
D03*
X290448Y-1419011D02*
G54D11*
D03*
X965164Y-1297066D02*
G54D11*
D03*
X965164Y-1331107D02*
G54D13*
D03*
X934678Y-1331107D02*
G54D13*
D03*
X934678Y-1297066D02*
G54D11*
D03*
X904196Y-1297066D02*
G54D11*
D03*
X904196Y-1331107D02*
G54D13*
D03*
X904196Y-1485569D02*
G54D11*
D03*
X904196Y-1451523D02*
G54D13*
D03*
X780231Y-1297063D02*
G54D12*
D03*
X747706Y-1297066D02*
G54D11*
D03*
X763968Y-1150236D02*
G54D19*
D03*
X763968Y-1116200D02*
G54D19*
D03*
X932657Y-1384460D02*
G54D12*
D03*
X932657Y-1418498D02*
G54D12*
D03*
X995651Y-1331107D02*
G54D17*
D03*
X1013944Y-1241688D02*
G54D13*
D03*
X1013944Y-1207645D02*
G54D11*
D03*
X995651Y-1297066D02*
G54D10*
D03*
X731456Y-1150233D02*
G54D15*
D03*
X731456Y-1116197D02*
G54D15*
D03*
X448962Y-1243720D02*
G54D11*
D03*
X479444Y-1243720D02*
G54D11*
D03*
X540417Y-1099428D02*
G54D10*
D03*
X540417Y-1065390D02*
G54D10*
D03*
X607486Y-1099428D02*
G54D15*
D03*
X579030Y-1099428D02*
G54D15*
D03*
X1032232Y-1055227D02*
G54D22*
D03*
X1001750Y-1055224D02*
G54D13*
D03*
X1001750Y-1089273D02*
G54D11*
D03*
X1032232Y-1089271D02*
G54D12*
D03*
X208901Y-152130D02*
G54D32*
D03*
X133710Y-152130D02*
G54D26*
D03*
X171302Y-112239D02*
G54D25*
D03*
X338967Y-152130D02*
G54D26*
D03*
X263776Y-152130D02*
G54D32*
D03*
X301368Y-112239D02*
G54D33*
D03*
X655240Y-338846D02*
G54D11*
D03*
X657775Y-267713D02*
G54D12*
D03*
X655240Y-304802D02*
G54D13*
D03*
X657775Y-233672D02*
G54D12*
D03*
X876253Y-237230D02*
G54D11*
D03*
X840691Y-232143D02*
G54D10*
D03*
X886413Y-533438D02*
G54D10*
D03*
X886413Y-567476D02*
G54D10*
D03*
X416447Y-463323D02*
G54D34*
D03*
X416447Y-429280D02*
G54D35*
D03*
X554644Y-457227D02*
G54D13*
D03*
X708593Y-628446D02*
G54D23*
D03*
X708593Y-670615D02*
G54D17*
D03*
X708593Y-704659D02*
G54D10*
D03*
X708593Y-594402D02*
G54D10*
D03*
X739076Y-704659D02*
G54D15*
D03*
X739076Y-670615D02*
G54D14*
D03*
X739076Y-628446D02*
G54D20*
D03*
X769556Y-628446D02*
G54D23*
D03*
X774133Y-687379D02*
G54D10*
D03*
X774133Y-721423D02*
G54D17*
D03*
X857455Y-745810D02*
G54D12*
D03*
X857455Y-711771D02*
G54D12*
D03*
X800046Y-594402D02*
G54D11*
D03*
X769556Y-594402D02*
G54D10*
D03*
X739076Y-594402D02*
G54D15*
D03*
X791151Y-525556D02*
G54D10*
D03*
X763211Y-525556D02*
G54D11*
D03*
X459635Y-563920D02*
G54D10*
D03*
X459635Y-531908D02*
G54D10*
D03*
X459635Y-497870D02*
G54D10*
D03*
X485040Y-497870D02*
G54D11*
D03*
X485040Y-531908D02*
G54D11*
D03*
X485040Y-563920D02*
G54D11*
D03*
X530763Y-597956D02*
G54D11*
D03*
X530763Y-563920D02*
G54D11*
D03*
X612053Y-531908D02*
G54D11*
D03*
X612053Y-497870D02*
G54D11*
D03*
X1341140Y-1028804D02*
G54D15*
D03*
X1312692Y-1028804D02*
G54D11*
D03*
X1115554Y-1437294D02*
G54D10*
D03*
X1115554Y-1471340D02*
G54D17*
D03*
X1046454Y-1471338D02*
G54D22*
D03*
X1046454Y-1437294D02*
G54D12*
D03*
X1046454Y-1331109D02*
G54D22*
D03*
X1046461Y-1207645D02*
G54D15*
D03*
X1046461Y-1241688D02*
G54D14*
D03*
X1046454Y-1297063D02*
G54D12*
D03*
X532287Y-1416466D02*
G54D20*
D03*
X532287Y-1382420D02*
G54D15*
D03*
X668451Y-1416466D02*
G54D23*
D03*
X668451Y-1382420D02*
G54D10*
D03*
X717226Y-1416466D02*
G54D18*
D03*
X717226Y-1382420D02*
G54D11*
D03*
X747706Y-1331107D02*
G54D13*
D03*
X780231Y-1331109D02*
G54D22*
D03*
X717226Y-1485569D02*
G54D11*
D03*
X686744Y-1485569D02*
G54D11*
D03*
X717226Y-1451523D02*
G54D13*
D03*
X686744Y-1451523D02*
G54D13*
D03*
X475388Y-1331107D02*
G54D14*
D03*
X566838Y-1331107D02*
G54D13*
D03*
X562774Y-1382420D02*
G54D11*
D03*
X562774Y-1416466D02*
G54D18*
D03*
X566838Y-1297066D02*
G54D11*
D03*
X505868Y-1297066D02*
G54D10*
D03*
X505868Y-1331107D02*
G54D17*
D03*
X536351Y-1331107D02*
G54D14*
D03*
X536351Y-1297066D02*
G54D15*
D03*
X695888Y-226054D02*
G54D15*
D03*
X695888Y-196583D02*
G54D20*
D03*
X695888Y-162539D02*
G54D15*
D03*
X365640Y-1060815D02*
G54D10*
D03*
X365640Y-1026776D02*
G54D10*
D03*
X2588970Y-578400D02*
G54D28*
D03*
X1969119Y-599998D02*
G54D11*
D03*
X1999601Y-599998D02*
G54D11*
D03*
X268088Y-303278D02*
G54D10*
D03*
X268088Y-337316D02*
G54D10*
D03*
X296544Y-337316D02*
G54D10*
D03*
X296544Y-303278D02*
G54D10*
D03*
X268088Y-473481D02*
G54D10*
D03*
X296544Y-473481D02*
G54D10*
D03*
X296544Y-439445D02*
G54D10*
D03*
X268088Y-439445D02*
G54D10*
D03*
X296544Y-404383D02*
G54D10*
D03*
X268088Y-404383D02*
G54D10*
D03*
X530763Y-497870D02*
G54D11*
D03*
X324995Y-540550D02*
G54D11*
D03*
X296544Y-540550D02*
G54D10*
D03*
X353443Y-540550D02*
G54D10*
D03*
X292480Y-1024744D02*
G54D14*
D03*
X292480Y-1058780D02*
G54D14*
D03*
X268088Y-914999D02*
G54D17*
D03*
X268088Y-877907D02*
G54D10*
D03*
X268088Y-843866D02*
G54D10*
D03*
X268088Y-949040D02*
G54D10*
D03*
X270120Y-808814D02*
G54D11*
D03*
X268088Y-674679D02*
G54D17*
D03*
X268088Y-707707D02*
G54D10*
D03*
X268088Y-741743D02*
G54D10*
D03*
X270120Y-774776D02*
G54D11*
D03*
X300603Y-949040D02*
G54D11*
D03*
X329059Y-949040D02*
G54D11*
D03*
X300603Y-914999D02*
G54D13*
D03*
X329059Y-914999D02*
G54D13*
D03*
X266056Y-1207142D02*
G54D18*
D03*
X266056Y-1173098D02*
G54D11*
D03*
X268088Y-1133977D02*
G54D10*
D03*
X268088Y-1099936D02*
G54D10*
D03*
X229475Y-1371754D02*
G54D10*
D03*
X229475Y-1337718D02*
G54D10*
D03*
X999718Y-665027D02*
G54D15*
D03*
X999718Y-699066D02*
G54D15*
D03*
X1462922Y-551194D02*
G54D13*
D03*
X1426504Y-528866D02*
G54D12*
D03*
X343288Y-1207142D02*
G54D23*
D03*
X312800Y-1207142D02*
G54D18*
D03*
X343288Y-1173098D02*
G54D10*
D03*
X312800Y-1173098D02*
G54D11*
D03*
X2598622Y-441977D02*
G54D16*
D03*
X1652885Y-131981D02*
G54D36*
D03*
X1665585Y-131981D02*
G54D36*
D03*
X1678285Y-131981D02*
G54D36*
D03*
X1690985Y-131981D02*
G54D36*
D03*
X1703685Y-131981D02*
G54D36*
D03*
X1716385Y-131981D02*
G54D36*
D03*
X1729085Y-131981D02*
G54D36*
D03*
X1741785Y-131981D02*
G54D36*
D03*
X1754485Y-131981D02*
G54D36*
D03*
X1767185Y-131981D02*
G54D36*
D03*
X1779885Y-131981D02*
G54D36*
D03*
X1792585Y-131981D02*
G54D36*
D03*
X1805285Y-131981D02*
G54D36*
D03*
X1817985Y-131981D02*
G54D36*
D03*
X1830685Y-131981D02*
G54D36*
D03*
X1843385Y-131981D02*
G54D36*
D03*
X1856085Y-131981D02*
G54D36*
D03*
X1868785Y-131981D02*
G54D36*
D03*
X1881485Y-131981D02*
G54D36*
D03*
X1894185Y-131981D02*
G54D36*
D03*
X1906885Y-131981D02*
G54D36*
D03*
X1919585Y-131981D02*
G54D36*
D03*
X1932285Y-131981D02*
G54D36*
D03*
X1944985Y-131981D02*
G54D36*
D03*
X1957685Y-131981D02*
G54D36*
D03*
X1970385Y-131981D02*
G54D36*
D03*
X1983085Y-131981D02*
G54D36*
D03*
X1995785Y-131981D02*
G54D36*
D03*
X2008485Y-131981D02*
G54D36*
D03*
X2021185Y-131981D02*
G54D36*
D03*
X2033885Y-131981D02*
G54D36*
D03*
X2046585Y-131981D02*
G54D36*
D03*
X2059285Y-131981D02*
G54D36*
D03*
X2071985Y-131981D02*
G54D36*
D03*
X2084685Y-131981D02*
G54D36*
D03*
X2097385Y-131981D02*
G54D36*
D03*
X2110085Y-131981D02*
G54D36*
D03*
X2122785Y-131981D02*
G54D36*
D03*
X2135485Y-131981D02*
G54D36*
D03*
X2148185Y-131981D02*
G54D36*
D03*
X2160885Y-131981D02*
G54D36*
D03*
X2173585Y-131981D02*
G54D36*
D03*
X2186285Y-131981D02*
G54D36*
D03*
X2198985Y-131981D02*
G54D36*
D03*
X2211685Y-131981D02*
G54D36*
D03*
X2224385Y-131981D02*
G54D36*
D03*
X2237085Y-131981D02*
G54D36*
D03*
X2249785Y-131981D02*
G54D36*
D03*
X2262485Y-131981D02*
G54D36*
D03*
X2300585Y-131981D02*
G54D36*
D03*
X2313285Y-131981D02*
G54D36*
D03*
X2325985Y-131981D02*
G54D36*
D03*
X2338685Y-131981D02*
G54D36*
D03*
X2351385Y-131981D02*
G54D36*
D03*
X2364085Y-131981D02*
G54D36*
D03*
X2376785Y-131981D02*
G54D36*
D03*
X2389485Y-131981D02*
G54D36*
D03*
X2402185Y-131981D02*
G54D36*
D03*
X2414885Y-131981D02*
G54D36*
D03*
X2427585Y-131981D02*
G54D36*
D03*
X2440285Y-131981D02*
G54D36*
D03*
X2452985Y-131981D02*
G54D36*
D03*
X2465685Y-131981D02*
G54D36*
D03*
X2478385Y-131981D02*
G54D36*
D03*
X2491085Y-131981D02*
G54D36*
D03*
X2503785Y-131981D02*
G54D36*
D03*
X2516485Y-131981D02*
G54D36*
D03*
X2529185Y-131981D02*
G54D36*
D03*
X2541885Y-131981D02*
G54D36*
D03*
X2554585Y-131981D02*
G54D36*
D03*
X2567285Y-131981D02*
G54D36*
D03*
X2579985Y-131981D02*
G54D36*
D03*
X2592685Y-131981D02*
G54D36*
D03*
X2605385Y-131981D02*
G54D36*
D03*
X2618085Y-131981D02*
G54D36*
D03*
X2630785Y-131981D02*
G54D36*
D03*
X2643485Y-131981D02*
G54D36*
D03*
X2656185Y-131981D02*
G54D36*
D03*
X2668885Y-131981D02*
G54D36*
D03*
X2681585Y-131981D02*
G54D36*
D03*
X2694285Y-131981D02*
G54D36*
D03*
X2706985Y-131981D02*
G54D36*
D03*
X2719685Y-131981D02*
G54D36*
D03*
X2732385Y-131981D02*
G54D36*
D03*
X2745085Y-131981D02*
G54D36*
D03*
X2757785Y-131981D02*
G54D36*
D03*
X2770485Y-131981D02*
G54D36*
D03*
X2783185Y-131981D02*
G54D36*
D03*
X2795885Y-131981D02*
G54D36*
D03*
X2808585Y-131981D02*
G54D36*
D03*
X2821285Y-131981D02*
G54D36*
D03*
M02*
