%FSLAX34Y34*%
%MOMM*%
%LNCOPPER_INNER2*%
G71*
G01*
%ADD10C,1.166*%
%ADD11C,0.755*%
%ADD12C,2.160*%
%ADD13C,1.339*%
%ADD14C,1.338*%
%ADD15C,0.757*%
%ADD16C,0.756*%
%ADD17C,1.167*%
%ADD18C,1.621*%
%ADD19C,1.339*%
%ADD20C,1.619*%
%ADD21C,2.158*%
%ADD22C,2.698*%
%ADD23C,1.166*%
%ADD24C,1.620*%
%ADD25C,0.754*%
%ADD26C,2.700*%
%ADD27C,4.319*%
%ADD28C,1.340*%
%ADD29C,1.338*%
%ADD30C,1.340*%
%ADD31C,1.340*%
%ADD32C,4.319*%
%ADD33C,2.160*%
%ADD34C,1.943*%
%ADD35C,2.698*%
%ADD36C,2.700*%
%ADD37C,2.159*%
%ADD38C,1.619*%
%ADD39C,1.621*%
%ADD40C,2.160*%
%ADD41C,1.165*%
%ADD42C,2.159*%
%ADD43C,1.016*%
%ADD44C,0.203*%
%ADD45C,1.270*%
%ADD46C,0.508*%
%ADD47C,2.540*%
%LPD*%
X406293Y-631748D02*
G54D10*
D03*
X702999Y-1003149D02*
G54D11*
D03*
X983457Y-1086472D02*
G54D11*
D03*
X1200910Y-1263282D02*
G54D11*
D03*
X432709Y-838535D02*
G54D11*
D03*
X436774Y-917793D02*
G54D11*
D03*
X436774Y-889338D02*
G54D11*
D03*
X270129Y-999084D02*
G54D10*
D03*
X668458Y-131346D02*
G54D12*
D03*
X588180Y-161016D02*
G54D13*
D03*
X563790Y-253234D02*
G54D11*
D03*
X567086Y-161016D02*
G54D14*
D03*
X567086Y-186422D02*
G54D14*
D03*
X500283Y-248149D02*
G54D15*
D03*
X959073Y-1076310D02*
G54D15*
D03*
X908264Y-1076310D02*
G54D16*
D03*
X814778Y-1076310D02*
G54D16*
D03*
X733487Y-1076310D02*
G54D16*
D03*
X522131Y-1092571D02*
G54D11*
D03*
X574966Y-1041762D02*
G54D11*
D03*
X526195Y-1045827D02*
G54D11*
D03*
X483518Y-1045827D02*
G54D11*
D03*
X516034Y-1055991D02*
G54D15*
D03*
X885905Y-1273444D02*
G54D11*
D03*
X798517Y-1320188D02*
G54D15*
D03*
X786329Y-1350669D02*
G54D11*
D03*
X694875Y-1350669D02*
G54D15*
D03*
X444900Y-1417733D02*
G54D15*
D03*
X507902Y-1486832D02*
G54D15*
D03*
X450996Y-1460411D02*
G54D11*
D03*
X477421Y-1431959D02*
G54D16*
D03*
X481480Y-1413675D02*
G54D11*
D03*
X350958Y-1490389D02*
G54D17*
D03*
X206615Y-438423D02*
G54D18*
D03*
X920460Y-1362866D02*
G54D16*
D03*
X930616Y-1352702D02*
G54D16*
D03*
X1015971Y-1330350D02*
G54D16*
D03*
X1095236Y-1385218D02*
G54D16*
D03*
X1050525Y-1387249D02*
G54D11*
D03*
X1066779Y-1399445D02*
G54D15*
D03*
X847292Y-1074278D02*
G54D11*
D03*
X663373Y-871050D02*
G54D17*
D03*
X573953Y-372628D02*
G54D15*
D03*
X792420Y-662229D02*
G54D11*
D03*
X755584Y-833705D02*
G54D19*
D03*
X339224Y-373139D02*
G54D11*
D03*
X1072877Y-554013D02*
G54D11*
D03*
X1358413Y-505236D02*
G54D20*
D03*
X731454Y-286261D02*
G54D11*
D03*
X1436403Y-278638D02*
G54D21*
D03*
X1361466Y-1373029D02*
G54D11*
D03*
X1162297Y-1476672D02*
G54D11*
D03*
X1192781Y-1525447D02*
G54D11*
D03*
X1178558Y-1391315D02*
G54D11*
D03*
X1192781Y-1417733D02*
G54D11*
D03*
X1137915Y-474754D02*
G54D15*
D03*
X1176017Y-476787D02*
G54D15*
D03*
X250995Y-1490389D02*
G54D17*
D03*
X259959Y-1307993D02*
G54D11*
D03*
X243677Y-1307964D02*
G54D16*
D03*
X347858Y-1063611D02*
G54D15*
D03*
X119737Y-234941D02*
G54D16*
D03*
X129900Y-257300D02*
G54D11*
D03*
X129900Y-245105D02*
G54D11*
D03*
X131926Y-192264D02*
G54D11*
D03*
X152252Y-212589D02*
G54D22*
D03*
X420513Y-982823D02*
G54D11*
D03*
X416448Y-1037695D02*
G54D11*
D03*
X365640Y-1005182D02*
G54D11*
D03*
X426611Y-1005182D02*
G54D15*
D03*
X416448Y-1066152D02*
G54D11*
D03*
X416448Y-1051926D02*
G54D11*
D03*
X416448Y-1080375D02*
G54D11*
D03*
X522131Y-1116954D02*
G54D11*
D03*
X522131Y-1149469D02*
G54D11*
D03*
X207125Y-1214506D02*
G54D11*
D03*
X235575Y-1228734D02*
G54D16*
D03*
X294514Y-1232799D02*
G54D16*
D03*
X347355Y-1236863D02*
G54D11*
D03*
X333126Y-1236863D02*
G54D15*
D03*
X363608Y-1208409D02*
G54D15*
D03*
X422547Y-1208409D02*
G54D15*
D03*
X404252Y-1232799D02*
G54D11*
D03*
X375804Y-1232799D02*
G54D16*
D03*
X568875Y-1165729D02*
G54D11*
D03*
X558711Y-1141345D02*
G54D16*
D03*
X570899Y-1127117D02*
G54D11*
D03*
X603420Y-1131181D02*
G54D11*
D03*
X499773Y-1234832D02*
G54D16*
D03*
X628570Y-1131947D02*
G54D11*
D03*
X652197Y-1145410D02*
G54D16*
D03*
X688777Y-1149469D02*
G54D11*
D03*
X696906Y-1131181D02*
G54D11*
D03*
X668452Y-1360833D02*
G54D11*
D03*
X658295Y-1350669D02*
G54D11*
D03*
X625772Y-1360833D02*
G54D11*
D03*
X603420Y-1352702D02*
G54D11*
D03*
X627805Y-1275476D02*
G54D16*
D03*
X607485Y-1275476D02*
G54D11*
D03*
X674549Y-1275476D02*
G54D16*
D03*
X650164Y-1253118D02*
G54D11*
D03*
X646100Y-1275476D02*
G54D11*
D03*
X475389Y-1354736D02*
G54D11*
D03*
X448963Y-1373029D02*
G54D15*
D03*
X501803Y-1247021D02*
G54D11*
D03*
X495706Y-1273444D02*
G54D15*
D03*
X477421Y-1265314D02*
G54D16*
D03*
X458108Y-1280555D02*
G54D11*
D03*
X448963Y-1307993D02*
G54D15*
D03*
X446932Y-1265314D02*
G54D11*
D03*
X422547Y-1253118D02*
G54D15*
D03*
X335159Y-1260484D02*
G54D10*
D03*
X335159Y-1294529D02*
G54D10*
D03*
X341256Y-1320188D02*
G54D15*
D03*
X318898Y-1318155D02*
G54D11*
D03*
X341250Y-1345839D02*
G54D10*
D03*
X341250Y-1379883D02*
G54D10*
D03*
X410352Y-1314091D02*
G54D15*
D03*
X366908Y-1113145D02*
G54D11*
D03*
X384693Y-1113145D02*
G54D16*
D03*
X217281Y-1041762D02*
G54D11*
D03*
X206615Y-1064623D02*
G54D11*
D03*
X208648Y-1107053D02*
G54D17*
D03*
X692842Y-995018D02*
G54D11*
D03*
X619675Y-978757D02*
G54D16*
D03*
X678614Y-982823D02*
G54D15*
D03*
X696906Y-1064114D02*
G54D11*
D03*
X556678Y-1055991D02*
G54D11*
D03*
X406293Y-834973D02*
G54D10*
D03*
X406293Y-809575D02*
G54D10*
D03*
X406293Y-784165D02*
G54D10*
D03*
X426358Y-850477D02*
G54D11*
D03*
X426358Y-796870D02*
G54D10*
D03*
X426358Y-822275D02*
G54D10*
D03*
X637968Y-871050D02*
G54D10*
D03*
X612565Y-871050D02*
G54D17*
D03*
X587160Y-871050D02*
G54D10*
D03*
X561764Y-871050D02*
G54D10*
D03*
X485542Y-834464D02*
G54D10*
D03*
X611552Y-832437D02*
G54D11*
D03*
X320930Y-721423D02*
G54D16*
D03*
X319918Y-669850D02*
G54D11*
D03*
X319918Y-654609D02*
G54D11*
D03*
X538386Y-765369D02*
G54D15*
D03*
X380882Y-771467D02*
G54D10*
D03*
X426358Y-771467D02*
G54D10*
D03*
X406293Y-555535D02*
G54D10*
D03*
X406293Y-530136D02*
G54D10*
D03*
X380882Y-542830D02*
G54D10*
D03*
X351419Y-665792D02*
G54D11*
D03*
X358020Y-1155065D02*
G54D11*
D03*
X357510Y-757237D02*
G54D11*
D03*
X357510Y-777565D02*
G54D11*
D03*
X357510Y-793826D02*
G54D11*
D03*
X363608Y-866986D02*
G54D15*
D03*
X369707Y-911696D02*
G54D11*
D03*
X369707Y-899500D02*
G54D11*
D03*
X367674Y-948276D02*
G54D16*
D03*
X365640Y-932015D02*
G54D11*
D03*
X380882Y-796870D02*
G54D10*
D03*
X380882Y-822275D02*
G54D10*
D03*
X385967Y-942179D02*
G54D11*
D03*
X284350Y-724723D02*
G54D11*
D03*
X297049Y-653597D02*
G54D16*
D03*
X288415Y-686111D02*
G54D11*
D03*
X225411Y-519464D02*
G54D11*
D03*
X206615Y-466119D02*
G54D18*
D03*
X206615Y-521490D02*
G54D18*
D03*
X206615Y-493805D02*
G54D18*
D03*
X426358Y-644445D02*
G54D10*
D03*
X426358Y-669858D02*
G54D10*
D03*
X426358Y-695254D02*
G54D10*
D03*
X426358Y-720665D02*
G54D10*
D03*
X426358Y-746061D02*
G54D10*
D03*
X454552Y-619049D02*
G54D11*
D03*
X500283Y-621584D02*
G54D15*
D03*
X623486Y-621584D02*
G54D19*
D03*
X665406Y-621584D02*
G54D23*
D03*
X314833Y-460526D02*
G54D11*
D03*
X314833Y-472723D02*
G54D11*
D03*
X337191Y-460526D02*
G54D16*
D03*
X178166Y-769690D02*
G54D20*
D03*
X947387Y-565699D02*
G54D15*
D03*
X947387Y-553000D02*
G54D15*
D03*
X947387Y-527596D02*
G54D15*
D03*
X840692Y-596180D02*
G54D11*
D03*
X688267Y-611427D02*
G54D11*
D03*
X881337Y-601266D02*
G54D16*
D03*
X908264Y-598722D02*
G54D16*
D03*
X921982Y-596180D02*
G54D11*
D03*
X1020036Y-614983D02*
G54D15*
D03*
X892769Y-620317D02*
G54D11*
D03*
X1438693Y-692208D02*
G54D11*
D03*
X891500Y-697796D02*
G54D11*
D03*
X1280680Y-550457D02*
G54D15*
D03*
X1303039Y-553000D02*
G54D11*
D03*
X1259850Y-458493D02*
G54D11*
D03*
X1257818Y-488975D02*
G54D16*
D03*
X1087106Y-551979D02*
G54D16*
D03*
X1099295Y-551979D02*
G54D11*
D03*
X1182625Y-541816D02*
G54D11*
D03*
X1196344Y-532674D02*
G54D16*
D03*
X1207009Y-537751D02*
G54D15*
D03*
X1444790Y-541816D02*
G54D16*
D03*
X1383817Y-505236D02*
G54D24*
D03*
X1333011Y-625140D02*
G54D11*
D03*
X1294398Y-625140D02*
G54D11*
D03*
X1601273Y-352811D02*
G54D11*
D03*
X1597208Y-531654D02*
G54D11*
D03*
X1534211Y-291338D02*
G54D15*
D03*
X1519983Y-354852D02*
G54D11*
D03*
X1613469Y-476787D02*
G54D11*
D03*
X1333011Y-598722D02*
G54D11*
D03*
X1404145Y-665792D02*
G54D11*
D03*
X1292366Y-675947D02*
G54D16*
D03*
X2706838Y-212589D02*
G54D15*
D03*
X2710902Y-667817D02*
G54D15*
D03*
X2643834Y-1062087D02*
G54D25*
D03*
X2639770Y-1039729D02*
G54D25*
D03*
X2605226Y-700339D02*
G54D25*
D03*
X2599130Y-738952D02*
G54D25*
D03*
X2582861Y-738952D02*
G54D15*
D03*
X2584906Y-497106D02*
G54D25*
D03*
X2595066Y-821765D02*
G54D25*
D03*
X2586925Y-1470574D02*
G54D15*
D03*
X2597098Y-1444156D02*
G54D25*
D03*
X2546290Y-677981D02*
G54D11*
D03*
X2523932Y-917793D02*
G54D15*
D03*
X2527996Y-645465D02*
G54D15*
D03*
X2656038Y-1509192D02*
G54D15*
D03*
X2651974Y-190231D02*
G54D15*
D03*
X2651974Y-202428D02*
G54D15*
D03*
X2694657Y-436143D02*
G54D11*
D03*
X2743427Y-1163697D02*
G54D25*
D03*
X2658058Y-1276745D02*
G54D25*
D03*
X2668230Y-1505126D02*
G54D15*
D03*
X2674314Y-1446187D02*
G54D25*
D03*
X2682454Y-1318155D02*
G54D15*
D03*
X2517832Y-612952D02*
G54D11*
D03*
X2527996Y-621074D02*
G54D15*
D03*
X2527996Y-633270D02*
G54D15*
D03*
X2479221Y-1429929D02*
G54D11*
D03*
X2572714Y-503204D02*
G54D25*
D03*
X2572714Y-623115D02*
G54D25*
D03*
X2572714Y-669850D02*
G54D25*
D03*
X2623514Y-566208D02*
G54D25*
D03*
X2639770Y-560111D02*
G54D25*
D03*
X2615386Y-1452286D02*
G54D25*
D03*
X2574733Y-395496D02*
G54D15*
D03*
X2517832Y-263398D02*
G54D11*
D03*
X2521899Y-202428D02*
G54D11*
D03*
X2525964Y-190231D02*
G54D11*
D03*
X2534093Y-263398D02*
G54D11*
D03*
X2534093Y-214622D02*
G54D11*
D03*
X2601162Y-214622D02*
G54D25*
D03*
X2605226Y-202428D02*
G54D25*
D03*
X2666186Y-781629D02*
G54D25*
D03*
X2649930Y-751147D02*
G54D25*
D03*
X2643834Y-765369D02*
G54D25*
D03*
X2629622Y-765369D02*
G54D15*
D03*
X2641814Y-614983D02*
G54D15*
D03*
X2631642Y-623115D02*
G54D25*
D03*
X2666186Y-604821D02*
G54D25*
D03*
X2674314Y-594656D02*
G54D25*
D03*
X2702774Y-275586D02*
G54D15*
D03*
X2546290Y-200393D02*
G54D11*
D03*
X2550355Y-395496D02*
G54D11*
D03*
X2550355Y-407684D02*
G54D11*
D03*
X2550355Y-419882D02*
G54D11*
D03*
X2554421Y-190231D02*
G54D11*
D03*
X2501580Y-263398D02*
G54D15*
D03*
X2501580Y-214622D02*
G54D15*
D03*
X2507677Y-194296D02*
G54D11*
D03*
X2588970Y-190231D02*
G54D25*
D03*
X2588970Y-202428D02*
G54D25*
D03*
X2588970Y-214622D02*
G54D25*
D03*
X2460935Y-190231D02*
G54D11*
D03*
X2593034Y-696274D02*
G54D25*
D03*
X2591002Y-749115D02*
G54D25*
D03*
X2595066Y-395496D02*
G54D25*
D03*
X2595066Y-407684D02*
G54D25*
D03*
X2595066Y-419882D02*
G54D25*
D03*
X2442641Y-263398D02*
G54D15*
D03*
X2467033Y-263398D02*
G54D15*
D03*
X2483285Y-263398D02*
G54D11*
D03*
X2517832Y-365007D02*
G54D11*
D03*
X2424346Y-962504D02*
G54D11*
D03*
X2424346Y-995018D02*
G54D11*
D03*
X2424346Y-1011279D02*
G54D11*
D03*
X2424346Y-1049891D02*
G54D11*
D03*
X2424346Y-1062087D02*
G54D11*
D03*
X2424346Y-1112888D02*
G54D11*
D03*
X2566456Y-352971D02*
G54D16*
D03*
X2570673Y-194296D02*
G54D16*
D03*
X2397930Y-190231D02*
G54D11*
D03*
X2397930Y-202428D02*
G54D11*
D03*
X2397930Y-214622D02*
G54D11*
D03*
X2410126Y-214622D02*
G54D11*
D03*
X2420289Y-206492D02*
G54D15*
D03*
X2473130Y-379236D02*
G54D11*
D03*
X2471089Y-434109D02*
G54D11*
D03*
X2483285Y-385333D02*
G54D11*
D03*
X2479221Y-425980D02*
G54D11*
D03*
X2493449Y-379236D02*
G54D15*
D03*
X2487351Y-436143D02*
G54D11*
D03*
X2424346Y-194296D02*
G54D11*
D03*
X2426387Y-263398D02*
G54D11*
D03*
X2497514Y-669850D02*
G54D16*
D03*
X2536127Y-541816D02*
G54D15*
D03*
X2538159Y-653597D02*
G54D11*
D03*
X2345089Y-263398D02*
G54D16*
D03*
X2349154Y-214622D02*
G54D15*
D03*
X2357285Y-196328D02*
G54D16*
D03*
X2361351Y-263398D02*
G54D15*
D03*
X2532061Y-503204D02*
G54D16*
D03*
X2462967Y-942179D02*
G54D16*
D03*
X2485319Y-1051926D02*
G54D16*
D03*
X2477188Y-1074278D02*
G54D15*
D03*
X2467033Y-1153533D02*
G54D15*
D03*
X2473130Y-1123052D02*
G54D11*
D03*
X2479221Y-1102735D02*
G54D11*
D03*
X2485319Y-832437D02*
G54D16*
D03*
X2485319Y-846659D02*
G54D16*
D03*
X2485319Y-875115D02*
G54D16*
D03*
X2485319Y-889338D02*
G54D16*
D03*
X2462967Y-421914D02*
G54D16*
D03*
X2460935Y-379236D02*
G54D11*
D03*
X2286157Y-258319D02*
G54D10*
D03*
X2286159Y-1521381D02*
G54D11*
D03*
X2298345Y-1515283D02*
G54D16*
D03*
X2267864Y-1468539D02*
G54D15*
D03*
X2292248Y-1468539D02*
G54D11*
D03*
X2269897Y-1444156D02*
G54D11*
D03*
X2288191Y-1456351D02*
G54D16*
D03*
X2195206Y-1375564D02*
G54D11*
D03*
X2032118Y-1033631D02*
G54D11*
D03*
X2026024Y-1007214D02*
G54D11*
D03*
X2026024Y-1106791D02*
G54D11*
D03*
X2141864Y-653597D02*
G54D11*
D03*
X2241447Y-304043D02*
G54D16*
D03*
X2237382Y-419882D02*
G54D15*
D03*
X2198770Y-460526D02*
G54D15*
D03*
X2241447Y-869019D02*
G54D16*
D03*
X2245512Y-787729D02*
G54D15*
D03*
X2247545Y-848691D02*
G54D11*
D03*
X2202834Y-488975D02*
G54D15*
D03*
X2208926Y-468657D02*
G54D15*
D03*
X2217055Y-476787D02*
G54D16*
D03*
X2235348Y-566208D02*
G54D11*
D03*
X2212990Y-617016D02*
G54D15*
D03*
X2212990Y-645465D02*
G54D15*
D03*
X2223154Y-655629D02*
G54D11*
D03*
X2284125Y-915763D02*
G54D15*
D03*
X2206893Y-753173D02*
G54D11*
D03*
X2198770Y-657661D02*
G54D15*
D03*
X2196738Y-635304D02*
G54D11*
D03*
X2247545Y-1523414D02*
G54D11*
D03*
X2249570Y-1472606D02*
G54D11*
D03*
X2227220Y-1472606D02*
G54D11*
D03*
X2229251Y-848691D02*
G54D16*
D03*
X2210958Y-1076310D02*
G54D11*
D03*
X2195206Y-1129151D02*
G54D11*
D03*
X2220611Y-1225179D02*
G54D16*
D03*
X2222643Y-1012802D02*
G54D11*
D03*
X2121539Y-1102735D02*
G54D11*
D03*
X2123571Y-1143377D02*
G54D16*
D03*
X2135765Y-925924D02*
G54D16*
D03*
X2135765Y-972666D02*
G54D16*
D03*
X2133733Y-1001117D02*
G54D11*
D03*
X2133733Y-1017370D02*
G54D11*
D03*
X2135765Y-862919D02*
G54D16*
D03*
X2135765Y-875115D02*
G54D16*
D03*
X2160149Y-875115D02*
G54D11*
D03*
X2160149Y-862919D02*
G54D11*
D03*
X2182509Y-753173D02*
G54D16*
D03*
X2178443Y-862919D02*
G54D15*
D03*
X2184542Y-785694D02*
G54D11*
D03*
X2109348Y-602788D02*
G54D15*
D03*
X2109348Y-627173D02*
G54D15*
D03*
X2086989Y-1049891D02*
G54D11*
D03*
X2084956Y-964537D02*
G54D15*
D03*
X2082924Y-1062087D02*
G54D11*
D03*
X2202834Y-1425862D02*
G54D15*
D03*
X2217055Y-1438058D02*
G54D16*
D03*
X2296824Y-1232799D02*
G54D11*
D03*
X2371514Y-1141345D02*
G54D11*
D03*
X2373546Y-214622D02*
G54D15*
D03*
X2320705Y-614983D02*
G54D11*
D03*
X2320705Y-452396D02*
G54D11*
D03*
X2332901Y-421914D02*
G54D11*
D03*
X2286159Y-517431D02*
G54D11*
D03*
X2294288Y-505236D02*
G54D11*
D03*
X2296312Y-486950D02*
G54D11*
D03*
X2302412Y-517431D02*
G54D15*
D03*
X2308510Y-452396D02*
G54D11*
D03*
X2296312Y-452396D02*
G54D11*
D03*
X2338992Y-383300D02*
G54D11*
D03*
X2243481Y-718626D02*
G54D11*
D03*
X2243481Y-539783D02*
G54D11*
D03*
X2245512Y-336556D02*
G54D15*
D03*
X2245512Y-409717D02*
G54D15*
D03*
X2243481Y-527596D02*
G54D11*
D03*
X2278028Y-614983D02*
G54D11*
D03*
X2292248Y-614983D02*
G54D11*
D03*
X2304444Y-614983D02*
G54D11*
D03*
X2318672Y-570272D02*
G54D15*
D03*
X2320705Y-590592D02*
G54D11*
D03*
X2328836Y-517431D02*
G54D11*
D03*
X2328836Y-472723D02*
G54D11*
D03*
X2328836Y-488975D02*
G54D11*
D03*
X2310542Y-706437D02*
G54D16*
D03*
X2332901Y-828371D02*
G54D11*
D03*
X2332901Y-649531D02*
G54D11*
D03*
X2320705Y-639368D02*
G54D11*
D03*
X2275993Y-763337D02*
G54D16*
D03*
X2275993Y-736920D02*
G54D16*
D03*
X2298345Y-722690D02*
G54D16*
D03*
X2288191Y-706437D02*
G54D16*
D03*
X2135765Y-531654D02*
G54D16*
D03*
X1885796Y-1143377D02*
G54D11*
D03*
X1723214Y-352811D02*
G54D11*
D03*
X1645982Y-787729D02*
G54D16*
D03*
X1643950Y-1066152D02*
G54D11*
D03*
X1643950Y-1295796D02*
G54D11*
D03*
X1723214Y-488975D02*
G54D11*
D03*
X1719151Y-568240D02*
G54D11*
D03*
X1658179Y-828371D02*
G54D16*
D03*
X1670374Y-803981D02*
G54D16*
D03*
X1914245Y-1352702D02*
G54D16*
D03*
X1914245Y-1385218D02*
G54D16*
D03*
X1913744Y-1492931D02*
G54D10*
D03*
X1888332Y-1492931D02*
G54D10*
D03*
X1997570Y-1163697D02*
G54D11*
D03*
X1999602Y-1198253D02*
G54D15*
D03*
X2009766Y-1159632D02*
G54D11*
D03*
X2009766Y-1106791D02*
G54D11*
D03*
X1983347Y-1094602D02*
G54D11*
D03*
X1960988Y-824307D02*
G54D16*
D03*
X1960988Y-842594D02*
G54D16*
D03*
X1969121Y-1167762D02*
G54D16*
D03*
X2019927Y-586527D02*
G54D16*
D03*
X2021960Y-621074D02*
G54D11*
D03*
X2007731Y-887312D02*
G54D16*
D03*
X2007731Y-921857D02*
G54D16*
D03*
X1979282Y-976733D02*
G54D11*
D03*
X1979282Y-988920D02*
G54D11*
D03*
X1999602Y-974693D02*
G54D15*
D03*
X2007731Y-1092571D02*
G54D16*
D03*
X1873600Y-1224669D02*
G54D11*
D03*
X1867503Y-1208409D02*
G54D16*
D03*
X1960988Y-1218570D02*
G54D16*
D03*
X1963022Y-1198253D02*
G54D11*
D03*
X1774016Y-1218570D02*
G54D16*
D03*
X1778081Y-1242957D02*
G54D15*
D03*
X1719151Y-1265314D02*
G54D11*
D03*
X1696791Y-1238890D02*
G54D15*
D03*
X1694760Y-1265314D02*
G54D11*
D03*
X1656147Y-1062087D02*
G54D11*
D03*
X1662244Y-995018D02*
G54D15*
D03*
X1591109Y-604821D02*
G54D15*
D03*
X1595173Y-712536D02*
G54D15*
D03*
X1587051Y-682047D02*
G54D11*
D03*
X1618042Y-540294D02*
G54D11*
D03*
X1609913Y-776042D02*
G54D11*
D03*
X1593142Y-962504D02*
G54D11*
D03*
X1609403Y-962504D02*
G54D11*
D03*
X1678499Y-732853D02*
G54D11*
D03*
X1755729Y-1281575D02*
G54D15*
D03*
X1743534Y-1265314D02*
G54D15*
D03*
X1737437Y-1047860D02*
G54D11*
D03*
X1743534Y-1005182D02*
G54D15*
D03*
X1743534Y-1121020D02*
G54D15*
D03*
X1818727Y-198361D02*
G54D11*
D03*
X1818727Y-214622D02*
G54D11*
D03*
X1875632Y-220712D02*
G54D15*
D03*
X1879697Y-753173D02*
G54D16*
D03*
X1877665Y-728789D02*
G54D11*
D03*
X1810598Y-234941D02*
G54D11*
D03*
X1790781Y-392954D02*
G54D10*
D03*
X1816191Y-909663D02*
G54D11*
D03*
X1818727Y-1051926D02*
G54D11*
D03*
X1812630Y-929989D02*
G54D15*
D03*
X2023994Y-186167D02*
G54D15*
D03*
X2023994Y-214622D02*
G54D15*
D03*
X1983167Y-196149D02*
G54D11*
D03*
X1987414Y-218686D02*
G54D11*
D03*
X1989438Y-273554D02*
G54D11*
D03*
X1995537Y-210557D02*
G54D16*
D03*
X1830922Y-253234D02*
G54D11*
D03*
X1832954Y-241038D02*
G54D16*
D03*
X1841087Y-273554D02*
G54D16*
D03*
X1822793Y-228844D02*
G54D11*
D03*
X1889861Y-196328D02*
G54D11*
D03*
X1755729Y-897467D02*
G54D15*
D03*
X1788246Y-881214D02*
G54D11*
D03*
X1788246Y-909663D02*
G54D11*
D03*
X1788246Y-929989D02*
G54D11*
D03*
X2044312Y-212589D02*
G54D11*
D03*
X2048376Y-196328D02*
G54D11*
D03*
X2056508Y-188199D02*
G54D11*
D03*
X2064637Y-196328D02*
G54D11*
D03*
X2072768Y-188199D02*
G54D11*
D03*
X2080892Y-196328D02*
G54D15*
D03*
X1767160Y-1266078D02*
G54D11*
D03*
X1765894Y-970636D02*
G54D11*
D03*
X1744547Y-281430D02*
G54D10*
D03*
X1757762Y-253234D02*
G54D11*
D03*
X1753698Y-198361D02*
G54D11*
D03*
X1753698Y-212589D02*
G54D11*
D03*
X1769447Y-505235D02*
G54D10*
D03*
X1745567Y-448332D02*
G54D11*
D03*
X1769447Y-657662D02*
G54D10*
D03*
X1751664Y-539783D02*
G54D16*
D03*
X1688660Y-661726D02*
G54D15*
D03*
X1684596Y-803981D02*
G54D15*
D03*
X1690694Y-834471D02*
G54D11*
D03*
X1694760Y-1058023D02*
G54D11*
D03*
X1690694Y-999085D02*
G54D11*
D03*
X1721176Y-976733D02*
G54D11*
D03*
X1725241Y-1051926D02*
G54D11*
D03*
X1828889Y-921857D02*
G54D15*
D03*
X1837022Y-830405D02*
G54D15*
D03*
X1841087Y-842594D02*
G54D16*
D03*
X1841087Y-909663D02*
G54D16*
D03*
X1839053Y-927957D02*
G54D11*
D03*
X1828889Y-1114923D02*
G54D15*
D03*
X1828889Y-1082407D02*
G54D15*
D03*
X1828889Y-1098668D02*
G54D15*
D03*
X2111381Y-232909D02*
G54D11*
D03*
X2072768Y-614983D02*
G54D11*
D03*
X2072768Y-627173D02*
G54D11*
D03*
X2072768Y-639368D02*
G54D11*
D03*
X2026024Y-942179D02*
G54D11*
D03*
X2028051Y-921857D02*
G54D11*
D03*
X2038213Y-887312D02*
G54D15*
D03*
X2095120Y-584495D02*
G54D11*
D03*
X1902049Y-1265314D02*
G54D16*
D03*
X1891893Y-1257184D02*
G54D16*
D03*
X1881732Y-1249054D02*
G54D11*
D03*
X1965054Y-1234832D02*
G54D15*
D03*
X1960988Y-1249054D02*
G54D16*
D03*
X1918312Y-1240930D02*
G54D15*
D03*
X1589078Y-1373029D02*
G54D11*
D03*
X1633795Y-1488867D02*
G54D11*
D03*
X1582985Y-1167762D02*
G54D11*
D03*
X1609403Y-1149469D02*
G54D11*
D03*
X1609403Y-1167762D02*
G54D11*
D03*
X1587051Y-1139313D02*
G54D11*
D03*
X1599240Y-1226702D02*
G54D16*
D03*
X1615501Y-1208409D02*
G54D15*
D03*
X1615501Y-1194186D02*
G54D15*
D03*
X1607371Y-1267347D02*
G54D16*
D03*
X1511851Y-730821D02*
G54D11*
D03*
X1235460Y-1263282D02*
G54D11*
D03*
X1219205Y-1253118D02*
G54D15*
D03*
X1219205Y-1011279D02*
G54D15*
D03*
X1084563Y-1053447D02*
G54D11*
D03*
X1219205Y-1161665D02*
G54D15*
D03*
X1231393Y-1161665D02*
G54D11*
D03*
X1239525Y-1149469D02*
G54D11*
D03*
X1247654Y-1139313D02*
G54D11*
D03*
X999283Y-1179373D02*
G54D15*
D03*
X1005817Y-1124574D02*
G54D15*
D03*
X1056616Y-1111876D02*
G54D11*
D03*
X1084563Y-1066152D02*
G54D11*
D03*
X1123687Y-980791D02*
G54D11*
D03*
X1123687Y-1005182D02*
G54D11*
D03*
X1072877Y-982823D02*
G54D11*
D03*
X1062714Y-1003149D02*
G54D16*
D03*
X1050525Y-982823D02*
G54D11*
D03*
X814778Y-1098668D02*
G54D16*
D03*
X818845Y-1114923D02*
G54D15*
D03*
X914106Y-1202312D02*
G54D16*
D03*
X940779Y-1200277D02*
G54D11*
D03*
X1095236Y-1200277D02*
G54D16*
D03*
X692842Y-1210441D02*
G54D11*
D03*
X910296Y-1405542D02*
G54D11*
D03*
X910296Y-1507153D02*
G54D11*
D03*
X912330Y-1521381D02*
G54D15*
D03*
X940779Y-1212473D02*
G54D11*
D03*
X1117588Y-1210441D02*
G54D16*
D03*
X798517Y-1297828D02*
G54D15*
D03*
X768036Y-1277511D02*
G54D16*
D03*
X733487Y-1279543D02*
G54D16*
D03*
X694111Y-1274202D02*
G54D11*
D03*
X800549Y-1263282D02*
G54D11*
D03*
X729422Y-1244987D02*
G54D15*
D03*
X729422Y-1259215D02*
G54D15*
D03*
X713161Y-1261250D02*
G54D16*
D03*
X644068Y-1488867D02*
G54D15*
D03*
X654229Y-1444156D02*
G54D11*
D03*
X656256Y-1478703D02*
G54D11*
D03*
X666418Y-1486832D02*
G54D16*
D03*
X670484Y-1503087D02*
G54D15*
D03*
X674549Y-1521381D02*
G54D16*
D03*
X543468Y-1503087D02*
G54D15*
D03*
X581573Y-1504618D02*
G54D15*
D03*
X766002Y-1448222D02*
G54D11*
D03*
X766002Y-1464475D02*
G54D11*
D03*
X719258Y-1507153D02*
G54D11*
D03*
X763970Y-1521381D02*
G54D15*
D03*
X763970Y-1501062D02*
G54D15*
D03*
X778197Y-1519349D02*
G54D11*
D03*
X790393Y-1527478D02*
G54D11*
D03*
X802583Y-1509192D02*
G54D16*
D03*
X839162Y-1431959D02*
G54D11*
D03*
X843228Y-1507153D02*
G54D11*
D03*
X845261Y-1383185D02*
G54D15*
D03*
X845261Y-1401478D02*
G54D15*
D03*
X693854Y-1402491D02*
G54D15*
D03*
X694875Y-1421797D02*
G54D15*
D03*
X778197Y-1360833D02*
G54D11*
D03*
X747716Y-1362866D02*
G54D11*
D03*
X733487Y-1360833D02*
G54D16*
D03*
X621708Y-962504D02*
G54D11*
D03*
X396123Y-956405D02*
G54D11*
D03*
X690811Y-962504D02*
G54D15*
D03*
X518066Y-777565D02*
G54D11*
D03*
X518066Y-791793D02*
G54D11*
D03*
X510956Y-834464D02*
G54D10*
D03*
X918427Y-1043795D02*
G54D11*
D03*
X892002Y-1043795D02*
G54D15*
D03*
X875749Y-1043795D02*
G54D11*
D03*
X937224Y-1043283D02*
G54D11*
D03*
X889461Y-1178437D02*
G54D11*
D03*
X961105Y-1161665D02*
G54D11*
D03*
X1263915Y-1108829D02*
G54D11*
D03*
X1338093Y-997052D02*
G54D10*
D03*
X1394973Y-1025909D02*
G54D15*
D03*
X1450887Y-1031598D02*
G54D11*
D03*
X1436658Y-1031598D02*
G54D16*
D03*
X1422431Y-1031598D02*
G54D11*
D03*
X1407141Y-1033535D02*
G54D16*
D03*
X1414301Y-997052D02*
G54D10*
D03*
X1439711Y-997052D02*
G54D10*
D03*
X1357401Y-978757D02*
G54D11*
D03*
X1363492Y-997052D02*
G54D10*
D03*
X1384706Y-1033535D02*
G54D15*
D03*
X1388902Y-997052D02*
G54D10*
D03*
X1287287Y-997052D02*
G54D10*
D03*
X1302527Y-938112D02*
G54D11*
D03*
X1310659Y-816176D02*
G54D11*
D03*
X1402112Y-807034D02*
G54D16*
D03*
X1398047Y-779596D02*
G54D16*
D03*
X1560882Y-962249D02*
G54D11*
D03*
X1576888Y-962504D02*
G54D16*
D03*
X1471206Y-830405D02*
G54D16*
D03*
X1497631Y-832437D02*
G54D11*
D03*
X1483402Y-584495D02*
G54D16*
D03*
X1485435Y-602788D02*
G54D11*
D03*
X1491532Y-682047D02*
G54D16*
D03*
X1465109Y-997052D02*
G54D10*
D03*
X1188716Y-832437D02*
G54D11*
D03*
X1202942Y-832437D02*
G54D16*
D03*
X1227334Y-832437D02*
G54D16*
D03*
X1265948Y-832437D02*
G54D15*
D03*
X1298463Y-832437D02*
G54D11*
D03*
X1312690Y-832437D02*
G54D15*
D03*
X1042395Y-680013D02*
G54D11*
D03*
X859488Y-680013D02*
G54D11*
D03*
X1226672Y-479481D02*
G54D15*
D03*
X1517948Y-543850D02*
G54D16*
D03*
X1528113Y-604821D02*
G54D11*
D03*
X1530145Y-584495D02*
G54D16*
D03*
X1591109Y-415816D02*
G54D15*
D03*
X1601273Y-365007D02*
G54D11*
D03*
X1731340Y-499139D02*
G54D15*
D03*
X1735404Y-358908D02*
G54D15*
D03*
X1729128Y-190231D02*
G54D11*
D03*
X1733371Y-208523D02*
G54D11*
D03*
X1735404Y-226811D02*
G54D15*
D03*
X1733371Y-322330D02*
G54D11*
D03*
X1725241Y-454428D02*
G54D11*
D03*
X1700855Y-438174D02*
G54D15*
D03*
X1717109Y-417848D02*
G54D11*
D03*
X1702889Y-377203D02*
G54D11*
D03*
X1676472Y-251202D02*
G54D11*
D03*
X1676472Y-236973D02*
G54D11*
D03*
X1678326Y-208523D02*
G54D16*
D03*
X1682564Y-220712D02*
G54D11*
D03*
X1700855Y-525563D02*
G54D15*
D03*
X1704921Y-551979D02*
G54D16*
D03*
X1713053Y-525563D02*
G54D16*
D03*
X1725241Y-533693D02*
G54D11*
D03*
X1857340Y-243072D02*
G54D11*
D03*
X1855313Y-523528D02*
G54D11*
D03*
X1869536Y-230875D02*
G54D11*
D03*
X1889861Y-208523D02*
G54D11*
D03*
X1889861Y-220712D02*
G54D11*
D03*
X1902049Y-226811D02*
G54D16*
D03*
X1849209Y-921857D02*
G54D11*
D03*
X1849209Y-940145D02*
G54D11*
D03*
X1841087Y-680013D02*
G54D16*
D03*
X1841087Y-1025501D02*
G54D16*
D03*
X1802473Y-1047860D02*
G54D15*
D03*
X1800441Y-929989D02*
G54D11*
D03*
X1796375Y-1080375D02*
G54D11*
D03*
X1912213Y-761304D02*
G54D11*
D03*
X1895952Y-761304D02*
G54D11*
D03*
X1895952Y-1133216D02*
G54D11*
D03*
X1916279Y-779596D02*
G54D11*
D03*
X1916279Y-795851D02*
G54D11*
D03*
X1867503Y-1071231D02*
G54D16*
D03*
X1879697Y-1084439D02*
G54D16*
D03*
X1879697Y-1102735D02*
G54D16*
D03*
X1883763Y-1125084D02*
G54D15*
D03*
X1871568Y-1058525D02*
G54D15*
D03*
X1855313Y-1035663D02*
G54D11*
D03*
X1845654Y-505235D02*
G54D10*
D03*
X1845654Y-657662D02*
G54D10*
D03*
X1849209Y-214622D02*
G54D11*
D03*
X1853274Y-196328D02*
G54D11*
D03*
X2212990Y-401596D02*
G54D15*
D03*
X2261767Y-409717D02*
G54D11*
D03*
X2269897Y-401596D02*
G54D11*
D03*
X2267864Y-358908D02*
G54D15*
D03*
X2271928Y-432077D02*
G54D15*
D03*
X2271928Y-417848D02*
G54D15*
D03*
X2273961Y-517431D02*
G54D11*
D03*
X2314608Y-192264D02*
G54D15*
D03*
X2253636Y-419882D02*
G54D11*
D03*
X2253636Y-304043D02*
G54D11*
D03*
X2260746Y-258319D02*
G54D10*
D03*
X2625546Y-549948D02*
G54D25*
D03*
X2637750Y-505236D02*
G54D15*
D03*
X2647898Y-436143D02*
G54D25*
D03*
X2631642Y-438174D02*
G54D25*
D03*
X2647898Y-423946D02*
G54D25*
D03*
X2641814Y-478820D02*
G54D15*
D03*
X2647898Y-468657D02*
G54D25*
D03*
X2627578Y-214622D02*
G54D25*
D03*
X2629622Y-243072D02*
G54D15*
D03*
X2633686Y-194296D02*
G54D15*
D03*
X2647898Y-243072D02*
G54D25*
D03*
X2690582Y-214622D02*
G54D15*
D03*
X2694657Y-194296D02*
G54D11*
D03*
X2694657Y-411749D02*
G54D11*
D03*
X2694657Y-397530D02*
G54D11*
D03*
X2664166Y-243072D02*
G54D15*
D03*
X2664166Y-214622D02*
G54D15*
D03*
X2674314Y-200393D02*
G54D25*
D03*
X2680422Y-243072D02*
G54D15*
D03*
X2723094Y-698306D02*
G54D15*
D03*
X2723094Y-682047D02*
G54D15*
D03*
X2723094Y-669850D02*
G54D15*
D03*
X2721075Y-653597D02*
G54D25*
D03*
X2716998Y-641399D02*
G54D15*
D03*
X2721075Y-275586D02*
G54D25*
D03*
X2763747Y-196328D02*
G54D25*
D03*
X2784054Y-187185D02*
G54D15*
D03*
X2784054Y-202428D02*
G54D15*
D03*
X2735286Y-234941D02*
G54D15*
D03*
X2749510Y-251202D02*
G54D15*
D03*
X2751555Y-239008D02*
G54D25*
D03*
X2753574Y-212589D02*
G54D15*
D03*
X2757638Y-226811D02*
G54D15*
D03*
X2761702Y-765369D02*
G54D15*
D03*
X2735286Y-797890D02*
G54D15*
D03*
X2743427Y-816176D02*
G54D25*
D03*
X2747491Y-793826D02*
G54D25*
D03*
X2759683Y-789760D02*
G54D25*
D03*
X2761702Y-747083D02*
G54D15*
D03*
X2743427Y-747083D02*
G54D25*
D03*
X2705327Y-961993D02*
G54D10*
D03*
X2705327Y-987398D02*
G54D10*
D03*
X2705327Y-1012802D02*
G54D10*
D03*
X2737329Y-1072243D02*
G54D11*
D03*
X2743427Y-881214D02*
G54D25*
D03*
X2744443Y-926939D02*
G54D25*
D03*
X2771875Y-771467D02*
G54D25*
D03*
X2771875Y-755213D02*
G54D25*
D03*
X2769843Y-738952D02*
G54D25*
D03*
X2771875Y-787729D02*
G54D25*
D03*
X2725139Y-194296D02*
G54D25*
D03*
X2725139Y-206492D02*
G54D25*
D03*
X2725139Y-228844D02*
G54D25*
D03*
X2357285Y-395496D02*
G54D16*
D03*
X2345089Y-395496D02*
G54D16*
D03*
X2290224Y-899500D02*
G54D11*
D03*
X2261767Y-848691D02*
G54D11*
D03*
X2166757Y-1437038D02*
G54D16*
D03*
X1786213Y-1342540D02*
G54D16*
D03*
X1779859Y-1281575D02*
G54D15*
D03*
X1786213Y-1218570D02*
G54D16*
D03*
X1784179Y-1155568D02*
G54D11*
D03*
X2058540Y-921857D02*
G54D15*
D03*
X2070728Y-903566D02*
G54D11*
D03*
X2072768Y-714560D02*
G54D11*
D03*
X2072768Y-915763D02*
G54D11*
D03*
X2072768Y-932015D02*
G54D11*
D03*
X2121539Y-531654D02*
G54D11*
D03*
X2125603Y-572306D02*
G54D11*
D03*
X2107316Y-639368D02*
G54D11*
D03*
X2170313Y-631238D02*
G54D16*
D03*
X2178443Y-614983D02*
G54D15*
D03*
X2182509Y-645465D02*
G54D16*
D03*
X2188606Y-210557D02*
G54D11*
D03*
X2141864Y-570272D02*
G54D11*
D03*
X2164216Y-547914D02*
G54D11*
D03*
X2168281Y-535718D02*
G54D11*
D03*
X2174379Y-598722D02*
G54D15*
D03*
X2217055Y-304043D02*
G54D16*
D03*
X2229251Y-304043D02*
G54D16*
D03*
X2233318Y-336556D02*
G54D15*
D03*
X2221122Y-336556D02*
G54D15*
D03*
X2159137Y-258319D02*
G54D17*
D03*
X2184542Y-258319D02*
G54D10*
D03*
X2099187Y-245105D02*
G54D11*
D03*
X2133734Y-258319D02*
G54D10*
D03*
X2108336Y-258319D02*
G54D10*
D03*
X2221122Y-196328D02*
G54D15*
D03*
X2265831Y-206492D02*
G54D11*
D03*
X2282092Y-198361D02*
G54D11*
D03*
X2300710Y-191931D02*
G54D11*
D03*
X2196738Y-190231D02*
G54D11*
D03*
X2204868Y-198361D02*
G54D11*
D03*
X2209946Y-258319D02*
G54D17*
D03*
X2212990Y-206492D02*
G54D15*
D03*
X1674433Y-440207D02*
G54D11*
D03*
X1660212Y-541816D02*
G54D11*
D03*
X1664276Y-523528D02*
G54D11*
D03*
X1682564Y-1281575D02*
G54D11*
D03*
X1365532Y-1411641D02*
G54D11*
D03*
X1434626Y-1346604D02*
G54D11*
D03*
X1434626Y-1265314D02*
G54D11*
D03*
X1432594Y-1297828D02*
G54D16*
D03*
X1402112Y-1283607D02*
G54D16*
D03*
X1328944Y-1336443D02*
G54D11*
D03*
X1345207Y-1263282D02*
G54D11*
D03*
X1320815Y-1263282D02*
G54D11*
D03*
X1308624Y-1263282D02*
G54D16*
D03*
X1265948Y-1460411D02*
G54D15*
D03*
X1532179Y-1223649D02*
G54D11*
D03*
X1532179Y-1198253D02*
G54D11*
D03*
X1536243Y-1287673D02*
G54D11*
D03*
X1536243Y-1305959D02*
G54D11*
D03*
X1536243Y-1320188D02*
G54D11*
D03*
X842593Y-776930D02*
G54D11*
D03*
X817823Y-768925D02*
G54D16*
D03*
X1048493Y-765369D02*
G54D16*
D03*
X2154058Y-189720D02*
G54D11*
D03*
X2154058Y-202428D02*
G54D11*
D03*
X2154058Y-214622D02*
G54D11*
D03*
X2176410Y-210557D02*
G54D11*
D03*
X2178443Y-190231D02*
G54D15*
D03*
X2326802Y-263398D02*
G54D15*
D03*
X2334422Y-189720D02*
G54D15*
D03*
X2334933Y-202428D02*
G54D16*
D03*
X2377610Y-263398D02*
G54D15*
D03*
X2381669Y-194296D02*
G54D11*
D03*
X2393865Y-263398D02*
G54D11*
D03*
X2304444Y-430044D02*
G54D11*
D03*
X2296312Y-440207D02*
G54D11*
D03*
X2286159Y-417848D02*
G54D11*
D03*
X2302412Y-405652D02*
G54D15*
D03*
X2290224Y-405652D02*
G54D11*
D03*
X2188606Y-875115D02*
G54D11*
D03*
X2192671Y-1155568D02*
G54D11*
D03*
X892002Y-633270D02*
G54D15*
D03*
X500283Y-634289D02*
G54D15*
D03*
X1130295Y-652067D02*
G54D15*
D03*
X1333011Y-651562D02*
G54D11*
D03*
X1130295Y-715579D02*
G54D15*
D03*
X1130295Y-734631D02*
G54D15*
D03*
X1125718Y-753173D02*
G54D15*
D03*
X1117588Y-716594D02*
G54D16*
D03*
X1196845Y-761304D02*
G54D11*
D03*
X1168396Y-713038D02*
G54D16*
D03*
X2729203Y-1200277D02*
G54D25*
D03*
X2731222Y-1177925D02*
G54D15*
D03*
X2731222Y-1285634D02*
G54D15*
D03*
X2729203Y-1251086D02*
G54D25*
D03*
X2015354Y-1492931D02*
G54D17*
D03*
X1989947Y-1492931D02*
G54D10*
D03*
X2314608Y-889338D02*
G54D15*
D03*
X2316640Y-909663D02*
G54D11*
D03*
X1207009Y-1413675D02*
G54D15*
D03*
X2749510Y-1273444D02*
G54D15*
D03*
X2741382Y-1291731D02*
G54D15*
D03*
X152252Y-1285634D02*
G54D11*
D03*
X150219Y-1265314D02*
G54D16*
D03*
X2448739Y-913728D02*
G54D11*
D03*
X2446705Y-1133216D02*
G54D15*
D03*
X2119512Y-1496997D02*
G54D11*
D03*
X2145929Y-1448222D02*
G54D11*
D03*
X2119512Y-1348638D02*
G54D11*
D03*
X2119512Y-1391315D02*
G54D11*
D03*
X2771875Y-1267347D02*
G54D25*
D03*
X1597208Y-1293763D02*
G54D11*
D03*
X1591109Y-1399445D02*
G54D15*
D03*
G36*
X100422Y-1305447D02*
X202042Y-1305447D01*
X202042Y-1407067D01*
X100422Y-1407067D01*
X100422Y-1305447D01*
G37*
X182734Y-1226702D02*
G54D11*
D03*
X1670374Y-1265314D02*
G54D16*
D03*
X2781527Y-1505382D02*
G54D26*
D03*
X1631755Y-1070212D02*
G54D11*
D03*
X1625665Y-962504D02*
G54D11*
D03*
X1629729Y-1206376D02*
G54D11*
D03*
X288415Y-1301895D02*
G54D11*
D03*
X2412158Y-1326286D02*
G54D15*
D03*
X2391833Y-1035663D02*
G54D16*
D03*
X2387767Y-999085D02*
G54D15*
D03*
X2379643Y-1076310D02*
G54D11*
D03*
X2379643Y-1025501D02*
G54D11*
D03*
X2379643Y-986889D02*
G54D11*
D03*
X2391833Y-1088504D02*
G54D16*
D03*
X1414301Y-1179960D02*
G54D11*
D03*
X1432594Y-1179960D02*
G54D16*
D03*
X1444790Y-1184025D02*
G54D16*
D03*
X183753Y-1107053D02*
G54D10*
D03*
X183753Y-1128138D02*
G54D10*
D03*
X183753Y-1154045D02*
G54D10*
D03*
X183753Y-1175128D02*
G54D10*
D03*
X2800323Y-1231269D02*
G54D10*
D03*
X2800323Y-1256681D02*
G54D10*
D03*
X2800323Y-1282079D02*
G54D10*
D03*
X2800323Y-1053447D02*
G54D10*
D03*
X2800323Y-1078851D02*
G54D10*
D03*
X2800323Y-1104256D02*
G54D10*
D03*
X2800323Y-1129654D02*
G54D10*
D03*
X2800323Y-1155065D02*
G54D10*
D03*
X2800323Y-1180462D02*
G54D10*
D03*
X2800323Y-1205873D02*
G54D10*
D03*
X168512Y-1007214D02*
G54D11*
D03*
X1009873Y-1003149D02*
G54D11*
D03*
X1007848Y-976733D02*
G54D11*
D03*
X988033Y-974693D02*
G54D11*
D03*
X988033Y-987398D02*
G54D11*
D03*
X182734Y-1040742D02*
G54D11*
D03*
X193400Y-936080D02*
G54D27*
D03*
X810712Y-907630D02*
G54D15*
D03*
X847292Y-903566D02*
G54D11*
D03*
X999717Y-913728D02*
G54D11*
D03*
X178166Y-797376D02*
G54D20*
D03*
X178166Y-824810D02*
G54D20*
D03*
X178166Y-852512D02*
G54D20*
D03*
X908009Y-909919D02*
G54D19*
D03*
X908009Y-833705D02*
G54D19*
D03*
X206615Y-783408D02*
G54D18*
D03*
X989555Y-784675D02*
G54D16*
D03*
X1039350Y-799917D02*
G54D10*
D03*
X1129784Y-808046D02*
G54D16*
D03*
X1090159Y-799917D02*
G54D10*
D03*
X840692Y-761304D02*
G54D11*
D03*
X806647Y-759272D02*
G54D16*
D03*
X820366Y-723201D02*
G54D11*
D03*
X774133Y-745049D02*
G54D11*
D03*
X694875Y-757237D02*
G54D15*
D03*
X595291Y-749115D02*
G54D11*
D03*
X640000Y-750890D02*
G54D14*
D03*
X665406Y-750886D02*
G54D23*
D03*
X665407Y-733364D02*
G54D28*
D03*
X621455Y-733364D02*
G54D29*
D03*
X739075Y-728278D02*
G54D11*
D03*
X640002Y-715828D02*
G54D17*
D03*
X665406Y-715828D02*
G54D23*
D03*
X500283Y-713038D02*
G54D15*
D03*
X1043415Y-708469D02*
G54D10*
D03*
X1094216Y-708469D02*
G54D17*
D03*
X596813Y-697796D02*
G54D15*
D03*
X550580Y-694242D02*
G54D15*
D03*
X623486Y-677471D02*
G54D19*
D03*
X499773Y-686111D02*
G54D16*
D03*
X193400Y-686111D02*
G54D27*
D03*
X490118Y-646989D02*
G54D11*
D03*
X665407Y-639113D02*
G54D28*
D03*
X640002Y-639114D02*
G54D17*
D03*
X820366Y-636826D02*
G54D11*
D03*
X564808Y-635304D02*
G54D11*
D03*
X987521Y-645465D02*
G54D11*
D03*
X1107426Y-606344D02*
G54D11*
D03*
X1127751Y-604821D02*
G54D11*
D03*
X1190756Y-588560D02*
G54D11*
D03*
X1202942Y-588560D02*
G54D16*
D03*
X1215140Y-588560D02*
G54D16*
D03*
X1227334Y-588560D02*
G54D16*
D03*
X1243589Y-588560D02*
G54D11*
D03*
X1255785Y-588560D02*
G54D11*
D03*
X1267979Y-588560D02*
G54D11*
D03*
X1280175Y-588560D02*
G54D11*
D03*
X505361Y-586017D02*
G54D11*
D03*
X558711Y-604821D02*
G54D16*
D03*
X627805Y-578396D02*
G54D16*
D03*
X665406Y-604056D02*
G54D23*
D03*
X640002Y-604056D02*
G54D17*
D03*
X635170Y-532928D02*
G54D13*
D03*
X670230Y-532928D02*
G54D13*
D03*
X193400Y-591102D02*
G54D27*
D03*
X178166Y-507524D02*
G54D20*
D03*
X505870Y-545880D02*
G54D11*
D03*
X505358Y-525054D02*
G54D13*
D03*
X357510Y-600756D02*
G54D11*
D03*
X358020Y-588560D02*
G54D11*
D03*
X359543Y-562143D02*
G54D16*
D03*
X1678499Y-720658D02*
G54D11*
D03*
X1678499Y-708469D02*
G54D11*
D03*
X1678499Y-696274D02*
G54D11*
D03*
X1678499Y-684078D02*
G54D11*
D03*
X1678499Y-669850D02*
G54D11*
D03*
X561252Y-499648D02*
G54D11*
D03*
X556170Y-525054D02*
G54D30*
D03*
X652700Y-519974D02*
G54D31*
D03*
X2129668Y-899500D02*
G54D11*
D03*
X2578797Y-694242D02*
G54D15*
D03*
X2574733Y-419882D02*
G54D15*
D03*
X2574733Y-407684D02*
G54D15*
D03*
X2580842Y-513367D02*
G54D25*
D03*
X426358Y-568241D02*
G54D10*
D03*
X426358Y-593636D02*
G54D10*
D03*
X426358Y-619050D02*
G54D10*
D03*
X426358Y-542830D02*
G54D10*
D03*
X972791Y-497106D02*
G54D11*
D03*
X993619Y-497106D02*
G54D16*
D03*
X972789Y-469420D02*
G54D13*
D03*
X1473239Y-458493D02*
G54D11*
D03*
X1481370Y-543850D02*
G54D11*
D03*
X579030Y-464081D02*
G54D11*
D03*
X591736Y-479330D02*
G54D11*
D03*
X709860Y-483133D02*
G54D11*
D03*
X591736Y-453920D02*
G54D11*
D03*
X683189Y-443763D02*
G54D16*
D03*
X667942Y-443763D02*
G54D11*
D03*
X637460Y-425980D02*
G54D11*
D03*
X530255Y-470689D02*
G54D15*
D03*
X464714Y-469158D02*
G54D17*
D03*
X520098Y-450364D02*
G54D15*
D03*
X464714Y-443763D02*
G54D17*
D03*
X1176017Y-464081D02*
G54D15*
D03*
X1127751Y-450364D02*
G54D11*
D03*
X1127374Y-462180D02*
G54D15*
D03*
X1131816Y-426992D02*
G54D11*
D03*
X1119620Y-426992D02*
G54D11*
D03*
X1556563Y-440207D02*
G54D15*
D03*
X1560628Y-411749D02*
G54D16*
D03*
X1552497Y-365007D02*
G54D16*
D03*
X388000Y-421914D02*
G54D15*
D03*
X388503Y-443763D02*
G54D10*
D03*
X388503Y-469158D02*
G54D10*
D03*
X402221Y-393464D02*
G54D15*
D03*
X1056616Y-377712D02*
G54D11*
D03*
X548547Y-397530D02*
G54D11*
D03*
X483518Y-407684D02*
G54D11*
D03*
X512979Y-375171D02*
G54D11*
D03*
X448963Y-369072D02*
G54D15*
D03*
X530766Y-372628D02*
G54D14*
D03*
X871448Y-345474D02*
G54D32*
D03*
X721292Y-357387D02*
G54D16*
D03*
X603932Y-356878D02*
G54D11*
D03*
X178166Y-424712D02*
G54D20*
D03*
X178166Y-452398D02*
G54D20*
D03*
X178166Y-479833D02*
G54D20*
D03*
X339224Y-348754D02*
G54D11*
D03*
X324995Y-304043D02*
G54D15*
D03*
X339224Y-332492D02*
G54D11*
D03*
X193400Y-341127D02*
G54D27*
D03*
X434736Y-304043D02*
G54D11*
D03*
X528222Y-314198D02*
G54D11*
D03*
X492151Y-302004D02*
G54D17*
D03*
X466746Y-302004D02*
G54D10*
D03*
X507165Y-285626D02*
G54D11*
D03*
X516789Y-274828D02*
G54D16*
D03*
X1097268Y-258313D02*
G54D11*
D03*
X2312576Y-358908D02*
G54D11*
D03*
X2311555Y-258319D02*
G54D10*
D03*
X1509819Y-584495D02*
G54D15*
D03*
X1507787Y-763337D02*
G54D11*
D03*
X1507787Y-704403D02*
G54D11*
D03*
X1505754Y-793826D02*
G54D16*
D03*
X1507787Y-820242D02*
G54D11*
D03*
X1790781Y-240529D02*
G54D10*
D03*
X1790781Y-265939D02*
G54D10*
D03*
X1790781Y-291338D02*
G54D10*
D03*
X1790781Y-316742D02*
G54D10*
D03*
X1790781Y-342146D02*
G54D10*
D03*
X1790781Y-367551D02*
G54D10*
D03*
X1790781Y-215130D02*
G54D10*
D03*
X1034769Y-225034D02*
G54D33*
D03*
X1182115Y-99797D02*
G54D34*
D03*
X1182115Y-224531D02*
G54D34*
D03*
X153520Y-1208409D02*
G54D35*
D03*
X145396Y-1141091D02*
G54D36*
D03*
X153520Y-1073768D02*
G54D35*
D03*
X142344Y-1043540D02*
G54D11*
D03*
X172578Y-151619D02*
G54D11*
D03*
X160382Y-281182D02*
G54D11*
D03*
X144631Y-961993D02*
G54D11*
D03*
X208648Y-1175128D02*
G54D17*
D03*
X211190Y-551979D02*
G54D11*
D03*
X223379Y-556045D02*
G54D16*
D03*
X213216Y-637335D02*
G54D11*
D03*
X217281Y-1011279D02*
G54D11*
D03*
X217281Y-1025501D02*
G54D11*
D03*
X244718Y-999084D02*
G54D10*
D03*
X350400Y-646989D02*
G54D11*
D03*
X206615Y-866475D02*
G54D18*
D03*
X206615Y-838783D02*
G54D18*
D03*
X206615Y-811097D02*
G54D18*
D03*
X316865Y-334526D02*
G54D15*
D03*
X227444Y-1397413D02*
G54D16*
D03*
X343288Y-1395381D02*
G54D11*
D03*
X375804Y-1395381D02*
G54D16*
D03*
X412384Y-1395381D02*
G54D11*
D03*
X318898Y-775532D02*
G54D11*
D03*
X318898Y-791793D02*
G54D11*
D03*
X318898Y-814145D02*
G54D11*
D03*
X401208Y-245614D02*
G54D11*
D03*
X744154Y-326650D02*
G54D37*
D03*
X593259Y-497106D02*
G54D16*
D03*
X546515Y-653597D02*
G54D16*
D03*
X601128Y-123349D02*
G54D12*
D03*
X614088Y-161016D02*
G54D13*
D03*
X635170Y-161016D02*
G54D13*
D03*
X635170Y-186422D02*
G54D13*
D03*
X440833Y-574331D02*
G54D16*
D03*
X730188Y-493297D02*
G54D11*
D03*
X660320Y-415816D02*
G54D11*
D03*
X914362Y-763847D02*
G54D11*
D03*
X891500Y-748605D02*
G54D11*
D03*
X891500Y-723201D02*
G54D11*
D03*
X1363492Y-415816D02*
G54D11*
D03*
X1041376Y-553000D02*
G54D11*
D03*
X1137915Y-413784D02*
G54D15*
D03*
X1036298Y-897467D02*
G54D16*
D03*
X1056616Y-881214D02*
G54D11*
D03*
X1074909Y-893403D02*
G54D16*
D03*
X1085074Y-887312D02*
G54D11*
D03*
X1097268Y-883247D02*
G54D11*
D03*
X1072877Y-946244D02*
G54D11*
D03*
X1013939Y-466625D02*
G54D11*
D03*
X1043918Y-474245D02*
G54D16*
D03*
X1156966Y-199629D02*
G54D34*
D03*
X1086596Y-201660D02*
G54D38*
D03*
X1361466Y-316233D02*
G54D11*
D03*
X1160778Y-296422D02*
G54D14*
D03*
X1313195Y-296422D02*
G54D13*
D03*
X1112000Y-138154D02*
G54D39*
D03*
X1188716Y-808046D02*
G54D11*
D03*
X1241557Y-797890D02*
G54D15*
D03*
X1247654Y-814145D02*
G54D11*
D03*
X1296430Y-816176D02*
G54D16*
D03*
X1333011Y-612952D02*
G54D11*
D03*
X1404145Y-706437D02*
G54D11*
D03*
X1049003Y-326650D02*
G54D33*
D03*
X1155697Y-324362D02*
G54D11*
D03*
X1207009Y-99795D02*
G54D20*
D03*
X1207009Y-124691D02*
G54D20*
D03*
X1231911Y-124691D02*
G54D40*
D03*
X1359433Y-1501062D02*
G54D15*
D03*
X1281691Y-99797D02*
G54D34*
D03*
X1127751Y-1242957D02*
G54D11*
D03*
X1113523Y-1242957D02*
G54D15*
D03*
X1097268Y-1242957D02*
G54D11*
D03*
X1436403Y-240534D02*
G54D21*
D03*
X581573Y-344690D02*
G54D15*
D03*
X444900Y-346720D02*
G54D15*
D03*
X1313195Y-347226D02*
G54D13*
D03*
X1160778Y-347226D02*
G54D14*
D03*
X1370100Y-136121D02*
G54D38*
D03*
X1435129Y-113510D02*
G54D40*
D03*
X1491532Y-365007D02*
G54D16*
D03*
X1576888Y-730821D02*
G54D16*
D03*
X1560628Y-682047D02*
G54D16*
D03*
X1564692Y-604821D02*
G54D16*
D03*
X1572313Y-542837D02*
G54D15*
D03*
X1560628Y-1488867D02*
G54D16*
D03*
X1564692Y-1454319D02*
G54D16*
D03*
X1617533Y-1454319D02*
G54D11*
D03*
X1648017Y-1342540D02*
G54D11*
D03*
X1650049Y-810081D02*
G54D15*
D03*
X1666310Y-297946D02*
G54D16*
D03*
X1668342Y-271521D02*
G54D11*
D03*
X1668342Y-259332D02*
G54D11*
D03*
X1706955Y-1281575D02*
G54D11*
D03*
X1837523Y-1492931D02*
G54D41*
D03*
X1812126Y-1492931D02*
G54D10*
D03*
X1964550Y-1492931D02*
G54D10*
D03*
X1939139Y-1492931D02*
G54D10*
D03*
X1952858Y-1356768D02*
G54D15*
D03*
X1950826Y-1391315D02*
G54D11*
D03*
X2040756Y-1492931D02*
G54D10*
D03*
X2129668Y-554013D02*
G54D11*
D03*
X2186574Y-1224669D02*
G54D15*
D03*
X2316640Y-1253118D02*
G54D11*
D03*
X2379643Y-1525447D02*
G54D11*
D03*
X2401995Y-1523414D02*
G54D11*
D03*
X2381669Y-1458384D02*
G54D11*
D03*
X2442641Y-1104765D02*
G54D15*
D03*
X2456869Y-1204344D02*
G54D11*
D03*
X2450771Y-1232799D02*
G54D16*
D03*
X2450771Y-1328311D02*
G54D16*
D03*
X2450771Y-1366931D02*
G54D16*
D03*
X2452803Y-415816D02*
G54D11*
D03*
X2452803Y-387365D02*
G54D11*
D03*
X2456869Y-903566D02*
G54D11*
D03*
X2454836Y-932015D02*
G54D15*
D03*
X2705327Y-1368453D02*
G54D10*
D03*
X2705327Y-1343050D02*
G54D10*
D03*
X2705327Y-1317647D02*
G54D10*
D03*
X2705327Y-1292240D02*
G54D10*
D03*
X2705327Y-1266836D02*
G54D10*
D03*
X2705327Y-1393850D02*
G54D10*
D03*
X2705327Y-1419262D02*
G54D10*
D03*
X2705327Y-1444659D02*
G54D10*
D03*
X2761702Y-1417733D02*
G54D15*
D03*
X203060Y-1509192D02*
G54D11*
D03*
X190864Y-1462959D02*
G54D10*
D03*
X239640Y-1525447D02*
G54D16*
D03*
X231006Y-1490389D02*
G54D10*
D03*
X2552891Y-1114411D02*
G54D10*
D03*
X2554421Y-686111D02*
G54D11*
D03*
X2552891Y-1063605D02*
G54D10*
D03*
X2552891Y-1038207D02*
G54D10*
D03*
X2552891Y-1012802D02*
G54D10*
D03*
X2552891Y-987398D02*
G54D10*
D03*
X2552891Y-961993D02*
G54D10*
D03*
X2552891Y-1089015D02*
G54D10*
D03*
X2525964Y-1368453D02*
G54D10*
D03*
X2525964Y-1393850D02*
G54D10*
D03*
X2525964Y-1266836D02*
G54D10*
D03*
X2525964Y-1292240D02*
G54D10*
D03*
X2525964Y-1317647D02*
G54D10*
D03*
X2525964Y-1343050D02*
G54D10*
D03*
X2497011Y-1419262D02*
G54D10*
D03*
X2497011Y-1444659D02*
G54D10*
D03*
X2497011Y-1393850D02*
G54D10*
D03*
X2497011Y-1368453D02*
G54D10*
D03*
X2497011Y-1343050D02*
G54D10*
D03*
X2497011Y-1317647D02*
G54D10*
D03*
X2497011Y-1292240D02*
G54D10*
D03*
X2497011Y-1266836D02*
G54D10*
D03*
X2497011Y-1241439D02*
G54D10*
D03*
X2363382Y-911696D02*
G54D11*
D03*
X2363382Y-927957D02*
G54D11*
D03*
X2359318Y-1381152D02*
G54D11*
D03*
X2359318Y-1405542D02*
G54D11*
D03*
X2344586Y-1292240D02*
G54D10*
D03*
X2344586Y-1393850D02*
G54D10*
D03*
X2344586Y-1419262D02*
G54D10*
D03*
X2344586Y-1444659D02*
G54D10*
D03*
X2344586Y-1470071D02*
G54D10*
D03*
X2344586Y-1317647D02*
G54D10*
D03*
X2344586Y-1343050D02*
G54D10*
D03*
X2344586Y-1368453D02*
G54D10*
D03*
X2344586Y-1063605D02*
G54D10*
D03*
X2344586Y-1038207D02*
G54D10*
D03*
X2344586Y-1012802D02*
G54D10*
D03*
X2344586Y-987398D02*
G54D10*
D03*
X2344586Y-961993D02*
G54D10*
D03*
X2344586Y-1266836D02*
G54D10*
D03*
X2344586Y-1241439D02*
G54D10*
D03*
X2344586Y-1216029D02*
G54D10*
D03*
X2344586Y-1190633D02*
G54D10*
D03*
X2344586Y-1165221D02*
G54D10*
D03*
X2344586Y-1139824D02*
G54D10*
D03*
X2344586Y-1114411D02*
G54D10*
D03*
X2344586Y-1089015D02*
G54D10*
D03*
X2525964Y-1165221D02*
G54D10*
D03*
X2525964Y-1241439D02*
G54D10*
D03*
X2525964Y-1216029D02*
G54D10*
D03*
X2525964Y-1190633D02*
G54D10*
D03*
X2523932Y-1116954D02*
G54D15*
D03*
X2523932Y-1011279D02*
G54D15*
D03*
X2513768Y-1062087D02*
G54D11*
D03*
X2552891Y-1444659D02*
G54D10*
D03*
X2552891Y-1419262D02*
G54D10*
D03*
X2552891Y-1393850D02*
G54D10*
D03*
X2552891Y-1470071D02*
G54D10*
D03*
X2552891Y-1368453D02*
G54D10*
D03*
X2552891Y-1139824D02*
G54D10*
D03*
X2552891Y-1165221D02*
G54D10*
D03*
X2552891Y-1343050D02*
G54D10*
D03*
X2552891Y-1317647D02*
G54D10*
D03*
X2552891Y-1292240D02*
G54D10*
D03*
X2552891Y-1266836D02*
G54D10*
D03*
X2552891Y-1241439D02*
G54D10*
D03*
X2552891Y-1216029D02*
G54D10*
D03*
X2552891Y-1190633D02*
G54D10*
D03*
X2705327Y-1241439D02*
G54D10*
D03*
X2705327Y-1165221D02*
G54D10*
D03*
X2705327Y-1190633D02*
G54D10*
D03*
X2705327Y-1216029D02*
G54D10*
D03*
X2705327Y-1038207D02*
G54D10*
D03*
X2705327Y-1089015D02*
G54D10*
D03*
X2705327Y-1114411D02*
G54D10*
D03*
X2705327Y-1139824D02*
G54D10*
D03*
X2705327Y-1063605D02*
G54D10*
D03*
X2497011Y-1089015D02*
G54D10*
D03*
X2497011Y-1114411D02*
G54D10*
D03*
X2497011Y-1139824D02*
G54D10*
D03*
X2497011Y-1165221D02*
G54D10*
D03*
X2497011Y-1190633D02*
G54D10*
D03*
X2497011Y-1216029D02*
G54D10*
D03*
X2497011Y-1063605D02*
G54D10*
D03*
X2497011Y-961993D02*
G54D10*
D03*
X2497011Y-1038207D02*
G54D10*
D03*
X2497011Y-1012802D02*
G54D10*
D03*
X2497011Y-987398D02*
G54D10*
D03*
X485542Y-871050D02*
G54D10*
D03*
X460147Y-871050D02*
G54D10*
D03*
X534320Y-903566D02*
G54D16*
D03*
X536351Y-871050D02*
G54D10*
D03*
X510956Y-871050D02*
G54D10*
D03*
X640002Y-695006D02*
G54D17*
D03*
X665406Y-695006D02*
G54D23*
D03*
X665406Y-677478D02*
G54D23*
D03*
X776165Y-657661D02*
G54D15*
D03*
X640002Y-659948D02*
G54D17*
D03*
X665406Y-659948D02*
G54D23*
D03*
X380882Y-720665D02*
G54D10*
D03*
X380882Y-746061D02*
G54D10*
D03*
X406293Y-758769D02*
G54D10*
D03*
X406293Y-707960D02*
G54D10*
D03*
X406293Y-733358D02*
G54D10*
D03*
X380882Y-695254D02*
G54D10*
D03*
X380882Y-644445D02*
G54D10*
D03*
X380882Y-669858D02*
G54D10*
D03*
X406293Y-657151D02*
G54D10*
D03*
X406293Y-682556D02*
G54D10*
D03*
X380882Y-619050D02*
G54D10*
D03*
X380882Y-593636D02*
G54D10*
D03*
X380882Y-568241D02*
G54D10*
D03*
X406293Y-580945D02*
G54D10*
D03*
X406293Y-606344D02*
G54D10*
D03*
X561252Y-560620D02*
G54D11*
D03*
X704782Y-556810D02*
G54D16*
D03*
X705038Y-541816D02*
G54D11*
D03*
X635170Y-557822D02*
G54D23*
D03*
X652700Y-557822D02*
G54D23*
D03*
X670230Y-557822D02*
G54D23*
D03*
X1688660Y-196328D02*
G54D15*
D03*
X1702889Y-243072D02*
G54D11*
D03*
X1693739Y-281430D02*
G54D10*
D03*
X2082924Y-258319D02*
G54D10*
D03*
X727390Y-899500D02*
G54D11*
D03*
X755584Y-909919D02*
G54D19*
D03*
X1256799Y-99795D02*
G54D20*
D03*
X1256799Y-124691D02*
G54D20*
D03*
X1336063Y-240529D02*
G54D15*
D03*
X1281691Y-224531D02*
G54D34*
D03*
X1344704Y-199635D02*
G54D38*
D03*
X1306839Y-199629D02*
G54D34*
D03*
X533810Y-131346D02*
G54D12*
D03*
X316865Y-401596D02*
G54D15*
D03*
X316865Y-421914D02*
G54D15*
D03*
X316865Y-438174D02*
G54D15*
D03*
X1995537Y-1356768D02*
G54D16*
D03*
X1991470Y-1391315D02*
G54D15*
D03*
X2017895Y-1409607D02*
G54D11*
D03*
X2064637Y-1397413D02*
G54D11*
D03*
X1862935Y-1492931D02*
G54D10*
D03*
X1857340Y-1377088D02*
G54D11*
D03*
X1857340Y-1391315D02*
G54D11*
D03*
X1654115Y-1488867D02*
G54D16*
D03*
X1660212Y-1385218D02*
G54D11*
D03*
X1662244Y-1399445D02*
G54D15*
D03*
X1499655Y-1521381D02*
G54D11*
D03*
X1408209Y-1383185D02*
G54D11*
D03*
X1410236Y-1403510D02*
G54D11*
D03*
X1420400Y-1446187D02*
G54D16*
D03*
X1448854Y-1446187D02*
G54D16*
D03*
X1389914Y-1533576D02*
G54D16*
D03*
X1406177Y-1496997D02*
G54D15*
D03*
X1436658Y-1525447D02*
G54D16*
D03*
X1308624Y-1462448D02*
G54D16*
D03*
X1308624Y-1482769D02*
G54D16*
D03*
X370946Y-1490389D02*
G54D10*
D03*
X390943Y-1490389D02*
G54D10*
D03*
X410937Y-1490389D02*
G54D10*
D03*
X400188Y-1436027D02*
G54D11*
D03*
X402221Y-1452286D02*
G54D15*
D03*
X296545Y-1318155D02*
G54D11*
D03*
X219314Y-1314091D02*
G54D16*
D03*
X528222Y-1269379D02*
G54D11*
D03*
X546515Y-1271411D02*
G54D16*
D03*
X552614Y-1314091D02*
G54D11*
D03*
X574966Y-1271411D02*
G54D11*
D03*
X560743Y-1271411D02*
G54D11*
D03*
X530255Y-1360833D02*
G54D15*
D03*
X550580Y-1354736D02*
G54D15*
D03*
X581063Y-1387249D02*
G54D16*
D03*
X574966Y-1354736D02*
G54D11*
D03*
X847292Y-1350669D02*
G54D11*
D03*
X826208Y-1331109D02*
G54D11*
D03*
X853390Y-1261250D02*
G54D16*
D03*
X831039Y-1255151D02*
G54D15*
D03*
X824940Y-1293763D02*
G54D11*
D03*
X824940Y-1275476D02*
G54D11*
D03*
X1125718Y-1293763D02*
G54D15*
D03*
X1255785Y-1373029D02*
G54D11*
D03*
X1253751Y-1244987D02*
G54D15*
D03*
X1261882Y-1263282D02*
G54D16*
D03*
X1274078Y-1263282D02*
G54D16*
D03*
X1290331Y-1263282D02*
G54D11*
D03*
X1479338Y-1521381D02*
G54D16*
D03*
X1473239Y-1346604D02*
G54D11*
D03*
X1471206Y-1179960D02*
G54D16*
D03*
X1479338Y-1200277D02*
G54D16*
D03*
X1479338Y-1320188D02*
G54D16*
D03*
X1473239Y-1247021D02*
G54D11*
D03*
X1625665Y-1295796D02*
G54D11*
D03*
X1828889Y-1265314D02*
G54D15*
D03*
X1804506Y-1265314D02*
G54D11*
D03*
X1816694Y-1265314D02*
G54D15*
D03*
X1826858Y-1244987D02*
G54D11*
D03*
X1802473Y-1218570D02*
G54D15*
D03*
X1824825Y-1210441D02*
G54D15*
D03*
X1826858Y-1196213D02*
G54D11*
D03*
X2091056Y-1249054D02*
G54D11*
D03*
X2119512Y-1198253D02*
G54D11*
D03*
X2117472Y-1249054D02*
G54D11*
D03*
X2603194Y-856823D02*
G54D25*
D03*
X2613354Y-1366931D02*
G54D25*
D03*
X2613354Y-1393347D02*
G54D25*
D03*
X2613354Y-1240930D02*
G54D25*
D03*
X2613354Y-1265314D02*
G54D25*
D03*
X2613354Y-1291731D02*
G54D25*
D03*
X2613354Y-1314091D02*
G54D25*
D03*
X2613354Y-1342540D02*
G54D25*
D03*
X2629622Y-1379120D02*
G54D15*
D03*
X2633686Y-1460411D02*
G54D15*
D03*
X2633686Y-1429929D02*
G54D15*
D03*
X2643834Y-1511219D02*
G54D25*
D03*
X2631642Y-1259215D02*
G54D25*
D03*
X2676358Y-1190121D02*
G54D15*
D03*
X2625546Y-1155568D02*
G54D25*
D03*
X2645866Y-1145410D02*
G54D25*
D03*
X2645866Y-1110856D02*
G54D25*
D03*
X2643834Y-1127117D02*
G54D25*
D03*
X2643834Y-1086472D02*
G54D25*
D03*
X2395898Y-1186057D02*
G54D15*
D03*
X2395898Y-1133216D02*
G54D15*
D03*
X2320705Y-1281575D02*
G54D11*
D03*
X2322737Y-1240930D02*
G54D16*
D03*
X2330866Y-1184025D02*
G54D15*
D03*
X2322737Y-1202312D02*
G54D16*
D03*
X2322737Y-1214506D02*
G54D16*
D03*
X2298345Y-1175893D02*
G54D16*
D03*
X2046346Y-1151509D02*
G54D15*
D03*
X2042279Y-1163697D02*
G54D16*
D03*
X2050410Y-1139313D02*
G54D15*
D03*
X2038213Y-1100700D02*
G54D15*
D03*
X2052443Y-1127117D02*
G54D11*
D03*
X2052443Y-1112888D02*
G54D11*
D03*
X2038213Y-1112888D02*
G54D15*
D03*
X1895952Y-1151509D02*
G54D11*
D03*
X1885796Y-1163697D02*
G54D11*
D03*
X1761827Y-1488867D02*
G54D11*
D03*
X1759797Y-1395381D02*
G54D16*
D03*
X1763853Y-1005182D02*
G54D11*
D03*
X1761827Y-1228734D02*
G54D11*
D03*
X1761827Y-1196213D02*
G54D11*
D03*
X1757762Y-1133216D02*
G54D11*
D03*
X1754455Y-1145410D02*
G54D11*
D03*
X1609403Y-1100700D02*
G54D11*
D03*
X1621598Y-1090538D02*
G54D11*
D03*
X1621598Y-1078342D02*
G54D11*
D03*
X1272046Y-1116954D02*
G54D11*
D03*
X1280175Y-1108829D02*
G54D11*
D03*
X1288300Y-1116954D02*
G54D15*
D03*
X1296430Y-1108829D02*
G54D16*
D03*
X1328944Y-1108829D02*
G54D11*
D03*
X1320815Y-1116954D02*
G54D11*
D03*
X1312690Y-1108829D02*
G54D15*
D03*
X1304560Y-1116954D02*
G54D16*
D03*
X1363492Y-1102735D02*
G54D11*
D03*
X1363424Y-1089801D02*
G54D11*
D03*
X1351304Y-1102735D02*
G54D16*
D03*
X1339109Y-1102735D02*
G54D16*
D03*
X1339109Y-1116954D02*
G54D16*
D03*
X1219205Y-1066152D02*
G54D15*
D03*
X1218439Y-1127882D02*
G54D11*
D03*
X1219205Y-1078342D02*
G54D15*
D03*
X1219205Y-1090538D02*
G54D15*
D03*
X1219205Y-1102735D02*
G54D15*
D03*
X1219205Y-1114923D02*
G54D15*
D03*
X1235460Y-1121020D02*
G54D11*
D03*
X1255785Y-1116954D02*
G54D11*
D03*
X898101Y-1090538D02*
G54D11*
D03*
X853390Y-1094602D02*
G54D16*
D03*
X839162Y-1102735D02*
G54D11*
D03*
X918427Y-1088504D02*
G54D11*
D03*
X690811Y-1198253D02*
G54D15*
D03*
X664386Y-1198253D02*
G54D11*
D03*
X652197Y-1177925D02*
G54D16*
D03*
X285618Y-1133979D02*
G54D11*
D03*
X294514Y-1141345D02*
G54D16*
D03*
X327027Y-1153533D02*
G54D11*
D03*
X465225Y-988920D02*
G54D16*
D03*
X534320Y-954373D02*
G54D16*
D03*
X546515Y-954373D02*
G54D16*
D03*
X725358Y-1007214D02*
G54D15*
D03*
X725358Y-978757D02*
G54D15*
D03*
X806903Y-978510D02*
G54D11*
D03*
X867619Y-1005182D02*
G54D11*
D03*
X889971Y-986889D02*
G54D11*
D03*
X955008Y-978757D02*
G54D16*
D03*
X1188716Y-925924D02*
G54D11*
D03*
X1160267Y-948276D02*
G54D15*
D03*
X1162297Y-927957D02*
G54D11*
D03*
X1176526Y-952341D02*
G54D16*
D03*
X1178558Y-932015D02*
G54D11*
D03*
X1200910Y-925924D02*
G54D11*
D03*
X1164332Y-980791D02*
G54D16*
D03*
X1172461Y-970636D02*
G54D15*
D03*
X1182625Y-984855D02*
G54D11*
D03*
X1190756Y-974693D02*
G54D11*
D03*
X1528113Y-1521381D02*
G54D11*
D03*
X1526081Y-682047D02*
G54D16*
D03*
X1528113Y-962504D02*
G54D11*
D03*
X1544374Y-962504D02*
G54D11*
D03*
X1967086Y-1074278D02*
G54D11*
D03*
X2078859Y-1074278D02*
G54D11*
D03*
X2070728Y-1049891D02*
G54D11*
D03*
X2064637Y-1076310D02*
G54D11*
D03*
X2062604Y-1039729D02*
G54D15*
D03*
X2048376Y-1037695D02*
G54D11*
D03*
X2072768Y-970636D02*
G54D11*
D03*
X2058540Y-988920D02*
G54D15*
D03*
X2042279Y-997053D02*
G54D16*
D03*
X2058540Y-1003149D02*
G54D15*
D03*
X2810483Y-887312D02*
G54D25*
D03*
X2808464Y-907630D02*
G54D15*
D03*
X2690582Y-830405D02*
G54D15*
D03*
X2688550Y-909663D02*
G54D15*
D03*
X2123571Y-862919D02*
G54D16*
D03*
X2117472Y-899500D02*
G54D11*
D03*
X2111381Y-862919D02*
G54D11*
D03*
X2091056Y-810081D02*
G54D11*
D03*
X2103252Y-810081D02*
G54D11*
D03*
X1869536Y-820242D02*
G54D11*
D03*
X1869536Y-834471D02*
G54D11*
D03*
X1869536Y-846659D02*
G54D11*
D03*
X1857340Y-822275D02*
G54D11*
D03*
X1194813Y-901532D02*
G54D15*
D03*
X1207009Y-901532D02*
G54D15*
D03*
X1237492Y-897467D02*
G54D16*
D03*
X1196845Y-775532D02*
G54D11*
D03*
X1270014Y-785694D02*
G54D16*
D03*
X1148070Y-838535D02*
G54D15*
D03*
X885905Y-950309D02*
G54D11*
D03*
X885905Y-911696D02*
G54D11*
D03*
X631872Y-787729D02*
G54D15*
D03*
X460147Y-834464D02*
G54D10*
D03*
X438800Y-850723D02*
G54D11*
D03*
X318898Y-844634D02*
G54D11*
D03*
X345322Y-893403D02*
G54D16*
D03*
X324995Y-893403D02*
G54D15*
D03*
X320930Y-877148D02*
G54D16*
D03*
X353446Y-740985D02*
G54D11*
D03*
X337191Y-743017D02*
G54D16*
D03*
X967196Y-714560D02*
G54D11*
D03*
X1001750Y-736920D02*
G54D16*
D03*
X1030200Y-734885D02*
G54D11*
D03*
X1058655Y-751147D02*
G54D11*
D03*
X1440723Y-747083D02*
G54D15*
D03*
X1404145Y-736920D02*
G54D11*
D03*
X1440723Y-720658D02*
G54D15*
D03*
X1465109Y-682047D02*
G54D11*
D03*
X1678499Y-1064114D02*
G54D11*
D03*
X1678499Y-769433D02*
G54D11*
D03*
X1678499Y-757237D02*
G54D11*
D03*
X1678499Y-793826D02*
G54D11*
D03*
X1678499Y-781629D02*
G54D11*
D03*
X1676472Y-828371D02*
G54D11*
D03*
X1678499Y-745049D02*
G54D11*
D03*
X1863438Y-539783D02*
G54D15*
D03*
X1861404Y-745049D02*
G54D11*
D03*
X1861404Y-720658D02*
G54D11*
D03*
X1861404Y-704403D02*
G54D11*
D03*
X2050410Y-696274D02*
G54D15*
D03*
X2050410Y-682047D02*
G54D15*
D03*
X2302412Y-663751D02*
G54D15*
D03*
X2290224Y-663751D02*
G54D11*
D03*
X2278028Y-663751D02*
G54D11*
D03*
X2550355Y-657661D02*
G54D11*
D03*
X2544258Y-491015D02*
G54D16*
D03*
X2546290Y-474754D02*
G54D11*
D03*
X2546290Y-503204D02*
G54D11*
D03*
X2546290Y-523528D02*
G54D11*
D03*
X2550355Y-543850D02*
G54D11*
D03*
X2615386Y-765369D02*
G54D25*
D03*
X2617418Y-704403D02*
G54D25*
D03*
X2735286Y-722690D02*
G54D15*
D03*
X2735286Y-738952D02*
G54D15*
D03*
X2743427Y-730821D02*
G54D25*
D03*
X2743427Y-714560D02*
G54D25*
D03*
X2735286Y-690176D02*
G54D15*
D03*
X2735286Y-706437D02*
G54D15*
D03*
X2599130Y-501170D02*
G54D25*
D03*
X2613354Y-549948D02*
G54D25*
D03*
X2560511Y-663751D02*
G54D11*
D03*
X2560511Y-503204D02*
G54D11*
D03*
X2560511Y-527596D02*
G54D11*
D03*
X2507677Y-588560D02*
G54D11*
D03*
X2528810Y-567022D02*
G54D16*
D03*
X2263799Y-549948D02*
G54D16*
D03*
X2265831Y-566208D02*
G54D11*
D03*
X2278028Y-590592D02*
G54D11*
D03*
X2278028Y-570272D02*
G54D11*
D03*
X2278028Y-545880D02*
G54D11*
D03*
X2304444Y-570272D02*
G54D11*
D03*
X2304444Y-590592D02*
G54D11*
D03*
X2292889Y-542458D02*
G54D16*
D03*
X2290224Y-590592D02*
G54D11*
D03*
X2290224Y-570272D02*
G54D11*
D03*
X2190638Y-495075D02*
G54D15*
D03*
X2135765Y-495075D02*
G54D16*
D03*
X2135765Y-507270D02*
G54D16*
D03*
X2135765Y-519464D02*
G54D16*
D03*
X2182509Y-511334D02*
G54D16*
D03*
X2178443Y-491015D02*
G54D15*
D03*
X2170313Y-523528D02*
G54D16*
D03*
X2170313Y-511334D02*
G54D16*
D03*
X2086989Y-566208D02*
G54D11*
D03*
X2084956Y-509302D02*
G54D15*
D03*
X2013830Y-539783D02*
G54D11*
D03*
X2021960Y-523528D02*
G54D11*
D03*
X2019927Y-511334D02*
G54D16*
D03*
X2072768Y-495075D02*
G54D11*
D03*
X2072768Y-549948D02*
G54D11*
D03*
X1796375Y-590592D02*
G54D11*
D03*
X1796375Y-604821D02*
G54D11*
D03*
X1790781Y-443763D02*
G54D10*
D03*
X1790781Y-418352D02*
G54D10*
D03*
X1641917Y-1200277D02*
G54D15*
D03*
X1641917Y-962504D02*
G54D15*
D03*
X1638362Y-593133D02*
G54D16*
D03*
X1404145Y-462559D02*
G54D11*
D03*
X1398047Y-488975D02*
G54D16*
D03*
X1446822Y-459514D02*
G54D10*
D03*
X1446822Y-476787D02*
G54D11*
D03*
X1420400Y-476787D02*
G54D16*
D03*
X1408209Y-570272D02*
G54D11*
D03*
X1333011Y-572306D02*
G54D11*
D03*
X1328944Y-545880D02*
G54D11*
D03*
X298578Y-584495D02*
G54D16*
D03*
X320930Y-598722D02*
G54D16*
D03*
X520098Y-436143D02*
G54D15*
D03*
X448963Y-419882D02*
G54D15*
D03*
X721292Y-377712D02*
G54D16*
D03*
X1160778Y-398033D02*
G54D14*
D03*
X1056616Y-407684D02*
G54D11*
D03*
X1127751Y-403118D02*
G54D11*
D03*
X1422431Y-409717D02*
G54D11*
D03*
X1446822Y-408705D02*
G54D10*
D03*
X1313195Y-398033D02*
G54D13*
D03*
X1483402Y-513367D02*
G54D16*
D03*
X1483402Y-484918D02*
G54D16*
D03*
X1485435Y-391432D02*
G54D11*
D03*
X1484670Y-316742D02*
G54D42*
D03*
X1484670Y-278638D02*
G54D42*
D03*
X1484670Y-240534D02*
G54D42*
D03*
X1485937Y-113510D02*
G54D40*
D03*
X1737437Y-417848D02*
G54D11*
D03*
X2091056Y-464590D02*
G54D11*
D03*
X2091056Y-452396D02*
G54D11*
D03*
X2208926Y-452396D02*
G54D15*
D03*
X2198770Y-444273D02*
G54D15*
D03*
X2314608Y-517431D02*
G54D15*
D03*
X2314608Y-486950D02*
G54D15*
D03*
X2314608Y-472723D02*
G54D15*
D03*
X2314608Y-405652D02*
G54D15*
D03*
X2316640Y-425980D02*
G54D11*
D03*
X2530028Y-438174D02*
G54D11*
D03*
X2532061Y-474754D02*
G54D16*
D03*
X2530028Y-417848D02*
G54D11*
D03*
X2530028Y-405652D02*
G54D11*
D03*
X2513768Y-377203D02*
G54D11*
D03*
X2530028Y-393464D02*
G54D11*
D03*
X2617418Y-462559D02*
G54D25*
D03*
X2617418Y-450364D02*
G54D25*
D03*
X2617418Y-486950D02*
G54D25*
D03*
X2617418Y-474754D02*
G54D25*
D03*
X2617418Y-438174D02*
G54D25*
D03*
X2615386Y-395496D02*
G54D25*
D03*
X2615386Y-407684D02*
G54D25*
D03*
X2615386Y-419882D02*
G54D25*
D03*
X2635706Y-393464D02*
G54D25*
D03*
X2629622Y-418868D02*
G54D15*
D03*
X2633686Y-405652D02*
G54D15*
D03*
X2649930Y-411749D02*
G54D25*
D03*
X2680422Y-362975D02*
G54D15*
D03*
X2664166Y-367042D02*
G54D15*
D03*
X2676358Y-375171D02*
G54D15*
D03*
X2440608Y-214622D02*
G54D11*
D03*
X2444673Y-194296D02*
G54D11*
D03*
X2460935Y-202428D02*
G54D11*
D03*
X2460935Y-214622D02*
G54D11*
D03*
X2477188Y-214622D02*
G54D15*
D03*
X2483285Y-194296D02*
G54D11*
D03*
X2229251Y-206492D02*
G54D16*
D03*
X2235348Y-258319D02*
G54D10*
D03*
X2237382Y-196328D02*
G54D15*
D03*
X2247545Y-206492D02*
G54D11*
D03*
X2091056Y-188199D02*
G54D11*
D03*
X2103252Y-222753D02*
G54D11*
D03*
X2111381Y-188199D02*
G54D11*
D03*
X2118492Y-199884D02*
G54D11*
D03*
X2137800Y-192264D02*
G54D11*
D03*
X2131700Y-202428D02*
G54D15*
D03*
X2007731Y-222753D02*
G54D16*
D03*
X2017895Y-202428D02*
G54D11*
D03*
X1999602Y-196328D02*
G54D15*
D03*
X1973185Y-208523D02*
G54D16*
D03*
X1967086Y-196328D02*
G54D11*
D03*
X1944728Y-224777D02*
G54D15*
D03*
X1948793Y-210557D02*
G54D16*
D03*
X1948793Y-196328D02*
G54D16*
D03*
X1910179Y-214622D02*
G54D15*
D03*
X1914245Y-302010D02*
G54D16*
D03*
X1918312Y-226811D02*
G54D15*
D03*
X1922376Y-293881D02*
G54D15*
D03*
X1926441Y-214622D02*
G54D16*
D03*
X1934572Y-228844D02*
G54D16*
D03*
X1544374Y-720658D02*
G54D11*
D03*
X1546399Y-584495D02*
G54D11*
D03*
X1542335Y-265430D02*
G54D11*
D03*
X1542335Y-279652D02*
G54D11*
D03*
X812745Y-199884D02*
G54D11*
D03*
X864829Y-113770D02*
G54D37*
D03*
X901658Y-204969D02*
G54D11*
D03*
X310767Y-218686D02*
G54D11*
D03*
X297049Y-258313D02*
G54D16*
D03*
X351419Y-289814D02*
G54D11*
D03*
X340237Y-240529D02*
G54D16*
D03*
X215759Y-258313D02*
G54D16*
D03*
X235575Y-152128D02*
G54D16*
D03*
X430677Y-151619D02*
G54D16*
D03*
X637460Y-408196D02*
G54D11*
D03*
X594271Y-395496D02*
G54D11*
D03*
X679379Y-389143D02*
G54D11*
D03*
X716214Y-395496D02*
G54D11*
D03*
X1550465Y-1348638D02*
G54D11*
D03*
X1576888Y-1336443D02*
G54D16*
D03*
X1621598Y-1125084D02*
G54D11*
D03*
X1621598Y-1108829D02*
G54D11*
D03*
X1609403Y-1133216D02*
G54D11*
D03*
X1609403Y-1116954D02*
G54D11*
D03*
X1576888Y-1267347D02*
G54D16*
D03*
X1576888Y-1210441D02*
G54D16*
D03*
X1117588Y-1193168D02*
G54D16*
D03*
X1097268Y-1177925D02*
G54D11*
D03*
X1046459Y-1177925D02*
G54D11*
D03*
X1706955Y-1003149D02*
G54D11*
D03*
X1708988Y-1055991D02*
G54D15*
D03*
X1404145Y-832437D02*
G54D11*
D03*
X1454951Y-832437D02*
G54D11*
D03*
X1442757Y-832437D02*
G54D11*
D03*
X820366Y-690176D02*
G54D11*
D03*
X1093203Y-688142D02*
G54D11*
D03*
X1296430Y-690176D02*
G54D16*
D03*
X820366Y-662229D02*
G54D11*
D03*
X858468Y-657151D02*
G54D11*
D03*
X1032233Y-673914D02*
G54D15*
D03*
X1296430Y-702371D02*
G54D16*
D03*
X1117588Y-671883D02*
G54D16*
D03*
X1087106Y-625140D02*
G54D16*
D03*
X1095236Y-617016D02*
G54D16*
D03*
X1122667Y-619049D02*
G54D11*
D03*
X1173473Y-644446D02*
G54D11*
D03*
X1294398Y-643433D02*
G54D11*
D03*
X1690694Y-696274D02*
G54D11*
D03*
X1690694Y-680013D02*
G54D11*
D03*
X1452913Y-604821D02*
G54D11*
D03*
X1445293Y-586017D02*
G54D11*
D03*
X1440723Y-604821D02*
G54D15*
D03*
X1068811Y-1287673D02*
G54D11*
D03*
X1087106Y-1287673D02*
G54D16*
D03*
X885905Y-1224669D02*
G54D11*
D03*
X1261876Y-997052D02*
G54D10*
D03*
X1236479Y-997052D02*
G54D10*
D03*
X1312683Y-997052D02*
G54D10*
D03*
X1731340Y-1281575D02*
G54D15*
D03*
X1211076Y-761304D02*
G54D16*
D03*
X1225302Y-761304D02*
G54D11*
D03*
X1249686Y-714560D02*
G54D16*
D03*
X1296430Y-714560D02*
G54D16*
D03*
X1322855Y-726755D02*
G54D11*
D03*
X1322855Y-738952D02*
G54D11*
D03*
X1322855Y-751147D02*
G54D11*
D03*
X270983Y-1490389D02*
G54D10*
D03*
X290978Y-1490389D02*
G54D10*
D03*
X272155Y-1525447D02*
G54D11*
D03*
X310973Y-1490389D02*
G54D10*
D03*
X330969Y-1490389D02*
G54D10*
D03*
X327027Y-1525447D02*
G54D11*
D03*
X310975Y-1508986D02*
G54D11*
D03*
X310767Y-1474638D02*
G54D11*
D03*
X469290Y-1190121D02*
G54D15*
D03*
X499773Y-1196213D02*
G54D16*
D03*
X725358Y-1033631D02*
G54D15*
D03*
X809824Y-1040619D02*
G54D11*
D03*
X812745Y-1060055D02*
G54D11*
D03*
X522131Y-249170D02*
G54D11*
D03*
X522131Y-214622D02*
G54D11*
D03*
X604435Y-243072D02*
G54D16*
D03*
X610020Y-186422D02*
G54D30*
D03*
X592238Y-186422D02*
G54D14*
D03*
X1107426Y-1358979D02*
G54D11*
D03*
X1066779Y-1328311D02*
G54D15*
D03*
X1202942Y-958439D02*
G54D16*
D03*
X619675Y-1458384D02*
G54D16*
D03*
X824940Y-1157600D02*
G54D11*
D03*
X790393Y-1157600D02*
G54D11*
D03*
X1333011Y-680013D02*
G54D11*
D03*
X1121652Y-771467D02*
G54D16*
D03*
X1292366Y-769433D02*
G54D16*
D03*
X1322855Y-771467D02*
G54D11*
D03*
X727644Y-561887D02*
G54D15*
D03*
X745428Y-508537D02*
G54D11*
D03*
X947387Y-494570D02*
G54D15*
D03*
X947385Y-469420D02*
G54D14*
D03*
X921983Y-469420D02*
G54D30*
D03*
X896578Y-469420D02*
G54D14*
D03*
X1522015Y-440207D02*
G54D15*
D03*
X1538276Y-440207D02*
G54D16*
D03*
X1511851Y-391432D02*
G54D11*
D03*
X2278028Y-480852D02*
G54D11*
D03*
X2278028Y-450364D02*
G54D11*
D03*
X1790278Y-1395381D02*
G54D15*
D03*
X1792310Y-1265314D02*
G54D11*
D03*
X2727158Y-806014D02*
G54D15*
D03*
X1942695Y-940145D02*
G54D11*
D03*
X1940670Y-828371D02*
G54D11*
D03*
X1940670Y-852757D02*
G54D11*
D03*
X1936604Y-812112D02*
G54D11*
D03*
X1936604Y-795851D02*
G54D11*
D03*
X1186181Y-631748D02*
G54D11*
D03*
X947387Y-580939D02*
G54D15*
D03*
X1022069Y-582461D02*
G54D11*
D03*
X1314723Y-324362D02*
G54D11*
D03*
X1436403Y-316742D02*
G54D21*
D03*
X703509Y-133835D02*
G54D11*
D03*
X748977Y-225034D02*
G54D37*
D03*
X355478Y-391432D02*
G54D15*
D03*
X1223270Y-1462448D02*
G54D16*
D03*
X859488Y-1468539D02*
G54D11*
D03*
X585129Y-1444156D02*
G54D15*
D03*
X581573Y-1399957D02*
G54D15*
D03*
X898101Y-1368963D02*
G54D11*
D03*
X910296Y-1354736D02*
G54D11*
D03*
X2777971Y-1023469D02*
G54D25*
D03*
X2782035Y-779596D02*
G54D25*
D03*
X2775939Y-816176D02*
G54D25*
D03*
X967858Y-652224D02*
G54D11*
D03*
X1018005Y-647498D02*
G54D11*
D03*
X1648017Y-521498D02*
G54D11*
D03*
X975325Y-1433993D02*
G54D11*
D03*
X965169Y-1494965D02*
G54D11*
D03*
X272155Y-1253118D02*
G54D11*
D03*
X2040247Y-669850D02*
G54D11*
D03*
X2341029Y-706437D02*
G54D11*
D03*
X2355025Y-669621D02*
G54D15*
D03*
X2355253Y-682047D02*
G54D11*
D03*
X1981315Y-395496D02*
G54D16*
D03*
X2026024Y-395496D02*
G54D11*
D03*
X2660102Y-379236D02*
G54D15*
D03*
X2320705Y-714560D02*
G54D11*
D03*
X2328836Y-706437D02*
G54D11*
D03*
X2566609Y-690176D02*
G54D16*
D03*
X2570673Y-570272D02*
G54D16*
D03*
X2564578Y-547914D02*
G54D16*
D03*
X2603194Y-247137D02*
G54D25*
D03*
X2613354Y-253234D02*
G54D25*
D03*
X2558487Y-344690D02*
G54D11*
D03*
X2562550Y-210557D02*
G54D11*
D03*
X2558487Y-259332D02*
G54D11*
D03*
X2245512Y-1427894D02*
G54D15*
D03*
X2300379Y-1291731D02*
G54D11*
D03*
X2255670Y-795851D02*
G54D15*
D03*
X2255670Y-779596D02*
G54D15*
D03*
X2296312Y-968601D02*
G54D11*
D03*
X2296312Y-1017370D02*
G54D11*
D03*
X2297334Y-1140327D02*
G54D11*
D03*
X2297334Y-1124072D02*
G54D11*
D03*
X2296312Y-1076310D02*
G54D11*
D03*
X2195206Y-1001117D02*
G54D11*
D03*
X2208926Y-970636D02*
G54D15*
D03*
X2198770Y-862919D02*
G54D15*
D03*
X2141864Y-1129151D02*
G54D11*
D03*
X295526Y-999084D02*
G54D10*
D03*
G54D43*
X340244Y-240530D02*
X340244Y-203446D01*
X347354Y-196337D01*
X528219Y-196337D01*
X560744Y-228841D01*
X654229Y-228841D01*
X717236Y-165839D01*
X920454Y-165839D01*
X967195Y-119096D01*
X1131817Y-119096D01*
X1178558Y-165839D01*
X1294398Y-165839D01*
X1343178Y-117071D01*
X1375688Y-117071D01*
X1412274Y-153657D01*
X1511852Y-153657D01*
X1517956Y-159751D01*
X1517956Y-204450D01*
G54D44*
X131925Y-192270D02*
X148186Y-176009D01*
X538392Y-176009D01*
X566835Y-204450D01*
X642034Y-204450D01*
X700972Y-145527D01*
X910296Y-145527D01*
X957040Y-98783D01*
X1144012Y-98783D01*
X1188716Y-143487D01*
X1286265Y-143487D01*
X1333008Y-96744D01*
X1385858Y-96744D01*
X1422432Y-133330D01*
X1528113Y-133330D01*
X1538268Y-143487D01*
X1538268Y-239012D01*
X1541329Y-242060D01*
X1671387Y-242060D01*
X1676472Y-236974D01*
G54D44*
X1676472Y-251193D02*
X1671387Y-246124D01*
X1539289Y-246124D01*
X1534204Y-241041D01*
X1534204Y-145527D01*
X1526074Y-137399D01*
X1420407Y-137399D01*
X1383818Y-100813D01*
X1335048Y-100813D01*
X1288304Y-147554D01*
X1186692Y-147554D01*
X1141972Y-102850D01*
X959064Y-102850D01*
X912321Y-149593D01*
X702997Y-149593D01*
X644059Y-208519D01*
X564808Y-208519D01*
X536353Y-180073D01*
X176643Y-180073D01*
X172578Y-184142D01*
X172578Y-228841D01*
X168512Y-232910D01*
X121769Y-232910D01*
X119730Y-234948D01*
G54D44*
X129900Y-245105D02*
X162408Y-245105D01*
X176643Y-230884D01*
X176643Y-186167D01*
X178668Y-184142D01*
X534328Y-184142D01*
X562769Y-212583D01*
X646098Y-212583D01*
X705036Y-153657D01*
X914360Y-153657D01*
X961104Y-106914D01*
X1139948Y-106914D01*
X1184652Y-151618D01*
X1290334Y-151618D01*
X1337077Y-104877D01*
X1381792Y-104877D01*
X1418368Y-141463D01*
X1524049Y-141463D01*
X1530138Y-147554D01*
X1530138Y-243080D01*
X1537262Y-250188D01*
X1659190Y-250188D01*
X1668342Y-259326D01*
G54D44*
X1668342Y-271521D02*
X1651062Y-254256D01*
X1535225Y-254256D01*
X1526074Y-245105D01*
X1526074Y-149593D01*
X1522010Y-145527D01*
X1416338Y-145527D01*
X1379752Y-108941D01*
X1339114Y-108941D01*
X1292373Y-155682D01*
X1182623Y-155682D01*
X1137908Y-110978D01*
X963131Y-110978D01*
X916390Y-157709D01*
X709103Y-157709D01*
X650165Y-216647D01*
X560744Y-216647D01*
X532289Y-188206D01*
X182734Y-188206D01*
X180708Y-190231D01*
X180708Y-232910D01*
X156317Y-257300D01*
X129900Y-257300D01*
G54D44*
X1485434Y-602785D02*
X1477306Y-594657D01*
X1359429Y-594657D01*
X1349272Y-584502D01*
X1349272Y-568241D01*
X1339114Y-558071D01*
X1322853Y-558071D01*
X1312686Y-568241D01*
X1219199Y-568241D01*
X1202950Y-584502D01*
X1202950Y-588566D01*
G54D45*
X1484674Y-240530D02*
X1484674Y-242308D01*
X1513892Y-271521D01*
X1513892Y-318264D01*
X1526074Y-330459D01*
X1686630Y-330459D01*
X1719149Y-297937D01*
X1719149Y-208519D01*
X1713046Y-202425D01*
X1713046Y-177030D01*
X1915257Y-177030D01*
X1935585Y-197343D01*
G54D46*
X1517956Y-204450D02*
X1517956Y-249169D01*
X1530138Y-261364D01*
X1544372Y-261364D01*
X1587051Y-261364D01*
X1588057Y-260345D01*
X1618555Y-260345D01*
X1619558Y-261364D01*
X1645990Y-261364D01*
X1648014Y-263390D01*
X1648014Y-275585D01*
X1656147Y-283716D01*
X1678499Y-283716D01*
X1678499Y-265432D01*
X1688669Y-255262D01*
X1688669Y-232910D01*
X1694758Y-226817D01*
X1694758Y-212583D01*
X1690694Y-208519D01*
X1678319Y-208519D01*
G54D46*
X1935585Y-197343D02*
X1935585Y-207513D01*
X1938631Y-210558D01*
X1948801Y-210558D01*
G54D44*
X1312686Y-832437D02*
X1312686Y-830397D01*
X1306592Y-824306D01*
X1290334Y-824306D01*
X1286265Y-820242D01*
X1286265Y-806021D01*
X1306592Y-785696D01*
X1306592Y-755213D01*
X1270006Y-718624D01*
X1270006Y-614985D01*
X1255785Y-600748D01*
X1255785Y-588566D01*
G54D44*
X1267982Y-588566D02*
X1267982Y-598721D01*
X1276110Y-606854D01*
X1276110Y-716600D01*
X1310656Y-751147D01*
X1310656Y-791787D01*
X1296437Y-806021D01*
X1296437Y-816178D01*
G54D44*
X1243590Y-588566D02*
X1243590Y-602785D01*
X1263913Y-623113D01*
X1263913Y-720667D01*
X1302528Y-759277D01*
X1302528Y-781629D01*
X1280176Y-803981D01*
X1280176Y-824306D01*
X1288304Y-832437D01*
X1298462Y-832437D01*
G54D44*
X1333008Y-651558D02*
X1322853Y-651558D01*
X1312686Y-641401D01*
X1312686Y-588566D01*
X1300489Y-576369D01*
X1237497Y-576369D01*
X1227327Y-586527D01*
X1227327Y-588566D01*
G54D44*
X1215132Y-588566D02*
X1215132Y-582463D01*
X1225302Y-572305D01*
X1314725Y-572305D01*
X1322853Y-564175D01*
X1339114Y-564175D01*
X1343178Y-568241D01*
X1343178Y-592633D01*
X1355360Y-604815D01*
X1404144Y-604815D01*
X1414298Y-614985D01*
X1444784Y-614985D01*
X1452914Y-606854D01*
X1452914Y-604815D01*
G54D44*
X1190756Y-588566D02*
X1192780Y-588566D01*
X1192780Y-594657D01*
X1196847Y-598721D01*
X1231396Y-598721D01*
X1235460Y-594657D01*
X1235460Y-584502D01*
X1239524Y-580438D01*
X1298462Y-580438D01*
X1308617Y-590591D01*
X1308617Y-655622D01*
X1333008Y-680014D01*
G54D44*
X1296437Y-702366D02*
X1298462Y-704403D01*
X1343178Y-704403D01*
X1355360Y-692208D01*
X1355360Y-641401D01*
X1347232Y-633270D01*
X1326920Y-633270D01*
X1322853Y-629206D01*
X1322853Y-608879D01*
X1333008Y-598721D01*
G54D44*
X1296437Y-714560D02*
X1351296Y-714560D01*
X1361466Y-704403D01*
X1361466Y-635310D01*
X1351296Y-625137D01*
X1333008Y-625137D01*
G54D44*
X1310656Y-816178D02*
X1310656Y-799915D01*
X1314725Y-795851D01*
X1314725Y-747083D01*
X1282201Y-714560D01*
X1282201Y-590591D01*
X1280176Y-588566D01*
G54D44*
X1296437Y-690169D02*
X1341141Y-690169D01*
X1349272Y-682051D01*
X1349272Y-647489D01*
X1341141Y-639376D01*
X1322853Y-639376D01*
X1316750Y-633270D01*
X1316750Y-588566D01*
X1333008Y-572305D01*
G54D44*
X1544372Y-261364D02*
X1544372Y-263390D01*
X1542332Y-265432D01*
G54D45*
X683182Y-443761D02*
X683182Y-431317D01*
X681915Y-430037D01*
X668961Y-430037D01*
X667942Y-431058D01*
X667942Y-443761D01*
G54D45*
X681915Y-430037D02*
X739583Y-430037D01*
X742631Y-426989D01*
X1119620Y-426989D01*
G54D44*
X660322Y-415813D02*
X1135881Y-415813D01*
X1137908Y-413789D01*
G54D43*
X119220Y-962002D02*
X134475Y-962002D01*
X144631Y-962002D01*
G54D43*
X134475Y-962002D02*
X134475Y-291336D01*
X129390Y-286253D01*
X134475Y-281180D01*
X160382Y-281180D01*
G54D47*
X119220Y-962002D02*
X119220Y-296423D01*
X129390Y-286253D01*
G54D45*
X1713046Y-177030D02*
X1696797Y-177030D01*
X1687648Y-186167D01*
X1686630Y-186167D01*
G54D46*
X1688669Y-196337D02*
X1686630Y-194297D01*
X1686630Y-186167D01*
G36*
X101232Y-1306257D02*
X201232Y-1306257D01*
X201232Y-1406257D01*
X101232Y-1406257D01*
X101232Y-1306257D01*
G37*
G36*
X1555592Y-241089D02*
X1655592Y-241089D01*
X1655592Y-341089D01*
X1555592Y-341089D01*
X1555592Y-241089D01*
G37*
G36*
X2726193Y-1306257D02*
X2826193Y-1306257D01*
X2826193Y-1406257D01*
X2726193Y-1406257D01*
X2726193Y-1306257D01*
G37*
X380882Y-517431D02*
G54D10*
D03*
G36*
X198510Y-402632D02*
X214720Y-402632D01*
X214720Y-418842D01*
X198510Y-418842D01*
X198510Y-402632D01*
G37*
X426358Y-517431D02*
G54D10*
D03*
G36*
X197115Y-746215D02*
X216115Y-746215D01*
X216115Y-765215D01*
X197115Y-765215D01*
X197115Y-746215D01*
G37*
G36*
X313930Y-992084D02*
X327930Y-992084D01*
X327930Y-1006084D01*
X313930Y-1006084D01*
X313930Y-992084D01*
G37*
G36*
X681778Y-864050D02*
X695778Y-864050D01*
X695778Y-878050D01*
X681778Y-878050D01*
X681778Y-864050D01*
G37*
G36*
X2490005Y-1463071D02*
X2504005Y-1463071D01*
X2504005Y-1477071D01*
X2490005Y-1477071D01*
X2490005Y-1463071D01*
G37*
G36*
X2698315Y-1463072D02*
X2712315Y-1463072D01*
X2712315Y-1477072D01*
X2698315Y-1477072D01*
X2698315Y-1463072D01*
G37*
G36*
X183754Y-1430640D02*
X197754Y-1430640D01*
X197754Y-1444640D01*
X183754Y-1444640D01*
X183754Y-1430640D01*
G37*
G36*
X2725370Y-1305448D02*
X2826990Y-1305448D01*
X2826990Y-1407068D01*
X2725370Y-1407068D01*
X2725370Y-1305448D01*
G37*
G36*
X1554724Y-240274D02*
X1656344Y-240274D01*
X1656344Y-341894D01*
X1554724Y-341894D01*
X1554724Y-240274D01*
G37*
G36*
X1323511Y-495735D02*
X1342511Y-495735D01*
X1342511Y-514735D01*
X1323511Y-514735D01*
X1323511Y-495735D01*
G37*
G36*
X529351Y-827471D02*
X543351Y-827471D01*
X543351Y-841471D01*
X529351Y-841471D01*
X529351Y-827471D01*
G37*
M02*
