%FSLAX34Y34*%
%MOMM*%
%LNSOLDERMASK_BOTTOM*%
G71*
G01*
%ADD10C,1.166*%
%ADD11C,0.755*%
%ADD12C,2.160*%
%ADD13C,1.339*%
%ADD14C,1.338*%
%ADD15C,0.757*%
%ADD16C,0.756*%
%ADD17C,1.167*%
%ADD18C,1.621*%
%ADD19C,1.339*%
%ADD20C,1.619*%
%ADD21C,2.158*%
%ADD22C,2.698*%
%ADD23C,1.166*%
%ADD24C,1.620*%
%ADD25C,0.754*%
%ADD26C,2.700*%
%ADD27C,4.319*%
%ADD28C,1.340*%
%ADD29C,1.338*%
%ADD30C,1.340*%
%ADD31C,1.340*%
%ADD32C,4.319*%
%ADD33C,2.160*%
%ADD34C,1.943*%
%ADD35C,2.698*%
%ADD36C,2.700*%
%ADD37C,2.159*%
%ADD38C,1.619*%
%ADD39C,1.621*%
%ADD40C,2.160*%
%ADD41C,1.165*%
%ADD42C,2.159*%
%ADD43R,1.905X2.413*%
%ADD44R,1.906X2.413*%
%ADD45R,2.286X1.906*%
%ADD46R,1.906X2.414*%
%ADD47R,1.904X2.414*%
%ADD48R,1.904X2.413*%
%ADD49R,1.908X2.413*%
%ADD50R,1.905X2.414*%
%ADD51R,1.906X2.415*%
%ADD52R,2.287X1.906*%
%ADD53R,1.904X2.415*%
%ADD54C,0.203*%
%ADD55R,2.286X1.904*%
%ADD56R,2.286X1.905*%
%ADD57R,1.905X2.415*%
%ADD58R,2.542X3.812*%
%ADD59R,3.810X2.540*%
%ADD60R,2.540X3.812*%
%ADD61R,1.908X2.414*%
%ADD62R,1.903X2.413*%
%ADD63R,1.372X1.371*%
%ADD64R,2.287X1.905*%
%ADD65R,2.287X1.904*%
%ADD66R,2.541X3.812*%
%ADD67R,3.812X2.540*%
%ADD68R,2.288X1.906*%
%ADD69R,2.288X1.904*%
%ADD70R,0.890X6.100*%
%LPD*%
X406293Y-631748D02*
G54D10*
D03*
X702999Y-1003149D02*
G54D11*
D03*
X983457Y-1086472D02*
G54D11*
D03*
X1200910Y-1263282D02*
G54D11*
D03*
X432709Y-838535D02*
G54D11*
D03*
X436774Y-917793D02*
G54D11*
D03*
X436774Y-889338D02*
G54D11*
D03*
X270129Y-999084D02*
G54D10*
D03*
X668458Y-131346D02*
G54D12*
D03*
X588180Y-161016D02*
G54D13*
D03*
X563790Y-253234D02*
G54D11*
D03*
X567086Y-161016D02*
G54D14*
D03*
X567086Y-186422D02*
G54D14*
D03*
X500283Y-248149D02*
G54D15*
D03*
X959073Y-1076310D02*
G54D15*
D03*
X908264Y-1076310D02*
G54D16*
D03*
X814778Y-1076310D02*
G54D16*
D03*
X733487Y-1076310D02*
G54D16*
D03*
X522131Y-1092571D02*
G54D11*
D03*
X574966Y-1041762D02*
G54D11*
D03*
X526195Y-1045827D02*
G54D11*
D03*
X483518Y-1045827D02*
G54D11*
D03*
X516034Y-1055991D02*
G54D15*
D03*
X885905Y-1273444D02*
G54D11*
D03*
X798517Y-1320188D02*
G54D15*
D03*
X786329Y-1350669D02*
G54D11*
D03*
X694875Y-1350669D02*
G54D15*
D03*
X444900Y-1417733D02*
G54D15*
D03*
X507902Y-1486832D02*
G54D15*
D03*
X450996Y-1460411D02*
G54D11*
D03*
X477421Y-1431959D02*
G54D16*
D03*
X481480Y-1413675D02*
G54D11*
D03*
X350958Y-1490389D02*
G54D17*
D03*
X206615Y-438423D02*
G54D18*
D03*
X920460Y-1362866D02*
G54D16*
D03*
X930616Y-1352702D02*
G54D16*
D03*
X1015971Y-1330350D02*
G54D16*
D03*
X1095236Y-1385218D02*
G54D16*
D03*
X1050525Y-1387249D02*
G54D11*
D03*
X1066779Y-1399445D02*
G54D15*
D03*
X847292Y-1074278D02*
G54D11*
D03*
X663373Y-871050D02*
G54D17*
D03*
X573953Y-372628D02*
G54D15*
D03*
X792420Y-662229D02*
G54D11*
D03*
X755584Y-833705D02*
G54D19*
D03*
X339224Y-373139D02*
G54D11*
D03*
X1072877Y-554013D02*
G54D11*
D03*
X1358413Y-505236D02*
G54D20*
D03*
X731454Y-286261D02*
G54D11*
D03*
X1436403Y-278638D02*
G54D21*
D03*
X1361466Y-1373029D02*
G54D11*
D03*
X1162297Y-1476672D02*
G54D11*
D03*
X1192781Y-1525447D02*
G54D11*
D03*
X1178558Y-1391315D02*
G54D11*
D03*
X1192781Y-1417733D02*
G54D11*
D03*
X1137915Y-474754D02*
G54D15*
D03*
X1176017Y-476787D02*
G54D15*
D03*
X250995Y-1490389D02*
G54D17*
D03*
X259959Y-1307993D02*
G54D11*
D03*
X243677Y-1307964D02*
G54D16*
D03*
X347858Y-1063611D02*
G54D15*
D03*
X119737Y-234941D02*
G54D16*
D03*
X129900Y-257300D02*
G54D11*
D03*
X129900Y-245105D02*
G54D11*
D03*
X131926Y-192264D02*
G54D11*
D03*
X152252Y-212589D02*
G54D22*
D03*
X420513Y-982823D02*
G54D11*
D03*
X416448Y-1037695D02*
G54D11*
D03*
X365640Y-1005182D02*
G54D11*
D03*
X426611Y-1005182D02*
G54D15*
D03*
X416448Y-1066152D02*
G54D11*
D03*
X416448Y-1051926D02*
G54D11*
D03*
X416448Y-1080375D02*
G54D11*
D03*
X522131Y-1116954D02*
G54D11*
D03*
X522131Y-1149469D02*
G54D11*
D03*
X207125Y-1214506D02*
G54D11*
D03*
X235575Y-1228734D02*
G54D16*
D03*
X294514Y-1232799D02*
G54D16*
D03*
X347355Y-1236863D02*
G54D11*
D03*
X333126Y-1236863D02*
G54D15*
D03*
X363608Y-1208409D02*
G54D15*
D03*
X422547Y-1208409D02*
G54D15*
D03*
X404252Y-1232799D02*
G54D11*
D03*
X375804Y-1232799D02*
G54D16*
D03*
X568875Y-1165729D02*
G54D11*
D03*
X558711Y-1141345D02*
G54D16*
D03*
X570899Y-1127117D02*
G54D11*
D03*
X603420Y-1131181D02*
G54D11*
D03*
X499773Y-1234832D02*
G54D16*
D03*
X628570Y-1131947D02*
G54D11*
D03*
X652197Y-1145410D02*
G54D16*
D03*
X688777Y-1149469D02*
G54D11*
D03*
X696906Y-1131181D02*
G54D11*
D03*
X668452Y-1360833D02*
G54D11*
D03*
X658295Y-1350669D02*
G54D11*
D03*
X625772Y-1360833D02*
G54D11*
D03*
X603420Y-1352702D02*
G54D11*
D03*
X627805Y-1275476D02*
G54D16*
D03*
X607485Y-1275476D02*
G54D11*
D03*
X674549Y-1275476D02*
G54D16*
D03*
X650164Y-1253118D02*
G54D11*
D03*
X646100Y-1275476D02*
G54D11*
D03*
X475389Y-1354736D02*
G54D11*
D03*
X448963Y-1373029D02*
G54D15*
D03*
X501803Y-1247021D02*
G54D11*
D03*
X495706Y-1273444D02*
G54D15*
D03*
X477421Y-1265314D02*
G54D16*
D03*
X458108Y-1280555D02*
G54D11*
D03*
X448963Y-1307993D02*
G54D15*
D03*
X446932Y-1265314D02*
G54D11*
D03*
X422547Y-1253118D02*
G54D15*
D03*
X335159Y-1260484D02*
G54D10*
D03*
X335159Y-1294529D02*
G54D10*
D03*
X341256Y-1320188D02*
G54D15*
D03*
X318898Y-1318155D02*
G54D11*
D03*
X341250Y-1345839D02*
G54D10*
D03*
X341250Y-1379883D02*
G54D10*
D03*
X410352Y-1314091D02*
G54D15*
D03*
X366908Y-1113145D02*
G54D11*
D03*
X384693Y-1113145D02*
G54D16*
D03*
X217281Y-1041762D02*
G54D11*
D03*
X206615Y-1064623D02*
G54D11*
D03*
X208648Y-1107053D02*
G54D17*
D03*
X692842Y-995018D02*
G54D11*
D03*
X619675Y-978757D02*
G54D16*
D03*
X678614Y-982823D02*
G54D15*
D03*
X696906Y-1064114D02*
G54D11*
D03*
X556678Y-1055991D02*
G54D11*
D03*
X406293Y-834973D02*
G54D10*
D03*
X406293Y-809575D02*
G54D10*
D03*
X406293Y-784165D02*
G54D10*
D03*
X426358Y-850477D02*
G54D11*
D03*
X426358Y-796870D02*
G54D10*
D03*
X426358Y-822275D02*
G54D10*
D03*
X637968Y-871050D02*
G54D10*
D03*
X612565Y-871050D02*
G54D17*
D03*
X587160Y-871050D02*
G54D10*
D03*
X561764Y-871050D02*
G54D10*
D03*
X485542Y-834464D02*
G54D10*
D03*
X611552Y-832437D02*
G54D11*
D03*
X320930Y-721423D02*
G54D16*
D03*
X319918Y-669850D02*
G54D11*
D03*
X319918Y-654609D02*
G54D11*
D03*
X538386Y-765369D02*
G54D15*
D03*
X380882Y-771467D02*
G54D10*
D03*
X426358Y-771467D02*
G54D10*
D03*
X406293Y-555535D02*
G54D10*
D03*
X406293Y-530136D02*
G54D10*
D03*
X380882Y-542830D02*
G54D10*
D03*
X351419Y-665792D02*
G54D11*
D03*
X358020Y-1155065D02*
G54D11*
D03*
X357510Y-757237D02*
G54D11*
D03*
X357510Y-777565D02*
G54D11*
D03*
X357510Y-793826D02*
G54D11*
D03*
X363608Y-866986D02*
G54D15*
D03*
X369707Y-911696D02*
G54D11*
D03*
X369707Y-899500D02*
G54D11*
D03*
X367674Y-948276D02*
G54D16*
D03*
X365640Y-932015D02*
G54D11*
D03*
X380882Y-796870D02*
G54D10*
D03*
X380882Y-822275D02*
G54D10*
D03*
X385967Y-942179D02*
G54D11*
D03*
X284350Y-724723D02*
G54D11*
D03*
X297049Y-653597D02*
G54D16*
D03*
X288415Y-686111D02*
G54D11*
D03*
X225411Y-519464D02*
G54D11*
D03*
X206615Y-466119D02*
G54D18*
D03*
X206615Y-521490D02*
G54D18*
D03*
X206615Y-493805D02*
G54D18*
D03*
X426358Y-644445D02*
G54D10*
D03*
X426358Y-669858D02*
G54D10*
D03*
X426358Y-695254D02*
G54D10*
D03*
X426358Y-720665D02*
G54D10*
D03*
X426358Y-746061D02*
G54D10*
D03*
X454552Y-619049D02*
G54D11*
D03*
X500283Y-621584D02*
G54D15*
D03*
X623486Y-621584D02*
G54D19*
D03*
X665406Y-621584D02*
G54D23*
D03*
X314833Y-460526D02*
G54D11*
D03*
X314833Y-472723D02*
G54D11*
D03*
X337191Y-460526D02*
G54D16*
D03*
X178166Y-769690D02*
G54D20*
D03*
X947387Y-565699D02*
G54D15*
D03*
X947387Y-553000D02*
G54D15*
D03*
X947387Y-527596D02*
G54D15*
D03*
X840692Y-596180D02*
G54D11*
D03*
X688267Y-611427D02*
G54D11*
D03*
X881337Y-601266D02*
G54D16*
D03*
X908264Y-598722D02*
G54D16*
D03*
X921982Y-596180D02*
G54D11*
D03*
X1020036Y-614983D02*
G54D15*
D03*
X892769Y-620317D02*
G54D11*
D03*
X1438693Y-692208D02*
G54D11*
D03*
X891500Y-697796D02*
G54D11*
D03*
X1280680Y-550457D02*
G54D15*
D03*
X1303039Y-553000D02*
G54D11*
D03*
X1259850Y-458493D02*
G54D11*
D03*
X1257818Y-488975D02*
G54D16*
D03*
X1087106Y-551979D02*
G54D16*
D03*
X1099295Y-551979D02*
G54D11*
D03*
X1182625Y-541816D02*
G54D11*
D03*
X1196344Y-532674D02*
G54D16*
D03*
X1207009Y-537751D02*
G54D15*
D03*
X1444790Y-541816D02*
G54D16*
D03*
X1383817Y-505236D02*
G54D24*
D03*
X1333011Y-625140D02*
G54D11*
D03*
X1294398Y-625140D02*
G54D11*
D03*
X1601273Y-352811D02*
G54D11*
D03*
X1597208Y-531654D02*
G54D11*
D03*
X1534211Y-291338D02*
G54D15*
D03*
X1519983Y-354852D02*
G54D11*
D03*
X1613469Y-476787D02*
G54D11*
D03*
X1333011Y-598722D02*
G54D11*
D03*
X1404145Y-665792D02*
G54D11*
D03*
X1292366Y-675947D02*
G54D16*
D03*
X2706838Y-212589D02*
G54D15*
D03*
X2710902Y-667817D02*
G54D15*
D03*
X2643834Y-1062087D02*
G54D25*
D03*
X2639770Y-1039729D02*
G54D25*
D03*
X2605226Y-700339D02*
G54D25*
D03*
X2599130Y-738952D02*
G54D25*
D03*
X2582861Y-738952D02*
G54D15*
D03*
X2584906Y-497106D02*
G54D25*
D03*
X2595066Y-821765D02*
G54D25*
D03*
X2586925Y-1470574D02*
G54D15*
D03*
X2597098Y-1444156D02*
G54D25*
D03*
X2546290Y-677981D02*
G54D11*
D03*
X2523932Y-917793D02*
G54D15*
D03*
X2527996Y-645465D02*
G54D15*
D03*
X2656038Y-1509192D02*
G54D15*
D03*
X2651974Y-190231D02*
G54D15*
D03*
X2651974Y-202428D02*
G54D15*
D03*
X2694657Y-436143D02*
G54D11*
D03*
X2743427Y-1163697D02*
G54D25*
D03*
X2658058Y-1276745D02*
G54D25*
D03*
X2668230Y-1505126D02*
G54D15*
D03*
X2674314Y-1446187D02*
G54D25*
D03*
X2682454Y-1318155D02*
G54D15*
D03*
X2517832Y-612952D02*
G54D11*
D03*
X2527996Y-621074D02*
G54D15*
D03*
X2527996Y-633270D02*
G54D15*
D03*
X2479221Y-1429929D02*
G54D11*
D03*
X2572714Y-503204D02*
G54D25*
D03*
X2572714Y-623115D02*
G54D25*
D03*
X2572714Y-669850D02*
G54D25*
D03*
X2623514Y-566208D02*
G54D25*
D03*
X2639770Y-560111D02*
G54D25*
D03*
X2615386Y-1452286D02*
G54D25*
D03*
X2574733Y-395496D02*
G54D15*
D03*
X2517832Y-263398D02*
G54D11*
D03*
X2521899Y-202428D02*
G54D11*
D03*
X2525964Y-190231D02*
G54D11*
D03*
X2534093Y-263398D02*
G54D11*
D03*
X2534093Y-214622D02*
G54D11*
D03*
X2601162Y-214622D02*
G54D25*
D03*
X2605226Y-202428D02*
G54D25*
D03*
X2666186Y-781629D02*
G54D25*
D03*
X2649930Y-751147D02*
G54D25*
D03*
X2643834Y-765369D02*
G54D25*
D03*
X2629622Y-765369D02*
G54D15*
D03*
X2641814Y-614983D02*
G54D15*
D03*
X2631642Y-623115D02*
G54D25*
D03*
X2666186Y-604821D02*
G54D25*
D03*
X2674314Y-594656D02*
G54D25*
D03*
X2702774Y-275586D02*
G54D15*
D03*
X2546290Y-200393D02*
G54D11*
D03*
X2550355Y-395496D02*
G54D11*
D03*
X2550355Y-407684D02*
G54D11*
D03*
X2550355Y-419882D02*
G54D11*
D03*
X2554421Y-190231D02*
G54D11*
D03*
X2501580Y-263398D02*
G54D15*
D03*
X2501580Y-214622D02*
G54D15*
D03*
X2507677Y-194296D02*
G54D11*
D03*
X2588970Y-190231D02*
G54D25*
D03*
X2588970Y-202428D02*
G54D25*
D03*
X2588970Y-214622D02*
G54D25*
D03*
X2460935Y-190231D02*
G54D11*
D03*
X2593034Y-696274D02*
G54D25*
D03*
X2591002Y-749115D02*
G54D25*
D03*
X2595066Y-395496D02*
G54D25*
D03*
X2595066Y-407684D02*
G54D25*
D03*
X2595066Y-419882D02*
G54D25*
D03*
X2442641Y-263398D02*
G54D15*
D03*
X2467033Y-263398D02*
G54D15*
D03*
X2483285Y-263398D02*
G54D11*
D03*
X2517832Y-365007D02*
G54D11*
D03*
X2424346Y-962504D02*
G54D11*
D03*
X2424346Y-995018D02*
G54D11*
D03*
X2424346Y-1011279D02*
G54D11*
D03*
X2424346Y-1049891D02*
G54D11*
D03*
X2424346Y-1062087D02*
G54D11*
D03*
X2424346Y-1112888D02*
G54D11*
D03*
X2566456Y-352971D02*
G54D16*
D03*
X2570673Y-194296D02*
G54D16*
D03*
X2397930Y-190231D02*
G54D11*
D03*
X2397930Y-202428D02*
G54D11*
D03*
X2397930Y-214622D02*
G54D11*
D03*
X2410126Y-214622D02*
G54D11*
D03*
X2420289Y-206492D02*
G54D15*
D03*
X2473130Y-379236D02*
G54D11*
D03*
X2471089Y-434109D02*
G54D11*
D03*
X2483285Y-385333D02*
G54D11*
D03*
X2479221Y-425980D02*
G54D11*
D03*
X2493449Y-379236D02*
G54D15*
D03*
X2487351Y-436143D02*
G54D11*
D03*
X2424346Y-194296D02*
G54D11*
D03*
X2426387Y-263398D02*
G54D11*
D03*
X2497514Y-669850D02*
G54D16*
D03*
X2536127Y-541816D02*
G54D15*
D03*
X2538159Y-653597D02*
G54D11*
D03*
X2345089Y-263398D02*
G54D16*
D03*
X2349154Y-214622D02*
G54D15*
D03*
X2357285Y-196328D02*
G54D16*
D03*
X2361351Y-263398D02*
G54D15*
D03*
X2532061Y-503204D02*
G54D16*
D03*
X2462967Y-942179D02*
G54D16*
D03*
X2485319Y-1051926D02*
G54D16*
D03*
X2477188Y-1074278D02*
G54D15*
D03*
X2467033Y-1153533D02*
G54D15*
D03*
X2473130Y-1123052D02*
G54D11*
D03*
X2479221Y-1102735D02*
G54D11*
D03*
X2485319Y-832437D02*
G54D16*
D03*
X2485319Y-846659D02*
G54D16*
D03*
X2485319Y-875115D02*
G54D16*
D03*
X2485319Y-889338D02*
G54D16*
D03*
X2462967Y-421914D02*
G54D16*
D03*
X2460935Y-379236D02*
G54D11*
D03*
X2286157Y-258319D02*
G54D10*
D03*
X2286159Y-1521381D02*
G54D11*
D03*
X2298345Y-1515283D02*
G54D16*
D03*
X2267864Y-1468539D02*
G54D15*
D03*
X2292248Y-1468539D02*
G54D11*
D03*
X2269897Y-1444156D02*
G54D11*
D03*
X2288191Y-1456351D02*
G54D16*
D03*
X2195206Y-1375564D02*
G54D11*
D03*
X2032118Y-1033631D02*
G54D11*
D03*
X2026024Y-1007214D02*
G54D11*
D03*
X2026024Y-1106791D02*
G54D11*
D03*
X2141864Y-653597D02*
G54D11*
D03*
X2241447Y-304043D02*
G54D16*
D03*
X2237382Y-419882D02*
G54D15*
D03*
X2198770Y-460526D02*
G54D15*
D03*
X2241447Y-869019D02*
G54D16*
D03*
X2245512Y-787729D02*
G54D15*
D03*
X2247545Y-848691D02*
G54D11*
D03*
X2202834Y-488975D02*
G54D15*
D03*
X2208926Y-468657D02*
G54D15*
D03*
X2217055Y-476787D02*
G54D16*
D03*
X2235348Y-566208D02*
G54D11*
D03*
X2212990Y-617016D02*
G54D15*
D03*
X2212990Y-645465D02*
G54D15*
D03*
X2223154Y-655629D02*
G54D11*
D03*
X2284125Y-915763D02*
G54D15*
D03*
X2206893Y-753173D02*
G54D11*
D03*
X2198770Y-657661D02*
G54D15*
D03*
X2196738Y-635304D02*
G54D11*
D03*
X2247545Y-1523414D02*
G54D11*
D03*
X2249570Y-1472606D02*
G54D11*
D03*
X2227220Y-1472606D02*
G54D11*
D03*
X2229251Y-848691D02*
G54D16*
D03*
X2210958Y-1076310D02*
G54D11*
D03*
X2195206Y-1129151D02*
G54D11*
D03*
X2220611Y-1225179D02*
G54D16*
D03*
X2222643Y-1012802D02*
G54D11*
D03*
X2121539Y-1102735D02*
G54D11*
D03*
X2123571Y-1143377D02*
G54D16*
D03*
X2135765Y-925924D02*
G54D16*
D03*
X2135765Y-972666D02*
G54D16*
D03*
X2133733Y-1001117D02*
G54D11*
D03*
X2133733Y-1017370D02*
G54D11*
D03*
X2135765Y-862919D02*
G54D16*
D03*
X2135765Y-875115D02*
G54D16*
D03*
X2160149Y-875115D02*
G54D11*
D03*
X2160149Y-862919D02*
G54D11*
D03*
X2182509Y-753173D02*
G54D16*
D03*
X2178443Y-862919D02*
G54D15*
D03*
X2184542Y-785694D02*
G54D11*
D03*
X2109348Y-602788D02*
G54D15*
D03*
X2109348Y-627173D02*
G54D15*
D03*
X2086989Y-1049891D02*
G54D11*
D03*
X2084956Y-964537D02*
G54D15*
D03*
X2082924Y-1062087D02*
G54D11*
D03*
X2202834Y-1425862D02*
G54D15*
D03*
X2217055Y-1438058D02*
G54D16*
D03*
X2296824Y-1232799D02*
G54D11*
D03*
X2371514Y-1141345D02*
G54D11*
D03*
X2373546Y-214622D02*
G54D15*
D03*
X2320705Y-614983D02*
G54D11*
D03*
X2320705Y-452396D02*
G54D11*
D03*
X2332901Y-421914D02*
G54D11*
D03*
X2286159Y-517431D02*
G54D11*
D03*
X2294288Y-505236D02*
G54D11*
D03*
X2296312Y-486950D02*
G54D11*
D03*
X2302412Y-517431D02*
G54D15*
D03*
X2308510Y-452396D02*
G54D11*
D03*
X2296312Y-452396D02*
G54D11*
D03*
X2338992Y-383300D02*
G54D11*
D03*
X2243481Y-718626D02*
G54D11*
D03*
X2243481Y-539783D02*
G54D11*
D03*
X2245512Y-336556D02*
G54D15*
D03*
X2245512Y-409717D02*
G54D15*
D03*
X2243481Y-527596D02*
G54D11*
D03*
X2278028Y-614983D02*
G54D11*
D03*
X2292248Y-614983D02*
G54D11*
D03*
X2304444Y-614983D02*
G54D11*
D03*
X2318672Y-570272D02*
G54D15*
D03*
X2320705Y-590592D02*
G54D11*
D03*
X2328836Y-517431D02*
G54D11*
D03*
X2328836Y-472723D02*
G54D11*
D03*
X2328836Y-488975D02*
G54D11*
D03*
X2310542Y-706437D02*
G54D16*
D03*
X2332901Y-828371D02*
G54D11*
D03*
X2332901Y-649531D02*
G54D11*
D03*
X2320705Y-639368D02*
G54D11*
D03*
X2275993Y-763337D02*
G54D16*
D03*
X2275993Y-736920D02*
G54D16*
D03*
X2298345Y-722690D02*
G54D16*
D03*
X2288191Y-706437D02*
G54D16*
D03*
X2135765Y-531654D02*
G54D16*
D03*
X1885796Y-1143377D02*
G54D11*
D03*
X1723214Y-352811D02*
G54D11*
D03*
X1645982Y-787729D02*
G54D16*
D03*
X1643950Y-1066152D02*
G54D11*
D03*
X1643950Y-1295796D02*
G54D11*
D03*
X1723214Y-488975D02*
G54D11*
D03*
X1719151Y-568240D02*
G54D11*
D03*
X1658179Y-828371D02*
G54D16*
D03*
X1670374Y-803981D02*
G54D16*
D03*
X1914245Y-1352702D02*
G54D16*
D03*
X1914245Y-1385218D02*
G54D16*
D03*
X1913744Y-1492931D02*
G54D10*
D03*
X1888332Y-1492931D02*
G54D10*
D03*
X1997570Y-1163697D02*
G54D11*
D03*
X1999602Y-1198253D02*
G54D15*
D03*
X2009766Y-1159632D02*
G54D11*
D03*
X2009766Y-1106791D02*
G54D11*
D03*
X1983347Y-1094602D02*
G54D11*
D03*
X1960988Y-824307D02*
G54D16*
D03*
X1960988Y-842594D02*
G54D16*
D03*
X1969121Y-1167762D02*
G54D16*
D03*
X2019927Y-586527D02*
G54D16*
D03*
X2021960Y-621074D02*
G54D11*
D03*
X2007731Y-887312D02*
G54D16*
D03*
X2007731Y-921857D02*
G54D16*
D03*
X1979282Y-976733D02*
G54D11*
D03*
X1979282Y-988920D02*
G54D11*
D03*
X1999602Y-974693D02*
G54D15*
D03*
X2007731Y-1092571D02*
G54D16*
D03*
X1873600Y-1224669D02*
G54D11*
D03*
X1867503Y-1208409D02*
G54D16*
D03*
X1960988Y-1218570D02*
G54D16*
D03*
X1963022Y-1198253D02*
G54D11*
D03*
X1774016Y-1218570D02*
G54D16*
D03*
X1778081Y-1242957D02*
G54D15*
D03*
X1719151Y-1265314D02*
G54D11*
D03*
X1696791Y-1238890D02*
G54D15*
D03*
X1694760Y-1265314D02*
G54D11*
D03*
X1656147Y-1062087D02*
G54D11*
D03*
X1662244Y-995018D02*
G54D15*
D03*
X1591109Y-604821D02*
G54D15*
D03*
X1595173Y-712536D02*
G54D15*
D03*
X1587051Y-682047D02*
G54D11*
D03*
X1618042Y-540294D02*
G54D11*
D03*
X1609913Y-776042D02*
G54D11*
D03*
X1593142Y-962504D02*
G54D11*
D03*
X1609403Y-962504D02*
G54D11*
D03*
X1678499Y-732853D02*
G54D11*
D03*
X1755729Y-1281575D02*
G54D15*
D03*
X1743534Y-1265314D02*
G54D15*
D03*
X1737437Y-1047860D02*
G54D11*
D03*
X1743534Y-1005182D02*
G54D15*
D03*
X1743534Y-1121020D02*
G54D15*
D03*
X1818727Y-198361D02*
G54D11*
D03*
X1818727Y-214622D02*
G54D11*
D03*
X1875632Y-220712D02*
G54D15*
D03*
X1879697Y-753173D02*
G54D16*
D03*
X1877665Y-728789D02*
G54D11*
D03*
X1810598Y-234941D02*
G54D11*
D03*
X1790781Y-392954D02*
G54D10*
D03*
X1816191Y-909663D02*
G54D11*
D03*
X1818727Y-1051926D02*
G54D11*
D03*
X1812630Y-929989D02*
G54D15*
D03*
X2023994Y-186167D02*
G54D15*
D03*
X2023994Y-214622D02*
G54D15*
D03*
X1983167Y-196149D02*
G54D11*
D03*
X1987414Y-218686D02*
G54D11*
D03*
X1989438Y-273554D02*
G54D11*
D03*
X1995537Y-210557D02*
G54D16*
D03*
X1830922Y-253234D02*
G54D11*
D03*
X1832954Y-241038D02*
G54D16*
D03*
X1841087Y-273554D02*
G54D16*
D03*
X1822793Y-228844D02*
G54D11*
D03*
X1889861Y-196328D02*
G54D11*
D03*
X1755729Y-897467D02*
G54D15*
D03*
X1788246Y-881214D02*
G54D11*
D03*
X1788246Y-909663D02*
G54D11*
D03*
X1788246Y-929989D02*
G54D11*
D03*
X2044312Y-212589D02*
G54D11*
D03*
X2048376Y-196328D02*
G54D11*
D03*
X2056508Y-188199D02*
G54D11*
D03*
X2064637Y-196328D02*
G54D11*
D03*
X2072768Y-188199D02*
G54D11*
D03*
X2080892Y-196328D02*
G54D15*
D03*
X1767160Y-1266078D02*
G54D11*
D03*
X1765894Y-970636D02*
G54D11*
D03*
X1744547Y-281430D02*
G54D10*
D03*
X1757762Y-253234D02*
G54D11*
D03*
X1753698Y-198361D02*
G54D11*
D03*
X1753698Y-212589D02*
G54D11*
D03*
X1769447Y-505235D02*
G54D10*
D03*
X1745567Y-448332D02*
G54D11*
D03*
X1769447Y-657662D02*
G54D10*
D03*
X1751664Y-539783D02*
G54D16*
D03*
X1688660Y-661726D02*
G54D15*
D03*
X1684596Y-803981D02*
G54D15*
D03*
X1690694Y-834471D02*
G54D11*
D03*
X1694760Y-1058023D02*
G54D11*
D03*
X1690694Y-999085D02*
G54D11*
D03*
X1721176Y-976733D02*
G54D11*
D03*
X1725241Y-1051926D02*
G54D11*
D03*
X1828889Y-921857D02*
G54D15*
D03*
X1837022Y-830405D02*
G54D15*
D03*
X1841087Y-842594D02*
G54D16*
D03*
X1841087Y-909663D02*
G54D16*
D03*
X1839053Y-927957D02*
G54D11*
D03*
X1828889Y-1114923D02*
G54D15*
D03*
X1828889Y-1082407D02*
G54D15*
D03*
X1828889Y-1098668D02*
G54D15*
D03*
X2111381Y-232909D02*
G54D11*
D03*
X2072768Y-614983D02*
G54D11*
D03*
X2072768Y-627173D02*
G54D11*
D03*
X2072768Y-639368D02*
G54D11*
D03*
X2026024Y-942179D02*
G54D11*
D03*
X2028051Y-921857D02*
G54D11*
D03*
X2038213Y-887312D02*
G54D15*
D03*
X2095120Y-584495D02*
G54D11*
D03*
X1902049Y-1265314D02*
G54D16*
D03*
X1891893Y-1257184D02*
G54D16*
D03*
X1881732Y-1249054D02*
G54D11*
D03*
X1965054Y-1234832D02*
G54D15*
D03*
X1960988Y-1249054D02*
G54D16*
D03*
X1918312Y-1240930D02*
G54D15*
D03*
X1589078Y-1373029D02*
G54D11*
D03*
X1633795Y-1488867D02*
G54D11*
D03*
X1582985Y-1167762D02*
G54D11*
D03*
X1609403Y-1149469D02*
G54D11*
D03*
X1609403Y-1167762D02*
G54D11*
D03*
X1587051Y-1139313D02*
G54D11*
D03*
X1599240Y-1226702D02*
G54D16*
D03*
X1615501Y-1208409D02*
G54D15*
D03*
X1615501Y-1194186D02*
G54D15*
D03*
X1607371Y-1267347D02*
G54D16*
D03*
X1511851Y-730821D02*
G54D11*
D03*
X1235460Y-1263282D02*
G54D11*
D03*
X1219205Y-1253118D02*
G54D15*
D03*
X1219205Y-1011279D02*
G54D15*
D03*
X1084563Y-1053447D02*
G54D11*
D03*
X1219205Y-1161665D02*
G54D15*
D03*
X1231393Y-1161665D02*
G54D11*
D03*
X1239525Y-1149469D02*
G54D11*
D03*
X1247654Y-1139313D02*
G54D11*
D03*
X999283Y-1179373D02*
G54D15*
D03*
X1005817Y-1124574D02*
G54D15*
D03*
X1056616Y-1111876D02*
G54D11*
D03*
X1084563Y-1066152D02*
G54D11*
D03*
X1123687Y-980791D02*
G54D11*
D03*
X1123687Y-1005182D02*
G54D11*
D03*
X1072877Y-982823D02*
G54D11*
D03*
X1062714Y-1003149D02*
G54D16*
D03*
X1050525Y-982823D02*
G54D11*
D03*
X814778Y-1098668D02*
G54D16*
D03*
X818845Y-1114923D02*
G54D15*
D03*
X914106Y-1202312D02*
G54D16*
D03*
X940779Y-1200277D02*
G54D11*
D03*
X1095236Y-1200277D02*
G54D16*
D03*
X692842Y-1210441D02*
G54D11*
D03*
X910296Y-1405542D02*
G54D11*
D03*
X910296Y-1507153D02*
G54D11*
D03*
X912330Y-1521381D02*
G54D15*
D03*
X940779Y-1212473D02*
G54D11*
D03*
X1117588Y-1210441D02*
G54D16*
D03*
X798517Y-1297828D02*
G54D15*
D03*
X768036Y-1277511D02*
G54D16*
D03*
X733487Y-1279543D02*
G54D16*
D03*
X694111Y-1274202D02*
G54D11*
D03*
X800549Y-1263282D02*
G54D11*
D03*
X729422Y-1244987D02*
G54D15*
D03*
X729422Y-1259215D02*
G54D15*
D03*
X713161Y-1261250D02*
G54D16*
D03*
X644068Y-1488867D02*
G54D15*
D03*
X654229Y-1444156D02*
G54D11*
D03*
X656256Y-1478703D02*
G54D11*
D03*
X666418Y-1486832D02*
G54D16*
D03*
X670484Y-1503087D02*
G54D15*
D03*
X674549Y-1521381D02*
G54D16*
D03*
X543468Y-1503087D02*
G54D15*
D03*
X581573Y-1504618D02*
G54D15*
D03*
X766002Y-1448222D02*
G54D11*
D03*
X766002Y-1464475D02*
G54D11*
D03*
X719258Y-1507153D02*
G54D11*
D03*
X763970Y-1521381D02*
G54D15*
D03*
X763970Y-1501062D02*
G54D15*
D03*
X778197Y-1519349D02*
G54D11*
D03*
X790393Y-1527478D02*
G54D11*
D03*
X802583Y-1509192D02*
G54D16*
D03*
X839162Y-1431959D02*
G54D11*
D03*
X843228Y-1507153D02*
G54D11*
D03*
X845261Y-1383185D02*
G54D15*
D03*
X845261Y-1401478D02*
G54D15*
D03*
X693854Y-1402491D02*
G54D15*
D03*
X694875Y-1421797D02*
G54D15*
D03*
X778197Y-1360833D02*
G54D11*
D03*
X747716Y-1362866D02*
G54D11*
D03*
X733487Y-1360833D02*
G54D16*
D03*
X621708Y-962504D02*
G54D11*
D03*
X396123Y-956405D02*
G54D11*
D03*
X690811Y-962504D02*
G54D15*
D03*
X518066Y-777565D02*
G54D11*
D03*
X518066Y-791793D02*
G54D11*
D03*
X510956Y-834464D02*
G54D10*
D03*
X918427Y-1043795D02*
G54D11*
D03*
X892002Y-1043795D02*
G54D15*
D03*
X875749Y-1043795D02*
G54D11*
D03*
X937224Y-1043283D02*
G54D11*
D03*
X889461Y-1178437D02*
G54D11*
D03*
X961105Y-1161665D02*
G54D11*
D03*
X1263915Y-1108829D02*
G54D11*
D03*
X1338093Y-997052D02*
G54D10*
D03*
X1394973Y-1025909D02*
G54D15*
D03*
X1450887Y-1031598D02*
G54D11*
D03*
X1436658Y-1031598D02*
G54D16*
D03*
X1422431Y-1031598D02*
G54D11*
D03*
X1407141Y-1033535D02*
G54D16*
D03*
X1414301Y-997052D02*
G54D10*
D03*
X1439711Y-997052D02*
G54D10*
D03*
X1357401Y-978757D02*
G54D11*
D03*
X1363492Y-997052D02*
G54D10*
D03*
X1384706Y-1033535D02*
G54D15*
D03*
X1388902Y-997052D02*
G54D10*
D03*
X1287287Y-997052D02*
G54D10*
D03*
X1302527Y-938112D02*
G54D11*
D03*
X1310659Y-816176D02*
G54D11*
D03*
X1402112Y-807034D02*
G54D16*
D03*
X1398047Y-779596D02*
G54D16*
D03*
X1560882Y-962249D02*
G54D11*
D03*
X1576888Y-962504D02*
G54D16*
D03*
X1471206Y-830405D02*
G54D16*
D03*
X1497631Y-832437D02*
G54D11*
D03*
X1483402Y-584495D02*
G54D16*
D03*
X1485435Y-602788D02*
G54D11*
D03*
X1491532Y-682047D02*
G54D16*
D03*
X1465109Y-997052D02*
G54D10*
D03*
X1188716Y-832437D02*
G54D11*
D03*
X1202942Y-832437D02*
G54D16*
D03*
X1227334Y-832437D02*
G54D16*
D03*
X1265948Y-832437D02*
G54D15*
D03*
X1298463Y-832437D02*
G54D11*
D03*
X1312690Y-832437D02*
G54D15*
D03*
X1042395Y-680013D02*
G54D11*
D03*
X859488Y-680013D02*
G54D11*
D03*
X1226672Y-479481D02*
G54D15*
D03*
X1517948Y-543850D02*
G54D16*
D03*
X1528113Y-604821D02*
G54D11*
D03*
X1530145Y-584495D02*
G54D16*
D03*
X1591109Y-415816D02*
G54D15*
D03*
X1601273Y-365007D02*
G54D11*
D03*
X1731340Y-499139D02*
G54D15*
D03*
X1735404Y-358908D02*
G54D15*
D03*
X1729128Y-190231D02*
G54D11*
D03*
X1733371Y-208523D02*
G54D11*
D03*
X1735404Y-226811D02*
G54D15*
D03*
X1733371Y-322330D02*
G54D11*
D03*
X1725241Y-454428D02*
G54D11*
D03*
X1700855Y-438174D02*
G54D15*
D03*
X1717109Y-417848D02*
G54D11*
D03*
X1702889Y-377203D02*
G54D11*
D03*
X1676472Y-251202D02*
G54D11*
D03*
X1676472Y-236973D02*
G54D11*
D03*
X1678326Y-208523D02*
G54D16*
D03*
X1682564Y-220712D02*
G54D11*
D03*
X1700855Y-525563D02*
G54D15*
D03*
X1704921Y-551979D02*
G54D16*
D03*
X1713053Y-525563D02*
G54D16*
D03*
X1725241Y-533693D02*
G54D11*
D03*
X1857340Y-243072D02*
G54D11*
D03*
X1855313Y-523528D02*
G54D11*
D03*
X1869536Y-230875D02*
G54D11*
D03*
X1889861Y-208523D02*
G54D11*
D03*
X1889861Y-220712D02*
G54D11*
D03*
X1902049Y-226811D02*
G54D16*
D03*
X1849209Y-921857D02*
G54D11*
D03*
X1849209Y-940145D02*
G54D11*
D03*
X1841087Y-680013D02*
G54D16*
D03*
X1841087Y-1025501D02*
G54D16*
D03*
X1802473Y-1047860D02*
G54D15*
D03*
X1800441Y-929989D02*
G54D11*
D03*
X1796375Y-1080375D02*
G54D11*
D03*
X1912213Y-761304D02*
G54D11*
D03*
X1895952Y-761304D02*
G54D11*
D03*
X1895952Y-1133216D02*
G54D11*
D03*
X1916279Y-779596D02*
G54D11*
D03*
X1916279Y-795851D02*
G54D11*
D03*
X1867503Y-1071231D02*
G54D16*
D03*
X1879697Y-1084439D02*
G54D16*
D03*
X1879697Y-1102735D02*
G54D16*
D03*
X1883763Y-1125084D02*
G54D15*
D03*
X1871568Y-1058525D02*
G54D15*
D03*
X1855313Y-1035663D02*
G54D11*
D03*
X1845654Y-505235D02*
G54D10*
D03*
X1845654Y-657662D02*
G54D10*
D03*
X1849209Y-214622D02*
G54D11*
D03*
X1853274Y-196328D02*
G54D11*
D03*
X2212990Y-401596D02*
G54D15*
D03*
X2261767Y-409717D02*
G54D11*
D03*
X2269897Y-401596D02*
G54D11*
D03*
X2267864Y-358908D02*
G54D15*
D03*
X2271928Y-432077D02*
G54D15*
D03*
X2271928Y-417848D02*
G54D15*
D03*
X2273961Y-517431D02*
G54D11*
D03*
X2314608Y-192264D02*
G54D15*
D03*
X2253636Y-419882D02*
G54D11*
D03*
X2253636Y-304043D02*
G54D11*
D03*
X2260746Y-258319D02*
G54D10*
D03*
X2625546Y-549948D02*
G54D25*
D03*
X2637750Y-505236D02*
G54D15*
D03*
X2647898Y-436143D02*
G54D25*
D03*
X2631642Y-438174D02*
G54D25*
D03*
X2647898Y-423946D02*
G54D25*
D03*
X2641814Y-478820D02*
G54D15*
D03*
X2647898Y-468657D02*
G54D25*
D03*
X2627578Y-214622D02*
G54D25*
D03*
X2629622Y-243072D02*
G54D15*
D03*
X2633686Y-194296D02*
G54D15*
D03*
X2647898Y-243072D02*
G54D25*
D03*
X2690582Y-214622D02*
G54D15*
D03*
X2694657Y-194296D02*
G54D11*
D03*
X2694657Y-411749D02*
G54D11*
D03*
X2694657Y-397530D02*
G54D11*
D03*
X2664166Y-243072D02*
G54D15*
D03*
X2664166Y-214622D02*
G54D15*
D03*
X2674314Y-200393D02*
G54D25*
D03*
X2680422Y-243072D02*
G54D15*
D03*
X2723094Y-698306D02*
G54D15*
D03*
X2723094Y-682047D02*
G54D15*
D03*
X2723094Y-669850D02*
G54D15*
D03*
X2721075Y-653597D02*
G54D25*
D03*
X2716998Y-641399D02*
G54D15*
D03*
X2721075Y-275586D02*
G54D25*
D03*
X2763747Y-196328D02*
G54D25*
D03*
X2784054Y-187185D02*
G54D15*
D03*
X2784054Y-202428D02*
G54D15*
D03*
X2735286Y-234941D02*
G54D15*
D03*
X2749510Y-251202D02*
G54D15*
D03*
X2751555Y-239008D02*
G54D25*
D03*
X2753574Y-212589D02*
G54D15*
D03*
X2757638Y-226811D02*
G54D15*
D03*
X2761702Y-765369D02*
G54D15*
D03*
X2735286Y-797890D02*
G54D15*
D03*
X2743427Y-816176D02*
G54D25*
D03*
X2747491Y-793826D02*
G54D25*
D03*
X2759683Y-789760D02*
G54D25*
D03*
X2761702Y-747083D02*
G54D15*
D03*
X2743427Y-747083D02*
G54D25*
D03*
X2705327Y-961993D02*
G54D10*
D03*
X2705327Y-987398D02*
G54D10*
D03*
X2705327Y-1012802D02*
G54D10*
D03*
X2737329Y-1072243D02*
G54D11*
D03*
X2743427Y-881214D02*
G54D25*
D03*
X2744443Y-926939D02*
G54D25*
D03*
X2771875Y-771467D02*
G54D25*
D03*
X2771875Y-755213D02*
G54D25*
D03*
X2769843Y-738952D02*
G54D25*
D03*
X2771875Y-787729D02*
G54D25*
D03*
X2725139Y-194296D02*
G54D25*
D03*
X2725139Y-206492D02*
G54D25*
D03*
X2725139Y-228844D02*
G54D25*
D03*
X2357285Y-395496D02*
G54D16*
D03*
X2345089Y-395496D02*
G54D16*
D03*
X2290224Y-899500D02*
G54D11*
D03*
X2261767Y-848691D02*
G54D11*
D03*
X2166757Y-1437038D02*
G54D16*
D03*
X1786213Y-1342540D02*
G54D16*
D03*
X1779859Y-1281575D02*
G54D15*
D03*
X1786213Y-1218570D02*
G54D16*
D03*
X1784179Y-1155568D02*
G54D11*
D03*
X2058540Y-921857D02*
G54D15*
D03*
X2070728Y-903566D02*
G54D11*
D03*
X2072768Y-714560D02*
G54D11*
D03*
X2072768Y-915763D02*
G54D11*
D03*
X2072768Y-932015D02*
G54D11*
D03*
X2121539Y-531654D02*
G54D11*
D03*
X2125603Y-572306D02*
G54D11*
D03*
X2107316Y-639368D02*
G54D11*
D03*
X2170313Y-631238D02*
G54D16*
D03*
X2178443Y-614983D02*
G54D15*
D03*
X2182509Y-645465D02*
G54D16*
D03*
X2188606Y-210557D02*
G54D11*
D03*
X2141864Y-570272D02*
G54D11*
D03*
X2164216Y-547914D02*
G54D11*
D03*
X2168281Y-535718D02*
G54D11*
D03*
X2174379Y-598722D02*
G54D15*
D03*
X2217055Y-304043D02*
G54D16*
D03*
X2229251Y-304043D02*
G54D16*
D03*
X2233318Y-336556D02*
G54D15*
D03*
X2221122Y-336556D02*
G54D15*
D03*
X2159137Y-258319D02*
G54D17*
D03*
X2184542Y-258319D02*
G54D10*
D03*
X2099187Y-245105D02*
G54D11*
D03*
X2133734Y-258319D02*
G54D10*
D03*
X2108336Y-258319D02*
G54D10*
D03*
X2221122Y-196328D02*
G54D15*
D03*
X2265831Y-206492D02*
G54D11*
D03*
X2282092Y-198361D02*
G54D11*
D03*
X2300710Y-191931D02*
G54D11*
D03*
X2196738Y-190231D02*
G54D11*
D03*
X2204868Y-198361D02*
G54D11*
D03*
X2209946Y-258319D02*
G54D17*
D03*
X2212990Y-206492D02*
G54D15*
D03*
X1674433Y-440207D02*
G54D11*
D03*
X1660212Y-541816D02*
G54D11*
D03*
X1664276Y-523528D02*
G54D11*
D03*
X1682564Y-1281575D02*
G54D11*
D03*
X1365532Y-1411641D02*
G54D11*
D03*
X1434626Y-1346604D02*
G54D11*
D03*
X1434626Y-1265314D02*
G54D11*
D03*
X1432594Y-1297828D02*
G54D16*
D03*
X1402112Y-1283607D02*
G54D16*
D03*
X1328944Y-1336443D02*
G54D11*
D03*
X1345207Y-1263282D02*
G54D11*
D03*
X1320815Y-1263282D02*
G54D11*
D03*
X1308624Y-1263282D02*
G54D16*
D03*
X1265948Y-1460411D02*
G54D15*
D03*
X1532179Y-1223649D02*
G54D11*
D03*
X1532179Y-1198253D02*
G54D11*
D03*
X1536243Y-1287673D02*
G54D11*
D03*
X1536243Y-1305959D02*
G54D11*
D03*
X1536243Y-1320188D02*
G54D11*
D03*
X842593Y-776930D02*
G54D11*
D03*
X817823Y-768925D02*
G54D16*
D03*
X1048493Y-765369D02*
G54D16*
D03*
X2154058Y-189720D02*
G54D11*
D03*
X2154058Y-202428D02*
G54D11*
D03*
X2154058Y-214622D02*
G54D11*
D03*
X2176410Y-210557D02*
G54D11*
D03*
X2178443Y-190231D02*
G54D15*
D03*
X2326802Y-263398D02*
G54D15*
D03*
X2334422Y-189720D02*
G54D15*
D03*
X2334933Y-202428D02*
G54D16*
D03*
X2377610Y-263398D02*
G54D15*
D03*
X2381669Y-194296D02*
G54D11*
D03*
X2393865Y-263398D02*
G54D11*
D03*
X2304444Y-430044D02*
G54D11*
D03*
X2296312Y-440207D02*
G54D11*
D03*
X2286159Y-417848D02*
G54D11*
D03*
X2302412Y-405652D02*
G54D15*
D03*
X2290224Y-405652D02*
G54D11*
D03*
X2188606Y-875115D02*
G54D11*
D03*
X2192671Y-1155568D02*
G54D11*
D03*
X892002Y-633270D02*
G54D15*
D03*
X500283Y-634289D02*
G54D15*
D03*
X1130295Y-652067D02*
G54D15*
D03*
X1333011Y-651562D02*
G54D11*
D03*
X1130295Y-715579D02*
G54D15*
D03*
X1130295Y-734631D02*
G54D15*
D03*
X1125718Y-753173D02*
G54D15*
D03*
X1117588Y-716594D02*
G54D16*
D03*
X1196845Y-761304D02*
G54D11*
D03*
X1168396Y-713038D02*
G54D16*
D03*
X2729203Y-1200277D02*
G54D25*
D03*
X2731222Y-1177925D02*
G54D15*
D03*
X2731222Y-1285634D02*
G54D15*
D03*
X2729203Y-1251086D02*
G54D25*
D03*
X2015354Y-1492931D02*
G54D17*
D03*
X1989947Y-1492931D02*
G54D10*
D03*
X2314608Y-889338D02*
G54D15*
D03*
X2316640Y-909663D02*
G54D11*
D03*
X1207009Y-1413675D02*
G54D15*
D03*
X2749510Y-1273444D02*
G54D15*
D03*
X2741382Y-1291731D02*
G54D15*
D03*
X152252Y-1285634D02*
G54D11*
D03*
X150219Y-1265314D02*
G54D16*
D03*
X2448739Y-913728D02*
G54D11*
D03*
X2446705Y-1133216D02*
G54D15*
D03*
X2119512Y-1496997D02*
G54D11*
D03*
X2145929Y-1448222D02*
G54D11*
D03*
X2119512Y-1348638D02*
G54D11*
D03*
X2119512Y-1391315D02*
G54D11*
D03*
X2771875Y-1267347D02*
G54D25*
D03*
X1597208Y-1293763D02*
G54D11*
D03*
X1591109Y-1399445D02*
G54D15*
D03*
X182734Y-1226702D02*
G54D11*
D03*
X1670374Y-1265314D02*
G54D16*
D03*
X2781527Y-1505382D02*
G54D26*
D03*
X1631755Y-1070212D02*
G54D11*
D03*
X1625665Y-962504D02*
G54D11*
D03*
X1629729Y-1206376D02*
G54D11*
D03*
X288415Y-1301895D02*
G54D11*
D03*
X2412158Y-1326286D02*
G54D15*
D03*
X2391833Y-1035663D02*
G54D16*
D03*
X2387767Y-999085D02*
G54D15*
D03*
X2379643Y-1076310D02*
G54D11*
D03*
X2379643Y-1025501D02*
G54D11*
D03*
X2379643Y-986889D02*
G54D11*
D03*
X2391833Y-1088504D02*
G54D16*
D03*
X1414301Y-1179960D02*
G54D11*
D03*
X1432594Y-1179960D02*
G54D16*
D03*
X1444790Y-1184025D02*
G54D16*
D03*
X183753Y-1107053D02*
G54D10*
D03*
X183753Y-1128138D02*
G54D10*
D03*
X183753Y-1154045D02*
G54D10*
D03*
X183753Y-1175128D02*
G54D10*
D03*
X2800323Y-1231269D02*
G54D10*
D03*
X2800323Y-1256681D02*
G54D10*
D03*
X2800323Y-1282079D02*
G54D10*
D03*
X2800323Y-1053447D02*
G54D10*
D03*
X2800323Y-1078851D02*
G54D10*
D03*
X2800323Y-1104256D02*
G54D10*
D03*
X2800323Y-1129654D02*
G54D10*
D03*
X2800323Y-1155065D02*
G54D10*
D03*
X2800323Y-1180462D02*
G54D10*
D03*
X2800323Y-1205873D02*
G54D10*
D03*
X168512Y-1007214D02*
G54D11*
D03*
X1009873Y-1003149D02*
G54D11*
D03*
X1007848Y-976733D02*
G54D11*
D03*
X988033Y-974693D02*
G54D11*
D03*
X988033Y-987398D02*
G54D11*
D03*
X182734Y-1040742D02*
G54D11*
D03*
X193400Y-936080D02*
G54D27*
D03*
X810712Y-907630D02*
G54D15*
D03*
X847292Y-903566D02*
G54D11*
D03*
X999717Y-913728D02*
G54D11*
D03*
X178166Y-797376D02*
G54D20*
D03*
X178166Y-824810D02*
G54D20*
D03*
X178166Y-852512D02*
G54D20*
D03*
X908009Y-909919D02*
G54D19*
D03*
X908009Y-833705D02*
G54D19*
D03*
X206615Y-783408D02*
G54D18*
D03*
X989555Y-784675D02*
G54D16*
D03*
X1039350Y-799917D02*
G54D10*
D03*
X1129784Y-808046D02*
G54D16*
D03*
X1090159Y-799917D02*
G54D10*
D03*
X840692Y-761304D02*
G54D11*
D03*
X806647Y-759272D02*
G54D16*
D03*
X820366Y-723201D02*
G54D11*
D03*
X774133Y-745049D02*
G54D11*
D03*
X694875Y-757237D02*
G54D15*
D03*
X595291Y-749115D02*
G54D11*
D03*
X640000Y-750890D02*
G54D14*
D03*
X665406Y-750886D02*
G54D23*
D03*
X665407Y-733364D02*
G54D28*
D03*
X621455Y-733364D02*
G54D29*
D03*
X739075Y-728278D02*
G54D11*
D03*
X640002Y-715828D02*
G54D17*
D03*
X665406Y-715828D02*
G54D23*
D03*
X500283Y-713038D02*
G54D15*
D03*
X1043415Y-708469D02*
G54D10*
D03*
X1094216Y-708469D02*
G54D17*
D03*
X596813Y-697796D02*
G54D15*
D03*
X550580Y-694242D02*
G54D15*
D03*
X623486Y-677471D02*
G54D19*
D03*
X499773Y-686111D02*
G54D16*
D03*
X193400Y-686111D02*
G54D27*
D03*
X490118Y-646989D02*
G54D11*
D03*
X665407Y-639113D02*
G54D28*
D03*
X640002Y-639114D02*
G54D17*
D03*
X820366Y-636826D02*
G54D11*
D03*
X564808Y-635304D02*
G54D11*
D03*
X987521Y-645465D02*
G54D11*
D03*
X1107426Y-606344D02*
G54D11*
D03*
X1127751Y-604821D02*
G54D11*
D03*
X1190756Y-588560D02*
G54D11*
D03*
X1202942Y-588560D02*
G54D16*
D03*
X1215140Y-588560D02*
G54D16*
D03*
X1227334Y-588560D02*
G54D16*
D03*
X1243589Y-588560D02*
G54D11*
D03*
X1255785Y-588560D02*
G54D11*
D03*
X1267979Y-588560D02*
G54D11*
D03*
X1280175Y-588560D02*
G54D11*
D03*
X505361Y-586017D02*
G54D11*
D03*
X558711Y-604821D02*
G54D16*
D03*
X627805Y-578396D02*
G54D16*
D03*
X665406Y-604056D02*
G54D23*
D03*
X640002Y-604056D02*
G54D17*
D03*
X635170Y-532928D02*
G54D13*
D03*
X670230Y-532928D02*
G54D13*
D03*
X193400Y-591102D02*
G54D27*
D03*
X178166Y-507524D02*
G54D20*
D03*
X505870Y-545880D02*
G54D11*
D03*
X505358Y-525054D02*
G54D13*
D03*
X357510Y-600756D02*
G54D11*
D03*
X358020Y-588560D02*
G54D11*
D03*
X359543Y-562143D02*
G54D16*
D03*
X1678499Y-720658D02*
G54D11*
D03*
X1678499Y-708469D02*
G54D11*
D03*
X1678499Y-696274D02*
G54D11*
D03*
X1678499Y-684078D02*
G54D11*
D03*
X1678499Y-669850D02*
G54D11*
D03*
X561252Y-499648D02*
G54D11*
D03*
X556170Y-525054D02*
G54D30*
D03*
X652700Y-519974D02*
G54D31*
D03*
X2129668Y-899500D02*
G54D11*
D03*
X2578797Y-694242D02*
G54D15*
D03*
X2574733Y-419882D02*
G54D15*
D03*
X2574733Y-407684D02*
G54D15*
D03*
X2580842Y-513367D02*
G54D25*
D03*
X426358Y-568241D02*
G54D10*
D03*
X426358Y-593636D02*
G54D10*
D03*
X426358Y-619050D02*
G54D10*
D03*
X426358Y-542830D02*
G54D10*
D03*
X972791Y-497106D02*
G54D11*
D03*
X993619Y-497106D02*
G54D16*
D03*
X972789Y-469420D02*
G54D13*
D03*
X1473239Y-458493D02*
G54D11*
D03*
X1481370Y-543850D02*
G54D11*
D03*
X579030Y-464081D02*
G54D11*
D03*
X591736Y-479330D02*
G54D11*
D03*
X709860Y-483133D02*
G54D11*
D03*
X591736Y-453920D02*
G54D11*
D03*
X683189Y-443763D02*
G54D16*
D03*
X667942Y-443763D02*
G54D11*
D03*
X637460Y-425980D02*
G54D11*
D03*
X530255Y-470689D02*
G54D15*
D03*
X464714Y-469158D02*
G54D17*
D03*
X520098Y-450364D02*
G54D15*
D03*
X464714Y-443763D02*
G54D17*
D03*
X1176017Y-464081D02*
G54D15*
D03*
X1127751Y-450364D02*
G54D11*
D03*
X1127374Y-462180D02*
G54D15*
D03*
X1131816Y-426992D02*
G54D11*
D03*
X1119620Y-426992D02*
G54D11*
D03*
X1556563Y-440207D02*
G54D15*
D03*
X1560628Y-411749D02*
G54D16*
D03*
X1552497Y-365007D02*
G54D16*
D03*
X388000Y-421914D02*
G54D15*
D03*
X388503Y-443763D02*
G54D10*
D03*
X388503Y-469158D02*
G54D10*
D03*
X402221Y-393464D02*
G54D15*
D03*
X1056616Y-377712D02*
G54D11*
D03*
X548547Y-397530D02*
G54D11*
D03*
X483518Y-407684D02*
G54D11*
D03*
X512979Y-375171D02*
G54D11*
D03*
X448963Y-369072D02*
G54D15*
D03*
X530766Y-372628D02*
G54D14*
D03*
X871448Y-345474D02*
G54D32*
D03*
X721292Y-357387D02*
G54D16*
D03*
X603932Y-356878D02*
G54D11*
D03*
X178166Y-424712D02*
G54D20*
D03*
X178166Y-452398D02*
G54D20*
D03*
X178166Y-479833D02*
G54D20*
D03*
X339224Y-348754D02*
G54D11*
D03*
X324995Y-304043D02*
G54D15*
D03*
X339224Y-332492D02*
G54D11*
D03*
X193400Y-341127D02*
G54D27*
D03*
X434736Y-304043D02*
G54D11*
D03*
X528222Y-314198D02*
G54D11*
D03*
X492151Y-302004D02*
G54D17*
D03*
X466746Y-302004D02*
G54D10*
D03*
X507165Y-285626D02*
G54D11*
D03*
X516789Y-274828D02*
G54D16*
D03*
X1097268Y-258313D02*
G54D11*
D03*
X2312576Y-358908D02*
G54D11*
D03*
X2311555Y-258319D02*
G54D10*
D03*
X1509819Y-584495D02*
G54D15*
D03*
X1507787Y-763337D02*
G54D11*
D03*
X1507787Y-704403D02*
G54D11*
D03*
X1505754Y-793826D02*
G54D16*
D03*
X1507787Y-820242D02*
G54D11*
D03*
X1790781Y-240529D02*
G54D10*
D03*
X1790781Y-265939D02*
G54D10*
D03*
X1790781Y-291338D02*
G54D10*
D03*
X1790781Y-316742D02*
G54D10*
D03*
X1790781Y-342146D02*
G54D10*
D03*
X1790781Y-367551D02*
G54D10*
D03*
X1790781Y-215130D02*
G54D10*
D03*
X1034769Y-225034D02*
G54D33*
D03*
X1182115Y-99797D02*
G54D34*
D03*
X1182115Y-224531D02*
G54D34*
D03*
X153520Y-1208409D02*
G54D35*
D03*
X145396Y-1141091D02*
G54D36*
D03*
X153520Y-1073768D02*
G54D35*
D03*
X142344Y-1043540D02*
G54D11*
D03*
X172578Y-151619D02*
G54D11*
D03*
X160382Y-281182D02*
G54D11*
D03*
X144631Y-961993D02*
G54D11*
D03*
X208648Y-1175128D02*
G54D17*
D03*
X211190Y-551979D02*
G54D11*
D03*
X223379Y-556045D02*
G54D16*
D03*
X213216Y-637335D02*
G54D11*
D03*
X217281Y-1011279D02*
G54D11*
D03*
X217281Y-1025501D02*
G54D11*
D03*
X244718Y-999084D02*
G54D10*
D03*
X350400Y-646989D02*
G54D11*
D03*
X206615Y-866475D02*
G54D18*
D03*
X206615Y-838783D02*
G54D18*
D03*
X206615Y-811097D02*
G54D18*
D03*
X316865Y-334526D02*
G54D15*
D03*
X227444Y-1397413D02*
G54D16*
D03*
X343288Y-1395381D02*
G54D11*
D03*
X375804Y-1395381D02*
G54D16*
D03*
X412384Y-1395381D02*
G54D11*
D03*
X318898Y-775532D02*
G54D11*
D03*
X318898Y-791793D02*
G54D11*
D03*
X318898Y-814145D02*
G54D11*
D03*
X401208Y-245614D02*
G54D11*
D03*
X744154Y-326650D02*
G54D37*
D03*
X593259Y-497106D02*
G54D16*
D03*
X546515Y-653597D02*
G54D16*
D03*
X601128Y-123349D02*
G54D12*
D03*
X614088Y-161016D02*
G54D13*
D03*
X635170Y-161016D02*
G54D13*
D03*
X635170Y-186422D02*
G54D13*
D03*
X440833Y-574331D02*
G54D16*
D03*
X730188Y-493297D02*
G54D11*
D03*
X660320Y-415816D02*
G54D11*
D03*
X914362Y-763847D02*
G54D11*
D03*
X891500Y-748605D02*
G54D11*
D03*
X891500Y-723201D02*
G54D11*
D03*
X1363492Y-415816D02*
G54D11*
D03*
X1041376Y-553000D02*
G54D11*
D03*
X1137915Y-413784D02*
G54D15*
D03*
X1036298Y-897467D02*
G54D16*
D03*
X1056616Y-881214D02*
G54D11*
D03*
X1074909Y-893403D02*
G54D16*
D03*
X1085074Y-887312D02*
G54D11*
D03*
X1097268Y-883247D02*
G54D11*
D03*
X1072877Y-946244D02*
G54D11*
D03*
X1013939Y-466625D02*
G54D11*
D03*
X1043918Y-474245D02*
G54D16*
D03*
X1156966Y-199629D02*
G54D34*
D03*
X1086596Y-201660D02*
G54D38*
D03*
X1361466Y-316233D02*
G54D11*
D03*
X1160778Y-296422D02*
G54D14*
D03*
X1313195Y-296422D02*
G54D13*
D03*
X1112000Y-138154D02*
G54D39*
D03*
X1188716Y-808046D02*
G54D11*
D03*
X1241557Y-797890D02*
G54D15*
D03*
X1247654Y-814145D02*
G54D11*
D03*
X1296430Y-816176D02*
G54D16*
D03*
X1333011Y-612952D02*
G54D11*
D03*
X1404145Y-706437D02*
G54D11*
D03*
X1049003Y-326650D02*
G54D33*
D03*
X1155697Y-324362D02*
G54D11*
D03*
X1207009Y-99795D02*
G54D20*
D03*
X1207009Y-124691D02*
G54D20*
D03*
X1231911Y-124691D02*
G54D40*
D03*
X1359433Y-1501062D02*
G54D15*
D03*
X1281691Y-99797D02*
G54D34*
D03*
X1127751Y-1242957D02*
G54D11*
D03*
X1113523Y-1242957D02*
G54D15*
D03*
X1097268Y-1242957D02*
G54D11*
D03*
X1436403Y-240534D02*
G54D21*
D03*
X581573Y-344690D02*
G54D15*
D03*
X444900Y-346720D02*
G54D15*
D03*
X1313195Y-347226D02*
G54D13*
D03*
X1160778Y-347226D02*
G54D14*
D03*
X1370100Y-136121D02*
G54D38*
D03*
X1435129Y-113510D02*
G54D40*
D03*
X1491532Y-365007D02*
G54D16*
D03*
X1576888Y-730821D02*
G54D16*
D03*
X1560628Y-682047D02*
G54D16*
D03*
X1564692Y-604821D02*
G54D16*
D03*
X1572313Y-542837D02*
G54D15*
D03*
X1560628Y-1488867D02*
G54D16*
D03*
X1564692Y-1454319D02*
G54D16*
D03*
X1617533Y-1454319D02*
G54D11*
D03*
X1648017Y-1342540D02*
G54D11*
D03*
X1650049Y-810081D02*
G54D15*
D03*
X1666310Y-297946D02*
G54D16*
D03*
X1668342Y-271521D02*
G54D11*
D03*
X1668342Y-259332D02*
G54D11*
D03*
X1706955Y-1281575D02*
G54D11*
D03*
X1837523Y-1492931D02*
G54D41*
D03*
X1812126Y-1492931D02*
G54D10*
D03*
X1964550Y-1492931D02*
G54D10*
D03*
X1939139Y-1492931D02*
G54D10*
D03*
X1952858Y-1356768D02*
G54D15*
D03*
X1950826Y-1391315D02*
G54D11*
D03*
X2040756Y-1492931D02*
G54D10*
D03*
X2129668Y-554013D02*
G54D11*
D03*
X2186574Y-1224669D02*
G54D15*
D03*
X2316640Y-1253118D02*
G54D11*
D03*
X2379643Y-1525447D02*
G54D11*
D03*
X2401995Y-1523414D02*
G54D11*
D03*
X2381669Y-1458384D02*
G54D11*
D03*
X2442641Y-1104765D02*
G54D15*
D03*
X2456869Y-1204344D02*
G54D11*
D03*
X2450771Y-1232799D02*
G54D16*
D03*
X2450771Y-1328311D02*
G54D16*
D03*
X2450771Y-1366931D02*
G54D16*
D03*
X2452803Y-415816D02*
G54D11*
D03*
X2452803Y-387365D02*
G54D11*
D03*
X2456869Y-903566D02*
G54D11*
D03*
X2454836Y-932015D02*
G54D15*
D03*
X2705327Y-1368453D02*
G54D10*
D03*
X2705327Y-1343050D02*
G54D10*
D03*
X2705327Y-1317647D02*
G54D10*
D03*
X2705327Y-1292240D02*
G54D10*
D03*
X2705327Y-1266836D02*
G54D10*
D03*
X2705327Y-1393850D02*
G54D10*
D03*
X2705327Y-1419262D02*
G54D10*
D03*
X2705327Y-1444659D02*
G54D10*
D03*
X2761702Y-1417733D02*
G54D15*
D03*
X203060Y-1509192D02*
G54D11*
D03*
X190864Y-1462959D02*
G54D10*
D03*
X239640Y-1525447D02*
G54D16*
D03*
X231006Y-1490389D02*
G54D10*
D03*
X2552891Y-1114411D02*
G54D10*
D03*
X2554421Y-686111D02*
G54D11*
D03*
X2552891Y-1063605D02*
G54D10*
D03*
X2552891Y-1038207D02*
G54D10*
D03*
X2552891Y-1012802D02*
G54D10*
D03*
X2552891Y-987398D02*
G54D10*
D03*
X2552891Y-961993D02*
G54D10*
D03*
X2552891Y-1089015D02*
G54D10*
D03*
X2525964Y-1368453D02*
G54D10*
D03*
X2525964Y-1393850D02*
G54D10*
D03*
X2525964Y-1266836D02*
G54D10*
D03*
X2525964Y-1292240D02*
G54D10*
D03*
X2525964Y-1317647D02*
G54D10*
D03*
X2525964Y-1343050D02*
G54D10*
D03*
X2497011Y-1419262D02*
G54D10*
D03*
X2497011Y-1444659D02*
G54D10*
D03*
X2497011Y-1393850D02*
G54D10*
D03*
X2497011Y-1368453D02*
G54D10*
D03*
X2497011Y-1343050D02*
G54D10*
D03*
X2497011Y-1317647D02*
G54D10*
D03*
X2497011Y-1292240D02*
G54D10*
D03*
X2497011Y-1266836D02*
G54D10*
D03*
X2497011Y-1241439D02*
G54D10*
D03*
X2363382Y-911696D02*
G54D11*
D03*
X2363382Y-927957D02*
G54D11*
D03*
X2359318Y-1381152D02*
G54D11*
D03*
X2359318Y-1405542D02*
G54D11*
D03*
X2344586Y-1292240D02*
G54D10*
D03*
X2344586Y-1393850D02*
G54D10*
D03*
X2344586Y-1419262D02*
G54D10*
D03*
X2344586Y-1444659D02*
G54D10*
D03*
X2344586Y-1470071D02*
G54D10*
D03*
X2344586Y-1317647D02*
G54D10*
D03*
X2344586Y-1343050D02*
G54D10*
D03*
X2344586Y-1368453D02*
G54D10*
D03*
X2344586Y-1063605D02*
G54D10*
D03*
X2344586Y-1038207D02*
G54D10*
D03*
X2344586Y-1012802D02*
G54D10*
D03*
X2344586Y-987398D02*
G54D10*
D03*
X2344586Y-961993D02*
G54D10*
D03*
X2344586Y-1266836D02*
G54D10*
D03*
X2344586Y-1241439D02*
G54D10*
D03*
X2344586Y-1216029D02*
G54D10*
D03*
X2344586Y-1190633D02*
G54D10*
D03*
X2344586Y-1165221D02*
G54D10*
D03*
X2344586Y-1139824D02*
G54D10*
D03*
X2344586Y-1114411D02*
G54D10*
D03*
X2344586Y-1089015D02*
G54D10*
D03*
X2525964Y-1165221D02*
G54D10*
D03*
X2525964Y-1241439D02*
G54D10*
D03*
X2525964Y-1216029D02*
G54D10*
D03*
X2525964Y-1190633D02*
G54D10*
D03*
X2523932Y-1116954D02*
G54D15*
D03*
X2523932Y-1011279D02*
G54D15*
D03*
X2513768Y-1062087D02*
G54D11*
D03*
X2552891Y-1444659D02*
G54D10*
D03*
X2552891Y-1419262D02*
G54D10*
D03*
X2552891Y-1393850D02*
G54D10*
D03*
X2552891Y-1470071D02*
G54D10*
D03*
X2552891Y-1368453D02*
G54D10*
D03*
X2552891Y-1139824D02*
G54D10*
D03*
X2552891Y-1165221D02*
G54D10*
D03*
X2552891Y-1343050D02*
G54D10*
D03*
X2552891Y-1317647D02*
G54D10*
D03*
X2552891Y-1292240D02*
G54D10*
D03*
X2552891Y-1266836D02*
G54D10*
D03*
X2552891Y-1241439D02*
G54D10*
D03*
X2552891Y-1216029D02*
G54D10*
D03*
X2552891Y-1190633D02*
G54D10*
D03*
X2705327Y-1241439D02*
G54D10*
D03*
X2705327Y-1165221D02*
G54D10*
D03*
X2705327Y-1190633D02*
G54D10*
D03*
X2705327Y-1216029D02*
G54D10*
D03*
X2705327Y-1038207D02*
G54D10*
D03*
X2705327Y-1089015D02*
G54D10*
D03*
X2705327Y-1114411D02*
G54D10*
D03*
X2705327Y-1139824D02*
G54D10*
D03*
X2705327Y-1063605D02*
G54D10*
D03*
X2497011Y-1089015D02*
G54D10*
D03*
X2497011Y-1114411D02*
G54D10*
D03*
X2497011Y-1139824D02*
G54D10*
D03*
X2497011Y-1165221D02*
G54D10*
D03*
X2497011Y-1190633D02*
G54D10*
D03*
X2497011Y-1216029D02*
G54D10*
D03*
X2497011Y-1063605D02*
G54D10*
D03*
X2497011Y-961993D02*
G54D10*
D03*
X2497011Y-1038207D02*
G54D10*
D03*
X2497011Y-1012802D02*
G54D10*
D03*
X2497011Y-987398D02*
G54D10*
D03*
X485542Y-871050D02*
G54D10*
D03*
X460147Y-871050D02*
G54D10*
D03*
X534320Y-903566D02*
G54D16*
D03*
X536351Y-871050D02*
G54D10*
D03*
X510956Y-871050D02*
G54D10*
D03*
X640002Y-695006D02*
G54D17*
D03*
X665406Y-695006D02*
G54D23*
D03*
X665406Y-677478D02*
G54D23*
D03*
X776165Y-657661D02*
G54D15*
D03*
X640002Y-659948D02*
G54D17*
D03*
X665406Y-659948D02*
G54D23*
D03*
X380882Y-720665D02*
G54D10*
D03*
X380882Y-746061D02*
G54D10*
D03*
X406293Y-758769D02*
G54D10*
D03*
X406293Y-707960D02*
G54D10*
D03*
X406293Y-733358D02*
G54D10*
D03*
X380882Y-695254D02*
G54D10*
D03*
X380882Y-644445D02*
G54D10*
D03*
X380882Y-669858D02*
G54D10*
D03*
X406293Y-657151D02*
G54D10*
D03*
X406293Y-682556D02*
G54D10*
D03*
X380882Y-619050D02*
G54D10*
D03*
X380882Y-593636D02*
G54D10*
D03*
X380882Y-568241D02*
G54D10*
D03*
X406293Y-580945D02*
G54D10*
D03*
X406293Y-606344D02*
G54D10*
D03*
X561252Y-560620D02*
G54D11*
D03*
X704782Y-556810D02*
G54D16*
D03*
X705038Y-541816D02*
G54D11*
D03*
X635170Y-557822D02*
G54D23*
D03*
X652700Y-557822D02*
G54D23*
D03*
X670230Y-557822D02*
G54D23*
D03*
X1688660Y-196328D02*
G54D15*
D03*
X1702889Y-243072D02*
G54D11*
D03*
X1693739Y-281430D02*
G54D10*
D03*
X2082924Y-258319D02*
G54D10*
D03*
X727390Y-899500D02*
G54D11*
D03*
X755584Y-909919D02*
G54D19*
D03*
X1256799Y-99795D02*
G54D20*
D03*
X1256799Y-124691D02*
G54D20*
D03*
X1336063Y-240529D02*
G54D15*
D03*
X1281691Y-224531D02*
G54D34*
D03*
X1344704Y-199635D02*
G54D38*
D03*
X1306839Y-199629D02*
G54D34*
D03*
X533810Y-131346D02*
G54D12*
D03*
X316865Y-401596D02*
G54D15*
D03*
X316865Y-421914D02*
G54D15*
D03*
X316865Y-438174D02*
G54D15*
D03*
X1995537Y-1356768D02*
G54D16*
D03*
X1991470Y-1391315D02*
G54D15*
D03*
X2017895Y-1409607D02*
G54D11*
D03*
X2064637Y-1397413D02*
G54D11*
D03*
X1862935Y-1492931D02*
G54D10*
D03*
X1857340Y-1377088D02*
G54D11*
D03*
X1857340Y-1391315D02*
G54D11*
D03*
X1654115Y-1488867D02*
G54D16*
D03*
X1660212Y-1385218D02*
G54D11*
D03*
X1662244Y-1399445D02*
G54D15*
D03*
X1499655Y-1521381D02*
G54D11*
D03*
X1408209Y-1383185D02*
G54D11*
D03*
X1410236Y-1403510D02*
G54D11*
D03*
X1420400Y-1446187D02*
G54D16*
D03*
X1448854Y-1446187D02*
G54D16*
D03*
X1389914Y-1533576D02*
G54D16*
D03*
X1406177Y-1496997D02*
G54D15*
D03*
X1436658Y-1525447D02*
G54D16*
D03*
X1308624Y-1462448D02*
G54D16*
D03*
X1308624Y-1482769D02*
G54D16*
D03*
X370946Y-1490389D02*
G54D10*
D03*
X390943Y-1490389D02*
G54D10*
D03*
X410937Y-1490389D02*
G54D10*
D03*
X400188Y-1436027D02*
G54D11*
D03*
X402221Y-1452286D02*
G54D15*
D03*
X296545Y-1318155D02*
G54D11*
D03*
X219314Y-1314091D02*
G54D16*
D03*
X528222Y-1269379D02*
G54D11*
D03*
X546515Y-1271411D02*
G54D16*
D03*
X552614Y-1314091D02*
G54D11*
D03*
X574966Y-1271411D02*
G54D11*
D03*
X560743Y-1271411D02*
G54D11*
D03*
X530255Y-1360833D02*
G54D15*
D03*
X550580Y-1354736D02*
G54D15*
D03*
X581063Y-1387249D02*
G54D16*
D03*
X574966Y-1354736D02*
G54D11*
D03*
X847292Y-1350669D02*
G54D11*
D03*
X826208Y-1331109D02*
G54D11*
D03*
X853390Y-1261250D02*
G54D16*
D03*
X831039Y-1255151D02*
G54D15*
D03*
X824940Y-1293763D02*
G54D11*
D03*
X824940Y-1275476D02*
G54D11*
D03*
X1125718Y-1293763D02*
G54D15*
D03*
X1255785Y-1373029D02*
G54D11*
D03*
X1253751Y-1244987D02*
G54D15*
D03*
X1261882Y-1263282D02*
G54D16*
D03*
X1274078Y-1263282D02*
G54D16*
D03*
X1290331Y-1263282D02*
G54D11*
D03*
X1479338Y-1521381D02*
G54D16*
D03*
X1473239Y-1346604D02*
G54D11*
D03*
X1471206Y-1179960D02*
G54D16*
D03*
X1479338Y-1200277D02*
G54D16*
D03*
X1479338Y-1320188D02*
G54D16*
D03*
X1473239Y-1247021D02*
G54D11*
D03*
X1625665Y-1295796D02*
G54D11*
D03*
X1828889Y-1265314D02*
G54D15*
D03*
X1804506Y-1265314D02*
G54D11*
D03*
X1816694Y-1265314D02*
G54D15*
D03*
X1826858Y-1244987D02*
G54D11*
D03*
X1802473Y-1218570D02*
G54D15*
D03*
X1824825Y-1210441D02*
G54D15*
D03*
X1826858Y-1196213D02*
G54D11*
D03*
X2091056Y-1249054D02*
G54D11*
D03*
X2119512Y-1198253D02*
G54D11*
D03*
X2117472Y-1249054D02*
G54D11*
D03*
X2603194Y-856823D02*
G54D25*
D03*
X2613354Y-1366931D02*
G54D25*
D03*
X2613354Y-1393347D02*
G54D25*
D03*
X2613354Y-1240930D02*
G54D25*
D03*
X2613354Y-1265314D02*
G54D25*
D03*
X2613354Y-1291731D02*
G54D25*
D03*
X2613354Y-1314091D02*
G54D25*
D03*
X2613354Y-1342540D02*
G54D25*
D03*
X2629622Y-1379120D02*
G54D15*
D03*
X2633686Y-1460411D02*
G54D15*
D03*
X2633686Y-1429929D02*
G54D15*
D03*
X2643834Y-1511219D02*
G54D25*
D03*
X2631642Y-1259215D02*
G54D25*
D03*
X2676358Y-1190121D02*
G54D15*
D03*
X2625546Y-1155568D02*
G54D25*
D03*
X2645866Y-1145410D02*
G54D25*
D03*
X2645866Y-1110856D02*
G54D25*
D03*
X2643834Y-1127117D02*
G54D25*
D03*
X2643834Y-1086472D02*
G54D25*
D03*
X2395898Y-1186057D02*
G54D15*
D03*
X2395898Y-1133216D02*
G54D15*
D03*
X2320705Y-1281575D02*
G54D11*
D03*
X2322737Y-1240930D02*
G54D16*
D03*
X2330866Y-1184025D02*
G54D15*
D03*
X2322737Y-1202312D02*
G54D16*
D03*
X2322737Y-1214506D02*
G54D16*
D03*
X2298345Y-1175893D02*
G54D16*
D03*
X2046346Y-1151509D02*
G54D15*
D03*
X2042279Y-1163697D02*
G54D16*
D03*
X2050410Y-1139313D02*
G54D15*
D03*
X2038213Y-1100700D02*
G54D15*
D03*
X2052443Y-1127117D02*
G54D11*
D03*
X2052443Y-1112888D02*
G54D11*
D03*
X2038213Y-1112888D02*
G54D15*
D03*
X1895952Y-1151509D02*
G54D11*
D03*
X1885796Y-1163697D02*
G54D11*
D03*
X1761827Y-1488867D02*
G54D11*
D03*
X1759797Y-1395381D02*
G54D16*
D03*
X1763853Y-1005182D02*
G54D11*
D03*
X1761827Y-1228734D02*
G54D11*
D03*
X1761827Y-1196213D02*
G54D11*
D03*
X1757762Y-1133216D02*
G54D11*
D03*
X1754455Y-1145410D02*
G54D11*
D03*
X1609403Y-1100700D02*
G54D11*
D03*
X1621598Y-1090538D02*
G54D11*
D03*
X1621598Y-1078342D02*
G54D11*
D03*
X1272046Y-1116954D02*
G54D11*
D03*
X1280175Y-1108829D02*
G54D11*
D03*
X1288300Y-1116954D02*
G54D15*
D03*
X1296430Y-1108829D02*
G54D16*
D03*
X1328944Y-1108829D02*
G54D11*
D03*
X1320815Y-1116954D02*
G54D11*
D03*
X1312690Y-1108829D02*
G54D15*
D03*
X1304560Y-1116954D02*
G54D16*
D03*
X1363492Y-1102735D02*
G54D11*
D03*
X1363424Y-1089801D02*
G54D11*
D03*
X1351304Y-1102735D02*
G54D16*
D03*
X1339109Y-1102735D02*
G54D16*
D03*
X1339109Y-1116954D02*
G54D16*
D03*
X1219205Y-1066152D02*
G54D15*
D03*
X1218439Y-1127882D02*
G54D11*
D03*
X1219205Y-1078342D02*
G54D15*
D03*
X1219205Y-1090538D02*
G54D15*
D03*
X1219205Y-1102735D02*
G54D15*
D03*
X1219205Y-1114923D02*
G54D15*
D03*
X1235460Y-1121020D02*
G54D11*
D03*
X1255785Y-1116954D02*
G54D11*
D03*
X898101Y-1090538D02*
G54D11*
D03*
X853390Y-1094602D02*
G54D16*
D03*
X839162Y-1102735D02*
G54D11*
D03*
X918427Y-1088504D02*
G54D11*
D03*
X690811Y-1198253D02*
G54D15*
D03*
X664386Y-1198253D02*
G54D11*
D03*
X652197Y-1177925D02*
G54D16*
D03*
X285618Y-1133979D02*
G54D11*
D03*
X294514Y-1141345D02*
G54D16*
D03*
X327027Y-1153533D02*
G54D11*
D03*
X465225Y-988920D02*
G54D16*
D03*
X534320Y-954373D02*
G54D16*
D03*
X546515Y-954373D02*
G54D16*
D03*
X725358Y-1007214D02*
G54D15*
D03*
X725358Y-978757D02*
G54D15*
D03*
X806903Y-978510D02*
G54D11*
D03*
X867619Y-1005182D02*
G54D11*
D03*
X889971Y-986889D02*
G54D11*
D03*
X955008Y-978757D02*
G54D16*
D03*
X1188716Y-925924D02*
G54D11*
D03*
X1160267Y-948276D02*
G54D15*
D03*
X1162297Y-927957D02*
G54D11*
D03*
X1176526Y-952341D02*
G54D16*
D03*
X1178558Y-932015D02*
G54D11*
D03*
X1200910Y-925924D02*
G54D11*
D03*
X1164332Y-980791D02*
G54D16*
D03*
X1172461Y-970636D02*
G54D15*
D03*
X1182625Y-984855D02*
G54D11*
D03*
X1190756Y-974693D02*
G54D11*
D03*
X1528113Y-1521381D02*
G54D11*
D03*
X1526081Y-682047D02*
G54D16*
D03*
X1528113Y-962504D02*
G54D11*
D03*
X1544374Y-962504D02*
G54D11*
D03*
X1967086Y-1074278D02*
G54D11*
D03*
X2078859Y-1074278D02*
G54D11*
D03*
X2070728Y-1049891D02*
G54D11*
D03*
X2064637Y-1076310D02*
G54D11*
D03*
X2062604Y-1039729D02*
G54D15*
D03*
X2048376Y-1037695D02*
G54D11*
D03*
X2072768Y-970636D02*
G54D11*
D03*
X2058540Y-988920D02*
G54D15*
D03*
X2042279Y-997053D02*
G54D16*
D03*
X2058540Y-1003149D02*
G54D15*
D03*
X2810483Y-887312D02*
G54D25*
D03*
X2808464Y-907630D02*
G54D15*
D03*
X2690582Y-830405D02*
G54D15*
D03*
X2688550Y-909663D02*
G54D15*
D03*
X2123571Y-862919D02*
G54D16*
D03*
X2117472Y-899500D02*
G54D11*
D03*
X2111381Y-862919D02*
G54D11*
D03*
X2091056Y-810081D02*
G54D11*
D03*
X2103252Y-810081D02*
G54D11*
D03*
X1869536Y-820242D02*
G54D11*
D03*
X1869536Y-834471D02*
G54D11*
D03*
X1869536Y-846659D02*
G54D11*
D03*
X1857340Y-822275D02*
G54D11*
D03*
X1194813Y-901532D02*
G54D15*
D03*
X1207009Y-901532D02*
G54D15*
D03*
X1237492Y-897467D02*
G54D16*
D03*
X1196845Y-775532D02*
G54D11*
D03*
X1270014Y-785694D02*
G54D16*
D03*
X1148070Y-838535D02*
G54D15*
D03*
X885905Y-950309D02*
G54D11*
D03*
X885905Y-911696D02*
G54D11*
D03*
X631872Y-787729D02*
G54D15*
D03*
X460147Y-834464D02*
G54D10*
D03*
X438800Y-850723D02*
G54D11*
D03*
X318898Y-844634D02*
G54D11*
D03*
X345322Y-893403D02*
G54D16*
D03*
X324995Y-893403D02*
G54D15*
D03*
X320930Y-877148D02*
G54D16*
D03*
X353446Y-740985D02*
G54D11*
D03*
X337191Y-743017D02*
G54D16*
D03*
X967196Y-714560D02*
G54D11*
D03*
X1001750Y-736920D02*
G54D16*
D03*
X1030200Y-734885D02*
G54D11*
D03*
X1058655Y-751147D02*
G54D11*
D03*
X1440723Y-747083D02*
G54D15*
D03*
X1404145Y-736920D02*
G54D11*
D03*
X1440723Y-720658D02*
G54D15*
D03*
X1465109Y-682047D02*
G54D11*
D03*
X1678499Y-1064114D02*
G54D11*
D03*
X1678499Y-769433D02*
G54D11*
D03*
X1678499Y-757237D02*
G54D11*
D03*
X1678499Y-793826D02*
G54D11*
D03*
X1678499Y-781629D02*
G54D11*
D03*
X1676472Y-828371D02*
G54D11*
D03*
X1678499Y-745049D02*
G54D11*
D03*
X1863438Y-539783D02*
G54D15*
D03*
X1861404Y-745049D02*
G54D11*
D03*
X1861404Y-720658D02*
G54D11*
D03*
X1861404Y-704403D02*
G54D11*
D03*
X2050410Y-696274D02*
G54D15*
D03*
X2050410Y-682047D02*
G54D15*
D03*
X2302412Y-663751D02*
G54D15*
D03*
X2290224Y-663751D02*
G54D11*
D03*
X2278028Y-663751D02*
G54D11*
D03*
X2550355Y-657661D02*
G54D11*
D03*
X2544258Y-491015D02*
G54D16*
D03*
X2546290Y-474754D02*
G54D11*
D03*
X2546290Y-503204D02*
G54D11*
D03*
X2546290Y-523528D02*
G54D11*
D03*
X2550355Y-543850D02*
G54D11*
D03*
X2615386Y-765369D02*
G54D25*
D03*
X2617418Y-704403D02*
G54D25*
D03*
X2735286Y-722690D02*
G54D15*
D03*
X2735286Y-738952D02*
G54D15*
D03*
X2743427Y-730821D02*
G54D25*
D03*
X2743427Y-714560D02*
G54D25*
D03*
X2735286Y-690176D02*
G54D15*
D03*
X2735286Y-706437D02*
G54D15*
D03*
X2599130Y-501170D02*
G54D25*
D03*
X2613354Y-549948D02*
G54D25*
D03*
X2560511Y-663751D02*
G54D11*
D03*
X2560511Y-503204D02*
G54D11*
D03*
X2560511Y-527596D02*
G54D11*
D03*
X2507677Y-588560D02*
G54D11*
D03*
X2528810Y-567022D02*
G54D16*
D03*
X2263799Y-549948D02*
G54D16*
D03*
X2265831Y-566208D02*
G54D11*
D03*
X2278028Y-590592D02*
G54D11*
D03*
X2278028Y-570272D02*
G54D11*
D03*
X2278028Y-545880D02*
G54D11*
D03*
X2304444Y-570272D02*
G54D11*
D03*
X2304444Y-590592D02*
G54D11*
D03*
X2292889Y-542458D02*
G54D16*
D03*
X2290224Y-590592D02*
G54D11*
D03*
X2290224Y-570272D02*
G54D11*
D03*
X2190638Y-495075D02*
G54D15*
D03*
X2135765Y-495075D02*
G54D16*
D03*
X2135765Y-507270D02*
G54D16*
D03*
X2135765Y-519464D02*
G54D16*
D03*
X2182509Y-511334D02*
G54D16*
D03*
X2178443Y-491015D02*
G54D15*
D03*
X2170313Y-523528D02*
G54D16*
D03*
X2170313Y-511334D02*
G54D16*
D03*
X2086989Y-566208D02*
G54D11*
D03*
X2084956Y-509302D02*
G54D15*
D03*
X2013830Y-539783D02*
G54D11*
D03*
X2021960Y-523528D02*
G54D11*
D03*
X2019927Y-511334D02*
G54D16*
D03*
X2072768Y-495075D02*
G54D11*
D03*
X2072768Y-549948D02*
G54D11*
D03*
X1796375Y-590592D02*
G54D11*
D03*
X1796375Y-604821D02*
G54D11*
D03*
X1790781Y-443763D02*
G54D10*
D03*
X1790781Y-418352D02*
G54D10*
D03*
X1641917Y-1200277D02*
G54D15*
D03*
X1641917Y-962504D02*
G54D15*
D03*
X1638362Y-593133D02*
G54D16*
D03*
X1404145Y-462559D02*
G54D11*
D03*
X1398047Y-488975D02*
G54D16*
D03*
X1446822Y-459514D02*
G54D10*
D03*
X1446822Y-476787D02*
G54D11*
D03*
X1420400Y-476787D02*
G54D16*
D03*
X1408209Y-570272D02*
G54D11*
D03*
X1333011Y-572306D02*
G54D11*
D03*
X1328944Y-545880D02*
G54D11*
D03*
X298578Y-584495D02*
G54D16*
D03*
X320930Y-598722D02*
G54D16*
D03*
X520098Y-436143D02*
G54D15*
D03*
X448963Y-419882D02*
G54D15*
D03*
X721292Y-377712D02*
G54D16*
D03*
X1160778Y-398033D02*
G54D14*
D03*
X1056616Y-407684D02*
G54D11*
D03*
X1127751Y-403118D02*
G54D11*
D03*
X1422431Y-409717D02*
G54D11*
D03*
X1446822Y-408705D02*
G54D10*
D03*
X1313195Y-398033D02*
G54D13*
D03*
X1483402Y-513367D02*
G54D16*
D03*
X1483402Y-484918D02*
G54D16*
D03*
X1485435Y-391432D02*
G54D11*
D03*
X1484670Y-316742D02*
G54D42*
D03*
X1484670Y-278638D02*
G54D42*
D03*
X1484670Y-240534D02*
G54D42*
D03*
X1485937Y-113510D02*
G54D40*
D03*
X1737437Y-417848D02*
G54D11*
D03*
X2091056Y-464590D02*
G54D11*
D03*
X2091056Y-452396D02*
G54D11*
D03*
X2208926Y-452396D02*
G54D15*
D03*
X2198770Y-444273D02*
G54D15*
D03*
X2314608Y-517431D02*
G54D15*
D03*
X2314608Y-486950D02*
G54D15*
D03*
X2314608Y-472723D02*
G54D15*
D03*
X2314608Y-405652D02*
G54D15*
D03*
X2316640Y-425980D02*
G54D11*
D03*
X2530028Y-438174D02*
G54D11*
D03*
X2532061Y-474754D02*
G54D16*
D03*
X2530028Y-417848D02*
G54D11*
D03*
X2530028Y-405652D02*
G54D11*
D03*
X2513768Y-377203D02*
G54D11*
D03*
X2530028Y-393464D02*
G54D11*
D03*
X2617418Y-462559D02*
G54D25*
D03*
X2617418Y-450364D02*
G54D25*
D03*
X2617418Y-486950D02*
G54D25*
D03*
X2617418Y-474754D02*
G54D25*
D03*
X2617418Y-438174D02*
G54D25*
D03*
X2615386Y-395496D02*
G54D25*
D03*
X2615386Y-407684D02*
G54D25*
D03*
X2615386Y-419882D02*
G54D25*
D03*
X2635706Y-393464D02*
G54D25*
D03*
X2629622Y-418868D02*
G54D15*
D03*
X2633686Y-405652D02*
G54D15*
D03*
X2649930Y-411749D02*
G54D25*
D03*
X2680422Y-362975D02*
G54D15*
D03*
X2664166Y-367042D02*
G54D15*
D03*
X2676358Y-375171D02*
G54D15*
D03*
X2440608Y-214622D02*
G54D11*
D03*
X2444673Y-194296D02*
G54D11*
D03*
X2460935Y-202428D02*
G54D11*
D03*
X2460935Y-214622D02*
G54D11*
D03*
X2477188Y-214622D02*
G54D15*
D03*
X2483285Y-194296D02*
G54D11*
D03*
X2229251Y-206492D02*
G54D16*
D03*
X2235348Y-258319D02*
G54D10*
D03*
X2237382Y-196328D02*
G54D15*
D03*
X2247545Y-206492D02*
G54D11*
D03*
X2091056Y-188199D02*
G54D11*
D03*
X2103252Y-222753D02*
G54D11*
D03*
X2111381Y-188199D02*
G54D11*
D03*
X2118492Y-199884D02*
G54D11*
D03*
X2137800Y-192264D02*
G54D11*
D03*
X2131700Y-202428D02*
G54D15*
D03*
X2007731Y-222753D02*
G54D16*
D03*
X2017895Y-202428D02*
G54D11*
D03*
X1999602Y-196328D02*
G54D15*
D03*
X1973185Y-208523D02*
G54D16*
D03*
X1967086Y-196328D02*
G54D11*
D03*
X1944728Y-224777D02*
G54D15*
D03*
X1948793Y-210557D02*
G54D16*
D03*
X1948793Y-196328D02*
G54D16*
D03*
X1910179Y-214622D02*
G54D15*
D03*
X1914245Y-302010D02*
G54D16*
D03*
X1918312Y-226811D02*
G54D15*
D03*
X1922376Y-293881D02*
G54D15*
D03*
X1926441Y-214622D02*
G54D16*
D03*
X1934572Y-228844D02*
G54D16*
D03*
X1544374Y-720658D02*
G54D11*
D03*
X1546399Y-584495D02*
G54D11*
D03*
X1542335Y-265430D02*
G54D11*
D03*
X1542335Y-279652D02*
G54D11*
D03*
X812745Y-199884D02*
G54D11*
D03*
X864829Y-113770D02*
G54D37*
D03*
X901658Y-204969D02*
G54D11*
D03*
X310767Y-218686D02*
G54D11*
D03*
X297049Y-258313D02*
G54D16*
D03*
X351419Y-289814D02*
G54D11*
D03*
X340237Y-240529D02*
G54D16*
D03*
X215759Y-258313D02*
G54D16*
D03*
X235575Y-152128D02*
G54D16*
D03*
X430677Y-151619D02*
G54D16*
D03*
X637460Y-408196D02*
G54D11*
D03*
X594271Y-395496D02*
G54D11*
D03*
X679379Y-389143D02*
G54D11*
D03*
X716214Y-395496D02*
G54D11*
D03*
X1550465Y-1348638D02*
G54D11*
D03*
X1576888Y-1336443D02*
G54D16*
D03*
X1621598Y-1125084D02*
G54D11*
D03*
X1621598Y-1108829D02*
G54D11*
D03*
X1609403Y-1133216D02*
G54D11*
D03*
X1609403Y-1116954D02*
G54D11*
D03*
X1576888Y-1267347D02*
G54D16*
D03*
X1576888Y-1210441D02*
G54D16*
D03*
X1117588Y-1193168D02*
G54D16*
D03*
X1097268Y-1177925D02*
G54D11*
D03*
X1046459Y-1177925D02*
G54D11*
D03*
X1706955Y-1003149D02*
G54D11*
D03*
X1708988Y-1055991D02*
G54D15*
D03*
X1404145Y-832437D02*
G54D11*
D03*
X1454951Y-832437D02*
G54D11*
D03*
X1442757Y-832437D02*
G54D11*
D03*
X820366Y-690176D02*
G54D11*
D03*
X1093203Y-688142D02*
G54D11*
D03*
X1296430Y-690176D02*
G54D16*
D03*
X820366Y-662229D02*
G54D11*
D03*
X858468Y-657151D02*
G54D11*
D03*
X1032233Y-673914D02*
G54D15*
D03*
X1296430Y-702371D02*
G54D16*
D03*
X1117588Y-671883D02*
G54D16*
D03*
X1087106Y-625140D02*
G54D16*
D03*
X1095236Y-617016D02*
G54D16*
D03*
X1122667Y-619049D02*
G54D11*
D03*
X1173473Y-644446D02*
G54D11*
D03*
X1294398Y-643433D02*
G54D11*
D03*
X1690694Y-696274D02*
G54D11*
D03*
X1690694Y-680013D02*
G54D11*
D03*
X1452913Y-604821D02*
G54D11*
D03*
X1445293Y-586017D02*
G54D11*
D03*
X1440723Y-604821D02*
G54D15*
D03*
X1068811Y-1287673D02*
G54D11*
D03*
X1087106Y-1287673D02*
G54D16*
D03*
X885905Y-1224669D02*
G54D11*
D03*
X1261876Y-997052D02*
G54D10*
D03*
X1236479Y-997052D02*
G54D10*
D03*
X1312683Y-997052D02*
G54D10*
D03*
X1731340Y-1281575D02*
G54D15*
D03*
X1211076Y-761304D02*
G54D16*
D03*
X1225302Y-761304D02*
G54D11*
D03*
X1249686Y-714560D02*
G54D16*
D03*
X1296430Y-714560D02*
G54D16*
D03*
X1322855Y-726755D02*
G54D11*
D03*
X1322855Y-738952D02*
G54D11*
D03*
X1322855Y-751147D02*
G54D11*
D03*
X270983Y-1490389D02*
G54D10*
D03*
X290978Y-1490389D02*
G54D10*
D03*
X272155Y-1525447D02*
G54D11*
D03*
X310973Y-1490389D02*
G54D10*
D03*
X330969Y-1490389D02*
G54D10*
D03*
X327027Y-1525447D02*
G54D11*
D03*
X310975Y-1508986D02*
G54D11*
D03*
X310767Y-1474638D02*
G54D11*
D03*
X469290Y-1190121D02*
G54D15*
D03*
X499773Y-1196213D02*
G54D16*
D03*
X725358Y-1033631D02*
G54D15*
D03*
X809824Y-1040619D02*
G54D11*
D03*
X812745Y-1060055D02*
G54D11*
D03*
X522131Y-249170D02*
G54D11*
D03*
X522131Y-214622D02*
G54D11*
D03*
X604435Y-243072D02*
G54D16*
D03*
X610020Y-186422D02*
G54D30*
D03*
X592238Y-186422D02*
G54D14*
D03*
X1107426Y-1358979D02*
G54D11*
D03*
X1066779Y-1328311D02*
G54D15*
D03*
X1202942Y-958439D02*
G54D16*
D03*
X619675Y-1458384D02*
G54D16*
D03*
X824940Y-1157600D02*
G54D11*
D03*
X790393Y-1157600D02*
G54D11*
D03*
X1333011Y-680013D02*
G54D11*
D03*
X1121652Y-771467D02*
G54D16*
D03*
X1292366Y-769433D02*
G54D16*
D03*
X1322855Y-771467D02*
G54D11*
D03*
X727644Y-561887D02*
G54D15*
D03*
X745428Y-508537D02*
G54D11*
D03*
X947387Y-494570D02*
G54D15*
D03*
X947385Y-469420D02*
G54D14*
D03*
X921983Y-469420D02*
G54D30*
D03*
X896578Y-469420D02*
G54D14*
D03*
X1522015Y-440207D02*
G54D15*
D03*
X1538276Y-440207D02*
G54D16*
D03*
X1511851Y-391432D02*
G54D11*
D03*
X2278028Y-480852D02*
G54D11*
D03*
X2278028Y-450364D02*
G54D11*
D03*
X1790278Y-1395381D02*
G54D15*
D03*
X1792310Y-1265314D02*
G54D11*
D03*
X2727158Y-806014D02*
G54D15*
D03*
X1942695Y-940145D02*
G54D11*
D03*
X1940670Y-828371D02*
G54D11*
D03*
X1940670Y-852757D02*
G54D11*
D03*
X1936604Y-812112D02*
G54D11*
D03*
X1936604Y-795851D02*
G54D11*
D03*
X1186181Y-631748D02*
G54D11*
D03*
X947387Y-580939D02*
G54D15*
D03*
X1022069Y-582461D02*
G54D11*
D03*
X1314723Y-324362D02*
G54D11*
D03*
X1436403Y-316742D02*
G54D21*
D03*
X703509Y-133835D02*
G54D11*
D03*
X748977Y-225034D02*
G54D37*
D03*
X355478Y-391432D02*
G54D15*
D03*
X1223270Y-1462448D02*
G54D16*
D03*
X859488Y-1468539D02*
G54D11*
D03*
X585129Y-1444156D02*
G54D15*
D03*
X581573Y-1399957D02*
G54D15*
D03*
X898101Y-1368963D02*
G54D11*
D03*
X910296Y-1354736D02*
G54D11*
D03*
X2777971Y-1023469D02*
G54D25*
D03*
X2782035Y-779596D02*
G54D25*
D03*
X2775939Y-816176D02*
G54D25*
D03*
X967858Y-652224D02*
G54D11*
D03*
X1018005Y-647498D02*
G54D11*
D03*
X1648017Y-521498D02*
G54D11*
D03*
X975325Y-1433993D02*
G54D11*
D03*
X965169Y-1494965D02*
G54D11*
D03*
X272155Y-1253118D02*
G54D11*
D03*
X2040247Y-669850D02*
G54D11*
D03*
X2341029Y-706437D02*
G54D11*
D03*
X2355025Y-669621D02*
G54D15*
D03*
X2355253Y-682047D02*
G54D11*
D03*
X1981315Y-395496D02*
G54D16*
D03*
X2026024Y-395496D02*
G54D11*
D03*
X2660102Y-379236D02*
G54D15*
D03*
X2320705Y-714560D02*
G54D11*
D03*
X2328836Y-706437D02*
G54D11*
D03*
X2566609Y-690176D02*
G54D16*
D03*
X2570673Y-570272D02*
G54D16*
D03*
X2564578Y-547914D02*
G54D16*
D03*
X2603194Y-247137D02*
G54D25*
D03*
X2613354Y-253234D02*
G54D25*
D03*
X2558487Y-344690D02*
G54D11*
D03*
X2562550Y-210557D02*
G54D11*
D03*
X2558487Y-259332D02*
G54D11*
D03*
X2245512Y-1427894D02*
G54D15*
D03*
X2300379Y-1291731D02*
G54D11*
D03*
X2255670Y-795851D02*
G54D15*
D03*
X2255670Y-779596D02*
G54D15*
D03*
X2296312Y-968601D02*
G54D11*
D03*
X2296312Y-1017370D02*
G54D11*
D03*
X2297334Y-1140327D02*
G54D11*
D03*
X2297334Y-1124072D02*
G54D11*
D03*
X2296312Y-1076310D02*
G54D11*
D03*
X2195206Y-1001117D02*
G54D11*
D03*
X2208926Y-970636D02*
G54D15*
D03*
X2198770Y-862919D02*
G54D15*
D03*
X2141864Y-1129151D02*
G54D11*
D03*
X295526Y-999084D02*
G54D10*
D03*
X380882Y-517431D02*
G54D10*
D03*
X426358Y-517431D02*
G54D10*
D03*
X353443Y-506514D02*
G54D43*
D03*
X324995Y-506514D02*
G54D44*
D03*
X296544Y-506514D02*
G54D43*
D03*
X241672Y-506514D02*
G54D43*
D03*
X268088Y-506514D02*
G54D43*
D03*
X503836Y-419114D02*
G54D44*
D03*
X942301Y-599488D02*
G54D45*
D03*
X477420Y-782398D02*
G54D44*
D03*
X300603Y-879939D02*
G54D46*
D03*
X339221Y-869774D02*
G54D43*
D03*
X586650Y-674171D02*
G54D47*
D03*
X438807Y-1099428D02*
G54D44*
D03*
X469287Y-1099428D02*
G54D44*
D03*
X312800Y-1133977D02*
G54D44*
D03*
X343288Y-1133977D02*
G54D43*
D03*
X241672Y-303278D02*
G54D43*
D03*
X241672Y-337316D02*
G54D48*
D03*
X485040Y-597956D02*
G54D44*
D03*
X459635Y-597956D02*
G54D43*
D03*
X1551987Y-487710D02*
G54D46*
D03*
X1551987Y-521754D02*
G54D44*
D03*
X2643834Y-787730D02*
G54D49*
D03*
X2613354Y-787730D02*
G54D49*
D03*
X1562150Y-624882D02*
G54D43*
D03*
X1562150Y-658931D02*
G54D50*
D03*
X1558594Y-703638D02*
G54D43*
D03*
X802581Y-687379D02*
G54D44*
D03*
X802581Y-721423D02*
G54D46*
D03*
X800046Y-628446D02*
G54D51*
D03*
X520600Y-645210D02*
G54D48*
D03*
X1656145Y-745810D02*
G54D52*
D03*
X343288Y-1099936D02*
G54D43*
D03*
X239638Y-843866D02*
G54D44*
D03*
X857455Y-1114165D02*
G54D46*
D03*
X857455Y-1148201D02*
G54D51*
D03*
X1511858Y-1312816D02*
G54D45*
D03*
X1341140Y-1062850D02*
G54D53*
D03*
X1312692Y-1062850D02*
G54D51*
D03*
X873716Y-1485569D02*
G54D44*
D03*
X873716Y-1451523D02*
G54D46*
D03*
X873716Y-1331107D02*
G54D46*
D03*
X873716Y-1297066D02*
G54D44*
D03*
X780229Y-1382420D02*
G54D44*
D03*
X747706Y-1382420D02*
G54D44*
D03*
X475388Y-1297066D02*
G54D48*
D03*
X383933Y-1419011D02*
G54D44*
D03*
X351411Y-1419011D02*
G54D44*
D03*
X320928Y-1419011D02*
G54D44*
D03*
X2241445Y-1239654D02*
G54D44*
D03*
X546005Y-333763D02*
G54D44*
D03*
X340235Y-571540D02*
G54D44*
D03*
X339221Y-766642D02*
G54D43*
D03*
X339221Y-721423D02*
G54D50*
D03*
X339221Y-687379D02*
G54D43*
D03*
X339221Y-800684D02*
G54D43*
D03*
X339221Y-835738D02*
G54D43*
D03*
X477420Y-681288D02*
G54D44*
D03*
X450996Y-681288D02*
G54D48*
D03*
G54D54*
X2790430Y-1463715D02*
X2772625Y-1463715D01*
X2772625Y-1445928D01*
X2790430Y-1445928D01*
X2790430Y-1463715D01*
X2613354Y-821768D02*
G54D49*
D03*
X2643834Y-821768D02*
G54D49*
D03*
X2164221Y-1056748D02*
G54D44*
D03*
X2164221Y-1130421D02*
G54D44*
D03*
X2164221Y-1164462D02*
G54D46*
D03*
X2048374Y-548682D02*
G54D43*
D03*
X1772998Y-629206D02*
G54D55*
D03*
X1772998Y-595170D02*
G54D56*
D03*
X1682561Y-557568D02*
G54D48*
D03*
X1743534Y-1227462D02*
G54D44*
D03*
X1534207Y-1501820D02*
G54D46*
D03*
X1534207Y-1467784D02*
G54D46*
D03*
X1499663Y-1467784D02*
G54D46*
D03*
X1499663Y-1501820D02*
G54D46*
D03*
X1534207Y-1404279D02*
G54D44*
D03*
X1499663Y-1404279D02*
G54D44*
D03*
X1499663Y-1370233D02*
G54D46*
D03*
X1534207Y-1370233D02*
G54D46*
D03*
X1511858Y-1278778D02*
G54D45*
D03*
X1430560Y-1404279D02*
G54D43*
D03*
X1430560Y-1370233D02*
G54D50*
D03*
X1389915Y-1090030D02*
G54D44*
D03*
X1389915Y-1055992D02*
G54D44*
D03*
X1256799Y-224784D02*
G54D20*
D03*
X1281947Y-199885D02*
G54D20*
D03*
X1379752Y-603554D02*
G54D43*
D03*
X1284233Y-1028804D02*
G54D44*
D03*
X1284233Y-1062850D02*
G54D51*
D03*
X1226824Y-497870D02*
G54D44*
D03*
X1226824Y-531908D02*
G54D44*
D03*
X1196845Y-334525D02*
G54D50*
D03*
X1196845Y-300481D02*
G54D43*
D03*
X1207007Y-224784D02*
G54D20*
D03*
X1181861Y-199885D02*
G54D20*
D03*
X1150109Y-681537D02*
G54D45*
D03*
X1150109Y-647499D02*
G54D45*
D03*
X1150101Y-747842D02*
G54D50*
D03*
X1150101Y-713803D02*
G54D50*
D03*
X1125717Y-276351D02*
G54D45*
D03*
X1125717Y-242315D02*
G54D45*
D03*
X1123685Y-207256D02*
G54D43*
D03*
X1123685Y-173215D02*
G54D57*
D03*
X942301Y-731586D02*
G54D45*
D03*
X763211Y-491520D02*
G54D44*
D03*
X791151Y-491520D02*
G54D43*
D03*
X698938Y-345955D02*
G54D44*
D03*
X698938Y-379994D02*
G54D44*
D03*
X695888Y-260090D02*
G54D48*
D03*
X609518Y-563920D02*
G54D44*
D03*
X609518Y-597956D02*
G54D44*
D03*
X556168Y-750384D02*
G54D48*
D03*
X469033Y-152130D02*
G54D58*
D03*
X546005Y-233674D02*
G54D44*
D03*
X431433Y-112239D02*
G54D59*
D03*
X340235Y-605578D02*
G54D44*
D03*
X239638Y-949040D02*
G54D44*
D03*
X239638Y-877907D02*
G54D44*
D03*
X239638Y-914999D02*
G54D46*
D03*
X239640Y-1026776D02*
G54D45*
D03*
X239638Y-1133977D02*
G54D44*
D03*
X239638Y-1099936D02*
G54D44*
D03*
X237606Y-1173098D02*
G54D43*
D03*
X237606Y-1207142D02*
G54D57*
D03*
X241672Y-439445D02*
G54D43*
D03*
X241672Y-404383D02*
G54D43*
D03*
X241672Y-473481D02*
G54D43*
D03*
X268088Y-370347D02*
G54D43*
D03*
X383933Y-360187D02*
G54D51*
D03*
X296544Y-370347D02*
G54D43*
D03*
X241672Y-370347D02*
G54D43*
D03*
X554644Y-423179D02*
G54D44*
D03*
X622218Y-338846D02*
G54D48*
D03*
X622218Y-304802D02*
G54D47*
D03*
X622218Y-267710D02*
G54D48*
D03*
X622218Y-233674D02*
G54D48*
D03*
X1521505Y-233674D02*
G54D44*
D03*
X1521505Y-267710D02*
G54D44*
D03*
G54D54*
X2782810Y-269742D02*
X2800590Y-269742D01*
X2800590Y-251967D01*
X2782810Y-251967D01*
X2782810Y-269742D01*
X840691Y-198107D02*
G54D43*
D03*
X876253Y-203192D02*
G54D44*
D03*
X825197Y-293882D02*
G54D14*
D03*
X850602Y-293882D02*
G54D30*
D03*
X393841Y-152130D02*
G54D60*
D03*
X774384Y-293882D02*
G54D14*
D03*
X799789Y-293882D02*
G54D30*
D03*
X1074401Y-497870D02*
G54D44*
D03*
X1074401Y-531908D02*
G54D44*
D03*
X2003668Y-386603D02*
G54D51*
D03*
X855933Y-567476D02*
G54D48*
D03*
X855933Y-533438D02*
G54D48*
D03*
X2566606Y-476277D02*
G54D45*
D03*
X2598622Y-476023D02*
G54D61*
D03*
X586650Y-640128D02*
G54D48*
D03*
X581570Y-563920D02*
G54D44*
D03*
X581570Y-597956D02*
G54D44*
D03*
X556168Y-716346D02*
G54D48*
D03*
X2588970Y-612444D02*
G54D62*
D03*
X1906114Y-638611D02*
G54D44*
D03*
X530763Y-531908D02*
G54D44*
D03*
X942301Y-665535D02*
G54D45*
D03*
X942301Y-699576D02*
G54D45*
D03*
X942301Y-633526D02*
G54D45*
D03*
X1906114Y-672647D02*
G54D44*
D03*
X1353334Y-603554D02*
G54D43*
D03*
X1934572Y-672647D02*
G54D44*
D03*
X2113411Y-683315D02*
G54D44*
D03*
X2113411Y-717359D02*
G54D46*
D03*
X241672Y-741743D02*
G54D43*
D03*
X241672Y-707707D02*
G54D43*
D03*
X241672Y-674679D02*
G54D50*
D03*
X241672Y-808814D02*
G54D43*
D03*
X241672Y-774776D02*
G54D48*
D03*
X536351Y-834473D02*
G54D63*
D03*
X404253Y-908390D02*
G54D48*
D03*
X404253Y-874351D02*
G54D48*
D03*
X2273962Y-1024234D02*
G54D64*
D03*
X2243477Y-1056748D02*
G54D43*
D03*
X2243477Y-1022712D02*
G54D43*
D03*
X2241445Y-1205618D02*
G54D44*
D03*
X259966Y-1419011D02*
G54D44*
D03*
X259966Y-1453047D02*
G54D44*
D03*
X259966Y-1337718D02*
G54D44*
D03*
X259966Y-1371754D02*
G54D44*
D03*
X229475Y-1453047D02*
G54D43*
D03*
X229475Y-1419011D02*
G54D43*
D03*
G54D54*
X153519Y-1445928D02*
X153519Y-1463715D01*
X135742Y-1463715D01*
X135742Y-1445928D01*
X153519Y-1445928D01*
X290448Y-1337718D02*
G54D44*
D03*
X520600Y-745299D02*
G54D48*
D03*
X520600Y-711260D02*
G54D48*
D03*
X520600Y-679246D02*
G54D48*
D03*
X2682455Y-308866D02*
G54D50*
D03*
X2682455Y-274822D02*
G54D43*
D03*
X2003668Y-420649D02*
G54D44*
D03*
X2048374Y-514634D02*
G54D57*
D03*
X2259733Y-491009D02*
G54D45*
D03*
X2259733Y-456971D02*
G54D45*
D03*
X2385742Y-688911D02*
G54D44*
D03*
X2416222Y-688911D02*
G54D44*
D03*
X1448853Y-808814D02*
G54D44*
D03*
X1043916Y-531908D02*
G54D44*
D03*
X1043916Y-497870D02*
G54D44*
D03*
X1125209Y-531908D02*
G54D44*
D03*
X1099804Y-531908D02*
G54D48*
D03*
X1501185Y-487710D02*
G54D47*
D03*
X1526587Y-487710D02*
G54D46*
D03*
X1459011Y-737679D02*
G54D44*
D03*
X1448853Y-774776D02*
G54D44*
D03*
X1459011Y-703638D02*
G54D44*
D03*
X1450880Y-626414D02*
G54D44*
D03*
X1450880Y-660450D02*
G54D44*
D03*
X1379752Y-569510D02*
G54D57*
D03*
X1353334Y-569510D02*
G54D57*
D03*
X1462922Y-585233D02*
G54D51*
D03*
X1426504Y-562902D02*
G54D45*
D03*
X1477304Y-774776D02*
G54D43*
D03*
X1477304Y-808814D02*
G54D43*
D03*
X1481368Y-660450D02*
G54D43*
D03*
X1481368Y-626414D02*
G54D43*
D03*
X1487469Y-703638D02*
G54D44*
D03*
X1487469Y-737679D02*
G54D44*
D03*
X1577398Y-487710D02*
G54D46*
D03*
X1526587Y-521754D02*
G54D44*
D03*
X1501185Y-521754D02*
G54D48*
D03*
X1272039Y-644199D02*
G54D55*
D03*
X1274076Y-679246D02*
G54D44*
D03*
X1274076Y-713295D02*
G54D46*
D03*
X1272039Y-610153D02*
G54D45*
D03*
X1137914Y-1213238D02*
G54D45*
D03*
X1137914Y-1179194D02*
G54D55*
D03*
X450996Y-715327D02*
G54D48*
D03*
X477420Y-715327D02*
G54D44*
D03*
X477420Y-748350D02*
G54D46*
D03*
X241672Y-607618D02*
G54D43*
D03*
X268088Y-607618D02*
G54D43*
D03*
X268088Y-640638D02*
G54D43*
D03*
X241672Y-640638D02*
G54D43*
D03*
X241672Y-573574D02*
G54D53*
D03*
X268088Y-573574D02*
G54D57*
D03*
X241672Y-540550D02*
G54D43*
D03*
X268088Y-540550D02*
G54D43*
D03*
X300603Y-774776D02*
G54D44*
D03*
X300603Y-808814D02*
G54D44*
D03*
X300603Y-845903D02*
G54D46*
D03*
X300603Y-707707D02*
G54D44*
D03*
X300603Y-741743D02*
G54D44*
D03*
X942301Y-765626D02*
G54D45*
D03*
X546005Y-299722D02*
G54D44*
D03*
X546005Y-267710D02*
G54D44*
D03*
X581573Y-272795D02*
G54D45*
D03*
X581573Y-238752D02*
G54D55*
D03*
X418482Y-394222D02*
G54D46*
D03*
X418482Y-360187D02*
G54D51*
D03*
X359541Y-463323D02*
G54D45*
D03*
X359541Y-429280D02*
G54D55*
D03*
X383933Y-394222D02*
G54D46*
D03*
X1099804Y-497870D02*
G54D48*
D03*
X1125209Y-497870D02*
G54D44*
D03*
X1099298Y-459259D02*
G54D45*
D03*
X1099298Y-425213D02*
G54D56*
D03*
X1165852Y-531908D02*
G54D43*
D03*
X1165852Y-497870D02*
G54D43*
D03*
X1186682Y-694999D02*
G54D45*
D03*
X1186682Y-660963D02*
G54D45*
D03*
X1196342Y-503968D02*
G54D51*
D03*
X1196342Y-469925D02*
G54D44*
D03*
X1638363Y-658931D02*
G54D46*
D03*
X1638363Y-624882D02*
G54D44*
D03*
X1682561Y-523532D02*
G54D48*
D03*
X1577398Y-521754D02*
G54D44*
D03*
X1587552Y-624882D02*
G54D44*
D03*
X1587552Y-658931D02*
G54D46*
D03*
X1612960Y-624882D02*
G54D43*
D03*
X1612960Y-658931D02*
G54D50*
D03*
X1511347Y-624882D02*
G54D44*
D03*
X1511347Y-658931D02*
G54D46*
D03*
X1530143Y-703638D02*
G54D44*
D03*
X1536745Y-624882D02*
G54D44*
D03*
X1536745Y-658931D02*
G54D46*
D03*
X1558594Y-814910D02*
G54D50*
D03*
X1530143Y-814910D02*
G54D46*
D03*
X1530143Y-780866D02*
G54D44*
D03*
X1558594Y-780866D02*
G54D43*
D03*
X1174492Y-1062850D02*
G54D57*
D03*
X1174492Y-1028804D02*
G54D43*
D03*
X1081005Y-1471340D02*
G54D50*
D03*
X1081005Y-1437294D02*
G54D43*
D03*
X579030Y-1065390D02*
G54D48*
D03*
X607486Y-1065390D02*
G54D48*
D03*
X597321Y-1007980D02*
G54D44*
D03*
X597321Y-973937D02*
G54D46*
D03*
X757872Y-1003914D02*
G54D48*
D03*
X757872Y-969868D02*
G54D53*
D03*
X1064747Y-1055224D02*
G54D50*
D03*
X1064747Y-1089273D02*
G54D43*
D03*
X1656145Y-711771D02*
G54D52*
D03*
X2225186Y-786462D02*
G54D44*
D03*
X2225186Y-752416D02*
G54D46*
D03*
X2225186Y-717359D02*
G54D46*
D03*
X2225186Y-683315D02*
G54D44*
D03*
X2026015Y-717862D02*
G54D44*
D03*
X2026015Y-751906D02*
G54D46*
D03*
X2054476Y-751906D02*
G54D46*
D03*
X2054476Y-717862D02*
G54D44*
D03*
X2265829Y-683315D02*
G54D43*
D03*
X2265829Y-717359D02*
G54D50*
D03*
X2164221Y-1022712D02*
G54D44*
D03*
X2103244Y-1110099D02*
G54D55*
D03*
X2103244Y-1144137D02*
G54D56*
D03*
X2107308Y-1046591D02*
G54D45*
D03*
X2107308Y-1012550D02*
G54D56*
D03*
X1993508Y-685355D02*
G54D45*
D03*
X1993508Y-719391D02*
G54D45*
D03*
X635934Y-1099428D02*
G54D44*
D03*
X635934Y-1065390D02*
G54D44*
D03*
X239640Y-1060812D02*
G54D45*
D03*
X448962Y-1209684D02*
G54D44*
D03*
X479444Y-1209684D02*
G54D44*
D03*
X440582Y-1136771D02*
G54D44*
D03*
X440582Y-1170807D02*
G54D44*
D03*
X469287Y-1136517D02*
G54D46*
D03*
X469287Y-1170561D02*
G54D44*
D03*
X599348Y-1382428D02*
G54D64*
D03*
X597321Y-1331107D02*
G54D46*
D03*
X599348Y-1416466D02*
G54D65*
D03*
X627806Y-1331107D02*
G54D46*
D03*
X629838Y-1416466D02*
G54D53*
D03*
X629838Y-1382420D02*
G54D48*
D03*
X812746Y-1382420D02*
G54D48*
D03*
X812746Y-1416466D02*
G54D53*
D03*
X812746Y-1451523D02*
G54D47*
D03*
X812746Y-1485569D02*
G54D48*
D03*
X843226Y-1485569D02*
G54D43*
D03*
X843226Y-1451523D02*
G54D50*
D03*
X843226Y-1331107D02*
G54D50*
D03*
X843226Y-1297066D02*
G54D43*
D03*
X780229Y-1416466D02*
G54D51*
D03*
X747706Y-1416466D02*
G54D51*
D03*
X747706Y-1451523D02*
G54D46*
D03*
X747706Y-1485569D02*
G54D44*
D03*
X320928Y-1453047D02*
G54D44*
D03*
X383933Y-1453047D02*
G54D44*
D03*
X351411Y-1453047D02*
G54D44*
D03*
X365640Y-1371754D02*
G54D43*
D03*
X320928Y-1371754D02*
G54D44*
D03*
X365640Y-1337718D02*
G54D43*
D03*
X320928Y-1337718D02*
G54D44*
D03*
X357509Y-1294531D02*
G54D43*
D03*
X310766Y-1294531D02*
G54D43*
D03*
X357509Y-1260490D02*
G54D43*
D03*
X310766Y-1260490D02*
G54D43*
D03*
X597321Y-1207645D02*
G54D44*
D03*
X597321Y-1241688D02*
G54D46*
D03*
X597321Y-1297066D02*
G54D44*
D03*
X627806Y-1207645D02*
G54D44*
D03*
X627806Y-1297066D02*
G54D44*
D03*
X627806Y-1241688D02*
G54D46*
D03*
X686744Y-1331107D02*
G54D46*
D03*
X717226Y-1331107D02*
G54D46*
D03*
X717226Y-1297066D02*
G54D44*
D03*
X686744Y-1297066D02*
G54D44*
D03*
X656259Y-1297066D02*
G54D44*
D03*
X656259Y-1331107D02*
G54D46*
D03*
X672518Y-1150233D02*
G54D48*
D03*
X672518Y-1116197D02*
G54D48*
D03*
X469287Y-1065390D02*
G54D44*
D03*
X312800Y-1099936D02*
G54D44*
D03*
X503836Y-453161D02*
G54D46*
D03*
X1558594Y-737679D02*
G54D43*
D03*
X1530143Y-737679D02*
G54D44*
D03*
X2745447Y-347487D02*
G54D43*
D03*
X2745447Y-313443D02*
G54D57*
D03*
X2566606Y-442241D02*
G54D45*
D03*
X2716999Y-295147D02*
G54D43*
D03*
X2716999Y-329194D02*
G54D50*
D03*
X2727156Y-866477D02*
G54D50*
D03*
X2727156Y-832438D02*
G54D50*
D03*
X2759668Y-832438D02*
G54D50*
D03*
X2759668Y-866477D02*
G54D50*
D03*
X2552386Y-578908D02*
G54D56*
D03*
X2416222Y-654862D02*
G54D51*
D03*
X2385742Y-654862D02*
G54D51*
D03*
X2552386Y-612952D02*
G54D45*
D03*
X2164221Y-752416D02*
G54D46*
D03*
X2164221Y-786462D02*
G54D44*
D03*
X2164221Y-717359D02*
G54D46*
D03*
X2164221Y-683315D02*
G54D44*
D03*
X2194704Y-717359D02*
G54D46*
D03*
X2194704Y-683315D02*
G54D44*
D03*
X2570670Y-821768D02*
G54D43*
D03*
X2570670Y-787730D02*
G54D43*
D03*
X2375570Y-1185293D02*
G54D52*
D03*
X2375570Y-1219336D02*
G54D65*
D03*
X2430444Y-1297066D02*
G54D44*
D03*
X2430444Y-1331107D02*
G54D46*
D03*
X1465107Y-1467784D02*
G54D50*
D03*
X1465107Y-1501820D02*
G54D50*
D03*
X1465107Y-1404279D02*
G54D43*
D03*
X1465107Y-1370233D02*
G54D50*
D03*
X1432595Y-1501820D02*
G54D46*
D03*
X1432595Y-1467784D02*
G54D46*
D03*
X2190640Y-1447456D02*
G54D46*
D03*
X2190640Y-1481502D02*
G54D44*
D03*
X2277015Y-1143126D02*
G54D45*
D03*
X2277015Y-1109080D02*
G54D55*
D03*
X2647898Y-1219329D02*
G54D49*
D03*
X2615386Y-1219329D02*
G54D62*
D03*
X2647898Y-1185293D02*
G54D49*
D03*
X2615386Y-1185293D02*
G54D62*
D03*
X2582862Y-1185293D02*
G54D45*
D03*
X2582862Y-1219336D02*
G54D55*
D03*
X1743534Y-1193421D02*
G54D44*
D03*
X1511850Y-1090030D02*
G54D43*
D03*
X1511850Y-1055992D02*
G54D43*
D03*
X1253751Y-1062850D02*
G54D51*
D03*
X1253751Y-1028804D02*
G54D44*
D03*
X1660212Y-1177930D02*
G54D57*
D03*
X1660212Y-1211970D02*
G54D43*
D03*
X1690692Y-1211970D02*
G54D43*
D03*
X1690692Y-1177930D02*
G54D57*
D03*
X1999601Y-634034D02*
G54D44*
D03*
X1969119Y-634034D02*
G54D44*
D03*
X1934572Y-638611D02*
G54D44*
D03*
X914361Y-1148201D02*
G54D57*
D03*
X914361Y-1114165D02*
G54D50*
D03*
X942812Y-1114165D02*
G54D46*
D03*
X942812Y-1148201D02*
G54D51*
D03*
X385965Y-1294531D02*
G54D48*
D03*
X385965Y-1260490D02*
G54D48*
D03*
X392066Y-1337718D02*
G54D44*
D03*
X392066Y-1371754D02*
G54D44*
D03*
X384692Y-1208920D02*
G54D51*
D03*
X384692Y-1174874D02*
G54D44*
D03*
X1483400Y-1090030D02*
G54D44*
D03*
X1483400Y-1055992D02*
G54D44*
D03*
X2273962Y-990190D02*
G54D52*
D03*
X1426494Y-1090030D02*
G54D48*
D03*
X1426494Y-1055992D02*
G54D48*
D03*
X1454947Y-1090030D02*
G54D44*
D03*
X1454947Y-1055992D02*
G54D44*
D03*
X438807Y-1065390D02*
G54D44*
D03*
X885905Y-1148201D02*
G54D53*
D03*
X885905Y-1114165D02*
G54D47*
D03*
X418482Y-1453047D02*
G54D44*
D03*
X418482Y-1419011D02*
G54D44*
D03*
X418482Y-1337718D02*
G54D44*
D03*
X418482Y-1371754D02*
G54D44*
D03*
X290448Y-1453047D02*
G54D44*
D03*
X290448Y-1371754D02*
G54D44*
D03*
X290448Y-1419011D02*
G54D44*
D03*
X965164Y-1297066D02*
G54D44*
D03*
X965164Y-1331107D02*
G54D46*
D03*
X934678Y-1331107D02*
G54D46*
D03*
X934678Y-1297066D02*
G54D44*
D03*
X904196Y-1297066D02*
G54D44*
D03*
X904196Y-1331107D02*
G54D46*
D03*
X904196Y-1485569D02*
G54D44*
D03*
X904196Y-1451523D02*
G54D46*
D03*
X780231Y-1297063D02*
G54D45*
D03*
X747706Y-1297066D02*
G54D44*
D03*
X763968Y-1150236D02*
G54D52*
D03*
X763968Y-1116200D02*
G54D52*
D03*
X932657Y-1384460D02*
G54D45*
D03*
X932657Y-1418498D02*
G54D45*
D03*
X995651Y-1331107D02*
G54D50*
D03*
X1013944Y-1241688D02*
G54D46*
D03*
X1013944Y-1207645D02*
G54D44*
D03*
X995651Y-1297066D02*
G54D43*
D03*
X731456Y-1150233D02*
G54D48*
D03*
X731456Y-1116197D02*
G54D48*
D03*
X448962Y-1243720D02*
G54D44*
D03*
X479444Y-1243720D02*
G54D44*
D03*
X540417Y-1099428D02*
G54D43*
D03*
X540417Y-1065390D02*
G54D43*
D03*
X607486Y-1099428D02*
G54D48*
D03*
X579030Y-1099428D02*
G54D48*
D03*
X1032232Y-1055227D02*
G54D56*
D03*
X1001750Y-1055224D02*
G54D46*
D03*
X1001750Y-1089273D02*
G54D44*
D03*
X1032232Y-1089271D02*
G54D45*
D03*
X208901Y-152130D02*
G54D66*
D03*
X133710Y-152130D02*
G54D60*
D03*
X171302Y-112239D02*
G54D59*
D03*
X338967Y-152130D02*
G54D60*
D03*
X263776Y-152130D02*
G54D66*
D03*
X301368Y-112239D02*
G54D67*
D03*
X655240Y-338846D02*
G54D44*
D03*
X657775Y-267713D02*
G54D45*
D03*
X655240Y-304802D02*
G54D46*
D03*
X657775Y-233672D02*
G54D45*
D03*
X876253Y-237230D02*
G54D44*
D03*
X840691Y-232143D02*
G54D43*
D03*
X886413Y-533438D02*
G54D43*
D03*
X886413Y-567476D02*
G54D43*
D03*
X416447Y-463323D02*
G54D68*
D03*
X416447Y-429280D02*
G54D69*
D03*
X554644Y-457227D02*
G54D46*
D03*
X708593Y-628446D02*
G54D57*
D03*
X708593Y-670615D02*
G54D50*
D03*
X708593Y-704659D02*
G54D43*
D03*
X708593Y-594402D02*
G54D43*
D03*
X739076Y-704659D02*
G54D48*
D03*
X739076Y-670615D02*
G54D47*
D03*
X739076Y-628446D02*
G54D53*
D03*
X769556Y-628446D02*
G54D57*
D03*
X774133Y-687379D02*
G54D43*
D03*
X774133Y-721423D02*
G54D50*
D03*
X857455Y-745810D02*
G54D45*
D03*
X857455Y-711771D02*
G54D45*
D03*
X800046Y-594402D02*
G54D44*
D03*
X769556Y-594402D02*
G54D43*
D03*
X739076Y-594402D02*
G54D48*
D03*
X791151Y-525556D02*
G54D43*
D03*
X763211Y-525556D02*
G54D44*
D03*
X459635Y-563920D02*
G54D43*
D03*
X459635Y-531908D02*
G54D43*
D03*
X459635Y-497870D02*
G54D43*
D03*
X485040Y-497870D02*
G54D44*
D03*
X485040Y-531908D02*
G54D44*
D03*
X485040Y-563920D02*
G54D44*
D03*
X530763Y-597956D02*
G54D44*
D03*
X530763Y-563920D02*
G54D44*
D03*
X612053Y-531908D02*
G54D44*
D03*
X612053Y-497870D02*
G54D44*
D03*
X1341140Y-1028804D02*
G54D48*
D03*
X1312692Y-1028804D02*
G54D44*
D03*
X1115554Y-1437294D02*
G54D43*
D03*
X1115554Y-1471340D02*
G54D50*
D03*
X1046454Y-1471338D02*
G54D56*
D03*
X1046454Y-1437294D02*
G54D45*
D03*
X1046454Y-1331109D02*
G54D56*
D03*
X1046461Y-1207645D02*
G54D48*
D03*
X1046461Y-1241688D02*
G54D47*
D03*
X1046454Y-1297063D02*
G54D45*
D03*
X532287Y-1416466D02*
G54D53*
D03*
X532287Y-1382420D02*
G54D48*
D03*
X668451Y-1416466D02*
G54D57*
D03*
X668451Y-1382420D02*
G54D43*
D03*
X717226Y-1416466D02*
G54D51*
D03*
X717226Y-1382420D02*
G54D44*
D03*
X747706Y-1331107D02*
G54D46*
D03*
X780231Y-1331109D02*
G54D56*
D03*
X717226Y-1485569D02*
G54D44*
D03*
X686744Y-1485569D02*
G54D44*
D03*
X717226Y-1451523D02*
G54D46*
D03*
X686744Y-1451523D02*
G54D46*
D03*
X475388Y-1331107D02*
G54D47*
D03*
X566838Y-1331107D02*
G54D46*
D03*
X562774Y-1382420D02*
G54D44*
D03*
X562774Y-1416466D02*
G54D51*
D03*
X566838Y-1297066D02*
G54D44*
D03*
X505868Y-1297066D02*
G54D43*
D03*
X505868Y-1331107D02*
G54D50*
D03*
X536351Y-1331107D02*
G54D47*
D03*
X536351Y-1297066D02*
G54D48*
D03*
X695888Y-226054D02*
G54D48*
D03*
X695888Y-196583D02*
G54D53*
D03*
X695888Y-162539D02*
G54D48*
D03*
X365640Y-1060815D02*
G54D43*
D03*
X365640Y-1026776D02*
G54D43*
D03*
X2588970Y-578400D02*
G54D62*
D03*
X1969119Y-599998D02*
G54D44*
D03*
X1999601Y-599998D02*
G54D44*
D03*
X268088Y-303278D02*
G54D43*
D03*
X268088Y-337316D02*
G54D43*
D03*
X296544Y-337316D02*
G54D43*
D03*
X296544Y-303278D02*
G54D43*
D03*
X268088Y-473481D02*
G54D43*
D03*
X296544Y-473481D02*
G54D43*
D03*
X296544Y-439445D02*
G54D43*
D03*
X268088Y-439445D02*
G54D43*
D03*
X296544Y-404383D02*
G54D43*
D03*
X268088Y-404383D02*
G54D43*
D03*
X530763Y-497870D02*
G54D44*
D03*
X324995Y-540550D02*
G54D44*
D03*
X296544Y-540550D02*
G54D43*
D03*
X353443Y-540550D02*
G54D43*
D03*
X292480Y-1024744D02*
G54D47*
D03*
X292480Y-1058780D02*
G54D47*
D03*
X268088Y-914999D02*
G54D50*
D03*
X268088Y-877907D02*
G54D43*
D03*
X268088Y-843866D02*
G54D43*
D03*
X268088Y-949040D02*
G54D43*
D03*
X270120Y-808814D02*
G54D44*
D03*
X268088Y-674679D02*
G54D50*
D03*
X268088Y-707707D02*
G54D43*
D03*
X268088Y-741743D02*
G54D43*
D03*
X270120Y-774776D02*
G54D44*
D03*
X300603Y-949040D02*
G54D44*
D03*
X329059Y-949040D02*
G54D44*
D03*
X300603Y-914999D02*
G54D46*
D03*
X329059Y-914999D02*
G54D46*
D03*
X266056Y-1207142D02*
G54D51*
D03*
X266056Y-1173098D02*
G54D44*
D03*
X268088Y-1133977D02*
G54D43*
D03*
X268088Y-1099936D02*
G54D43*
D03*
X229475Y-1371754D02*
G54D43*
D03*
X229475Y-1337718D02*
G54D43*
D03*
X999718Y-665027D02*
G54D48*
D03*
X999718Y-699066D02*
G54D48*
D03*
X1462922Y-551194D02*
G54D46*
D03*
X1426504Y-528866D02*
G54D45*
D03*
X343288Y-1207142D02*
G54D57*
D03*
X312800Y-1207142D02*
G54D51*
D03*
X343288Y-1173098D02*
G54D43*
D03*
X312800Y-1173098D02*
G54D44*
D03*
X2598622Y-441977D02*
G54D49*
D03*
X1652885Y-131981D02*
G54D70*
D03*
X1665585Y-131981D02*
G54D70*
D03*
X1678285Y-131981D02*
G54D70*
D03*
X1690985Y-131981D02*
G54D70*
D03*
X1703685Y-131981D02*
G54D70*
D03*
X1716385Y-131981D02*
G54D70*
D03*
X1729085Y-131981D02*
G54D70*
D03*
X1741785Y-131981D02*
G54D70*
D03*
X1754485Y-131981D02*
G54D70*
D03*
X1767185Y-131981D02*
G54D70*
D03*
X1779885Y-131981D02*
G54D70*
D03*
X1792585Y-131981D02*
G54D70*
D03*
X1805285Y-131981D02*
G54D70*
D03*
X1817985Y-131981D02*
G54D70*
D03*
X1830685Y-131981D02*
G54D70*
D03*
X1843385Y-131981D02*
G54D70*
D03*
X1856085Y-131981D02*
G54D70*
D03*
X1868785Y-131981D02*
G54D70*
D03*
X1881485Y-131981D02*
G54D70*
D03*
X1894185Y-131981D02*
G54D70*
D03*
X1906885Y-131981D02*
G54D70*
D03*
X1919585Y-131981D02*
G54D70*
D03*
X1932285Y-131981D02*
G54D70*
D03*
X1944985Y-131981D02*
G54D70*
D03*
X1957685Y-131981D02*
G54D70*
D03*
X1970385Y-131981D02*
G54D70*
D03*
X1983085Y-131981D02*
G54D70*
D03*
X1995785Y-131981D02*
G54D70*
D03*
X2008485Y-131981D02*
G54D70*
D03*
X2021185Y-131981D02*
G54D70*
D03*
X2033885Y-131981D02*
G54D70*
D03*
X2046585Y-131981D02*
G54D70*
D03*
X2059285Y-131981D02*
G54D70*
D03*
X2071985Y-131981D02*
G54D70*
D03*
X2084685Y-131981D02*
G54D70*
D03*
X2097385Y-131981D02*
G54D70*
D03*
X2110085Y-131981D02*
G54D70*
D03*
X2122785Y-131981D02*
G54D70*
D03*
X2135485Y-131981D02*
G54D70*
D03*
X2148185Y-131981D02*
G54D70*
D03*
X2160885Y-131981D02*
G54D70*
D03*
X2173585Y-131981D02*
G54D70*
D03*
X2186285Y-131981D02*
G54D70*
D03*
X2198985Y-131981D02*
G54D70*
D03*
X2211685Y-131981D02*
G54D70*
D03*
X2224385Y-131981D02*
G54D70*
D03*
X2237085Y-131981D02*
G54D70*
D03*
X2249785Y-131981D02*
G54D70*
D03*
X2262485Y-131981D02*
G54D70*
D03*
X2300585Y-131981D02*
G54D70*
D03*
X2313285Y-131981D02*
G54D70*
D03*
X2325985Y-131981D02*
G54D70*
D03*
X2338685Y-131981D02*
G54D70*
D03*
X2351385Y-131981D02*
G54D70*
D03*
X2364085Y-131981D02*
G54D70*
D03*
X2376785Y-131981D02*
G54D70*
D03*
X2389485Y-131981D02*
G54D70*
D03*
X2402185Y-131981D02*
G54D70*
D03*
X2414885Y-131981D02*
G54D70*
D03*
X2427585Y-131981D02*
G54D70*
D03*
X2440285Y-131981D02*
G54D70*
D03*
X2452985Y-131981D02*
G54D70*
D03*
X2465685Y-131981D02*
G54D70*
D03*
X2478385Y-131981D02*
G54D70*
D03*
X2491085Y-131981D02*
G54D70*
D03*
X2503785Y-131981D02*
G54D70*
D03*
X2516485Y-131981D02*
G54D70*
D03*
X2529185Y-131981D02*
G54D70*
D03*
X2541885Y-131981D02*
G54D70*
D03*
X2554585Y-131981D02*
G54D70*
D03*
X2567285Y-131981D02*
G54D70*
D03*
X2579985Y-131981D02*
G54D70*
D03*
X2592685Y-131981D02*
G54D70*
D03*
X2605385Y-131981D02*
G54D70*
D03*
X2618085Y-131981D02*
G54D70*
D03*
X2630785Y-131981D02*
G54D70*
D03*
X2643485Y-131981D02*
G54D70*
D03*
X2656185Y-131981D02*
G54D70*
D03*
X2668885Y-131981D02*
G54D70*
D03*
X2681585Y-131981D02*
G54D70*
D03*
X2694285Y-131981D02*
G54D70*
D03*
X2706985Y-131981D02*
G54D70*
D03*
X2719685Y-131981D02*
G54D70*
D03*
X2732385Y-131981D02*
G54D70*
D03*
X2745085Y-131981D02*
G54D70*
D03*
X2757785Y-131981D02*
G54D70*
D03*
X2770485Y-131981D02*
G54D70*
D03*
X2783185Y-131981D02*
G54D70*
D03*
X2795885Y-131981D02*
G54D70*
D03*
X2808585Y-131981D02*
G54D70*
D03*
X2821285Y-131981D02*
G54D70*
D03*
G36*
X197115Y-746216D02*
X216115Y-746216D01*
X216115Y-765216D01*
X197115Y-765216D01*
X197115Y-746216D01*
G37*
G36*
X197115Y-401238D02*
X216115Y-401238D01*
X216115Y-420238D01*
X197115Y-420238D01*
X197115Y-401238D01*
G37*
G36*
X418758Y-509831D02*
X433958Y-509831D01*
X433958Y-525031D01*
X418758Y-525031D01*
X418758Y-509831D01*
G37*
G36*
X373282Y-509831D02*
X388482Y-509831D01*
X388482Y-525031D01*
X373282Y-525031D01*
X373282Y-509831D01*
G37*
G36*
X314256Y-992182D02*
X327856Y-992182D01*
X327856Y-1005782D01*
X314256Y-1005782D01*
X314256Y-992182D01*
G37*
G36*
X2489474Y-1462552D02*
X2504674Y-1462552D01*
X2504674Y-1477752D01*
X2489474Y-1477752D01*
X2489474Y-1462552D01*
G37*
G36*
X2697382Y-1462331D02*
X2712582Y-1462331D01*
X2712582Y-1477531D01*
X2697382Y-1477531D01*
X2697382Y-1462331D01*
G37*
G36*
X1555534Y-241084D02*
X1655534Y-241084D01*
X1655534Y-341084D01*
X1555534Y-341084D01*
X1555534Y-241084D01*
G37*
G36*
X2726220Y-1306360D02*
X2826220Y-1306360D01*
X2826220Y-1406360D01*
X2726220Y-1406360D01*
X2726220Y-1306360D01*
G37*
G36*
X101130Y-1306360D02*
X201130Y-1306360D01*
X201130Y-1406360D01*
X101130Y-1406360D01*
X101130Y-1306360D01*
G37*
G36*
X1323492Y-495706D02*
X1342492Y-495706D01*
X1342492Y-514706D01*
X1323492Y-514706D01*
X1323492Y-495706D01*
G37*
G36*
X183954Y-1430840D02*
X197554Y-1430840D01*
X197554Y-1444440D01*
X183954Y-1444440D01*
X183954Y-1430840D01*
G37*
M02*
